<?xml version="1.0" encoding="UTF-8" standalone="no"?>
<!DOCTYPE svg PUBLIC "-//W3C//DTD SVG 1.1//EN"
 "http://www.w3.org/Graphics/SVG/1.1/DTD/svg11.dtd">
<!-- Generated by graphviz version 2.40.1 (20161225.0304)
 -->
<!-- Title: UmlClassDiagram Pages: 1 -->
<svg width="2172pt" height="2024pt"
 viewBox="0.00 0.00 2172.02 2024.20" xmlns="http://www.w3.org/2000/svg" xmlns:xlink="http://www.w3.org/1999/xlink">
<g id="graph0" class="graph" transform="scale(1 1) rotate(0) translate(4 2020.2)">
<title>UmlClassDiagram</title>
<polygon fill="#ffffff" stroke="transparent" points="-4,4 -4,-2020.2 2168.0155,-2020.2 2168.0155,4 -4,4"/>
<!-- 5 -->
<g id="node1" class="node">
<title>5</title>
<polygon fill="#f2f2f2" stroke="#000000" points="1717.769,-1661.9 1717.769,-1803.5 1897.9232,-1803.5 1897.9232,-1661.9 1717.769,-1661.9"/>
<text text-anchor="middle" x="1807.8461" y="-1786.9" font-family="Times,serif" font-size="14.00" fill="#000000">Pausable</text>
<polyline fill="none" stroke="#000000" points="1717.769,-1778.7 1897.9232,-1778.7 "/>
<text text-anchor="start" x="1725.769" y="-1762.1" font-family="Times,serif" font-size="14.00" fill="#000000">Public:</text>
<text text-anchor="start" x="1725.769" y="-1745.3" font-family="Times,serif" font-size="14.00" fill="#000000"> &#160;&#160;paused: bool</text>
<polyline fill="none" stroke="#000000" points="1717.769,-1737.1 1897.9232,-1737.1 "/>
<text text-anchor="start" x="1725.769" y="-1720.5" font-family="Times,serif" font-size="14.00" fill="#000000">Public:</text>
<text text-anchor="start" x="1725.769" y="-1703.7" font-family="Times,serif" font-size="14.00" fill="#000000"> &#160;&#160;&#160;&lt;&lt;modifier&gt;&gt; notPaused()</text>
<text text-anchor="start" x="1725.769" y="-1686.9" font-family="Times,serif" font-size="14.00" fill="#000000"> &#160;&#160;&#160;pause()</text>
<text text-anchor="start" x="1725.769" y="-1670.1" font-family="Times,serif" font-size="14.00" fill="#000000"> &#160;&#160;&#160;unpause()</text>
</g>
<!-- 1 -->
<g id="node6" class="node">
<title>1</title>
<polygon fill="#f2f2f2" stroke="#000000" points="1144.4298,-1840.5 1144.4298,-2015.7 1379.2624,-2015.7 1379.2624,-1840.5 1144.4298,-1840.5"/>
<text text-anchor="middle" x="1261.8461" y="-1999.1" font-family="Times,serif" font-size="14.00" fill="#000000">Owned</text>
<polyline fill="none" stroke="#000000" points="1144.4298,-1990.9 1379.2624,-1990.9 "/>
<text text-anchor="start" x="1152.4298" y="-1974.3" font-family="Times,serif" font-size="14.00" fill="#000000">Public:</text>
<text text-anchor="start" x="1152.4298" y="-1957.5" font-family="Times,serif" font-size="14.00" fill="#000000"> &#160;&#160;owner: address</text>
<text text-anchor="start" x="1152.4298" y="-1940.7" font-family="Times,serif" font-size="14.00" fill="#000000"> &#160;&#160;newOwner: address</text>
<polyline fill="none" stroke="#000000" points="1144.4298,-1932.5 1379.2624,-1932.5 "/>
<text text-anchor="start" x="1152.4298" y="-1915.9" font-family="Times,serif" font-size="14.00" fill="#000000">Public:</text>
<text text-anchor="start" x="1152.4298" y="-1899.1" font-family="Times,serif" font-size="14.00" fill="#000000"> &#160;&#160;&#160;&lt;&lt;modifier&gt;&gt; onlyOwner()</text>
<text text-anchor="start" x="1152.4298" y="-1882.3" font-family="Times,serif" font-size="14.00" fill="#000000"> &#160;&#160;&#160;constructor()</text>
<text text-anchor="start" x="1152.4298" y="-1865.5" font-family="Times,serif" font-size="14.00" fill="#000000"> &#160;&#160;&#160;changeOwner(_newOwner: address)</text>
<text text-anchor="start" x="1152.4298" y="-1848.7" font-family="Times,serif" font-size="14.00" fill="#000000"> &#160;&#160;&#160;acceptOwnership()</text>
</g>
<!-- 5&#45;&gt;1 -->
<g id="edge1" class="edge">
<title>5&#45;&gt;1</title>
<path fill="none" stroke="#000000" d="M1717.5487,-1797.0772C1712.9882,-1799.5426 1708.4072,-1801.8675 1703.8461,-1804 1609.8295,-1847.9573 1497.0997,-1879.3046 1409.018,-1899.4972"/>
<polygon fill="none" stroke="#000000" points="1406.5641,-1889.2863 1379.5587,-1906.0481 1411.1226,-1909.7856 1406.5641,-1889.2863"/>
</g>
<!-- 0 -->
<g id="node2" class="node">
<title>0</title>
<polygon fill="#f2f2f2" stroke="#000000" points="0,-1670.3 0,-1795.1 193.6922,-1795.1 193.6922,-1670.3 0,-1670.3"/>
<text text-anchor="middle" x="96.8461" y="-1778.5" font-family="Times,serif" font-size="14.00" fill="#000000">SafeMath</text>
<polyline fill="none" stroke="#000000" points="0,-1770.3 193.6922,-1770.3 "/>
<text text-anchor="middle" x="96.8461" y="-1753.7" font-family="Times,serif" font-size="14.00" fill="#000000"> </text>
<polyline fill="none" stroke="#000000" points="0,-1745.5 193.6922,-1745.5 "/>
<text text-anchor="start" x="8" y="-1728.9" font-family="Times,serif" font-size="14.00" fill="#000000">Internal:</text>
<text text-anchor="start" x="8" y="-1712.1" font-family="Times,serif" font-size="14.00" fill="#000000"> &#160;&#160;&#160;safeMul(a: uint, b: uint): uint</text>
<text text-anchor="start" x="8" y="-1695.3" font-family="Times,serif" font-size="14.00" fill="#000000"> &#160;&#160;&#160;safeSub(a: uint, b: uint): uint</text>
<text text-anchor="start" x="8" y="-1678.5" font-family="Times,serif" font-size="14.00" fill="#000000"> &#160;&#160;&#160;safeAdd(a: uint, b: uint): uint</text>
</g>
<!-- 2 -->
<g id="node3" class="node">
<title>2</title>
<polygon fill="#f2f2f2" stroke="#000000" points="1327.9916,-1306.9 1327.9916,-1431.7 1661.7006,-1431.7 1661.7006,-1306.9 1327.9916,-1306.9"/>
<text text-anchor="middle" x="1494.8461" y="-1415.1" font-family="Times,serif" font-size="14.00" fill="#000000">&lt;&lt;Abstract&gt;&gt;</text>
<text text-anchor="middle" x="1494.8461" y="-1398.3" font-family="Times,serif" font-size="14.00" fill="#000000">IToken</text>
<polyline fill="none" stroke="#000000" points="1327.9916,-1390.1 1661.7006,-1390.1 "/>
<text text-anchor="middle" x="1494.8461" y="-1373.5" font-family="Times,serif" font-size="14.00" fill="#000000"> </text>
<polyline fill="none" stroke="#000000" points="1327.9916,-1365.3 1661.7006,-1365.3 "/>
<text text-anchor="start" x="1335.9916" y="-1348.7" font-family="Times,serif" font-size="14.00" fill="#000000">Public:</text>
<text text-anchor="start" x="1335.9916" y="-1331.9" font-family="Times,serif" font-size="14.00" fill="#000000"> &#160;&#160;&#160;&lt;&lt;abstract&gt;&gt; transfer(_to: address, _value: uint): bool</text>
<text text-anchor="start" x="1335.9916" y="-1315.1" font-family="Times,serif" font-size="14.00" fill="#000000"> &#160;&#160;&#160;&lt;&lt;abstract&gt;&gt; balanceOf(owner: address): uint</text>
</g>
<!-- 3 -->
<g id="node4" class="node">
<title>3</title>
<polygon fill="#f2f2f2" stroke="#000000" points="1394.021,-800.7 1394.021,-891.9 1699.6712,-891.9 1699.6712,-800.7 1394.021,-800.7"/>
<text text-anchor="middle" x="1546.8461" y="-875.3" font-family="Times,serif" font-size="14.00" fill="#000000">TokenReceivable</text>
<polyline fill="none" stroke="#000000" points="1394.021,-867.1 1699.6712,-867.1 "/>
<text text-anchor="middle" x="1546.8461" y="-850.5" font-family="Times,serif" font-size="14.00" fill="#000000"> </text>
<polyline fill="none" stroke="#000000" points="1394.021,-842.3 1699.6712,-842.3 "/>
<text text-anchor="start" x="1402.021" y="-825.7" font-family="Times,serif" font-size="14.00" fill="#000000">Public:</text>
<text text-anchor="start" x="1402.021" y="-808.9" font-family="Times,serif" font-size="14.00" fill="#000000"> &#160;&#160;&#160;claimTokens(_token: address, _to: address): bool</text>
</g>
<!-- 3&#45;&gt;2 -->
<g id="edge3" class="edge">
<title>3&#45;&gt;2</title>
<path fill="none" stroke="#000000" stroke-dasharray="5,2" d="M1542.277,-892.2544C1533.2166,-983.381 1512.9126,-1187.5932 1502.041,-1296.9356"/>
<polygon fill="#000000" stroke="#000000" points="1498.5577,-1296.5952 1501.0511,-1306.8924 1505.5234,-1297.2878 1498.5577,-1296.5952"/>
</g>
<!-- 3&#45;&gt;1 -->
<g id="edge2" class="edge">
<title>3&#45;&gt;1</title>
<path fill="none" stroke="#000000" d="M1575.8171,-892.2936C1606.4029,-943.8008 1652.6573,-1030.8813 1670.8461,-1113.2 1719.9608,-1335.483 1773.2995,-1422.1138 1670.8461,-1625.4 1615.785,-1734.6513 1500.5984,-1814.2856 1406.4548,-1864.3736"/>
<polygon fill="none" stroke="#000000" points="1401.4647,-1855.1326 1379.5838,-1878.1864 1411.0655,-1873.8095 1401.4647,-1855.1326"/>
</g>
<!-- 4 -->
<g id="node5" class="node">
<title>4</title>
<polygon fill="#f2f2f2" stroke="#000000" points="1755.6767,-775.5 1755.6767,-917.1 2164.0155,-917.1 2164.0155,-775.5 1755.6767,-775.5"/>
<text text-anchor="middle" x="1959.8461" y="-900.5" font-family="Times,serif" font-size="14.00" fill="#000000">EventDefinitions</text>
<polyline fill="none" stroke="#000000" points="1755.6767,-892.3 2164.0155,-892.3 "/>
<text text-anchor="middle" x="1959.8461" y="-875.7" font-family="Times,serif" font-size="14.00" fill="#000000"> </text>
<polyline fill="none" stroke="#000000" points="1755.6767,-867.5 2164.0155,-867.5 "/>
<text text-anchor="start" x="1763.6767" y="-850.9" font-family="Times,serif" font-size="14.00" fill="#000000">Public:</text>
<text text-anchor="start" x="1763.6767" y="-834.1" font-family="Times,serif" font-size="14.00" fill="#000000"> &#160;&#160;&#160;&lt;&lt;event&gt;&gt; Transfer(from: address, to: address, value: uint)</text>
<text text-anchor="start" x="1763.6767" y="-817.3" font-family="Times,serif" font-size="14.00" fill="#000000"> &#160;&#160;&#160;&lt;&lt;event&gt;&gt; Approval(owner: address, spender: address, value: uint)</text>
<text text-anchor="start" x="1763.6767" y="-800.5" font-family="Times,serif" font-size="14.00" fill="#000000"> &#160;&#160;&#160;&lt;&lt;event&gt;&gt; Burn(from: address, to: bytes32, value: uint)</text>
<text text-anchor="start" x="1763.6767" y="-783.7" font-family="Times,serif" font-size="14.00" fill="#000000"> &#160;&#160;&#160;&lt;&lt;event&gt;&gt; Claimed(claimer: address, value: uint)</text>
</g>
<!-- 6 -->
<g id="node7" class="node">
<title>6</title>
<polygon fill="#f2f2f2" stroke="#000000" points="1165.5481,-1670.3 1165.5481,-1795.1 1358.1441,-1795.1 1358.1441,-1670.3 1165.5481,-1670.3"/>
<text text-anchor="middle" x="1261.8461" y="-1778.5" font-family="Times,serif" font-size="14.00" fill="#000000">Finalizable</text>
<polyline fill="none" stroke="#000000" points="1165.5481,-1770.3 1358.1441,-1770.3 "/>
<text text-anchor="start" x="1173.5481" y="-1753.7" font-family="Times,serif" font-size="14.00" fill="#000000">Public:</text>
<text text-anchor="start" x="1173.5481" y="-1736.9" font-family="Times,serif" font-size="14.00" fill="#000000"> &#160;&#160;finalized: bool</text>
<polyline fill="none" stroke="#000000" points="1165.5481,-1728.7 1358.1441,-1728.7 "/>
<text text-anchor="start" x="1173.5481" y="-1712.1" font-family="Times,serif" font-size="14.00" fill="#000000">Public:</text>
<text text-anchor="start" x="1173.5481" y="-1695.3" font-family="Times,serif" font-size="14.00" fill="#000000"> &#160;&#160;&#160;&lt;&lt;modifier&gt;&gt; notFinalized()</text>
<text text-anchor="start" x="1173.5481" y="-1678.5" font-family="Times,serif" font-size="14.00" fill="#000000"> &#160;&#160;&#160;finalize()</text>
</g>
<!-- 6&#45;&gt;1 -->
<g id="edge4" class="edge">
<title>6&#45;&gt;1</title>
<path fill="none" stroke="#000000" d="M1261.8461,-1795.3321C1261.8461,-1800.1321 1261.8461,-1805.0623 1261.8461,-1810.067"/>
<polygon fill="none" stroke="#000000" points="1251.3462,-1810.1887 1261.8461,-1840.1888 1272.3462,-1810.1888 1251.3462,-1810.1887"/>
</g>
<!-- 7 -->
<g id="node8" class="node">
<title>7</title>
<polygon fill="#f2f2f2" stroke="#000000" points="669.983,-1113.7 669.983,-1624.9 1233.7092,-1624.9 1233.7092,-1113.7 669.983,-1113.7"/>
<text text-anchor="middle" x="951.8461" y="-1608.3" font-family="Times,serif" font-size="14.00" fill="#000000">Ledger</text>
<polyline fill="none" stroke="#000000" points="669.983,-1600.1 1233.7092,-1600.1 "/>
<text text-anchor="start" x="677.983" y="-1583.5" font-family="Times,serif" font-size="14.00" fill="#000000">Public:</text>
<text text-anchor="start" x="677.983" y="-1566.7" font-family="Times,serif" font-size="14.00" fill="#000000"> &#160;&#160;controller: Controller</text>
<text text-anchor="start" x="677.983" y="-1549.9" font-family="Times,serif" font-size="14.00" fill="#000000"> &#160;&#160;balanceOf: mapping(address=&gt;uint)</text>
<text text-anchor="start" x="677.983" y="-1533.1" font-family="Times,serif" font-size="14.00" fill="#000000"> &#160;&#160;allowance: mapping(address=&gt;mapping(address=&gt;uint))</text>
<text text-anchor="start" x="677.983" y="-1516.3" font-family="Times,serif" font-size="14.00" fill="#000000"> &#160;&#160;totalSupply: uint</text>
<text text-anchor="start" x="677.983" y="-1499.5" font-family="Times,serif" font-size="14.00" fill="#000000"> &#160;&#160;mintingNonce: uint</text>
<text text-anchor="start" x="677.983" y="-1482.7" font-family="Times,serif" font-size="14.00" fill="#000000"> &#160;&#160;mintingStopped: bool</text>
<text text-anchor="start" x="677.983" y="-1465.9" font-family="Times,serif" font-size="14.00" fill="#000000"> &#160;&#160;proofs: mapping(uint256=&gt;bytes32)</text>
<text text-anchor="start" x="677.983" y="-1449.1" font-family="Times,serif" font-size="14.00" fill="#000000"> &#160;&#160;locked: mapping(address=&gt;uint256)</text>
<text text-anchor="start" x="677.983" y="-1432.3" font-family="Times,serif" font-size="14.00" fill="#000000"> &#160;&#160;metadata: mapping(bytes32=&gt;bytes32)</text>
<text text-anchor="start" x="677.983" y="-1415.5" font-family="Times,serif" font-size="14.00" fill="#000000"> &#160;&#160;burnAddress: address</text>
<text text-anchor="start" x="677.983" y="-1398.7" font-family="Times,serif" font-size="14.00" fill="#000000"> &#160;&#160;bridgeNodes: mapping(address=&gt;bool)</text>
<polyline fill="none" stroke="#000000" points="669.983,-1390.5 1233.7092,-1390.5 "/>
<text text-anchor="start" x="677.983" y="-1373.9" font-family="Times,serif" font-size="14.00" fill="#000000">Public:</text>
<text text-anchor="start" x="677.983" y="-1357.1" font-family="Times,serif" font-size="14.00" fill="#000000"> &#160;&#160;&#160;&lt;&lt;modifier&gt;&gt; onlyController()</text>
<text text-anchor="start" x="677.983" y="-1340.3" font-family="Times,serif" font-size="14.00" fill="#000000"> &#160;&#160;&#160;approve(_owner: address, _spender: address, _value: uint): (success: bool)</text>
<text text-anchor="start" x="677.983" y="-1323.5" font-family="Times,serif" font-size="14.00" fill="#000000"> &#160;&#160;&#160;stopMinting()</text>
<text text-anchor="start" x="677.983" y="-1306.7" font-family="Times,serif" font-size="14.00" fill="#000000"> &#160;&#160;&#160;multiMint(nonce: uint, bits: uint256[])</text>
<text text-anchor="start" x="677.983" y="-1289.9" font-family="Times,serif" font-size="14.00" fill="#000000"> &#160;&#160;&#160;constructor()</text>
<text text-anchor="start" x="677.983" y="-1273.1" font-family="Times,serif" font-size="14.00" fill="#000000"> &#160;&#160;&#160;transfer(_from: address, _to: address, _value: uint): (success: bool)</text>
<text text-anchor="start" x="677.983" y="-1256.3" font-family="Times,serif" font-size="14.00" fill="#000000"> &#160;&#160;&#160;transferFrom(_spender: address, _from: address, _to: address, _value: uint): (success: bool)</text>
<text text-anchor="start" x="677.983" y="-1239.5" font-family="Times,serif" font-size="14.00" fill="#000000"> &#160;&#160;&#160;setController(_controller: address)</text>
<text text-anchor="start" x="677.983" y="-1222.7" font-family="Times,serif" font-size="14.00" fill="#000000"> &#160;&#160;&#160;increaseApproval(_owner: address, _spender: address, _addedValue: uint): (success: bool)</text>
<text text-anchor="start" x="677.983" y="-1205.9" font-family="Times,serif" font-size="14.00" fill="#000000"> &#160;&#160;&#160;decreaseApproval(_owner: address, _spender: address, _subtractedValue: uint): (success: bool)</text>
<text text-anchor="start" x="677.983" y="-1189.1" font-family="Times,serif" font-size="14.00" fill="#000000"> &#160;&#160;&#160;setProof(_key: uint256, _proof: bytes32)</text>
<text text-anchor="start" x="677.983" y="-1172.3" font-family="Times,serif" font-size="14.00" fill="#000000"> &#160;&#160;&#160;setLocked(_key: address, _value: uint256)</text>
<text text-anchor="start" x="677.983" y="-1155.5" font-family="Times,serif" font-size="14.00" fill="#000000"> &#160;&#160;&#160;setMetadata(_key: bytes32, _value: bytes32)</text>
<text text-anchor="start" x="677.983" y="-1138.7" font-family="Times,serif" font-size="14.00" fill="#000000"> &#160;&#160;&#160;setBurnAddress(_address: address)</text>
<text text-anchor="start" x="677.983" y="-1121.9" font-family="Times,serif" font-size="14.00" fill="#000000"> &#160;&#160;&#160;setBridgeNode(_address: address, enabled: bool)</text>
</g>
<!-- 7&#45;&gt;0 -->
<g id="edge6" class="edge">
<title>7&#45;&gt;0</title>
<path fill="none" stroke="#000000" d="M669.8925,-1620.8473C666.8847,-1622.4034 663.8689,-1623.9217 660.8461,-1625.4 585.5091,-1662.2434 365.5174,-1697.013 223.5963,-1716.5156"/>
<polygon fill="none" stroke="#000000" points="222.0275,-1706.1321 193.7047,-1720.5568 224.8411,-1726.9427 222.0275,-1706.1321"/>
</g>
<!-- 7&#45;&gt;1 -->
<g id="edge5" class="edge">
<title>7&#45;&gt;1</title>
<path fill="none" stroke="#000000" d="M1058.79,-1624.9896C1087.7103,-1685.3393 1121.0257,-1748.2922 1156.8461,-1804 1159.4255,-1808.0114 1162.1218,-1812.034 1164.9084,-1816.0487"/>
<polygon fill="none" stroke="#000000" points="1156.6628,-1822.5582 1182.9332,-1840.4501 1173.5542,-1810.0809 1156.6628,-1822.5582"/>
</g>
<!-- 7&#45;&gt;6 -->
<g id="edge7" class="edge">
<title>7&#45;&gt;6</title>
<path fill="none" stroke="#000000" d="M1170.0941,-1625.143C1176.5533,-1632.7148 1182.8356,-1640.0793 1188.8838,-1647.1694"/>
<polygon fill="none" stroke="#000000" points="1181.0039,-1654.111 1208.4622,-1670.1203 1196.9806,-1640.482 1181.0039,-1654.111"/>
</g>
<!-- 9 -->
<g id="node10" class="node">
<title>9</title>
<polygon fill="#f2f2f2" stroke="#000000" points="388.4834,-615.9 388.4834,-1076.7 989.2088,-1076.7 989.2088,-615.9 388.4834,-615.9"/>
<text text-anchor="middle" x="688.8461" y="-1060.1" font-family="Times,serif" font-size="14.00" fill="#000000">Controller</text>
<polyline fill="none" stroke="#000000" points="388.4834,-1051.9 989.2088,-1051.9 "/>
<text text-anchor="start" x="396.4834" y="-1035.3" font-family="Times,serif" font-size="14.00" fill="#000000">Public:</text>
<text text-anchor="start" x="396.4834" y="-1018.5" font-family="Times,serif" font-size="14.00" fill="#000000"> &#160;&#160;ledger: Ledger</text>
<text text-anchor="start" x="396.4834" y="-1001.7" font-family="Times,serif" font-size="14.00" fill="#000000"> &#160;&#160;token: Token</text>
<text text-anchor="start" x="396.4834" y="-984.9" font-family="Times,serif" font-size="14.00" fill="#000000"> &#160;&#160;burnAddress: address</text>
<polyline fill="none" stroke="#000000" points="388.4834,-976.7 989.2088,-976.7 "/>
<text text-anchor="start" x="396.4834" y="-960.1" font-family="Times,serif" font-size="14.00" fill="#000000">Public:</text>
<text text-anchor="start" x="396.4834" y="-943.3" font-family="Times,serif" font-size="14.00" fill="#000000"> &#160;&#160;&#160;&lt;&lt;modifier&gt;&gt; onlyToken()</text>
<text text-anchor="start" x="396.4834" y="-926.5" font-family="Times,serif" font-size="14.00" fill="#000000"> &#160;&#160;&#160;&lt;&lt;modifier&gt;&gt; onlyLedger()</text>
<text text-anchor="start" x="396.4834" y="-909.7" font-family="Times,serif" font-size="14.00" fill="#000000"> &#160;&#160;&#160;transfer(_from: address, _to: address, _value: uint): (success: bool)</text>
<text text-anchor="start" x="396.4834" y="-892.9" font-family="Times,serif" font-size="14.00" fill="#000000"> &#160;&#160;&#160;setBurnAddress(_address: address)</text>
<text text-anchor="start" x="396.4834" y="-876.1" font-family="Times,serif" font-size="14.00" fill="#000000"> &#160;&#160;&#160;constructor()</text>
<text text-anchor="start" x="396.4834" y="-859.3" font-family="Times,serif" font-size="14.00" fill="#000000"> &#160;&#160;&#160;setLedger(_ledger: address)</text>
<text text-anchor="start" x="396.4834" y="-842.5" font-family="Times,serif" font-size="14.00" fill="#000000"> &#160;&#160;&#160;totalSupply(): uint</text>
<text text-anchor="start" x="396.4834" y="-825.7" font-family="Times,serif" font-size="14.00" fill="#000000"> &#160;&#160;&#160;balanceOf(_a: address): uint</text>
<text text-anchor="start" x="396.4834" y="-808.9" font-family="Times,serif" font-size="14.00" fill="#000000"> &#160;&#160;&#160;allowance(_owner: address, _spender: address): uint</text>
<text text-anchor="start" x="396.4834" y="-792.1" font-family="Times,serif" font-size="14.00" fill="#000000"> &#160;&#160;&#160;ledgerTransfer(from: address, to: address, val: uint)</text>
<text text-anchor="start" x="396.4834" y="-775.3" font-family="Times,serif" font-size="14.00" fill="#000000"> &#160;&#160;&#160;setToken(_token: address)</text>
<text text-anchor="start" x="396.4834" y="-758.5" font-family="Times,serif" font-size="14.00" fill="#000000"> &#160;&#160;&#160;transferFrom(_spender: address, _from: address, _to: address, _value: uint): (success: bool)</text>
<text text-anchor="start" x="396.4834" y="-741.7" font-family="Times,serif" font-size="14.00" fill="#000000"> &#160;&#160;&#160;approve(_owner: address, _spender: address, _value: uint): (success: bool)</text>
<text text-anchor="start" x="396.4834" y="-724.9" font-family="Times,serif" font-size="14.00" fill="#000000"> &#160;&#160;&#160;increaseApproval(_owner: address, _spender: address, _addedValue: uint): (success: bool)</text>
<text text-anchor="start" x="396.4834" y="-708.1" font-family="Times,serif" font-size="14.00" fill="#000000"> &#160;&#160;&#160;decreaseApproval(_owner: address, _spender: address, _subtractedValue: uint): (success: bool)</text>
<text text-anchor="start" x="396.4834" y="-691.3" font-family="Times,serif" font-size="14.00" fill="#000000"> &#160;&#160;&#160;enableBurning()</text>
<text text-anchor="start" x="396.4834" y="-674.5" font-family="Times,serif" font-size="14.00" fill="#000000"> &#160;&#160;&#160;disableBurning()</text>
<text text-anchor="start" x="396.4834" y="-657.7" font-family="Times,serif" font-size="14.00" fill="#000000"> &#160;&#160;&#160;burn(_from: address, _to: bytes32, _amount: uint): (success: bool)</text>
<text text-anchor="start" x="396.4834" y="-640.9" font-family="Times,serif" font-size="14.00" fill="#000000"> &#160;&#160;&#160;claimByProof(_claimer: address, data: bytes32[], proofs: bytes32[], number: uint256): (success: bool)</text>
<text text-anchor="start" x="396.4834" y="-624.1" font-family="Times,serif" font-size="14.00" fill="#000000"> &#160;&#160;&#160;claim(_claimer: address): (success: bool)</text>
</g>
<!-- 7&#45;&gt;9 -->
<g id="edge8" class="edge">
<title>7&#45;&gt;9</title>
<path fill="none" stroke="#000000" d="M829.9916,-1113.5608C825.3722,-1104.3656 820.737,-1095.1609 816.1087,-1085.9921"/>
<polygon fill="#000000" stroke="#000000" points="819.1169,-1084.1845 811.4836,-1076.8371 812.8689,-1087.341 819.1169,-1084.1845"/>
</g>
<!-- 8 -->
<g id="node9" class="node">
<title>8</title>
<polygon fill="#f2f2f2" stroke="#000000" points="249.7637,-1323.7 249.7637,-1414.9 651.9285,-1414.9 651.9285,-1323.7 249.7637,-1323.7"/>
<text text-anchor="middle" x="450.8461" y="-1398.3" font-family="Times,serif" font-size="14.00" fill="#000000">ControllerEventDefinitions</text>
<polyline fill="none" stroke="#000000" points="249.7637,-1390.1 651.9285,-1390.1 "/>
<text text-anchor="middle" x="450.8461" y="-1373.5" font-family="Times,serif" font-size="14.00" fill="#000000"> </text>
<polyline fill="none" stroke="#000000" points="249.7637,-1365.3 651.9285,-1365.3 "/>
<text text-anchor="start" x="257.7637" y="-1348.7" font-family="Times,serif" font-size="14.00" fill="#000000">Public:</text>
<text text-anchor="start" x="257.7637" y="-1331.9" font-family="Times,serif" font-size="14.00" fill="#000000"> &#160;&#160;&#160;&lt;&lt;event&gt;&gt; ControllerBurn(from: address, to: bytes32, value: uint)</text>
</g>
<!-- 9&#45;&gt;1 -->
<g id="edge9" class="edge">
<title>9&#45;&gt;1</title>
<path fill="none" stroke="#000000" d="M388.284,-966.5746C329.3646,-1004.4524 275.2317,-1052.6892 240.8461,-1113.2 184.6114,-1212.1604 172.7544,-1534.1914 240.8461,-1625.4 345.9324,-1766.1627 857.5707,-1864.7374 1114.3032,-1906.1965"/>
<polygon fill="none" stroke="#000000" points="1113.027,-1916.6254 1144.304,-1910.9683 1116.3258,-1895.8861 1113.027,-1916.6254"/>
</g>
<!-- 9&#45;&gt;6 -->
<g id="edge10" class="edge">
<title>9&#45;&gt;6</title>
<path fill="none" stroke="#000000" d="M989.3921,-922.6614C1086.6853,-962.92 1184.456,-1023.3444 1242.8461,-1113.2 1297.652,-1197.5398 1282.5433,-1489.0825 1270.4061,-1640.2156"/>
<polygon fill="none" stroke="#000000" points="1259.9347,-1639.4361 1267.8875,-1670.2095 1280.8611,-1641.1934 1259.9347,-1639.4361"/>
</g>
<!-- 9&#45;&gt;7 -->
<g id="edge12" class="edge">
<title>9&#45;&gt;7</title>
<path fill="none" stroke="#000000" d="M798.0681,-1076.8371C802.6391,-1085.9768 807.247,-1095.1676 811.8688,-1104.3641"/>
<polygon fill="#000000" stroke="#000000" points="808.8743,-1106.1998 816.4945,-1113.5608 815.1278,-1103.0544 808.8743,-1106.1998"/>
</g>
<!-- 9&#45;&gt;8 -->
<g id="edge11" class="edge">
<title>9&#45;&gt;8</title>
<path fill="none" stroke="#000000" d="M583.9363,-1076.8371C547.9614,-1155.8912 510.2442,-1238.7739 484.1859,-1296.0365"/>
<polygon fill="none" stroke="#000000" points="474.5618,-1291.8351 471.6928,-1323.4898 493.6757,-1300.5332 474.5618,-1291.8351"/>
</g>
<!-- 10 -->
<g id="node11" class="node">
<title>10</title>
<polygon fill="#f2f2f2" stroke="#000000" points="1299.1563,-.5 1299.1563,-578.9 1794.5359,-578.9 1794.5359,-.5 1299.1563,-.5"/>
<text text-anchor="middle" x="1546.8461" y="-562.3" font-family="Times,serif" font-size="14.00" fill="#000000">Token</text>
<polyline fill="none" stroke="#000000" points="1299.1563,-554.1 1794.5359,-554.1 "/>
<text text-anchor="start" x="1307.1563" y="-537.5" font-family="Times,serif" font-size="14.00" fill="#000000">Public:</text>
<text text-anchor="start" x="1307.1563" y="-520.7" font-family="Times,serif" font-size="14.00" fill="#000000"> &#160;&#160;name: string</text>
<text text-anchor="start" x="1307.1563" y="-503.9" font-family="Times,serif" font-size="14.00" fill="#000000"> &#160;&#160;decimals: uint8</text>
<text text-anchor="start" x="1307.1563" y="-487.1" font-family="Times,serif" font-size="14.00" fill="#000000"> &#160;&#160;symbol: string</text>
<text text-anchor="start" x="1307.1563" y="-470.3" font-family="Times,serif" font-size="14.00" fill="#000000"> &#160;&#160;controller: Controller</text>
<text text-anchor="start" x="1307.1563" y="-453.5" font-family="Times,serif" font-size="14.00" fill="#000000"> &#160;&#160;motd: string</text>
<text text-anchor="start" x="1307.1563" y="-436.7" font-family="Times,serif" font-size="14.00" fill="#000000"> &#160;&#160;burnAddress: address</text>
<text text-anchor="start" x="1307.1563" y="-419.9" font-family="Times,serif" font-size="14.00" fill="#000000"> &#160;&#160;burnable: bool</text>
<polyline fill="none" stroke="#000000" points="1299.1563,-411.7 1794.5359,-411.7 "/>
<text text-anchor="start" x="1307.1563" y="-395.1" font-family="Times,serif" font-size="14.00" fill="#000000">Public:</text>
<text text-anchor="start" x="1307.1563" y="-378.3" font-family="Times,serif" font-size="14.00" fill="#000000"> &#160;&#160;&#160;&lt;&lt;event&gt;&gt; Motd(message: string)</text>
<text text-anchor="start" x="1307.1563" y="-361.5" font-family="Times,serif" font-size="14.00" fill="#000000"> &#160;&#160;&#160;&lt;&lt;modifier&gt;&gt; onlyController()</text>
<text text-anchor="start" x="1307.1563" y="-344.7" font-family="Times,serif" font-size="14.00" fill="#000000"> &#160;&#160;&#160;&lt;&lt;modifier&gt;&gt; burnEnabled()</text>
<text text-anchor="start" x="1307.1563" y="-327.9" font-family="Times,serif" font-size="14.00" fill="#000000"> &#160;&#160;&#160;controllerApprove(_owner: address, _spender: address, _value: uint)</text>
<text text-anchor="start" x="1307.1563" y="-311.1" font-family="Times,serif" font-size="14.00" fill="#000000"> &#160;&#160;&#160;balanceOf(a: address): uint</text>
<text text-anchor="start" x="1307.1563" y="-294.3" font-family="Times,serif" font-size="14.00" fill="#000000"> &#160;&#160;&#160;allowance(_owner: address, _spender: address): uint</text>
<text text-anchor="start" x="1307.1563" y="-277.5" font-family="Times,serif" font-size="14.00" fill="#000000"> &#160;&#160;&#160;transfer(_to: address, _value: uint): (success: bool)</text>
<text text-anchor="start" x="1307.1563" y="-260.7" font-family="Times,serif" font-size="14.00" fill="#000000"> &#160;&#160;&#160;transferFrom(_from: address, _to: address, _value: uint): (success: bool)</text>
<text text-anchor="start" x="1307.1563" y="-243.9" font-family="Times,serif" font-size="14.00" fill="#000000"> &#160;&#160;&#160;approve(_spender: address, _value: uint): (success: bool)</text>
<text text-anchor="start" x="1307.1563" y="-227.1" font-family="Times,serif" font-size="14.00" fill="#000000"> &#160;&#160;&#160;increaseApproval(_spender: address, _addedValue: uint): (success: bool)</text>
<text text-anchor="start" x="1307.1563" y="-210.3" font-family="Times,serif" font-size="14.00" fill="#000000"> &#160;&#160;&#160;decreaseApproval(_spender: address, _subtractedValue: uint): (success: bool)</text>
<text text-anchor="start" x="1307.1563" y="-193.5" font-family="Times,serif" font-size="14.00" fill="#000000"> &#160;&#160;&#160;setMotd(_m: string)</text>
<text text-anchor="start" x="1307.1563" y="-176.7" font-family="Times,serif" font-size="14.00" fill="#000000"> &#160;&#160;&#160;controllerTransfer(_from: address, _to: address, _value: uint)</text>
<text text-anchor="start" x="1307.1563" y="-159.9" font-family="Times,serif" font-size="14.00" fill="#000000"> &#160;&#160;&#160;totalSupply(): uint</text>
<text text-anchor="start" x="1307.1563" y="-143.1" font-family="Times,serif" font-size="14.00" fill="#000000"> &#160;&#160;&#160;controllerBurn(_from: address, _to: bytes32, _value: uint256)</text>
<text text-anchor="start" x="1307.1563" y="-126.3" font-family="Times,serif" font-size="14.00" fill="#000000"> &#160;&#160;&#160;controllerClaim(_claimer: address, _value: uint256)</text>
<text text-anchor="start" x="1307.1563" y="-109.5" font-family="Times,serif" font-size="14.00" fill="#000000"> &#160;&#160;&#160;setBurnAddress(_address: address)</text>
<text text-anchor="start" x="1307.1563" y="-92.7" font-family="Times,serif" font-size="14.00" fill="#000000"> &#160;&#160;&#160;enableBurning()</text>
<text text-anchor="start" x="1307.1563" y="-75.9" font-family="Times,serif" font-size="14.00" fill="#000000"> &#160;&#160;&#160;disableBurning()</text>
<text text-anchor="start" x="1307.1563" y="-59.1" font-family="Times,serif" font-size="14.00" fill="#000000"> &#160;&#160;&#160;setController(_c: address)</text>
<text text-anchor="start" x="1307.1563" y="-42.3" font-family="Times,serif" font-size="14.00" fill="#000000"> &#160;&#160;&#160;burn(_to: bytes32, _amount: uint): (success: bool)</text>
<text text-anchor="start" x="1307.1563" y="-25.5" font-family="Times,serif" font-size="14.00" fill="#000000"> &#160;&#160;&#160;claimByProof(data: bytes32[], proofs: bytes32[], number: uint256): (success: bool)</text>
<text text-anchor="start" x="1307.1563" y="-8.7" font-family="Times,serif" font-size="14.00" fill="#000000"> &#160;&#160;&#160;claim(): (success: bool)</text>
</g>
<!-- 9&#45;&gt;10 -->
<g id="edge13" class="edge">
<title>9&#45;&gt;10</title>
<path fill="none" stroke="#000000" d="M989.3388,-655.5453C1087.6397,-592.0728 1195.8543,-521.8358 1290.5841,-460.0134"/>
<polygon fill="#000000" stroke="#000000" points="1292.6629,-462.8361 1299.1238,-454.4392 1288.8367,-456.9744 1292.6629,-462.8361"/>
</g>
<!-- 10&#45;&gt;5 -->
<g id="edge18" class="edge">
<title>10&#45;&gt;5</title>
<path fill="none" stroke="#000000" d="M1697.546,-579.186C1701.7009,-591.2857 1705.4972,-603.3852 1708.8461,-615.4 1764.1393,-813.7763 1728.8605,-872.0488 1746.8461,-1077.2 1764.0491,-1273.4241 1785.7357,-1502.5299 1798.0724,-1631.3128"/>
<polygon fill="none" stroke="#000000" points="1787.6447,-1632.5696 1800.9622,-1661.4295 1808.5487,-1630.5637 1787.6447,-1632.5696"/>
</g>
<!-- 10&#45;&gt;0 -->
<g id="edge16" class="edge">
<title>10&#45;&gt;0</title>
<path fill="none" stroke="#000000" d="M1299.1124,-331.82C998.1612,-387.4816 513.9614,-492.928 379.8461,-615.4 81.7573,-887.6101 77.7342,-1424.638 89.4219,-1640.0719"/>
<polygon fill="none" stroke="#000000" points="78.9433,-1640.7438 91.2677,-1670.0415 99.9035,-1639.4528 78.9433,-1640.7438"/>
</g>
<!-- 10&#45;&gt;3 -->
<g id="edge15" class="edge">
<title>10&#45;&gt;3</title>
<path fill="none" stroke="#000000" d="M1546.8461,-579.0044C1546.8461,-649.935 1546.8461,-719.9109 1546.8461,-770.4633"/>
<polygon fill="none" stroke="#000000" points="1536.3462,-770.6934 1546.8461,-800.6934 1557.3462,-770.6934 1536.3462,-770.6934"/>
</g>
<!-- 10&#45;&gt;4 -->
<g id="edge17" class="edge">
<title>10&#45;&gt;4</title>
<path fill="none" stroke="#000000" d="M1761.5114,-579.0044C1807.687,-641.2352 1853.3173,-702.7312 1889.1477,-751.0198"/>
<polygon fill="none" stroke="#000000" points="1880.8935,-757.5166 1907.2023,-775.352 1897.758,-745.003 1880.8935,-757.5166"/>
</g>
<!-- 10&#45;&gt;6 -->
<g id="edge14" class="edge">
<title>10&#45;&gt;6</title>
<path fill="none" stroke="#000000" d="M1397.0725,-578.951C1392.6431,-591.1417 1388.5387,-603.3211 1384.8461,-615.4 1252.8641,-1047.1244 1326.5648,-1176.6982 1276.8461,-1625.4 1276.3068,-1630.2673 1275.722,-1635.2544 1275.1066,-1640.2866"/>
<polygon fill="none" stroke="#000000" points="1264.6892,-1638.9721 1271.2127,-1670.0799 1285.5121,-1641.6937 1264.6892,-1638.9721"/>
</g>
<!-- 10&#45;&gt;9 -->
<g id="edge19" class="edge">
<title>10&#45;&gt;9</title>
<path fill="none" stroke="#000000" d="M1299.1348,-446.4108C1205.1803,-506.9416 1097.0155,-577.0246 998.0846,-641.451"/>
<polygon fill="#000000" stroke="#000000" points="995.9276,-638.679 989.4585,-647.0695 999.7481,-644.5445 995.9276,-638.679"/>
</g>
</g>
</svg>
