<?xml version="1.0" encoding="UTF-8" standalone="no"?>
<!DOCTYPE svg PUBLIC "-//W3C//DTD SVG 1.1//EN"
 "http://www.w3.org/Graphics/SVG/1.1/DTD/svg11.dtd">
<!-- Generated by graphviz version 2.40.1 (20161225.0304)
 -->
<!-- Title: UmlClassDiagram Pages: 1 -->
<svg width="1281pt" height="999pt"
 viewBox="0.00 0.00 1281.35 999.40" xmlns="http://www.w3.org/2000/svg" xmlns:xlink="http://www.w3.org/1999/xlink">
<g id="graph0" class="graph" transform="scale(1 1) rotate(0) translate(4 995.4)">
<title>UmlClassDiagram</title>
<polygon fill="#ffffff" stroke="transparent" points="-4,4 -4,-995.4 1277.3477,-995.4 1277.3477,4 -4,4"/>
<!-- 0 -->
<g id="node1" class="node">
<title>0</title>
<polygon fill="#f2f2f2" stroke="#000000" points="32.9945,-832.5 32.9945,-990.9 264.8269,-990.9 264.8269,-832.5 32.9945,-832.5"/>
<text text-anchor="middle" x="148.9107" y="-974.3" font-family="Times,serif" font-size="14.00" fill="#000000">&lt;&lt;Library&gt;&gt;</text>
<text text-anchor="middle" x="148.9107" y="-957.5" font-family="Times,serif" font-size="14.00" fill="#000000">SafeMath</text>
<polyline fill="none" stroke="#000000" points="32.9945,-949.3 264.8269,-949.3 "/>
<text text-anchor="middle" x="148.9107" y="-932.7" font-family="Times,serif" font-size="14.00" fill="#000000"> </text>
<polyline fill="none" stroke="#000000" points="32.9945,-924.5 264.8269,-924.5 "/>
<text text-anchor="start" x="40.9945" y="-907.9" font-family="Times,serif" font-size="14.00" fill="#000000">Internal:</text>
<text text-anchor="start" x="40.9945" y="-891.1" font-family="Times,serif" font-size="14.00" fill="#000000"> &#160;&#160;&#160;mul(a: uint256, b: uint256): uint256</text>
<text text-anchor="start" x="40.9945" y="-874.3" font-family="Times,serif" font-size="14.00" fill="#000000"> &#160;&#160;&#160;div(a: uint256, b: uint256): uint256</text>
<text text-anchor="start" x="40.9945" y="-857.5" font-family="Times,serif" font-size="14.00" fill="#000000"> &#160;&#160;&#160;sub(a: uint256, b: uint256): uint256</text>
<text text-anchor="start" x="40.9945" y="-840.7" font-family="Times,serif" font-size="14.00" fill="#000000"> &#160;&#160;&#160;add(a: uint256, b: uint256): uint256</text>
</g>
<!-- 1 -->
<g id="node2" class="node">
<title>1</title>
<polygon fill="#f2f2f2" stroke="#000000" points="788.4737,-637.1 788.4737,-795.5 1273.3477,-795.5 1273.3477,-637.1 788.4737,-637.1"/>
<text text-anchor="middle" x="1030.9107" y="-778.9" font-family="Times,serif" font-size="14.00" fill="#000000">Ownable</text>
<polyline fill="none" stroke="#000000" points="788.4737,-770.7 1273.3477,-770.7 "/>
<text text-anchor="start" x="796.4737" y="-754.1" font-family="Times,serif" font-size="14.00" fill="#000000">Public:</text>
<text text-anchor="start" x="796.4737" y="-737.3" font-family="Times,serif" font-size="14.00" fill="#000000"> &#160;&#160;owner: address</text>
<polyline fill="none" stroke="#000000" points="788.4737,-729.1 1273.3477,-729.1 "/>
<text text-anchor="start" x="796.4737" y="-712.5" font-family="Times,serif" font-size="14.00" fill="#000000">Public:</text>
<text text-anchor="start" x="796.4737" y="-695.7" font-family="Times,serif" font-size="14.00" fill="#000000"> &#160;&#160;&#160;&lt;&lt;event&gt;&gt; OwnershipTransferred(previousOwner: address, newOwner: address)</text>
<text text-anchor="start" x="796.4737" y="-678.9" font-family="Times,serif" font-size="14.00" fill="#000000"> &#160;&#160;&#160;&lt;&lt;modifier&gt;&gt; onlyOwner()</text>
<text text-anchor="start" x="796.4737" y="-662.1" font-family="Times,serif" font-size="14.00" fill="#000000"> &#160;&#160;&#160;constructor()</text>
<text text-anchor="start" x="796.4737" y="-645.3" font-family="Times,serif" font-size="14.00" fill="#000000"> &#160;&#160;&#160;transferOwnership(newOwner: address)</text>
</g>
<!-- 2 -->
<g id="node3" class="node">
<title>2</title>
<polygon fill="#f2f2f2" stroke="#000000" points="882.1197,-408.1 882.1197,-600.1 1095.7017,-600.1 1095.7017,-408.1 882.1197,-408.1"/>
<text text-anchor="middle" x="988.9107" y="-583.5" font-family="Times,serif" font-size="14.00" fill="#000000">Pausable</text>
<polyline fill="none" stroke="#000000" points="882.1197,-575.3 1095.7017,-575.3 "/>
<text text-anchor="start" x="890.1197" y="-558.7" font-family="Times,serif" font-size="14.00" fill="#000000">Public:</text>
<text text-anchor="start" x="890.1197" y="-541.9" font-family="Times,serif" font-size="14.00" fill="#000000"> &#160;&#160;paused: bool</text>
<polyline fill="none" stroke="#000000" points="882.1197,-533.7 1095.7017,-533.7 "/>
<text text-anchor="start" x="890.1197" y="-517.1" font-family="Times,serif" font-size="14.00" fill="#000000">Public:</text>
<text text-anchor="start" x="890.1197" y="-500.3" font-family="Times,serif" font-size="14.00" fill="#000000"> &#160;&#160;&#160;&lt;&lt;event&gt;&gt; Pause()</text>
<text text-anchor="start" x="890.1197" y="-483.5" font-family="Times,serif" font-size="14.00" fill="#000000"> &#160;&#160;&#160;&lt;&lt;event&gt;&gt; Unpause()</text>
<text text-anchor="start" x="890.1197" y="-466.7" font-family="Times,serif" font-size="14.00" fill="#000000"> &#160;&#160;&#160;&lt;&lt;modifier&gt;&gt; whenNotPaused()</text>
<text text-anchor="start" x="890.1197" y="-449.9" font-family="Times,serif" font-size="14.00" fill="#000000"> &#160;&#160;&#160;&lt;&lt;modifier&gt;&gt; whenPaused()</text>
<text text-anchor="start" x="890.1197" y="-433.1" font-family="Times,serif" font-size="14.00" fill="#000000"> &#160;&#160;&#160;pause()</text>
<text text-anchor="start" x="890.1197" y="-416.3" font-family="Times,serif" font-size="14.00" fill="#000000"> &#160;&#160;&#160;unpause()</text>
</g>
<!-- 2&#45;&gt;1 -->
<g id="edge1" class="edge">
<title>2&#45;&gt;1</title>
<path fill="none" stroke="#000000" d="M1007.9445,-600.2661C1008.4193,-602.6649 1008.8954,-605.0705 1009.3719,-607.478"/>
<polygon fill="none" stroke="#000000" points="999.0867,-609.5924 1015.2117,-636.9828 1019.687,-605.515 999.0867,-609.5924"/>
</g>
<!-- 3 -->
<g id="node4" class="node">
<title>3</title>
<polygon fill="#f2f2f2" stroke="#000000" points="317.1803,-832.5 317.1803,-990.9 700.6411,-990.9 700.6411,-832.5 317.1803,-832.5"/>
<text text-anchor="middle" x="508.9107" y="-974.3" font-family="Times,serif" font-size="14.00" fill="#000000">&lt;&lt;Abstract&gt;&gt;</text>
<text text-anchor="middle" x="508.9107" y="-957.5" font-family="Times,serif" font-size="14.00" fill="#000000">ERC20Basic</text>
<polyline fill="none" stroke="#000000" points="317.1803,-949.3 700.6411,-949.3 "/>
<text text-anchor="start" x="325.1803" y="-932.7" font-family="Times,serif" font-size="14.00" fill="#000000">Public:</text>
<text text-anchor="start" x="325.1803" y="-915.9" font-family="Times,serif" font-size="14.00" fill="#000000"> &#160;&#160;totalSupply: uint256</text>
<polyline fill="none" stroke="#000000" points="317.1803,-907.7 700.6411,-907.7 "/>
<text text-anchor="start" x="325.1803" y="-891.1" font-family="Times,serif" font-size="14.00" fill="#000000">Public:</text>
<text text-anchor="start" x="325.1803" y="-874.3" font-family="Times,serif" font-size="14.00" fill="#000000"> &#160;&#160;&#160;&lt;&lt;abstract&gt;&gt; balanceOf(who: address): uint256</text>
<text text-anchor="start" x="325.1803" y="-857.5" font-family="Times,serif" font-size="14.00" fill="#000000"> &#160;&#160;&#160;&lt;&lt;abstract&gt;&gt; transfer(to: address, value: uint256): bool</text>
<text text-anchor="start" x="325.1803" y="-840.7" font-family="Times,serif" font-size="14.00" fill="#000000"> &#160;&#160;&#160;&lt;&lt;event&gt;&gt; Transfer(from: address, to: address, value: uint256)</text>
</g>
<!-- 4 -->
<g id="node5" class="node">
<title>4</title>
<polygon fill="#f2f2f2" stroke="#000000" points="0,-653.9 0,-778.7 297.8214,-778.7 297.8214,-653.9 0,-653.9"/>
<text text-anchor="middle" x="148.9107" y="-762.1" font-family="Times,serif" font-size="14.00" fill="#000000">BasicToken</text>
<polyline fill="none" stroke="#000000" points="0,-753.9 297.8214,-753.9 "/>
<text text-anchor="start" x="8" y="-737.3" font-family="Times,serif" font-size="14.00" fill="#000000">Public:</text>
<text text-anchor="start" x="8" y="-720.5" font-family="Times,serif" font-size="14.00" fill="#000000"> &#160;&#160;balances: mapping(address=&gt;uint256)</text>
<polyline fill="none" stroke="#000000" points="0,-712.3 297.8214,-712.3 "/>
<text text-anchor="start" x="8" y="-695.7" font-family="Times,serif" font-size="14.00" fill="#000000">Public:</text>
<text text-anchor="start" x="8" y="-678.9" font-family="Times,serif" font-size="14.00" fill="#000000"> &#160;&#160;&#160;transfer(_to: address, _value: uint256): bool</text>
<text text-anchor="start" x="8" y="-662.1" font-family="Times,serif" font-size="14.00" fill="#000000"> &#160;&#160;&#160;balanceOf(_owner: address): (balance: uint256)</text>
</g>
<!-- 4&#45;&gt;0 -->
<g id="edge3" class="edge">
<title>4&#45;&gt;0</title>
<path fill="none" stroke="#000000" stroke-dasharray="5,2" d="M148.9107,-778.9321C148.9107,-792.7182 148.9107,-807.5783 148.9107,-822.1923"/>
<polygon fill="#000000" stroke="#000000" points="145.4108,-822.2541 148.9107,-832.2542 152.4108,-822.2542 145.4108,-822.2541"/>
</g>
<!-- 4&#45;&gt;3 -->
<g id="edge2" class="edge">
<title>4&#45;&gt;3</title>
<path fill="none" stroke="#000000" d="M264.3024,-778.9321C287.3349,-791.4336 311.9946,-804.8183 336.4677,-818.1018"/>
<polygon fill="none" stroke="#000000" points="331.4891,-827.3465 362.8645,-832.4294 341.507,-808.8899 331.4891,-827.3465"/>
</g>
<!-- 5 -->
<g id="node6" class="node">
<title>5</title>
<polygon fill="#f2f2f2" stroke="#000000" points="315.5986,-637.1 315.5986,-795.5 770.2228,-795.5 770.2228,-637.1 315.5986,-637.1"/>
<text text-anchor="middle" x="542.9107" y="-778.9" font-family="Times,serif" font-size="14.00" fill="#000000">&lt;&lt;Abstract&gt;&gt;</text>
<text text-anchor="middle" x="542.9107" y="-762.1" font-family="Times,serif" font-size="14.00" fill="#000000">ERC20</text>
<polyline fill="none" stroke="#000000" points="315.5986,-753.9 770.2228,-753.9 "/>
<text text-anchor="middle" x="542.9107" y="-737.3" font-family="Times,serif" font-size="14.00" fill="#000000"> </text>
<polyline fill="none" stroke="#000000" points="315.5986,-729.1 770.2228,-729.1 "/>
<text text-anchor="start" x="323.5986" y="-712.5" font-family="Times,serif" font-size="14.00" fill="#000000">Public:</text>
<text text-anchor="start" x="323.5986" y="-695.7" font-family="Times,serif" font-size="14.00" fill="#000000"> &#160;&#160;&#160;&lt;&lt;abstract&gt;&gt; allowance(owner: address, spender: address): uint256</text>
<text text-anchor="start" x="323.5986" y="-678.9" font-family="Times,serif" font-size="14.00" fill="#000000"> &#160;&#160;&#160;&lt;&lt;abstract&gt;&gt; transferFrom(from: address, to: address, value: uint256): bool</text>
<text text-anchor="start" x="323.5986" y="-662.1" font-family="Times,serif" font-size="14.00" fill="#000000"> &#160;&#160;&#160;&lt;&lt;abstract&gt;&gt; approve(spender: address, value: uint256): bool</text>
<text text-anchor="start" x="323.5986" y="-645.3" font-family="Times,serif" font-size="14.00" fill="#000000"> &#160;&#160;&#160;&lt;&lt;event&gt;&gt; Approval(owner: address, spender: address, value: uint256)</text>
</g>
<!-- 5&#45;&gt;3 -->
<g id="edge4" class="edge">
<title>5&#45;&gt;3</title>
<path fill="none" stroke="#000000" d="M529.0816,-795.7767C528.6886,-798.0351 528.2933,-800.3071 527.8965,-802.5874"/>
<polygon fill="none" stroke="#000000" points="517.5258,-800.9379 522.7275,-832.2938 538.215,-804.5379 517.5258,-800.9379"/>
</g>
<!-- 6 -->
<g id="node7" class="node">
<title>6</title>
<polygon fill="#f2f2f2" stroke="#000000" points="339.568,-416.5 339.568,-591.7 746.2534,-591.7 746.2534,-416.5 339.568,-416.5"/>
<text text-anchor="middle" x="542.9107" y="-575.1" font-family="Times,serif" font-size="14.00" fill="#000000">StandardToken</text>
<polyline fill="none" stroke="#000000" points="339.568,-566.9 746.2534,-566.9 "/>
<text text-anchor="start" x="347.568" y="-550.3" font-family="Times,serif" font-size="14.00" fill="#000000">Internal:</text>
<text text-anchor="start" x="347.568" y="-533.5" font-family="Times,serif" font-size="14.00" fill="#000000"> &#160;&#160;allowed: mapping(address=&gt;mapping(address=&gt;uint256))</text>
<polyline fill="none" stroke="#000000" points="339.568,-525.3 746.2534,-525.3 "/>
<text text-anchor="start" x="347.568" y="-508.7" font-family="Times,serif" font-size="14.00" fill="#000000">Public:</text>
<text text-anchor="start" x="347.568" y="-491.9" font-family="Times,serif" font-size="14.00" fill="#000000"> &#160;&#160;&#160;transferFrom(_from: address, _to: address, _value: uint256): bool</text>
<text text-anchor="start" x="347.568" y="-475.1" font-family="Times,serif" font-size="14.00" fill="#000000"> &#160;&#160;&#160;approve(_spender: address, _value: uint256): bool</text>
<text text-anchor="start" x="347.568" y="-458.3" font-family="Times,serif" font-size="14.00" fill="#000000"> &#160;&#160;&#160;allowance(_owner: address, _spender: address): uint256</text>
<text text-anchor="start" x="347.568" y="-441.5" font-family="Times,serif" font-size="14.00" fill="#000000"> &#160;&#160;&#160;increaseApproval(_spender: address, _addedValue: uint): bool</text>
<text text-anchor="start" x="347.568" y="-424.7" font-family="Times,serif" font-size="14.00" fill="#000000"> &#160;&#160;&#160;decreaseApproval(_spender: address, _subtractedValue: uint): bool</text>
</g>
<!-- 6&#45;&gt;4 -->
<g id="edge6" class="edge">
<title>6&#45;&gt;4</title>
<path fill="none" stroke="#000000" d="M380.0964,-591.7883C350.6478,-607.6487 320.1478,-624.0753 291.3383,-639.5915"/>
<polygon fill="none" stroke="#000000" points="286.3158,-630.3704 264.8819,-653.8404 296.2736,-648.8594 286.3158,-630.3704"/>
</g>
<!-- 6&#45;&gt;5 -->
<g id="edge5" class="edge">
<title>6&#45;&gt;5</title>
<path fill="none" stroke="#000000" d="M542.9107,-591.9416C542.9107,-596.8426 542.9107,-601.7973 542.9107,-606.7619"/>
<polygon fill="none" stroke="#000000" points="532.4108,-607.0116 542.9107,-637.0117 553.4108,-607.0117 532.4108,-607.0116"/>
</g>
<!-- 7 -->
<g id="node8" class="node">
<title>7</title>
<polygon fill="#f2f2f2" stroke="#000000" points="389.8539,-237.9 389.8539,-345.9 695.9675,-345.9 695.9675,-237.9 389.8539,-237.9"/>
<text text-anchor="middle" x="542.9107" y="-329.3" font-family="Times,serif" font-size="14.00" fill="#000000">BurnableToken</text>
<polyline fill="none" stroke="#000000" points="389.8539,-321.1 695.9675,-321.1 "/>
<text text-anchor="middle" x="542.9107" y="-304.5" font-family="Times,serif" font-size="14.00" fill="#000000"> </text>
<polyline fill="none" stroke="#000000" points="389.8539,-296.3 695.9675,-296.3 "/>
<text text-anchor="start" x="397.8539" y="-279.7" font-family="Times,serif" font-size="14.00" fill="#000000">Public:</text>
<text text-anchor="start" x="397.8539" y="-262.9" font-family="Times,serif" font-size="14.00" fill="#000000"> &#160;&#160;&#160;&lt;&lt;event&gt;&gt; Burn(burner: address, value: uint256)</text>
<text text-anchor="start" x="397.8539" y="-246.1" font-family="Times,serif" font-size="14.00" fill="#000000"> &#160;&#160;&#160;burn(_value: uint256)</text>
</g>
<!-- 7&#45;&gt;6 -->
<g id="edge7" class="edge">
<title>7&#45;&gt;6</title>
<path fill="none" stroke="#000000" d="M542.9107,-345.9961C542.9107,-358.4317 542.9107,-372.1335 542.9107,-386.1141"/>
<polygon fill="none" stroke="#000000" points="532.4108,-386.2991 542.9107,-416.2991 553.4108,-386.2991 532.4108,-386.2991"/>
</g>
<!-- 8 -->
<g id="node9" class="node">
<title>8</title>
<polygon fill="#f2f2f2" stroke="#000000" points="714.2233,-212.7 714.2233,-371.1 1179.5981,-371.1 1179.5981,-212.7 714.2233,-212.7"/>
<text text-anchor="middle" x="946.9107" y="-354.5" font-family="Times,serif" font-size="14.00" fill="#000000">PausableToken</text>
<polyline fill="none" stroke="#000000" points="714.2233,-346.3 1179.5981,-346.3 "/>
<text text-anchor="middle" x="946.9107" y="-329.7" font-family="Times,serif" font-size="14.00" fill="#000000"> </text>
<polyline fill="none" stroke="#000000" points="714.2233,-321.5 1179.5981,-321.5 "/>
<text text-anchor="start" x="722.2233" y="-304.9" font-family="Times,serif" font-size="14.00" fill="#000000">Public:</text>
<text text-anchor="start" x="722.2233" y="-288.1" font-family="Times,serif" font-size="14.00" fill="#000000"> &#160;&#160;&#160;transfer(_to: address, _value: uint256): bool</text>
<text text-anchor="start" x="722.2233" y="-271.3" font-family="Times,serif" font-size="14.00" fill="#000000"> &#160;&#160;&#160;transferFrom(_from: address, _to: address, _value: uint256): bool</text>
<text text-anchor="start" x="722.2233" y="-254.5" font-family="Times,serif" font-size="14.00" fill="#000000"> &#160;&#160;&#160;approve(_spender: address, _value: uint256): bool</text>
<text text-anchor="start" x="722.2233" y="-237.7" font-family="Times,serif" font-size="14.00" fill="#000000"> &#160;&#160;&#160;increaseApproval(_spender: address, _addedValue: uint): (success: bool)</text>
<text text-anchor="start" x="722.2233" y="-220.9" font-family="Times,serif" font-size="14.00" fill="#000000"> &#160;&#160;&#160;decreaseApproval(_spender: address, _subtractedValue: uint): (success: bool)</text>
</g>
<!-- 8&#45;&gt;2 -->
<g id="edge9" class="edge">
<title>8&#45;&gt;2</title>
<path fill="none" stroke="#000000" d="M962.6097,-371.2172C963.0924,-373.6562 963.5792,-376.1154 964.0688,-378.5892"/>
<polygon fill="none" stroke="#000000" points="953.7722,-380.6463 969.8972,-408.0367 974.3725,-376.5689 953.7722,-380.6463"/>
</g>
<!-- 8&#45;&gt;6 -->
<g id="edge8" class="edge">
<title>8&#45;&gt;6</title>
<path fill="none" stroke="#000000" d="M795.9015,-371.2172C776.641,-381.3337 756.7188,-391.7978 736.8995,-402.2078"/>
<polygon fill="none" stroke="#000000" points="731.6856,-393.0861 710.009,-416.3321 741.4508,-411.6776 731.6856,-393.0861"/>
</g>
<!-- 9 -->
<g id="node10" class="node">
<title>9</title>
<polygon fill="#f2f2f2" stroke="#000000" points="561.3815,-.5 561.3815,-175.7 928.4399,-175.7 928.4399,-.5 561.3815,-.5"/>
<text text-anchor="middle" x="744.9107" y="-159.1" font-family="Times,serif" font-size="14.00" fill="#000000">RepublicToken</text>
<polyline fill="none" stroke="#000000" points="561.3815,-150.9 928.4399,-150.9 "/>
<text text-anchor="start" x="569.3815" y="-134.3" font-family="Times,serif" font-size="14.00" fill="#000000">Public:</text>
<text text-anchor="start" x="569.3815" y="-117.5" font-family="Times,serif" font-size="14.00" fill="#000000"> &#160;&#160;name: string</text>
<text text-anchor="start" x="569.3815" y="-100.7" font-family="Times,serif" font-size="14.00" fill="#000000"> &#160;&#160;symbol: string</text>
<text text-anchor="start" x="569.3815" y="-83.9" font-family="Times,serif" font-size="14.00" fill="#000000"> &#160;&#160;decimals: uint8</text>
<text text-anchor="start" x="569.3815" y="-67.1" font-family="Times,serif" font-size="14.00" fill="#000000"> &#160;&#160;INITIAL_SUPPLY: uint256</text>
<polyline fill="none" stroke="#000000" points="561.3815,-58.9 928.4399,-58.9 "/>
<text text-anchor="start" x="569.3815" y="-42.3" font-family="Times,serif" font-size="14.00" fill="#000000">Public:</text>
<text text-anchor="start" x="569.3815" y="-25.5" font-family="Times,serif" font-size="14.00" fill="#000000"> &#160;&#160;&#160;constructor()</text>
<text text-anchor="start" x="569.3815" y="-8.7" font-family="Times,serif" font-size="14.00" fill="#000000"> &#160;&#160;&#160;transferTokens(beneficiary: address, amount: uint256): bool</text>
</g>
<!-- 9&#45;&gt;7 -->
<g id="edge11" class="edge">
<title>9&#45;&gt;7</title>
<path fill="none" stroke="#000000" d="M658.0722,-175.7123C644.7141,-189.1894 631.0189,-203.0067 617.9462,-216.1958"/>
<polygon fill="none" stroke="#000000" points="610.3645,-208.9295 596.7031,-237.6283 625.2795,-223.7128 610.3645,-208.9295"/>
</g>
<!-- 9&#45;&gt;8 -->
<g id="edge10" class="edge">
<title>9&#45;&gt;8</title>
<path fill="none" stroke="#000000" d="M831.7492,-175.7123C836.7524,-180.7601 841.8029,-185.8556 846.8503,-190.948"/>
<polygon fill="none" stroke="#000000" points="839.5398,-198.4879 868.1162,-212.4034 854.4548,-183.7047 839.5398,-198.4879"/>
</g>
</g>
</svg>
