<?xml version="1.0" encoding="UTF-8" standalone="no"?>
<!DOCTYPE svg PUBLIC "-//W3C//DTD SVG 1.1//EN"
 "http://www.w3.org/Graphics/SVG/1.1/DTD/svg11.dtd">
<!-- Generated by graphviz version 2.40.1 (20161225.0304)
 -->
<!-- Title: UmlClassDiagram Pages: 1 -->
<svg width="2404pt" height="1430pt"
 viewBox="0.00 0.00 2404.18 1430.00" xmlns="http://www.w3.org/2000/svg" xmlns:xlink="http://www.w3.org/1999/xlink">
<g id="graph0" class="graph" transform="scale(1 1) rotate(0) translate(4 1426)">
<title>UmlClassDiagram</title>
<polygon fill="#ffffff" stroke="transparent" points="-4,4 -4,-1426 2400.1841,-1426 2400.1841,4 -4,4"/>
<!-- 8 -->
<g id="node1" class="node">
<title>8</title>
<polygon fill="#f2f2f2" stroke="#000000" points="757.6416,-813.5 757.6416,-988.7 1223.0164,-988.7 1223.0164,-813.5 757.6416,-813.5"/>
<text text-anchor="middle" x="990.329" y="-972.1" font-family="Times,serif" font-size="14.00" fill="#000000">StandardToken</text>
<polyline fill="none" stroke="#000000" points="757.6416,-963.9 1223.0164,-963.9 "/>
<text text-anchor="start" x="765.6416" y="-947.3" font-family="Times,serif" font-size="14.00" fill="#000000">Public:</text>
<text text-anchor="start" x="765.6416" y="-930.5" font-family="Times,serif" font-size="14.00" fill="#000000"> &#160;&#160;allowed: mapping(address=&gt;mapping(address=&gt;uint256))</text>
<polyline fill="none" stroke="#000000" points="757.6416,-922.3 1223.0164,-922.3 "/>
<text text-anchor="start" x="765.6416" y="-905.7" font-family="Times,serif" font-size="14.00" fill="#000000">Public:</text>
<text text-anchor="start" x="765.6416" y="-888.9" font-family="Times,serif" font-size="14.00" fill="#000000"> &#160;&#160;&#160;transferFrom(_from: address, _to: address, _value: uint256): bool</text>
<text text-anchor="start" x="765.6416" y="-872.1" font-family="Times,serif" font-size="14.00" fill="#000000"> &#160;&#160;&#160;approve(_spender: address, _value: uint256): bool</text>
<text text-anchor="start" x="765.6416" y="-855.3" font-family="Times,serif" font-size="14.00" fill="#000000"> &#160;&#160;&#160;allowance(_owner: address, _spender: address): (remaining: uint256)</text>
<text text-anchor="start" x="765.6416" y="-838.5" font-family="Times,serif" font-size="14.00" fill="#000000"> &#160;&#160;&#160;increaseApproval(_spender: address, _addedValue: uint): (success: bool)</text>
<text text-anchor="start" x="765.6416" y="-821.7" font-family="Times,serif" font-size="14.00" fill="#000000"> &#160;&#160;&#160;decreaseApproval(_spender: address, _subtractedValue: uint): (success: bool)</text>
</g>
<!-- 6 -->
<g id="node7" class="node">
<title>6</title>
<polygon fill="#f2f2f2" stroke="#000000" points="507.0169,-1067.7 507.0169,-1226.1 961.6411,-1226.1 961.6411,-1067.7 507.0169,-1067.7"/>
<text text-anchor="middle" x="734.329" y="-1209.5" font-family="Times,serif" font-size="14.00" fill="#000000">&lt;&lt;Abstract&gt;&gt;</text>
<text text-anchor="middle" x="734.329" y="-1192.7" font-family="Times,serif" font-size="14.00" fill="#000000">ERC20</text>
<polyline fill="none" stroke="#000000" points="507.0169,-1184.5 961.6411,-1184.5 "/>
<text text-anchor="middle" x="734.329" y="-1167.9" font-family="Times,serif" font-size="14.00" fill="#000000"> </text>
<polyline fill="none" stroke="#000000" points="507.0169,-1159.7 961.6411,-1159.7 "/>
<text text-anchor="start" x="515.0169" y="-1143.1" font-family="Times,serif" font-size="14.00" fill="#000000">Public:</text>
<text text-anchor="start" x="515.0169" y="-1126.3" font-family="Times,serif" font-size="14.00" fill="#000000"> &#160;&#160;&#160;&lt;&lt;abstract&gt;&gt; allowance(owner: address, spender: address): uint256</text>
<text text-anchor="start" x="515.0169" y="-1109.5" font-family="Times,serif" font-size="14.00" fill="#000000"> &#160;&#160;&#160;&lt;&lt;abstract&gt;&gt; transferFrom(from: address, to: address, value: uint256): bool</text>
<text text-anchor="start" x="515.0169" y="-1092.7" font-family="Times,serif" font-size="14.00" fill="#000000"> &#160;&#160;&#160;&lt;&lt;abstract&gt;&gt; approve(spender: address, value: uint256): bool</text>
<text text-anchor="start" x="515.0169" y="-1075.9" font-family="Times,serif" font-size="14.00" fill="#000000"> &#160;&#160;&#160;&lt;&lt;event&gt;&gt; Approval(owner: address, spender: address, value: uint256)</text>
</g>
<!-- 8&#45;&gt;6 -->
<g id="edge2" class="edge">
<title>8&#45;&gt;6</title>
<path fill="none" stroke="#000000" d="M898.9913,-988.7984C879.4818,-1007.5307 858.7312,-1027.4544 838.7721,-1046.6183"/>
<polygon fill="none" stroke="#000000" points="831.4715,-1039.0716 817.1038,-1067.4233 846.0159,-1054.2195 831.4715,-1039.0716"/>
</g>
<!-- 7 -->
<g id="node8" class="node">
<title>7</title>
<polygon fill="#f2f2f2" stroke="#000000" points="979.4183,-1084.5 979.4183,-1209.3 1277.2397,-1209.3 1277.2397,-1084.5 979.4183,-1084.5"/>
<text text-anchor="middle" x="1128.329" y="-1192.7" font-family="Times,serif" font-size="14.00" fill="#000000">BasicToken</text>
<polyline fill="none" stroke="#000000" points="979.4183,-1184.5 1277.2397,-1184.5 "/>
<text text-anchor="start" x="987.4183" y="-1167.9" font-family="Times,serif" font-size="14.00" fill="#000000">Public:</text>
<text text-anchor="start" x="987.4183" y="-1151.1" font-family="Times,serif" font-size="14.00" fill="#000000"> &#160;&#160;balances: mapping(address=&gt;uint256)</text>
<polyline fill="none" stroke="#000000" points="979.4183,-1142.9 1277.2397,-1142.9 "/>
<text text-anchor="start" x="987.4183" y="-1126.3" font-family="Times,serif" font-size="14.00" fill="#000000">Public:</text>
<text text-anchor="start" x="987.4183" y="-1109.5" font-family="Times,serif" font-size="14.00" fill="#000000"> &#160;&#160;&#160;transfer(_to: address, _value: uint256): bool</text>
<text text-anchor="start" x="987.4183" y="-1092.7" font-family="Times,serif" font-size="14.00" fill="#000000"> &#160;&#160;&#160;balanceOf(_owner: address): (balance: uint256)</text>
</g>
<!-- 8&#45;&gt;7 -->
<g id="edge3" class="edge">
<title>8&#45;&gt;7</title>
<path fill="none" stroke="#000000" d="M1039.5657,-988.7984C1052.1677,-1011.2446 1065.7302,-1035.4016 1078.3682,-1057.9119"/>
<polygon fill="none" stroke="#000000" points="1069.3563,-1063.3083 1093.1986,-1084.3272 1087.6677,-1053.0277 1069.3563,-1063.3083"/>
</g>
<!-- 0 -->
<g id="node2" class="node">
<title>0</title>
<polygon fill="#f2f2f2" stroke="#000000" points="2117.4128,-1263.1 2117.4128,-1421.5 2349.2452,-1421.5 2349.2452,-1263.1 2117.4128,-1263.1"/>
<text text-anchor="middle" x="2233.329" y="-1404.9" font-family="Times,serif" font-size="14.00" fill="#000000">&lt;&lt;Library&gt;&gt;</text>
<text text-anchor="middle" x="2233.329" y="-1388.1" font-family="Times,serif" font-size="14.00" fill="#000000">SafeMath</text>
<polyline fill="none" stroke="#000000" points="2117.4128,-1379.9 2349.2452,-1379.9 "/>
<text text-anchor="middle" x="2233.329" y="-1363.3" font-family="Times,serif" font-size="14.00" fill="#000000"> </text>
<polyline fill="none" stroke="#000000" points="2117.4128,-1355.1 2349.2452,-1355.1 "/>
<text text-anchor="start" x="2125.4128" y="-1338.5" font-family="Times,serif" font-size="14.00" fill="#000000">Internal:</text>
<text text-anchor="start" x="2125.4128" y="-1321.7" font-family="Times,serif" font-size="14.00" fill="#000000"> &#160;&#160;&#160;mul(a: uint256, b: uint256): uint256</text>
<text text-anchor="start" x="2125.4128" y="-1304.9" font-family="Times,serif" font-size="14.00" fill="#000000"> &#160;&#160;&#160;div(a: uint256, b: uint256): uint256</text>
<text text-anchor="start" x="2125.4128" y="-1288.1" font-family="Times,serif" font-size="14.00" fill="#000000"> &#160;&#160;&#160;sub(a: uint256, b: uint256): uint256</text>
<text text-anchor="start" x="2125.4128" y="-1271.3" font-family="Times,serif" font-size="14.00" fill="#000000"> &#160;&#160;&#160;add(a: uint256, b: uint256): uint256</text>
</g>
<!-- 2 -->
<g id="node3" class="node">
<title>2</title>
<polygon fill="#f2f2f2" stroke="#000000" points="1728.9355,-195.9 1728.9355,-522.3 2329.7225,-522.3 2329.7225,-195.9 1728.9355,-195.9"/>
<text text-anchor="middle" x="2029.329" y="-505.7" font-family="Times,serif" font-size="14.00" fill="#000000">Crowdsale</text>
<polyline fill="none" stroke="#000000" points="1728.9355,-497.5 2329.7225,-497.5 "/>
<text text-anchor="start" x="1736.9355" y="-480.9" font-family="Times,serif" font-size="14.00" fill="#000000">Public:</text>
<text text-anchor="start" x="1736.9355" y="-464.1" font-family="Times,serif" font-size="14.00" fill="#000000"> &#160;&#160;token: MintableToken</text>
<text text-anchor="start" x="1736.9355" y="-447.3" font-family="Times,serif" font-size="14.00" fill="#000000"> &#160;&#160;startTime: uint256</text>
<text text-anchor="start" x="1736.9355" y="-430.5" font-family="Times,serif" font-size="14.00" fill="#000000"> &#160;&#160;endTime: uint256</text>
<text text-anchor="start" x="1736.9355" y="-413.7" font-family="Times,serif" font-size="14.00" fill="#000000"> &#160;&#160;wallet: address</text>
<text text-anchor="start" x="1736.9355" y="-396.9" font-family="Times,serif" font-size="14.00" fill="#000000"> &#160;&#160;rate: uint256</text>
<text text-anchor="start" x="1736.9355" y="-380.1" font-family="Times,serif" font-size="14.00" fill="#000000"> &#160;&#160;weiRaised: uint256</text>
<polyline fill="none" stroke="#000000" points="1728.9355,-371.9 2329.7225,-371.9 "/>
<text text-anchor="start" x="1736.9355" y="-355.3" font-family="Times,serif" font-size="14.00" fill="#000000">Internal:</text>
<text text-anchor="start" x="1736.9355" y="-338.5" font-family="Times,serif" font-size="14.00" fill="#000000"> &#160;&#160;&#160;createTokenContract(): MintableToken</text>
<text text-anchor="start" x="1736.9355" y="-321.7" font-family="Times,serif" font-size="14.00" fill="#000000"> &#160;&#160;&#160;forwardFunds()</text>
<text text-anchor="start" x="1736.9355" y="-304.9" font-family="Times,serif" font-size="14.00" fill="#000000"> &#160;&#160;&#160;validPurchase(): bool</text>
<text text-anchor="start" x="1736.9355" y="-288.1" font-family="Times,serif" font-size="14.00" fill="#000000">Public:</text>
<text text-anchor="start" x="1736.9355" y="-271.3" font-family="Times,serif" font-size="14.00" fill="#000000"> &#160;&#160;&#160;&lt;&lt;fallback&gt;&gt; ()</text>
<text text-anchor="start" x="1736.9355" y="-254.5" font-family="Times,serif" font-size="14.00" fill="#000000"> &#160;&#160;&#160;&lt;&lt;payable&gt;&gt; buyTokens(beneficiary: address)</text>
<text text-anchor="start" x="1736.9355" y="-237.7" font-family="Times,serif" font-size="14.00" fill="#000000"> &#160;&#160;&#160;&lt;&lt;event&gt;&gt; TokenPurchase(purchaser: address, beneficiary: address, value: uint256, amount: uint256)</text>
<text text-anchor="start" x="1736.9355" y="-220.9" font-family="Times,serif" font-size="14.00" fill="#000000"> &#160;&#160;&#160;constructor(_startTime: uint256, _endTime: uint256, _rate: uint256, _wallet: address)</text>
<text text-anchor="start" x="1736.9355" y="-204.1" font-family="Times,serif" font-size="14.00" fill="#000000"> &#160;&#160;&#160;hasEnded(): bool</text>
</g>
<!-- 2&#45;&gt;0 -->
<g id="edge4" class="edge">
<title>2&#45;&gt;0</title>
<path fill="none" stroke="#000000" stroke-dasharray="5,2" d="M2165.7692,-522.5326C2216.9716,-594.1164 2269.0895,-682.0005 2295.329,-771 2352.5913,-965.2235 2344.6334,-1030.2054 2295.329,-1226.6 2293.0639,-1235.6226 2289.9448,-1244.7095 2286.3016,-1253.6109"/>
<polygon fill="#000000" stroke="#000000" points="2283.0806,-1252.2413 2282.3291,-1262.8095 2289.507,-1255.0167 2283.0806,-1252.2413"/>
</g>
<!-- 10 -->
<g id="node11" class="node">
<title>10</title>
<polygon fill="#f2f2f2" stroke="#000000" points="1240.6425,-559.3 1240.6425,-734.5 1532.0155,-734.5 1532.0155,-559.3 1240.6425,-559.3"/>
<text text-anchor="middle" x="1386.329" y="-717.9" font-family="Times,serif" font-size="14.00" fill="#000000">MintableToken</text>
<polyline fill="none" stroke="#000000" points="1240.6425,-709.7 1532.0155,-709.7 "/>
<text text-anchor="start" x="1248.6425" y="-693.1" font-family="Times,serif" font-size="14.00" fill="#000000">Public:</text>
<text text-anchor="start" x="1248.6425" y="-676.3" font-family="Times,serif" font-size="14.00" fill="#000000"> &#160;&#160;mintingFinished: bool</text>
<polyline fill="none" stroke="#000000" points="1240.6425,-668.1 1532.0155,-668.1 "/>
<text text-anchor="start" x="1248.6425" y="-651.5" font-family="Times,serif" font-size="14.00" fill="#000000">Public:</text>
<text text-anchor="start" x="1248.6425" y="-634.7" font-family="Times,serif" font-size="14.00" fill="#000000"> &#160;&#160;&#160;&lt;&lt;event&gt;&gt; Mint(to: address, amount: uint256)</text>
<text text-anchor="start" x="1248.6425" y="-617.9" font-family="Times,serif" font-size="14.00" fill="#000000"> &#160;&#160;&#160;&lt;&lt;event&gt;&gt; MintFinished()</text>
<text text-anchor="start" x="1248.6425" y="-601.1" font-family="Times,serif" font-size="14.00" fill="#000000"> &#160;&#160;&#160;&lt;&lt;modifier&gt;&gt; canMint()</text>
<text text-anchor="start" x="1248.6425" y="-584.3" font-family="Times,serif" font-size="14.00" fill="#000000"> &#160;&#160;&#160;mint(_to: address, _amount: uint256): bool</text>
<text text-anchor="start" x="1248.6425" y="-567.5" font-family="Times,serif" font-size="14.00" fill="#000000"> &#160;&#160;&#160;finishMinting(): bool</text>
</g>
<!-- 2&#45;&gt;10 -->
<g id="edge5" class="edge">
<title>2&#45;&gt;10</title>
<path fill="none" stroke="#000000" d="M1728.5379,-493.7309C1663.8285,-522.6942 1597.9956,-552.1603 1541.5834,-577.4098"/>
<polygon fill="#000000" stroke="#000000" points="1539.9489,-574.3067 1532.2514,-581.5867 1542.8087,-580.6959 1539.9489,-574.3067"/>
</g>
<!-- 3 -->
<g id="node4" class="node">
<title>3</title>
<polygon fill="#f2f2f2" stroke="#000000" points="1939.8798,-.5 1939.8798,-158.9 2118.7782,-158.9 2118.7782,-.5 1939.8798,-.5"/>
<text text-anchor="middle" x="2029.329" y="-142.3" font-family="Times,serif" font-size="14.00" fill="#000000">CappedCrowdsale</text>
<polyline fill="none" stroke="#000000" points="1939.8798,-134.1 2118.7782,-134.1 "/>
<text text-anchor="start" x="1947.8798" y="-117.5" font-family="Times,serif" font-size="14.00" fill="#000000">Public:</text>
<text text-anchor="start" x="1947.8798" y="-100.7" font-family="Times,serif" font-size="14.00" fill="#000000"> &#160;&#160;cap: uint256</text>
<polyline fill="none" stroke="#000000" points="1939.8798,-92.5 2118.7782,-92.5 "/>
<text text-anchor="start" x="1947.8798" y="-75.9" font-family="Times,serif" font-size="14.00" fill="#000000">Internal:</text>
<text text-anchor="start" x="1947.8798" y="-59.1" font-family="Times,serif" font-size="14.00" fill="#000000"> &#160;&#160;&#160;validPurchase(): bool</text>
<text text-anchor="start" x="1947.8798" y="-42.3" font-family="Times,serif" font-size="14.00" fill="#000000">Public:</text>
<text text-anchor="start" x="1947.8798" y="-25.5" font-family="Times,serif" font-size="14.00" fill="#000000"> &#160;&#160;&#160;constructor(_cap: uint256)</text>
<text text-anchor="start" x="1947.8798" y="-8.7" font-family="Times,serif" font-size="14.00" fill="#000000"> &#160;&#160;&#160;hasEnded(): bool</text>
</g>
<!-- 3&#45;&gt;0 -->
<g id="edge7" class="edge">
<title>3&#45;&gt;0</title>
<path fill="none" stroke="#000000" stroke-dasharray="5,2" d="M2118.8296,-101.477C2200.2883,-123.2763 2311.7672,-158.7617 2338.329,-195.4 2456.2151,-358.0078 2357.329,-446.0557 2357.329,-646.9 2357.329,-646.9 2357.329,-646.9 2357.329,-901.1 2357.329,-1046.4213 2381.0409,-1091.9713 2326.329,-1226.6 2322.4688,-1236.0988 2317.5622,-1245.4396 2312.0278,-1254.4421"/>
<polygon fill="#000000" stroke="#000000" points="2309.012,-1252.6607 2306.5428,-1262.9638 2314.8982,-1256.4493 2309.012,-1252.6607"/>
</g>
<!-- 3&#45;&gt;2 -->
<g id="edge6" class="edge">
<title>3&#45;&gt;2</title>
<path fill="none" stroke="#000000" d="M2029.329,-159.0175C2029.329,-161.2106 2029.329,-163.4283 2029.329,-165.6678"/>
<polygon fill="none" stroke="#000000" points="2018.8291,-165.7729 2029.329,-195.7729 2039.8291,-165.773 2018.8291,-165.7729"/>
</g>
<!-- 4 -->
<g id="node5" class="node">
<title>4</title>
<polygon fill="#f2f2f2" stroke="#000000" points="2000.9065,-821.9 2000.9065,-980.3 2253.7515,-980.3 2253.7515,-821.9 2000.9065,-821.9"/>
<text text-anchor="middle" x="2127.329" y="-963.7" font-family="Times,serif" font-size="14.00" fill="#000000">WithdrawVault</text>
<polyline fill="none" stroke="#000000" points="2000.9065,-955.5 2253.7515,-955.5 "/>
<text text-anchor="start" x="2008.9065" y="-938.9" font-family="Times,serif" font-size="14.00" fill="#000000">Public:</text>
<text text-anchor="start" x="2008.9065" y="-922.1" font-family="Times,serif" font-size="14.00" fill="#000000"> &#160;&#160;deposited: mapping(address=&gt;uint256)</text>
<text text-anchor="start" x="2008.9065" y="-905.3" font-family="Times,serif" font-size="14.00" fill="#000000"> &#160;&#160;wallet: address</text>
<polyline fill="none" stroke="#000000" points="2000.9065,-897.1 2253.7515,-897.1 "/>
<text text-anchor="start" x="2008.9065" y="-880.5" font-family="Times,serif" font-size="14.00" fill="#000000">Public:</text>
<text text-anchor="start" x="2008.9065" y="-863.7" font-family="Times,serif" font-size="14.00" fill="#000000"> &#160;&#160;&#160;&lt;&lt;payable&gt;&gt; deposit(investor: address)</text>
<text text-anchor="start" x="2008.9065" y="-846.9" font-family="Times,serif" font-size="14.00" fill="#000000"> &#160;&#160;&#160;constructor(_wallet: address)</text>
<text text-anchor="start" x="2008.9065" y="-830.1" font-family="Times,serif" font-size="14.00" fill="#000000"> &#160;&#160;&#160;close()</text>
</g>
<!-- 4&#45;&gt;0 -->
<g id="edge9" class="edge">
<title>4&#45;&gt;0</title>
<path fill="none" stroke="#000000" stroke-dasharray="5,2" d="M2146.4021,-980.4873C2164.8079,-1057.097 2192.6313,-1172.9053 2211.8175,-1252.7637"/>
<polygon fill="#000000" stroke="#000000" points="2208.4912,-1253.9014 2214.2305,-1262.8071 2215.2975,-1252.2661 2208.4912,-1253.9014"/>
</g>
<!-- 1 -->
<g id="node9" class="node">
<title>1</title>
<polygon fill="#f2f2f2" stroke="#000000" points="1433.1939,-1076.1 1433.1939,-1217.7 1687.4641,-1217.7 1687.4641,-1076.1 1433.1939,-1076.1"/>
<text text-anchor="middle" x="1560.329" y="-1201.1" font-family="Times,serif" font-size="14.00" fill="#000000">Ownable</text>
<polyline fill="none" stroke="#000000" points="1433.1939,-1192.9 1687.4641,-1192.9 "/>
<text text-anchor="start" x="1441.1939" y="-1176.3" font-family="Times,serif" font-size="14.00" fill="#000000">Public:</text>
<text text-anchor="start" x="1441.1939" y="-1159.5" font-family="Times,serif" font-size="14.00" fill="#000000"> &#160;&#160;owner: address</text>
<polyline fill="none" stroke="#000000" points="1433.1939,-1151.3 1687.4641,-1151.3 "/>
<text text-anchor="start" x="1441.1939" y="-1134.7" font-family="Times,serif" font-size="14.00" fill="#000000">Public:</text>
<text text-anchor="start" x="1441.1939" y="-1117.9" font-family="Times,serif" font-size="14.00" fill="#000000"> &#160;&#160;&#160;&lt;&lt;modifier&gt;&gt; onlyOwner()</text>
<text text-anchor="start" x="1441.1939" y="-1101.1" font-family="Times,serif" font-size="14.00" fill="#000000"> &#160;&#160;&#160;constructor()</text>
<text text-anchor="start" x="1441.1939" y="-1084.3" font-family="Times,serif" font-size="14.00" fill="#000000"> &#160;&#160;&#160;transferOwnership(newOwner: address)</text>
</g>
<!-- 4&#45;&gt;1 -->
<g id="edge8" class="edge">
<title>4&#45;&gt;1</title>
<path fill="none" stroke="#000000" d="M2057.6813,-980.4744C2037.8382,-999.3212 2015.1039,-1017.8155 1991.329,-1031.2 1907.0235,-1078.6614 1802.413,-1107.35 1717.3662,-1124.2872"/>
<polygon fill="none" stroke="#000000" points="1715.4059,-1113.9717 1687.8727,-1129.8517 1719.2994,-1134.6076 1715.4059,-1113.9717"/>
</g>
<!-- 5 -->
<g id="node6" class="node">
<title>5</title>
<polygon fill="#f2f2f2" stroke="#000000" points="739.5986,-1263.1 739.5986,-1421.5 1123.0594,-1421.5 1123.0594,-1263.1 739.5986,-1263.1"/>
<text text-anchor="middle" x="931.329" y="-1404.9" font-family="Times,serif" font-size="14.00" fill="#000000">&lt;&lt;Abstract&gt;&gt;</text>
<text text-anchor="middle" x="931.329" y="-1388.1" font-family="Times,serif" font-size="14.00" fill="#000000">ERC20Basic</text>
<polyline fill="none" stroke="#000000" points="739.5986,-1379.9 1123.0594,-1379.9 "/>
<text text-anchor="start" x="747.5986" y="-1363.3" font-family="Times,serif" font-size="14.00" fill="#000000">Public:</text>
<text text-anchor="start" x="747.5986" y="-1346.5" font-family="Times,serif" font-size="14.00" fill="#000000"> &#160;&#160;totalSupply: uint256</text>
<polyline fill="none" stroke="#000000" points="739.5986,-1338.3 1123.0594,-1338.3 "/>
<text text-anchor="start" x="747.5986" y="-1321.7" font-family="Times,serif" font-size="14.00" fill="#000000">Public:</text>
<text text-anchor="start" x="747.5986" y="-1304.9" font-family="Times,serif" font-size="14.00" fill="#000000"> &#160;&#160;&#160;&lt;&lt;abstract&gt;&gt; balanceOf(who: address): uint256</text>
<text text-anchor="start" x="747.5986" y="-1288.1" font-family="Times,serif" font-size="14.00" fill="#000000"> &#160;&#160;&#160;&lt;&lt;abstract&gt;&gt; transfer(to: address, value: uint256): bool</text>
<text text-anchor="start" x="747.5986" y="-1271.3" font-family="Times,serif" font-size="14.00" fill="#000000"> &#160;&#160;&#160;&lt;&lt;event&gt;&gt; Transfer(from: address, to: address, value: uint256)</text>
</g>
<!-- 6&#45;&gt;5 -->
<g id="edge10" class="edge">
<title>6&#45;&gt;5</title>
<path fill="none" stroke="#000000" d="M814.4564,-1226.3767C819.4847,-1231.3641 824.5792,-1236.4172 829.685,-1241.4816"/>
<polygon fill="none" stroke="#000000" points="822.5787,-1249.2221 851.2726,-1262.8938 837.3673,-1234.3124 822.5787,-1249.2221"/>
</g>
<!-- 7&#45;&gt;0 -->
<g id="edge12" class="edge">
<title>7&#45;&gt;0</title>
<path fill="none" stroke="#000000" stroke-dasharray="5,2" d="M1277.3118,-1190.7856C1324.0885,-1203.5458 1376.1075,-1216.6977 1424.329,-1226.6 1663.6793,-1275.7509 1947.1186,-1311.1331 2107.0055,-1329.0278"/>
<polygon fill="#000000" stroke="#000000" points="2107.0304,-1332.5521 2117.3565,-1330.1811 2107.8056,-1325.5952 2107.0304,-1332.5521"/>
</g>
<!-- 7&#45;&gt;5 -->
<g id="edge11" class="edge">
<title>7&#45;&gt;5</title>
<path fill="none" stroke="#000000" d="M1065.1841,-1209.5321C1054.8935,-1219.7391 1044.0093,-1230.5349 1033.0717,-1241.3836"/>
<polygon fill="none" stroke="#000000" points="1025.3306,-1234.2728 1011.4254,-1262.8542 1040.1192,-1249.1824 1025.3306,-1234.2728"/>
</g>
<!-- 9 -->
<g id="node10" class="node">
<title>9</title>
<polygon fill="#f2f2f2" stroke="#000000" points="454.7722,-592.9 454.7722,-700.9 739.8858,-700.9 739.8858,-592.9 454.7722,-592.9"/>
<text text-anchor="middle" x="597.329" y="-684.3" font-family="Times,serif" font-size="14.00" fill="#000000">BurnableToken</text>
<polyline fill="none" stroke="#000000" points="454.7722,-676.1 739.8858,-676.1 "/>
<text text-anchor="middle" x="597.329" y="-659.5" font-family="Times,serif" font-size="14.00" fill="#000000"> </text>
<polyline fill="none" stroke="#000000" points="454.7722,-651.3 739.8858,-651.3 "/>
<text text-anchor="start" x="462.7722" y="-634.7" font-family="Times,serif" font-size="14.00" fill="#000000">Public:</text>
<text text-anchor="start" x="462.7722" y="-617.9" font-family="Times,serif" font-size="14.00" fill="#000000"> &#160;&#160;&#160;&lt;&lt;event&gt;&gt; Burn(burner: address, value: uint)</text>
<text text-anchor="start" x="462.7722" y="-601.1" font-family="Times,serif" font-size="14.00" fill="#000000"> &#160;&#160;&#160;burn(_value: uint)</text>
</g>
<!-- 9&#45;&gt;8 -->
<g id="edge13" class="edge">
<title>9&#45;&gt;8</title>
<path fill="none" stroke="#000000" d="M681.1553,-701.1205C724.3532,-729.0617 778.5238,-764.1003 829.4027,-797.0098"/>
<polygon fill="none" stroke="#000000" points="823.9475,-805.9862 854.84,-813.4631 835.3528,-788.3533 823.9475,-805.9862"/>
</g>
<!-- 10&#45;&gt;8 -->
<g id="edge14" class="edge">
<title>10&#45;&gt;8</title>
<path fill="none" stroke="#000000" d="M1249.7711,-734.5592C1218.4479,-754.6661 1184.8475,-776.2349 1152.5597,-796.961"/>
<polygon fill="none" stroke="#000000" points="1146.5896,-788.3161 1127.0156,-813.3583 1157.9338,-805.9884 1146.5896,-788.3161"/>
</g>
<!-- 10&#45;&gt;1 -->
<g id="edge15" class="edge">
<title>10&#45;&gt;1</title>
<path fill="none" stroke="#000000" d="M1453.8331,-734.609C1461.1238,-746.4459 1467.8641,-758.744 1473.329,-771 1512.9173,-859.7842 1535.5797,-968.7053 1547.7843,-1046.4016"/>
<polygon fill="none" stroke="#000000" points="1537.3987,-1047.9482 1552.1785,-1076.0873 1558.1724,-1044.8731 1537.3987,-1047.9482"/>
</g>
<!-- 11 -->
<g id="node12" class="node">
<title>11</title>
<polygon fill="#f2f2f2" stroke="#000000" points="1622.9202,-.5 1622.9202,-158.9 1779.7378,-158.9 1779.7378,-.5 1622.9202,-.5"/>
<text text-anchor="middle" x="1701.329" y="-142.3" font-family="Times,serif" font-size="14.00" fill="#000000">FinalizableCrowdsale</text>
<polyline fill="none" stroke="#000000" points="1622.9202,-134.1 1779.7378,-134.1 "/>
<text text-anchor="start" x="1630.9202" y="-117.5" font-family="Times,serif" font-size="14.00" fill="#000000">Public:</text>
<text text-anchor="start" x="1630.9202" y="-100.7" font-family="Times,serif" font-size="14.00" fill="#000000"> &#160;&#160;isFinalized: bool</text>
<polyline fill="none" stroke="#000000" points="1622.9202,-92.5 1779.7378,-92.5 "/>
<text text-anchor="start" x="1630.9202" y="-75.9" font-family="Times,serif" font-size="14.00" fill="#000000">Internal:</text>
<text text-anchor="start" x="1630.9202" y="-59.1" font-family="Times,serif" font-size="14.00" fill="#000000"> &#160;&#160;&#160;finalization()</text>
<text text-anchor="start" x="1630.9202" y="-42.3" font-family="Times,serif" font-size="14.00" fill="#000000">Public:</text>
<text text-anchor="start" x="1630.9202" y="-25.5" font-family="Times,serif" font-size="14.00" fill="#000000"> &#160;&#160;&#160;&lt;&lt;event&gt;&gt; Finalized()</text>
<text text-anchor="start" x="1630.9202" y="-8.7" font-family="Times,serif" font-size="14.00" fill="#000000"> &#160;&#160;&#160;finalize()</text>
</g>
<!-- 11&#45;&gt;0 -->
<g id="edge18" class="edge">
<title>11&#45;&gt;0</title>
<path fill="none" stroke="#000000" stroke-dasharray="5,2" d="M1679.7776,-159.2116C1658.7554,-255.63 1640.3725,-418.1915 1720.329,-522.8 1752.3376,-564.6774 1784.4806,-538.9983 1833.329,-558.8 1996.201,-624.8236 2029.4391,-657.8172 2187.329,-735 2220.5469,-751.2382 2242.6374,-739.7054 2262.329,-771 2311.3008,-848.8276 2274.2496,-1112.9943 2250.0023,-1253.1954"/>
<polygon fill="#000000" stroke="#000000" points="2246.5501,-1252.6187 2248.28,-1263.0714 2253.446,-1253.8214 2246.5501,-1252.6187"/>
</g>
<!-- 11&#45;&gt;2 -->
<g id="edge16" class="edge">
<title>11&#45;&gt;2</title>
<path fill="none" stroke="#000000" d="M1779.8932,-146.6233C1790.8885,-155.9894 1802.5946,-165.961 1814.7094,-176.2807"/>
<polygon fill="none" stroke="#000000" points="1808.005,-184.3629 1837.6514,-195.8234 1821.6227,-168.3765 1808.005,-184.3629"/>
</g>
<!-- 11&#45;&gt;1 -->
<g id="edge17" class="edge">
<title>11&#45;&gt;1</title>
<path fill="none" stroke="#000000" d="M1684.0067,-159.0683C1656.8092,-287.1231 1604.5922,-547.5699 1579.329,-771 1568.8347,-863.8131 1564.136,-970.1757 1562.0327,-1046.0192"/>
<polygon fill="none" stroke="#000000" points="1551.5357,-1045.77 1561.2917,-1076.0201 1572.5293,-1046.2885 1551.5357,-1045.77"/>
</g>
<!-- 12 -->
<g id="node13" class="node">
<title>12</title>
<polygon fill="#f2f2f2" stroke="#000000" points="1587.9552,-771.5 1587.9552,-1030.7 1982.7028,-1030.7 1982.7028,-771.5 1587.9552,-771.5"/>
<text text-anchor="middle" x="1785.329" y="-1014.1" font-family="Times,serif" font-size="14.00" fill="#000000">RefundVault</text>
<polyline fill="none" stroke="#000000" points="1587.9552,-1005.9 1982.7028,-1005.9 "/>
<text text-anchor="start" x="1595.9552" y="-989.3" font-family="Times,serif" font-size="14.00" fill="#000000">Public:</text>
<text text-anchor="start" x="1595.9552" y="-972.5" font-family="Times,serif" font-size="14.00" fill="#000000"> &#160;&#160;deposited: mapping(address=&gt;uint256)</text>
<text text-anchor="start" x="1595.9552" y="-955.7" font-family="Times,serif" font-size="14.00" fill="#000000"> &#160;&#160;wallet: address</text>
<text text-anchor="start" x="1595.9552" y="-938.9" font-family="Times,serif" font-size="14.00" fill="#000000"> &#160;&#160;state: State</text>
<polyline fill="none" stroke="#000000" points="1587.9552,-930.7 1982.7028,-930.7 "/>
<text text-anchor="start" x="1595.9552" y="-914.1" font-family="Times,serif" font-size="14.00" fill="#000000">Public:</text>
<text text-anchor="start" x="1595.9552" y="-897.3" font-family="Times,serif" font-size="14.00" fill="#000000"> &#160;&#160;&#160;&lt;&lt;payable&gt;&gt; deposit(investor: address)</text>
<text text-anchor="start" x="1595.9552" y="-880.5" font-family="Times,serif" font-size="14.00" fill="#000000"> &#160;&#160;&#160;&lt;&lt;event&gt;&gt; Closed()</text>
<text text-anchor="start" x="1595.9552" y="-863.7" font-family="Times,serif" font-size="14.00" fill="#000000"> &#160;&#160;&#160;&lt;&lt;event&gt;&gt; RefundsEnabled()</text>
<text text-anchor="start" x="1595.9552" y="-846.9" font-family="Times,serif" font-size="14.00" fill="#000000"> &#160;&#160;&#160;&lt;&lt;event&gt;&gt; Refunded(beneficiary: address, weiAmount: uint256)</text>
<text text-anchor="start" x="1595.9552" y="-830.1" font-family="Times,serif" font-size="14.00" fill="#000000"> &#160;&#160;&#160;constructor(_wallet: address)</text>
<text text-anchor="start" x="1595.9552" y="-813.3" font-family="Times,serif" font-size="14.00" fill="#000000"> &#160;&#160;&#160;close()</text>
<text text-anchor="start" x="1595.9552" y="-796.5" font-family="Times,serif" font-size="14.00" fill="#000000"> &#160;&#160;&#160;enableRefunds()</text>
<text text-anchor="start" x="1595.9552" y="-779.7" font-family="Times,serif" font-size="14.00" fill="#000000"> &#160;&#160;&#160;refund(investor: address)</text>
</g>
<!-- 12&#45;&gt;0 -->
<g id="edge20" class="edge">
<title>12&#45;&gt;0</title>
<path fill="none" stroke="#000000" stroke-dasharray="5,2" d="M1917.0186,-1030.7908C1990.5942,-1103.2496 2080.2741,-1191.5683 2145.3289,-1255.6356"/>
<polygon fill="#000000" stroke="#000000" points="2143.1576,-1258.4096 2152.7384,-1262.9327 2148.0693,-1253.4221 2143.1576,-1258.4096"/>
</g>
<!-- 12&#45;&gt;1 -->
<g id="edge19" class="edge">
<title>12&#45;&gt;1</title>
<path fill="none" stroke="#000000" d="M1666.5697,-1030.838C1659.6023,-1038.4494 1652.6671,-1046.0257 1645.8714,-1053.4497"/>
<polygon fill="none" stroke="#000000" points="1637.9112,-1046.5949 1625.4001,-1075.8135 1653.4014,-1060.7743 1637.9112,-1046.5949"/>
</g>
<!-- 12enum0 -->
<g id="node14" class="node">
<title>12enum0</title>
<polygon fill="#f2f2f2" stroke="#000000" points="1745.9872,-596.9 1745.9872,-696.9 1824.6708,-696.9 1824.6708,-596.9 1745.9872,-596.9"/>
<text text-anchor="middle" x="1785.329" y="-680.3" font-family="Times,serif" font-size="14.00" fill="#000000">&lt;&lt;enum&gt;&gt;</text>
<text text-anchor="middle" x="1785.329" y="-663.5" font-family="Times,serif" font-size="14.00" fill="#000000">State</text>
<polyline fill="none" stroke="#000000" points="1745.9872,-655.3 1824.6708,-655.3 "/>
<text text-anchor="start" x="1753.9872" y="-638.7" font-family="Times,serif" font-size="14.00" fill="#000000">Active</text>
<text text-anchor="start" x="1753.9872" y="-621.9" font-family="Times,serif" font-size="14.00" fill="#000000">Refunding</text>
<text text-anchor="start" x="1753.9872" y="-605.1" font-family="Times,serif" font-size="14.00" fill="#000000">Closed</text>
</g>
<!-- 12enum0&#45;&gt;12 -->
<g id="edge1" class="edge">
<title>12enum0&#45;&gt;12</title>
<path fill="none" stroke="#000000" d="M1785.329,-697.1217C1785.329,-715.3963 1785.329,-737.0673 1785.329,-759.347"/>
<polygon fill="#000000" stroke="#000000" points="1785.3291,-759.4023 1789.329,-765.4024 1785.329,-771.4023 1781.329,-765.4023 1785.3291,-759.4023"/>
</g>
<!-- 13 -->
<g id="node15" class="node">
<title>13</title>
<polygon fill="#f2f2f2" stroke="#000000" points="1250.538,-805.1 1250.538,-997.1 1464.12,-997.1 1464.12,-805.1 1250.538,-805.1"/>
<text text-anchor="middle" x="1357.329" y="-980.5" font-family="Times,serif" font-size="14.00" fill="#000000">Pausable</text>
<polyline fill="none" stroke="#000000" points="1250.538,-972.3 1464.12,-972.3 "/>
<text text-anchor="start" x="1258.538" y="-955.7" font-family="Times,serif" font-size="14.00" fill="#000000">Public:</text>
<text text-anchor="start" x="1258.538" y="-938.9" font-family="Times,serif" font-size="14.00" fill="#000000"> &#160;&#160;paused: bool</text>
<polyline fill="none" stroke="#000000" points="1250.538,-930.7 1464.12,-930.7 "/>
<text text-anchor="start" x="1258.538" y="-914.1" font-family="Times,serif" font-size="14.00" fill="#000000">Public:</text>
<text text-anchor="start" x="1258.538" y="-897.3" font-family="Times,serif" font-size="14.00" fill="#000000"> &#160;&#160;&#160;&lt;&lt;event&gt;&gt; Pause()</text>
<text text-anchor="start" x="1258.538" y="-880.5" font-family="Times,serif" font-size="14.00" fill="#000000"> &#160;&#160;&#160;&lt;&lt;event&gt;&gt; Unpause()</text>
<text text-anchor="start" x="1258.538" y="-863.7" font-family="Times,serif" font-size="14.00" fill="#000000"> &#160;&#160;&#160;&lt;&lt;modifier&gt;&gt; whenNotPaused()</text>
<text text-anchor="start" x="1258.538" y="-846.9" font-family="Times,serif" font-size="14.00" fill="#000000"> &#160;&#160;&#160;&lt;&lt;modifier&gt;&gt; whenPaused()</text>
<text text-anchor="start" x="1258.538" y="-830.1" font-family="Times,serif" font-size="14.00" fill="#000000"> &#160;&#160;&#160;pause()</text>
<text text-anchor="start" x="1258.538" y="-813.3" font-family="Times,serif" font-size="14.00" fill="#000000"> &#160;&#160;&#160;unpause()</text>
</g>
<!-- 13&#45;&gt;1 -->
<g id="edge21" class="edge">
<title>13&#45;&gt;1</title>
<path fill="none" stroke="#000000" d="M1436.6863,-997.1888C1451.7637,-1015.4451 1467.5265,-1034.5312 1482.5542,-1052.7273"/>
<polygon fill="none" stroke="#000000" points="1474.5672,-1059.5456 1501.7668,-1075.9906 1490.7591,-1046.1731 1474.5672,-1059.5456"/>
</g>
<!-- 14 -->
<g id="node16" class="node">
<title>14</title>
<polygon fill="#f2f2f2" stroke="#000000" points="757.6416,-567.7 757.6416,-726.1 1223.0164,-726.1 1223.0164,-567.7 757.6416,-567.7"/>
<text text-anchor="middle" x="990.329" y="-709.5" font-family="Times,serif" font-size="14.00" fill="#000000">PausableToken</text>
<polyline fill="none" stroke="#000000" points="757.6416,-701.3 1223.0164,-701.3 "/>
<text text-anchor="middle" x="990.329" y="-684.7" font-family="Times,serif" font-size="14.00" fill="#000000"> </text>
<polyline fill="none" stroke="#000000" points="757.6416,-676.5 1223.0164,-676.5 "/>
<text text-anchor="start" x="765.6416" y="-659.9" font-family="Times,serif" font-size="14.00" fill="#000000">Public:</text>
<text text-anchor="start" x="765.6416" y="-643.1" font-family="Times,serif" font-size="14.00" fill="#000000"> &#160;&#160;&#160;transfer(_to: address, _value: uint256): bool</text>
<text text-anchor="start" x="765.6416" y="-626.3" font-family="Times,serif" font-size="14.00" fill="#000000"> &#160;&#160;&#160;transferFrom(_from: address, _to: address, _value: uint256): bool</text>
<text text-anchor="start" x="765.6416" y="-609.5" font-family="Times,serif" font-size="14.00" fill="#000000"> &#160;&#160;&#160;approve(_spender: address, _value: uint256): bool</text>
<text text-anchor="start" x="765.6416" y="-592.7" font-family="Times,serif" font-size="14.00" fill="#000000"> &#160;&#160;&#160;increaseApproval(_spender: address, _addedValue: uint): (success: bool)</text>
<text text-anchor="start" x="765.6416" y="-575.9" font-family="Times,serif" font-size="14.00" fill="#000000"> &#160;&#160;&#160;decreaseApproval(_spender: address, _subtractedValue: uint): (success: bool)</text>
</g>
<!-- 14&#45;&gt;8 -->
<g id="edge22" class="edge">
<title>14&#45;&gt;8</title>
<path fill="none" stroke="#000000" d="M990.329,-726.2848C990.329,-744.3405 990.329,-763.899 990.329,-783.1746"/>
<polygon fill="none" stroke="#000000" points="979.8291,-783.4811 990.329,-813.4812 1000.8291,-783.4812 979.8291,-783.4811"/>
</g>
<!-- 14&#45;&gt;13 -->
<g id="edge23" class="edge">
<title>14&#45;&gt;13</title>
<path fill="none" stroke="#000000" d="M1162.5357,-726.1618C1186.7611,-739.873 1210.7359,-754.9359 1232.329,-771 1238.0542,-775.2592 1243.7503,-779.7906 1249.3771,-784.5121"/>
<polygon fill="none" stroke="#000000" points="1242.6618,-792.5933 1272.0163,-804.7819 1256.6697,-776.9478 1242.6618,-792.5933"/>
</g>
<!-- 15 -->
<g id="node17" class="node">
<title>15</title>
<polygon fill="#f2f2f2" stroke="#000000" points="0,-601.3 0,-692.5 436.658,-692.5 436.658,-601.3 0,-601.3"/>
<text text-anchor="middle" x="218.329" y="-675.9" font-family="Times,serif" font-size="14.00" fill="#000000">TokenRecipient</text>
<polyline fill="none" stroke="#000000" points="0,-667.7 436.658,-667.7 "/>
<text text-anchor="middle" x="218.329" y="-651.1" font-family="Times,serif" font-size="14.00" fill="#000000"> </text>
<polyline fill="none" stroke="#000000" points="0,-642.9 436.658,-642.9 "/>
<text text-anchor="start" x="8" y="-626.3" font-family="Times,serif" font-size="14.00" fill="#000000">Public:</text>
<text text-anchor="start" x="8" y="-609.5" font-family="Times,serif" font-size="14.00" fill="#000000"> &#160;&#160;&#160;tokenFallback(sender: address, _value: uint256, _extraData: bytes): bool</text>
</g>
<!-- 16 -->
<g id="node18" class="node">
<title>16</title>
<polygon fill="#f2f2f2" stroke="#000000" points="782.689,-204.3 782.689,-513.9 1197.969,-513.9 1197.969,-204.3 782.689,-204.3"/>
<text text-anchor="middle" x="990.329" y="-497.3" font-family="Times,serif" font-size="14.00" fill="#000000">NPXSToken</text>
<polyline fill="none" stroke="#000000" points="782.689,-489.1 1197.969,-489.1 "/>
<text text-anchor="start" x="790.689" y="-472.5" font-family="Times,serif" font-size="14.00" fill="#000000">Public:</text>
<text text-anchor="start" x="790.689" y="-455.7" font-family="Times,serif" font-size="14.00" fill="#000000"> &#160;&#160;name: string</text>
<text text-anchor="start" x="790.689" y="-438.9" font-family="Times,serif" font-size="14.00" fill="#000000"> &#160;&#160;symbol: string</text>
<text text-anchor="start" x="790.689" y="-422.1" font-family="Times,serif" font-size="14.00" fill="#000000"> &#160;&#160;decimals: uint8</text>
<text text-anchor="start" x="790.689" y="-405.3" font-family="Times,serif" font-size="14.00" fill="#000000"> &#160;&#160;stopReceive: mapping(address=&gt;bool)</text>
<polyline fill="none" stroke="#000000" points="782.689,-397.1 1197.969,-397.1 "/>
<text text-anchor="start" x="790.689" y="-380.5" font-family="Times,serif" font-size="14.00" fill="#000000">Public:</text>
<text text-anchor="start" x="790.689" y="-363.7" font-family="Times,serif" font-size="14.00" fill="#000000"> &#160;&#160;&#160;constructor()</text>
<text text-anchor="start" x="790.689" y="-346.9" font-family="Times,serif" font-size="14.00" fill="#000000"> &#160;&#160;&#160;transferFrom(_from: address, _to: address, _value: uint256): bool</text>
<text text-anchor="start" x="790.689" y="-330.1" font-family="Times,serif" font-size="14.00" fill="#000000"> &#160;&#160;&#160;setStopReceive(stop: bool)</text>
<text text-anchor="start" x="790.689" y="-313.3" font-family="Times,serif" font-size="14.00" fill="#000000"> &#160;&#160;&#160;getStopReceive(): bool</text>
<text text-anchor="start" x="790.689" y="-296.5" font-family="Times,serif" font-size="14.00" fill="#000000"> &#160;&#160;&#160;transfer(_to: address, _value: uint256): bool</text>
<text text-anchor="start" x="790.689" y="-279.7" font-family="Times,serif" font-size="14.00" fill="#000000"> &#160;&#160;&#160;mint(_to: address, _amount: uint256): bool</text>
<text text-anchor="start" x="790.689" y="-262.9" font-family="Times,serif" font-size="14.00" fill="#000000"> &#160;&#160;&#160;burn(_value: uint256)</text>
<text text-anchor="start" x="790.689" y="-246.1" font-family="Times,serif" font-size="14.00" fill="#000000"> &#160;&#160;&#160;pause()</text>
<text text-anchor="start" x="790.689" y="-229.3" font-family="Times,serif" font-size="14.00" fill="#000000"> &#160;&#160;&#160;unpause()</text>
<text text-anchor="start" x="790.689" y="-212.5" font-family="Times,serif" font-size="14.00" fill="#000000"> &#160;&#160;&#160;transferAndCall(_recipient: address, _amount: uint256, _data: bytes)</text>
</g>
<!-- 16&#45;&gt;9 -->
<g id="edge25" class="edge">
<title>16&#45;&gt;9</title>
<path fill="none" stroke="#000000" d="M782.6086,-511.2169C752.2983,-533.4136 722.3452,-555.3487 695.6466,-574.9005"/>
<polygon fill="none" stroke="#000000" points="689.1409,-566.6502 671.1407,-592.8465 701.5483,-583.593 689.1409,-566.6502"/>
</g>
<!-- 16&#45;&gt;10 -->
<g id="edge24" class="edge">
<title>16&#45;&gt;10</title>
<path fill="none" stroke="#000000" d="M1198.1867,-510.1643C1212.6903,-520.705 1227.1231,-531.1943 1241.1729,-541.4053"/>
<polygon fill="none" stroke="#000000" points="1235.1386,-549.9998 1265.5795,-559.1432 1247.4846,-533.0122 1235.1386,-549.9998"/>
</g>
<!-- 16&#45;&gt;14 -->
<g id="edge26" class="edge">
<title>16&#45;&gt;14</title>
<path fill="none" stroke="#000000" d="M990.329,-513.9517C990.329,-521.7537 990.329,-529.5125 990.329,-537.1356"/>
<polygon fill="none" stroke="#000000" points="979.8291,-537.4732 990.329,-567.4732 1000.8291,-537.4732 979.8291,-537.4732"/>
</g>
<!-- 16&#45;&gt;15 -->
<g id="edge27" class="edge">
<title>16&#45;&gt;15</title>
<path fill="none" stroke="#000000" stroke-dasharray="5,2" d="M782.6256,-434.1585C680.8057,-471.2206 556.4671,-516.8759 445.329,-558.8 412.5694,-571.1577 377.2467,-584.7409 344.4482,-597.4631"/>
<polygon fill="#000000" stroke="#000000" points="342.8695,-594.3214 334.8141,-601.2034 345.4029,-600.8469 342.8695,-594.3214"/>
</g>
</g>
</svg>
