<?xml version="1.0" encoding="UTF-8" standalone="no"?>
<!DOCTYPE svg PUBLIC "-//W3C//DTD SVG 1.1//EN"
 "http://www.w3.org/Graphics/SVG/1.1/DTD/svg11.dtd">
<!-- Generated by graphviz version 2.40.1 (20161225.0304)
 -->
<!-- Title: UmlClassDiagram Pages: 1 -->
<svg width="832pt" height="770pt"
 viewBox="0.00 0.00 832.15 770.40" xmlns="http://www.w3.org/2000/svg" xmlns:xlink="http://www.w3.org/1999/xlink">
<g id="graph0" class="graph" transform="scale(1 1) rotate(0) translate(4 766.4)">
<title>UmlClassDiagram</title>
<polygon fill="#ffffff" stroke="transparent" points="-4,4 -4,-766.4 828.1548,-766.4 828.1548,4 -4,4"/>
<!-- 0 -->
<g id="node1" class="node">
<title>0</title>
<polygon fill="#f2f2f2" stroke="#000000" points="86.4633,-603.5 86.4633,-761.9 341.2221,-761.9 341.2221,-603.5 86.4633,-603.5"/>
<text text-anchor="middle" x="213.8427" y="-745.3" font-family="Times,serif" font-size="14.00" fill="#000000">&lt;&lt;Library&gt;&gt;</text>
<text text-anchor="middle" x="213.8427" y="-728.5" font-family="Times,serif" font-size="14.00" fill="#000000">SafeMath</text>
<polyline fill="none" stroke="#000000" points="86.4633,-720.3 341.2221,-720.3 "/>
<text text-anchor="middle" x="213.8427" y="-703.7" font-family="Times,serif" font-size="14.00" fill="#000000"> </text>
<polyline fill="none" stroke="#000000" points="86.4633,-695.5 341.2221,-695.5 "/>
<text text-anchor="start" x="94.4633" y="-678.9" font-family="Times,serif" font-size="14.00" fill="#000000">Internal:</text>
<text text-anchor="start" x="94.4633" y="-662.1" font-family="Times,serif" font-size="14.00" fill="#000000"> &#160;&#160;&#160;mul(a: uint256, b: uint256): (c: uint256)</text>
<text text-anchor="start" x="94.4633" y="-645.3" font-family="Times,serif" font-size="14.00" fill="#000000"> &#160;&#160;&#160;div(a: uint256, b: uint256): uint256</text>
<text text-anchor="start" x="94.4633" y="-628.5" font-family="Times,serif" font-size="14.00" fill="#000000"> &#160;&#160;&#160;sub(a: uint256, b: uint256): uint256</text>
<text text-anchor="start" x="94.4633" y="-611.7" font-family="Times,serif" font-size="14.00" fill="#000000"> &#160;&#160;&#160;add(a: uint256, b: uint256): (c: uint256)</text>
</g>
<!-- 1 -->
<g id="node2" class="node">
<title>1</title>
<polygon fill="#f2f2f2" stroke="#000000" points="382.1123,-603.5 382.1123,-761.9 765.5731,-761.9 765.5731,-603.5 382.1123,-603.5"/>
<text text-anchor="middle" x="573.8427" y="-745.3" font-family="Times,serif" font-size="14.00" fill="#000000">&lt;&lt;Abstract&gt;&gt;</text>
<text text-anchor="middle" x="573.8427" y="-728.5" font-family="Times,serif" font-size="14.00" fill="#000000">ERC20Basic</text>
<polyline fill="none" stroke="#000000" points="382.1123,-720.3 765.5731,-720.3 "/>
<text text-anchor="middle" x="573.8427" y="-703.7" font-family="Times,serif" font-size="14.00" fill="#000000"> </text>
<polyline fill="none" stroke="#000000" points="382.1123,-695.5 765.5731,-695.5 "/>
<text text-anchor="start" x="390.1123" y="-678.9" font-family="Times,serif" font-size="14.00" fill="#000000">Public:</text>
<text text-anchor="start" x="390.1123" y="-662.1" font-family="Times,serif" font-size="14.00" fill="#000000"> &#160;&#160;&#160;&lt;&lt;abstract&gt;&gt; totalSupply(): uint256</text>
<text text-anchor="start" x="390.1123" y="-645.3" font-family="Times,serif" font-size="14.00" fill="#000000"> &#160;&#160;&#160;&lt;&lt;abstract&gt;&gt; balanceOf(who: address): uint256</text>
<text text-anchor="start" x="390.1123" y="-628.5" font-family="Times,serif" font-size="14.00" fill="#000000"> &#160;&#160;&#160;&lt;&lt;abstract&gt;&gt; transfer(to: address, value: uint256): bool</text>
<text text-anchor="start" x="390.1123" y="-611.7" font-family="Times,serif" font-size="14.00" fill="#000000"> &#160;&#160;&#160;&lt;&lt;event&gt;&gt; Transfer(from: address, to: address, value: uint256)</text>
</g>
<!-- 2 -->
<g id="node3" class="node">
<title>2</title>
<polygon fill="#f2f2f2" stroke="#000000" points="75.7925,-408.1 75.7925,-566.5 351.8929,-566.5 351.8929,-408.1 75.7925,-408.1"/>
<text text-anchor="middle" x="213.8427" y="-549.9" font-family="Times,serif" font-size="14.00" fill="#000000">BasicToken</text>
<polyline fill="none" stroke="#000000" points="75.7925,-541.7 351.8929,-541.7 "/>
<text text-anchor="start" x="83.7925" y="-525.1" font-family="Times,serif" font-size="14.00" fill="#000000">Public:</text>
<text text-anchor="start" x="83.7925" y="-508.3" font-family="Times,serif" font-size="14.00" fill="#000000"> &#160;&#160;balances: mapping(address=&gt;uint256)</text>
<text text-anchor="start" x="83.7925" y="-491.5" font-family="Times,serif" font-size="14.00" fill="#000000"> &#160;&#160;totalSupply_: uint256</text>
<polyline fill="none" stroke="#000000" points="75.7925,-483.3 351.8929,-483.3 "/>
<text text-anchor="start" x="83.7925" y="-466.7" font-family="Times,serif" font-size="14.00" fill="#000000">Public:</text>
<text text-anchor="start" x="83.7925" y="-449.9" font-family="Times,serif" font-size="14.00" fill="#000000"> &#160;&#160;&#160;totalSupply(): uint256</text>
<text text-anchor="start" x="83.7925" y="-433.1" font-family="Times,serif" font-size="14.00" fill="#000000"> &#160;&#160;&#160;transfer(_to: address, _value: uint256): bool</text>
<text text-anchor="start" x="83.7925" y="-416.3" font-family="Times,serif" font-size="14.00" fill="#000000"> &#160;&#160;&#160;balanceOf(_owner: address): uint256</text>
</g>
<!-- 2&#45;&gt;0 -->
<g id="edge2" class="edge">
<title>2&#45;&gt;0</title>
<path fill="none" stroke="#000000" stroke-dasharray="5,2" d="M213.8427,-566.7767C213.8427,-575.4341 213.8427,-584.2895 213.8427,-593.0577"/>
<polygon fill="#000000" stroke="#000000" points="210.3428,-593.2937 213.8427,-603.2938 217.3428,-593.2938 210.3428,-593.2937"/>
</g>
<!-- 2&#45;&gt;1 -->
<g id="edge1" class="edge">
<title>2&#45;&gt;1</title>
<path fill="none" stroke="#000000" d="M351.9985,-562.2879C368.0705,-571.0114 384.6136,-579.9906 401.0759,-588.926"/>
<polygon fill="none" stroke="#000000" points="396.3172,-598.2901 427.6927,-603.373 406.3351,-579.8335 396.3172,-598.2901"/>
</g>
<!-- 3 -->
<g id="node4" class="node">
<title>3</title>
<polygon fill="#f2f2f2" stroke="#000000" points="369.5306,-408.1 369.5306,-566.5 824.1548,-566.5 824.1548,-408.1 369.5306,-408.1"/>
<text text-anchor="middle" x="596.8427" y="-549.9" font-family="Times,serif" font-size="14.00" fill="#000000">&lt;&lt;Abstract&gt;&gt;</text>
<text text-anchor="middle" x="596.8427" y="-533.1" font-family="Times,serif" font-size="14.00" fill="#000000">ERC20</text>
<polyline fill="none" stroke="#000000" points="369.5306,-524.9 824.1548,-524.9 "/>
<text text-anchor="middle" x="596.8427" y="-508.3" font-family="Times,serif" font-size="14.00" fill="#000000"> </text>
<polyline fill="none" stroke="#000000" points="369.5306,-500.1 824.1548,-500.1 "/>
<text text-anchor="start" x="377.5306" y="-483.5" font-family="Times,serif" font-size="14.00" fill="#000000">Public:</text>
<text text-anchor="start" x="377.5306" y="-466.7" font-family="Times,serif" font-size="14.00" fill="#000000"> &#160;&#160;&#160;&lt;&lt;abstract&gt;&gt; allowance(owner: address, spender: address): uint256</text>
<text text-anchor="start" x="377.5306" y="-449.9" font-family="Times,serif" font-size="14.00" fill="#000000"> &#160;&#160;&#160;&lt;&lt;abstract&gt;&gt; transferFrom(from: address, to: address, value: uint256): bool</text>
<text text-anchor="start" x="377.5306" y="-433.1" font-family="Times,serif" font-size="14.00" fill="#000000"> &#160;&#160;&#160;&lt;&lt;abstract&gt;&gt; approve(spender: address, value: uint256): bool</text>
<text text-anchor="start" x="377.5306" y="-416.3" font-family="Times,serif" font-size="14.00" fill="#000000"> &#160;&#160;&#160;&lt;&lt;event&gt;&gt; Approval(owner: address, spender: address, value: uint256)</text>
</g>
<!-- 3&#45;&gt;1 -->
<g id="edge3" class="edge">
<title>3&#45;&gt;1</title>
<path fill="none" stroke="#000000" d="M587.4877,-566.7767C587.233,-568.941 586.9767,-571.1178 586.7196,-573.3024"/>
<polygon fill="none" stroke="#000000" points="576.2685,-572.272 583.1894,-603.2938 597.1245,-574.7269 576.2685,-572.272"/>
</g>
<!-- 4 -->
<g id="node5" class="node">
<title>4</title>
<polygon fill="#f2f2f2" stroke="#000000" points="0,-195.9 0,-371.1 427.6854,-371.1 427.6854,-195.9 0,-195.9"/>
<text text-anchor="middle" x="213.8427" y="-354.5" font-family="Times,serif" font-size="14.00" fill="#000000">StandardToken</text>
<polyline fill="none" stroke="#000000" points="0,-346.3 427.6854,-346.3 "/>
<text text-anchor="start" x="8" y="-329.7" font-family="Times,serif" font-size="14.00" fill="#000000">Internal:</text>
<text text-anchor="start" x="8" y="-312.9" font-family="Times,serif" font-size="14.00" fill="#000000"> &#160;&#160;allowed: mapping(address=&gt;mapping(address=&gt;uint256))</text>
<polyline fill="none" stroke="#000000" points="0,-304.7 427.6854,-304.7 "/>
<text text-anchor="start" x="8" y="-288.1" font-family="Times,serif" font-size="14.00" fill="#000000">Public:</text>
<text text-anchor="start" x="8" y="-271.3" font-family="Times,serif" font-size="14.00" fill="#000000"> &#160;&#160;&#160;transferFrom(_from: address, _to: address, _value: uint256): bool</text>
<text text-anchor="start" x="8" y="-254.5" font-family="Times,serif" font-size="14.00" fill="#000000"> &#160;&#160;&#160;approve(_spender: address, _value: uint256): bool</text>
<text text-anchor="start" x="8" y="-237.7" font-family="Times,serif" font-size="14.00" fill="#000000"> &#160;&#160;&#160;allowance(_owner: address, _spender: address): uint256</text>
<text text-anchor="start" x="8" y="-220.9" font-family="Times,serif" font-size="14.00" fill="#000000"> &#160;&#160;&#160;increaseApproval(_spender: address, _addedValue: uint256): bool</text>
<text text-anchor="start" x="8" y="-204.1" font-family="Times,serif" font-size="14.00" fill="#000000"> &#160;&#160;&#160;decreaseApproval(_spender: address, _subtractedValue: uint256): bool</text>
</g>
<!-- 4&#45;&gt;2 -->
<g id="edge5" class="edge">
<title>4&#45;&gt;2</title>
<path fill="none" stroke="#000000" d="M213.8427,-371.1123C213.8427,-373.3029 213.8427,-375.5024 213.8427,-377.7068"/>
<polygon fill="none" stroke="#000000" points="203.3428,-377.8034 213.8427,-407.8034 224.3428,-377.8034 203.3428,-377.8034"/>
</g>
<!-- 4&#45;&gt;3 -->
<g id="edge4" class="edge">
<title>4&#45;&gt;3</title>
<path fill="none" stroke="#000000" d="M378.4919,-371.1123C392.6046,-378.6218 406.9157,-386.237 421.1105,-393.7903"/>
<polygon fill="none" stroke="#000000" points="416.329,-403.1399 447.7454,-407.9631 426.1938,-384.6011 416.329,-403.1399"/>
</g>
<!-- 5 -->
<g id="node6" class="node">
<title>5</title>
<polygon fill="#f2f2f2" stroke="#000000" points="120.2999,-.5 120.2999,-158.9 307.3855,-158.9 307.3855,-.5 120.2999,-.5"/>
<text text-anchor="middle" x="213.8427" y="-142.3" font-family="Times,serif" font-size="14.00" fill="#000000">ANKRToken</text>
<polyline fill="none" stroke="#000000" points="120.2999,-134.1 307.3855,-134.1 "/>
<text text-anchor="start" x="128.2999" y="-117.5" font-family="Times,serif" font-size="14.00" fill="#000000">Public:</text>
<text text-anchor="start" x="128.2999" y="-100.7" font-family="Times,serif" font-size="14.00" fill="#000000"> &#160;&#160;name: string</text>
<text text-anchor="start" x="128.2999" y="-83.9" font-family="Times,serif" font-size="14.00" fill="#000000"> &#160;&#160;symbol: string</text>
<text text-anchor="start" x="128.2999" y="-67.1" font-family="Times,serif" font-size="14.00" fill="#000000"> &#160;&#160;decimals: uint8</text>
<text text-anchor="start" x="128.2999" y="-50.3" font-family="Times,serif" font-size="14.00" fill="#000000"> &#160;&#160;INITIAL_SUPPLY: uint256</text>
<polyline fill="none" stroke="#000000" points="120.2999,-42.1 307.3855,-42.1 "/>
<text text-anchor="start" x="128.2999" y="-25.5" font-family="Times,serif" font-size="14.00" fill="#000000">Public:</text>
<text text-anchor="start" x="128.2999" y="-8.7" font-family="Times,serif" font-size="14.00" fill="#000000"> &#160;&#160;&#160;constructor()</text>
</g>
<!-- 5&#45;&gt;4 -->
<g id="edge6" class="edge">
<title>5&#45;&gt;4</title>
<path fill="none" stroke="#000000" d="M213.8427,-159.078C213.8427,-161.2469 213.8427,-163.4302 213.8427,-165.6236"/>
<polygon fill="none" stroke="#000000" points="203.3428,-165.8969 213.8427,-195.897 224.3428,-165.897 203.3428,-165.8969"/>
</g>
</g>
</svg>
