<?xml version="1.0" encoding="UTF-8" standalone="no"?>
<!DOCTYPE svg PUBLIC "-//W3C//DTD SVG 1.1//EN"
 "http://www.w3.org/Graphics/SVG/1.1/DTD/svg11.dtd">
<!-- Generated by graphviz version 2.40.1 (20161225.0304)
 -->
<!-- Title: UmlClassDiagram Pages: 1 -->
<svg width="849pt" height="922pt"
 viewBox="0.00 0.00 849.23 921.60" xmlns="http://www.w3.org/2000/svg" xmlns:xlink="http://www.w3.org/1999/xlink">
<g id="graph0" class="graph" transform="scale(1 1) rotate(0) translate(4 917.6)">
<title>UmlClassDiagram</title>
<polygon fill="#ffffff" stroke="transparent" points="-4,4 -4,-917.6 845.2283,-917.6 845.2283,4 -4,4"/>
<!-- 0 -->
<g id="node1" class="node">
<title>0</title>
<polygon fill="#f2f2f2" stroke="#000000" points="320.1858,-737.9 320.1858,-913.1 703.6466,-913.1 703.6466,-737.9 320.1858,-737.9"/>
<text text-anchor="middle" x="511.9162" y="-896.5" font-family="Times,serif" font-size="14.00" fill="#000000">&lt;&lt;Abstract&gt;&gt;</text>
<text text-anchor="middle" x="511.9162" y="-879.7" font-family="Times,serif" font-size="14.00" fill="#000000">ERC20Basic</text>
<polyline fill="none" stroke="#000000" points="320.1858,-871.5 703.6466,-871.5 "/>
<text text-anchor="middle" x="511.9162" y="-854.9" font-family="Times,serif" font-size="14.00" fill="#000000"> </text>
<polyline fill="none" stroke="#000000" points="320.1858,-846.7 703.6466,-846.7 "/>
<text text-anchor="start" x="328.1858" y="-830.1" font-family="Times,serif" font-size="14.00" fill="#000000">Public:</text>
<text text-anchor="start" x="328.1858" y="-813.3" font-family="Times,serif" font-size="14.00" fill="#000000"> &#160;&#160;&#160;&lt;&lt;abstract&gt;&gt; totalSupply(): uint256</text>
<text text-anchor="start" x="328.1858" y="-796.5" font-family="Times,serif" font-size="14.00" fill="#000000"> &#160;&#160;&#160;&lt;&lt;abstract&gt;&gt; balanceOf(who: address): uint256</text>
<text text-anchor="start" x="328.1858" y="-779.7" font-family="Times,serif" font-size="14.00" fill="#000000"> &#160;&#160;&#160;&lt;&lt;abstract&gt;&gt; transfer(to: address, value: uint256): bool</text>
<text text-anchor="start" x="328.1858" y="-762.9" font-family="Times,serif" font-size="14.00" fill="#000000"> &#160;&#160;&#160;&lt;&lt;event&gt;&gt; Transfer(from: address, to: address, value: uint256)</text>
<text text-anchor="start" x="328.1858" y="-746.1" font-family="Times,serif" font-size="14.00" fill="#000000"> &#160;&#160;&#160;&lt;&lt;event&gt;&gt; Burn(burner: address, value: uint256)</text>
</g>
<!-- 1 -->
<g id="node2" class="node">
<title>1</title>
<polygon fill="#f2f2f2" stroke="#000000" points="0,-746.3 0,-904.7 231.8324,-904.7 231.8324,-746.3 0,-746.3"/>
<text text-anchor="middle" x="115.9162" y="-888.1" font-family="Times,serif" font-size="14.00" fill="#000000">&lt;&lt;Library&gt;&gt;</text>
<text text-anchor="middle" x="115.9162" y="-871.3" font-family="Times,serif" font-size="14.00" fill="#000000">SafeMath</text>
<polyline fill="none" stroke="#000000" points="0,-863.1 231.8324,-863.1 "/>
<text text-anchor="middle" x="115.9162" y="-846.5" font-family="Times,serif" font-size="14.00" fill="#000000"> </text>
<polyline fill="none" stroke="#000000" points="0,-838.3 231.8324,-838.3 "/>
<text text-anchor="start" x="8" y="-821.7" font-family="Times,serif" font-size="14.00" fill="#000000">Internal:</text>
<text text-anchor="start" x="8" y="-804.9" font-family="Times,serif" font-size="14.00" fill="#000000"> &#160;&#160;&#160;mul(a: uint256, b: uint256): uint256</text>
<text text-anchor="start" x="8" y="-788.1" font-family="Times,serif" font-size="14.00" fill="#000000"> &#160;&#160;&#160;div(a: uint256, b: uint256): uint256</text>
<text text-anchor="start" x="8" y="-771.3" font-family="Times,serif" font-size="14.00" fill="#000000"> &#160;&#160;&#160;sub(a: uint256, b: uint256): uint256</text>
<text text-anchor="start" x="8" y="-754.5" font-family="Times,serif" font-size="14.00" fill="#000000"> &#160;&#160;&#160;add(a: uint256, b: uint256): uint256</text>
</g>
<!-- 2 -->
<g id="node3" class="node">
<title>2</title>
<polygon fill="#f2f2f2" stroke="#000000" points="92.866,-492.1 92.866,-700.9 368.9664,-700.9 368.9664,-492.1 92.866,-492.1"/>
<text text-anchor="middle" x="230.9162" y="-684.3" font-family="Times,serif" font-size="14.00" fill="#000000">BasicToken</text>
<polyline fill="none" stroke="#000000" points="92.866,-676.1 368.9664,-676.1 "/>
<text text-anchor="start" x="100.866" y="-659.5" font-family="Times,serif" font-size="14.00" fill="#000000">Public:</text>
<text text-anchor="start" x="100.866" y="-642.7" font-family="Times,serif" font-size="14.00" fill="#000000"> &#160;&#160;balances: mapping(address=&gt;uint256)</text>
<text text-anchor="start" x="100.866" y="-625.9" font-family="Times,serif" font-size="14.00" fill="#000000"> &#160;&#160;totalSupply_: uint256</text>
<text text-anchor="start" x="100.866" y="-609.1" font-family="Times,serif" font-size="14.00" fill="#000000"> &#160;&#160;burnedTotalNum_: uint256</text>
<polyline fill="none" stroke="#000000" points="92.866,-600.9 368.9664,-600.9 "/>
<text text-anchor="start" x="100.866" y="-584.3" font-family="Times,serif" font-size="14.00" fill="#000000">Public:</text>
<text text-anchor="start" x="100.866" y="-567.5" font-family="Times,serif" font-size="14.00" fill="#000000"> &#160;&#160;&#160;totalSupply(): uint256</text>
<text text-anchor="start" x="100.866" y="-550.7" font-family="Times,serif" font-size="14.00" fill="#000000"> &#160;&#160;&#160;totalBurned(): uint256</text>
<text text-anchor="start" x="100.866" y="-533.9" font-family="Times,serif" font-size="14.00" fill="#000000"> &#160;&#160;&#160;burn(_value: uint256): bool</text>
<text text-anchor="start" x="100.866" y="-517.1" font-family="Times,serif" font-size="14.00" fill="#000000"> &#160;&#160;&#160;transfer(_to: address, _value: uint256): bool</text>
<text text-anchor="start" x="100.866" y="-500.3" font-family="Times,serif" font-size="14.00" fill="#000000"> &#160;&#160;&#160;balanceOf(_owner: address): uint256</text>
</g>
<!-- 2&#45;&gt;0 -->
<g id="edge1" class="edge">
<title>2&#45;&gt;0</title>
<path fill="none" stroke="#000000" d="M359.0817,-700.948C366.2558,-706.7945 373.4731,-712.6762 380.658,-718.5316"/>
<polygon fill="none" stroke="#000000" points="374.2268,-726.8356 404.1156,-737.6482 387.4932,-710.5567 374.2268,-726.8356"/>
</g>
<!-- 2&#45;&gt;1 -->
<g id="edge2" class="edge">
<title>2&#45;&gt;1</title>
<path fill="none" stroke="#000000" stroke-dasharray="5,2" d="M178.4641,-700.948C172.3746,-713.0741 166.209,-725.3518 160.2433,-737.2313"/>
<polygon fill="#000000" stroke="#000000" points="157.0849,-735.7217 155.7248,-746.2289 163.3404,-738.8632 157.0849,-735.7217"/>
</g>
<!-- 3 -->
<g id="node4" class="node">
<title>3</title>
<polygon fill="#f2f2f2" stroke="#000000" points="386.6041,-517.3 386.6041,-675.7 841.2283,-675.7 841.2283,-517.3 386.6041,-517.3"/>
<text text-anchor="middle" x="613.9162" y="-659.1" font-family="Times,serif" font-size="14.00" fill="#000000">&lt;&lt;Abstract&gt;&gt;</text>
<text text-anchor="middle" x="613.9162" y="-642.3" font-family="Times,serif" font-size="14.00" fill="#000000">ERC20</text>
<polyline fill="none" stroke="#000000" points="386.6041,-634.1 841.2283,-634.1 "/>
<text text-anchor="middle" x="613.9162" y="-617.5" font-family="Times,serif" font-size="14.00" fill="#000000"> </text>
<polyline fill="none" stroke="#000000" points="386.6041,-609.3 841.2283,-609.3 "/>
<text text-anchor="start" x="394.6041" y="-592.7" font-family="Times,serif" font-size="14.00" fill="#000000">Public:</text>
<text text-anchor="start" x="394.6041" y="-575.9" font-family="Times,serif" font-size="14.00" fill="#000000"> &#160;&#160;&#160;&lt;&lt;abstract&gt;&gt; allowance(owner: address, spender: address): uint256</text>
<text text-anchor="start" x="394.6041" y="-559.1" font-family="Times,serif" font-size="14.00" fill="#000000"> &#160;&#160;&#160;&lt;&lt;abstract&gt;&gt; transferFrom(from: address, to: address, value: uint256): bool</text>
<text text-anchor="start" x="394.6041" y="-542.3" font-family="Times,serif" font-size="14.00" fill="#000000"> &#160;&#160;&#160;&lt;&lt;abstract&gt;&gt; approve(spender: address, value: uint256): bool</text>
<text text-anchor="start" x="394.6041" y="-525.5" font-family="Times,serif" font-size="14.00" fill="#000000"> &#160;&#160;&#160;&lt;&lt;event&gt;&gt; Approval(owner: address, spender: address, value: uint256)</text>
</g>
<!-- 3&#45;&gt;0 -->
<g id="edge3" class="edge">
<title>3&#45;&gt;0</title>
<path fill="none" stroke="#000000" d="M578.5278,-675.9504C573.6127,-686.9853 568.4835,-698.5008 563.3485,-710.0295"/>
<polygon fill="none" stroke="#000000" points="553.6923,-705.9025 551.0774,-737.5792 572.8754,-714.447 553.6923,-705.9025"/>
</g>
<!-- 4 -->
<g id="node5" class="node">
<title>4</title>
<polygon fill="#f2f2f2" stroke="#000000" points="60.5735,-229.5 60.5735,-455.1 467.2589,-455.1 467.2589,-229.5 60.5735,-229.5"/>
<text text-anchor="middle" x="263.9162" y="-438.5" font-family="Times,serif" font-size="14.00" fill="#000000">StandardToken</text>
<polyline fill="none" stroke="#000000" points="60.5735,-430.3 467.2589,-430.3 "/>
<text text-anchor="start" x="68.5735" y="-413.7" font-family="Times,serif" font-size="14.00" fill="#000000">Private:</text>
<text text-anchor="start" x="68.5735" y="-396.9" font-family="Times,serif" font-size="14.00" fill="#000000"> &#160;&#160;MAX_UINT: uint</text>
<text text-anchor="start" x="68.5735" y="-380.1" font-family="Times,serif" font-size="14.00" fill="#000000">Internal:</text>
<text text-anchor="start" x="68.5735" y="-363.3" font-family="Times,serif" font-size="14.00" fill="#000000"> &#160;&#160;allowed: mapping(address=&gt;mapping(address=&gt;uint256))</text>
<polyline fill="none" stroke="#000000" points="60.5735,-355.1 467.2589,-355.1 "/>
<text text-anchor="start" x="68.5735" y="-338.5" font-family="Times,serif" font-size="14.00" fill="#000000">Public:</text>
<text text-anchor="start" x="68.5735" y="-321.7" font-family="Times,serif" font-size="14.00" fill="#000000"> &#160;&#160;&#160;burnFrom(_owner: address, _value: uint256): bool</text>
<text text-anchor="start" x="68.5735" y="-304.9" font-family="Times,serif" font-size="14.00" fill="#000000"> &#160;&#160;&#160;transferFrom(_from: address, _to: address, _value: uint256): bool</text>
<text text-anchor="start" x="68.5735" y="-288.1" font-family="Times,serif" font-size="14.00" fill="#000000"> &#160;&#160;&#160;approve(_spender: address, _value: uint256): bool</text>
<text text-anchor="start" x="68.5735" y="-271.3" font-family="Times,serif" font-size="14.00" fill="#000000"> &#160;&#160;&#160;allowance(_owner: address, _spender: address): uint256</text>
<text text-anchor="start" x="68.5735" y="-254.5" font-family="Times,serif" font-size="14.00" fill="#000000"> &#160;&#160;&#160;increaseApproval(_spender: address, _addedValue: uint): bool</text>
<text text-anchor="start" x="68.5735" y="-237.7" font-family="Times,serif" font-size="14.00" fill="#000000"> &#160;&#160;&#160;decreaseApproval(_spender: address, _subtractedValue: uint): bool</text>
</g>
<!-- 4&#45;&gt;2 -->
<g id="edge5" class="edge">
<title>4&#45;&gt;2</title>
<path fill="none" stroke="#000000" d="M249.2497,-455.2762C248.9528,-457.5635 248.6551,-459.857 248.3569,-462.1537"/>
<polygon fill="none" stroke="#000000" points="237.9392,-460.8414 244.4896,-491.9436 258.7645,-463.545 237.9392,-460.8414"/>
</g>
<!-- 4&#45;&gt;3 -->
<g id="edge4" class="edge">
<title>4&#45;&gt;3</title>
<path fill="none" stroke="#000000" d="M419.4696,-455.2762C439.8002,-470.042 460.4853,-485.0653 480.409,-499.5356"/>
<polygon fill="none" stroke="#000000" points="474.2606,-508.0473 504.7045,-517.1811 486.6013,-491.0558 474.2606,-508.0473"/>
</g>
<!-- 5 -->
<g id="node6" class="node">
<title>5</title>
<polygon fill="#f2f2f2" stroke="#000000" points="78.4494,-.5 78.4494,-192.5 449.383,-192.5 449.383,-.5 78.4494,-.5"/>
<text text-anchor="middle" x="263.9162" y="-175.9" font-family="Times,serif" font-size="14.00" fill="#000000">LRC_v2</text>
<polyline fill="none" stroke="#000000" points="78.4494,-167.7 449.383,-167.7 "/>
<text text-anchor="start" x="86.4494" y="-151.1" font-family="Times,serif" font-size="14.00" fill="#000000">Public:</text>
<text text-anchor="start" x="86.4494" y="-134.3" font-family="Times,serif" font-size="14.00" fill="#000000"> &#160;&#160;name: string</text>
<text text-anchor="start" x="86.4494" y="-117.5" font-family="Times,serif" font-size="14.00" fill="#000000"> &#160;&#160;symbol: string</text>
<text text-anchor="start" x="86.4494" y="-100.7" font-family="Times,serif" font-size="14.00" fill="#000000"> &#160;&#160;decimals: uint8</text>
<polyline fill="none" stroke="#000000" points="78.4494,-92.5 449.383,-92.5 "/>
<text text-anchor="start" x="86.4494" y="-75.9" font-family="Times,serif" font-size="14.00" fill="#000000">External:</text>
<text text-anchor="start" x="86.4494" y="-59.1" font-family="Times,serif" font-size="14.00" fill="#000000"> &#160;&#160;&#160;batchTransfer(accounts: address[], amounts: uint256[]): bool</text>
<text text-anchor="start" x="86.4494" y="-42.3" font-family="Times,serif" font-size="14.00" fill="#000000">Public:</text>
<text text-anchor="start" x="86.4494" y="-25.5" font-family="Times,serif" font-size="14.00" fill="#000000"> &#160;&#160;&#160;&lt;&lt;fallback&gt;&gt; ()</text>
<text text-anchor="start" x="86.4494" y="-8.7" font-family="Times,serif" font-size="14.00" fill="#000000"> &#160;&#160;&#160;constructor()</text>
</g>
<!-- 5&#45;&gt;1 -->
<g id="edge7" class="edge">
<title>5&#45;&gt;1</title>
<path fill="none" stroke="#000000" stroke-dasharray="5,2" d="M79.1852,-192.5412C68.5935,-203.583 59.2803,-215.7133 51.9162,-229 -37.5199,-390.3649 27.4534,-614.0102 75.9733,-736.4908"/>
<polygon fill="#000000" stroke="#000000" points="72.7578,-737.8762 79.7289,-745.8546 79.2547,-735.2704 72.7578,-737.8762"/>
</g>
<!-- 5&#45;&gt;4 -->
<g id="edge6" class="edge">
<title>5&#45;&gt;4</title>
<path fill="none" stroke="#000000" d="M263.9162,-192.5888C263.9162,-194.7421 263.9162,-196.9069 263.9162,-199.0805"/>
<polygon fill="none" stroke="#000000" points="253.4163,-199.1259 263.9162,-229.1259 274.4163,-199.1259 253.4163,-199.1259"/>
</g>
</g>
</svg>
