<?xml version="1.0" encoding="UTF-8" standalone="no"?>
<!DOCTYPE svg PUBLIC "-//W3C//DTD SVG 1.1//EN"
 "http://www.w3.org/Graphics/SVG/1.1/DTD/svg11.dtd">
<!-- Generated by graphviz version 2.40.1 (20161225.0304)
 -->
<!-- Title: UmlClassDiagram Pages: 1 -->
<svg width="1222pt" height="1564pt"
 viewBox="0.00 0.00 1221.89 1564.40" xmlns="http://www.w3.org/2000/svg" xmlns:xlink="http://www.w3.org/1999/xlink">
<g id="graph0" class="graph" transform="scale(1 1) rotate(0) translate(4 1560.4)">
<title>UmlClassDiagram</title>
<polygon fill="#ffffff" stroke="transparent" points="-4,4 -4,-1560.4 1217.8897,-1560.4 1217.8897,4 -4,4"/>
<!-- 5 -->
<g id="node1" class="node">
<title>5</title>
<polygon fill="#f2f2f2" stroke="#000000" points="193.0626,-1118.1 193.0626,-1276.5 601.4014,-1276.5 601.4014,-1118.1 193.0626,-1118.1"/>
<text text-anchor="middle" x="397.232" y="-1259.9" font-family="Times,serif" font-size="14.00" fill="#000000">&lt;&lt;Abstract&gt;&gt;</text>
<text text-anchor="middle" x="397.232" y="-1243.1" font-family="Times,serif" font-size="14.00" fill="#000000">ERC20</text>
<polyline fill="none" stroke="#000000" points="193.0626,-1234.9 601.4014,-1234.9 "/>
<text text-anchor="middle" x="397.232" y="-1218.3" font-family="Times,serif" font-size="14.00" fill="#000000"> </text>
<polyline fill="none" stroke="#000000" points="193.0626,-1210.1 601.4014,-1210.1 "/>
<text text-anchor="start" x="201.0626" y="-1193.5" font-family="Times,serif" font-size="14.00" fill="#000000">Public:</text>
<text text-anchor="start" x="201.0626" y="-1176.7" font-family="Times,serif" font-size="14.00" fill="#000000"> &#160;&#160;&#160;&lt;&lt;abstract&gt;&gt; allowance(owner: address, spender: address): uint</text>
<text text-anchor="start" x="201.0626" y="-1159.9" font-family="Times,serif" font-size="14.00" fill="#000000"> &#160;&#160;&#160;&lt;&lt;abstract&gt;&gt; transferFrom(from: address, to: address, value: uint)</text>
<text text-anchor="start" x="201.0626" y="-1143.1" font-family="Times,serif" font-size="14.00" fill="#000000"> &#160;&#160;&#160;&lt;&lt;abstract&gt;&gt; approve(spender: address, value: uint)</text>
<text text-anchor="start" x="201.0626" y="-1126.3" font-family="Times,serif" font-size="14.00" fill="#000000"> &#160;&#160;&#160;&lt;&lt;event&gt;&gt; Approval(owner: address, spender: address, value: uint)</text>
</g>
<!-- 4 -->
<g id="node5" class="node">
<title>4</title>
<polygon fill="#f2f2f2" stroke="#000000" points="405.0016,-1355.5 405.0016,-1513.9 767.4624,-1513.9 767.4624,-1355.5 405.0016,-1355.5"/>
<text text-anchor="middle" x="586.232" y="-1497.3" font-family="Times,serif" font-size="14.00" fill="#000000">&lt;&lt;Abstract&gt;&gt;</text>
<text text-anchor="middle" x="586.232" y="-1480.5" font-family="Times,serif" font-size="14.00" fill="#000000">ERC20Basic</text>
<polyline fill="none" stroke="#000000" points="405.0016,-1472.3 767.4624,-1472.3 "/>
<text text-anchor="start" x="413.0016" y="-1455.7" font-family="Times,serif" font-size="14.00" fill="#000000">Public:</text>
<text text-anchor="start" x="413.0016" y="-1438.9" font-family="Times,serif" font-size="14.00" fill="#000000"> &#160;&#160;totalSupply: uint</text>
<polyline fill="none" stroke="#000000" points="405.0016,-1430.7 767.4624,-1430.7 "/>
<text text-anchor="start" x="413.0016" y="-1414.1" font-family="Times,serif" font-size="14.00" fill="#000000">Public:</text>
<text text-anchor="start" x="413.0016" y="-1397.3" font-family="Times,serif" font-size="14.00" fill="#000000"> &#160;&#160;&#160;&lt;&lt;abstract&gt;&gt; balanceOf(who: address): uint</text>
<text text-anchor="start" x="413.0016" y="-1380.5" font-family="Times,serif" font-size="14.00" fill="#000000"> &#160;&#160;&#160;&lt;&lt;abstract&gt;&gt; transfer(to: address, value: uint)</text>
<text text-anchor="start" x="413.0016" y="-1363.7" font-family="Times,serif" font-size="14.00" fill="#000000"> &#160;&#160;&#160;&lt;&lt;event&gt;&gt; Transfer(from: address, to: address, value: uint)</text>
</g>
<!-- 5&#45;&gt;4 -->
<g id="edge1" class="edge">
<title>5&#45;&gt;4</title>
<path fill="none" stroke="#000000" d="M460.429,-1276.6808C474.4567,-1294.3008 489.5218,-1313.2238 504.1802,-1331.636"/>
<polygon fill="none" stroke="#000000" points="496.1945,-1338.4635 523.0945,-1355.394 512.6238,-1325.3837 496.1945,-1338.4635"/>
</g>
<!-- 0 -->
<g id="node2" class="node">
<title>0</title>
<polygon fill="#f2f2f2" stroke="#000000" points="287.0969,-939.5 287.0969,-1081.1 541.3671,-1081.1 541.3671,-939.5 287.0969,-939.5"/>
<text text-anchor="middle" x="414.232" y="-1064.5" font-family="Times,serif" font-size="14.00" fill="#000000">Ownable</text>
<polyline fill="none" stroke="#000000" points="287.0969,-1056.3 541.3671,-1056.3 "/>
<text text-anchor="start" x="295.0969" y="-1039.7" font-family="Times,serif" font-size="14.00" fill="#000000">Public:</text>
<text text-anchor="start" x="295.0969" y="-1022.9" font-family="Times,serif" font-size="14.00" fill="#000000"> &#160;&#160;owner: address</text>
<polyline fill="none" stroke="#000000" points="287.0969,-1014.7 541.3671,-1014.7 "/>
<text text-anchor="start" x="295.0969" y="-998.1" font-family="Times,serif" font-size="14.00" fill="#000000">Public:</text>
<text text-anchor="start" x="295.0969" y="-981.3" font-family="Times,serif" font-size="14.00" fill="#000000"> &#160;&#160;&#160;&lt;&lt;modifier&gt;&gt; onlyOwner()</text>
<text text-anchor="start" x="295.0969" y="-964.5" font-family="Times,serif" font-size="14.00" fill="#000000"> &#160;&#160;&#160;constructor()</text>
<text text-anchor="start" x="295.0969" y="-947.7" font-family="Times,serif" font-size="14.00" fill="#000000"> &#160;&#160;&#160;transferOwnership(newOwner: address)</text>
</g>
<!-- 2 -->
<g id="node3" class="node">
<title>2</title>
<polygon fill="#f2f2f2" stroke="#000000" points="36.4224,-727.3 36.4224,-885.7 458.0416,-885.7 458.0416,-727.3 36.4224,-727.3"/>
<text text-anchor="middle" x="247.232" y="-869.1" font-family="Times,serif" font-size="14.00" fill="#000000">ExchangeRate</text>
<polyline fill="none" stroke="#000000" points="36.4224,-860.9 458.0416,-860.9 "/>
<text text-anchor="start" x="44.4224" y="-844.3" font-family="Times,serif" font-size="14.00" fill="#000000">Public:</text>
<text text-anchor="start" x="44.4224" y="-827.5" font-family="Times,serif" font-size="14.00" fill="#000000"> &#160;&#160;rates: mapping(bytes32=&gt;uint)</text>
<polyline fill="none" stroke="#000000" points="36.4224,-819.3 458.0416,-819.3 "/>
<text text-anchor="start" x="44.4224" y="-802.7" font-family="Times,serif" font-size="14.00" fill="#000000">Public:</text>
<text text-anchor="start" x="44.4224" y="-785.9" font-family="Times,serif" font-size="14.00" fill="#000000"> &#160;&#160;&#160;&lt;&lt;event&gt;&gt; RateUpdated(timestamp: uint, symbol: bytes32, rate: uint)</text>
<text text-anchor="start" x="44.4224" y="-769.1" font-family="Times,serif" font-size="14.00" fill="#000000"> &#160;&#160;&#160;updateRate(_symbol: string, _rate: uint)</text>
<text text-anchor="start" x="44.4224" y="-752.3" font-family="Times,serif" font-size="14.00" fill="#000000"> &#160;&#160;&#160;updateRates(data: uint[])</text>
<text text-anchor="start" x="44.4224" y="-735.5" font-family="Times,serif" font-size="14.00" fill="#000000"> &#160;&#160;&#160;getRate(_symbol: string): uint</text>
</g>
<!-- 2&#45;&gt;0 -->
<g id="edge2" class="edge">
<title>2&#45;&gt;0</title>
<path fill="none" stroke="#000000" d="M312.2767,-885.878C320.4162,-895.8111 328.802,-906.0447 337.1033,-916.1753"/>
<polygon fill="none" stroke="#000000" points="329.028,-922.8869 356.1641,-939.4363 345.2711,-909.5767 329.028,-922.8869"/>
</g>
<!-- 3 -->
<g id="node4" class="node">
<title>3</title>
<polygon fill="#f2f2f2" stroke="#000000" points="802.6538,-1313.5 802.6538,-1555.9 1057.8102,-1555.9 1057.8102,-1313.5 802.6538,-1313.5"/>
<text text-anchor="middle" x="930.232" y="-1539.3" font-family="Times,serif" font-size="14.00" fill="#000000">&lt;&lt;Library&gt;&gt;</text>
<text text-anchor="middle" x="930.232" y="-1522.5" font-family="Times,serif" font-size="14.00" fill="#000000">SafeMath</text>
<polyline fill="none" stroke="#000000" points="802.6538,-1514.3 1057.8102,-1514.3 "/>
<text text-anchor="middle" x="930.232" y="-1497.7" font-family="Times,serif" font-size="14.00" fill="#000000"> </text>
<polyline fill="none" stroke="#000000" points="802.6538,-1489.5 1057.8102,-1489.5 "/>
<text text-anchor="start" x="810.6538" y="-1472.9" font-family="Times,serif" font-size="14.00" fill="#000000">Internal:</text>
<text text-anchor="start" x="810.6538" y="-1456.1" font-family="Times,serif" font-size="14.00" fill="#000000"> &#160;&#160;&#160;mul(a: uint, b: uint): uint</text>
<text text-anchor="start" x="810.6538" y="-1439.3" font-family="Times,serif" font-size="14.00" fill="#000000"> &#160;&#160;&#160;div(a: uint, b: uint): uint</text>
<text text-anchor="start" x="810.6538" y="-1422.5" font-family="Times,serif" font-size="14.00" fill="#000000"> &#160;&#160;&#160;sub(a: uint, b: uint): uint</text>
<text text-anchor="start" x="810.6538" y="-1405.7" font-family="Times,serif" font-size="14.00" fill="#000000"> &#160;&#160;&#160;add(a: uint, b: uint): uint</text>
<text text-anchor="start" x="810.6538" y="-1388.9" font-family="Times,serif" font-size="14.00" fill="#000000"> &#160;&#160;&#160;max64(a: uint64, b: uint64): uint64</text>
<text text-anchor="start" x="810.6538" y="-1372.1" font-family="Times,serif" font-size="14.00" fill="#000000"> &#160;&#160;&#160;min64(a: uint64, b: uint64): uint64</text>
<text text-anchor="start" x="810.6538" y="-1355.3" font-family="Times,serif" font-size="14.00" fill="#000000"> &#160;&#160;&#160;max256(a: uint256, b: uint256): uint256</text>
<text text-anchor="start" x="810.6538" y="-1338.5" font-family="Times,serif" font-size="14.00" fill="#000000"> &#160;&#160;&#160;min256(a: uint256, b: uint256): uint256</text>
<text text-anchor="start" x="810.6538" y="-1321.7" font-family="Times,serif" font-size="14.00" fill="#000000"> &#160;&#160;&#160;assert(assertion: bool)</text>
</g>
<!-- 1 -->
<g id="node6" class="node">
<title>1</title>
<polygon fill="#f2f2f2" stroke="#000000" points="876.1183,-464.7 876.1183,-673.5 1160.3457,-673.5 1160.3457,-464.7 876.1183,-464.7"/>
<text text-anchor="middle" x="1018.232" y="-656.9" font-family="Times,serif" font-size="14.00" fill="#000000">Authorizable</text>
<polyline fill="none" stroke="#000000" points="876.1183,-648.7 1160.3457,-648.7 "/>
<text text-anchor="start" x="884.1183" y="-632.1" font-family="Times,serif" font-size="14.00" fill="#000000">Public:</text>
<text text-anchor="start" x="884.1183" y="-615.3" font-family="Times,serif" font-size="14.00" fill="#000000"> &#160;&#160;authorizers: address[]</text>
<text text-anchor="start" x="884.1183" y="-598.5" font-family="Times,serif" font-size="14.00" fill="#000000"> &#160;&#160;authorizerIndex: mapping(address=&gt;uint)</text>
<polyline fill="none" stroke="#000000" points="876.1183,-590.3 1160.3457,-590.3 "/>
<text text-anchor="start" x="884.1183" y="-573.7" font-family="Times,serif" font-size="14.00" fill="#000000">External:</text>
<text text-anchor="start" x="884.1183" y="-556.9" font-family="Times,serif" font-size="14.00" fill="#000000"> &#160;&#160;&#160;getAuthorizer(authorizerIndex: uint): address</text>
<text text-anchor="start" x="884.1183" y="-540.1" font-family="Times,serif" font-size="14.00" fill="#000000"> &#160;&#160;&#160;addAuthorized(_addr: address)</text>
<text text-anchor="start" x="884.1183" y="-523.3" font-family="Times,serif" font-size="14.00" fill="#000000">Public:</text>
<text text-anchor="start" x="884.1183" y="-506.5" font-family="Times,serif" font-size="14.00" fill="#000000"> &#160;&#160;&#160;&lt;&lt;modifier&gt;&gt; onlyAuthorized()</text>
<text text-anchor="start" x="884.1183" y="-489.7" font-family="Times,serif" font-size="14.00" fill="#000000"> &#160;&#160;&#160;constructor()</text>
<text text-anchor="start" x="884.1183" y="-472.9" font-family="Times,serif" font-size="14.00" fill="#000000"> &#160;&#160;&#160;isAuthorized(_addr: address): bool</text>
</g>
<!-- 6 -->
<g id="node7" class="node">
<title>6</title>
<polygon fill="#f2f2f2" stroke="#000000" points="619.8213,-1126.5 619.8213,-1268.1 896.6427,-1268.1 896.6427,-1126.5 619.8213,-1126.5"/>
<text text-anchor="middle" x="758.232" y="-1251.5" font-family="Times,serif" font-size="14.00" fill="#000000">BasicToken</text>
<polyline fill="none" stroke="#000000" points="619.8213,-1243.3 896.6427,-1243.3 "/>
<text text-anchor="start" x="627.8213" y="-1226.7" font-family="Times,serif" font-size="14.00" fill="#000000">Public:</text>
<text text-anchor="start" x="627.8213" y="-1209.9" font-family="Times,serif" font-size="14.00" fill="#000000"> &#160;&#160;balances: mapping(address=&gt;uint)</text>
<polyline fill="none" stroke="#000000" points="619.8213,-1201.7 896.6427,-1201.7 "/>
<text text-anchor="start" x="627.8213" y="-1185.1" font-family="Times,serif" font-size="14.00" fill="#000000">Public:</text>
<text text-anchor="start" x="627.8213" y="-1168.3" font-family="Times,serif" font-size="14.00" fill="#000000"> &#160;&#160;&#160;&lt;&lt;modifier&gt;&gt; onlyPayloadSize(size: uint)</text>
<text text-anchor="start" x="627.8213" y="-1151.5" font-family="Times,serif" font-size="14.00" fill="#000000"> &#160;&#160;&#160;transfer(_to: address, _value: uint)</text>
<text text-anchor="start" x="627.8213" y="-1134.7" font-family="Times,serif" font-size="14.00" fill="#000000"> &#160;&#160;&#160;balanceOf(_owner: address): (balance: uint)</text>
</g>
<!-- 6&#45;&gt;3 -->
<g id="edge4" class="edge">
<title>6&#45;&gt;3</title>
<path fill="none" stroke="#000000" stroke-dasharray="5,2" d="M809.6047,-1268.2063C818.0497,-1279.8624 827.0295,-1292.2566 836.1315,-1304.8194"/>
<polygon fill="#000000" stroke="#000000" points="833.4245,-1307.0488 842.126,-1313.0933 839.0931,-1302.9418 833.4245,-1307.0488"/>
</g>
<!-- 6&#45;&gt;4 -->
<g id="edge3" class="edge">
<title>6&#45;&gt;4</title>
<path fill="none" stroke="#000000" d="M706.8593,-1268.2063C692.5584,-1287.9448 676.7239,-1309.8001 661.3599,-1331.006"/>
<polygon fill="none" stroke="#000000" points="652.7585,-1324.9815 643.66,-1355.4359 669.7643,-1337.3024 652.7585,-1324.9815"/>
</g>
<!-- 7 -->
<g id="node8" class="node">
<title>7</title>
<polygon fill="#f2f2f2" stroke="#000000" points="559.748,-939.5 559.748,-1081.1 956.716,-1081.1 956.716,-939.5 559.748,-939.5"/>
<text text-anchor="middle" x="758.232" y="-1064.5" font-family="Times,serif" font-size="14.00" fill="#000000">StandardToken</text>
<polyline fill="none" stroke="#000000" points="559.748,-1056.3 956.716,-1056.3 "/>
<text text-anchor="start" x="567.748" y="-1039.7" font-family="Times,serif" font-size="14.00" fill="#000000">Public:</text>
<text text-anchor="start" x="567.748" y="-1022.9" font-family="Times,serif" font-size="14.00" fill="#000000"> &#160;&#160;allowed: mapping(address=&gt;mapping(address=&gt;uint))</text>
<polyline fill="none" stroke="#000000" points="559.748,-1014.7 956.716,-1014.7 "/>
<text text-anchor="start" x="567.748" y="-998.1" font-family="Times,serif" font-size="14.00" fill="#000000">Public:</text>
<text text-anchor="start" x="567.748" y="-981.3" font-family="Times,serif" font-size="14.00" fill="#000000"> &#160;&#160;&#160;transferFrom(_from: address, _to: address, _value: uint)</text>
<text text-anchor="start" x="567.748" y="-964.5" font-family="Times,serif" font-size="14.00" fill="#000000"> &#160;&#160;&#160;approve(_spender: address, _value: uint)</text>
<text text-anchor="start" x="567.748" y="-947.7" font-family="Times,serif" font-size="14.00" fill="#000000"> &#160;&#160;&#160;allowance(_owner: address, _spender: address): (remaining: uint)</text>
</g>
<!-- 7&#45;&gt;5 -->
<g id="edge6" class="edge">
<title>7&#45;&gt;5</title>
<path fill="none" stroke="#000000" d="M621.496,-1081.13C606.9653,-1088.657 592.0319,-1096.3926 577.1042,-1104.1252"/>
<polygon fill="none" stroke="#000000" points="572.1374,-1094.8729 550.3287,-1117.995 581.7965,-1113.5196 572.1374,-1094.8729"/>
</g>
<!-- 7&#45;&gt;6 -->
<g id="edge5" class="edge">
<title>7&#45;&gt;6</title>
<path fill="none" stroke="#000000" d="M758.232,-1081.2633C758.232,-1086.2268 758.232,-1091.2804 758.232,-1096.3635"/>
<polygon fill="none" stroke="#000000" points="747.7321,-1096.3851 758.232,-1126.3851 768.7321,-1096.3852 747.7321,-1096.3851"/>
</g>
<!-- 8 -->
<g id="node9" class="node">
<title>8</title>
<polygon fill="#f2f2f2" stroke="#000000" points="556.8835,-710.5 556.8835,-902.5 815.5805,-902.5 815.5805,-710.5 556.8835,-710.5"/>
<text text-anchor="middle" x="686.232" y="-885.9" font-family="Times,serif" font-size="14.00" fill="#000000">MintableToken</text>
<polyline fill="none" stroke="#000000" points="556.8835,-877.7 815.5805,-877.7 "/>
<text text-anchor="start" x="564.8835" y="-861.1" font-family="Times,serif" font-size="14.00" fill="#000000">Public:</text>
<text text-anchor="start" x="564.8835" y="-844.3" font-family="Times,serif" font-size="14.00" fill="#000000"> &#160;&#160;mintingFinished: bool</text>
<text text-anchor="start" x="564.8835" y="-827.5" font-family="Times,serif" font-size="14.00" fill="#000000"> &#160;&#160;totalSupply: uint</text>
<polyline fill="none" stroke="#000000" points="556.8835,-819.3 815.5805,-819.3 "/>
<text text-anchor="start" x="564.8835" y="-802.7" font-family="Times,serif" font-size="14.00" fill="#000000">Public:</text>
<text text-anchor="start" x="564.8835" y="-785.9" font-family="Times,serif" font-size="14.00" fill="#000000"> &#160;&#160;&#160;&lt;&lt;event&gt;&gt; Mint(to: address, value: uint)</text>
<text text-anchor="start" x="564.8835" y="-769.1" font-family="Times,serif" font-size="14.00" fill="#000000"> &#160;&#160;&#160;&lt;&lt;event&gt;&gt; MintFinished()</text>
<text text-anchor="start" x="564.8835" y="-752.3" font-family="Times,serif" font-size="14.00" fill="#000000"> &#160;&#160;&#160;&lt;&lt;modifier&gt;&gt; canMint()</text>
<text text-anchor="start" x="564.8835" y="-735.5" font-family="Times,serif" font-size="14.00" fill="#000000"> &#160;&#160;&#160;mint(_to: address, _amount: uint): bool</text>
<text text-anchor="start" x="564.8835" y="-718.7" font-family="Times,serif" font-size="14.00" fill="#000000"> &#160;&#160;&#160;finishMinting(): bool</text>
</g>
<!-- 8&#45;&gt;0 -->
<g id="edge8" class="edge">
<title>8&#45;&gt;0</title>
<path fill="none" stroke="#000000" d="M557.7988,-902.7304C549.5457,-908.9142 541.2554,-915.1259 533.0498,-921.274"/>
<polygon fill="none" stroke="#000000" points="526.522,-913.0446 508.8096,-939.4363 539.1142,-929.8505 526.522,-913.0446"/>
</g>
<!-- 8&#45;&gt;7 -->
<g id="edge7" class="edge">
<title>8&#45;&gt;7</title>
<path fill="none" stroke="#000000" d="M720.229,-902.7304C721.2189,-905.5324 722.2108,-908.3402 723.2018,-911.1452"/>
<polygon fill="none" stroke="#000000" points="713.303,-914.6474 733.1967,-939.4363 733.1037,-907.652 713.303,-914.6474"/>
</g>
<!-- 9 -->
<g id="node10" class="node">
<title>9</title>
<polygon fill="#f2f2f2" stroke="#000000" points="514.3648,-464.7 514.3648,-673.5 858.0992,-673.5 858.0992,-464.7 514.3648,-464.7"/>
<text text-anchor="middle" x="686.232" y="-656.9" font-family="Times,serif" font-size="14.00" fill="#000000">PayToken</text>
<polyline fill="none" stroke="#000000" points="514.3648,-648.7 858.0992,-648.7 "/>
<text text-anchor="start" x="522.3648" y="-632.1" font-family="Times,serif" font-size="14.00" fill="#000000">Public:</text>
<text text-anchor="start" x="522.3648" y="-615.3" font-family="Times,serif" font-size="14.00" fill="#000000"> &#160;&#160;name: string</text>
<text text-anchor="start" x="522.3648" y="-598.5" font-family="Times,serif" font-size="14.00" fill="#000000"> &#160;&#160;symbol: string</text>
<text text-anchor="start" x="522.3648" y="-581.7" font-family="Times,serif" font-size="14.00" fill="#000000"> &#160;&#160;decimals: uint</text>
<text text-anchor="start" x="522.3648" y="-564.9" font-family="Times,serif" font-size="14.00" fill="#000000"> &#160;&#160;tradingStarted: bool</text>
<polyline fill="none" stroke="#000000" points="514.3648,-556.7 858.0992,-556.7 "/>
<text text-anchor="start" x="522.3648" y="-540.1" font-family="Times,serif" font-size="14.00" fill="#000000">Public:</text>
<text text-anchor="start" x="522.3648" y="-523.3" font-family="Times,serif" font-size="14.00" fill="#000000"> &#160;&#160;&#160;&lt;&lt;modifier&gt;&gt; hasStartedTrading()</text>
<text text-anchor="start" x="522.3648" y="-506.5" font-family="Times,serif" font-size="14.00" fill="#000000"> &#160;&#160;&#160;startTrading()</text>
<text text-anchor="start" x="522.3648" y="-489.7" font-family="Times,serif" font-size="14.00" fill="#000000"> &#160;&#160;&#160;transfer(_to: address, _value: uint)</text>
<text text-anchor="start" x="522.3648" y="-472.9" font-family="Times,serif" font-size="14.00" fill="#000000"> &#160;&#160;&#160;transferFrom(_from: address, _to: address, _value: uint)</text>
</g>
<!-- 9&#45;&gt;8 -->
<g id="edge9" class="edge">
<title>9&#45;&gt;8</title>
<path fill="none" stroke="#000000" d="M686.232,-673.5726C686.232,-675.7631 686.232,-677.9603 686.232,-680.1609"/>
<polygon fill="none" stroke="#000000" points="675.7321,-680.2304 686.232,-710.2304 696.7321,-680.2305 675.7321,-680.2304"/>
</g>
<!-- 10 -->
<g id="node11" class="node">
<title>10</title>
<polygon fill="#f2f2f2" stroke="#000000" points="289.7088,-.5 289.7088,-427.7 882.7552,-427.7 882.7552,-.5 289.7088,-.5"/>
<text text-anchor="middle" x="586.232" y="-411.1" font-family="Times,serif" font-size="14.00" fill="#000000">MainSale</text>
<polyline fill="none" stroke="#000000" points="289.7088,-402.9 882.7552,-402.9 "/>
<text text-anchor="start" x="297.7088" y="-386.3" font-family="Times,serif" font-size="14.00" fill="#000000">Public:</text>
<text text-anchor="start" x="297.7088" y="-369.5" font-family="Times,serif" font-size="14.00" fill="#000000"> &#160;&#160;token: PayToken</text>
<text text-anchor="start" x="297.7088" y="-352.7" font-family="Times,serif" font-size="14.00" fill="#000000"> &#160;&#160;multisigVault: address</text>
<text text-anchor="start" x="297.7088" y="-335.9" font-family="Times,serif" font-size="14.00" fill="#000000"> &#160;&#160;hardcap: uint</text>
<text text-anchor="start" x="297.7088" y="-319.1" font-family="Times,serif" font-size="14.00" fill="#000000"> &#160;&#160;exchangeRate: ExchangeRate</text>
<text text-anchor="start" x="297.7088" y="-302.3" font-family="Times,serif" font-size="14.00" fill="#000000"> &#160;&#160;altDeposits: uint</text>
<text text-anchor="start" x="297.7088" y="-285.5" font-family="Times,serif" font-size="14.00" fill="#000000"> &#160;&#160;start: uint</text>
<polyline fill="none" stroke="#000000" points="289.7088,-277.3 882.7552,-277.3 "/>
<text text-anchor="start" x="297.7088" y="-260.7" font-family="Times,serif" font-size="14.00" fill="#000000">Public:</text>
<text text-anchor="start" x="297.7088" y="-243.9" font-family="Times,serif" font-size="14.00" fill="#000000"> &#160;&#160;&#160;&lt;&lt;fallback&gt;&gt; ()</text>
<text text-anchor="start" x="297.7088" y="-227.1" font-family="Times,serif" font-size="14.00" fill="#000000"> &#160;&#160;&#160;&lt;&lt;payable&gt;&gt; createTokens(recipient: address)</text>
<text text-anchor="start" x="297.7088" y="-210.3" font-family="Times,serif" font-size="14.00" fill="#000000"> &#160;&#160;&#160;&lt;&lt;event&gt;&gt; MainSaleClosed()</text>
<text text-anchor="start" x="297.7088" y="-193.5" font-family="Times,serif" font-size="14.00" fill="#000000"> &#160;&#160;&#160;&lt;&lt;event&gt;&gt; AuthorizedCreate(recipient: address, pay_amount: uint)</text>
<text text-anchor="start" x="297.7088" y="-176.7" font-family="Times,serif" font-size="14.00" fill="#000000"> &#160;&#160;&#160;&lt;&lt;event&gt;&gt; TokenSold(recipient: address, ether_amount: uint, pay_amount: uint, exchangerate: uint)</text>
<text text-anchor="start" x="297.7088" y="-159.9" font-family="Times,serif" font-size="14.00" fill="#000000"> &#160;&#160;&#160;&lt;&lt;modifier&gt;&gt; isUnderHardCap()</text>
<text text-anchor="start" x="297.7088" y="-143.1" font-family="Times,serif" font-size="14.00" fill="#000000"> &#160;&#160;&#160;&lt;&lt;modifier&gt;&gt; saleIsOn()</text>
<text text-anchor="start" x="297.7088" y="-126.3" font-family="Times,serif" font-size="14.00" fill="#000000"> &#160;&#160;&#160;setAltDeposit(totalAltDeposits: uint)</text>
<text text-anchor="start" x="297.7088" y="-109.5" font-family="Times,serif" font-size="14.00" fill="#000000"> &#160;&#160;&#160;setHardCap(_hardcap: uint)</text>
<text text-anchor="start" x="297.7088" y="-92.7" font-family="Times,serif" font-size="14.00" fill="#000000"> &#160;&#160;&#160;setStart(_start: uint)</text>
<text text-anchor="start" x="297.7088" y="-75.9" font-family="Times,serif" font-size="14.00" fill="#000000"> &#160;&#160;&#160;setMultisigVault(_multisigVault: address)</text>
<text text-anchor="start" x="297.7088" y="-59.1" font-family="Times,serif" font-size="14.00" fill="#000000"> &#160;&#160;&#160;setExchangeRate(_exchangeRate: address)</text>
<text text-anchor="start" x="297.7088" y="-42.3" font-family="Times,serif" font-size="14.00" fill="#000000"> &#160;&#160;&#160;finishMinting()</text>
<text text-anchor="start" x="297.7088" y="-25.5" font-family="Times,serif" font-size="14.00" fill="#000000"> &#160;&#160;&#160;retrieveTokens(_token: address)</text>
<text text-anchor="start" x="297.7088" y="-8.7" font-family="Times,serif" font-size="14.00" fill="#000000"> &#160;&#160;&#160;authorizedCreateTokens(recipient: address, tokens: uint)</text>
</g>
<!-- 10&#45;&gt;5 -->
<g id="edge15" class="edge">
<title>10&#45;&gt;5</title>
<path fill="none" stroke="#000000" stroke-dasharray="5,2" d="M289.4099,-399.3633C186.4314,-480.7703 82.897,-586.2066 27.232,-710 -7.9461,-788.2325 -10.0345,-825.7405 27.232,-903 70.2377,-992.158 154.8399,-1062.6271 232.3017,-1112.2285"/>
<polygon fill="#000000" stroke="#000000" points="230.9006,-1115.4836 241.2232,-1117.8702 234.642,-1109.5673 230.9006,-1115.4836"/>
</g>
<!-- 10&#45;&gt;0 -->
<g id="edge10" class="edge">
<title>10&#45;&gt;0</title>
<path fill="none" stroke="#000000" d="M513.5299,-427.7907C510.4562,-440.038 507.6551,-452.234 505.232,-464.2 466.3809,-656.058 519.9331,-714.4755 467.232,-903 466.4652,-905.7428 465.6287,-908.4994 464.732,-911.2606"/>
<polygon fill="none" stroke="#000000" points="454.9051,-907.5601 453.8299,-939.3263 474.4801,-915.164 454.9051,-907.5601"/>
</g>
<!-- 10&#45;&gt;2 -->
<g id="edge14" class="edge">
<title>10&#45;&gt;2</title>
<path fill="none" stroke="#000000" d="M463.8452,-427.97C406.6203,-527.9701 341.6129,-641.57 297.8703,-718.0099"/>
<polygon fill="#000000" stroke="#000000" points="294.5722,-716.7265 292.6432,-727.1443 300.6478,-720.2033 294.5722,-716.7265"/>
</g>
<!-- 10&#45;&gt;3 -->
<g id="edge12" class="edge">
<title>10&#45;&gt;3</title>
<path fill="none" stroke="#000000" stroke-dasharray="5,2" d="M882.8312,-272.4205C990.5854,-309.0851 1102.2264,-368.432 1169.232,-464.2 1256.581,-589.044 1188.232,-654.1325 1188.232,-806.5 1188.232,-806.5 1188.232,-806.5 1188.232,-1010.3 1188.232,-1120.7575 1123.6306,-1226.9375 1059.0799,-1305.4631"/>
<polygon fill="#000000" stroke="#000000" points="1056.1364,-1303.5286 1052.432,-1313.4548 1061.5179,-1308.0052 1056.1364,-1303.5286"/>
</g>
<!-- 10&#45;&gt;1 -->
<g id="edge11" class="edge">
<title>10&#45;&gt;1</title>
<path fill="none" stroke="#000000" d="M846.2528,-427.7746C853.4565,-433.6942 860.5919,-439.5578 867.6252,-445.3375"/>
<polygon fill="none" stroke="#000000" points="861.2509,-453.6898 891.0954,-464.6243 874.5837,-437.4652 861.2509,-453.6898"/>
</g>
<!-- 10&#45;&gt;9 -->
<g id="edge13" class="edge">
<title>10&#45;&gt;9</title>
<path fill="none" stroke="#000000" d="M646.422,-427.7746C649.0066,-436.95 651.5533,-445.9908 654.0328,-454.7931"/>
<polygon fill="#000000" stroke="#000000" points="650.7219,-455.9479 656.8022,-464.6243 657.4596,-454.0499 650.7219,-455.9479"/>
</g>
</g>
</svg>
