<?xml version="1.0" encoding="UTF-8" standalone="no"?>
<!DOCTYPE svg PUBLIC "-//W3C//DTD SVG 1.1//EN"
 "http://www.w3.org/Graphics/SVG/1.1/DTD/svg11.dtd">
<!-- Generated by graphviz version 2.40.1 (20161225.0304)
 -->
<!-- Title: UmlClassDiagram Pages: 1 -->
<svg width="1180pt" height="1340pt"
 viewBox="0.00 0.00 1179.75 1339.80" xmlns="http://www.w3.org/2000/svg" xmlns:xlink="http://www.w3.org/1999/xlink">
<g id="graph0" class="graph" transform="scale(1 1) rotate(0) translate(4 1335.8)">
<title>UmlClassDiagram</title>
<polygon fill="#ffffff" stroke="transparent" points="-4,4 -4,-1335.8 1175.7491,-1335.8 1175.7491,4 -4,4"/>
<!-- 0 -->
<g id="node1" class="node">
<title>0</title>
<polygon fill="#f2f2f2" stroke="#000000" points="0,-1172.9 0,-1331.3 484.874,-1331.3 484.874,-1172.9 0,-1172.9"/>
<text text-anchor="middle" x="242.437" y="-1314.7" font-family="Times,serif" font-size="14.00" fill="#000000">Ownable</text>
<polyline fill="none" stroke="#000000" points="0,-1306.5 484.874,-1306.5 "/>
<text text-anchor="start" x="8" y="-1289.9" font-family="Times,serif" font-size="14.00" fill="#000000">Public:</text>
<text text-anchor="start" x="8" y="-1273.1" font-family="Times,serif" font-size="14.00" fill="#000000"> &#160;&#160;owner: address</text>
<polyline fill="none" stroke="#000000" points="0,-1264.9 484.874,-1264.9 "/>
<text text-anchor="start" x="8" y="-1248.3" font-family="Times,serif" font-size="14.00" fill="#000000">Public:</text>
<text text-anchor="start" x="8" y="-1231.5" font-family="Times,serif" font-size="14.00" fill="#000000"> &#160;&#160;&#160;&lt;&lt;event&gt;&gt; OwnershipTransferred(previousOwner: address, newOwner: address)</text>
<text text-anchor="start" x="8" y="-1214.7" font-family="Times,serif" font-size="14.00" fill="#000000"> &#160;&#160;&#160;&lt;&lt;modifier&gt;&gt; onlyOwner()</text>
<text text-anchor="start" x="8" y="-1197.9" font-family="Times,serif" font-size="14.00" fill="#000000"> &#160;&#160;&#160;constructor()</text>
<text text-anchor="start" x="8" y="-1181.1" font-family="Times,serif" font-size="14.00" fill="#000000"> &#160;&#160;&#160;transferOwnership(newOwner: address)</text>
</g>
<!-- 1 -->
<g id="node2" class="node">
<title>1</title>
<polygon fill="#f2f2f2" stroke="#000000" points="752.7066,-1172.9 752.7066,-1331.3 1136.1674,-1331.3 1136.1674,-1172.9 752.7066,-1172.9"/>
<text text-anchor="middle" x="944.437" y="-1314.7" font-family="Times,serif" font-size="14.00" fill="#000000">&lt;&lt;Abstract&gt;&gt;</text>
<text text-anchor="middle" x="944.437" y="-1297.9" font-family="Times,serif" font-size="14.00" fill="#000000">ERC20Basic</text>
<polyline fill="none" stroke="#000000" points="752.7066,-1289.7 1136.1674,-1289.7 "/>
<text text-anchor="start" x="760.7066" y="-1273.1" font-family="Times,serif" font-size="14.00" fill="#000000">Public:</text>
<text text-anchor="start" x="760.7066" y="-1256.3" font-family="Times,serif" font-size="14.00" fill="#000000"> &#160;&#160;totalSupply: uint256</text>
<polyline fill="none" stroke="#000000" points="752.7066,-1248.1 1136.1674,-1248.1 "/>
<text text-anchor="start" x="760.7066" y="-1231.5" font-family="Times,serif" font-size="14.00" fill="#000000">Public:</text>
<text text-anchor="start" x="760.7066" y="-1214.7" font-family="Times,serif" font-size="14.00" fill="#000000"> &#160;&#160;&#160;&lt;&lt;abstract&gt;&gt; balanceOf(who: address): uint256</text>
<text text-anchor="start" x="760.7066" y="-1197.9" font-family="Times,serif" font-size="14.00" fill="#000000"> &#160;&#160;&#160;&lt;&lt;abstract&gt;&gt; transfer(to: address, value: uint256): bool</text>
<text text-anchor="start" x="760.7066" y="-1181.1" font-family="Times,serif" font-size="14.00" fill="#000000"> &#160;&#160;&#160;&lt;&lt;event&gt;&gt; Transfer(from: address, to: address, value: uint256)</text>
</g>
<!-- 2 -->
<g id="node3" class="node">
<title>2</title>
<polygon fill="#f2f2f2" stroke="#000000" points="401.5263,-960.7 401.5263,-1135.9 699.3477,-1135.9 699.3477,-960.7 401.5263,-960.7"/>
<text text-anchor="middle" x="550.437" y="-1119.3" font-family="Times,serif" font-size="14.00" fill="#000000">BasicToken</text>
<polyline fill="none" stroke="#000000" points="401.5263,-1111.1 699.3477,-1111.1 "/>
<text text-anchor="start" x="409.5263" y="-1094.5" font-family="Times,serif" font-size="14.00" fill="#000000">Public:</text>
<text text-anchor="start" x="409.5263" y="-1077.7" font-family="Times,serif" font-size="14.00" fill="#000000"> &#160;&#160;balances: mapping(address=&gt;uint256)</text>
<text text-anchor="start" x="409.5263" y="-1060.9" font-family="Times,serif" font-size="14.00" fill="#000000"> &#160;&#160;transfersEnabledFlag: bool</text>
<polyline fill="none" stroke="#000000" points="401.5263,-1052.7 699.3477,-1052.7 "/>
<text text-anchor="start" x="409.5263" y="-1036.1" font-family="Times,serif" font-size="14.00" fill="#000000">Public:</text>
<text text-anchor="start" x="409.5263" y="-1019.3" font-family="Times,serif" font-size="14.00" fill="#000000"> &#160;&#160;&#160;&lt;&lt;modifier&gt;&gt; transfersEnabled()</text>
<text text-anchor="start" x="409.5263" y="-1002.5" font-family="Times,serif" font-size="14.00" fill="#000000"> &#160;&#160;&#160;enableTransfers()</text>
<text text-anchor="start" x="409.5263" y="-985.7" font-family="Times,serif" font-size="14.00" fill="#000000"> &#160;&#160;&#160;transfer(_to: address, _value: uint256): bool</text>
<text text-anchor="start" x="409.5263" y="-968.9" font-family="Times,serif" font-size="14.00" fill="#000000"> &#160;&#160;&#160;balanceOf(_owner: address): (balance: uint256)</text>
</g>
<!-- 2&#45;&gt;0 -->
<g id="edge2" class="edge">
<title>2&#45;&gt;0</title>
<path fill="none" stroke="#000000" d="M418.0298,-1135.9123C407.9542,-1142.5792 397.7528,-1149.3294 387.6027,-1156.0455"/>
<polygon fill="none" stroke="#000000" points="381.8038,-1147.2921 362.579,-1172.6034 393.3921,-1164.8053 381.8038,-1147.2921"/>
</g>
<!-- 2&#45;&gt;1 -->
<g id="edge1" class="edge">
<title>2&#45;&gt;1</title>
<path fill="none" stroke="#000000" d="M699.6008,-1131.7481C702.5676,-1133.3185 705.5154,-1134.8706 708.437,-1136.4 722.7761,-1143.9059 737.6721,-1151.5529 752.6954,-1159.1579"/>
<polygon fill="none" stroke="#000000" points="748.2608,-1168.6805 779.7821,-1172.7617 757.6858,-1149.9143 748.2608,-1168.6805"/>
</g>
<!-- 3 -->
<g id="node4" class="node">
<title>3</title>
<polygon fill="#f2f2f2" stroke="#000000" points="502.5208,-1172.9 502.5208,-1331.3 734.3532,-1331.3 734.3532,-1172.9 502.5208,-1172.9"/>
<text text-anchor="middle" x="618.437" y="-1314.7" font-family="Times,serif" font-size="14.00" fill="#000000">&lt;&lt;Library&gt;&gt;</text>
<text text-anchor="middle" x="618.437" y="-1297.9" font-family="Times,serif" font-size="14.00" fill="#000000">SafeMath</text>
<polyline fill="none" stroke="#000000" points="502.5208,-1289.7 734.3532,-1289.7 "/>
<text text-anchor="middle" x="618.437" y="-1273.1" font-family="Times,serif" font-size="14.00" fill="#000000"> </text>
<polyline fill="none" stroke="#000000" points="502.5208,-1264.9 734.3532,-1264.9 "/>
<text text-anchor="start" x="510.5208" y="-1248.3" font-family="Times,serif" font-size="14.00" fill="#000000">Internal:</text>
<text text-anchor="start" x="510.5208" y="-1231.5" font-family="Times,serif" font-size="14.00" fill="#000000"> &#160;&#160;&#160;mul(a: uint256, b: uint256): uint256</text>
<text text-anchor="start" x="510.5208" y="-1214.7" font-family="Times,serif" font-size="14.00" fill="#000000"> &#160;&#160;&#160;div(a: uint256, b: uint256): uint256</text>
<text text-anchor="start" x="510.5208" y="-1197.9" font-family="Times,serif" font-size="14.00" fill="#000000"> &#160;&#160;&#160;sub(a: uint256, b: uint256): uint256</text>
<text text-anchor="start" x="510.5208" y="-1181.1" font-family="Times,serif" font-size="14.00" fill="#000000"> &#160;&#160;&#160;add(a: uint256, b: uint256): uint256</text>
</g>
<!-- 2&#45;&gt;3 -->
<g id="edge3" class="edge">
<title>2&#45;&gt;3</title>
<path fill="none" stroke="#000000" stroke-dasharray="5,2" d="M579.6698,-1135.9123C582.6569,-1144.865 585.6942,-1153.9678 588.6868,-1162.9369"/>
<polygon fill="#000000" stroke="#000000" points="585.4269,-1164.2253 591.9121,-1172.6034 592.0671,-1162.0097 585.4269,-1164.2253"/>
</g>
<!-- 4 -->
<g id="node5" class="node">
<title>4</title>
<polygon fill="#f2f2f2" stroke="#000000" points="717.1249,-969.1 717.1249,-1127.5 1171.7491,-1127.5 1171.7491,-969.1 717.1249,-969.1"/>
<text text-anchor="middle" x="944.437" y="-1110.9" font-family="Times,serif" font-size="14.00" fill="#000000">&lt;&lt;Abstract&gt;&gt;</text>
<text text-anchor="middle" x="944.437" y="-1094.1" font-family="Times,serif" font-size="14.00" fill="#000000">ERC20</text>
<polyline fill="none" stroke="#000000" points="717.1249,-1085.9 1171.7491,-1085.9 "/>
<text text-anchor="middle" x="944.437" y="-1069.3" font-family="Times,serif" font-size="14.00" fill="#000000"> </text>
<polyline fill="none" stroke="#000000" points="717.1249,-1061.1 1171.7491,-1061.1 "/>
<text text-anchor="start" x="725.1249" y="-1044.5" font-family="Times,serif" font-size="14.00" fill="#000000">Public:</text>
<text text-anchor="start" x="725.1249" y="-1027.7" font-family="Times,serif" font-size="14.00" fill="#000000"> &#160;&#160;&#160;&lt;&lt;abstract&gt;&gt; allowance(owner: address, spender: address): uint256</text>
<text text-anchor="start" x="725.1249" y="-1010.9" font-family="Times,serif" font-size="14.00" fill="#000000"> &#160;&#160;&#160;&lt;&lt;abstract&gt;&gt; transferFrom(from: address, to: address, value: uint256): bool</text>
<text text-anchor="start" x="725.1249" y="-994.1" font-family="Times,serif" font-size="14.00" fill="#000000"> &#160;&#160;&#160;&lt;&lt;abstract&gt;&gt; approve(spender: address, value: uint256): bool</text>
<text text-anchor="start" x="725.1249" y="-977.3" font-family="Times,serif" font-size="14.00" fill="#000000"> &#160;&#160;&#160;&lt;&lt;event&gt;&gt; Approval(owner: address, spender: address, value: uint256)</text>
</g>
<!-- 4&#45;&gt;1 -->
<g id="edge4" class="edge">
<title>4&#45;&gt;1</title>
<path fill="none" stroke="#000000" d="M944.437,-1127.678C944.437,-1132.5188 944.437,-1137.431 944.437,-1142.3678"/>
<polygon fill="none" stroke="#000000" points="933.9371,-1142.6034 944.437,-1172.6034 954.9371,-1142.6034 933.9371,-1142.6034"/>
</g>
<!-- 5 -->
<g id="node6" class="node">
<title>5</title>
<polygon fill="#f2f2f2" stroke="#000000" points="347.0943,-748.5 347.0943,-923.7 753.7797,-923.7 753.7797,-748.5 347.0943,-748.5"/>
<text text-anchor="middle" x="550.437" y="-907.1" font-family="Times,serif" font-size="14.00" fill="#000000">StandardToken</text>
<polyline fill="none" stroke="#000000" points="347.0943,-898.9 753.7797,-898.9 "/>
<text text-anchor="start" x="355.0943" y="-882.3" font-family="Times,serif" font-size="14.00" fill="#000000">Internal:</text>
<text text-anchor="start" x="355.0943" y="-865.5" font-family="Times,serif" font-size="14.00" fill="#000000"> &#160;&#160;allowed: mapping(address=&gt;mapping(address=&gt;uint256))</text>
<polyline fill="none" stroke="#000000" points="347.0943,-857.3 753.7797,-857.3 "/>
<text text-anchor="start" x="355.0943" y="-840.7" font-family="Times,serif" font-size="14.00" fill="#000000">Public:</text>
<text text-anchor="start" x="355.0943" y="-823.9" font-family="Times,serif" font-size="14.00" fill="#000000"> &#160;&#160;&#160;transferFrom(_from: address, _to: address, _value: uint256): bool</text>
<text text-anchor="start" x="355.0943" y="-807.1" font-family="Times,serif" font-size="14.00" fill="#000000"> &#160;&#160;&#160;approve(_spender: address, _value: uint256): bool</text>
<text text-anchor="start" x="355.0943" y="-790.3" font-family="Times,serif" font-size="14.00" fill="#000000"> &#160;&#160;&#160;allowance(_owner: address, _spender: address): uint256</text>
<text text-anchor="start" x="355.0943" y="-773.5" font-family="Times,serif" font-size="14.00" fill="#000000"> &#160;&#160;&#160;increaseApproval(_spender: address, _addedValue: uint): bool</text>
<text text-anchor="start" x="355.0943" y="-756.7" font-family="Times,serif" font-size="14.00" fill="#000000"> &#160;&#160;&#160;decreaseApproval(_spender: address, _subtractedValue: uint): bool</text>
</g>
<!-- 5&#45;&gt;2 -->
<g id="edge6" class="edge">
<title>5&#45;&gt;2</title>
<path fill="none" stroke="#000000" d="M550.437,-923.9416C550.437,-926.1133 550.437,-928.2955 550.437,-930.4845"/>
<polygon fill="none" stroke="#000000" points="539.9371,-930.5242 550.437,-960.5243 560.9371,-930.5243 539.9371,-930.5242"/>
</g>
<!-- 5&#45;&gt;4 -->
<g id="edge5" class="edge">
<title>5&#45;&gt;4</title>
<path fill="none" stroke="#000000" d="M713.2513,-923.7883C732.1853,-933.9857 751.5539,-944.4173 770.6284,-954.6904"/>
<polygon fill="none" stroke="#000000" points="765.9318,-964.0869 797.3235,-969.0678 775.8896,-945.5979 765.9318,-964.0869"/>
</g>
<!-- 6 -->
<g id="node7" class="node">
<title>6</title>
<polygon fill="#f2f2f2" stroke="#000000" points="404.7505,-469.1 404.7505,-711.5 696.1235,-711.5 696.1235,-469.1 404.7505,-469.1"/>
<text text-anchor="middle" x="550.437" y="-694.9" font-family="Times,serif" font-size="14.00" fill="#000000">MintableToken</text>
<polyline fill="none" stroke="#000000" points="404.7505,-686.7 696.1235,-686.7 "/>
<text text-anchor="start" x="412.7505" y="-670.1" font-family="Times,serif" font-size="14.00" fill="#000000">Public:</text>
<text text-anchor="start" x="412.7505" y="-653.3" font-family="Times,serif" font-size="14.00" fill="#000000"> &#160;&#160;mintingFinished: bool</text>
<text text-anchor="start" x="412.7505" y="-636.5" font-family="Times,serif" font-size="14.00" fill="#000000"> &#160;&#160;minters: mapping(address=&gt;bool)</text>
<polyline fill="none" stroke="#000000" points="404.7505,-628.3 696.1235,-628.3 "/>
<text text-anchor="start" x="412.7505" y="-611.7" font-family="Times,serif" font-size="14.00" fill="#000000">Public:</text>
<text text-anchor="start" x="412.7505" y="-594.9" font-family="Times,serif" font-size="14.00" fill="#000000"> &#160;&#160;&#160;&lt;&lt;event&gt;&gt; Mint(to: address, amount: uint256)</text>
<text text-anchor="start" x="412.7505" y="-578.1" font-family="Times,serif" font-size="14.00" fill="#000000"> &#160;&#160;&#160;&lt;&lt;event&gt;&gt; MintFinished()</text>
<text text-anchor="start" x="412.7505" y="-561.3" font-family="Times,serif" font-size="14.00" fill="#000000"> &#160;&#160;&#160;&lt;&lt;modifier&gt;&gt; canMint()</text>
<text text-anchor="start" x="412.7505" y="-544.5" font-family="Times,serif" font-size="14.00" fill="#000000"> &#160;&#160;&#160;&lt;&lt;modifier&gt;&gt; onlyMinters()</text>
<text text-anchor="start" x="412.7505" y="-527.7" font-family="Times,serif" font-size="14.00" fill="#000000"> &#160;&#160;&#160;addMinter(_addr: address)</text>
<text text-anchor="start" x="412.7505" y="-510.9" font-family="Times,serif" font-size="14.00" fill="#000000"> &#160;&#160;&#160;deleteMinter(_addr: address)</text>
<text text-anchor="start" x="412.7505" y="-494.1" font-family="Times,serif" font-size="14.00" fill="#000000"> &#160;&#160;&#160;mint(_to: address, _amount: uint256): bool</text>
<text text-anchor="start" x="412.7505" y="-477.3" font-family="Times,serif" font-size="14.00" fill="#000000"> &#160;&#160;&#160;finishMinting(): bool</text>
</g>
<!-- 6&#45;&gt;5 -->
<g id="edge7" class="edge">
<title>6&#45;&gt;5</title>
<path fill="none" stroke="#000000" d="M550.437,-711.7598C550.437,-713.8802 550.437,-716.0012 550.437,-718.1202"/>
<polygon fill="none" stroke="#000000" points="539.9371,-718.3311 550.437,-748.3312 560.9371,-718.3312 539.9371,-718.3311"/>
</g>
<!-- 7 -->
<g id="node8" class="node">
<title>7</title>
<polygon fill="#f2f2f2" stroke="#000000" points="415.086,-307.3 415.086,-432.1 685.788,-432.1 685.788,-307.3 415.086,-307.3"/>
<text text-anchor="middle" x="550.437" y="-415.5" font-family="Times,serif" font-size="14.00" fill="#000000">CappedToken</text>
<polyline fill="none" stroke="#000000" points="415.086,-407.3 685.788,-407.3 "/>
<text text-anchor="start" x="423.086" y="-390.7" font-family="Times,serif" font-size="14.00" fill="#000000">Public:</text>
<text text-anchor="start" x="423.086" y="-373.9" font-family="Times,serif" font-size="14.00" fill="#000000"> &#160;&#160;cap: uint256</text>
<polyline fill="none" stroke="#000000" points="415.086,-365.7 685.788,-365.7 "/>
<text text-anchor="start" x="423.086" y="-349.1" font-family="Times,serif" font-size="14.00" fill="#000000">Public:</text>
<text text-anchor="start" x="423.086" y="-332.3" font-family="Times,serif" font-size="14.00" fill="#000000"> &#160;&#160;&#160;constructor(_cap: uint256)</text>
<text text-anchor="start" x="423.086" y="-315.5" font-family="Times,serif" font-size="14.00" fill="#000000"> &#160;&#160;&#160;mint(_to: address, _amount: uint256): bool</text>
</g>
<!-- 7&#45;&gt;6 -->
<g id="edge8" class="edge">
<title>7&#45;&gt;6</title>
<path fill="none" stroke="#000000" d="M550.437,-432.325C550.437,-434.4985 550.437,-436.7025 550.437,-438.9326"/>
<polygon fill="none" stroke="#000000" points="539.9371,-439.0342 550.437,-469.0343 560.9371,-439.0343 539.9371,-439.0342"/>
</g>
<!-- 8 -->
<g id="node9" class="node">
<title>8</title>
<polygon fill="#f2f2f2" stroke="#000000" points="295.9222,-128.7 295.9222,-270.3 804.9518,-270.3 804.9518,-128.7 295.9222,-128.7"/>
<text text-anchor="middle" x="550.437" y="-253.7" font-family="Times,serif" font-size="14.00" fill="#000000">ParameterizedToken</text>
<polyline fill="none" stroke="#000000" points="295.9222,-245.5 804.9518,-245.5 "/>
<text text-anchor="start" x="303.9222" y="-228.9" font-family="Times,serif" font-size="14.00" fill="#000000">Public:</text>
<text text-anchor="start" x="303.9222" y="-212.1" font-family="Times,serif" font-size="14.00" fill="#000000"> &#160;&#160;name: string</text>
<text text-anchor="start" x="303.9222" y="-195.3" font-family="Times,serif" font-size="14.00" fill="#000000"> &#160;&#160;symbol: string</text>
<text text-anchor="start" x="303.9222" y="-178.5" font-family="Times,serif" font-size="14.00" fill="#000000"> &#160;&#160;decimals: uint256</text>
<polyline fill="none" stroke="#000000" points="295.9222,-170.3 804.9518,-170.3 "/>
<text text-anchor="start" x="303.9222" y="-153.7" font-family="Times,serif" font-size="14.00" fill="#000000">Public:</text>
<text text-anchor="start" x="303.9222" y="-136.9" font-family="Times,serif" font-size="14.00" fill="#000000"> &#160;&#160;&#160;constructor(_name: string, _symbol: string, _decimals: uint256, _capIntPart: uint256)</text>
</g>
<!-- 8&#45;&gt;7 -->
<g id="edge9" class="edge">
<title>8&#45;&gt;7</title>
<path fill="none" stroke="#000000" d="M550.437,-270.694C550.437,-272.7763 550.437,-274.87 550.437,-276.97"/>
<polygon fill="none" stroke="#000000" points="539.9371,-277.1809 550.437,-307.1809 560.9371,-277.1809 539.9371,-277.1809"/>
</g>
<!-- 9 -->
<g id="node10" class="node">
<title>9</title>
<polygon fill="#f2f2f2" stroke="#000000" points="499.2883,-.5 499.2883,-91.7 601.5857,-91.7 601.5857,-.5 499.2883,-.5"/>
<text text-anchor="middle" x="550.437" y="-75.1" font-family="Times,serif" font-size="14.00" fill="#000000">RuffToken</text>
<polyline fill="none" stroke="#000000" points="499.2883,-66.9 601.5857,-66.9 "/>
<text text-anchor="middle" x="550.437" y="-50.3" font-family="Times,serif" font-size="14.00" fill="#000000"> </text>
<polyline fill="none" stroke="#000000" points="499.2883,-42.1 601.5857,-42.1 "/>
<text text-anchor="start" x="507.2883" y="-25.5" font-family="Times,serif" font-size="14.00" fill="#000000">Public:</text>
<text text-anchor="start" x="507.2883" y="-8.7" font-family="Times,serif" font-size="14.00" fill="#000000"> &#160;&#160;&#160;constructor()</text>
</g>
<!-- 9&#45;&gt;8 -->
<g id="edge10" class="edge">
<title>9&#45;&gt;8</title>
<path fill="none" stroke="#000000" d="M550.437,-91.7097C550.437,-93.879 550.437,-96.0882 550.437,-98.3286"/>
<polygon fill="none" stroke="#000000" points="539.9371,-98.4876 550.437,-128.4876 560.9371,-98.4877 539.9371,-98.4876"/>
</g>
</g>
</svg>
