<?xml version="1.0" encoding="UTF-8" standalone="no"?>
<!DOCTYPE svg PUBLIC "-//W3C//DTD SVG 1.1//EN"
 "http://www.w3.org/Graphics/SVG/1.1/DTD/svg11.dtd">
<!-- Generated by graphviz version 2.40.1 (20161225.0304)
 -->
<!-- Title: UmlClassDiagram Pages: 1 -->
<svg width="1901pt" height="1369pt"
 viewBox="0.00 0.00 1900.74 1369.00" xmlns="http://www.w3.org/2000/svg" xmlns:xlink="http://www.w3.org/1999/xlink">
<g id="graph0" class="graph" transform="scale(1 1) rotate(0) translate(4 1365)">
<title>UmlClassDiagram</title>
<polygon fill="#ffffff" stroke="transparent" points="-4,4 -4,-1365 1896.7444,-1365 1896.7444,4 -4,4"/>
<!-- 6 -->
<g id="node1" class="node">
<title>6</title>
<polygon fill="#f2f2f2" stroke="#000000" points="1434.7196,-372.3 1434.7196,-530.7 1892.7444,-530.7 1892.7444,-372.3 1434.7196,-372.3"/>
<text text-anchor="middle" x="1663.732" y="-514.1" font-family="Times,serif" font-size="14.00" fill="#000000">TokenTimelock</text>
<polyline fill="none" stroke="#000000" points="1434.7196,-505.9 1892.7444,-505.9 "/>
<text text-anchor="start" x="1442.7196" y="-489.3" font-family="Times,serif" font-size="14.00" fill="#000000">Public:</text>
<text text-anchor="start" x="1442.7196" y="-472.5" font-family="Times,serif" font-size="14.00" fill="#000000"> &#160;&#160;token: ERC20Basic</text>
<text text-anchor="start" x="1442.7196" y="-455.7" font-family="Times,serif" font-size="14.00" fill="#000000"> &#160;&#160;beneficiary: address</text>
<text text-anchor="start" x="1442.7196" y="-438.9" font-family="Times,serif" font-size="14.00" fill="#000000"> &#160;&#160;releaseTime: uint</text>
<polyline fill="none" stroke="#000000" points="1434.7196,-430.7 1892.7444,-430.7 "/>
<text text-anchor="start" x="1442.7196" y="-414.1" font-family="Times,serif" font-size="14.00" fill="#000000">Public:</text>
<text text-anchor="start" x="1442.7196" y="-397.3" font-family="Times,serif" font-size="14.00" fill="#000000"> &#160;&#160;&#160;constructor(_token: ERC20Basic, _beneficiary: address, _releaseTime: uint)</text>
<text text-anchor="start" x="1442.7196" y="-380.5" font-family="Times,serif" font-size="14.00" fill="#000000"> &#160;&#160;&#160;release()</text>
</g>
<!-- 5 -->
<g id="node6" class="node">
<title>5</title>
<polygon fill="#f2f2f2" stroke="#000000" points="1417.0016,-1202.1 1417.0016,-1360.5 1800.4624,-1360.5 1800.4624,-1202.1 1417.0016,-1202.1"/>
<text text-anchor="middle" x="1608.732" y="-1343.9" font-family="Times,serif" font-size="14.00" fill="#000000">&lt;&lt;Abstract&gt;&gt;</text>
<text text-anchor="middle" x="1608.732" y="-1327.1" font-family="Times,serif" font-size="14.00" fill="#000000">ERC20Basic</text>
<polyline fill="none" stroke="#000000" points="1417.0016,-1318.9 1800.4624,-1318.9 "/>
<text text-anchor="start" x="1425.0016" y="-1302.3" font-family="Times,serif" font-size="14.00" fill="#000000">Public:</text>
<text text-anchor="start" x="1425.0016" y="-1285.5" font-family="Times,serif" font-size="14.00" fill="#000000"> &#160;&#160;totalSupply: uint256</text>
<polyline fill="none" stroke="#000000" points="1417.0016,-1277.3 1800.4624,-1277.3 "/>
<text text-anchor="start" x="1425.0016" y="-1260.7" font-family="Times,serif" font-size="14.00" fill="#000000">Public:</text>
<text text-anchor="start" x="1425.0016" y="-1243.9" font-family="Times,serif" font-size="14.00" fill="#000000"> &#160;&#160;&#160;&lt;&lt;abstract&gt;&gt; balanceOf(who: address): uint256</text>
<text text-anchor="start" x="1425.0016" y="-1227.1" font-family="Times,serif" font-size="14.00" fill="#000000"> &#160;&#160;&#160;&lt;&lt;abstract&gt;&gt; transfer(to: address, value: uint256): bool</text>
<text text-anchor="start" x="1425.0016" y="-1210.3" font-family="Times,serif" font-size="14.00" fill="#000000"> &#160;&#160;&#160;&lt;&lt;event&gt;&gt; Transfer(from: address, to: address, value: uint256)</text>
</g>
<!-- 6&#45;&gt;5 -->
<g id="edge1" class="edge">
<title>6&#45;&gt;5</title>
<path fill="none" stroke="#000000" d="M1720.8986,-530.7615C1813.2272,-669.3894 1972.5328,-960.6121 1844.732,-1165.6 1835.0565,-1181.1191 1822.6263,-1194.6147 1808.541,-1206.3401"/>
<polygon fill="#000000" stroke="#000000" points="1806.2141,-1203.7183 1800.5526,-1212.6737 1810.563,-1209.2035 1806.2141,-1203.7183"/>
</g>
<!-- 0 -->
<g id="node2" class="node">
<title>0</title>
<polygon fill="#f2f2f2" stroke="#000000" points="679.5969,-744.1 679.5969,-885.7 933.8671,-885.7 933.8671,-744.1 679.5969,-744.1"/>
<text text-anchor="middle" x="806.732" y="-869.1" font-family="Times,serif" font-size="14.00" fill="#000000">Ownable</text>
<polyline fill="none" stroke="#000000" points="679.5969,-860.9 933.8671,-860.9 "/>
<text text-anchor="start" x="687.5969" y="-844.3" font-family="Times,serif" font-size="14.00" fill="#000000">Public:</text>
<text text-anchor="start" x="687.5969" y="-827.5" font-family="Times,serif" font-size="14.00" fill="#000000"> &#160;&#160;owner: address</text>
<polyline fill="none" stroke="#000000" points="679.5969,-819.3 933.8671,-819.3 "/>
<text text-anchor="start" x="687.5969" y="-802.7" font-family="Times,serif" font-size="14.00" fill="#000000">Public:</text>
<text text-anchor="start" x="687.5969" y="-785.9" font-family="Times,serif" font-size="14.00" fill="#000000"> &#160;&#160;&#160;&lt;&lt;modifier&gt;&gt; onlyOwner()</text>
<text text-anchor="start" x="687.5969" y="-769.1" font-family="Times,serif" font-size="14.00" fill="#000000"> &#160;&#160;&#160;constructor()</text>
<text text-anchor="start" x="687.5969" y="-752.3" font-family="Times,serif" font-size="14.00" fill="#000000"> &#160;&#160;&#160;transferOwnership(newOwner: address)</text>
</g>
<!-- 2 -->
<g id="node3" class="node">
<title>2</title>
<polygon fill="#f2f2f2" stroke="#000000" points="580.0858,-1023.5 580.0858,-1148.3 971.3782,-1148.3 971.3782,-1023.5 580.0858,-1023.5"/>
<text text-anchor="middle" x="775.732" y="-1131.7" font-family="Times,serif" font-size="14.00" fill="#000000">&lt;&lt;Abstract&gt;&gt;</text>
<text text-anchor="middle" x="775.732" y="-1114.9" font-family="Times,serif" font-size="14.00" fill="#000000">MintableInterface</text>
<polyline fill="none" stroke="#000000" points="580.0858,-1106.7 971.3782,-1106.7 "/>
<text text-anchor="middle" x="775.732" y="-1090.1" font-family="Times,serif" font-size="14.00" fill="#000000"> </text>
<polyline fill="none" stroke="#000000" points="580.0858,-1081.9 971.3782,-1081.9 "/>
<text text-anchor="start" x="588.0858" y="-1065.3" font-family="Times,serif" font-size="14.00" fill="#000000">Public:</text>
<text text-anchor="start" x="588.0858" y="-1048.5" font-family="Times,serif" font-size="14.00" fill="#000000"> &#160;&#160;&#160;&lt;&lt;abstract&gt;&gt; mint(_to: address, _amount: uint256): bool</text>
<text text-anchor="start" x="588.0858" y="-1031.7" font-family="Times,serif" font-size="14.00" fill="#000000"> &#160;&#160;&#160;&lt;&lt;abstract&gt;&gt; mintLocked(_to: address, _amount: uint256): bool</text>
</g>
<!-- 3 -->
<g id="node4" class="node">
<title>3</title>
<polygon fill="#f2f2f2" stroke="#000000" points="60.3385,-660.1 60.3385,-969.7 661.1255,-969.7 661.1255,-660.1 60.3385,-660.1"/>
<text text-anchor="middle" x="360.732" y="-953.1" font-family="Times,serif" font-size="14.00" fill="#000000">Crowdsale</text>
<polyline fill="none" stroke="#000000" points="60.3385,-944.9 661.1255,-944.9 "/>
<text text-anchor="start" x="68.3385" y="-928.3" font-family="Times,serif" font-size="14.00" fill="#000000">Public:</text>
<text text-anchor="start" x="68.3385" y="-911.5" font-family="Times,serif" font-size="14.00" fill="#000000"> &#160;&#160;token: MintableInterface</text>
<text text-anchor="start" x="68.3385" y="-894.7" font-family="Times,serif" font-size="14.00" fill="#000000"> &#160;&#160;startBlock: uint256</text>
<text text-anchor="start" x="68.3385" y="-877.9" font-family="Times,serif" font-size="14.00" fill="#000000"> &#160;&#160;endBlock: uint256</text>
<text text-anchor="start" x="68.3385" y="-861.1" font-family="Times,serif" font-size="14.00" fill="#000000"> &#160;&#160;wallet: address</text>
<text text-anchor="start" x="68.3385" y="-844.3" font-family="Times,serif" font-size="14.00" fill="#000000"> &#160;&#160;rate: uint256</text>
<text text-anchor="start" x="68.3385" y="-827.5" font-family="Times,serif" font-size="14.00" fill="#000000"> &#160;&#160;weiRaised: uint256</text>
<polyline fill="none" stroke="#000000" points="60.3385,-819.3 661.1255,-819.3 "/>
<text text-anchor="start" x="68.3385" y="-802.7" font-family="Times,serif" font-size="14.00" fill="#000000">Internal:</text>
<text text-anchor="start" x="68.3385" y="-785.9" font-family="Times,serif" font-size="14.00" fill="#000000"> &#160;&#160;&#160;forwardFunds()</text>
<text text-anchor="start" x="68.3385" y="-769.1" font-family="Times,serif" font-size="14.00" fill="#000000"> &#160;&#160;&#160;validPurchase(): bool</text>
<text text-anchor="start" x="68.3385" y="-752.3" font-family="Times,serif" font-size="14.00" fill="#000000">Public:</text>
<text text-anchor="start" x="68.3385" y="-735.5" font-family="Times,serif" font-size="14.00" fill="#000000"> &#160;&#160;&#160;&lt;&lt;fallback&gt;&gt; ()</text>
<text text-anchor="start" x="68.3385" y="-718.7" font-family="Times,serif" font-size="14.00" fill="#000000"> &#160;&#160;&#160;&lt;&lt;payable&gt;&gt; buyTokens(beneficiary: address)</text>
<text text-anchor="start" x="68.3385" y="-701.9" font-family="Times,serif" font-size="14.00" fill="#000000"> &#160;&#160;&#160;&lt;&lt;event&gt;&gt; TokenPurchase(purchaser: address, beneficiary: address, value: uint256, amount: uint256)</text>
<text text-anchor="start" x="68.3385" y="-685.1" font-family="Times,serif" font-size="14.00" fill="#000000"> &#160;&#160;&#160;constructor(_startBlock: uint256, _endBlock: uint256, _rate: uint256, _wallet: address)</text>
<text text-anchor="start" x="68.3385" y="-668.3" font-family="Times,serif" font-size="14.00" fill="#000000"> &#160;&#160;&#160;hasEnded(): bool</text>
</g>
<!-- 3&#45;&gt;2 -->
<g id="edge3" class="edge">
<title>3&#45;&gt;2</title>
<path fill="none" stroke="#000000" d="M597.9286,-969.7923C623.5272,-986.5085 648.5101,-1002.8226 671.2753,-1017.6886"/>
<polygon fill="#000000" stroke="#000000" points="669.6018,-1020.7759 679.8884,-1023.313 673.4292,-1014.9148 669.6018,-1020.7759"/>
</g>
<!-- 1 -->
<g id="node7" class="node">
<title>1</title>
<polygon fill="#f2f2f2" stroke="#000000" points="883.8158,-1202.1 883.8158,-1360.5 1115.6482,-1360.5 1115.6482,-1202.1 883.8158,-1202.1"/>
<text text-anchor="middle" x="999.732" y="-1343.9" font-family="Times,serif" font-size="14.00" fill="#000000">&lt;&lt;Library&gt;&gt;</text>
<text text-anchor="middle" x="999.732" y="-1327.1" font-family="Times,serif" font-size="14.00" fill="#000000">SafeMath</text>
<polyline fill="none" stroke="#000000" points="883.8158,-1318.9 1115.6482,-1318.9 "/>
<text text-anchor="middle" x="999.732" y="-1302.3" font-family="Times,serif" font-size="14.00" fill="#000000"> </text>
<polyline fill="none" stroke="#000000" points="883.8158,-1294.1 1115.6482,-1294.1 "/>
<text text-anchor="start" x="891.8158" y="-1277.5" font-family="Times,serif" font-size="14.00" fill="#000000">Internal:</text>
<text text-anchor="start" x="891.8158" y="-1260.7" font-family="Times,serif" font-size="14.00" fill="#000000"> &#160;&#160;&#160;mul(a: uint256, b: uint256): uint256</text>
<text text-anchor="start" x="891.8158" y="-1243.9" font-family="Times,serif" font-size="14.00" fill="#000000"> &#160;&#160;&#160;div(a: uint256, b: uint256): uint256</text>
<text text-anchor="start" x="891.8158" y="-1227.1" font-family="Times,serif" font-size="14.00" fill="#000000"> &#160;&#160;&#160;sub(a: uint256, b: uint256): uint256</text>
<text text-anchor="start" x="891.8158" y="-1210.3" font-family="Times,serif" font-size="14.00" fill="#000000"> &#160;&#160;&#160;add(a: uint256, b: uint256): uint256</text>
</g>
<!-- 3&#45;&gt;1 -->
<g id="edge2" class="edge">
<title>3&#45;&gt;1</title>
<path fill="none" stroke="#000000" stroke-dasharray="5,2" d="M421.3159,-969.8477C455.5791,-1038.9633 504.9238,-1115.8476 570.732,-1165.6 618.3197,-1201.5773 765.0058,-1236.3158 873.6714,-1258.1793"/>
<polygon fill="#000000" stroke="#000000" points="873.2413,-1261.6624 883.7332,-1260.1889 874.6124,-1254.798 873.2413,-1261.6624"/>
</g>
<!-- 4 -->
<g id="node5" class="node">
<title>4</title>
<polygon fill="#f2f2f2" stroke="#000000" points="214.4939,-380.7 214.4939,-522.3 506.9701,-522.3 506.9701,-380.7 214.4939,-380.7"/>
<text text-anchor="middle" x="360.732" y="-505.7" font-family="Times,serif" font-size="14.00" fill="#000000">TokenCappedCrowdsale</text>
<polyline fill="none" stroke="#000000" points="214.4939,-497.5 506.9701,-497.5 "/>
<text text-anchor="start" x="222.4939" y="-480.9" font-family="Times,serif" font-size="14.00" fill="#000000">Public:</text>
<text text-anchor="start" x="222.4939" y="-464.1" font-family="Times,serif" font-size="14.00" fill="#000000"> &#160;&#160;tokenCap: uint256</text>
<text text-anchor="start" x="222.4939" y="-447.3" font-family="Times,serif" font-size="14.00" fill="#000000"> &#160;&#160;soldTokens: uint256</text>
<polyline fill="none" stroke="#000000" points="214.4939,-439.1 506.9701,-439.1 "/>
<text text-anchor="start" x="222.4939" y="-422.5" font-family="Times,serif" font-size="14.00" fill="#000000">Public:</text>
<text text-anchor="start" x="222.4939" y="-405.7" font-family="Times,serif" font-size="14.00" fill="#000000"> &#160;&#160;&#160;&lt;&lt;payable&gt;&gt; buyTokens(beneficiary: address)</text>
<text text-anchor="start" x="222.4939" y="-388.9" font-family="Times,serif" font-size="14.00" fill="#000000"> &#160;&#160;&#160;hasEnded(): bool</text>
</g>
<!-- 4&#45;&gt;3 -->
<g id="edge4" class="edge">
<title>4&#45;&gt;3</title>
<path fill="none" stroke="#000000" d="M360.732,-522.4299C360.732,-553.4736 360.732,-591.4932 360.732,-629.7183"/>
<polygon fill="none" stroke="#000000" points="350.2321,-629.9334 360.732,-659.9334 371.2321,-629.9335 350.2321,-629.9334"/>
</g>
<!-- 4&#45;&gt;1 -->
<g id="edge5" class="edge">
<title>4&#45;&gt;1</title>
<path fill="none" stroke="#000000" stroke-dasharray="5,2" d="M214.1717,-511.8109C152.2922,-545.489 86.5983,-594.0827 51.732,-659.6 -13.1198,-781.4627 -20.7337,-852.7053 51.732,-970.2 153.2955,-1134.8735 257.9993,-1102.0287 440.732,-1165.6 585.2321,-1215.8705 758.734,-1247.5855 873.713,-1264.8434"/>
<polygon fill="#000000" stroke="#000000" points="873.2091,-1268.3069 883.6151,-1266.3157 874.2386,-1261.383 873.2091,-1268.3069"/>
</g>
<!-- 7 -->
<g id="node8" class="node">
<title>7</title>
<polygon fill="#f2f2f2" stroke="#000000" points="1065.8213,-1023.5 1065.8213,-1148.3 1363.6427,-1148.3 1363.6427,-1023.5 1065.8213,-1023.5"/>
<text text-anchor="middle" x="1214.732" y="-1131.7" font-family="Times,serif" font-size="14.00" fill="#000000">BasicToken</text>
<polyline fill="none" stroke="#000000" points="1065.8213,-1123.5 1363.6427,-1123.5 "/>
<text text-anchor="start" x="1073.8213" y="-1106.9" font-family="Times,serif" font-size="14.00" fill="#000000">Public:</text>
<text text-anchor="start" x="1073.8213" y="-1090.1" font-family="Times,serif" font-size="14.00" fill="#000000"> &#160;&#160;balances: mapping(address=&gt;uint256)</text>
<polyline fill="none" stroke="#000000" points="1065.8213,-1081.9 1363.6427,-1081.9 "/>
<text text-anchor="start" x="1073.8213" y="-1065.3" font-family="Times,serif" font-size="14.00" fill="#000000">Public:</text>
<text text-anchor="start" x="1073.8213" y="-1048.5" font-family="Times,serif" font-size="14.00" fill="#000000"> &#160;&#160;&#160;transfer(_to: address, _value: uint256): bool</text>
<text text-anchor="start" x="1073.8213" y="-1031.7" font-family="Times,serif" font-size="14.00" fill="#000000"> &#160;&#160;&#160;balanceOf(_owner: address): (balance: uint256)</text>
</g>
<!-- 7&#45;&gt;5 -->
<g id="edge6" class="edge">
<title>7&#45;&gt;5</title>
<path fill="none" stroke="#000000" d="M1338.4354,-1148.4681C1350.0205,-1154.277 1361.5909,-1160.0593 1372.732,-1165.6 1387.8855,-1173.1362 1403.6018,-1180.9172 1419.3997,-1188.714"/>
<polygon fill="none" stroke="#000000" points="1414.879,-1198.1919 1446.4306,-1202.0322 1424.1604,-1179.3543 1414.879,-1198.1919"/>
</g>
<!-- 7&#45;&gt;1 -->
<g id="edge7" class="edge">
<title>7&#45;&gt;1</title>
<path fill="none" stroke="#000000" stroke-dasharray="5,2" d="M1145.8175,-1148.5321C1129.6275,-1163.2461 1112.0913,-1179.1836 1094.9751,-1194.7395"/>
<polygon fill="#000000" stroke="#000000" points="1092.1931,-1192.5383 1087.1468,-1201.8542 1096.9012,-1197.7186 1092.1931,-1192.5383"/>
</g>
<!-- 8 -->
<g id="node9" class="node">
<title>8</title>
<polygon fill="#f2f2f2" stroke="#000000" points="1381.4199,-1006.7 1381.4199,-1165.1 1836.0441,-1165.1 1836.0441,-1006.7 1381.4199,-1006.7"/>
<text text-anchor="middle" x="1608.732" y="-1148.5" font-family="Times,serif" font-size="14.00" fill="#000000">&lt;&lt;Abstract&gt;&gt;</text>
<text text-anchor="middle" x="1608.732" y="-1131.7" font-family="Times,serif" font-size="14.00" fill="#000000">ERC20</text>
<polyline fill="none" stroke="#000000" points="1381.4199,-1123.5 1836.0441,-1123.5 "/>
<text text-anchor="middle" x="1608.732" y="-1106.9" font-family="Times,serif" font-size="14.00" fill="#000000"> </text>
<polyline fill="none" stroke="#000000" points="1381.4199,-1098.7 1836.0441,-1098.7 "/>
<text text-anchor="start" x="1389.4199" y="-1082.1" font-family="Times,serif" font-size="14.00" fill="#000000">Public:</text>
<text text-anchor="start" x="1389.4199" y="-1065.3" font-family="Times,serif" font-size="14.00" fill="#000000"> &#160;&#160;&#160;&lt;&lt;abstract&gt;&gt; allowance(owner: address, spender: address): uint256</text>
<text text-anchor="start" x="1389.4199" y="-1048.5" font-family="Times,serif" font-size="14.00" fill="#000000"> &#160;&#160;&#160;&lt;&lt;abstract&gt;&gt; transferFrom(from: address, to: address, value: uint256): bool</text>
<text text-anchor="start" x="1389.4199" y="-1031.7" font-family="Times,serif" font-size="14.00" fill="#000000"> &#160;&#160;&#160;&lt;&lt;abstract&gt;&gt; approve(spender: address, value: uint256): bool</text>
<text text-anchor="start" x="1389.4199" y="-1014.9" font-family="Times,serif" font-size="14.00" fill="#000000"> &#160;&#160;&#160;&lt;&lt;event&gt;&gt; Approval(owner: address, spender: address, value: uint256)</text>
</g>
<!-- 8&#45;&gt;5 -->
<g id="edge8" class="edge">
<title>8&#45;&gt;5</title>
<path fill="none" stroke="#000000" d="M1608.732,-1165.3767C1608.732,-1167.4469 1608.732,-1169.5285 1608.732,-1171.6175"/>
<polygon fill="none" stroke="#000000" points="1598.2321,-1171.8937 1608.732,-1201.8938 1619.2321,-1171.8938 1598.2321,-1171.8937"/>
</g>
<!-- 9 -->
<g id="node10" class="node">
<title>9</title>
<polygon fill="#f2f2f2" stroke="#000000" points="1065.748,-744.1 1065.748,-885.7 1483.716,-885.7 1483.716,-744.1 1065.748,-744.1"/>
<text text-anchor="middle" x="1274.732" y="-869.1" font-family="Times,serif" font-size="14.00" fill="#000000">StandardToken</text>
<polyline fill="none" stroke="#000000" points="1065.748,-860.9 1483.716,-860.9 "/>
<text text-anchor="start" x="1073.748" y="-844.3" font-family="Times,serif" font-size="14.00" fill="#000000">Public:</text>
<text text-anchor="start" x="1073.748" y="-827.5" font-family="Times,serif" font-size="14.00" fill="#000000"> &#160;&#160;allowed: mapping(address=&gt;mapping(address=&gt;uint256))</text>
<polyline fill="none" stroke="#000000" points="1065.748,-819.3 1483.716,-819.3 "/>
<text text-anchor="start" x="1073.748" y="-802.7" font-family="Times,serif" font-size="14.00" fill="#000000">Public:</text>
<text text-anchor="start" x="1073.748" y="-785.9" font-family="Times,serif" font-size="14.00" fill="#000000"> &#160;&#160;&#160;transferFrom(_from: address, _to: address, _value: uint256): bool</text>
<text text-anchor="start" x="1073.748" y="-769.1" font-family="Times,serif" font-size="14.00" fill="#000000"> &#160;&#160;&#160;approve(_spender: address, _value: uint256): bool</text>
<text text-anchor="start" x="1073.748" y="-752.3" font-family="Times,serif" font-size="14.00" fill="#000000"> &#160;&#160;&#160;allowance(_owner: address, _spender: address): (remaining: uint256)</text>
</g>
<!-- 9&#45;&gt;7 -->
<g id="edge10" class="edge">
<title>9&#45;&gt;7</title>
<path fill="none" stroke="#000000" d="M1259.046,-885.7481C1251.723,-918.8236 1242.9138,-958.6123 1235.0853,-993.971"/>
<polygon fill="none" stroke="#000000" points="1224.8224,-991.7519 1228.589,-1023.3123 1245.3259,-996.2914 1224.8224,-991.7519"/>
</g>
<!-- 9&#45;&gt;8 -->
<g id="edge9" class="edge">
<title>9&#45;&gt;8</title>
<path fill="none" stroke="#000000" d="M1362.0503,-885.7481C1400.3516,-916.8249 1445.9568,-953.8279 1487.4748,-987.5147"/>
<polygon fill="none" stroke="#000000" points="1481.1193,-995.8795 1511.0312,-1006.6278 1494.3507,-979.5721 1481.1193,-995.8795"/>
</g>
<!-- 10 -->
<g id="node11" class="node">
<title>10</title>
<polygon fill="#f2f2f2" stroke="#000000" points="744.9409,-279.9 744.9409,-623.1 1178.5231,-623.1 1178.5231,-279.9 744.9409,-279.9"/>
<text text-anchor="middle" x="961.732" y="-606.5" font-family="Times,serif" font-size="14.00" fill="#000000">EidooToken</text>
<polyline fill="none" stroke="#000000" points="744.9409,-598.3 1178.5231,-598.3 "/>
<text text-anchor="start" x="752.9409" y="-581.7" font-family="Times,serif" font-size="14.00" fill="#000000">Public:</text>
<text text-anchor="start" x="752.9409" y="-564.9" font-family="Times,serif" font-size="14.00" fill="#000000"> &#160;&#160;name: string</text>
<text text-anchor="start" x="752.9409" y="-548.1" font-family="Times,serif" font-size="14.00" fill="#000000"> &#160;&#160;symbol: string</text>
<text text-anchor="start" x="752.9409" y="-531.3" font-family="Times,serif" font-size="14.00" fill="#000000"> &#160;&#160;decimals: uint256</text>
<text text-anchor="start" x="752.9409" y="-514.5" font-family="Times,serif" font-size="14.00" fill="#000000"> &#160;&#160;transferableFromBlock: uint256</text>
<text text-anchor="start" x="752.9409" y="-497.7" font-family="Times,serif" font-size="14.00" fill="#000000"> &#160;&#160;lockEndBlock: uint256</text>
<text text-anchor="start" x="752.9409" y="-480.9" font-family="Times,serif" font-size="14.00" fill="#000000"> &#160;&#160;initiallyLockedAmount: mapping(address=&gt;uint256)</text>
<polyline fill="none" stroke="#000000" points="744.9409,-472.7 1178.5231,-472.7 "/>
<text text-anchor="start" x="752.9409" y="-456.1" font-family="Times,serif" font-size="14.00" fill="#000000">Public:</text>
<text text-anchor="start" x="752.9409" y="-439.3" font-family="Times,serif" font-size="14.00" fill="#000000"> &#160;&#160;&#160;&lt;&lt;modifier&gt;&gt; canTransfer(_from: address, _value: uint)</text>
<text text-anchor="start" x="752.9409" y="-422.5" font-family="Times,serif" font-size="14.00" fill="#000000"> &#160;&#160;&#160;&lt;&lt;modifier&gt;&gt; canMint()</text>
<text text-anchor="start" x="752.9409" y="-405.7" font-family="Times,serif" font-size="14.00" fill="#000000"> &#160;&#160;&#160;constructor(_transferableFromBlock: uint256, _lockEndBlock: uint256)</text>
<text text-anchor="start" x="752.9409" y="-388.9" font-family="Times,serif" font-size="14.00" fill="#000000"> &#160;&#160;&#160;lockedBalanceOf(_to: address): uint256</text>
<text text-anchor="start" x="752.9409" y="-372.1" font-family="Times,serif" font-size="14.00" fill="#000000"> &#160;&#160;&#160;transfer(_to: address, _value: uint): bool</text>
<text text-anchor="start" x="752.9409" y="-355.3" font-family="Times,serif" font-size="14.00" fill="#000000"> &#160;&#160;&#160;transferFrom(_from: address, _to: address, _value: uint): bool</text>
<text text-anchor="start" x="752.9409" y="-338.5" font-family="Times,serif" font-size="14.00" fill="#000000"> &#160;&#160;&#160;mintingFinished(): bool</text>
<text text-anchor="start" x="752.9409" y="-321.7" font-family="Times,serif" font-size="14.00" fill="#000000"> &#160;&#160;&#160;mint(_to: address, _amount: uint256): bool</text>
<text text-anchor="start" x="752.9409" y="-304.9" font-family="Times,serif" font-size="14.00" fill="#000000"> &#160;&#160;&#160;mintLocked(_to: address, _amount: uint256): bool</text>
<text text-anchor="start" x="752.9409" y="-288.1" font-family="Times,serif" font-size="14.00" fill="#000000"> &#160;&#160;&#160;burn(_amount: uint256): bool</text>
</g>
<!-- 10&#45;&gt;0 -->
<g id="edge12" class="edge">
<title>10&#45;&gt;0</title>
<path fill="none" stroke="#000000" d="M888.4306,-623.3563C874.8746,-655.1385 861.1468,-687.3235 848.9127,-716.0065"/>
<polygon fill="none" stroke="#000000" points="839.1189,-712.2053 837.0071,-743.9195 858.4352,-720.4442 839.1189,-712.2053"/>
</g>
<!-- 10&#45;&gt;2 -->
<g id="edge11" class="edge">
<title>10&#45;&gt;2</title>
<path fill="none" stroke="#000000" d="M971.6707,-623.2341C976.0638,-750.7979 974.4217,-912.2972 942.732,-970.2 936.2218,-982.0953 927.9006,-993.0271 918.4592,-1003.0167"/>
<polygon fill="none" stroke="#000000" points="911.2673,-995.3654 896.2689,-1023.3886 925.4692,-1010.8349 911.2673,-995.3654"/>
</g>
<!-- 10&#45;&gt;1 -->
<g id="edge14" class="edge">
<title>10&#45;&gt;1</title>
<path fill="none" stroke="#000000" stroke-dasharray="5,2" d="M970.938,-623.2526C971.5582,-635.5525 972.1622,-647.7651 972.732,-659.6 981.8437,-848.8628 991.1435,-1070.6048 996.0968,-1191.487"/>
<polygon fill="#000000" stroke="#000000" points="992.6127,-1191.9478 996.5188,-1201.7963 999.6068,-1191.6615 992.6127,-1191.9478"/>
</g>
<!-- 10&#45;&gt;9 -->
<g id="edge13" class="edge">
<title>10&#45;&gt;9</title>
<path fill="none" stroke="#000000" d="M1109.7535,-623.3563C1138.7044,-656.9689 1168.0433,-691.0321 1193.7918,-720.9266"/>
<polygon fill="none" stroke="#000000" points="1186.0616,-728.041 1213.5957,-743.9195 1201.9732,-714.3362 1186.0616,-728.041"/>
</g>
<!-- 11 -->
<g id="node12" class="node">
<title>11</title>
<polygon fill="#f2f2f2" stroke="#000000" points="311.349,-.5 311.349,-242.9 1122.115,-242.9 1122.115,-.5 311.349,-.5"/>
<text text-anchor="middle" x="716.732" y="-226.3" font-family="Times,serif" font-size="14.00" fill="#000000">EidooTokenSale</text>
<polyline fill="none" stroke="#000000" points="311.349,-218.1 1122.115,-218.1 "/>
<text text-anchor="start" x="319.349" y="-201.5" font-family="Times,serif" font-size="14.00" fill="#000000">Public:</text>
<text text-anchor="start" x="319.349" y="-184.7" font-family="Times,serif" font-size="14.00" fill="#000000"> &#160;&#160;MAXIMUM_SUPPLY: uint256</text>
<text text-anchor="start" x="319.349" y="-167.9" font-family="Times,serif" font-size="14.00" fill="#000000"> &#160;&#160;LOCKED: uint256[]</text>
<text text-anchor="start" x="319.349" y="-151.1" font-family="Times,serif" font-size="14.00" fill="#000000"> &#160;&#160;POST_ICO: uint256</text>
<text text-anchor="start" x="319.349" y="-134.3" font-family="Times,serif" font-size="14.00" fill="#000000"> &#160;&#160;LOCK_END: uint256[]</text>
<text text-anchor="start" x="319.349" y="-117.5" font-family="Times,serif" font-size="14.00" fill="#000000"> &#160;&#160;claimed: mapping(address=&gt;bool)</text>
<text text-anchor="start" x="319.349" y="-100.7" font-family="Times,serif" font-size="14.00" fill="#000000"> &#160;&#160;timeLocks: TokenTimelock[]</text>
<polyline fill="none" stroke="#000000" points="311.349,-92.5 1122.115,-92.5 "/>
<text text-anchor="start" x="319.349" y="-75.9" font-family="Times,serif" font-size="14.00" fill="#000000">Public:</text>
<text text-anchor="start" x="319.349" y="-59.1" font-family="Times,serif" font-size="14.00" fill="#000000"> &#160;&#160;&#160;&lt;&lt;event&gt;&gt; ClaimTokens(to: address, amount: uint)</text>
<text text-anchor="start" x="319.349" y="-42.3" font-family="Times,serif" font-size="14.00" fill="#000000"> &#160;&#160;&#160;&lt;&lt;modifier&gt;&gt; beforeStart()</text>
<text text-anchor="start" x="319.349" y="-25.5" font-family="Times,serif" font-size="14.00" fill="#000000"> &#160;&#160;&#160;constructor(_startBlock: uint256, _endBlock: uint256, _rate: uint256, _tokenStartBlock: uint, _tokenLockEndBlock: uint, _wallet: address)</text>
<text text-anchor="start" x="319.349" y="-8.7" font-family="Times,serif" font-size="14.00" fill="#000000"> &#160;&#160;&#160;claimTokens(buyers: address[], amounts: uint[])</text>
</g>
<!-- 11&#45;&gt;6 -->
<g id="edge19" class="edge">
<title>11&#45;&gt;6</title>
<path fill="none" stroke="#000000" stroke-dasharray="5,2" d="M1113.0611,-242.9383C1149.5686,-254.9406 1185.9039,-267.2016 1220.732,-279.4 1299.0499,-306.8306 1384.205,-339.2706 1458.7373,-368.5502"/>
<polygon fill="#000000" stroke="#000000" points="1457.6537,-371.885 1468.2409,-372.2891 1460.2165,-365.3709 1457.6537,-371.885"/>
</g>
<!-- 11&#45;&gt;0 -->
<g id="edge15" class="edge">
<title>11&#45;&gt;0</title>
<path fill="none" stroke="#000000" d="M710.6519,-243.1234C708.0567,-345.5579 710.2237,-495.537 735.732,-623.6 741.8564,-654.3475 752.2317,-686.6984 763.1867,-715.8694"/>
<polygon fill="none" stroke="#000000" points="753.4279,-719.7448 774.1991,-743.8033 772.9646,-712.0428 753.4279,-719.7448"/>
</g>
<!-- 11&#45;&gt;4 -->
<g id="edge16" class="edge">
<title>11&#45;&gt;4</title>
<path fill="none" stroke="#000000" d="M585.6873,-243.1003C543.9234,-281.7906 498.4453,-323.9217 459.3792,-360.1128"/>
<polygon fill="none" stroke="#000000" points="452.0669,-352.5736 437.1951,-380.6642 466.3385,-367.9789 452.0669,-352.5736"/>
</g>
<!-- 11&#45;&gt;1 -->
<g id="edge17" class="edge">
<title>11&#45;&gt;1</title>
<path fill="none" stroke="#000000" stroke-dasharray="5,2" d="M1122.2632,-232.5176C1152.527,-247.2289 1175.894,-262.9525 1187.732,-279.4 1277.0967,-403.5618 1280.4707,-501.9377 1187.732,-623.6 1151.1278,-671.6204 1095.4924,-613.3025 1056.732,-659.6 1039.899,-679.7062 1015.9378,-1024.7714 1005.2485,-1191.9392"/>
<polygon fill="#000000" stroke="#000000" points="1001.7533,-1191.7548 1004.6102,-1201.9572 1008.7391,-1192.2 1001.7533,-1191.7548"/>
</g>
<!-- 11&#45;&gt;10 -->
<g id="edge18" class="edge">
<title>11&#45;&gt;10</title>
<path fill="none" stroke="#000000" stroke-dasharray="5,2" d="M806.9172,-243.1003C813.8458,-252.4271 820.9229,-261.9538 828.051,-271.5491"/>
<polygon fill="#000000" stroke="#000000" points="825.2755,-273.6821 834.0484,-279.6223 830.8946,-269.5077 825.2755,-273.6821"/>
</g>
</g>
</svg>
