<?xml version="1.0" encoding="UTF-8" standalone="no"?>
<!DOCTYPE svg PUBLIC "-//W3C//DTD SVG 1.1//EN"
 "http://www.w3.org/Graphics/SVG/1.1/DTD/svg11.dtd">
<!-- Generated by graphviz version 2.40.1 (20161225.0304)
 -->
<!-- Title: UmlClassDiagram Pages: 1 -->
<svg width="1645pt" height="1688pt"
 viewBox="0.00 0.00 1644.80 1688.20" xmlns="http://www.w3.org/2000/svg" xmlns:xlink="http://www.w3.org/1999/xlink">
<g id="graph0" class="graph" transform="scale(1 1) rotate(0) translate(4 1684.2)">
<title>UmlClassDiagram</title>
<polygon fill="#ffffff" stroke="transparent" points="-4,4 -4,-1684.2 1640.8025,-1684.2 1640.8025,4 -4,4"/>
<!-- 0 -->
<g id="node1" class="node">
<title>0</title>
<polygon fill="#f2f2f2" stroke="#000000" points="50.787,-1325.9 50.787,-1467.5 244.4792,-1467.5 244.4792,-1325.9 50.787,-1325.9"/>
<text text-anchor="middle" x="147.6331" y="-1450.9" font-family="Times,serif" font-size="14.00" fill="#000000">SafeMath</text>
<polyline fill="none" stroke="#000000" points="50.787,-1442.7 244.4792,-1442.7 "/>
<text text-anchor="middle" x="147.6331" y="-1426.1" font-family="Times,serif" font-size="14.00" fill="#000000"> </text>
<polyline fill="none" stroke="#000000" points="50.787,-1417.9 244.4792,-1417.9 "/>
<text text-anchor="start" x="58.787" y="-1401.3" font-family="Times,serif" font-size="14.00" fill="#000000">Internal:</text>
<text text-anchor="start" x="58.787" y="-1384.5" font-family="Times,serif" font-size="14.00" fill="#000000"> &#160;&#160;&#160;safeMul(a: uint, b: uint): uint</text>
<text text-anchor="start" x="58.787" y="-1367.7" font-family="Times,serif" font-size="14.00" fill="#000000"> &#160;&#160;&#160;safeSub(a: uint, b: uint): uint</text>
<text text-anchor="start" x="58.787" y="-1350.9" font-family="Times,serif" font-size="14.00" fill="#000000"> &#160;&#160;&#160;safeAdd(a: uint, b: uint): uint</text>
<text text-anchor="start" x="58.787" y="-1334.1" font-family="Times,serif" font-size="14.00" fill="#000000"> &#160;&#160;&#160;assert(assertion: bool)</text>
</g>
<!-- 1 -->
<g id="node2" class="node">
<title>1</title>
<polygon fill="#f2f2f2" stroke="#000000" points="533.2168,-1504.5 533.2168,-1679.7 768.0494,-1679.7 768.0494,-1504.5 533.2168,-1504.5"/>
<text text-anchor="middle" x="650.6331" y="-1663.1" font-family="Times,serif" font-size="14.00" fill="#000000">Owned</text>
<polyline fill="none" stroke="#000000" points="533.2168,-1654.9 768.0494,-1654.9 "/>
<text text-anchor="start" x="541.2168" y="-1638.3" font-family="Times,serif" font-size="14.00" fill="#000000">Public:</text>
<text text-anchor="start" x="541.2168" y="-1621.5" font-family="Times,serif" font-size="14.00" fill="#000000"> &#160;&#160;owner: address</text>
<text text-anchor="start" x="541.2168" y="-1604.7" font-family="Times,serif" font-size="14.00" fill="#000000"> &#160;&#160;newOwner: address</text>
<polyline fill="none" stroke="#000000" points="533.2168,-1596.5 768.0494,-1596.5 "/>
<text text-anchor="start" x="541.2168" y="-1579.9" font-family="Times,serif" font-size="14.00" fill="#000000">Public:</text>
<text text-anchor="start" x="541.2168" y="-1563.1" font-family="Times,serif" font-size="14.00" fill="#000000"> &#160;&#160;&#160;&lt;&lt;modifier&gt;&gt; onlyOwner()</text>
<text text-anchor="start" x="541.2168" y="-1546.3" font-family="Times,serif" font-size="14.00" fill="#000000"> &#160;&#160;&#160;constructor()</text>
<text text-anchor="start" x="541.2168" y="-1529.5" font-family="Times,serif" font-size="14.00" fill="#000000"> &#160;&#160;&#160;changeOwner(_newOwner: address)</text>
<text text-anchor="start" x="541.2168" y="-1512.7" font-family="Times,serif" font-size="14.00" fill="#000000"> &#160;&#160;&#160;acceptOwnership()</text>
</g>
<!-- 2 -->
<g id="node3" class="node">
<title>2</title>
<polygon fill="#f2f2f2" stroke="#000000" points="492.3351,-1334.3 492.3351,-1459.1 684.9311,-1459.1 684.9311,-1334.3 492.3351,-1334.3"/>
<text text-anchor="middle" x="588.6331" y="-1442.5" font-family="Times,serif" font-size="14.00" fill="#000000">Finalizable</text>
<polyline fill="none" stroke="#000000" points="492.3351,-1434.3 684.9311,-1434.3 "/>
<text text-anchor="start" x="500.3351" y="-1417.7" font-family="Times,serif" font-size="14.00" fill="#000000">Public:</text>
<text text-anchor="start" x="500.3351" y="-1400.9" font-family="Times,serif" font-size="14.00" fill="#000000"> &#160;&#160;finalized: bool</text>
<polyline fill="none" stroke="#000000" points="492.3351,-1392.7 684.9311,-1392.7 "/>
<text text-anchor="start" x="500.3351" y="-1376.1" font-family="Times,serif" font-size="14.00" fill="#000000">Public:</text>
<text text-anchor="start" x="500.3351" y="-1359.3" font-family="Times,serif" font-size="14.00" fill="#000000"> &#160;&#160;&#160;&lt;&lt;modifier&gt;&gt; notFinalized()</text>
<text text-anchor="start" x="500.3351" y="-1342.5" font-family="Times,serif" font-size="14.00" fill="#000000"> &#160;&#160;&#160;finalize()</text>
</g>
<!-- 2&#45;&gt;1 -->
<g id="edge1" class="edge">
<title>2&#45;&gt;1</title>
<path fill="none" stroke="#000000" d="M608.5061,-1459.3321C610.1708,-1464.5786 611.8849,-1469.9807 613.6252,-1475.4656"/>
<polygon fill="none" stroke="#000000" points="603.6575,-1478.7693 622.739,-1504.1888 623.6741,-1472.4181 603.6575,-1478.7693"/>
</g>
<!-- 3 -->
<g id="node4" class="node">
<title>3</title>
<polygon fill="#f2f2f2" stroke="#000000" points="778.7786,-1038.1 778.7786,-1162.9 1112.4876,-1162.9 1112.4876,-1038.1 778.7786,-1038.1"/>
<text text-anchor="middle" x="945.6331" y="-1146.3" font-family="Times,serif" font-size="14.00" fill="#000000">&lt;&lt;Abstract&gt;&gt;</text>
<text text-anchor="middle" x="945.6331" y="-1129.5" font-family="Times,serif" font-size="14.00" fill="#000000">IToken</text>
<polyline fill="none" stroke="#000000" points="778.7786,-1121.3 1112.4876,-1121.3 "/>
<text text-anchor="middle" x="945.6331" y="-1104.7" font-family="Times,serif" font-size="14.00" fill="#000000"> </text>
<polyline fill="none" stroke="#000000" points="778.7786,-1096.5 1112.4876,-1096.5 "/>
<text text-anchor="start" x="786.7786" y="-1079.9" font-family="Times,serif" font-size="14.00" fill="#000000">Public:</text>
<text text-anchor="start" x="786.7786" y="-1063.1" font-family="Times,serif" font-size="14.00" fill="#000000"> &#160;&#160;&#160;&lt;&lt;abstract&gt;&gt; transfer(_to: address, _value: uint): bool</text>
<text text-anchor="start" x="786.7786" y="-1046.3" font-family="Times,serif" font-size="14.00" fill="#000000"> &#160;&#160;&#160;&lt;&lt;abstract&gt;&gt; balanceOf(owner: address): uint</text>
</g>
<!-- 4 -->
<g id="node5" class="node">
<title>4</title>
<polygon fill="#f2f2f2" stroke="#000000" points="778.7891,-666.3 778.7891,-774.3 1210.4771,-774.3 1210.4771,-666.3 778.7891,-666.3"/>
<text text-anchor="middle" x="994.6331" y="-757.7" font-family="Times,serif" font-size="14.00" fill="#000000">TokenReceivable</text>
<polyline fill="none" stroke="#000000" points="778.7891,-749.5 1210.4771,-749.5 "/>
<text text-anchor="middle" x="994.6331" y="-732.9" font-family="Times,serif" font-size="14.00" fill="#000000"> </text>
<polyline fill="none" stroke="#000000" points="778.7891,-724.7 1210.4771,-724.7 "/>
<text text-anchor="start" x="786.7891" y="-708.1" font-family="Times,serif" font-size="14.00" fill="#000000">Public:</text>
<text text-anchor="start" x="786.7891" y="-691.3" font-family="Times,serif" font-size="14.00" fill="#000000"> &#160;&#160;&#160;&lt;&lt;event&gt;&gt; logTokenTransfer(token: address, to: address, amount: uint)</text>
<text text-anchor="start" x="786.7891" y="-674.5" font-family="Times,serif" font-size="14.00" fill="#000000"> &#160;&#160;&#160;claimTokens(_token: address, _to: address): bool</text>
</g>
<!-- 4&#45;&gt;1 -->
<g id="edge2" class="edge">
<title>4&#45;&gt;1</title>
<path fill="none" stroke="#000000" d="M1043.1583,-774.3853C1072.1297,-810.4425 1106.2027,-860.4589 1121.6331,-911.6 1170.1357,-1072.3533 1202.1036,-1142.0275 1121.6331,-1289.4 1052.9953,-1415.1022 907.3394,-1496.3815 796.0604,-1542.7325"/>
<polygon fill="none" stroke="#000000" points="792.1457,-1532.9895 768.2166,-1553.9096 799.9688,-1552.478 792.1457,-1532.9895"/>
</g>
<!-- 4&#45;&gt;3 -->
<g id="edge3" class="edge">
<title>4&#45;&gt;3</title>
<path fill="none" stroke="#000000" stroke-dasharray="5,2" d="M987.6646,-774.3696C979.0973,-840.8448 964.5239,-953.9229 954.9877,-1027.9158"/>
<polygon fill="#000000" stroke="#000000" points="951.4837,-1027.7228 953.6767,-1038.0882 958.4263,-1028.6176 951.4837,-1027.7228"/>
</g>
<!-- 5 -->
<g id="node6" class="node">
<title>5</title>
<polygon fill="#f2f2f2" stroke="#000000" points="1228.4637,-666.3 1228.4637,-774.3 1636.8025,-774.3 1636.8025,-666.3 1228.4637,-666.3"/>
<text text-anchor="middle" x="1432.6331" y="-757.7" font-family="Times,serif" font-size="14.00" fill="#000000">EventDefinitions</text>
<polyline fill="none" stroke="#000000" points="1228.4637,-749.5 1636.8025,-749.5 "/>
<text text-anchor="middle" x="1432.6331" y="-732.9" font-family="Times,serif" font-size="14.00" fill="#000000"> </text>
<polyline fill="none" stroke="#000000" points="1228.4637,-724.7 1636.8025,-724.7 "/>
<text text-anchor="start" x="1236.4637" y="-708.1" font-family="Times,serif" font-size="14.00" fill="#000000">Public:</text>
<text text-anchor="start" x="1236.4637" y="-691.3" font-family="Times,serif" font-size="14.00" fill="#000000"> &#160;&#160;&#160;&lt;&lt;event&gt;&gt; Transfer(from: address, to: address, value: uint)</text>
<text text-anchor="start" x="1236.4637" y="-674.5" font-family="Times,serif" font-size="14.00" fill="#000000"> &#160;&#160;&#160;&lt;&lt;event&gt;&gt; Approval(owner: address, spender: address, value: uint)</text>
</g>
<!-- 6 -->
<g id="node7" class="node">
<title>6</title>
<polygon fill="#f2f2f2" stroke="#000000" points="517.9457,-.5 517.9457,-528.5 983.3205,-528.5 983.3205,-.5 517.9457,-.5"/>
<text text-anchor="middle" x="750.6331" y="-511.9" font-family="Times,serif" font-size="14.00" fill="#000000">Token</text>
<polyline fill="none" stroke="#000000" points="517.9457,-503.7 983.3205,-503.7 "/>
<text text-anchor="start" x="525.9457" y="-487.1" font-family="Times,serif" font-size="14.00" fill="#000000">Public:</text>
<text text-anchor="start" x="525.9457" y="-470.3" font-family="Times,serif" font-size="14.00" fill="#000000"> &#160;&#160;name: string</text>
<text text-anchor="start" x="525.9457" y="-453.5" font-family="Times,serif" font-size="14.00" fill="#000000"> &#160;&#160;decimals: uint8</text>
<text text-anchor="start" x="525.9457" y="-436.7" font-family="Times,serif" font-size="14.00" fill="#000000"> &#160;&#160;symbol: string</text>
<text text-anchor="start" x="525.9457" y="-419.9" font-family="Times,serif" font-size="14.00" fill="#000000"> &#160;&#160;controller: Controller</text>
<text text-anchor="start" x="525.9457" y="-403.1" font-family="Times,serif" font-size="14.00" fill="#000000"> &#160;&#160;owner: address</text>
<text text-anchor="start" x="525.9457" y="-386.3" font-family="Times,serif" font-size="14.00" fill="#000000"> &#160;&#160;multilocked: bool</text>
<text text-anchor="start" x="525.9457" y="-369.5" font-family="Times,serif" font-size="14.00" fill="#000000"> &#160;&#160;motd: string</text>
<polyline fill="none" stroke="#000000" points="517.9457,-361.3 983.3205,-361.3 "/>
<text text-anchor="start" x="525.9457" y="-344.7" font-family="Times,serif" font-size="14.00" fill="#000000">Public:</text>
<text text-anchor="start" x="525.9457" y="-327.9" font-family="Times,serif" font-size="14.00" fill="#000000"> &#160;&#160;&#160;&lt;&lt;event&gt;&gt; Motd(message: string)</text>
<text text-anchor="start" x="525.9457" y="-311.1" font-family="Times,serif" font-size="14.00" fill="#000000"> &#160;&#160;&#160;&lt;&lt;modifier&gt;&gt; onlyPayloadSize(numwords: uint)</text>
<text text-anchor="start" x="525.9457" y="-294.3" font-family="Times,serif" font-size="14.00" fill="#000000"> &#160;&#160;&#160;&lt;&lt;modifier&gt;&gt; onlyController()</text>
<text text-anchor="start" x="525.9457" y="-277.5" font-family="Times,serif" font-size="14.00" fill="#000000"> &#160;&#160;&#160;&lt;&lt;modifier&gt;&gt; notMultilocked()</text>
<text text-anchor="start" x="525.9457" y="-260.7" font-family="Times,serif" font-size="14.00" fill="#000000"> &#160;&#160;&#160;controllerTransfer(_from: address, _to: address, _value: uint)</text>
<text text-anchor="start" x="525.9457" y="-243.9" font-family="Times,serif" font-size="14.00" fill="#000000"> &#160;&#160;&#160;allowance(_owner: address, _spender: address): uint</text>
<text text-anchor="start" x="525.9457" y="-227.1" font-family="Times,serif" font-size="14.00" fill="#000000"> &#160;&#160;&#160;transferFrom(_from: address, _to: address, _value: uint): (success: bool)</text>
<text text-anchor="start" x="525.9457" y="-210.3" font-family="Times,serif" font-size="14.00" fill="#000000"> &#160;&#160;&#160;approve(_spender: address, _value: uint): (success: bool)</text>
<text text-anchor="start" x="525.9457" y="-193.5" font-family="Times,serif" font-size="14.00" fill="#000000"> &#160;&#160;&#160;increaseApproval(_spender: address, _addedValue: uint): (success: bool)</text>
<text text-anchor="start" x="525.9457" y="-176.7" font-family="Times,serif" font-size="14.00" fill="#000000"> &#160;&#160;&#160;decreaseApproval(_spender: address, _subtractedValue: uint): (success: bool)</text>
<text text-anchor="start" x="525.9457" y="-159.9" font-family="Times,serif" font-size="14.00" fill="#000000"> &#160;&#160;&#160;setController(_c: address)</text>
<text text-anchor="start" x="525.9457" y="-143.1" font-family="Times,serif" font-size="14.00" fill="#000000"> &#160;&#160;&#160;burn(_amount: uint)</text>
<text text-anchor="start" x="525.9457" y="-126.3" font-family="Times,serif" font-size="14.00" fill="#000000"> &#160;&#160;&#160;transfer(_to: address, _value: uint): (success: bool)</text>
<text text-anchor="start" x="525.9457" y="-109.5" font-family="Times,serif" font-size="14.00" fill="#000000"> &#160;&#160;&#160;controllerApprove(_owner: address, _spender: address, _value: uint)</text>
<text text-anchor="start" x="525.9457" y="-92.7" font-family="Times,serif" font-size="14.00" fill="#000000"> &#160;&#160;&#160;totalSupply(): uint</text>
<text text-anchor="start" x="525.9457" y="-75.9" font-family="Times,serif" font-size="14.00" fill="#000000"> &#160;&#160;&#160;lockMultis()</text>
<text text-anchor="start" x="525.9457" y="-59.1" font-family="Times,serif" font-size="14.00" fill="#000000"> &#160;&#160;&#160;multiTransfer(bits: uint[])</text>
<text text-anchor="start" x="525.9457" y="-42.3" font-family="Times,serif" font-size="14.00" fill="#000000"> &#160;&#160;&#160;multiApprove(bits: uint[])</text>
<text text-anchor="start" x="525.9457" y="-25.5" font-family="Times,serif" font-size="14.00" fill="#000000"> &#160;&#160;&#160;balanceOf(a: address): uint</text>
<text text-anchor="start" x="525.9457" y="-8.7" font-family="Times,serif" font-size="14.00" fill="#000000"> &#160;&#160;&#160;setMotd(_m: string)</text>
</g>
<!-- 6&#45;&gt;0 -->
<g id="edge6" class="edge">
<title>6&#45;&gt;0</title>
<path fill="none" stroke="#000000" d="M517.8091,-326.7844C390.7308,-372.4919 241.0919,-447.5215 149.6331,-565 -49.2308,-820.4398 -22.6131,-980.3159 73.6331,-1289.4 74.6002,-1292.5058 75.692,-1295.6012 76.8915,-1298.6774"/>
<polygon fill="none" stroke="#000000" points="67.4759,-1303.3247 90.1334,-1325.6157 86.322,-1294.0606 67.4759,-1303.3247"/>
</g>
<!-- 6&#45;&gt;2 -->
<g id="edge4" class="edge">
<title>6&#45;&gt;2</title>
<path fill="none" stroke="#000000" d="M752.4322,-528.5651C750.6124,-786.1875 737.44,-1157.9099 679.6331,-1289.4 676.6552,-1296.1736 673.1079,-1302.8466 669.1675,-1309.3479"/>
<polygon fill="none" stroke="#000000" points="660.4024,-1303.5599 651.8135,-1334.1619 677.6114,-1315.5953 660.4024,-1303.5599"/>
</g>
<!-- 6&#45;&gt;4 -->
<g id="edge5" class="edge">
<title>6&#45;&gt;4</title>
<path fill="none" stroke="#000000" d="M892.039,-528.6509C913.5027,-568.7458 934.1439,-607.3043 951.2129,-639.1898"/>
<polygon fill="none" stroke="#000000" points="942.0982,-644.4113 965.5139,-665.9045 960.6124,-634.5003 942.0982,-644.4113"/>
</g>
<!-- 6&#45;&gt;5 -->
<g id="edge7" class="edge">
<title>6&#45;&gt;5</title>
<path fill="none" stroke="#000000" d="M983.5366,-409.8338C1059.4497,-458.2363 1143.7067,-513.0658 1219.6331,-565 1258.2107,-591.3873 1299.9077,-621.4373 1336.0954,-648.0279"/>
<polygon fill="none" stroke="#000000" points="1330.0861,-656.6429 1360.4573,-666.0154 1342.5598,-639.7489 1330.0861,-656.6429"/>
</g>
<!-- 7 -->
<g id="node8" class="node">
<title>7</title>
<polygon fill="#f2f2f2" stroke="#000000" points="158.77,-565.5 158.77,-875.1 722.4962,-875.1 722.4962,-565.5 158.77,-565.5"/>
<text text-anchor="middle" x="440.6331" y="-858.5" font-family="Times,serif" font-size="14.00" fill="#000000">Controller</text>
<polyline fill="none" stroke="#000000" points="158.77,-850.3 722.4962,-850.3 "/>
<text text-anchor="start" x="166.77" y="-833.7" font-family="Times,serif" font-size="14.00" fill="#000000">Public:</text>
<text text-anchor="start" x="166.77" y="-816.9" font-family="Times,serif" font-size="14.00" fill="#000000"> &#160;&#160;ledger: Ledger</text>
<text text-anchor="start" x="166.77" y="-800.1" font-family="Times,serif" font-size="14.00" fill="#000000"> &#160;&#160;token: address</text>
<polyline fill="none" stroke="#000000" points="158.77,-791.9 722.4962,-791.9 "/>
<text text-anchor="start" x="166.77" y="-775.3" font-family="Times,serif" font-size="14.00" fill="#000000">Public:</text>
<text text-anchor="start" x="166.77" y="-758.5" font-family="Times,serif" font-size="14.00" fill="#000000"> &#160;&#160;&#160;&lt;&lt;modifier&gt;&gt; onlyToken()</text>
<text text-anchor="start" x="166.77" y="-741.7" font-family="Times,serif" font-size="14.00" fill="#000000"> &#160;&#160;&#160;transfer(_from: address, _to: address, _value: uint): (success: bool)</text>
<text text-anchor="start" x="166.77" y="-724.9" font-family="Times,serif" font-size="14.00" fill="#000000"> &#160;&#160;&#160;setToken(_token: address)</text>
<text text-anchor="start" x="166.77" y="-708.1" font-family="Times,serif" font-size="14.00" fill="#000000"> &#160;&#160;&#160;totalSupply(): uint</text>
<text text-anchor="start" x="166.77" y="-691.3" font-family="Times,serif" font-size="14.00" fill="#000000"> &#160;&#160;&#160;balanceOf(_a: address): uint</text>
<text text-anchor="start" x="166.77" y="-674.5" font-family="Times,serif" font-size="14.00" fill="#000000"> &#160;&#160;&#160;allowance(_owner: address, _spender: address): uint</text>
<text text-anchor="start" x="166.77" y="-657.7" font-family="Times,serif" font-size="14.00" fill="#000000"> &#160;&#160;&#160;setLedger(_ledger: address)</text>
<text text-anchor="start" x="166.77" y="-640.9" font-family="Times,serif" font-size="14.00" fill="#000000"> &#160;&#160;&#160;transferFrom(_spender: address, _from: address, _to: address, _value: uint): (success: bool)</text>
<text text-anchor="start" x="166.77" y="-624.1" font-family="Times,serif" font-size="14.00" fill="#000000"> &#160;&#160;&#160;approve(_owner: address, _spender: address, _value: uint): (success: bool)</text>
<text text-anchor="start" x="166.77" y="-607.3" font-family="Times,serif" font-size="14.00" fill="#000000"> &#160;&#160;&#160;increaseApproval(_owner: address, _spender: address, _addedValue: uint): (success: bool)</text>
<text text-anchor="start" x="166.77" y="-590.5" font-family="Times,serif" font-size="14.00" fill="#000000"> &#160;&#160;&#160;decreaseApproval(_owner: address, _spender: address, _subtractedValue: uint): (success: bool)</text>
<text text-anchor="start" x="166.77" y="-573.7" font-family="Times,serif" font-size="14.00" fill="#000000"> &#160;&#160;&#160;burn(_owner: address, _amount: uint)</text>
</g>
<!-- 6&#45;&gt;7 -->
<g id="edge8" class="edge">
<title>6&#45;&gt;7</title>
<path fill="none" stroke="#000000" d="M570.978,-528.6509C564.528,-538.1345 558.1364,-547.5321 551.8496,-556.7759"/>
<polygon fill="#000000" stroke="#000000" points="548.8364,-554.9826 546.1067,-565.2198 554.6246,-558.9193 548.8364,-554.9826"/>
</g>
<!-- 7&#45;&gt;1 -->
<g id="edge9" class="edge">
<title>7&#45;&gt;1</title>
<path fill="none" stroke="#000000" d="M657.018,-875.1956C665.6097,-886.7497 673.2602,-898.8913 679.6331,-911.6 790.5162,-1132.7232 734.6966,-1224.065 693.6331,-1468 693.2412,-1470.3276 692.8108,-1472.6699 692.3455,-1475.0218"/>
<polygon fill="none" stroke="#000000" points="682.1308,-1472.5887 685.0827,-1504.2358 702.5105,-1477.6553 682.1308,-1472.5887"/>
</g>
<!-- 7&#45;&gt;2 -->
<g id="edge10" class="edge">
<title>7&#45;&gt;2</title>
<path fill="none" stroke="#000000" d="M635.0639,-875.177C642.9842,-886.7959 649.9564,-898.9507 655.6331,-911.6 690.0072,-988.1961 678.7612,-1208.693 655.6331,-1289.4 653.9079,-1295.4202 651.7357,-1301.4306 649.2375,-1307.3587"/>
<polygon fill="none" stroke="#000000" points="639.8177,-1302.7186 635.6254,-1334.2254 658.5505,-1312.2097 639.8177,-1302.7186"/>
</g>
<!-- 8 -->
<g id="node9" class="node">
<title>8</title>
<polygon fill="#f2f2f2" stroke="#000000" points="82.77,-912.1 82.77,-1288.9 646.4962,-1288.9 646.4962,-912.1 82.77,-912.1"/>
<text text-anchor="middle" x="364.6331" y="-1272.3" font-family="Times,serif" font-size="14.00" fill="#000000">Ledger</text>
<polyline fill="none" stroke="#000000" points="82.77,-1264.1 646.4962,-1264.1 "/>
<text text-anchor="start" x="90.77" y="-1247.5" font-family="Times,serif" font-size="14.00" fill="#000000">Public:</text>
<text text-anchor="start" x="90.77" y="-1230.7" font-family="Times,serif" font-size="14.00" fill="#000000"> &#160;&#160;controller: address</text>
<text text-anchor="start" x="90.77" y="-1213.9" font-family="Times,serif" font-size="14.00" fill="#000000"> &#160;&#160;balanceOf: mapping(address=&gt;uint)</text>
<text text-anchor="start" x="90.77" y="-1197.1" font-family="Times,serif" font-size="14.00" fill="#000000"> &#160;&#160;allowance: mapping(address=&gt;mapping(address=&gt;uint))</text>
<text text-anchor="start" x="90.77" y="-1180.3" font-family="Times,serif" font-size="14.00" fill="#000000"> &#160;&#160;totalSupply: uint</text>
<text text-anchor="start" x="90.77" y="-1163.5" font-family="Times,serif" font-size="14.00" fill="#000000"> &#160;&#160;mintingStopped: bool</text>
<polyline fill="none" stroke="#000000" points="82.77,-1155.3 646.4962,-1155.3 "/>
<text text-anchor="start" x="90.77" y="-1138.7" font-family="Times,serif" font-size="14.00" fill="#000000">Public:</text>
<text text-anchor="start" x="90.77" y="-1121.9" font-family="Times,serif" font-size="14.00" fill="#000000"> &#160;&#160;&#160;&lt;&lt;event&gt;&gt; LogMint(owner: address, amount: uint)</text>
<text text-anchor="start" x="90.77" y="-1105.1" font-family="Times,serif" font-size="14.00" fill="#000000"> &#160;&#160;&#160;&lt;&lt;event&gt;&gt; LogMintingStopped()</text>
<text text-anchor="start" x="90.77" y="-1088.3" font-family="Times,serif" font-size="14.00" fill="#000000"> &#160;&#160;&#160;&lt;&lt;modifier&gt;&gt; onlyController()</text>
<text text-anchor="start" x="90.77" y="-1071.5" font-family="Times,serif" font-size="14.00" fill="#000000"> &#160;&#160;&#160;&lt;&lt;modifier&gt;&gt; mintingActive()</text>
<text text-anchor="start" x="90.77" y="-1054.7" font-family="Times,serif" font-size="14.00" fill="#000000"> &#160;&#160;&#160;decreaseApproval(_owner: address, _spender: address, _subtractedValue: uint): (success: bool)</text>
<text text-anchor="start" x="90.77" y="-1037.9" font-family="Times,serif" font-size="14.00" fill="#000000"> &#160;&#160;&#160;increaseApproval(_owner: address, _spender: address, _addedValue: uint): (success: bool)</text>
<text text-anchor="start" x="90.77" y="-1021.1" font-family="Times,serif" font-size="14.00" fill="#000000"> &#160;&#160;&#160;setController(_controller: address)</text>
<text text-anchor="start" x="90.77" y="-1004.3" font-family="Times,serif" font-size="14.00" fill="#000000"> &#160;&#160;&#160;transfer(_from: address, _to: address, _value: uint): (success: bool)</text>
<text text-anchor="start" x="90.77" y="-987.5" font-family="Times,serif" font-size="14.00" fill="#000000"> &#160;&#160;&#160;transferFrom(_spender: address, _from: address, _to: address, _value: uint): (success: bool)</text>
<text text-anchor="start" x="90.77" y="-970.7" font-family="Times,serif" font-size="14.00" fill="#000000"> &#160;&#160;&#160;mint(_a: address, _amount: uint)</text>
<text text-anchor="start" x="90.77" y="-953.9" font-family="Times,serif" font-size="14.00" fill="#000000"> &#160;&#160;&#160;stopMinting()</text>
<text text-anchor="start" x="90.77" y="-937.1" font-family="Times,serif" font-size="14.00" fill="#000000"> &#160;&#160;&#160;approve(_owner: address, _spender: address, _value: uint): (success: bool)</text>
<text text-anchor="start" x="90.77" y="-920.3" font-family="Times,serif" font-size="14.00" fill="#000000"> &#160;&#160;&#160;burn(_owner: address, _amount: uint)</text>
</g>
<!-- 7&#45;&gt;8 -->
<g id="edge11" class="edge">
<title>7&#45;&gt;8</title>
<path fill="none" stroke="#000000" d="M409.6662,-875.216C407.8867,-884.1182 406.0858,-893.127 404.2801,-902.1607"/>
<polygon fill="#000000" stroke="#000000" points="400.8476,-901.477 402.3194,-911.9691 407.7118,-902.8492 400.8476,-901.477"/>
</g>
<!-- 8&#45;&gt;0 -->
<g id="edge13" class="edge">
<title>8&#45;&gt;0</title>
<path fill="none" stroke="#000000" d="M226.5889,-1288.9271C223.4896,-1293.1576 220.4251,-1297.3405 217.4067,-1301.4606"/>
<polygon fill="none" stroke="#000000" points="208.7994,-1295.4425 199.5399,-1325.8483 225.7397,-1307.8532 208.7994,-1295.4425"/>
</g>
<!-- 8&#45;&gt;1 -->
<g id="edge12" class="edge">
<title>8&#45;&gt;1</title>
<path fill="none" stroke="#000000" d="M401.5741,-1289.0058C419.5723,-1349.9239 445.8046,-1415.2843 483.6331,-1468 491.486,-1478.9434 500.5945,-1489.3319 510.426,-1499.0948"/>
<polygon fill="none" stroke="#000000" points="503.6113,-1507.089 532.8976,-1519.4409 517.7061,-1491.5219 503.6113,-1507.089"/>
</g>
<!-- 8&#45;&gt;2 -->
<g id="edge14" class="edge">
<title>8&#45;&gt;2</title>
<path fill="none" stroke="#000000" d="M507.1303,-1288.9271C512.643,-1296.2168 518.0491,-1303.3653 523.2893,-1310.2945"/>
<polygon fill="none" stroke="#000000" points="514.9627,-1316.6918 541.4331,-1334.2865 531.7124,-1304.025 514.9627,-1316.6918"/>
</g>
</g>
</svg>
