<?xml version="1.0" encoding="UTF-8" standalone="no"?>
<!DOCTYPE svg PUBLIC "-//W3C//DTD SVG 1.1//EN"
 "http://www.w3.org/Graphics/SVG/1.1/DTD/svg11.dtd">
<!-- Generated by graphviz version 2.40.1 (20161225.0304)
 -->
<!-- Title: UmlClassDiagram Pages: 1 -->
<svg width="1180pt" height="983pt"
 viewBox="0.00 0.00 1180.32 982.60" xmlns="http://www.w3.org/2000/svg" xmlns:xlink="http://www.w3.org/1999/xlink">
<g id="graph0" class="graph" transform="scale(1 1) rotate(0) translate(4 978.6)">
<title>UmlClassDiagram</title>
<polygon fill="#ffffff" stroke="transparent" points="-4,4 -4,-978.6 1176.3236,-978.6 1176.3236,4 -4,4"/>
<!-- 0 -->
<g id="node1" class="node">
<title>0</title>
<polygon fill="#f2f2f2" stroke="#000000" points="41.5745,-416.5 41.5745,-574.9 526.4485,-574.9 526.4485,-416.5 41.5745,-416.5"/>
<text text-anchor="middle" x="284.0115" y="-558.3" font-family="Times,serif" font-size="14.00" fill="#000000">Ownable</text>
<polyline fill="none" stroke="#000000" points="41.5745,-550.1 526.4485,-550.1 "/>
<text text-anchor="start" x="49.5745" y="-533.5" font-family="Times,serif" font-size="14.00" fill="#000000">Public:</text>
<text text-anchor="start" x="49.5745" y="-516.7" font-family="Times,serif" font-size="14.00" fill="#000000"> &#160;&#160;owner: address</text>
<polyline fill="none" stroke="#000000" points="41.5745,-508.5 526.4485,-508.5 "/>
<text text-anchor="start" x="49.5745" y="-491.9" font-family="Times,serif" font-size="14.00" fill="#000000">Public:</text>
<text text-anchor="start" x="49.5745" y="-475.1" font-family="Times,serif" font-size="14.00" fill="#000000"> &#160;&#160;&#160;&lt;&lt;event&gt;&gt; OwnershipTransferred(previousOwner: address, newOwner: address)</text>
<text text-anchor="start" x="49.5745" y="-458.3" font-family="Times,serif" font-size="14.00" fill="#000000"> &#160;&#160;&#160;&lt;&lt;modifier&gt;&gt; onlyOwner()</text>
<text text-anchor="start" x="49.5745" y="-441.5" font-family="Times,serif" font-size="14.00" fill="#000000"> &#160;&#160;&#160;constructor()</text>
<text text-anchor="start" x="49.5745" y="-424.7" font-family="Times,serif" font-size="14.00" fill="#000000"> &#160;&#160;&#160;transferOwnership(newOwner: address)</text>
</g>
<!-- 1 -->
<g id="node2" class="node">
<title>1</title>
<polygon fill="#f2f2f2" stroke="#000000" points="525.2811,-815.7 525.2811,-974.1 908.7419,-974.1 908.7419,-815.7 525.2811,-815.7"/>
<text text-anchor="middle" x="717.0115" y="-957.5" font-family="Times,serif" font-size="14.00" fill="#000000">&lt;&lt;Abstract&gt;&gt;</text>
<text text-anchor="middle" x="717.0115" y="-940.7" font-family="Times,serif" font-size="14.00" fill="#000000">ERC20Basic</text>
<polyline fill="none" stroke="#000000" points="525.2811,-932.5 908.7419,-932.5 "/>
<text text-anchor="start" x="533.2811" y="-915.9" font-family="Times,serif" font-size="14.00" fill="#000000">Public:</text>
<text text-anchor="start" x="533.2811" y="-899.1" font-family="Times,serif" font-size="14.00" fill="#000000"> &#160;&#160;totalSupply: uint256</text>
<polyline fill="none" stroke="#000000" points="525.2811,-890.9 908.7419,-890.9 "/>
<text text-anchor="start" x="533.2811" y="-874.3" font-family="Times,serif" font-size="14.00" fill="#000000">Public:</text>
<text text-anchor="start" x="533.2811" y="-857.5" font-family="Times,serif" font-size="14.00" fill="#000000"> &#160;&#160;&#160;&lt;&lt;abstract&gt;&gt; balanceOf(who: address): uint256</text>
<text text-anchor="start" x="533.2811" y="-840.7" font-family="Times,serif" font-size="14.00" fill="#000000"> &#160;&#160;&#160;&lt;&lt;abstract&gt;&gt; transfer(to: address, value: uint256): bool</text>
<text text-anchor="start" x="533.2811" y="-823.9" font-family="Times,serif" font-size="14.00" fill="#000000"> &#160;&#160;&#160;&lt;&lt;event&gt;&gt; Transfer(from: address, to: address, value: uint256)</text>
</g>
<!-- 2 -->
<g id="node3" class="node">
<title>2</title>
<polygon fill="#f2f2f2" stroke="#000000" points="268.0953,-815.7 268.0953,-974.1 499.9277,-974.1 499.9277,-815.7 268.0953,-815.7"/>
<text text-anchor="middle" x="384.0115" y="-957.5" font-family="Times,serif" font-size="14.00" fill="#000000">&lt;&lt;Library&gt;&gt;</text>
<text text-anchor="middle" x="384.0115" y="-940.7" font-family="Times,serif" font-size="14.00" fill="#000000">SafeMath</text>
<polyline fill="none" stroke="#000000" points="268.0953,-932.5 499.9277,-932.5 "/>
<text text-anchor="middle" x="384.0115" y="-915.9" font-family="Times,serif" font-size="14.00" fill="#000000"> </text>
<polyline fill="none" stroke="#000000" points="268.0953,-907.7 499.9277,-907.7 "/>
<text text-anchor="start" x="276.0953" y="-891.1" font-family="Times,serif" font-size="14.00" fill="#000000">Internal:</text>
<text text-anchor="start" x="276.0953" y="-874.3" font-family="Times,serif" font-size="14.00" fill="#000000"> &#160;&#160;&#160;mul(a: uint256, b: uint256): uint256</text>
<text text-anchor="start" x="276.0953" y="-857.5" font-family="Times,serif" font-size="14.00" fill="#000000"> &#160;&#160;&#160;div(a: uint256, b: uint256): uint256</text>
<text text-anchor="start" x="276.0953" y="-840.7" font-family="Times,serif" font-size="14.00" fill="#000000"> &#160;&#160;&#160;sub(a: uint256, b: uint256): uint256</text>
<text text-anchor="start" x="276.0953" y="-823.9" font-family="Times,serif" font-size="14.00" fill="#000000"> &#160;&#160;&#160;add(a: uint256, b: uint256): uint256</text>
</g>
<!-- 3 -->
<g id="node4" class="node">
<title>3</title>
<polygon fill="#f2f2f2" stroke="#000000" points="402.1008,-637.1 402.1008,-761.9 699.9222,-761.9 699.9222,-637.1 402.1008,-637.1"/>
<text text-anchor="middle" x="551.0115" y="-745.3" font-family="Times,serif" font-size="14.00" fill="#000000">BasicToken</text>
<polyline fill="none" stroke="#000000" points="402.1008,-737.1 699.9222,-737.1 "/>
<text text-anchor="start" x="410.1008" y="-720.5" font-family="Times,serif" font-size="14.00" fill="#000000">Public:</text>
<text text-anchor="start" x="410.1008" y="-703.7" font-family="Times,serif" font-size="14.00" fill="#000000"> &#160;&#160;balances: mapping(address=&gt;uint256)</text>
<polyline fill="none" stroke="#000000" points="402.1008,-695.5 699.9222,-695.5 "/>
<text text-anchor="start" x="410.1008" y="-678.9" font-family="Times,serif" font-size="14.00" fill="#000000">Public:</text>
<text text-anchor="start" x="410.1008" y="-662.1" font-family="Times,serif" font-size="14.00" fill="#000000"> &#160;&#160;&#160;transfer(_to: address, _value: uint256): bool</text>
<text text-anchor="start" x="410.1008" y="-645.3" font-family="Times,serif" font-size="14.00" fill="#000000"> &#160;&#160;&#160;balanceOf(_owner: address): (balance: uint256)</text>
</g>
<!-- 3&#45;&gt;1 -->
<g id="edge1" class="edge">
<title>3&#45;&gt;1</title>
<path fill="none" stroke="#000000" d="M604.2199,-762.1321C612.4407,-771.8088 621.1111,-782.0148 629.8432,-792.2934"/>
<polygon fill="none" stroke="#000000" points="622.0936,-799.3889 649.5192,-815.4542 638.098,-785.7926 622.0936,-799.3889"/>
</g>
<!-- 3&#45;&gt;2 -->
<g id="edge2" class="edge">
<title>3&#45;&gt;2</title>
<path fill="none" stroke="#000000" stroke-dasharray="5,2" d="M497.4826,-762.1321C485.1338,-776.5809 471.7765,-792.2097 458.71,-807.4983"/>
<polygon fill="#000000" stroke="#000000" points="455.7469,-805.5783 451.9105,-815.4542 461.0682,-810.1262 455.7469,-805.5783"/>
</g>
<!-- 4 -->
<g id="node5" class="node">
<title>4</title>
<polygon fill="#f2f2f2" stroke="#000000" points="717.6994,-620.3 717.6994,-778.7 1172.3236,-778.7 1172.3236,-620.3 717.6994,-620.3"/>
<text text-anchor="middle" x="945.0115" y="-762.1" font-family="Times,serif" font-size="14.00" fill="#000000">&lt;&lt;Abstract&gt;&gt;</text>
<text text-anchor="middle" x="945.0115" y="-745.3" font-family="Times,serif" font-size="14.00" fill="#000000">ERC20</text>
<polyline fill="none" stroke="#000000" points="717.6994,-737.1 1172.3236,-737.1 "/>
<text text-anchor="middle" x="945.0115" y="-720.5" font-family="Times,serif" font-size="14.00" fill="#000000"> </text>
<polyline fill="none" stroke="#000000" points="717.6994,-712.3 1172.3236,-712.3 "/>
<text text-anchor="start" x="725.6994" y="-695.7" font-family="Times,serif" font-size="14.00" fill="#000000">Public:</text>
<text text-anchor="start" x="725.6994" y="-678.9" font-family="Times,serif" font-size="14.00" fill="#000000"> &#160;&#160;&#160;&lt;&lt;abstract&gt;&gt; allowance(owner: address, spender: address): uint256</text>
<text text-anchor="start" x="725.6994" y="-662.1" font-family="Times,serif" font-size="14.00" fill="#000000"> &#160;&#160;&#160;&lt;&lt;abstract&gt;&gt; transferFrom(from: address, to: address, value: uint256): bool</text>
<text text-anchor="start" x="725.6994" y="-645.3" font-family="Times,serif" font-size="14.00" fill="#000000"> &#160;&#160;&#160;&lt;&lt;abstract&gt;&gt; approve(spender: address, value: uint256): bool</text>
<text text-anchor="start" x="725.6994" y="-628.5" font-family="Times,serif" font-size="14.00" fill="#000000"> &#160;&#160;&#160;&lt;&lt;event&gt;&gt; Approval(owner: address, spender: address, value: uint256)</text>
</g>
<!-- 4&#45;&gt;1 -->
<g id="edge3" class="edge">
<title>4&#45;&gt;1</title>
<path fill="none" stroke="#000000" d="M852.2752,-778.9767C845.7968,-784.5287 839.2235,-790.1622 832.6429,-795.8019"/>
<polygon fill="none" stroke="#000000" points="825.6121,-787.9989 809.6657,-815.4938 839.2776,-803.9443 825.6121,-787.9989"/>
</g>
<!-- 5 -->
<g id="node6" class="node">
<title>5</title>
<polygon fill="#f2f2f2" stroke="#000000" points="544.6688,-408.1 544.6688,-583.3 951.3542,-583.3 951.3542,-408.1 544.6688,-408.1"/>
<text text-anchor="middle" x="748.0115" y="-566.7" font-family="Times,serif" font-size="14.00" fill="#000000">StandardToken</text>
<polyline fill="none" stroke="#000000" points="544.6688,-558.5 951.3542,-558.5 "/>
<text text-anchor="start" x="552.6688" y="-541.9" font-family="Times,serif" font-size="14.00" fill="#000000">Internal:</text>
<text text-anchor="start" x="552.6688" y="-525.1" font-family="Times,serif" font-size="14.00" fill="#000000"> &#160;&#160;allowed: mapping(address=&gt;mapping(address=&gt;uint256))</text>
<polyline fill="none" stroke="#000000" points="544.6688,-516.9 951.3542,-516.9 "/>
<text text-anchor="start" x="552.6688" y="-500.3" font-family="Times,serif" font-size="14.00" fill="#000000">Public:</text>
<text text-anchor="start" x="552.6688" y="-483.5" font-family="Times,serif" font-size="14.00" fill="#000000"> &#160;&#160;&#160;transferFrom(_from: address, _to: address, _value: uint256): bool</text>
<text text-anchor="start" x="552.6688" y="-466.7" font-family="Times,serif" font-size="14.00" fill="#000000"> &#160;&#160;&#160;approve(_spender: address, _value: uint256): bool</text>
<text text-anchor="start" x="552.6688" y="-449.9" font-family="Times,serif" font-size="14.00" fill="#000000"> &#160;&#160;&#160;allowance(_owner: address, _spender: address): uint256</text>
<text text-anchor="start" x="552.6688" y="-433.1" font-family="Times,serif" font-size="14.00" fill="#000000"> &#160;&#160;&#160;increaseApproval(_spender: address, _addedValue: uint): bool</text>
<text text-anchor="start" x="552.6688" y="-416.3" font-family="Times,serif" font-size="14.00" fill="#000000"> &#160;&#160;&#160;decreaseApproval(_spender: address, _subtractedValue: uint): bool</text>
</g>
<!-- 5&#45;&gt;3 -->
<g id="edge5" class="edge">
<title>5&#45;&gt;3</title>
<path fill="none" stroke="#000000" d="M663.3225,-583.3123C653.1181,-593.8689 642.7119,-604.6343 632.5539,-615.143"/>
<polygon fill="none" stroke="#000000" points="624.85,-608.0051 611.5491,-636.8728 639.949,-622.6003 624.85,-608.0051"/>
</g>
<!-- 5&#45;&gt;4 -->
<g id="edge4" class="edge">
<title>5&#45;&gt;4</title>
<path fill="none" stroke="#000000" d="M832.7006,-583.3123C837.4879,-588.2649 842.3196,-593.2634 847.1493,-598.2597"/>
<polygon fill="none" stroke="#000000" points="839.7676,-605.731 868.1674,-620.0034 854.8666,-591.1358 839.7676,-605.731"/>
</g>
<!-- 6 -->
<g id="node7" class="node">
<title>6</title>
<polygon fill="#f2f2f2" stroke="#000000" points="138.325,-195.9 138.325,-371.1 429.698,-371.1 429.698,-195.9 138.325,-195.9"/>
<text text-anchor="middle" x="284.0115" y="-354.5" font-family="Times,serif" font-size="14.00" fill="#000000">MintableToken</text>
<polyline fill="none" stroke="#000000" points="138.325,-346.3 429.698,-346.3 "/>
<text text-anchor="start" x="146.325" y="-329.7" font-family="Times,serif" font-size="14.00" fill="#000000">Public:</text>
<text text-anchor="start" x="146.325" y="-312.9" font-family="Times,serif" font-size="14.00" fill="#000000"> &#160;&#160;mintingFinished: bool</text>
<polyline fill="none" stroke="#000000" points="138.325,-304.7 429.698,-304.7 "/>
<text text-anchor="start" x="146.325" y="-288.1" font-family="Times,serif" font-size="14.00" fill="#000000">Public:</text>
<text text-anchor="start" x="146.325" y="-271.3" font-family="Times,serif" font-size="14.00" fill="#000000"> &#160;&#160;&#160;&lt;&lt;event&gt;&gt; Mint(to: address, amount: uint256)</text>
<text text-anchor="start" x="146.325" y="-254.5" font-family="Times,serif" font-size="14.00" fill="#000000"> &#160;&#160;&#160;&lt;&lt;event&gt;&gt; MintFinished()</text>
<text text-anchor="start" x="146.325" y="-237.7" font-family="Times,serif" font-size="14.00" fill="#000000"> &#160;&#160;&#160;&lt;&lt;modifier&gt;&gt; canMint()</text>
<text text-anchor="start" x="146.325" y="-220.9" font-family="Times,serif" font-size="14.00" fill="#000000"> &#160;&#160;&#160;mint(_to: address, _amount: uint256): bool</text>
<text text-anchor="start" x="146.325" y="-204.1" font-family="Times,serif" font-size="14.00" fill="#000000"> &#160;&#160;&#160;finishMinting(): bool</text>
</g>
<!-- 6&#45;&gt;0 -->
<g id="edge7" class="edge">
<title>6&#45;&gt;0</title>
<path fill="none" stroke="#000000" d="M284.0115,-371.3416C284.0115,-376.2426 284.0115,-381.1973 284.0115,-386.1619"/>
<polygon fill="none" stroke="#000000" points="273.5116,-386.4116 284.0115,-416.4117 294.5116,-386.4117 273.5116,-386.4116"/>
</g>
<!-- 6&#45;&gt;5 -->
<g id="edge6" class="edge">
<title>6&#45;&gt;5</title>
<path fill="none" stroke="#000000" d="M429.869,-350.2046C461.3708,-364.6113 495.3423,-380.1474 528.9506,-395.5174"/>
<polygon fill="none" stroke="#000000" points="524.7506,-405.1425 556.3999,-408.0707 533.4845,-386.0449 524.7506,-405.1425"/>
</g>
<!-- 7 -->
<g id="node8" class="node">
<title>7</title>
<polygon fill="#f2f2f2" stroke="#000000" points="85.5037,-.5 85.5037,-158.9 482.5193,-158.9 482.5193,-.5 85.5037,-.5"/>
<text text-anchor="middle" x="284.0115" y="-142.3" font-family="Times,serif" font-size="14.00" fill="#000000">BRDToken</text>
<polyline fill="none" stroke="#000000" points="85.5037,-134.1 482.5193,-134.1 "/>
<text text-anchor="start" x="93.5037" y="-117.5" font-family="Times,serif" font-size="14.00" fill="#000000">Public:</text>
<text text-anchor="start" x="93.5037" y="-100.7" font-family="Times,serif" font-size="14.00" fill="#000000"> &#160;&#160;name: string</text>
<text text-anchor="start" x="93.5037" y="-83.9" font-family="Times,serif" font-size="14.00" fill="#000000"> &#160;&#160;symbol: string</text>
<text text-anchor="start" x="93.5037" y="-67.1" font-family="Times,serif" font-size="14.00" fill="#000000"> &#160;&#160;decimals: uint256</text>
<polyline fill="none" stroke="#000000" points="85.5037,-58.9 482.5193,-58.9 "/>
<text text-anchor="start" x="93.5037" y="-42.3" font-family="Times,serif" font-size="14.00" fill="#000000">Public:</text>
<text text-anchor="start" x="93.5037" y="-25.5" font-family="Times,serif" font-size="14.00" fill="#000000"> &#160;&#160;&#160;transferFrom(_from: address, _to: address, _value: uint256): bool</text>
<text text-anchor="start" x="93.5037" y="-8.7" font-family="Times,serif" font-size="14.00" fill="#000000"> &#160;&#160;&#160;transfer(_to: address, _value: uint256): bool</text>
</g>
<!-- 7&#45;&gt;2 -->
<g id="edge9" class="edge">
<title>7&#45;&gt;2</title>
<path fill="none" stroke="#000000" stroke-dasharray="5,2" d="M164.0974,-159.154C151.3642,-170.4238 139.3221,-182.5769 129.0115,-195.4 17.5876,-333.977 -39.9486,-421.6405 33.0115,-583.8 79.2703,-686.6138 178.1622,-769.2152 259.224,-823.3937"/>
<polygon fill="#000000" stroke="#000000" points="257.7384,-826.6073 268.0105,-829.2024 261.5988,-820.7679 257.7384,-826.6073"/>
</g>
<!-- 7&#45;&gt;6 -->
<g id="edge8" class="edge">
<title>7&#45;&gt;6</title>
<path fill="none" stroke="#000000" d="M284.0115,-159.078C284.0115,-161.2469 284.0115,-163.4302 284.0115,-165.6236"/>
<polygon fill="none" stroke="#000000" points="273.5116,-165.8969 284.0115,-195.897 294.5116,-165.897 273.5116,-165.8969"/>
</g>
</g>
</svg>
