<?xml version="1.0" encoding="UTF-8" standalone="no"?>
<!DOCTYPE svg PUBLIC "-//W3C//DTD SVG 1.1//EN"
 "http://www.w3.org/Graphics/SVG/1.1/DTD/svg11.dtd">
<!-- Generated by graphviz version 2.40.1 (20161225.0304)
 -->
<!-- Title: UmlClassDiagram Pages: 1 -->
<svg width="1122pt" height="1195pt"
 viewBox="0.00 0.00 1122.37 1194.80" xmlns="http://www.w3.org/2000/svg" xmlns:xlink="http://www.w3.org/1999/xlink">
<g id="graph0" class="graph" transform="scale(1 1) rotate(0) translate(4 1190.8)">
<title>UmlClassDiagram</title>
<polygon fill="#ffffff" stroke="transparent" points="-4,4 -4,-1190.8 1118.3689,-1190.8 1118.3689,4 -4,4"/>
<!-- 6 -->
<g id="node1" class="node">
<title>6</title>
<polygon fill="#f2f2f2" stroke="#000000" points="448.8751,-628.7 448.8751,-787.1 933.7491,-787.1 933.7491,-628.7 448.8751,-628.7"/>
<text text-anchor="middle" x="691.3121" y="-770.5" font-family="Times,serif" font-size="14.00" fill="#000000">Ownable</text>
<polyline fill="none" stroke="#000000" points="448.8751,-762.3 933.7491,-762.3 "/>
<text text-anchor="start" x="456.8751" y="-745.7" font-family="Times,serif" font-size="14.00" fill="#000000">Public:</text>
<text text-anchor="start" x="456.8751" y="-728.9" font-family="Times,serif" font-size="14.00" fill="#000000"> &#160;&#160;owner: address</text>
<polyline fill="none" stroke="#000000" points="448.8751,-720.7 933.7491,-720.7 "/>
<text text-anchor="start" x="456.8751" y="-704.1" font-family="Times,serif" font-size="14.00" fill="#000000">Public:</text>
<text text-anchor="start" x="456.8751" y="-687.3" font-family="Times,serif" font-size="14.00" fill="#000000"> &#160;&#160;&#160;&lt;&lt;event&gt;&gt; OwnershipTransferred(previousOwner: address, newOwner: address)</text>
<text text-anchor="start" x="456.8751" y="-670.5" font-family="Times,serif" font-size="14.00" fill="#000000"> &#160;&#160;&#160;&lt;&lt;modifier&gt;&gt; onlyOwner()</text>
<text text-anchor="start" x="456.8751" y="-653.7" font-family="Times,serif" font-size="14.00" fill="#000000"> &#160;&#160;&#160;constructor()</text>
<text text-anchor="start" x="456.8751" y="-636.9" font-family="Times,serif" font-size="14.00" fill="#000000"> &#160;&#160;&#160;transferOwnership(newOwner: address)</text>
</g>
<!-- 0 -->
<g id="node2" class="node">
<title>0</title>
<polygon fill="#f2f2f2" stroke="#000000" points="58.5817,-1027.9 58.5817,-1186.3 442.0425,-1186.3 442.0425,-1027.9 58.5817,-1027.9"/>
<text text-anchor="middle" x="250.3121" y="-1169.7" font-family="Times,serif" font-size="14.00" fill="#000000">&lt;&lt;Abstract&gt;&gt;</text>
<text text-anchor="middle" x="250.3121" y="-1152.9" font-family="Times,serif" font-size="14.00" fill="#000000">ERC20Basic</text>
<polyline fill="none" stroke="#000000" points="58.5817,-1144.7 442.0425,-1144.7 "/>
<text text-anchor="middle" x="250.3121" y="-1128.1" font-family="Times,serif" font-size="14.00" fill="#000000"> </text>
<polyline fill="none" stroke="#000000" points="58.5817,-1119.9 442.0425,-1119.9 "/>
<text text-anchor="start" x="66.5817" y="-1103.3" font-family="Times,serif" font-size="14.00" fill="#000000">Public:</text>
<text text-anchor="start" x="66.5817" y="-1086.5" font-family="Times,serif" font-size="14.00" fill="#000000"> &#160;&#160;&#160;&lt;&lt;abstract&gt;&gt; totalSupply(): uint256</text>
<text text-anchor="start" x="66.5817" y="-1069.7" font-family="Times,serif" font-size="14.00" fill="#000000"> &#160;&#160;&#160;&lt;&lt;abstract&gt;&gt; balanceOf(who: address): uint256</text>
<text text-anchor="start" x="66.5817" y="-1052.9" font-family="Times,serif" font-size="14.00" fill="#000000"> &#160;&#160;&#160;&lt;&lt;abstract&gt;&gt; transfer(to: address, value: uint256): bool</text>
<text text-anchor="start" x="66.5817" y="-1036.1" font-family="Times,serif" font-size="14.00" fill="#000000"> &#160;&#160;&#160;&lt;&lt;event&gt;&gt; Transfer(from: address, to: address, value: uint256)</text>
</g>
<!-- 2 -->
<g id="node3" class="node">
<title>2</title>
<polygon fill="#f2f2f2" stroke="#000000" points="472.2619,-832.5 472.2619,-990.9 748.3623,-990.9 748.3623,-832.5 472.2619,-832.5"/>
<text text-anchor="middle" x="610.3121" y="-974.3" font-family="Times,serif" font-size="14.00" fill="#000000">BasicToken</text>
<polyline fill="none" stroke="#000000" points="472.2619,-966.1 748.3623,-966.1 "/>
<text text-anchor="start" x="480.2619" y="-949.5" font-family="Times,serif" font-size="14.00" fill="#000000">Public:</text>
<text text-anchor="start" x="480.2619" y="-932.7" font-family="Times,serif" font-size="14.00" fill="#000000"> &#160;&#160;balances: mapping(address=&gt;uint256)</text>
<text text-anchor="start" x="480.2619" y="-915.9" font-family="Times,serif" font-size="14.00" fill="#000000"> &#160;&#160;totalSupply_: uint256</text>
<polyline fill="none" stroke="#000000" points="472.2619,-907.7 748.3623,-907.7 "/>
<text text-anchor="start" x="480.2619" y="-891.1" font-family="Times,serif" font-size="14.00" fill="#000000">Public:</text>
<text text-anchor="start" x="480.2619" y="-874.3" font-family="Times,serif" font-size="14.00" fill="#000000"> &#160;&#160;&#160;totalSupply(): uint256</text>
<text text-anchor="start" x="480.2619" y="-857.5" font-family="Times,serif" font-size="14.00" fill="#000000"> &#160;&#160;&#160;transfer(_to: address, _value: uint256): bool</text>
<text text-anchor="start" x="480.2619" y="-840.7" font-family="Times,serif" font-size="14.00" fill="#000000"> &#160;&#160;&#160;balanceOf(_owner: address): uint256</text>
</g>
<!-- 2&#45;&gt;0 -->
<g id="edge1" class="edge">
<title>2&#45;&gt;0</title>
<path fill="none" stroke="#000000" d="M472.1563,-986.6879C456.0843,-995.4114 439.5412,-1004.3906 423.0789,-1013.326"/>
<polygon fill="none" stroke="#000000" points="417.8197,-1004.2335 396.4621,-1027.773 427.8376,-1022.6901 417.8197,-1004.2335"/>
</g>
<!-- 1 -->
<g id="node7" class="node">
<title>1</title>
<polygon fill="#f2f2f2" stroke="#000000" points="482.9327,-1027.9 482.9327,-1186.3 737.6915,-1186.3 737.6915,-1027.9 482.9327,-1027.9"/>
<text text-anchor="middle" x="610.3121" y="-1169.7" font-family="Times,serif" font-size="14.00" fill="#000000">&lt;&lt;Library&gt;&gt;</text>
<text text-anchor="middle" x="610.3121" y="-1152.9" font-family="Times,serif" font-size="14.00" fill="#000000">SafeMath</text>
<polyline fill="none" stroke="#000000" points="482.9327,-1144.7 737.6915,-1144.7 "/>
<text text-anchor="middle" x="610.3121" y="-1128.1" font-family="Times,serif" font-size="14.00" fill="#000000"> </text>
<polyline fill="none" stroke="#000000" points="482.9327,-1119.9 737.6915,-1119.9 "/>
<text text-anchor="start" x="490.9327" y="-1103.3" font-family="Times,serif" font-size="14.00" fill="#000000">Internal:</text>
<text text-anchor="start" x="490.9327" y="-1086.5" font-family="Times,serif" font-size="14.00" fill="#000000"> &#160;&#160;&#160;mul(a: uint256, b: uint256): (c: uint256)</text>
<text text-anchor="start" x="490.9327" y="-1069.7" font-family="Times,serif" font-size="14.00" fill="#000000"> &#160;&#160;&#160;div(a: uint256, b: uint256): uint256</text>
<text text-anchor="start" x="490.9327" y="-1052.9" font-family="Times,serif" font-size="14.00" fill="#000000"> &#160;&#160;&#160;sub(a: uint256, b: uint256): uint256</text>
<text text-anchor="start" x="490.9327" y="-1036.1" font-family="Times,serif" font-size="14.00" fill="#000000"> &#160;&#160;&#160;add(a: uint256, b: uint256): (c: uint256)</text>
</g>
<!-- 2&#45;&gt;1 -->
<g id="edge2" class="edge">
<title>2&#45;&gt;1</title>
<path fill="none" stroke="#000000" stroke-dasharray="5,2" d="M610.3121,-991.1767C610.3121,-999.8341 610.3121,-1008.6895 610.3121,-1017.4577"/>
<polygon fill="#000000" stroke="#000000" points="606.8122,-1017.6937 610.3121,-1027.6938 613.8122,-1017.6938 606.8122,-1017.6937"/>
</g>
<!-- 3 -->
<g id="node4" class="node">
<title>3</title>
<polygon fill="#f2f2f2" stroke="#000000" points="808.2553,-416.5 808.2553,-558.1 1114.3689,-558.1 1114.3689,-416.5 808.2553,-416.5"/>
<text text-anchor="middle" x="961.3121" y="-541.5" font-family="Times,serif" font-size="14.00" fill="#000000">BurnableToken</text>
<polyline fill="none" stroke="#000000" points="808.2553,-533.3 1114.3689,-533.3 "/>
<text text-anchor="middle" x="961.3121" y="-516.7" font-family="Times,serif" font-size="14.00" fill="#000000"> </text>
<polyline fill="none" stroke="#000000" points="808.2553,-508.5 1114.3689,-508.5 "/>
<text text-anchor="start" x="816.2553" y="-491.9" font-family="Times,serif" font-size="14.00" fill="#000000">Internal:</text>
<text text-anchor="start" x="816.2553" y="-475.1" font-family="Times,serif" font-size="14.00" fill="#000000"> &#160;&#160;&#160;_burn(_who: address, _value: uint256)</text>
<text text-anchor="start" x="816.2553" y="-458.3" font-family="Times,serif" font-size="14.00" fill="#000000">Public:</text>
<text text-anchor="start" x="816.2553" y="-441.5" font-family="Times,serif" font-size="14.00" fill="#000000"> &#160;&#160;&#160;&lt;&lt;event&gt;&gt; Burn(burner: address, value: uint256)</text>
<text text-anchor="start" x="816.2553" y="-424.7" font-family="Times,serif" font-size="14.00" fill="#000000"> &#160;&#160;&#160;burn(_value: uint256)</text>
</g>
<!-- 3&#45;&gt;2 -->
<g id="edge3" class="edge">
<title>3&#45;&gt;2</title>
<path fill="none" stroke="#000000" d="M977.5645,-558.3305C988.7646,-626.3185 993.6326,-728.276 942.3121,-796 920.6844,-824.5406 849.1383,-851.2241 777.9761,-871.7574"/>
<polygon fill="none" stroke="#000000" points="774.8123,-861.7385 748.7158,-879.8829 780.4314,-881.9728 774.8123,-861.7385"/>
</g>
<!-- 4 -->
<g id="node5" class="node">
<title>4</title>
<polygon fill="#f2f2f2" stroke="#000000" points="0,-832.5 0,-990.9 454.6242,-990.9 454.6242,-832.5 0,-832.5"/>
<text text-anchor="middle" x="227.3121" y="-974.3" font-family="Times,serif" font-size="14.00" fill="#000000">&lt;&lt;Abstract&gt;&gt;</text>
<text text-anchor="middle" x="227.3121" y="-957.5" font-family="Times,serif" font-size="14.00" fill="#000000">ERC20</text>
<polyline fill="none" stroke="#000000" points="0,-949.3 454.6242,-949.3 "/>
<text text-anchor="middle" x="227.3121" y="-932.7" font-family="Times,serif" font-size="14.00" fill="#000000"> </text>
<polyline fill="none" stroke="#000000" points="0,-924.5 454.6242,-924.5 "/>
<text text-anchor="start" x="8" y="-907.9" font-family="Times,serif" font-size="14.00" fill="#000000">Public:</text>
<text text-anchor="start" x="8" y="-891.1" font-family="Times,serif" font-size="14.00" fill="#000000"> &#160;&#160;&#160;&lt;&lt;abstract&gt;&gt; allowance(owner: address, spender: address): uint256</text>
<text text-anchor="start" x="8" y="-874.3" font-family="Times,serif" font-size="14.00" fill="#000000"> &#160;&#160;&#160;&lt;&lt;abstract&gt;&gt; transferFrom(from: address, to: address, value: uint256): bool</text>
<text text-anchor="start" x="8" y="-857.5" font-family="Times,serif" font-size="14.00" fill="#000000"> &#160;&#160;&#160;&lt;&lt;abstract&gt;&gt; approve(spender: address, value: uint256): bool</text>
<text text-anchor="start" x="8" y="-840.7" font-family="Times,serif" font-size="14.00" fill="#000000"> &#160;&#160;&#160;&lt;&lt;event&gt;&gt; Approval(owner: address, spender: address, value: uint256)</text>
</g>
<!-- 4&#45;&gt;0 -->
<g id="edge4" class="edge">
<title>4&#45;&gt;0</title>
<path fill="none" stroke="#000000" d="M236.6671,-991.1767C236.9218,-993.341 237.1781,-995.5178 237.4352,-997.7024"/>
<polygon fill="none" stroke="#000000" points="227.0303,-999.1269 240.9654,-1027.6938 247.8863,-996.672 227.0303,-999.1269"/>
</g>
<!-- 5 -->
<g id="node6" class="node">
<title>5</title>
<polygon fill="#f2f2f2" stroke="#000000" points="23.9694,-620.3 23.9694,-795.5 430.6548,-795.5 430.6548,-620.3 23.9694,-620.3"/>
<text text-anchor="middle" x="227.3121" y="-778.9" font-family="Times,serif" font-size="14.00" fill="#000000">StandardToken</text>
<polyline fill="none" stroke="#000000" points="23.9694,-770.7 430.6548,-770.7 "/>
<text text-anchor="start" x="31.9694" y="-754.1" font-family="Times,serif" font-size="14.00" fill="#000000">Internal:</text>
<text text-anchor="start" x="31.9694" y="-737.3" font-family="Times,serif" font-size="14.00" fill="#000000"> &#160;&#160;allowed: mapping(address=&gt;mapping(address=&gt;uint256))</text>
<polyline fill="none" stroke="#000000" points="23.9694,-729.1 430.6548,-729.1 "/>
<text text-anchor="start" x="31.9694" y="-712.5" font-family="Times,serif" font-size="14.00" fill="#000000">Public:</text>
<text text-anchor="start" x="31.9694" y="-695.7" font-family="Times,serif" font-size="14.00" fill="#000000"> &#160;&#160;&#160;transferFrom(_from: address, _to: address, _value: uint256): bool</text>
<text text-anchor="start" x="31.9694" y="-678.9" font-family="Times,serif" font-size="14.00" fill="#000000"> &#160;&#160;&#160;approve(_spender: address, _value: uint256): bool</text>
<text text-anchor="start" x="31.9694" y="-662.1" font-family="Times,serif" font-size="14.00" fill="#000000"> &#160;&#160;&#160;allowance(_owner: address, _spender: address): uint256</text>
<text text-anchor="start" x="31.9694" y="-645.3" font-family="Times,serif" font-size="14.00" fill="#000000"> &#160;&#160;&#160;increaseApproval(_spender: address, _addedValue: uint): bool</text>
<text text-anchor="start" x="31.9694" y="-628.5" font-family="Times,serif" font-size="14.00" fill="#000000"> &#160;&#160;&#160;decreaseApproval(_spender: address, _subtractedValue: uint): bool</text>
</g>
<!-- 5&#45;&gt;2 -->
<g id="edge6" class="edge">
<title>5&#45;&gt;2</title>
<path fill="none" stroke="#000000" d="M394.7335,-795.6023C410.68,-804.0235 426.769,-812.5445 445.4513,-822.4885"/>
<polygon fill="none" stroke="#000000" points="440.8223,-831.9197 472.2343,-836.7714 450.7039,-813.3898 440.8223,-831.9197"/>
</g>
<!-- 5&#45;&gt;4 -->
<g id="edge5" class="edge">
<title>5&#45;&gt;4</title>
<path fill="none" stroke="#000000" d="M227.3121,-795.5123C227.3121,-797.7029 227.3121,-799.9024 227.3121,-802.1068"/>
<polygon fill="none" stroke="#000000" points="216.8122,-802.2034 227.3121,-832.2034 237.8122,-802.2034 216.8122,-802.2034"/>
</g>
<!-- 7 -->
<g id="node8" class="node">
<title>7</title>
<polygon fill="#f2f2f2" stroke="#000000" points="151.6256,-399.7 151.6256,-574.9 442.9986,-574.9 442.9986,-399.7 151.6256,-399.7"/>
<text text-anchor="middle" x="297.3121" y="-558.3" font-family="Times,serif" font-size="14.00" fill="#000000">MintableToken</text>
<polyline fill="none" stroke="#000000" points="151.6256,-550.1 442.9986,-550.1 "/>
<text text-anchor="start" x="159.6256" y="-533.5" font-family="Times,serif" font-size="14.00" fill="#000000">Public:</text>
<text text-anchor="start" x="159.6256" y="-516.7" font-family="Times,serif" font-size="14.00" fill="#000000"> &#160;&#160;mintingFinished: bool</text>
<polyline fill="none" stroke="#000000" points="151.6256,-508.5 442.9986,-508.5 "/>
<text text-anchor="start" x="159.6256" y="-491.9" font-family="Times,serif" font-size="14.00" fill="#000000">Public:</text>
<text text-anchor="start" x="159.6256" y="-475.1" font-family="Times,serif" font-size="14.00" fill="#000000"> &#160;&#160;&#160;&lt;&lt;event&gt;&gt; Mint(to: address, amount: uint256)</text>
<text text-anchor="start" x="159.6256" y="-458.3" font-family="Times,serif" font-size="14.00" fill="#000000"> &#160;&#160;&#160;&lt;&lt;event&gt;&gt; MintFinished()</text>
<text text-anchor="start" x="159.6256" y="-441.5" font-family="Times,serif" font-size="14.00" fill="#000000"> &#160;&#160;&#160;&lt;&lt;modifier&gt;&gt; canMint()</text>
<text text-anchor="start" x="159.6256" y="-424.7" font-family="Times,serif" font-size="14.00" fill="#000000"> &#160;&#160;&#160;mint(_to: address, _amount: uint256): bool</text>
<text text-anchor="start" x="159.6256" y="-407.9" font-family="Times,serif" font-size="14.00" fill="#000000"> &#160;&#160;&#160;finishMinting(): bool</text>
</g>
<!-- 7&#45;&gt;6 -->
<g id="edge8" class="edge">
<title>7&#45;&gt;6</title>
<path fill="none" stroke="#000000" d="M443.1834,-568.9731C469.3118,-583.6024 496.7294,-598.9534 523.4181,-613.8964"/>
<polygon fill="none" stroke="#000000" points="518.4833,-623.1672 549.7892,-628.6616 528.7426,-604.8437 518.4833,-623.1672"/>
</g>
<!-- 7&#45;&gt;5 -->
<g id="edge7" class="edge">
<title>7&#45;&gt;5</title>
<path fill="none" stroke="#000000" d="M269.4451,-575.1208C267.7598,-580.432 266.0515,-585.8157 264.3366,-591.2199"/>
<polygon fill="none" stroke="#000000" points="254.263,-588.2502 255.1976,-620.021 274.2795,-594.6018 254.263,-588.2502"/>
</g>
<!-- 8 -->
<g id="node9" class="node">
<title>8</title>
<polygon fill="#f2f2f2" stroke="#000000" points="161.9611,-212.7 161.9611,-337.5 432.6631,-337.5 432.6631,-212.7 161.9611,-212.7"/>
<text text-anchor="middle" x="297.3121" y="-320.9" font-family="Times,serif" font-size="14.00" fill="#000000">CappedToken</text>
<polyline fill="none" stroke="#000000" points="161.9611,-312.7 432.6631,-312.7 "/>
<text text-anchor="start" x="169.9611" y="-296.1" font-family="Times,serif" font-size="14.00" fill="#000000">Public:</text>
<text text-anchor="start" x="169.9611" y="-279.3" font-family="Times,serif" font-size="14.00" fill="#000000"> &#160;&#160;cap: uint256</text>
<polyline fill="none" stroke="#000000" points="161.9611,-271.1 432.6631,-271.1 "/>
<text text-anchor="start" x="169.9611" y="-254.5" font-family="Times,serif" font-size="14.00" fill="#000000">Public:</text>
<text text-anchor="start" x="169.9611" y="-237.7" font-family="Times,serif" font-size="14.00" fill="#000000"> &#160;&#160;&#160;constructor(_cap: uint256)</text>
<text text-anchor="start" x="169.9611" y="-220.9" font-family="Times,serif" font-size="14.00" fill="#000000"> &#160;&#160;&#160;mint(_to: address, _amount: uint256): bool</text>
</g>
<!-- 8&#45;&gt;7 -->
<g id="edge9" class="edge">
<title>8&#45;&gt;7</title>
<path fill="none" stroke="#000000" d="M297.3121,-337.6193C297.3121,-347.794 297.3121,-358.6159 297.3121,-369.6058"/>
<polygon fill="none" stroke="#000000" points="286.8122,-369.6788 297.3121,-399.6788 307.8122,-369.6788 286.8122,-369.6788"/>
</g>
<!-- 9 -->
<g id="node10" class="node">
<title>9</title>
<polygon fill="#f2f2f2" stroke="#000000" points="576.5211,-391.3 576.5211,-583.3 790.1031,-583.3 790.1031,-391.3 576.5211,-391.3"/>
<text text-anchor="middle" x="683.3121" y="-566.7" font-family="Times,serif" font-size="14.00" fill="#000000">Pausable</text>
<polyline fill="none" stroke="#000000" points="576.5211,-558.5 790.1031,-558.5 "/>
<text text-anchor="start" x="584.5211" y="-541.9" font-family="Times,serif" font-size="14.00" fill="#000000">Public:</text>
<text text-anchor="start" x="584.5211" y="-525.1" font-family="Times,serif" font-size="14.00" fill="#000000"> &#160;&#160;paused: bool</text>
<polyline fill="none" stroke="#000000" points="576.5211,-516.9 790.1031,-516.9 "/>
<text text-anchor="start" x="584.5211" y="-500.3" font-family="Times,serif" font-size="14.00" fill="#000000">Public:</text>
<text text-anchor="start" x="584.5211" y="-483.5" font-family="Times,serif" font-size="14.00" fill="#000000"> &#160;&#160;&#160;&lt;&lt;event&gt;&gt; Pause()</text>
<text text-anchor="start" x="584.5211" y="-466.7" font-family="Times,serif" font-size="14.00" fill="#000000"> &#160;&#160;&#160;&lt;&lt;event&gt;&gt; Unpause()</text>
<text text-anchor="start" x="584.5211" y="-449.9" font-family="Times,serif" font-size="14.00" fill="#000000"> &#160;&#160;&#160;&lt;&lt;modifier&gt;&gt; whenNotPaused()</text>
<text text-anchor="start" x="584.5211" y="-433.1" font-family="Times,serif" font-size="14.00" fill="#000000"> &#160;&#160;&#160;&lt;&lt;modifier&gt;&gt; whenPaused()</text>
<text text-anchor="start" x="584.5211" y="-416.3" font-family="Times,serif" font-size="14.00" fill="#000000"> &#160;&#160;&#160;pause()</text>
<text text-anchor="start" x="584.5211" y="-399.5" font-family="Times,serif" font-size="14.00" fill="#000000"> &#160;&#160;&#160;unpause()</text>
</g>
<!-- 9&#45;&gt;6 -->
<g id="edge10" class="edge">
<title>9&#45;&gt;6</title>
<path fill="none" stroke="#000000" d="M686.7977,-583.4166C686.9774,-588.3694 687.1584,-593.3609 687.3393,-598.3503"/>
<polygon fill="none" stroke="#000000" points="676.8567,-599.0238 688.4372,-628.6235 697.8429,-598.2627 676.8567,-599.0238"/>
</g>
<!-- 10 -->
<g id="node11" class="node">
<title>10</title>
<polygon fill="#f2f2f2" stroke="#000000" points="450.6247,-195.9 450.6247,-354.3 915.9995,-354.3 915.9995,-195.9 450.6247,-195.9"/>
<text text-anchor="middle" x="683.3121" y="-337.7" font-family="Times,serif" font-size="14.00" fill="#000000">PausableToken</text>
<polyline fill="none" stroke="#000000" points="450.6247,-329.5 915.9995,-329.5 "/>
<text text-anchor="middle" x="683.3121" y="-312.9" font-family="Times,serif" font-size="14.00" fill="#000000"> </text>
<polyline fill="none" stroke="#000000" points="450.6247,-304.7 915.9995,-304.7 "/>
<text text-anchor="start" x="458.6247" y="-288.1" font-family="Times,serif" font-size="14.00" fill="#000000">Public:</text>
<text text-anchor="start" x="458.6247" y="-271.3" font-family="Times,serif" font-size="14.00" fill="#000000"> &#160;&#160;&#160;transfer(_to: address, _value: uint256): bool</text>
<text text-anchor="start" x="458.6247" y="-254.5" font-family="Times,serif" font-size="14.00" fill="#000000"> &#160;&#160;&#160;transferFrom(_from: address, _to: address, _value: uint256): bool</text>
<text text-anchor="start" x="458.6247" y="-237.7" font-family="Times,serif" font-size="14.00" fill="#000000"> &#160;&#160;&#160;approve(_spender: address, _value: uint256): bool</text>
<text text-anchor="start" x="458.6247" y="-220.9" font-family="Times,serif" font-size="14.00" fill="#000000"> &#160;&#160;&#160;increaseApproval(_spender: address, _addedValue: uint): (success: bool)</text>
<text text-anchor="start" x="458.6247" y="-204.1" font-family="Times,serif" font-size="14.00" fill="#000000"> &#160;&#160;&#160;decreaseApproval(_spender: address, _subtractedValue: uint): (success: bool)</text>
</g>
<!-- 10&#45;&gt;5 -->
<g id="edge11" class="edge">
<title>10&#45;&gt;5</title>
<path fill="none" stroke="#000000" d="M598.5572,-354.5758C587.5707,-366.3081 576.8414,-378.5729 567.3121,-390.8 505.932,-469.5569 524.084,-514.3812 452.3121,-583.8 445.8558,-590.0446 439.0232,-596.0746 431.9135,-601.8852"/>
<polygon fill="none" stroke="#000000" points="425.2305,-593.7742 407.6148,-620.2306 437.884,-610.534 425.2305,-593.7742"/>
</g>
<!-- 10&#45;&gt;9 -->
<g id="edge12" class="edge">
<title>10&#45;&gt;9</title>
<path fill="none" stroke="#000000" d="M683.3121,-354.4172C683.3121,-356.6686 683.3121,-358.9372 683.3121,-361.2186"/>
<polygon fill="none" stroke="#000000" points="672.8122,-361.2367 683.3121,-391.2367 693.8122,-361.2368 672.8122,-361.2367"/>
</g>
<!-- 11 -->
<g id="node12" class="node">
<title>11</title>
<polygon fill="#f2f2f2" stroke="#000000" points="604.9278,-.5 604.9278,-158.9 761.6964,-158.9 761.6964,-.5 604.9278,-.5"/>
<text text-anchor="middle" x="683.3121" y="-142.3" font-family="Times,serif" font-size="14.00" fill="#000000">CarryToken</text>
<polyline fill="none" stroke="#000000" points="604.9278,-134.1 761.6964,-134.1 "/>
<text text-anchor="start" x="612.9278" y="-117.5" font-family="Times,serif" font-size="14.00" fill="#000000">Public:</text>
<text text-anchor="start" x="612.9278" y="-100.7" font-family="Times,serif" font-size="14.00" fill="#000000"> &#160;&#160;name: string</text>
<text text-anchor="start" x="612.9278" y="-83.9" font-family="Times,serif" font-size="14.00" fill="#000000"> &#160;&#160;symbol: string</text>
<text text-anchor="start" x="612.9278" y="-67.1" font-family="Times,serif" font-size="14.00" fill="#000000"> &#160;&#160;decimals: uint8</text>
<text text-anchor="start" x="612.9278" y="-50.3" font-family="Times,serif" font-size="14.00" fill="#000000"> &#160;&#160;TOTAL_CAP: uint256</text>
<polyline fill="none" stroke="#000000" points="604.9278,-42.1 761.6964,-42.1 "/>
<text text-anchor="start" x="612.9278" y="-25.5" font-family="Times,serif" font-size="14.00" fill="#000000">Public:</text>
<text text-anchor="start" x="612.9278" y="-8.7" font-family="Times,serif" font-size="14.00" fill="#000000"> &#160;&#160;&#160;constructor()</text>
</g>
<!-- 11&#45;&gt;3 -->
<g id="edge15" class="edge">
<title>11&#45;&gt;3</title>
<path fill="none" stroke="#000000" d="M761.8514,-96.249C816.7009,-112.1023 886.7552,-141.8198 925.3121,-195.4 964.5512,-249.9283 972.9664,-325.5072 971.8764,-386.0972"/>
<polygon fill="none" stroke="#000000" points="961.3798,-385.7928 970.5529,-416.2248 982.3595,-386.7146 961.3798,-385.7928"/>
</g>
<!-- 11&#45;&gt;8 -->
<g id="edge14" class="edge">
<title>11&#45;&gt;8</title>
<path fill="none" stroke="#000000" d="M604.8071,-115.7878C557.167,-138.0443 495.3358,-167.5666 441.3121,-195.4 439.3118,-196.4306 437.2983,-197.4732 435.2743,-198.526"/>
<polygon fill="none" stroke="#000000" points="430.1907,-189.3366 408.5912,-212.6543 440.0174,-207.8956 430.1907,-189.3366"/>
</g>
<!-- 11&#45;&gt;10 -->
<g id="edge13" class="edge">
<title>11&#45;&gt;10</title>
<path fill="none" stroke="#000000" d="M683.3121,-159.1767C683.3121,-161.2469 683.3121,-163.3285 683.3121,-165.4175"/>
<polygon fill="none" stroke="#000000" points="672.8122,-165.6937 683.3121,-195.6938 693.8122,-165.6938 672.8122,-165.6937"/>
</g>
</g>
</svg>
