<?xml version="1.0" encoding="UTF-8" standalone="no"?>
<!DOCTYPE svg PUBLIC "-//W3C//DTD SVG 1.1//EN"
 "http://www.w3.org/Graphics/SVG/1.1/DTD/svg11.dtd">
<!-- Generated by graphviz version 2.40.1 (20161225.0304)
 -->
<!-- Title: UmlClassDiagram Pages: 1 -->
<svg width="1281pt" height="966pt"
 viewBox="0.00 0.00 1280.75 965.80" xmlns="http://www.w3.org/2000/svg" xmlns:xlink="http://www.w3.org/1999/xlink">
<g id="graph0" class="graph" transform="scale(1 1) rotate(0) translate(4 961.8)">
<title>UmlClassDiagram</title>
<polygon fill="#ffffff" stroke="transparent" points="-4,4 -4,-961.8 1276.7491,-961.8 1276.7491,4 -4,4"/>
<!-- 0 -->
<g id="node1" class="node">
<title>0</title>
<polygon fill="#f2f2f2" stroke="#000000" points="505.3959,-798.9 505.3959,-957.3 737.2283,-957.3 737.2283,-798.9 505.3959,-798.9"/>
<text text-anchor="middle" x="621.3121" y="-940.7" font-family="Times,serif" font-size="14.00" fill="#000000">&lt;&lt;Library&gt;&gt;</text>
<text text-anchor="middle" x="621.3121" y="-923.9" font-family="Times,serif" font-size="14.00" fill="#000000">SafeMath</text>
<polyline fill="none" stroke="#000000" points="505.3959,-915.7 737.2283,-915.7 "/>
<text text-anchor="middle" x="621.3121" y="-899.1" font-family="Times,serif" font-size="14.00" fill="#000000"> </text>
<polyline fill="none" stroke="#000000" points="505.3959,-890.9 737.2283,-890.9 "/>
<text text-anchor="start" x="513.3959" y="-874.3" font-family="Times,serif" font-size="14.00" fill="#000000">Internal:</text>
<text text-anchor="start" x="513.3959" y="-857.5" font-family="Times,serif" font-size="14.00" fill="#000000"> &#160;&#160;&#160;mul(a: uint256, b: uint256): uint256</text>
<text text-anchor="start" x="513.3959" y="-840.7" font-family="Times,serif" font-size="14.00" fill="#000000"> &#160;&#160;&#160;div(a: uint256, b: uint256): uint256</text>
<text text-anchor="start" x="513.3959" y="-823.9" font-family="Times,serif" font-size="14.00" fill="#000000"> &#160;&#160;&#160;sub(a: uint256, b: uint256): uint256</text>
<text text-anchor="start" x="513.3959" y="-807.1" font-family="Times,serif" font-size="14.00" fill="#000000"> &#160;&#160;&#160;add(a: uint256, b: uint256): uint256</text>
</g>
<!-- 1 -->
<g id="node2" class="node">
<title>1</title>
<polygon fill="#f2f2f2" stroke="#000000" points="69.5817,-798.9 69.5817,-957.3 453.0425,-957.3 453.0425,-798.9 69.5817,-798.9"/>
<text text-anchor="middle" x="261.3121" y="-940.7" font-family="Times,serif" font-size="14.00" fill="#000000">&lt;&lt;Abstract&gt;&gt;</text>
<text text-anchor="middle" x="261.3121" y="-923.9" font-family="Times,serif" font-size="14.00" fill="#000000">ERC20Basic</text>
<polyline fill="none" stroke="#000000" points="69.5817,-915.7 453.0425,-915.7 "/>
<text text-anchor="start" x="77.5817" y="-899.1" font-family="Times,serif" font-size="14.00" fill="#000000">Public:</text>
<text text-anchor="start" x="77.5817" y="-882.3" font-family="Times,serif" font-size="14.00" fill="#000000"> &#160;&#160;totalSupply: uint256</text>
<polyline fill="none" stroke="#000000" points="69.5817,-874.1 453.0425,-874.1 "/>
<text text-anchor="start" x="77.5817" y="-857.5" font-family="Times,serif" font-size="14.00" fill="#000000">Public:</text>
<text text-anchor="start" x="77.5817" y="-840.7" font-family="Times,serif" font-size="14.00" fill="#000000"> &#160;&#160;&#160;&lt;&lt;abstract&gt;&gt; balanceOf(who: address): uint256</text>
<text text-anchor="start" x="77.5817" y="-823.9" font-family="Times,serif" font-size="14.00" fill="#000000"> &#160;&#160;&#160;&lt;&lt;abstract&gt;&gt; transfer(to: address, value: uint256): bool</text>
<text text-anchor="start" x="77.5817" y="-807.1" font-family="Times,serif" font-size="14.00" fill="#000000"> &#160;&#160;&#160;&lt;&lt;event&gt;&gt; Transfer(from: address, to: address, value: uint256)</text>
</g>
<!-- 2 -->
<g id="node3" class="node">
<title>2</title>
<polygon fill="#f2f2f2" stroke="#000000" points="0,-603.5 0,-761.9 454.6242,-761.9 454.6242,-603.5 0,-603.5"/>
<text text-anchor="middle" x="227.3121" y="-745.3" font-family="Times,serif" font-size="14.00" fill="#000000">&lt;&lt;Abstract&gt;&gt;</text>
<text text-anchor="middle" x="227.3121" y="-728.5" font-family="Times,serif" font-size="14.00" fill="#000000">ERC20</text>
<polyline fill="none" stroke="#000000" points="0,-720.3 454.6242,-720.3 "/>
<text text-anchor="middle" x="227.3121" y="-703.7" font-family="Times,serif" font-size="14.00" fill="#000000"> </text>
<polyline fill="none" stroke="#000000" points="0,-695.5 454.6242,-695.5 "/>
<text text-anchor="start" x="8" y="-678.9" font-family="Times,serif" font-size="14.00" fill="#000000">Public:</text>
<text text-anchor="start" x="8" y="-662.1" font-family="Times,serif" font-size="14.00" fill="#000000"> &#160;&#160;&#160;&lt;&lt;abstract&gt;&gt; allowance(owner: address, spender: address): uint256</text>
<text text-anchor="start" x="8" y="-645.3" font-family="Times,serif" font-size="14.00" fill="#000000"> &#160;&#160;&#160;&lt;&lt;abstract&gt;&gt; transferFrom(from: address, to: address, value: uint256): bool</text>
<text text-anchor="start" x="8" y="-628.5" font-family="Times,serif" font-size="14.00" fill="#000000"> &#160;&#160;&#160;&lt;&lt;abstract&gt;&gt; approve(spender: address, value: uint256): bool</text>
<text text-anchor="start" x="8" y="-611.7" font-family="Times,serif" font-size="14.00" fill="#000000"> &#160;&#160;&#160;&lt;&lt;event&gt;&gt; Approval(owner: address, spender: address, value: uint256)</text>
</g>
<!-- 2&#45;&gt;1 -->
<g id="edge1" class="edge">
<title>2&#45;&gt;1</title>
<path fill="none" stroke="#000000" d="M241.1412,-762.1767C241.5342,-764.4351 241.9295,-766.7071 242.3263,-768.9874"/>
<polygon fill="none" stroke="#000000" points="232.0078,-770.9379 247.4953,-798.6938 252.697,-767.3379 232.0078,-770.9379"/>
</g>
<!-- 3 -->
<g id="node4" class="node">
<title>3</title>
<polygon fill="#f2f2f2" stroke="#000000" points="472.4014,-620.3 472.4014,-745.1 770.2228,-745.1 770.2228,-620.3 472.4014,-620.3"/>
<text text-anchor="middle" x="621.3121" y="-728.5" font-family="Times,serif" font-size="14.00" fill="#000000">BasicToken</text>
<polyline fill="none" stroke="#000000" points="472.4014,-720.3 770.2228,-720.3 "/>
<text text-anchor="start" x="480.4014" y="-703.7" font-family="Times,serif" font-size="14.00" fill="#000000">Public:</text>
<text text-anchor="start" x="480.4014" y="-686.9" font-family="Times,serif" font-size="14.00" fill="#000000"> &#160;&#160;balances: mapping(address=&gt;uint256)</text>
<polyline fill="none" stroke="#000000" points="472.4014,-678.7 770.2228,-678.7 "/>
<text text-anchor="start" x="480.4014" y="-662.1" font-family="Times,serif" font-size="14.00" fill="#000000">Public:</text>
<text text-anchor="start" x="480.4014" y="-645.3" font-family="Times,serif" font-size="14.00" fill="#000000"> &#160;&#160;&#160;transfer(_to: address, _value: uint256): bool</text>
<text text-anchor="start" x="480.4014" y="-628.5" font-family="Times,serif" font-size="14.00" fill="#000000"> &#160;&#160;&#160;balanceOf(_owner: address): (balance: uint256)</text>
</g>
<!-- 3&#45;&gt;0 -->
<g id="edge3" class="edge">
<title>3&#45;&gt;0</title>
<path fill="none" stroke="#000000" stroke-dasharray="5,2" d="M621.3121,-745.3321C621.3121,-759.1182 621.3121,-773.9783 621.3121,-788.5923"/>
<polygon fill="#000000" stroke="#000000" points="617.8122,-788.6541 621.3121,-798.6542 624.8122,-788.6542 617.8122,-788.6541"/>
</g>
<!-- 3&#45;&gt;1 -->
<g id="edge2" class="edge">
<title>3&#45;&gt;1</title>
<path fill="none" stroke="#000000" d="M505.9204,-745.3321C482.8879,-757.8336 458.2282,-771.2183 433.7551,-784.5018"/>
<polygon fill="none" stroke="#000000" points="428.7158,-775.2899 407.3583,-798.8294 438.7337,-793.7465 428.7158,-775.2899"/>
</g>
<!-- 4 -->
<g id="node5" class="node">
<title>4</title>
<polygon fill="#f2f2f2" stroke="#000000" points="417.9694,-382.9 417.9694,-558.1 824.6548,-558.1 824.6548,-382.9 417.9694,-382.9"/>
<text text-anchor="middle" x="621.3121" y="-541.5" font-family="Times,serif" font-size="14.00" fill="#000000">StandardToken</text>
<polyline fill="none" stroke="#000000" points="417.9694,-533.3 824.6548,-533.3 "/>
<text text-anchor="start" x="425.9694" y="-516.7" font-family="Times,serif" font-size="14.00" fill="#000000">Internal:</text>
<text text-anchor="start" x="425.9694" y="-499.9" font-family="Times,serif" font-size="14.00" fill="#000000"> &#160;&#160;allowed: mapping(address=&gt;mapping(address=&gt;uint256))</text>
<polyline fill="none" stroke="#000000" points="417.9694,-491.7 824.6548,-491.7 "/>
<text text-anchor="start" x="425.9694" y="-475.1" font-family="Times,serif" font-size="14.00" fill="#000000">Public:</text>
<text text-anchor="start" x="425.9694" y="-458.3" font-family="Times,serif" font-size="14.00" fill="#000000"> &#160;&#160;&#160;transferFrom(_from: address, _to: address, _value: uint256): bool</text>
<text text-anchor="start" x="425.9694" y="-441.5" font-family="Times,serif" font-size="14.00" fill="#000000"> &#160;&#160;&#160;approve(_spender: address, _value: uint256): bool</text>
<text text-anchor="start" x="425.9694" y="-424.7" font-family="Times,serif" font-size="14.00" fill="#000000"> &#160;&#160;&#160;allowance(_owner: address, _spender: address): uint256</text>
<text text-anchor="start" x="425.9694" y="-407.9" font-family="Times,serif" font-size="14.00" fill="#000000"> &#160;&#160;&#160;increaseApproval(_spender: address, _addedValue: uint): bool</text>
<text text-anchor="start" x="425.9694" y="-391.1" font-family="Times,serif" font-size="14.00" fill="#000000"> &#160;&#160;&#160;decreaseApproval(_spender: address, _subtractedValue: uint): bool</text>
</g>
<!-- 4&#45;&gt;2 -->
<g id="edge4" class="edge">
<title>4&#45;&gt;2</title>
<path fill="none" stroke="#000000" d="M458.4978,-558.1883C439.5638,-568.3857 420.1952,-578.8173 401.1207,-589.0904"/>
<polygon fill="none" stroke="#000000" points="395.8595,-579.9979 374.4256,-603.4678 405.8173,-598.4869 395.8595,-579.9979"/>
</g>
<!-- 4&#45;&gt;3 -->
<g id="edge5" class="edge">
<title>4&#45;&gt;3</title>
<path fill="none" stroke="#000000" d="M621.3121,-558.3416C621.3121,-568.7173 621.3121,-579.3332 621.3121,-589.7761"/>
<polygon fill="none" stroke="#000000" points="610.8122,-590.1729 621.3121,-620.1729 631.8122,-590.1729 610.8122,-590.1729"/>
</g>
<!-- 5 -->
<g id="node6" class="node">
<title>5</title>
<polygon fill="#f2f2f2" stroke="#000000" points="787.8751,-603.5 787.8751,-761.9 1272.7491,-761.9 1272.7491,-603.5 787.8751,-603.5"/>
<text text-anchor="middle" x="1030.3121" y="-745.3" font-family="Times,serif" font-size="14.00" fill="#000000">Ownable</text>
<polyline fill="none" stroke="#000000" points="787.8751,-737.1 1272.7491,-737.1 "/>
<text text-anchor="start" x="795.8751" y="-720.5" font-family="Times,serif" font-size="14.00" fill="#000000">Public:</text>
<text text-anchor="start" x="795.8751" y="-703.7" font-family="Times,serif" font-size="14.00" fill="#000000"> &#160;&#160;owner: address</text>
<polyline fill="none" stroke="#000000" points="787.8751,-695.5 1272.7491,-695.5 "/>
<text text-anchor="start" x="795.8751" y="-678.9" font-family="Times,serif" font-size="14.00" fill="#000000">Public:</text>
<text text-anchor="start" x="795.8751" y="-662.1" font-family="Times,serif" font-size="14.00" fill="#000000"> &#160;&#160;&#160;&lt;&lt;event&gt;&gt; OwnershipTransferred(previousOwner: address, newOwner: address)</text>
<text text-anchor="start" x="795.8751" y="-645.3" font-family="Times,serif" font-size="14.00" fill="#000000"> &#160;&#160;&#160;&lt;&lt;modifier&gt;&gt; onlyOwner()</text>
<text text-anchor="start" x="795.8751" y="-628.5" font-family="Times,serif" font-size="14.00" fill="#000000"> &#160;&#160;&#160;constructor()</text>
<text text-anchor="start" x="795.8751" y="-611.7" font-family="Times,serif" font-size="14.00" fill="#000000"> &#160;&#160;&#160;transferOwnership(newOwner: address)</text>
</g>
<!-- 6 -->
<g id="node7" class="node">
<title>6</title>
<polygon fill="#f2f2f2" stroke="#000000" points="882.5211,-374.5 882.5211,-566.5 1096.1031,-566.5 1096.1031,-374.5 882.5211,-374.5"/>
<text text-anchor="middle" x="989.3121" y="-549.9" font-family="Times,serif" font-size="14.00" fill="#000000">Pausable</text>
<polyline fill="none" stroke="#000000" points="882.5211,-541.7 1096.1031,-541.7 "/>
<text text-anchor="start" x="890.5211" y="-525.1" font-family="Times,serif" font-size="14.00" fill="#000000">Public:</text>
<text text-anchor="start" x="890.5211" y="-508.3" font-family="Times,serif" font-size="14.00" fill="#000000"> &#160;&#160;paused: bool</text>
<polyline fill="none" stroke="#000000" points="882.5211,-500.1 1096.1031,-500.1 "/>
<text text-anchor="start" x="890.5211" y="-483.5" font-family="Times,serif" font-size="14.00" fill="#000000">Public:</text>
<text text-anchor="start" x="890.5211" y="-466.7" font-family="Times,serif" font-size="14.00" fill="#000000"> &#160;&#160;&#160;&lt;&lt;event&gt;&gt; Pause()</text>
<text text-anchor="start" x="890.5211" y="-449.9" font-family="Times,serif" font-size="14.00" fill="#000000"> &#160;&#160;&#160;&lt;&lt;event&gt;&gt; Unpause()</text>
<text text-anchor="start" x="890.5211" y="-433.1" font-family="Times,serif" font-size="14.00" fill="#000000"> &#160;&#160;&#160;&lt;&lt;modifier&gt;&gt; whenNotPaused()</text>
<text text-anchor="start" x="890.5211" y="-416.3" font-family="Times,serif" font-size="14.00" fill="#000000"> &#160;&#160;&#160;&lt;&lt;modifier&gt;&gt; whenPaused()</text>
<text text-anchor="start" x="890.5211" y="-399.5" font-family="Times,serif" font-size="14.00" fill="#000000"> &#160;&#160;&#160;pause()</text>
<text text-anchor="start" x="890.5211" y="-382.7" font-family="Times,serif" font-size="14.00" fill="#000000"> &#160;&#160;&#160;unpause()</text>
</g>
<!-- 6&#45;&gt;5 -->
<g id="edge6" class="edge">
<title>6&#45;&gt;5</title>
<path fill="none" stroke="#000000" d="M1007.8927,-566.6661C1008.3562,-569.0649 1008.821,-571.4705 1009.2862,-573.878"/>
<polygon fill="none" stroke="#000000" points="998.9863,-575.9195 1014.9869,-603.3828 1019.605,-571.9356 998.9863,-575.9195"/>
</g>
<!-- 7 -->
<g id="node8" class="node">
<title>7</title>
<polygon fill="#f2f2f2" stroke="#000000" points="586.8043,-212.7 586.8043,-337.5 983.8199,-337.5 983.8199,-212.7 586.8043,-212.7"/>
<text text-anchor="middle" x="785.3121" y="-320.9" font-family="Times,serif" font-size="14.00" fill="#000000">PausableToken</text>
<polyline fill="none" stroke="#000000" points="586.8043,-312.7 983.8199,-312.7 "/>
<text text-anchor="middle" x="785.3121" y="-296.1" font-family="Times,serif" font-size="14.00" fill="#000000"> </text>
<polyline fill="none" stroke="#000000" points="586.8043,-287.9 983.8199,-287.9 "/>
<text text-anchor="start" x="594.8043" y="-271.3" font-family="Times,serif" font-size="14.00" fill="#000000">Public:</text>
<text text-anchor="start" x="594.8043" y="-254.5" font-family="Times,serif" font-size="14.00" fill="#000000"> &#160;&#160;&#160;transfer(_to: address, _value: uint256): bool</text>
<text text-anchor="start" x="594.8043" y="-237.7" font-family="Times,serif" font-size="14.00" fill="#000000"> &#160;&#160;&#160;transferFrom(_from: address, _to: address, _value: uint256): bool</text>
<text text-anchor="start" x="594.8043" y="-220.9" font-family="Times,serif" font-size="14.00" fill="#000000"> &#160;&#160;&#160;approve(_spender: address, _value: uint256): bool</text>
</g>
<!-- 7&#45;&gt;4 -->
<g id="edge7" class="edge">
<title>7&#45;&gt;4</title>
<path fill="none" stroke="#000000" d="M732.7448,-337.7321C726.8423,-344.7646 720.7052,-352.0767 714.4807,-359.4931"/>
<polygon fill="none" stroke="#000000" points="706.3401,-352.8595 695.0963,-382.5888 722.4254,-366.36 706.3401,-352.8595"/>
</g>
<!-- 7&#45;&gt;6 -->
<g id="edge8" class="edge">
<title>7&#45;&gt;6</title>
<path fill="none" stroke="#000000" d="M850.7007,-337.7321C856.0544,-342.86 861.5631,-348.1365 867.1561,-353.4937"/>
<polygon fill="none" stroke="#000000" points="860.0678,-361.2439 888.9959,-374.4128 874.594,-346.0784 860.0678,-361.2439"/>
</g>
<!-- 8 -->
<g id="node9" class="node">
<title>8</title>
<polygon fill="#f2f2f2" stroke="#000000" points="534.2819,-.5 534.2819,-175.7 1036.3423,-175.7 1036.3423,-.5 534.2819,-.5"/>
<text text-anchor="middle" x="785.3121" y="-159.1" font-family="Times,serif" font-size="14.00" fill="#000000">TCTToken</text>
<polyline fill="none" stroke="#000000" points="534.2819,-150.9 1036.3423,-150.9 "/>
<text text-anchor="start" x="542.2819" y="-134.3" font-family="Times,serif" font-size="14.00" fill="#000000">Public:</text>
<text text-anchor="start" x="542.2819" y="-117.5" font-family="Times,serif" font-size="14.00" fill="#000000"> &#160;&#160;name: string</text>
<text text-anchor="start" x="542.2819" y="-100.7" font-family="Times,serif" font-size="14.00" fill="#000000"> &#160;&#160;decimals: uint8</text>
<text text-anchor="start" x="542.2819" y="-83.9" font-family="Times,serif" font-size="14.00" fill="#000000"> &#160;&#160;symbol: string</text>
<text text-anchor="start" x="542.2819" y="-67.1" font-family="Times,serif" font-size="14.00" fill="#000000"> &#160;&#160;version: string</text>
<polyline fill="none" stroke="#000000" points="534.2819,-58.9 1036.3423,-58.9 "/>
<text text-anchor="start" x="542.2819" y="-42.3" font-family="Times,serif" font-size="14.00" fill="#000000">Public:</text>
<text text-anchor="start" x="542.2819" y="-25.5" font-family="Times,serif" font-size="14.00" fill="#000000"> &#160;&#160;&#160;&lt;&lt;fallback&gt;&gt; ()</text>
<text text-anchor="start" x="542.2819" y="-8.7" font-family="Times,serif" font-size="14.00" fill="#000000"> &#160;&#160;&#160;constructor(_totalSupply: uint256, _name: string, _symbol: string, _decimals: uint8)</text>
</g>
<!-- 8&#45;&gt;7 -->
<g id="edge9" class="edge">
<title>8&#45;&gt;7</title>
<path fill="none" stroke="#000000" d="M785.3121,-175.8508C785.3121,-178.0845 785.3121,-180.3226 785.3121,-182.56"/>
<polygon fill="none" stroke="#000000" points="774.8122,-182.6687 785.3121,-212.6687 795.8122,-182.6688 774.8122,-182.6687"/>
</g>
</g>
</svg>
