<?xml version="1.0" encoding="UTF-8" standalone="no"?>
<!DOCTYPE svg PUBLIC "-//W3C//DTD SVG 1.1//EN"
 "http://www.w3.org/Graphics/SVG/1.1/DTD/svg11.dtd">
<!-- Generated by graphviz version 2.40.1 (20161225.0304)
 -->
<!-- Title: UmlClassDiagram Pages: 1 -->
<svg width="1281pt" height="983pt"
 viewBox="0.00 0.00 1280.75 982.60" xmlns="http://www.w3.org/2000/svg" xmlns:xlink="http://www.w3.org/1999/xlink">
<g id="graph0" class="graph" transform="scale(1 1) rotate(0) translate(4 978.6)">
<title>UmlClassDiagram</title>
<polygon fill="#ffffff" stroke="transparent" points="-4,4 -4,-978.6 1276.7491,-978.6 1276.7491,4 -4,4"/>
<!-- 0 -->
<g id="node1" class="node">
<title>0</title>
<polygon fill="#f2f2f2" stroke="#000000" points="535.5208,-815.7 535.5208,-974.1 767.3532,-974.1 767.3532,-815.7 535.5208,-815.7"/>
<text text-anchor="middle" x="651.437" y="-957.5" font-family="Times,serif" font-size="14.00" fill="#000000">&lt;&lt;Library&gt;&gt;</text>
<text text-anchor="middle" x="651.437" y="-940.7" font-family="Times,serif" font-size="14.00" fill="#000000">SafeMath</text>
<polyline fill="none" stroke="#000000" points="535.5208,-932.5 767.3532,-932.5 "/>
<text text-anchor="middle" x="651.437" y="-915.9" font-family="Times,serif" font-size="14.00" fill="#000000"> </text>
<polyline fill="none" stroke="#000000" points="535.5208,-907.7 767.3532,-907.7 "/>
<text text-anchor="start" x="543.5208" y="-891.1" font-family="Times,serif" font-size="14.00" fill="#000000">Internal:</text>
<text text-anchor="start" x="543.5208" y="-874.3" font-family="Times,serif" font-size="14.00" fill="#000000"> &#160;&#160;&#160;mul(a: uint256, b: uint256): uint256</text>
<text text-anchor="start" x="543.5208" y="-857.5" font-family="Times,serif" font-size="14.00" fill="#000000"> &#160;&#160;&#160;div(a: uint256, b: uint256): uint256</text>
<text text-anchor="start" x="543.5208" y="-840.7" font-family="Times,serif" font-size="14.00" fill="#000000"> &#160;&#160;&#160;sub(a: uint256, b: uint256): uint256</text>
<text text-anchor="start" x="543.5208" y="-823.9" font-family="Times,serif" font-size="14.00" fill="#000000"> &#160;&#160;&#160;add(a: uint256, b: uint256): uint256</text>
</g>
<!-- 1 -->
<g id="node2" class="node">
<title>1</title>
<polygon fill="#f2f2f2" stroke="#000000" points="0,-620.3 0,-778.7 484.874,-778.7 484.874,-620.3 0,-620.3"/>
<text text-anchor="middle" x="242.437" y="-762.1" font-family="Times,serif" font-size="14.00" fill="#000000">Ownable</text>
<polyline fill="none" stroke="#000000" points="0,-753.9 484.874,-753.9 "/>
<text text-anchor="start" x="8" y="-737.3" font-family="Times,serif" font-size="14.00" fill="#000000">Public:</text>
<text text-anchor="start" x="8" y="-720.5" font-family="Times,serif" font-size="14.00" fill="#000000"> &#160;&#160;owner: address</text>
<polyline fill="none" stroke="#000000" points="0,-712.3 484.874,-712.3 "/>
<text text-anchor="start" x="8" y="-695.7" font-family="Times,serif" font-size="14.00" fill="#000000">Public:</text>
<text text-anchor="start" x="8" y="-678.9" font-family="Times,serif" font-size="14.00" fill="#000000"> &#160;&#160;&#160;&lt;&lt;event&gt;&gt; OwnershipTransferred(previousOwner: address, newOwner: address)</text>
<text text-anchor="start" x="8" y="-662.1" font-family="Times,serif" font-size="14.00" fill="#000000"> &#160;&#160;&#160;&lt;&lt;modifier&gt;&gt; onlyOwner()</text>
<text text-anchor="start" x="8" y="-645.3" font-family="Times,serif" font-size="14.00" fill="#000000"> &#160;&#160;&#160;constructor()</text>
<text text-anchor="start" x="8" y="-628.5" font-family="Times,serif" font-size="14.00" fill="#000000"> &#160;&#160;&#160;transferOwnership(newOwner: address)</text>
</g>
<!-- 2 -->
<g id="node3" class="node">
<title>2</title>
<polygon fill="#f2f2f2" stroke="#000000" points="176.646,-391.3 176.646,-583.3 390.228,-583.3 390.228,-391.3 176.646,-391.3"/>
<text text-anchor="middle" x="283.437" y="-566.7" font-family="Times,serif" font-size="14.00" fill="#000000">Pausable</text>
<polyline fill="none" stroke="#000000" points="176.646,-558.5 390.228,-558.5 "/>
<text text-anchor="start" x="184.646" y="-541.9" font-family="Times,serif" font-size="14.00" fill="#000000">Public:</text>
<text text-anchor="start" x="184.646" y="-525.1" font-family="Times,serif" font-size="14.00" fill="#000000"> &#160;&#160;paused: bool</text>
<polyline fill="none" stroke="#000000" points="176.646,-516.9 390.228,-516.9 "/>
<text text-anchor="start" x="184.646" y="-500.3" font-family="Times,serif" font-size="14.00" fill="#000000">Public:</text>
<text text-anchor="start" x="184.646" y="-483.5" font-family="Times,serif" font-size="14.00" fill="#000000"> &#160;&#160;&#160;&lt;&lt;event&gt;&gt; Pause()</text>
<text text-anchor="start" x="184.646" y="-466.7" font-family="Times,serif" font-size="14.00" fill="#000000"> &#160;&#160;&#160;&lt;&lt;event&gt;&gt; Unpause()</text>
<text text-anchor="start" x="184.646" y="-449.9" font-family="Times,serif" font-size="14.00" fill="#000000"> &#160;&#160;&#160;&lt;&lt;modifier&gt;&gt; whenNotPaused()</text>
<text text-anchor="start" x="184.646" y="-433.1" font-family="Times,serif" font-size="14.00" fill="#000000"> &#160;&#160;&#160;&lt;&lt;modifier&gt;&gt; whenPaused()</text>
<text text-anchor="start" x="184.646" y="-416.3" font-family="Times,serif" font-size="14.00" fill="#000000"> &#160;&#160;&#160;pause()</text>
<text text-anchor="start" x="184.646" y="-399.5" font-family="Times,serif" font-size="14.00" fill="#000000"> &#160;&#160;&#160;unpause()</text>
</g>
<!-- 2&#45;&gt;1 -->
<g id="edge1" class="edge">
<title>2&#45;&gt;1</title>
<path fill="none" stroke="#000000" d="M264.8564,-583.4661C264.3929,-585.8649 263.9281,-588.2705 263.4629,-590.678"/>
<polygon fill="none" stroke="#000000" points="253.1441,-588.7356 257.7622,-620.1828 273.7628,-592.7195 253.1441,-588.7356"/>
</g>
<!-- 3 -->
<g id="node4" class="node">
<title>3</title>
<polygon fill="#f2f2f2" stroke="#000000" points="819.7066,-815.7 819.7066,-974.1 1203.1674,-974.1 1203.1674,-815.7 819.7066,-815.7"/>
<text text-anchor="middle" x="1011.437" y="-957.5" font-family="Times,serif" font-size="14.00" fill="#000000">&lt;&lt;Abstract&gt;&gt;</text>
<text text-anchor="middle" x="1011.437" y="-940.7" font-family="Times,serif" font-size="14.00" fill="#000000">ERC20Basic</text>
<polyline fill="none" stroke="#000000" points="819.7066,-932.5 1203.1674,-932.5 "/>
<text text-anchor="start" x="827.7066" y="-915.9" font-family="Times,serif" font-size="14.00" fill="#000000">Public:</text>
<text text-anchor="start" x="827.7066" y="-899.1" font-family="Times,serif" font-size="14.00" fill="#000000"> &#160;&#160;totalSupply: uint256</text>
<polyline fill="none" stroke="#000000" points="819.7066,-890.9 1203.1674,-890.9 "/>
<text text-anchor="start" x="827.7066" y="-874.3" font-family="Times,serif" font-size="14.00" fill="#000000">Public:</text>
<text text-anchor="start" x="827.7066" y="-857.5" font-family="Times,serif" font-size="14.00" fill="#000000"> &#160;&#160;&#160;&lt;&lt;abstract&gt;&gt; balanceOf(who: address): uint256</text>
<text text-anchor="start" x="827.7066" y="-840.7" font-family="Times,serif" font-size="14.00" fill="#000000"> &#160;&#160;&#160;&lt;&lt;abstract&gt;&gt; transfer(to: address, value: uint256): bool</text>
<text text-anchor="start" x="827.7066" y="-823.9" font-family="Times,serif" font-size="14.00" fill="#000000"> &#160;&#160;&#160;&lt;&lt;event&gt;&gt; Transfer(from: address, to: address, value: uint256)</text>
</g>
<!-- 4 -->
<g id="node5" class="node">
<title>4</title>
<polygon fill="#f2f2f2" stroke="#000000" points="502.5263,-637.1 502.5263,-761.9 800.3477,-761.9 800.3477,-637.1 502.5263,-637.1"/>
<text text-anchor="middle" x="651.437" y="-745.3" font-family="Times,serif" font-size="14.00" fill="#000000">BasicToken</text>
<polyline fill="none" stroke="#000000" points="502.5263,-737.1 800.3477,-737.1 "/>
<text text-anchor="start" x="510.5263" y="-720.5" font-family="Times,serif" font-size="14.00" fill="#000000">Public:</text>
<text text-anchor="start" x="510.5263" y="-703.7" font-family="Times,serif" font-size="14.00" fill="#000000"> &#160;&#160;balances: mapping(address=&gt;uint256)</text>
<polyline fill="none" stroke="#000000" points="502.5263,-695.5 800.3477,-695.5 "/>
<text text-anchor="start" x="510.5263" y="-678.9" font-family="Times,serif" font-size="14.00" fill="#000000">Public:</text>
<text text-anchor="start" x="510.5263" y="-662.1" font-family="Times,serif" font-size="14.00" fill="#000000"> &#160;&#160;&#160;transfer(_to: address, _value: uint256): bool</text>
<text text-anchor="start" x="510.5263" y="-645.3" font-family="Times,serif" font-size="14.00" fill="#000000"> &#160;&#160;&#160;balanceOf(_owner: address): (balance: uint256)</text>
</g>
<!-- 4&#45;&gt;0 -->
<g id="edge3" class="edge">
<title>4&#45;&gt;0</title>
<path fill="none" stroke="#000000" stroke-dasharray="5,2" d="M651.437,-762.1321C651.437,-775.9182 651.437,-790.7783 651.437,-805.3923"/>
<polygon fill="#000000" stroke="#000000" points="647.9371,-805.4541 651.437,-815.4542 654.9371,-805.4542 647.9371,-805.4541"/>
</g>
<!-- 4&#45;&gt;3 -->
<g id="edge2" class="edge">
<title>4&#45;&gt;3</title>
<path fill="none" stroke="#000000" d="M766.8287,-762.1321C789.8612,-774.6336 814.5209,-788.0183 838.994,-801.3018"/>
<polygon fill="none" stroke="#000000" points="834.0154,-810.5465 865.3908,-815.6294 844.0333,-792.0899 834.0154,-810.5465"/>
</g>
<!-- 5 -->
<g id="node6" class="node">
<title>5</title>
<polygon fill="#f2f2f2" stroke="#000000" points="818.1249,-620.3 818.1249,-778.7 1272.7491,-778.7 1272.7491,-620.3 818.1249,-620.3"/>
<text text-anchor="middle" x="1045.437" y="-762.1" font-family="Times,serif" font-size="14.00" fill="#000000">&lt;&lt;Abstract&gt;&gt;</text>
<text text-anchor="middle" x="1045.437" y="-745.3" font-family="Times,serif" font-size="14.00" fill="#000000">ERC20</text>
<polyline fill="none" stroke="#000000" points="818.1249,-737.1 1272.7491,-737.1 "/>
<text text-anchor="middle" x="1045.437" y="-720.5" font-family="Times,serif" font-size="14.00" fill="#000000"> </text>
<polyline fill="none" stroke="#000000" points="818.1249,-712.3 1272.7491,-712.3 "/>
<text text-anchor="start" x="826.1249" y="-695.7" font-family="Times,serif" font-size="14.00" fill="#000000">Public:</text>
<text text-anchor="start" x="826.1249" y="-678.9" font-family="Times,serif" font-size="14.00" fill="#000000"> &#160;&#160;&#160;&lt;&lt;abstract&gt;&gt; allowance(owner: address, spender: address): uint256</text>
<text text-anchor="start" x="826.1249" y="-662.1" font-family="Times,serif" font-size="14.00" fill="#000000"> &#160;&#160;&#160;&lt;&lt;abstract&gt;&gt; transferFrom(from: address, to: address, value: uint256): bool</text>
<text text-anchor="start" x="826.1249" y="-645.3" font-family="Times,serif" font-size="14.00" fill="#000000"> &#160;&#160;&#160;&lt;&lt;abstract&gt;&gt; approve(spender: address, value: uint256): bool</text>
<text text-anchor="start" x="826.1249" y="-628.5" font-family="Times,serif" font-size="14.00" fill="#000000"> &#160;&#160;&#160;&lt;&lt;event&gt;&gt; Approval(owner: address, spender: address, value: uint256)</text>
</g>
<!-- 5&#45;&gt;3 -->
<g id="edge4" class="edge">
<title>5&#45;&gt;3</title>
<path fill="none" stroke="#000000" d="M1031.6079,-778.9767C1031.2149,-781.2351 1030.8196,-783.5071 1030.4228,-785.7874"/>
<polygon fill="none" stroke="#000000" points="1020.0521,-784.1379 1025.2538,-815.4938 1040.7413,-787.7379 1020.0521,-784.1379"/>
</g>
<!-- 6 -->
<g id="node7" class="node">
<title>6</title>
<polygon fill="#f2f2f2" stroke="#000000" points="448.0943,-399.7 448.0943,-574.9 854.7797,-574.9 854.7797,-399.7 448.0943,-399.7"/>
<text text-anchor="middle" x="651.437" y="-558.3" font-family="Times,serif" font-size="14.00" fill="#000000">StandardToken</text>
<polyline fill="none" stroke="#000000" points="448.0943,-550.1 854.7797,-550.1 "/>
<text text-anchor="start" x="456.0943" y="-533.5" font-family="Times,serif" font-size="14.00" fill="#000000">Internal:</text>
<text text-anchor="start" x="456.0943" y="-516.7" font-family="Times,serif" font-size="14.00" fill="#000000"> &#160;&#160;allowed: mapping(address=&gt;mapping(address=&gt;uint256))</text>
<polyline fill="none" stroke="#000000" points="448.0943,-508.5 854.7797,-508.5 "/>
<text text-anchor="start" x="456.0943" y="-491.9" font-family="Times,serif" font-size="14.00" fill="#000000">Public:</text>
<text text-anchor="start" x="456.0943" y="-475.1" font-family="Times,serif" font-size="14.00" fill="#000000"> &#160;&#160;&#160;transferFrom(_from: address, _to: address, _value: uint256): bool</text>
<text text-anchor="start" x="456.0943" y="-458.3" font-family="Times,serif" font-size="14.00" fill="#000000"> &#160;&#160;&#160;approve(_spender: address, _value: uint256): bool</text>
<text text-anchor="start" x="456.0943" y="-441.5" font-family="Times,serif" font-size="14.00" fill="#000000"> &#160;&#160;&#160;allowance(_owner: address, _spender: address): uint256</text>
<text text-anchor="start" x="456.0943" y="-424.7" font-family="Times,serif" font-size="14.00" fill="#000000"> &#160;&#160;&#160;increaseApproval(_spender: address, _addedValue: uint): bool</text>
<text text-anchor="start" x="456.0943" y="-407.9" font-family="Times,serif" font-size="14.00" fill="#000000"> &#160;&#160;&#160;decreaseApproval(_spender: address, _subtractedValue: uint): bool</text>
</g>
<!-- 6&#45;&gt;4 -->
<g id="edge6" class="edge">
<title>6&#45;&gt;4</title>
<path fill="none" stroke="#000000" d="M651.437,-575.1416C651.437,-585.5173 651.437,-596.1332 651.437,-606.5761"/>
<polygon fill="none" stroke="#000000" points="640.9371,-606.9729 651.437,-636.9729 661.9371,-606.9729 640.9371,-606.9729"/>
</g>
<!-- 6&#45;&gt;5 -->
<g id="edge5" class="edge">
<title>6&#45;&gt;5</title>
<path fill="none" stroke="#000000" d="M814.2513,-574.9883C833.1853,-585.1857 852.5539,-595.6173 871.6284,-605.8904"/>
<polygon fill="none" stroke="#000000" points="866.9318,-615.2869 898.3235,-620.2678 876.8896,-596.7979 866.9318,-615.2869"/>
</g>
<!-- 7 -->
<g id="node8" class="node">
<title>7</title>
<polygon fill="#f2f2f2" stroke="#000000" points="214.7496,-195.9 214.7496,-354.3 680.1244,-354.3 680.1244,-195.9 214.7496,-195.9"/>
<text text-anchor="middle" x="447.437" y="-337.7" font-family="Times,serif" font-size="14.00" fill="#000000">PausableToken</text>
<polyline fill="none" stroke="#000000" points="214.7496,-329.5 680.1244,-329.5 "/>
<text text-anchor="middle" x="447.437" y="-312.9" font-family="Times,serif" font-size="14.00" fill="#000000"> </text>
<polyline fill="none" stroke="#000000" points="214.7496,-304.7 680.1244,-304.7 "/>
<text text-anchor="start" x="222.7496" y="-288.1" font-family="Times,serif" font-size="14.00" fill="#000000">Public:</text>
<text text-anchor="start" x="222.7496" y="-271.3" font-family="Times,serif" font-size="14.00" fill="#000000"> &#160;&#160;&#160;transfer(_to: address, _value: uint256): bool</text>
<text text-anchor="start" x="222.7496" y="-254.5" font-family="Times,serif" font-size="14.00" fill="#000000"> &#160;&#160;&#160;transferFrom(_from: address, _to: address, _value: uint256): bool</text>
<text text-anchor="start" x="222.7496" y="-237.7" font-family="Times,serif" font-size="14.00" fill="#000000"> &#160;&#160;&#160;approve(_spender: address, _value: uint256): bool</text>
<text text-anchor="start" x="222.7496" y="-220.9" font-family="Times,serif" font-size="14.00" fill="#000000"> &#160;&#160;&#160;increaseApproval(_spender: address, _addedValue: uint): (success: bool)</text>
<text text-anchor="start" x="222.7496" y="-204.1" font-family="Times,serif" font-size="14.00" fill="#000000"> &#160;&#160;&#160;decreaseApproval(_spender: address, _subtractedValue: uint): (success: bool)</text>
</g>
<!-- 7&#45;&gt;2 -->
<g id="edge8" class="edge">
<title>7&#45;&gt;2</title>
<path fill="none" stroke="#000000" d="M386.1362,-354.4172C382.8737,-358.6386 379.5645,-362.9204 376.231,-367.2336"/>
<polygon fill="none" stroke="#000000" points="367.7174,-361.0787 357.6801,-391.2367 384.3334,-373.9205 367.7174,-361.0787"/>
</g>
<!-- 7&#45;&gt;6 -->
<g id="edge7" class="edge">
<title>7&#45;&gt;6</title>
<path fill="none" stroke="#000000" d="M523.6892,-354.4172C530.9834,-362.0046 538.4655,-369.7875 545.9727,-377.5965"/>
<polygon fill="none" stroke="#000000" points="538.7,-385.182 567.0607,-399.5321 553.8388,-370.6281 538.7,-385.182"/>
</g>
<!-- 8 -->
<g id="node9" class="node">
<title>8</title>
<polygon fill="#f2f2f2" stroke="#000000" points="364.3942,-.5 364.3942,-158.9 530.4798,-158.9 530.4798,-.5 364.3942,-.5"/>
<text text-anchor="middle" x="447.437" y="-142.3" font-family="Times,serif" font-size="14.00" fill="#000000">CyberMilesToken</text>
<polyline fill="none" stroke="#000000" points="364.3942,-134.1 530.4798,-134.1 "/>
<text text-anchor="start" x="372.3942" y="-117.5" font-family="Times,serif" font-size="14.00" fill="#000000">Public:</text>
<text text-anchor="start" x="372.3942" y="-100.7" font-family="Times,serif" font-size="14.00" fill="#000000"> &#160;&#160;name: string</text>
<text text-anchor="start" x="372.3942" y="-83.9" font-family="Times,serif" font-size="14.00" fill="#000000"> &#160;&#160;symbol: string</text>
<text text-anchor="start" x="372.3942" y="-67.1" font-family="Times,serif" font-size="14.00" fill="#000000"> &#160;&#160;decimals: uint</text>
<text text-anchor="start" x="372.3942" y="-50.3" font-family="Times,serif" font-size="14.00" fill="#000000"> &#160;&#160;INITIAL_SUPPLY: uint</text>
<polyline fill="none" stroke="#000000" points="364.3942,-42.1 530.4798,-42.1 "/>
<text text-anchor="start" x="372.3942" y="-25.5" font-family="Times,serif" font-size="14.00" fill="#000000">Public:</text>
<text text-anchor="start" x="372.3942" y="-8.7" font-family="Times,serif" font-size="14.00" fill="#000000"> &#160;&#160;&#160;constructor()</text>
</g>
<!-- 8&#45;&gt;7 -->
<g id="edge9" class="edge">
<title>8&#45;&gt;7</title>
<path fill="none" stroke="#000000" d="M447.437,-159.1767C447.437,-161.2469 447.437,-163.3285 447.437,-165.4175"/>
<polygon fill="none" stroke="#000000" points="436.9371,-165.6937 447.437,-195.6938 457.9371,-165.6938 436.9371,-165.6937"/>
</g>
</g>
</svg>
