<?xml version="1.0" encoding="UTF-8" standalone="no"?>
<!DOCTYPE svg PUBLIC "-//W3C//DTD SVG 1.1//EN"
 "http://www.w3.org/Graphics/SVG/1.1/DTD/svg11.dtd">
<!-- Generated by graphviz version 2.40.1 (20161225.0304)
 -->
<!-- Title: UmlClassDiagram Pages: 1 -->
<svg width="1240pt" height="1022pt"
 viewBox="0.00 0.00 1239.55 1022.40" xmlns="http://www.w3.org/2000/svg" xmlns:xlink="http://www.w3.org/1999/xlink">
<g id="graph0" class="graph" transform="scale(1 1) rotate(0) translate(4 1018.4)">
<title>UmlClassDiagram</title>
<polygon fill="#ffffff" stroke="transparent" points="-4,4 -4,-1018.4 1235.5513,-1018.4 1235.5513,4 -4,4"/>
<!-- 0 -->
<g id="node1" class="node">
<title>0</title>
<polygon fill="#f2f2f2" stroke="#000000" points="985.7875,-821.9 985.7875,-963.5 1231.5513,-963.5 1231.5513,-821.9 985.7875,-821.9"/>
<text text-anchor="middle" x="1108.6694" y="-946.9" font-family="Times,serif" font-size="14.00" fill="#000000">&lt;&lt;Library&gt;&gt;</text>
<text text-anchor="middle" x="1108.6694" y="-930.1" font-family="Times,serif" font-size="14.00" fill="#000000">Roles</text>
<polyline fill="none" stroke="#000000" points="985.7875,-921.9 1231.5513,-921.9 "/>
<text text-anchor="middle" x="1108.6694" y="-905.3" font-family="Times,serif" font-size="14.00" fill="#000000"> </text>
<polyline fill="none" stroke="#000000" points="985.7875,-897.1 1231.5513,-897.1 "/>
<text text-anchor="start" x="993.7875" y="-880.5" font-family="Times,serif" font-size="14.00" fill="#000000">Internal:</text>
<text text-anchor="start" x="993.7875" y="-863.7" font-family="Times,serif" font-size="14.00" fill="#000000"> &#160;&#160;&#160;add(role: Role, account: address)</text>
<text text-anchor="start" x="993.7875" y="-846.9" font-family="Times,serif" font-size="14.00" fill="#000000"> &#160;&#160;&#160;remove(role: Role, account: address)</text>
<text text-anchor="start" x="993.7875" y="-830.1" font-family="Times,serif" font-size="14.00" fill="#000000"> &#160;&#160;&#160;has(role: Role, account: address): bool</text>
</g>
<!-- 0struct0 -->
<g id="node2" class="node">
<title>0struct0</title>
<polygon fill="#f2f2f2" stroke="#000000" points="1009.0037,-529.7 1009.0037,-596.1 1208.3351,-596.1 1208.3351,-529.7 1009.0037,-529.7"/>
<text text-anchor="middle" x="1108.6694" y="-579.5" font-family="Times,serif" font-size="14.00" fill="#000000">&lt;&lt;struct&gt;&gt;</text>
<text text-anchor="middle" x="1108.6694" y="-562.7" font-family="Times,serif" font-size="14.00" fill="#000000">Role</text>
<polyline fill="none" stroke="#000000" points="1009.0037,-554.5 1208.3351,-554.5 "/>
<text text-anchor="start" x="1017.0037" y="-537.9" font-family="Times,serif" font-size="14.00" fill="#000000">bearer: mapping(address=&gt;bool)</text>
</g>
<!-- 0struct0&#45;&gt;0 -->
<g id="edge1" class="edge">
<title>0struct0&#45;&gt;0</title>
<path fill="none" stroke="#000000" d="M1108.6694,-596.3379C1108.6694,-645.9272 1108.6694,-740.5267 1108.6694,-809.548"/>
<polygon fill="#000000" stroke="#000000" points="1108.6695,-809.6885 1112.6694,-815.6885 1108.6694,-821.6885 1104.6694,-815.6885 1108.6695,-809.6885"/>
</g>
<!-- 1 -->
<g id="node3" class="node">
<title>1</title>
<polygon fill="#f2f2f2" stroke="#000000" points="701.979,-433.3 701.979,-692.5 991.3598,-692.5 991.3598,-433.3 701.979,-433.3"/>
<text text-anchor="middle" x="846.6694" y="-675.9" font-family="Times,serif" font-size="14.00" fill="#000000">MinterRole</text>
<polyline fill="none" stroke="#000000" points="701.979,-667.7 991.3598,-667.7 "/>
<text text-anchor="start" x="709.979" y="-651.1" font-family="Times,serif" font-size="14.00" fill="#000000">Private:</text>
<text text-anchor="start" x="709.979" y="-634.3" font-family="Times,serif" font-size="14.00" fill="#000000"> &#160;&#160;_minters: Roles.Role</text>
<polyline fill="none" stroke="#000000" points="701.979,-626.1 991.3598,-626.1 "/>
<text text-anchor="start" x="709.979" y="-609.5" font-family="Times,serif" font-size="14.00" fill="#000000">Internal:</text>
<text text-anchor="start" x="709.979" y="-592.7" font-family="Times,serif" font-size="14.00" fill="#000000"> &#160;&#160;&#160;_addMinter(account: address)</text>
<text text-anchor="start" x="709.979" y="-575.9" font-family="Times,serif" font-size="14.00" fill="#000000"> &#160;&#160;&#160;_removeMinter(account: address)</text>
<text text-anchor="start" x="709.979" y="-559.1" font-family="Times,serif" font-size="14.00" fill="#000000">Public:</text>
<text text-anchor="start" x="709.979" y="-542.3" font-family="Times,serif" font-size="14.00" fill="#000000"> &#160;&#160;&#160;&lt;&lt;event&gt;&gt; MinterAdded(account: address)</text>
<text text-anchor="start" x="709.979" y="-525.5" font-family="Times,serif" font-size="14.00" fill="#000000"> &#160;&#160;&#160;&lt;&lt;event&gt;&gt; MinterRemoved(account: address)</text>
<text text-anchor="start" x="709.979" y="-508.7" font-family="Times,serif" font-size="14.00" fill="#000000"> &#160;&#160;&#160;&lt;&lt;modifier&gt;&gt; onlyMinter()</text>
<text text-anchor="start" x="709.979" y="-491.9" font-family="Times,serif" font-size="14.00" fill="#000000"> &#160;&#160;&#160;constructor()</text>
<text text-anchor="start" x="709.979" y="-475.1" font-family="Times,serif" font-size="14.00" fill="#000000"> &#160;&#160;&#160;isMinter(account: address): bool</text>
<text text-anchor="start" x="709.979" y="-458.3" font-family="Times,serif" font-size="14.00" fill="#000000"> &#160;&#160;&#160;addMinter(account: address)</text>
<text text-anchor="start" x="709.979" y="-441.5" font-family="Times,serif" font-size="14.00" fill="#000000"> &#160;&#160;&#160;renounceMinter()</text>
</g>
<!-- 1&#45;&gt;0 -->
<g id="edge2" class="edge">
<title>1&#45;&gt;0</title>
<path fill="none" stroke="#000000" d="M949.8426,-692.7723C982.3263,-733.662 1017.2031,-777.5642 1045.9761,-813.783"/>
<polygon fill="#000000" stroke="#000000" points="1043.4352,-816.2113 1052.396,-821.8642 1048.9161,-811.8571 1043.4352,-816.2113"/>
</g>
<!-- 2 -->
<g id="node4" class="node">
<title>2</title>
<polygon fill="#f2f2f2" stroke="#000000" points="0,-771.5 0,-1013.9 429.3388,-1013.9 429.3388,-771.5 0,-771.5"/>
<text text-anchor="middle" x="214.6694" y="-997.3" font-family="Times,serif" font-size="14.00" fill="#000000">&lt;&lt;Interface&gt;&gt;</text>
<text text-anchor="middle" x="214.6694" y="-980.5" font-family="Times,serif" font-size="14.00" fill="#000000">IERC20</text>
<polyline fill="none" stroke="#000000" points="0,-972.3 429.3388,-972.3 "/>
<text text-anchor="middle" x="214.6694" y="-955.7" font-family="Times,serif" font-size="14.00" fill="#000000"> </text>
<polyline fill="none" stroke="#000000" points="0,-947.5 429.3388,-947.5 "/>
<text text-anchor="start" x="8" y="-930.9" font-family="Times,serif" font-size="14.00" fill="#000000">External:</text>
<text text-anchor="start" x="8" y="-914.1" font-family="Times,serif" font-size="14.00" fill="#000000"> &#160;&#160;&#160;&#160;transfer(to: address, value: uint256): bool</text>
<text text-anchor="start" x="8" y="-897.3" font-family="Times,serif" font-size="14.00" fill="#000000"> &#160;&#160;&#160;&#160;approve(spender: address, value: uint256): bool</text>
<text text-anchor="start" x="8" y="-880.5" font-family="Times,serif" font-size="14.00" fill="#000000"> &#160;&#160;&#160;&#160;transferFrom(from: address, to: address, value: uint256): bool</text>
<text text-anchor="start" x="8" y="-863.7" font-family="Times,serif" font-size="14.00" fill="#000000"> &#160;&#160;&#160;&#160;totalSupply(): uint256</text>
<text text-anchor="start" x="8" y="-846.9" font-family="Times,serif" font-size="14.00" fill="#000000"> &#160;&#160;&#160;&#160;balanceOf(who: address): uint256</text>
<text text-anchor="start" x="8" y="-830.1" font-family="Times,serif" font-size="14.00" fill="#000000"> &#160;&#160;&#160;&#160;allowance(owner: address, spender: address): uint256</text>
<text text-anchor="start" x="8" y="-813.3" font-family="Times,serif" font-size="14.00" fill="#000000">Public:</text>
<text text-anchor="start" x="8" y="-796.5" font-family="Times,serif" font-size="14.00" fill="#000000"> &#160;&#160;&#160;&lt;&lt;event&gt;&gt; Transfer(from: address, to: address, value: uint256)</text>
<text text-anchor="start" x="8" y="-779.7" font-family="Times,serif" font-size="14.00" fill="#000000"> &#160;&#160;&#160;&lt;&lt;event&gt;&gt; Approval(owner: address, spender: address, value: uint256)</text>
</g>
<!-- 3 -->
<g id="node5" class="node">
<title>3</title>
<polygon fill="#f2f2f2" stroke="#000000" points="447.1985,-805.1 447.1985,-980.3 682.1403,-980.3 682.1403,-805.1 447.1985,-805.1"/>
<text text-anchor="middle" x="564.6694" y="-963.7" font-family="Times,serif" font-size="14.00" fill="#000000">&lt;&lt;Library&gt;&gt;</text>
<text text-anchor="middle" x="564.6694" y="-946.9" font-family="Times,serif" font-size="14.00" fill="#000000">SafeMath</text>
<polyline fill="none" stroke="#000000" points="447.1985,-938.7 682.1403,-938.7 "/>
<text text-anchor="middle" x="564.6694" y="-922.1" font-family="Times,serif" font-size="14.00" fill="#000000"> </text>
<polyline fill="none" stroke="#000000" points="447.1985,-913.9 682.1403,-913.9 "/>
<text text-anchor="start" x="455.1985" y="-897.3" font-family="Times,serif" font-size="14.00" fill="#000000">Internal:</text>
<text text-anchor="start" x="455.1985" y="-880.5" font-family="Times,serif" font-size="14.00" fill="#000000"> &#160;&#160;&#160;mul(a: uint256, b: uint256): uint256</text>
<text text-anchor="start" x="455.1985" y="-863.7" font-family="Times,serif" font-size="14.00" fill="#000000"> &#160;&#160;&#160;div(a: uint256, b: uint256): uint256</text>
<text text-anchor="start" x="455.1985" y="-846.9" font-family="Times,serif" font-size="14.00" fill="#000000"> &#160;&#160;&#160;sub(a: uint256, b: uint256): uint256</text>
<text text-anchor="start" x="455.1985" y="-830.1" font-family="Times,serif" font-size="14.00" fill="#000000"> &#160;&#160;&#160;add(a: uint256, b: uint256): uint256</text>
<text text-anchor="start" x="455.1985" y="-813.3" font-family="Times,serif" font-size="14.00" fill="#000000"> &#160;&#160;&#160;mod(a: uint256, b: uint256): uint256</text>
</g>
<!-- 4 -->
<g id="node6" class="node">
<title>4</title>
<polygon fill="#f2f2f2" stroke="#000000" points="262.9438,-391.3 262.9438,-734.5 684.395,-734.5 684.395,-391.3 262.9438,-391.3"/>
<text text-anchor="middle" x="473.6694" y="-717.9" font-family="Times,serif" font-size="14.00" fill="#000000">ERC20</text>
<polyline fill="none" stroke="#000000" points="262.9438,-709.7 684.395,-709.7 "/>
<text text-anchor="start" x="270.9438" y="-693.1" font-family="Times,serif" font-size="14.00" fill="#000000">Private:</text>
<text text-anchor="start" x="270.9438" y="-676.3" font-family="Times,serif" font-size="14.00" fill="#000000"> &#160;&#160;_balances: mapping(address=&gt;uint256)</text>
<text text-anchor="start" x="270.9438" y="-659.5" font-family="Times,serif" font-size="14.00" fill="#000000"> &#160;&#160;_allowed: mapping(address=&gt;mapping(address=&gt;uint256))</text>
<text text-anchor="start" x="270.9438" y="-642.7" font-family="Times,serif" font-size="14.00" fill="#000000"> &#160;&#160;_totalSupply: uint256</text>
<polyline fill="none" stroke="#000000" points="262.9438,-634.5 684.395,-634.5 "/>
<text text-anchor="start" x="270.9438" y="-617.9" font-family="Times,serif" font-size="14.00" fill="#000000">Internal:</text>
<text text-anchor="start" x="270.9438" y="-601.1" font-family="Times,serif" font-size="14.00" fill="#000000"> &#160;&#160;&#160;_transfer(from: address, to: address, value: uint256)</text>
<text text-anchor="start" x="270.9438" y="-584.3" font-family="Times,serif" font-size="14.00" fill="#000000"> &#160;&#160;&#160;_mint(account: address, value: uint256)</text>
<text text-anchor="start" x="270.9438" y="-567.5" font-family="Times,serif" font-size="14.00" fill="#000000"> &#160;&#160;&#160;_burn(account: address, value: uint256)</text>
<text text-anchor="start" x="270.9438" y="-550.7" font-family="Times,serif" font-size="14.00" fill="#000000"> &#160;&#160;&#160;_burnFrom(account: address, value: uint256)</text>
<text text-anchor="start" x="270.9438" y="-533.9" font-family="Times,serif" font-size="14.00" fill="#000000">Public:</text>
<text text-anchor="start" x="270.9438" y="-517.1" font-family="Times,serif" font-size="14.00" fill="#000000"> &#160;&#160;&#160;totalSupply(): uint256</text>
<text text-anchor="start" x="270.9438" y="-500.3" font-family="Times,serif" font-size="14.00" fill="#000000"> &#160;&#160;&#160;balanceOf(owner: address): uint256</text>
<text text-anchor="start" x="270.9438" y="-483.5" font-family="Times,serif" font-size="14.00" fill="#000000"> &#160;&#160;&#160;allowance(owner: address, spender: address): uint256</text>
<text text-anchor="start" x="270.9438" y="-466.7" font-family="Times,serif" font-size="14.00" fill="#000000"> &#160;&#160;&#160;transfer(to: address, value: uint256): bool</text>
<text text-anchor="start" x="270.9438" y="-449.9" font-family="Times,serif" font-size="14.00" fill="#000000"> &#160;&#160;&#160;approve(spender: address, value: uint256): bool</text>
<text text-anchor="start" x="270.9438" y="-433.1" font-family="Times,serif" font-size="14.00" fill="#000000"> &#160;&#160;&#160;transferFrom(from: address, to: address, value: uint256): bool</text>
<text text-anchor="start" x="270.9438" y="-416.3" font-family="Times,serif" font-size="14.00" fill="#000000"> &#160;&#160;&#160;increaseAllowance(spender: address, addedValue: uint256): bool</text>
<text text-anchor="start" x="270.9438" y="-399.5" font-family="Times,serif" font-size="14.00" fill="#000000"> &#160;&#160;&#160;decreaseAllowance(spender: address, subtractedValue: uint256): bool</text>
</g>
<!-- 4&#45;&gt;2 -->
<g id="edge3" class="edge">
<title>4&#45;&gt;2</title>
<path fill="none" stroke="#000000" stroke-dasharray="5,2" d="M338.8592,-734.5618C335.4454,-738.9087 332.0366,-743.2494 328.6422,-747.5717"/>
<polygon fill="none" stroke="#000000" points="320.338,-741.1456 310.0669,-771.2247 336.8538,-754.1159 320.338,-741.1456"/>
</g>
<!-- 4&#45;&gt;3 -->
<g id="edge4" class="edge">
<title>4&#45;&gt;3</title>
<path fill="none" stroke="#000000" stroke-dasharray="5,2" d="M521.0351,-734.5618C526.7722,-755.3538 532.4696,-776.0022 537.7617,-795.1818"/>
<polygon fill="#000000" stroke="#000000" points="534.4564,-796.3619 540.4903,-805.0707 541.2043,-794.4999 534.4564,-796.3619"/>
</g>
<!-- 5 -->
<g id="node7" class="node">
<title>5</title>
<polygon fill="#f2f2f2" stroke="#000000" points="38.5049,-162.3 38.5049,-354.3 390.8339,-354.3 390.8339,-162.3 38.5049,-162.3"/>
<text text-anchor="middle" x="214.6694" y="-337.7" font-family="Times,serif" font-size="14.00" fill="#000000">ERC20Detailed</text>
<polyline fill="none" stroke="#000000" points="38.5049,-329.5 390.8339,-329.5 "/>
<text text-anchor="start" x="46.5049" y="-312.9" font-family="Times,serif" font-size="14.00" fill="#000000">Private:</text>
<text text-anchor="start" x="46.5049" y="-296.1" font-family="Times,serif" font-size="14.00" fill="#000000"> &#160;&#160;_name: string</text>
<text text-anchor="start" x="46.5049" y="-279.3" font-family="Times,serif" font-size="14.00" fill="#000000"> &#160;&#160;_symbol: string</text>
<text text-anchor="start" x="46.5049" y="-262.5" font-family="Times,serif" font-size="14.00" fill="#000000"> &#160;&#160;_decimals: uint8</text>
<polyline fill="none" stroke="#000000" points="38.5049,-254.3 390.8339,-254.3 "/>
<text text-anchor="start" x="46.5049" y="-237.7" font-family="Times,serif" font-size="14.00" fill="#000000">Public:</text>
<text text-anchor="start" x="46.5049" y="-220.9" font-family="Times,serif" font-size="14.00" fill="#000000"> &#160;&#160;&#160;constructor(name: string, symbol: string, decimals: uint8)</text>
<text text-anchor="start" x="46.5049" y="-204.1" font-family="Times,serif" font-size="14.00" fill="#000000"> &#160;&#160;&#160;name(): string</text>
<text text-anchor="start" x="46.5049" y="-187.3" font-family="Times,serif" font-size="14.00" fill="#000000"> &#160;&#160;&#160;symbol(): string</text>
<text text-anchor="start" x="46.5049" y="-170.5" font-family="Times,serif" font-size="14.00" fill="#000000"> &#160;&#160;&#160;decimals(): uint8</text>
</g>
<!-- 5&#45;&gt;2 -->
<g id="edge5" class="edge">
<title>5&#45;&gt;2</title>
<path fill="none" stroke="#000000" stroke-dasharray="5,2" d="M214.6694,-354.3071C214.6694,-456.9113 214.6694,-621.0009 214.6694,-741.0887"/>
<polygon fill="none" stroke="#000000" points="204.1695,-741.3793 214.6694,-771.3793 225.1695,-741.3794 204.1695,-741.3793"/>
</g>
<!-- 6 -->
<g id="node8" class="node">
<title>6</title>
<polygon fill="#f2f2f2" stroke="#000000" points="724.1564,-212.7 724.1564,-303.9 969.1824,-303.9 969.1824,-212.7 724.1564,-212.7"/>
<text text-anchor="middle" x="846.6694" y="-287.3" font-family="Times,serif" font-size="14.00" fill="#000000">ERC20Mintable</text>
<polyline fill="none" stroke="#000000" points="724.1564,-279.1 969.1824,-279.1 "/>
<text text-anchor="middle" x="846.6694" y="-262.5" font-family="Times,serif" font-size="14.00" fill="#000000"> </text>
<polyline fill="none" stroke="#000000" points="724.1564,-254.3 969.1824,-254.3 "/>
<text text-anchor="start" x="732.1564" y="-237.7" font-family="Times,serif" font-size="14.00" fill="#000000">Public:</text>
<text text-anchor="start" x="732.1564" y="-220.9" font-family="Times,serif" font-size="14.00" fill="#000000"> &#160;&#160;&#160;mint(to: address, value: uint256): bool</text>
</g>
<!-- 6&#45;&gt;1 -->
<g id="edge7" class="edge">
<title>6&#45;&gt;1</title>
<path fill="none" stroke="#000000" d="M846.6694,-303.9017C846.6694,-330.8082 846.6694,-366.6434 846.6694,-403.0552"/>
<polygon fill="none" stroke="#000000" points="836.1695,-403.2477 846.6694,-433.2477 857.1695,-403.2477 836.1695,-403.2477"/>
</g>
<!-- 6&#45;&gt;4 -->
<g id="edge6" class="edge">
<title>6&#45;&gt;4</title>
<path fill="none" stroke="#000000" d="M790.8275,-303.9017C767.311,-323.1058 738.2247,-346.8584 707.2871,-372.1226"/>
<polygon fill="none" stroke="#000000" points="700.5058,-364.1041 683.9108,-391.2123 713.7887,-380.3696 700.5058,-364.1041"/>
</g>
<!-- 7 -->
<g id="node9" class="node">
<title>7</title>
<polygon fill="#f2f2f2" stroke="#000000" points="446.9751,-204.3 446.9751,-312.3 706.3637,-312.3 706.3637,-204.3 446.9751,-204.3"/>
<text text-anchor="middle" x="576.6694" y="-295.7" font-family="Times,serif" font-size="14.00" fill="#000000">ERC20Burnable</text>
<polyline fill="none" stroke="#000000" points="446.9751,-287.5 706.3637,-287.5 "/>
<text text-anchor="middle" x="576.6694" y="-270.9" font-family="Times,serif" font-size="14.00" fill="#000000"> </text>
<polyline fill="none" stroke="#000000" points="446.9751,-262.7 706.3637,-262.7 "/>
<text text-anchor="start" x="454.9751" y="-246.1" font-family="Times,serif" font-size="14.00" fill="#000000">Public:</text>
<text text-anchor="start" x="454.9751" y="-229.3" font-family="Times,serif" font-size="14.00" fill="#000000"> &#160;&#160;&#160;burn(value: uint256)</text>
<text text-anchor="start" x="454.9751" y="-212.5" font-family="Times,serif" font-size="14.00" fill="#000000"> &#160;&#160;&#160;burnFrom(from: address, value: uint256)</text>
</g>
<!-- 7&#45;&gt;4 -->
<g id="edge8" class="edge">
<title>7&#45;&gt;4</title>
<path fill="none" stroke="#000000" d="M558.3738,-312.4054C553.3363,-327.3027 547.5599,-344.3851 541.442,-362.4772"/>
<polygon fill="none" stroke="#000000" points="531.4398,-359.2782 531.7765,-391.0609 551.3332,-366.0052 531.4398,-359.2782"/>
</g>
<!-- 8 -->
<g id="node10" class="node">
<title>8</title>
<polygon fill="#f2f2f2" stroke="#000000" points="336.8958,-.5 336.8958,-125.3 658.443,-125.3 658.443,-.5 336.8958,-.5"/>
<text text-anchor="middle" x="497.6694" y="-108.7" font-family="Times,serif" font-size="14.00" fill="#000000">NewLGO</text>
<polyline fill="none" stroke="#000000" points="336.8958,-100.5 658.443,-100.5 "/>
<text text-anchor="middle" x="497.6694" y="-83.9" font-family="Times,serif" font-size="14.00" fill="#000000"> </text>
<polyline fill="none" stroke="#000000" points="336.8958,-75.7 658.443,-75.7 "/>
<text text-anchor="start" x="344.8958" y="-59.1" font-family="Times,serif" font-size="14.00" fill="#000000">Public:</text>
<text text-anchor="start" x="344.8958" y="-42.3" font-family="Times,serif" font-size="14.00" fill="#000000"> &#160;&#160;&#160;constructor()</text>
<text text-anchor="start" x="344.8958" y="-25.5" font-family="Times,serif" font-size="14.00" fill="#000000"> &#160;&#160;&#160;bulkMint(accounts: address[], values: uint256[])</text>
<text text-anchor="start" x="344.8958" y="-8.7" font-family="Times,serif" font-size="14.00" fill="#000000"> &#160;&#160;&#160;bulkTransfer(accounts: address[], values: uint256[])</text>
</g>
<!-- 8&#45;&gt;4 -->
<g id="edge9" class="edge">
<title>8&#45;&gt;4</title>
<path fill="none" stroke="#000000" d="M452.8852,-125.4586C446.6112,-137.0514 441.1306,-149.4218 437.6694,-161.8 419.9125,-225.3037 420.1255,-296.4566 427.4779,-361.0034"/>
<polygon fill="none" stroke="#000000" points="417.118,-362.7547 431.4652,-391.1168 437.9363,-359.998 417.118,-362.7547"/>
</g>
<!-- 8&#45;&gt;5 -->
<g id="edge10" class="edge">
<title>8&#45;&gt;5</title>
<path fill="none" stroke="#000000" d="M406.9587,-125.5321C397.8078,-131.8504 388.3301,-138.3943 378.7098,-145.0368"/>
<polygon fill="none" stroke="#000000" points="372.5548,-136.5268 353.8336,-162.2128 384.4866,-153.8078 372.5548,-136.5268"/>
</g>
<!-- 8&#45;&gt;6 -->
<g id="edge11" class="edge">
<title>8&#45;&gt;6</title>
<path fill="none" stroke="#000000" d="M646.3702,-125.3066C669.9767,-136.6469 693.801,-148.9752 715.6694,-161.8 732.3795,-171.5997 749.5376,-183.074 765.7046,-194.6225"/>
<polygon fill="none" stroke="#000000" points="759.71,-203.2481 790.0872,-212.6012 772.1729,-186.3461 759.71,-203.2481"/>
</g>
<!-- 8&#45;&gt;7 -->
<g id="edge12" class="edge">
<title>8&#45;&gt;7</title>
<path fill="none" stroke="#000000" d="M522.9915,-125.5321C529.5145,-141.6663 536.6323,-159.2716 543.4893,-176.2318"/>
<polygon fill="none" stroke="#000000" points="533.8331,-180.3613 554.8124,-204.2386 553.3022,-172.49 533.8331,-180.3613"/>
</g>
</g>
</svg>
