<?xml version="1.0" encoding="UTF-8" standalone="no"?>
<!DOCTYPE svg PUBLIC "-//W3C//DTD SVG 1.1//EN"
 "http://www.w3.org/Graphics/SVG/1.1/DTD/svg11.dtd">
<!-- Generated by graphviz version 2.40.1 (20161225.0304)
 -->
<!-- Title: UmlClassDiagram Pages: 1 -->
<svg width="1259pt" height="955pt"
 viewBox="0.00 0.00 1259.49 955.20" xmlns="http://www.w3.org/2000/svg" xmlns:xlink="http://www.w3.org/1999/xlink">
<g id="graph0" class="graph" transform="scale(1 1) rotate(0) translate(4 951.2)">
<title>UmlClassDiagram</title>
<polygon fill="#ffffff" stroke="transparent" points="-4,4 -4,-951.2 1255.4872,-951.2 1255.4872,4 -4,4"/>
<!-- 0 -->
<g id="node1" class="node">
<title>0</title>
<polygon fill="#f2f2f2" stroke="#000000" points="0,-592.9 0,-751.3 484.874,-751.3 484.874,-592.9 0,-592.9"/>
<text text-anchor="middle" x="242.437" y="-734.7" font-family="Times,serif" font-size="14.00" fill="#000000">Ownable</text>
<polyline fill="none" stroke="#000000" points="0,-726.5 484.874,-726.5 "/>
<text text-anchor="start" x="8" y="-709.9" font-family="Times,serif" font-size="14.00" fill="#000000">Public:</text>
<text text-anchor="start" x="8" y="-693.1" font-family="Times,serif" font-size="14.00" fill="#000000"> &#160;&#160;owner: address</text>
<polyline fill="none" stroke="#000000" points="0,-684.9 484.874,-684.9 "/>
<text text-anchor="start" x="8" y="-668.3" font-family="Times,serif" font-size="14.00" fill="#000000">Public:</text>
<text text-anchor="start" x="8" y="-651.5" font-family="Times,serif" font-size="14.00" fill="#000000"> &#160;&#160;&#160;&lt;&lt;event&gt;&gt; OwnershipTransferred(previousOwner: address, newOwner: address)</text>
<text text-anchor="start" x="8" y="-634.7" font-family="Times,serif" font-size="14.00" fill="#000000"> &#160;&#160;&#160;&lt;&lt;modifier&gt;&gt; onlyOwner()</text>
<text text-anchor="start" x="8" y="-617.9" font-family="Times,serif" font-size="14.00" fill="#000000"> &#160;&#160;&#160;constructor()</text>
<text text-anchor="start" x="8" y="-601.1" font-family="Times,serif" font-size="14.00" fill="#000000"> &#160;&#160;&#160;transferOwnership(newOwner: address)</text>
</g>
<!-- 1 -->
<g id="node2" class="node">
<title>1</title>
<polygon fill="#f2f2f2" stroke="#000000" points="135.646,-363.9 135.646,-555.9 349.228,-555.9 349.228,-363.9 135.646,-363.9"/>
<text text-anchor="middle" x="242.437" y="-539.3" font-family="Times,serif" font-size="14.00" fill="#000000">Pausable</text>
<polyline fill="none" stroke="#000000" points="135.646,-531.1 349.228,-531.1 "/>
<text text-anchor="start" x="143.646" y="-514.5" font-family="Times,serif" font-size="14.00" fill="#000000">Public:</text>
<text text-anchor="start" x="143.646" y="-497.7" font-family="Times,serif" font-size="14.00" fill="#000000"> &#160;&#160;paused: bool</text>
<polyline fill="none" stroke="#000000" points="135.646,-489.5 349.228,-489.5 "/>
<text text-anchor="start" x="143.646" y="-472.9" font-family="Times,serif" font-size="14.00" fill="#000000">Public:</text>
<text text-anchor="start" x="143.646" y="-456.1" font-family="Times,serif" font-size="14.00" fill="#000000"> &#160;&#160;&#160;&lt;&lt;event&gt;&gt; Pause()</text>
<text text-anchor="start" x="143.646" y="-439.3" font-family="Times,serif" font-size="14.00" fill="#000000"> &#160;&#160;&#160;&lt;&lt;event&gt;&gt; Unpause()</text>
<text text-anchor="start" x="143.646" y="-422.5" font-family="Times,serif" font-size="14.00" fill="#000000"> &#160;&#160;&#160;&lt;&lt;modifier&gt;&gt; whenNotPaused()</text>
<text text-anchor="start" x="143.646" y="-405.7" font-family="Times,serif" font-size="14.00" fill="#000000"> &#160;&#160;&#160;&lt;&lt;modifier&gt;&gt; whenPaused()</text>
<text text-anchor="start" x="143.646" y="-388.9" font-family="Times,serif" font-size="14.00" fill="#000000"> &#160;&#160;&#160;pause()</text>
<text text-anchor="start" x="143.646" y="-372.1" font-family="Times,serif" font-size="14.00" fill="#000000"> &#160;&#160;&#160;unpause()</text>
</g>
<!-- 1&#45;&gt;0 -->
<g id="edge1" class="edge">
<title>1&#45;&gt;0</title>
<path fill="none" stroke="#000000" d="M242.437,-556.0661C242.437,-558.273 242.437,-560.4856 242.437,-562.7002"/>
<polygon fill="none" stroke="#000000" points="231.9371,-562.7828 242.437,-592.7828 252.9371,-562.7828 231.9371,-562.7828"/>
</g>
<!-- 2 -->
<g id="node3" class="node">
<title>2</title>
<polygon fill="#f2f2f2" stroke="#000000" points="367.3019,-389.1 367.3019,-530.7 621.5721,-530.7 621.5721,-389.1 367.3019,-389.1"/>
<text text-anchor="middle" x="494.437" y="-514.1" font-family="Times,serif" font-size="14.00" fill="#000000">Claimable</text>
<polyline fill="none" stroke="#000000" points="367.3019,-505.9 621.5721,-505.9 "/>
<text text-anchor="start" x="375.3019" y="-489.3" font-family="Times,serif" font-size="14.00" fill="#000000">Public:</text>
<text text-anchor="start" x="375.3019" y="-472.5" font-family="Times,serif" font-size="14.00" fill="#000000"> &#160;&#160;pendingOwner: address</text>
<polyline fill="none" stroke="#000000" points="367.3019,-464.3 621.5721,-464.3 "/>
<text text-anchor="start" x="375.3019" y="-447.7" font-family="Times,serif" font-size="14.00" fill="#000000">Public:</text>
<text text-anchor="start" x="375.3019" y="-430.9" font-family="Times,serif" font-size="14.00" fill="#000000"> &#160;&#160;&#160;&lt;&lt;modifier&gt;&gt; onlyPendingOwner()</text>
<text text-anchor="start" x="375.3019" y="-414.1" font-family="Times,serif" font-size="14.00" fill="#000000"> &#160;&#160;&#160;transferOwnership(newOwner: address)</text>
<text text-anchor="start" x="375.3019" y="-397.3" font-family="Times,serif" font-size="14.00" fill="#000000"> &#160;&#160;&#160;claimOwnership()</text>
</g>
<!-- 2&#45;&gt;0 -->
<g id="edge2" class="edge">
<title>2&#45;&gt;0</title>
<path fill="none" stroke="#000000" d="M410.1743,-530.8545C393.9434,-544.522 376.6708,-559.0666 359.6148,-573.4288"/>
<polygon fill="none" stroke="#000000" points="352.7937,-565.4458 336.6092,-592.8011 366.3202,-581.5093 352.7937,-565.4458"/>
</g>
<!-- 3 -->
<g id="node4" class="node">
<title>3</title>
<polygon fill="#f2f2f2" stroke="#000000" points="986.0576,-788.3 986.0576,-946.7 1240.8164,-946.7 1240.8164,-788.3 986.0576,-788.3"/>
<text text-anchor="middle" x="1113.437" y="-930.1" font-family="Times,serif" font-size="14.00" fill="#000000">&lt;&lt;Library&gt;&gt;</text>
<text text-anchor="middle" x="1113.437" y="-913.3" font-family="Times,serif" font-size="14.00" fill="#000000">SafeMath</text>
<polyline fill="none" stroke="#000000" points="986.0576,-905.1 1240.8164,-905.1 "/>
<text text-anchor="middle" x="1113.437" y="-888.5" font-family="Times,serif" font-size="14.00" fill="#000000"> </text>
<polyline fill="none" stroke="#000000" points="986.0576,-880.3 1240.8164,-880.3 "/>
<text text-anchor="start" x="994.0576" y="-863.7" font-family="Times,serif" font-size="14.00" fill="#000000">Internal:</text>
<text text-anchor="start" x="994.0576" y="-846.9" font-family="Times,serif" font-size="14.00" fill="#000000"> &#160;&#160;&#160;mul(a: uint256, b: uint256): (c: uint256)</text>
<text text-anchor="start" x="994.0576" y="-830.1" font-family="Times,serif" font-size="14.00" fill="#000000"> &#160;&#160;&#160;div(a: uint256, b: uint256): uint256</text>
<text text-anchor="start" x="994.0576" y="-813.3" font-family="Times,serif" font-size="14.00" fill="#000000"> &#160;&#160;&#160;sub(a: uint256, b: uint256): uint256</text>
<text text-anchor="start" x="994.0576" y="-796.5" font-family="Times,serif" font-size="14.00" fill="#000000"> &#160;&#160;&#160;add(a: uint256, b: uint256): (c: uint256)</text>
</g>
<!-- 4 -->
<g id="node5" class="node">
<title>4</title>
<polygon fill="#f2f2f2" stroke="#000000" points="561.7066,-788.3 561.7066,-946.7 945.1674,-946.7 945.1674,-788.3 561.7066,-788.3"/>
<text text-anchor="middle" x="753.437" y="-930.1" font-family="Times,serif" font-size="14.00" fill="#000000">&lt;&lt;Abstract&gt;&gt;</text>
<text text-anchor="middle" x="753.437" y="-913.3" font-family="Times,serif" font-size="14.00" fill="#000000">ERC20Basic</text>
<polyline fill="none" stroke="#000000" points="561.7066,-905.1 945.1674,-905.1 "/>
<text text-anchor="middle" x="753.437" y="-888.5" font-family="Times,serif" font-size="14.00" fill="#000000"> </text>
<polyline fill="none" stroke="#000000" points="561.7066,-880.3 945.1674,-880.3 "/>
<text text-anchor="start" x="569.7066" y="-863.7" font-family="Times,serif" font-size="14.00" fill="#000000">Public:</text>
<text text-anchor="start" x="569.7066" y="-846.9" font-family="Times,serif" font-size="14.00" fill="#000000"> &#160;&#160;&#160;&lt;&lt;abstract&gt;&gt; totalSupply(): uint256</text>
<text text-anchor="start" x="569.7066" y="-830.1" font-family="Times,serif" font-size="14.00" fill="#000000"> &#160;&#160;&#160;&lt;&lt;abstract&gt;&gt; balanceOf(who: address): uint256</text>
<text text-anchor="start" x="569.7066" y="-813.3" font-family="Times,serif" font-size="14.00" fill="#000000"> &#160;&#160;&#160;&lt;&lt;abstract&gt;&gt; transfer(to: address, value: uint256): bool</text>
<text text-anchor="start" x="569.7066" y="-796.5" font-family="Times,serif" font-size="14.00" fill="#000000"> &#160;&#160;&#160;&lt;&lt;event&gt;&gt; Transfer(from: address, to: address, value: uint256)</text>
</g>
<!-- 5 -->
<g id="node6" class="node">
<title>5</title>
<polygon fill="#f2f2f2" stroke="#000000" points="975.3868,-592.9 975.3868,-751.3 1251.4872,-751.3 1251.4872,-592.9 975.3868,-592.9"/>
<text text-anchor="middle" x="1113.437" y="-734.7" font-family="Times,serif" font-size="14.00" fill="#000000">BasicToken</text>
<polyline fill="none" stroke="#000000" points="975.3868,-726.5 1251.4872,-726.5 "/>
<text text-anchor="start" x="983.3868" y="-709.9" font-family="Times,serif" font-size="14.00" fill="#000000">Public:</text>
<text text-anchor="start" x="983.3868" y="-693.1" font-family="Times,serif" font-size="14.00" fill="#000000"> &#160;&#160;balances: mapping(address=&gt;uint256)</text>
<text text-anchor="start" x="983.3868" y="-676.3" font-family="Times,serif" font-size="14.00" fill="#000000"> &#160;&#160;totalSupply_: uint256</text>
<polyline fill="none" stroke="#000000" points="975.3868,-668.1 1251.4872,-668.1 "/>
<text text-anchor="start" x="983.3868" y="-651.5" font-family="Times,serif" font-size="14.00" fill="#000000">Public:</text>
<text text-anchor="start" x="983.3868" y="-634.7" font-family="Times,serif" font-size="14.00" fill="#000000"> &#160;&#160;&#160;totalSupply(): uint256</text>
<text text-anchor="start" x="983.3868" y="-617.9" font-family="Times,serif" font-size="14.00" fill="#000000"> &#160;&#160;&#160;transfer(_to: address, _value: uint256): bool</text>
<text text-anchor="start" x="983.3868" y="-601.1" font-family="Times,serif" font-size="14.00" fill="#000000"> &#160;&#160;&#160;balanceOf(_owner: address): uint256</text>
</g>
<!-- 5&#45;&gt;3 -->
<g id="edge4" class="edge">
<title>5&#45;&gt;3</title>
<path fill="none" stroke="#000000" stroke-dasharray="5,2" d="M1113.437,-751.5767C1113.437,-760.2341 1113.437,-769.0895 1113.437,-777.8577"/>
<polygon fill="#000000" stroke="#000000" points="1109.9371,-778.0937 1113.437,-788.0938 1116.9371,-778.0938 1109.9371,-778.0937"/>
</g>
<!-- 5&#45;&gt;4 -->
<g id="edge3" class="edge">
<title>5&#45;&gt;4</title>
<path fill="none" stroke="#000000" d="M975.2812,-747.0879C959.2092,-755.8114 942.6661,-764.7906 926.2038,-773.726"/>
<polygon fill="none" stroke="#000000" points="920.9446,-764.6335 899.587,-788.173 930.9625,-783.0901 920.9446,-764.6335"/>
</g>
<!-- 6 -->
<g id="node7" class="node">
<title>6</title>
<polygon fill="#f2f2f2" stroke="#000000" points="503.1249,-592.9 503.1249,-751.3 957.7491,-751.3 957.7491,-592.9 503.1249,-592.9"/>
<text text-anchor="middle" x="730.437" y="-734.7" font-family="Times,serif" font-size="14.00" fill="#000000">&lt;&lt;Abstract&gt;&gt;</text>
<text text-anchor="middle" x="730.437" y="-717.9" font-family="Times,serif" font-size="14.00" fill="#000000">ERC20</text>
<polyline fill="none" stroke="#000000" points="503.1249,-709.7 957.7491,-709.7 "/>
<text text-anchor="middle" x="730.437" y="-693.1" font-family="Times,serif" font-size="14.00" fill="#000000"> </text>
<polyline fill="none" stroke="#000000" points="503.1249,-684.9 957.7491,-684.9 "/>
<text text-anchor="start" x="511.1249" y="-668.3" font-family="Times,serif" font-size="14.00" fill="#000000">Public:</text>
<text text-anchor="start" x="511.1249" y="-651.5" font-family="Times,serif" font-size="14.00" fill="#000000"> &#160;&#160;&#160;&lt;&lt;abstract&gt;&gt; allowance(owner: address, spender: address): uint256</text>
<text text-anchor="start" x="511.1249" y="-634.7" font-family="Times,serif" font-size="14.00" fill="#000000"> &#160;&#160;&#160;&lt;&lt;abstract&gt;&gt; transferFrom(from: address, to: address, value: uint256): bool</text>
<text text-anchor="start" x="511.1249" y="-617.9" font-family="Times,serif" font-size="14.00" fill="#000000"> &#160;&#160;&#160;&lt;&lt;abstract&gt;&gt; approve(spender: address, value: uint256): bool</text>
<text text-anchor="start" x="511.1249" y="-601.1" font-family="Times,serif" font-size="14.00" fill="#000000"> &#160;&#160;&#160;&lt;&lt;event&gt;&gt; Approval(owner: address, spender: address, value: uint256)</text>
</g>
<!-- 6&#45;&gt;4 -->
<g id="edge5" class="edge">
<title>6&#45;&gt;4</title>
<path fill="none" stroke="#000000" d="M739.792,-751.5767C740.0467,-753.741 740.303,-755.9178 740.5601,-758.1024"/>
<polygon fill="none" stroke="#000000" points="730.1552,-759.5269 744.0903,-788.0938 751.0112,-757.072 730.1552,-759.5269"/>
</g>
<!-- 7 -->
<g id="node8" class="node">
<title>7</title>
<polygon fill="#f2f2f2" stroke="#000000" points="677.0943,-372.3 677.0943,-547.5 1083.7797,-547.5 1083.7797,-372.3 677.0943,-372.3"/>
<text text-anchor="middle" x="880.437" y="-530.9" font-family="Times,serif" font-size="14.00" fill="#000000">StandardToken</text>
<polyline fill="none" stroke="#000000" points="677.0943,-522.7 1083.7797,-522.7 "/>
<text text-anchor="start" x="685.0943" y="-506.1" font-family="Times,serif" font-size="14.00" fill="#000000">Internal:</text>
<text text-anchor="start" x="685.0943" y="-489.3" font-family="Times,serif" font-size="14.00" fill="#000000"> &#160;&#160;allowed: mapping(address=&gt;mapping(address=&gt;uint256))</text>
<polyline fill="none" stroke="#000000" points="677.0943,-481.1 1083.7797,-481.1 "/>
<text text-anchor="start" x="685.0943" y="-464.5" font-family="Times,serif" font-size="14.00" fill="#000000">Public:</text>
<text text-anchor="start" x="685.0943" y="-447.7" font-family="Times,serif" font-size="14.00" fill="#000000"> &#160;&#160;&#160;transferFrom(_from: address, _to: address, _value: uint256): bool</text>
<text text-anchor="start" x="685.0943" y="-430.9" font-family="Times,serif" font-size="14.00" fill="#000000"> &#160;&#160;&#160;approve(_spender: address, _value: uint256): bool</text>
<text text-anchor="start" x="685.0943" y="-414.1" font-family="Times,serif" font-size="14.00" fill="#000000"> &#160;&#160;&#160;allowance(_owner: address, _spender: address): uint256</text>
<text text-anchor="start" x="685.0943" y="-397.3" font-family="Times,serif" font-size="14.00" fill="#000000"> &#160;&#160;&#160;increaseApproval(_spender: address, _addedValue: uint): bool</text>
<text text-anchor="start" x="685.0943" y="-380.5" font-family="Times,serif" font-size="14.00" fill="#000000"> &#160;&#160;&#160;decreaseApproval(_spender: address, _subtractedValue: uint): bool</text>
</g>
<!-- 7&#45;&gt;5 -->
<g id="edge7" class="edge">
<title>7&#45;&gt;5</title>
<path fill="none" stroke="#000000" d="M976.8889,-547.7416C985.858,-555.91 994.9905,-564.2272 1004.0651,-572.4917"/>
<polygon fill="none" stroke="#000000" points="997.1266,-580.3746 1026.3768,-592.8117 1011.2667,-564.8485 997.1266,-580.3746"/>
</g>
<!-- 7&#45;&gt;6 -->
<g id="edge6" class="edge">
<title>7&#45;&gt;6</title>
<path fill="none" stroke="#000000" d="M818.3435,-547.7416C813.5593,-554.5097 808.7028,-561.38 803.8552,-568.2378"/>
<polygon fill="none" stroke="#000000" points="795.2271,-562.2533 786.4844,-592.8117 812.3753,-574.375 795.2271,-562.2533"/>
</g>
<!-- 8 -->
<g id="node9" class="node">
<title>8</title>
<polygon fill="#f2f2f2" stroke="#000000" points="298.0943,-.5 298.0943,-326.9 690.7797,-326.9 690.7797,-.5 298.0943,-.5"/>
<text text-anchor="middle" x="494.437" y="-310.3" font-family="Times,serif" font-size="14.00" fill="#000000">MainframeToken</text>
<polyline fill="none" stroke="#000000" points="298.0943,-302.1 690.7797,-302.1 "/>
<text text-anchor="start" x="306.0943" y="-285.5" font-family="Times,serif" font-size="14.00" fill="#000000">Public:</text>
<text text-anchor="start" x="306.0943" y="-268.7" font-family="Times,serif" font-size="14.00" fill="#000000"> &#160;&#160;name: string</text>
<text text-anchor="start" x="306.0943" y="-251.9" font-family="Times,serif" font-size="14.00" fill="#000000"> &#160;&#160;symbol: string</text>
<text text-anchor="start" x="306.0943" y="-235.1" font-family="Times,serif" font-size="14.00" fill="#000000"> &#160;&#160;decimals: uint8</text>
<text text-anchor="start" x="306.0943" y="-218.3" font-family="Times,serif" font-size="14.00" fill="#000000"> &#160;&#160;distributor: address</text>
<polyline fill="none" stroke="#000000" points="298.0943,-210.1 690.7797,-210.1 "/>
<text text-anchor="start" x="306.0943" y="-193.5" font-family="Times,serif" font-size="14.00" fill="#000000">External:</text>
<text text-anchor="start" x="306.0943" y="-176.7" font-family="Times,serif" font-size="14.00" fill="#000000"> &#160;&#160;&#160;setDistributor(newDistributor: address)</text>
<text text-anchor="start" x="306.0943" y="-159.9" font-family="Times,serif" font-size="14.00" fill="#000000"> &#160;&#160;&#160;emergencyERC20Drain(token: ERC20, amount: uint256)</text>
<text text-anchor="start" x="306.0943" y="-143.1" font-family="Times,serif" font-size="14.00" fill="#000000">Public:</text>
<text text-anchor="start" x="306.0943" y="-126.3" font-family="Times,serif" font-size="14.00" fill="#000000"> &#160;&#160;&#160;&lt;&lt;modifier&gt;&gt; validDestination(to: address)</text>
<text text-anchor="start" x="306.0943" y="-109.5" font-family="Times,serif" font-size="14.00" fill="#000000"> &#160;&#160;&#160;&lt;&lt;modifier&gt;&gt; isTradeable()</text>
<text text-anchor="start" x="306.0943" y="-92.7" font-family="Times,serif" font-size="14.00" fill="#000000"> &#160;&#160;&#160;constructor()</text>
<text text-anchor="start" x="306.0943" y="-75.9" font-family="Times,serif" font-size="14.00" fill="#000000"> &#160;&#160;&#160;transfer(to: address, value: uint256): bool</text>
<text text-anchor="start" x="306.0943" y="-59.1" font-family="Times,serif" font-size="14.00" fill="#000000"> &#160;&#160;&#160;transferFrom(from: address, to: address, value: uint256): bool</text>
<text text-anchor="start" x="306.0943" y="-42.3" font-family="Times,serif" font-size="14.00" fill="#000000"> &#160;&#160;&#160;approve(spender: address, value: uint256): bool</text>
<text text-anchor="start" x="306.0943" y="-25.5" font-family="Times,serif" font-size="14.00" fill="#000000"> &#160;&#160;&#160;increaseApproval(spender: address, addedValue: uint): bool</text>
<text text-anchor="start" x="306.0943" y="-8.7" font-family="Times,serif" font-size="14.00" fill="#000000"> &#160;&#160;&#160;decreaseApproval(spender: address, subtractedValue: uint): bool</text>
</g>
<!-- 8&#45;&gt;1 -->
<g id="edge9" class="edge">
<title>8&#45;&gt;1</title>
<path fill="none" stroke="#000000" d="M355.5372,-326.9624C351.6409,-331.5421 347.7612,-336.1023 343.9132,-340.6252"/>
<polygon fill="none" stroke="#000000" points="335.8211,-333.9327 324.3786,-363.586 351.8157,-347.5405 335.8211,-333.9327"/>
</g>
<!-- 8&#45;&gt;2 -->
<g id="edge10" class="edge">
<title>8&#45;&gt;2</title>
<path fill="none" stroke="#000000" d="M494.437,-326.9624C494.437,-337.6558 494.437,-348.2426 494.437,-358.4967"/>
<polygon fill="none" stroke="#000000" points="483.9371,-358.9247 494.437,-388.9248 504.9371,-358.9248 483.9371,-358.9247"/>
</g>
<!-- 8&#45;&gt;6 -->
<g id="edge11" class="edge">
<title>8&#45;&gt;6</title>
<path fill="none" stroke="#000000" stroke-dasharray="5,2" d="M613.0036,-326.9497C619.4357,-338.9966 625.3386,-351.2101 630.437,-363.4 664.1706,-444.0542 639.0212,-474.0728 668.437,-556.4 671.624,-565.3194 675.4103,-574.3924 679.5175,-583.3339"/>
<polygon fill="#000000" stroke="#000000" points="676.4587,-585.0525 683.902,-592.5923 682.7851,-582.0565 676.4587,-585.0525"/>
</g>
<!-- 8&#45;&gt;7 -->
<g id="edge8" class="edge">
<title>8&#45;&gt;7</title>
<path fill="none" stroke="#000000" d="M690.8294,-314.4032C708.1601,-327.7021 725.4544,-340.9729 742.1529,-353.7867"/>
<polygon fill="none" stroke="#000000" points="735.9344,-362.25 766.1268,-372.1832 748.7187,-345.5898 735.9344,-362.25"/>
</g>
</g>
</svg>
