<?xml version="1.0" encoding="UTF-8" standalone="no"?>
<!DOCTYPE svg PUBLIC "-//W3C//DTD SVG 1.1//EN"
 "http://www.w3.org/Graphics/SVG/1.1/DTD/svg11.dtd">
<!-- Generated by graphviz version 2.40.1 (20161225.0304)
 -->
<!-- Title: UmlClassDiagram Pages: 1 -->
<svg width="1666pt" height="949pt"
 viewBox="0.00 0.00 1665.82 949.00" xmlns="http://www.w3.org/2000/svg" xmlns:xlink="http://www.w3.org/1999/xlink">
<g id="graph0" class="graph" transform="scale(1 1) rotate(0) translate(4 945)">
<title>UmlClassDiagram</title>
<polygon fill="#ffffff" stroke="transparent" points="-4,4 -4,-945 1661.816,-945 1661.816,4 -4,4"/>
<!-- 0 -->
<g id="node1" class="node">
<title>0</title>
<polygon fill="#f2f2f2" stroke="#000000" points="0,-382.9 0,-490.9 399.0078,-490.9 399.0078,-382.9 0,-382.9"/>
<text text-anchor="middle" x="199.5039" y="-474.3" font-family="Times,serif" font-size="14.00" fill="#000000">&lt;&lt;Abstract&gt;&gt;</text>
<text text-anchor="middle" x="199.5039" y="-457.5" font-family="Times,serif" font-size="14.00" fill="#000000">TokenControllerI</text>
<polyline fill="none" stroke="#000000" points="0,-449.3 399.0078,-449.3 "/>
<text text-anchor="middle" x="199.5039" y="-432.7" font-family="Times,serif" font-size="14.00" fill="#000000"> </text>
<polyline fill="none" stroke="#000000" points="0,-424.5 399.0078,-424.5 "/>
<text text-anchor="start" x="8" y="-407.9" font-family="Times,serif" font-size="14.00" fill="#000000">External:</text>
<text text-anchor="start" x="8" y="-391.1" font-family="Times,serif" font-size="14.00" fill="#000000"> &#160;&#160;&#160;&lt;&lt;abstract&gt;&gt; transferAllowed(_from: address, _to: address): bool</text>
</g>
<!-- 1 -->
<g id="node2" class="node">
<title>1</title>
<polygon fill="#f2f2f2" stroke="#000000" points="417.0669,-324.1 417.0669,-549.7 901.9409,-549.7 901.9409,-324.1 417.0669,-324.1"/>
<text text-anchor="middle" x="659.5039" y="-533.1" font-family="Times,serif" font-size="14.00" fill="#000000">Ownable</text>
<polyline fill="none" stroke="#000000" points="417.0669,-524.9 901.9409,-524.9 "/>
<text text-anchor="start" x="425.0669" y="-508.3" font-family="Times,serif" font-size="14.00" fill="#000000">Public:</text>
<text text-anchor="start" x="425.0669" y="-491.5" font-family="Times,serif" font-size="14.00" fill="#000000"> &#160;&#160;owner: address</text>
<polyline fill="none" stroke="#000000" points="417.0669,-483.3 901.9409,-483.3 "/>
<text text-anchor="start" x="425.0669" y="-466.7" font-family="Times,serif" font-size="14.00" fill="#000000">Internal:</text>
<text text-anchor="start" x="425.0669" y="-449.9" font-family="Times,serif" font-size="14.00" fill="#000000"> &#160;&#160;&#160;_transferOwnership(_newOwner: address)</text>
<text text-anchor="start" x="425.0669" y="-433.1" font-family="Times,serif" font-size="14.00" fill="#000000">Public:</text>
<text text-anchor="start" x="425.0669" y="-416.3" font-family="Times,serif" font-size="14.00" fill="#000000"> &#160;&#160;&#160;&lt;&lt;event&gt;&gt; OwnershipRenounced(previousOwner: address)</text>
<text text-anchor="start" x="425.0669" y="-399.5" font-family="Times,serif" font-size="14.00" fill="#000000"> &#160;&#160;&#160;&lt;&lt;event&gt;&gt; OwnershipTransferred(previousOwner: address, newOwner: address)</text>
<text text-anchor="start" x="425.0669" y="-382.7" font-family="Times,serif" font-size="14.00" fill="#000000"> &#160;&#160;&#160;&lt;&lt;modifier&gt;&gt; onlyOwner()</text>
<text text-anchor="start" x="425.0669" y="-365.9" font-family="Times,serif" font-size="14.00" fill="#000000"> &#160;&#160;&#160;constructor()</text>
<text text-anchor="start" x="425.0669" y="-349.1" font-family="Times,serif" font-size="14.00" fill="#000000"> &#160;&#160;&#160;renounceOwnership()</text>
<text text-anchor="start" x="425.0669" y="-332.3" font-family="Times,serif" font-size="14.00" fill="#000000"> &#160;&#160;&#160;transferOwnership(_newOwner: address)</text>
</g>
<!-- 2 -->
<g id="node3" class="node">
<title>2</title>
<polygon fill="#f2f2f2" stroke="#000000" points="920.1245,-782.1 920.1245,-940.5 1174.8833,-940.5 1174.8833,-782.1 920.1245,-782.1"/>
<text text-anchor="middle" x="1047.5039" y="-923.9" font-family="Times,serif" font-size="14.00" fill="#000000">&lt;&lt;Library&gt;&gt;</text>
<text text-anchor="middle" x="1047.5039" y="-907.1" font-family="Times,serif" font-size="14.00" fill="#000000">SafeMath</text>
<polyline fill="none" stroke="#000000" points="920.1245,-898.9 1174.8833,-898.9 "/>
<text text-anchor="middle" x="1047.5039" y="-882.3" font-family="Times,serif" font-size="14.00" fill="#000000"> </text>
<polyline fill="none" stroke="#000000" points="920.1245,-874.1 1174.8833,-874.1 "/>
<text text-anchor="start" x="928.1245" y="-857.5" font-family="Times,serif" font-size="14.00" fill="#000000">Internal:</text>
<text text-anchor="start" x="928.1245" y="-840.7" font-family="Times,serif" font-size="14.00" fill="#000000"> &#160;&#160;&#160;mul(a: uint256, b: uint256): (c: uint256)</text>
<text text-anchor="start" x="928.1245" y="-823.9" font-family="Times,serif" font-size="14.00" fill="#000000"> &#160;&#160;&#160;div(a: uint256, b: uint256): uint256</text>
<text text-anchor="start" x="928.1245" y="-807.1" font-family="Times,serif" font-size="14.00" fill="#000000"> &#160;&#160;&#160;sub(a: uint256, b: uint256): uint256</text>
<text text-anchor="start" x="928.1245" y="-790.3" font-family="Times,serif" font-size="14.00" fill="#000000"> &#160;&#160;&#160;add(a: uint256, b: uint256): (c: uint256)</text>
</g>
<!-- 3 -->
<g id="node4" class="node">
<title>3</title>
<polygon fill="#f2f2f2" stroke="#000000" points="1215.7735,-782.1 1215.7735,-940.5 1599.2343,-940.5 1599.2343,-782.1 1215.7735,-782.1"/>
<text text-anchor="middle" x="1407.5039" y="-923.9" font-family="Times,serif" font-size="14.00" fill="#000000">&lt;&lt;Abstract&gt;&gt;</text>
<text text-anchor="middle" x="1407.5039" y="-907.1" font-family="Times,serif" font-size="14.00" fill="#000000">ERC20Basic</text>
<polyline fill="none" stroke="#000000" points="1215.7735,-898.9 1599.2343,-898.9 "/>
<text text-anchor="middle" x="1407.5039" y="-882.3" font-family="Times,serif" font-size="14.00" fill="#000000"> </text>
<polyline fill="none" stroke="#000000" points="1215.7735,-874.1 1599.2343,-874.1 "/>
<text text-anchor="start" x="1223.7735" y="-857.5" font-family="Times,serif" font-size="14.00" fill="#000000">Public:</text>
<text text-anchor="start" x="1223.7735" y="-840.7" font-family="Times,serif" font-size="14.00" fill="#000000"> &#160;&#160;&#160;&lt;&lt;abstract&gt;&gt; totalSupply(): uint256</text>
<text text-anchor="start" x="1223.7735" y="-823.9" font-family="Times,serif" font-size="14.00" fill="#000000"> &#160;&#160;&#160;&lt;&lt;abstract&gt;&gt; balanceOf(who: address): uint256</text>
<text text-anchor="start" x="1223.7735" y="-807.1" font-family="Times,serif" font-size="14.00" fill="#000000"> &#160;&#160;&#160;&lt;&lt;abstract&gt;&gt; transfer(to: address, value: uint256): bool</text>
<text text-anchor="start" x="1223.7735" y="-790.3" font-family="Times,serif" font-size="14.00" fill="#000000"> &#160;&#160;&#160;&lt;&lt;event&gt;&gt; Transfer(from: address, to: address, value: uint256)</text>
</g>
<!-- 4 -->
<g id="node5" class="node">
<title>4</title>
<polygon fill="#f2f2f2" stroke="#000000" points="909.4537,-586.7 909.4537,-745.1 1185.5541,-745.1 1185.5541,-586.7 909.4537,-586.7"/>
<text text-anchor="middle" x="1047.5039" y="-728.5" font-family="Times,serif" font-size="14.00" fill="#000000">BasicToken</text>
<polyline fill="none" stroke="#000000" points="909.4537,-720.3 1185.5541,-720.3 "/>
<text text-anchor="start" x="917.4537" y="-703.7" font-family="Times,serif" font-size="14.00" fill="#000000">Public:</text>
<text text-anchor="start" x="917.4537" y="-686.9" font-family="Times,serif" font-size="14.00" fill="#000000"> &#160;&#160;balances: mapping(address=&gt;uint256)</text>
<text text-anchor="start" x="917.4537" y="-670.1" font-family="Times,serif" font-size="14.00" fill="#000000"> &#160;&#160;totalSupply_: uint256</text>
<polyline fill="none" stroke="#000000" points="909.4537,-661.9 1185.5541,-661.9 "/>
<text text-anchor="start" x="917.4537" y="-645.3" font-family="Times,serif" font-size="14.00" fill="#000000">Public:</text>
<text text-anchor="start" x="917.4537" y="-628.5" font-family="Times,serif" font-size="14.00" fill="#000000"> &#160;&#160;&#160;totalSupply(): uint256</text>
<text text-anchor="start" x="917.4537" y="-611.7" font-family="Times,serif" font-size="14.00" fill="#000000"> &#160;&#160;&#160;transfer(_to: address, _value: uint256): bool</text>
<text text-anchor="start" x="917.4537" y="-594.9" font-family="Times,serif" font-size="14.00" fill="#000000"> &#160;&#160;&#160;balanceOf(_owner: address): uint256</text>
</g>
<!-- 4&#45;&gt;2 -->
<g id="edge2" class="edge">
<title>4&#45;&gt;2</title>
<path fill="none" stroke="#000000" stroke-dasharray="5,2" d="M1047.5039,-745.3767C1047.5039,-754.0341 1047.5039,-762.8895 1047.5039,-771.6577"/>
<polygon fill="#000000" stroke="#000000" points="1044.004,-771.8937 1047.5039,-781.8938 1051.004,-771.8938 1044.004,-771.8937"/>
</g>
<!-- 4&#45;&gt;3 -->
<g id="edge1" class="edge">
<title>4&#45;&gt;3</title>
<path fill="none" stroke="#000000" d="M1185.6597,-740.8879C1201.7317,-749.6114 1218.2748,-758.5906 1234.7371,-767.526"/>
<polygon fill="none" stroke="#000000" points="1229.9784,-776.8901 1261.3539,-781.973 1239.9963,-758.4335 1229.9784,-776.8901"/>
</g>
<!-- 5 -->
<g id="node6" class="node">
<title>5</title>
<polygon fill="#f2f2f2" stroke="#000000" points="1203.1918,-586.7 1203.1918,-745.1 1657.816,-745.1 1657.816,-586.7 1203.1918,-586.7"/>
<text text-anchor="middle" x="1430.5039" y="-728.5" font-family="Times,serif" font-size="14.00" fill="#000000">&lt;&lt;Abstract&gt;&gt;</text>
<text text-anchor="middle" x="1430.5039" y="-711.7" font-family="Times,serif" font-size="14.00" fill="#000000">ERC20</text>
<polyline fill="none" stroke="#000000" points="1203.1918,-703.5 1657.816,-703.5 "/>
<text text-anchor="middle" x="1430.5039" y="-686.9" font-family="Times,serif" font-size="14.00" fill="#000000"> </text>
<polyline fill="none" stroke="#000000" points="1203.1918,-678.7 1657.816,-678.7 "/>
<text text-anchor="start" x="1211.1918" y="-662.1" font-family="Times,serif" font-size="14.00" fill="#000000">Public:</text>
<text text-anchor="start" x="1211.1918" y="-645.3" font-family="Times,serif" font-size="14.00" fill="#000000"> &#160;&#160;&#160;&lt;&lt;abstract&gt;&gt; allowance(owner: address, spender: address): uint256</text>
<text text-anchor="start" x="1211.1918" y="-628.5" font-family="Times,serif" font-size="14.00" fill="#000000"> &#160;&#160;&#160;&lt;&lt;abstract&gt;&gt; transferFrom(from: address, to: address, value: uint256): bool</text>
<text text-anchor="start" x="1211.1918" y="-611.7" font-family="Times,serif" font-size="14.00" fill="#000000"> &#160;&#160;&#160;&lt;&lt;abstract&gt;&gt; approve(spender: address, value: uint256): bool</text>
<text text-anchor="start" x="1211.1918" y="-594.9" font-family="Times,serif" font-size="14.00" fill="#000000"> &#160;&#160;&#160;&lt;&lt;event&gt;&gt; Approval(owner: address, spender: address, value: uint256)</text>
</g>
<!-- 5&#45;&gt;3 -->
<g id="edge3" class="edge">
<title>5&#45;&gt;3</title>
<path fill="none" stroke="#000000" d="M1421.1489,-745.3767C1420.8942,-747.541 1420.6379,-749.7178 1420.3808,-751.9024"/>
<polygon fill="none" stroke="#000000" points="1409.9297,-750.872 1416.8506,-781.8938 1430.7857,-753.3269 1409.9297,-750.872"/>
</g>
<!-- 6 -->
<g id="node7" class="node">
<title>6</title>
<polygon fill="#f2f2f2" stroke="#000000" points="920.1612,-349.3 920.1612,-524.5 1326.8466,-524.5 1326.8466,-349.3 920.1612,-349.3"/>
<text text-anchor="middle" x="1123.5039" y="-507.9" font-family="Times,serif" font-size="14.00" fill="#000000">StandardToken</text>
<polyline fill="none" stroke="#000000" points="920.1612,-499.7 1326.8466,-499.7 "/>
<text text-anchor="start" x="928.1612" y="-483.1" font-family="Times,serif" font-size="14.00" fill="#000000">Internal:</text>
<text text-anchor="start" x="928.1612" y="-466.3" font-family="Times,serif" font-size="14.00" fill="#000000"> &#160;&#160;allowed: mapping(address=&gt;mapping(address=&gt;uint256))</text>
<polyline fill="none" stroke="#000000" points="920.1612,-458.1 1326.8466,-458.1 "/>
<text text-anchor="start" x="928.1612" y="-441.5" font-family="Times,serif" font-size="14.00" fill="#000000">Public:</text>
<text text-anchor="start" x="928.1612" y="-424.7" font-family="Times,serif" font-size="14.00" fill="#000000"> &#160;&#160;&#160;transferFrom(_from: address, _to: address, _value: uint256): bool</text>
<text text-anchor="start" x="928.1612" y="-407.9" font-family="Times,serif" font-size="14.00" fill="#000000"> &#160;&#160;&#160;approve(_spender: address, _value: uint256): bool</text>
<text text-anchor="start" x="928.1612" y="-391.1" font-family="Times,serif" font-size="14.00" fill="#000000"> &#160;&#160;&#160;allowance(_owner: address, _spender: address): uint256</text>
<text text-anchor="start" x="928.1612" y="-374.3" font-family="Times,serif" font-size="14.00" fill="#000000"> &#160;&#160;&#160;increaseApproval(_spender: address, _addedValue: uint): bool</text>
<text text-anchor="start" x="928.1612" y="-357.5" font-family="Times,serif" font-size="14.00" fill="#000000"> &#160;&#160;&#160;decreaseApproval(_spender: address, _subtractedValue: uint): bool</text>
</g>
<!-- 6&#45;&gt;4 -->
<g id="edge5" class="edge">
<title>6&#45;&gt;4</title>
<path fill="none" stroke="#000000" d="M1094.3377,-524.7825C1090.7573,-535.5706 1087.0662,-546.6925 1083.4013,-557.7356"/>
<polygon fill="none" stroke="#000000" points="1073.3391,-554.7195 1073.8551,-586.4998 1093.2702,-561.3342 1073.3391,-554.7195"/>
</g>
<!-- 6&#45;&gt;5 -->
<g id="edge4" class="edge">
<title>6&#45;&gt;5</title>
<path fill="none" stroke="#000000" d="M1241.3201,-524.7825C1260.462,-539.0609 1280.3876,-553.924 1299.8146,-568.4152"/>
<polygon fill="none" stroke="#000000" points="1293.734,-576.9789 1324.059,-586.4998 1306.2902,-560.146 1293.734,-576.9789"/>
</g>
<!-- 7 -->
<g id="node8" class="node">
<title>7</title>
<polygon fill="#f2f2f2" stroke="#000000" points="828.9961,-128.7 828.9961,-287.1 1226.0117,-287.1 1226.0117,-128.7 828.9961,-128.7"/>
<text text-anchor="middle" x="1027.5039" y="-270.5" font-family="Times,serif" font-size="14.00" fill="#000000">ControllableToken</text>
<polyline fill="none" stroke="#000000" points="828.9961,-262.3 1226.0117,-262.3 "/>
<text text-anchor="start" x="836.9961" y="-245.7" font-family="Times,serif" font-size="14.00" fill="#000000">Public:</text>
<text text-anchor="start" x="836.9961" y="-228.9" font-family="Times,serif" font-size="14.00" fill="#000000"> &#160;&#160;controller: TokenControllerI</text>
<polyline fill="none" stroke="#000000" points="828.9961,-220.7 1226.0117,-220.7 "/>
<text text-anchor="start" x="836.9961" y="-204.1" font-family="Times,serif" font-size="14.00" fill="#000000">Public:</text>
<text text-anchor="start" x="836.9961" y="-187.3" font-family="Times,serif" font-size="14.00" fill="#000000"> &#160;&#160;&#160;&lt;&lt;modifier&gt;&gt; isAllowed(_from: address, _to: address)</text>
<text text-anchor="start" x="836.9961" y="-170.5" font-family="Times,serif" font-size="14.00" fill="#000000"> &#160;&#160;&#160;setController(_controller: TokenControllerI)</text>
<text text-anchor="start" x="836.9961" y="-153.7" font-family="Times,serif" font-size="14.00" fill="#000000"> &#160;&#160;&#160;transfer(_to: address, _value: uint256): bool</text>
<text text-anchor="start" x="836.9961" y="-136.9" font-family="Times,serif" font-size="14.00" fill="#000000"> &#160;&#160;&#160;transferFrom(_from: address, _to: address, _value: uint256): bool</text>
</g>
<!-- 7&#45;&gt;0 -->
<g id="edge8" class="edge">
<title>7&#45;&gt;0</title>
<path fill="none" stroke="#000000" d="M828.9412,-228.9949C705.4464,-246.0046 544.7741,-275.2778 408.5039,-323.6 369.2361,-337.5246 328.4396,-358.0844 293.4256,-377.8815"/>
<polygon fill="#000000" stroke="#000000" points="291.5993,-374.8939 284.6528,-382.8937 295.0719,-380.9719 291.5993,-374.8939"/>
</g>
<!-- 7&#45;&gt;1 -->
<g id="edge6" class="edge">
<title>7&#45;&gt;1</title>
<path fill="none" stroke="#000000" d="M900.0861,-287.1899C889.1898,-293.9705 878.0002,-300.9336 866.6919,-307.9705"/>
<polygon fill="none" stroke="#000000" points="860.9279,-299.1903 841.0045,-323.9553 872.0231,-317.02 860.9279,-299.1903"/>
</g>
<!-- 7&#45;&gt;6 -->
<g id="edge7" class="edge">
<title>7&#45;&gt;6</title>
<path fill="none" stroke="#000000" d="M1060.8106,-287.3504C1065.3714,-298.2299 1070.1281,-309.5766 1074.8929,-320.9424"/>
<polygon fill="none" stroke="#000000" points="1065.3642,-325.3715 1086.6463,-348.9792 1084.7313,-317.2525 1065.3642,-325.3715"/>
</g>
<!-- 8 -->
<g id="node9" class="node">
<title>8</title>
<polygon fill="#f2f2f2" stroke="#000000" points="1243.8394,-137.1 1243.8394,-278.7 1617.1684,-278.7 1617.1684,-137.1 1243.8394,-137.1"/>
<text text-anchor="middle" x="1430.5039" y="-262.1" font-family="Times,serif" font-size="14.00" fill="#000000">DetailedERC20</text>
<polyline fill="none" stroke="#000000" points="1243.8394,-253.9 1617.1684,-253.9 "/>
<text text-anchor="start" x="1251.8394" y="-237.3" font-family="Times,serif" font-size="14.00" fill="#000000">Public:</text>
<text text-anchor="start" x="1251.8394" y="-220.5" font-family="Times,serif" font-size="14.00" fill="#000000"> &#160;&#160;name: string</text>
<text text-anchor="start" x="1251.8394" y="-203.7" font-family="Times,serif" font-size="14.00" fill="#000000"> &#160;&#160;symbol: string</text>
<text text-anchor="start" x="1251.8394" y="-186.9" font-family="Times,serif" font-size="14.00" fill="#000000"> &#160;&#160;decimals: uint8</text>
<polyline fill="none" stroke="#000000" points="1243.8394,-178.7 1617.1684,-178.7 "/>
<text text-anchor="start" x="1251.8394" y="-162.1" font-family="Times,serif" font-size="14.00" fill="#000000">Public:</text>
<text text-anchor="start" x="1251.8394" y="-145.3" font-family="Times,serif" font-size="14.00" fill="#000000"> &#160;&#160;&#160;constructor(_name: string, _symbol: string, _decimals: uint8)</text>
</g>
<!-- 8&#45;&gt;5 -->
<g id="edge9" class="edge">
<title>8&#45;&gt;5</title>
<path fill="none" stroke="#000000" d="M1430.5039,-278.7092C1430.5039,-352.8418 1430.5039,-470.2264 1430.5039,-556.3305"/>
<polygon fill="none" stroke="#000000" points="1420.004,-556.4997 1430.5039,-586.4997 1441.004,-556.4997 1420.004,-556.4997"/>
</g>
<!-- 9 -->
<g id="node10" class="node">
<title>9</title>
<polygon fill="#f2f2f2" stroke="#000000" points="991.0859,-.5 991.0859,-91.7 1465.9219,-91.7 1465.9219,-.5 991.0859,-.5"/>
<text text-anchor="middle" x="1228.5039" y="-75.1" font-family="Times,serif" font-size="14.00" fill="#000000">Token</text>
<polyline fill="none" stroke="#000000" points="991.0859,-66.9 1465.9219,-66.9 "/>
<text text-anchor="middle" x="1228.5039" y="-50.3" font-family="Times,serif" font-size="14.00" fill="#000000"> </text>
<polyline fill="none" stroke="#000000" points="991.0859,-42.1 1465.9219,-42.1 "/>
<text text-anchor="start" x="999.0859" y="-25.5" font-family="Times,serif" font-size="14.00" fill="#000000">Public:</text>
<text text-anchor="start" x="999.0859" y="-8.7" font-family="Times,serif" font-size="14.00" fill="#000000"> &#160;&#160;&#160;constructor(_supply: uint256, _name: string, _symbol: string, _decimals: uint8)</text>
</g>
<!-- 9&#45;&gt;7 -->
<g id="edge10" class="edge">
<title>9&#45;&gt;7</title>
<path fill="none" stroke="#000000" d="M1171.7113,-91.8166C1164.5718,-97.5637 1157.0668,-103.6051 1149.3871,-109.787"/>
<polygon fill="none" stroke="#000000" points="1142.8,-101.6102 1126.0149,-128.6011 1155.9682,-117.9687 1142.8,-101.6102"/>
</g>
<!-- 9&#45;&gt;8 -->
<g id="edge11" class="edge">
<title>9&#45;&gt;8</title>
<path fill="none" stroke="#000000" d="M1285.579,-91.8166C1295.833,-100.0299 1306.8371,-108.8441 1318.0317,-117.8109"/>
<polygon fill="none" stroke="#000000" points="1311.8731,-126.3309 1341.8521,-136.8908 1325.0016,-109.9406 1311.8731,-126.3309"/>
</g>
</g>
</svg>
