<?xml version="1.0" encoding="UTF-8" standalone="no"?>
<!DOCTYPE svg PUBLIC "-//W3C//DTD SVG 1.1//EN"
 "http://www.w3.org/Graphics/SVG/1.1/DTD/svg11.dtd">
<!-- Generated by graphviz version 2.40.1 (20161225.0304)
 -->
<!-- Title: UmlClassDiagram Pages: 1 -->
<svg width="1338pt" height="1151pt"
 viewBox="0.00 0.00 1337.82 1150.60" xmlns="http://www.w3.org/2000/svg" xmlns:xlink="http://www.w3.org/1999/xlink">
<g id="graph0" class="graph" transform="scale(1 1) rotate(0) translate(4 1146.6)">
<title>UmlClassDiagram</title>
<polygon fill="#ffffff" stroke="transparent" points="-4,4 -4,-1146.6 1333.8164,-1146.6 1333.8164,4 -4,4"/>
<!-- 0 -->
<g id="node1" class="node">
<title>0</title>
<polygon fill="#f2f2f2" stroke="#000000" points="0,-754.7 0,-946.7 484.874,-946.7 484.874,-754.7 0,-754.7"/>
<text text-anchor="middle" x="242.437" y="-930.1" font-family="Times,serif" font-size="14.00" fill="#000000">Ownable</text>
<polyline fill="none" stroke="#000000" points="0,-921.9 484.874,-921.9 "/>
<text text-anchor="start" x="8" y="-905.3" font-family="Times,serif" font-size="14.00" fill="#000000">Public:</text>
<text text-anchor="start" x="8" y="-888.5" font-family="Times,serif" font-size="14.00" fill="#000000"> &#160;&#160;owner: address</text>
<polyline fill="none" stroke="#000000" points="0,-880.3 484.874,-880.3 "/>
<text text-anchor="start" x="8" y="-863.7" font-family="Times,serif" font-size="14.00" fill="#000000">Public:</text>
<text text-anchor="start" x="8" y="-846.9" font-family="Times,serif" font-size="14.00" fill="#000000"> &#160;&#160;&#160;&lt;&lt;event&gt;&gt; OwnershipRenounced(previousOwner: address)</text>
<text text-anchor="start" x="8" y="-830.1" font-family="Times,serif" font-size="14.00" fill="#000000"> &#160;&#160;&#160;&lt;&lt;event&gt;&gt; OwnershipTransferred(previousOwner: address, newOwner: address)</text>
<text text-anchor="start" x="8" y="-813.3" font-family="Times,serif" font-size="14.00" fill="#000000"> &#160;&#160;&#160;&lt;&lt;modifier&gt;&gt; onlyOwner()</text>
<text text-anchor="start" x="8" y="-796.5" font-family="Times,serif" font-size="14.00" fill="#000000"> &#160;&#160;&#160;constructor()</text>
<text text-anchor="start" x="8" y="-779.7" font-family="Times,serif" font-size="14.00" fill="#000000"> &#160;&#160;&#160;transferOwnership(newOwner: address)</text>
<text text-anchor="start" x="8" y="-762.9" font-family="Times,serif" font-size="14.00" fill="#000000"> &#160;&#160;&#160;renounceOwnership()</text>
</g>
<!-- 1 -->
<g id="node2" class="node">
<title>1</title>
<polygon fill="#f2f2f2" stroke="#000000" points="170.646,-525.7 170.646,-717.7 384.228,-717.7 384.228,-525.7 170.646,-525.7"/>
<text text-anchor="middle" x="277.437" y="-701.1" font-family="Times,serif" font-size="14.00" fill="#000000">Pausable</text>
<polyline fill="none" stroke="#000000" points="170.646,-692.9 384.228,-692.9 "/>
<text text-anchor="start" x="178.646" y="-676.3" font-family="Times,serif" font-size="14.00" fill="#000000">Public:</text>
<text text-anchor="start" x="178.646" y="-659.5" font-family="Times,serif" font-size="14.00" fill="#000000"> &#160;&#160;paused: bool</text>
<polyline fill="none" stroke="#000000" points="170.646,-651.3 384.228,-651.3 "/>
<text text-anchor="start" x="178.646" y="-634.7" font-family="Times,serif" font-size="14.00" fill="#000000">Public:</text>
<text text-anchor="start" x="178.646" y="-617.9" font-family="Times,serif" font-size="14.00" fill="#000000"> &#160;&#160;&#160;&lt;&lt;event&gt;&gt; Pause()</text>
<text text-anchor="start" x="178.646" y="-601.1" font-family="Times,serif" font-size="14.00" fill="#000000"> &#160;&#160;&#160;&lt;&lt;event&gt;&gt; Unpause()</text>
<text text-anchor="start" x="178.646" y="-584.3" font-family="Times,serif" font-size="14.00" fill="#000000"> &#160;&#160;&#160;&lt;&lt;modifier&gt;&gt; whenNotPaused()</text>
<text text-anchor="start" x="178.646" y="-567.5" font-family="Times,serif" font-size="14.00" fill="#000000"> &#160;&#160;&#160;&lt;&lt;modifier&gt;&gt; whenPaused()</text>
<text text-anchor="start" x="178.646" y="-550.7" font-family="Times,serif" font-size="14.00" fill="#000000"> &#160;&#160;&#160;pause()</text>
<text text-anchor="start" x="178.646" y="-533.9" font-family="Times,serif" font-size="14.00" fill="#000000"> &#160;&#160;&#160;unpause()</text>
</g>
<!-- 1&#45;&gt;0 -->
<g id="edge1" class="edge">
<title>1&#45;&gt;0</title>
<path fill="none" stroke="#000000" d="M262.746,-717.8213C262.3987,-720.0933 262.05,-722.3752 261.7002,-724.6634"/>
<polygon fill="none" stroke="#000000" points="251.2997,-723.2156 257.1465,-754.4576 272.0586,-726.3884 251.2997,-723.2156"/>
</g>
<!-- 2 -->
<g id="node3" class="node">
<title>2</title>
<polygon fill="#f2f2f2" stroke="#000000" points="598.7066,-983.7 598.7066,-1142.1 982.1674,-1142.1 982.1674,-983.7 598.7066,-983.7"/>
<text text-anchor="middle" x="790.437" y="-1125.5" font-family="Times,serif" font-size="14.00" fill="#000000">&lt;&lt;Abstract&gt;&gt;</text>
<text text-anchor="middle" x="790.437" y="-1108.7" font-family="Times,serif" font-size="14.00" fill="#000000">ERC20Basic</text>
<polyline fill="none" stroke="#000000" points="598.7066,-1100.5 982.1674,-1100.5 "/>
<text text-anchor="middle" x="790.437" y="-1083.9" font-family="Times,serif" font-size="14.00" fill="#000000"> </text>
<polyline fill="none" stroke="#000000" points="598.7066,-1075.7 982.1674,-1075.7 "/>
<text text-anchor="start" x="606.7066" y="-1059.1" font-family="Times,serif" font-size="14.00" fill="#000000">Public:</text>
<text text-anchor="start" x="606.7066" y="-1042.3" font-family="Times,serif" font-size="14.00" fill="#000000"> &#160;&#160;&#160;&lt;&lt;abstract&gt;&gt; totalSupply(): uint256</text>
<text text-anchor="start" x="606.7066" y="-1025.5" font-family="Times,serif" font-size="14.00" fill="#000000"> &#160;&#160;&#160;&lt;&lt;abstract&gt;&gt; balanceOf(who: address): uint256</text>
<text text-anchor="start" x="606.7066" y="-1008.7" font-family="Times,serif" font-size="14.00" fill="#000000"> &#160;&#160;&#160;&lt;&lt;abstract&gt;&gt; transfer(to: address, value: uint256): bool</text>
<text text-anchor="start" x="606.7066" y="-991.9" font-family="Times,serif" font-size="14.00" fill="#000000"> &#160;&#160;&#160;&lt;&lt;event&gt;&gt; Transfer(from: address, to: address, value: uint256)</text>
</g>
<!-- 3 -->
<g id="node4" class="node">
<title>3</title>
<polygon fill="#f2f2f2" stroke="#000000" points="502.3868,-771.5 502.3868,-929.9 778.4872,-929.9 778.4872,-771.5 502.3868,-771.5"/>
<text text-anchor="middle" x="640.437" y="-913.3" font-family="Times,serif" font-size="14.00" fill="#000000">BasicToken</text>
<polyline fill="none" stroke="#000000" points="502.3868,-905.1 778.4872,-905.1 "/>
<text text-anchor="start" x="510.3868" y="-888.5" font-family="Times,serif" font-size="14.00" fill="#000000">Public:</text>
<text text-anchor="start" x="510.3868" y="-871.7" font-family="Times,serif" font-size="14.00" fill="#000000"> &#160;&#160;balances: mapping(address=&gt;uint256)</text>
<text text-anchor="start" x="510.3868" y="-854.9" font-family="Times,serif" font-size="14.00" fill="#000000"> &#160;&#160;totalSupply_: uint256</text>
<polyline fill="none" stroke="#000000" points="502.3868,-846.7 778.4872,-846.7 "/>
<text text-anchor="start" x="510.3868" y="-830.1" font-family="Times,serif" font-size="14.00" fill="#000000">Public:</text>
<text text-anchor="start" x="510.3868" y="-813.3" font-family="Times,serif" font-size="14.00" fill="#000000"> &#160;&#160;&#160;totalSupply(): uint256</text>
<text text-anchor="start" x="510.3868" y="-796.5" font-family="Times,serif" font-size="14.00" fill="#000000"> &#160;&#160;&#160;transfer(_to: address, _value: uint256): bool</text>
<text text-anchor="start" x="510.3868" y="-779.7" font-family="Times,serif" font-size="14.00" fill="#000000"> &#160;&#160;&#160;balanceOf(_owner: address): uint256</text>
</g>
<!-- 3&#45;&gt;2 -->
<g id="edge2" class="edge">
<title>3&#45;&gt;2</title>
<path fill="none" stroke="#000000" d="M696.5048,-930.0172C703.1885,-939.4725 710.0869,-949.2314 716.9681,-958.966"/>
<polygon fill="none" stroke="#000000" points="708.5462,-965.2422 734.4372,-983.6789 725.6944,-953.1205 708.5462,-965.2422"/>
</g>
<!-- 9 -->
<g id="node10" class="node">
<title>9</title>
<polygon fill="#f2f2f2" stroke="#000000" points="1075.0576,-983.7 1075.0576,-1142.1 1329.8164,-1142.1 1329.8164,-983.7 1075.0576,-983.7"/>
<text text-anchor="middle" x="1202.437" y="-1125.5" font-family="Times,serif" font-size="14.00" fill="#000000">&lt;&lt;Library&gt;&gt;</text>
<text text-anchor="middle" x="1202.437" y="-1108.7" font-family="Times,serif" font-size="14.00" fill="#000000">SafeMath</text>
<polyline fill="none" stroke="#000000" points="1075.0576,-1100.5 1329.8164,-1100.5 "/>
<text text-anchor="middle" x="1202.437" y="-1083.9" font-family="Times,serif" font-size="14.00" fill="#000000"> </text>
<polyline fill="none" stroke="#000000" points="1075.0576,-1075.7 1329.8164,-1075.7 "/>
<text text-anchor="start" x="1083.0576" y="-1059.1" font-family="Times,serif" font-size="14.00" fill="#000000">Internal:</text>
<text text-anchor="start" x="1083.0576" y="-1042.3" font-family="Times,serif" font-size="14.00" fill="#000000"> &#160;&#160;&#160;mul(a: uint256, b: uint256): (c: uint256)</text>
<text text-anchor="start" x="1083.0576" y="-1025.5" font-family="Times,serif" font-size="14.00" fill="#000000"> &#160;&#160;&#160;div(a: uint256, b: uint256): uint256</text>
<text text-anchor="start" x="1083.0576" y="-1008.7" font-family="Times,serif" font-size="14.00" fill="#000000"> &#160;&#160;&#160;sub(a: uint256, b: uint256): uint256</text>
<text text-anchor="start" x="1083.0576" y="-991.9" font-family="Times,serif" font-size="14.00" fill="#000000"> &#160;&#160;&#160;add(a: uint256, b: uint256): (c: uint256)</text>
</g>
<!-- 3&#45;&gt;9 -->
<g id="edge3" class="edge">
<title>3&#45;&gt;9</title>
<path fill="none" stroke="#000000" stroke-dasharray="5,2" d="M751.4641,-930.1179C763.2703,-936.5576 775.3773,-942.4141 787.437,-947.2 873.0122,-981.1606 902.6539,-958.8277 991.437,-983.2 1015.6056,-989.8346 1040.8783,-998.1336 1065.1922,-1006.85"/>
<polygon fill="#000000" stroke="#000000" points="1064.2251,-1010.2222 1074.8193,-1010.3403 1066.611,-1003.6414 1064.2251,-1010.2222"/>
</g>
<!-- 4 -->
<g id="node5" class="node">
<title>4</title>
<polygon fill="#f2f2f2" stroke="#000000" points="796.1249,-771.5 796.1249,-929.9 1250.7491,-929.9 1250.7491,-771.5 796.1249,-771.5"/>
<text text-anchor="middle" x="1023.437" y="-913.3" font-family="Times,serif" font-size="14.00" fill="#000000">&lt;&lt;Abstract&gt;&gt;</text>
<text text-anchor="middle" x="1023.437" y="-896.5" font-family="Times,serif" font-size="14.00" fill="#000000">ERC20</text>
<polyline fill="none" stroke="#000000" points="796.1249,-888.3 1250.7491,-888.3 "/>
<text text-anchor="middle" x="1023.437" y="-871.7" font-family="Times,serif" font-size="14.00" fill="#000000"> </text>
<polyline fill="none" stroke="#000000" points="796.1249,-863.5 1250.7491,-863.5 "/>
<text text-anchor="start" x="804.1249" y="-846.9" font-family="Times,serif" font-size="14.00" fill="#000000">Public:</text>
<text text-anchor="start" x="804.1249" y="-830.1" font-family="Times,serif" font-size="14.00" fill="#000000"> &#160;&#160;&#160;&lt;&lt;abstract&gt;&gt; allowance(owner: address, spender: address): uint256</text>
<text text-anchor="start" x="804.1249" y="-813.3" font-family="Times,serif" font-size="14.00" fill="#000000"> &#160;&#160;&#160;&lt;&lt;abstract&gt;&gt; transferFrom(from: address, to: address, value: uint256): bool</text>
<text text-anchor="start" x="804.1249" y="-796.5" font-family="Times,serif" font-size="14.00" fill="#000000"> &#160;&#160;&#160;&lt;&lt;abstract&gt;&gt; approve(spender: address, value: uint256): bool</text>
<text text-anchor="start" x="804.1249" y="-779.7" font-family="Times,serif" font-size="14.00" fill="#000000"> &#160;&#160;&#160;&lt;&lt;event&gt;&gt; Approval(owner: address, spender: address, value: uint256)</text>
</g>
<!-- 4&#45;&gt;2 -->
<g id="edge4" class="edge">
<title>4&#45;&gt;2</title>
<path fill="none" stroke="#000000" d="M936.3451,-930.0172C924.4583,-940.8428 912.1346,-952.0664 899.9142,-963.1958"/>
<polygon fill="none" stroke="#000000" points="892.5335,-955.7157 877.4234,-983.6789 906.6736,-971.2418 892.5335,-955.7157"/>
</g>
<!-- 5 -->
<g id="node6" class="node">
<title>5</title>
<polygon fill="#f2f2f2" stroke="#000000" points="437.0943,-534.1 437.0943,-709.3 843.7797,-709.3 843.7797,-534.1 437.0943,-534.1"/>
<text text-anchor="middle" x="640.437" y="-692.7" font-family="Times,serif" font-size="14.00" fill="#000000">StandardToken</text>
<polyline fill="none" stroke="#000000" points="437.0943,-684.5 843.7797,-684.5 "/>
<text text-anchor="start" x="445.0943" y="-667.9" font-family="Times,serif" font-size="14.00" fill="#000000">Internal:</text>
<text text-anchor="start" x="445.0943" y="-651.1" font-family="Times,serif" font-size="14.00" fill="#000000"> &#160;&#160;allowed: mapping(address=&gt;mapping(address=&gt;uint256))</text>
<polyline fill="none" stroke="#000000" points="437.0943,-642.9 843.7797,-642.9 "/>
<text text-anchor="start" x="445.0943" y="-626.3" font-family="Times,serif" font-size="14.00" fill="#000000">Public:</text>
<text text-anchor="start" x="445.0943" y="-609.5" font-family="Times,serif" font-size="14.00" fill="#000000"> &#160;&#160;&#160;transferFrom(_from: address, _to: address, _value: uint256): bool</text>
<text text-anchor="start" x="445.0943" y="-592.7" font-family="Times,serif" font-size="14.00" fill="#000000"> &#160;&#160;&#160;approve(_spender: address, _value: uint256): bool</text>
<text text-anchor="start" x="445.0943" y="-575.9" font-family="Times,serif" font-size="14.00" fill="#000000"> &#160;&#160;&#160;allowance(_owner: address, _spender: address): uint256</text>
<text text-anchor="start" x="445.0943" y="-559.1" font-family="Times,serif" font-size="14.00" fill="#000000"> &#160;&#160;&#160;increaseApproval(_spender: address, _addedValue: uint): bool</text>
<text text-anchor="start" x="445.0943" y="-542.3" font-family="Times,serif" font-size="14.00" fill="#000000"> &#160;&#160;&#160;decreaseApproval(_spender: address, _subtractedValue: uint): bool</text>
</g>
<!-- 5&#45;&gt;3 -->
<g id="edge6" class="edge">
<title>5&#45;&gt;3</title>
<path fill="none" stroke="#000000" d="M640.437,-709.5825C640.437,-719.8947 640.437,-730.5118 640.437,-741.0736"/>
<polygon fill="none" stroke="#000000" points="629.9371,-741.2997 640.437,-771.2998 650.9371,-741.2998 629.9371,-741.2997"/>
</g>
<!-- 5&#45;&gt;4 -->
<g id="edge5" class="edge">
<title>5&#45;&gt;4</title>
<path fill="none" stroke="#000000" d="M787.1458,-709.4188C812.5779,-724.625 839.1266,-740.4988 864.8578,-755.8837"/>
<polygon fill="none" stroke="#000000" points="859.6307,-764.9921 890.7676,-771.3755 870.4075,-746.9681 859.6307,-764.9921"/>
</g>
<!-- 6 -->
<g id="node7" class="node">
<title>6</title>
<polygon fill="#f2f2f2" stroke="#000000" points="353.7496,-330.3 353.7496,-488.7 819.1244,-488.7 819.1244,-330.3 353.7496,-330.3"/>
<text text-anchor="middle" x="586.437" y="-472.1" font-family="Times,serif" font-size="14.00" fill="#000000">PausableToken</text>
<polyline fill="none" stroke="#000000" points="353.7496,-463.9 819.1244,-463.9 "/>
<text text-anchor="middle" x="586.437" y="-447.3" font-family="Times,serif" font-size="14.00" fill="#000000"> </text>
<polyline fill="none" stroke="#000000" points="353.7496,-439.1 819.1244,-439.1 "/>
<text text-anchor="start" x="361.7496" y="-422.5" font-family="Times,serif" font-size="14.00" fill="#000000">Public:</text>
<text text-anchor="start" x="361.7496" y="-405.7" font-family="Times,serif" font-size="14.00" fill="#000000"> &#160;&#160;&#160;transfer(_to: address, _value: uint256): bool</text>
<text text-anchor="start" x="361.7496" y="-388.9" font-family="Times,serif" font-size="14.00" fill="#000000"> &#160;&#160;&#160;transferFrom(_from: address, _to: address, _value: uint256): bool</text>
<text text-anchor="start" x="361.7496" y="-372.1" font-family="Times,serif" font-size="14.00" fill="#000000"> &#160;&#160;&#160;approve(_spender: address, _value: uint256): bool</text>
<text text-anchor="start" x="361.7496" y="-355.3" font-family="Times,serif" font-size="14.00" fill="#000000"> &#160;&#160;&#160;increaseApproval(_spender: address, _addedValue: uint): (success: bool)</text>
<text text-anchor="start" x="361.7496" y="-338.5" font-family="Times,serif" font-size="14.00" fill="#000000"> &#160;&#160;&#160;decreaseApproval(_spender: address, _subtractedValue: uint): (success: bool)</text>
</g>
<!-- 6&#45;&gt;1 -->
<g id="edge8" class="edge">
<title>6&#45;&gt;1</title>
<path fill="none" stroke="#000000" d="M470.9374,-488.8172C450.8789,-502.592 429.882,-517.0112 409.4234,-531.0608"/>
<polygon fill="none" stroke="#000000" points="403.1597,-522.6247 384.3736,-548.2633 415.0478,-539.9359 403.1597,-522.6247"/>
</g>
<!-- 6&#45;&gt;5 -->
<g id="edge7" class="edge">
<title>6&#45;&gt;5</title>
<path fill="none" stroke="#000000" d="M606.6214,-488.8172C607.9379,-493.9904 609.2775,-499.2545 610.6265,-504.5558"/>
<polygon fill="none" stroke="#000000" points="600.5278,-507.4482 618.1021,-533.9321 620.8792,-502.2692 600.5278,-507.4482"/>
</g>
<!-- 7 -->
<g id="node8" class="node">
<title>7</title>
<polygon fill="#f2f2f2" stroke="#000000" points="836.7725,-338.7 836.7725,-480.3 1210.1015,-480.3 1210.1015,-338.7 836.7725,-338.7"/>
<text text-anchor="middle" x="1023.437" y="-463.7" font-family="Times,serif" font-size="14.00" fill="#000000">DetailedERC20</text>
<polyline fill="none" stroke="#000000" points="836.7725,-455.5 1210.1015,-455.5 "/>
<text text-anchor="start" x="844.7725" y="-438.9" font-family="Times,serif" font-size="14.00" fill="#000000">Public:</text>
<text text-anchor="start" x="844.7725" y="-422.1" font-family="Times,serif" font-size="14.00" fill="#000000"> &#160;&#160;name: string</text>
<text text-anchor="start" x="844.7725" y="-405.3" font-family="Times,serif" font-size="14.00" fill="#000000"> &#160;&#160;symbol: string</text>
<text text-anchor="start" x="844.7725" y="-388.5" font-family="Times,serif" font-size="14.00" fill="#000000"> &#160;&#160;decimals: uint8</text>
<polyline fill="none" stroke="#000000" points="836.7725,-380.3 1210.1015,-380.3 "/>
<text text-anchor="start" x="844.7725" y="-363.7" font-family="Times,serif" font-size="14.00" fill="#000000">Public:</text>
<text text-anchor="start" x="844.7725" y="-346.9" font-family="Times,serif" font-size="14.00" fill="#000000"> &#160;&#160;&#160;constructor(_name: string, _symbol: string, _decimals: uint8)</text>
</g>
<!-- 7&#45;&gt;4 -->
<g id="edge9" class="edge">
<title>7&#45;&gt;4</title>
<path fill="none" stroke="#000000" d="M1023.437,-480.3864C1023.437,-550.8308 1023.437,-659.8402 1023.437,-741.3746"/>
<polygon fill="none" stroke="#000000" points="1012.9371,-741.4143 1023.437,-771.4143 1033.9371,-741.4144 1012.9371,-741.4143"/>
</g>
<!-- 8 -->
<g id="node9" class="node">
<title>8</title>
<polygon fill="#f2f2f2" stroke="#000000" points="824.9292,-.5 824.9292,-293.3 1221.9448,-293.3 1221.9448,-.5 824.9292,-.5"/>
<text text-anchor="middle" x="1023.437" y="-276.7" font-family="Times,serif" font-size="14.00" fill="#000000">QuarkChainToken</text>
<polyline fill="none" stroke="#000000" points="824.9292,-268.5 1221.9448,-268.5 "/>
<text text-anchor="start" x="832.9292" y="-251.9" font-family="Times,serif" font-size="14.00" fill="#000000">Public:</text>
<text text-anchor="start" x="832.9292" y="-235.1" font-family="Times,serif" font-size="14.00" fill="#000000"> &#160;&#160;transferable: bool</text>
<text text-anchor="start" x="832.9292" y="-218.3" font-family="Times,serif" font-size="14.00" fill="#000000"> &#160;&#160;privateSaleWallet: address</text>
<text text-anchor="start" x="832.9292" y="-201.5" font-family="Times,serif" font-size="14.00" fill="#000000"> &#160;&#160;crowdsaleAddress: address</text>
<text text-anchor="start" x="832.9292" y="-184.7" font-family="Times,serif" font-size="14.00" fill="#000000"> &#160;&#160;INITIAL_SUPPLY: uint</text>
<polyline fill="none" stroke="#000000" points="824.9292,-176.5 1221.9448,-176.5 "/>
<text text-anchor="start" x="832.9292" y="-159.9" font-family="Times,serif" font-size="14.00" fill="#000000">External:</text>
<text text-anchor="start" x="832.9292" y="-143.1" font-family="Times,serif" font-size="14.00" fill="#000000"> &#160;&#160;&#160;enableTransfer()</text>
<text text-anchor="start" x="832.9292" y="-126.3" font-family="Times,serif" font-size="14.00" fill="#000000"> &#160;&#160;&#160;setCrowdsaleAddress(_crowdsaleAddress: address)</text>
<text text-anchor="start" x="832.9292" y="-109.5" font-family="Times,serif" font-size="14.00" fill="#000000"> &#160;&#160;&#160;setPrivateSaleAddress(_privateSaleWallet: address)</text>
<text text-anchor="start" x="832.9292" y="-92.7" font-family="Times,serif" font-size="14.00" fill="#000000">Public:</text>
<text text-anchor="start" x="832.9292" y="-75.9" font-family="Times,serif" font-size="14.00" fill="#000000"> &#160;&#160;&#160;&lt;&lt;modifier&gt;&gt; onlyWhenTransferEnabled()</text>
<text text-anchor="start" x="832.9292" y="-59.1" font-family="Times,serif" font-size="14.00" fill="#000000"> &#160;&#160;&#160;&lt;&lt;modifier&gt;&gt; validDestination(to: address)</text>
<text text-anchor="start" x="832.9292" y="-42.3" font-family="Times,serif" font-size="14.00" fill="#000000"> &#160;&#160;&#160;constructor()</text>
<text text-anchor="start" x="832.9292" y="-25.5" font-family="Times,serif" font-size="14.00" fill="#000000"> &#160;&#160;&#160;transferFrom(_from: address, _to: address, _value: uint256): bool</text>
<text text-anchor="start" x="832.9292" y="-8.7" font-family="Times,serif" font-size="14.00" fill="#000000"> &#160;&#160;&#160;transfer(_to: address, _value: uint256): bool</text>
</g>
<!-- 8&#45;&gt;6 -->
<g id="edge11" class="edge">
<title>8&#45;&gt;6</title>
<path fill="none" stroke="#000000" d="M824.757,-266.2899C797.8417,-282.4637 770.5219,-298.8806 744.4494,-314.5479"/>
<polygon fill="none" stroke="#000000" points="738.6355,-305.7916 718.3294,-330.2439 749.452,-323.7917 738.6355,-305.7916"/>
</g>
<!-- 8&#45;&gt;7 -->
<g id="edge10" class="edge">
<title>8&#45;&gt;7</title>
<path fill="none" stroke="#000000" d="M1023.437,-293.5554C1023.437,-298.5604 1023.437,-303.5352 1023.437,-308.4502"/>
<polygon fill="none" stroke="#000000" points="1012.9371,-308.6475 1023.437,-338.6475 1033.9371,-308.6475 1012.9371,-308.6475"/>
</g>
<!-- 8&#45;&gt;9 -->
<g id="edge12" class="edge">
<title>8&#45;&gt;9</title>
<path fill="none" stroke="#000000" stroke-dasharray="5,2" d="M1197.5887,-293.5573C1205.8679,-305.1649 1213.2763,-317.27 1219.437,-329.8 1340.7636,-576.5616 1321.8244,-679.3955 1259.437,-947.2 1257.3663,-956.0885 1254.5102,-965.0795 1251.1712,-973.9151"/>
<polygon fill="#000000" stroke="#000000" points="1247.83,-972.8444 1247.3727,-983.4293 1254.3311,-975.4398 1247.83,-972.8444"/>
</g>
</g>
</svg>
