<?xml version="1.0" encoding="UTF-8" standalone="no"?>
<!DOCTYPE svg PUBLIC "-//W3C//DTD SVG 1.1//EN"
 "http://www.w3.org/Graphics/SVG/1.1/DTD/svg11.dtd">
<!-- Generated by graphviz version 2.40.1 (20161225.0304)
 -->
<!-- Title: UmlClassDiagram Pages: 1 -->
<svg width="1346pt" height="1123pt"
 viewBox="0.00 0.00 1346.01 1123.20" xmlns="http://www.w3.org/2000/svg" xmlns:xlink="http://www.w3.org/1999/xlink">
<g id="graph0" class="graph" transform="scale(1 1) rotate(0) translate(4 1119.2)">
<title>UmlClassDiagram</title>
<polygon fill="#ffffff" stroke="transparent" points="-4,4 -4,-1119.2 1342.0061,-1119.2 1342.0061,4 -4,4"/>
<!-- 0 -->
<g id="node1" class="node">
<title>0</title>
<polygon fill="#f2f2f2" stroke="#000000" points="829.2189,-956.3 829.2189,-1114.7 1061.0513,-1114.7 1061.0513,-956.3 829.2189,-956.3"/>
<text text-anchor="middle" x="945.1351" y="-1098.1" font-family="Times,serif" font-size="14.00" fill="#000000">&lt;&lt;Library&gt;&gt;</text>
<text text-anchor="middle" x="945.1351" y="-1081.3" font-family="Times,serif" font-size="14.00" fill="#000000">SafeMath</text>
<polyline fill="none" stroke="#000000" points="829.2189,-1073.1 1061.0513,-1073.1 "/>
<text text-anchor="middle" x="945.1351" y="-1056.5" font-family="Times,serif" font-size="14.00" fill="#000000"> </text>
<polyline fill="none" stroke="#000000" points="829.2189,-1048.3 1061.0513,-1048.3 "/>
<text text-anchor="start" x="837.2189" y="-1031.7" font-family="Times,serif" font-size="14.00" fill="#000000">Internal:</text>
<text text-anchor="start" x="837.2189" y="-1014.9" font-family="Times,serif" font-size="14.00" fill="#000000"> &#160;&#160;&#160;mul(a: uint256, b: uint256): uint256</text>
<text text-anchor="start" x="837.2189" y="-998.1" font-family="Times,serif" font-size="14.00" fill="#000000"> &#160;&#160;&#160;div(a: uint256, b: uint256): uint256</text>
<text text-anchor="start" x="837.2189" y="-981.3" font-family="Times,serif" font-size="14.00" fill="#000000"> &#160;&#160;&#160;sub(a: uint256, b: uint256): uint256</text>
<text text-anchor="start" x="837.2189" y="-964.5" font-family="Times,serif" font-size="14.00" fill="#000000"> &#160;&#160;&#160;add(a: uint256, b: uint256): uint256</text>
</g>
<!-- 1 -->
<g id="node2" class="node">
<title>1</title>
<polygon fill="#f2f2f2" stroke="#000000" points="0,-769.3 0,-910.9 254.2702,-910.9 254.2702,-769.3 0,-769.3"/>
<text text-anchor="middle" x="127.1351" y="-894.3" font-family="Times,serif" font-size="14.00" fill="#000000">Ownable</text>
<polyline fill="none" stroke="#000000" points="0,-886.1 254.2702,-886.1 "/>
<text text-anchor="start" x="8" y="-869.5" font-family="Times,serif" font-size="14.00" fill="#000000">Public:</text>
<text text-anchor="start" x="8" y="-852.7" font-family="Times,serif" font-size="14.00" fill="#000000"> &#160;&#160;owner: address</text>
<polyline fill="none" stroke="#000000" points="0,-844.5 254.2702,-844.5 "/>
<text text-anchor="start" x="8" y="-827.9" font-family="Times,serif" font-size="14.00" fill="#000000">Public:</text>
<text text-anchor="start" x="8" y="-811.1" font-family="Times,serif" font-size="14.00" fill="#000000"> &#160;&#160;&#160;&lt;&lt;modifier&gt;&gt; onlyOwner()</text>
<text text-anchor="start" x="8" y="-794.3" font-family="Times,serif" font-size="14.00" fill="#000000"> &#160;&#160;&#160;constructor()</text>
<text text-anchor="start" x="8" y="-777.5" font-family="Times,serif" font-size="14.00" fill="#000000"> &#160;&#160;&#160;transferOwnership(newOwner: address)</text>
</g>
<!-- 2 -->
<g id="node3" class="node">
<title>2</title>
<polygon fill="#f2f2f2" stroke="#000000" points="125.6515,-599.1 125.6515,-707.1 496.6187,-707.1 496.6187,-599.1 125.6515,-599.1"/>
<text text-anchor="middle" x="311.1351" y="-690.5" font-family="Times,serif" font-size="14.00" fill="#000000">HasNoTokens</text>
<polyline fill="none" stroke="#000000" points="125.6515,-682.3 496.6187,-682.3 "/>
<text text-anchor="middle" x="311.1351" y="-665.7" font-family="Times,serif" font-size="14.00" fill="#000000"> </text>
<polyline fill="none" stroke="#000000" points="125.6515,-657.5 496.6187,-657.5 "/>
<text text-anchor="start" x="133.6515" y="-640.9" font-family="Times,serif" font-size="14.00" fill="#000000">External:</text>
<text text-anchor="start" x="133.6515" y="-624.1" font-family="Times,serif" font-size="14.00" fill="#000000"> &#160;&#160;&#160;tokenFallback(from_: address, value_: uint256, data_: bytes)</text>
<text text-anchor="start" x="133.6515" y="-607.3" font-family="Times,serif" font-size="14.00" fill="#000000"> &#160;&#160;&#160;reclaimToken(tokenAddr: address)</text>
</g>
<!-- 2&#45;&gt;1 -->
<g id="edge1" class="edge">
<title>2&#45;&gt;1</title>
<path fill="none" stroke="#000000" d="M257.9147,-707.1881C245.4469,-719.8592 231.816,-733.7123 218.2121,-747.5381"/>
<polygon fill="none" stroke="#000000" points="210.5842,-740.3195 197.0276,-769.0679 225.5531,-755.0482 210.5842,-740.3195"/>
</g>
<!-- 3 -->
<g id="node4" class="node">
<title>3</title>
<polygon fill="#f2f2f2" stroke="#000000" points="359.4047,-956.3 359.4047,-1114.7 742.8655,-1114.7 742.8655,-956.3 359.4047,-956.3"/>
<text text-anchor="middle" x="551.1351" y="-1098.1" font-family="Times,serif" font-size="14.00" fill="#000000">&lt;&lt;Abstract&gt;&gt;</text>
<text text-anchor="middle" x="551.1351" y="-1081.3" font-family="Times,serif" font-size="14.00" fill="#000000">ERC20Basic</text>
<polyline fill="none" stroke="#000000" points="359.4047,-1073.1 742.8655,-1073.1 "/>
<text text-anchor="start" x="367.4047" y="-1056.5" font-family="Times,serif" font-size="14.00" fill="#000000">Public:</text>
<text text-anchor="start" x="367.4047" y="-1039.7" font-family="Times,serif" font-size="14.00" fill="#000000"> &#160;&#160;totalSupply: uint256</text>
<polyline fill="none" stroke="#000000" points="359.4047,-1031.5 742.8655,-1031.5 "/>
<text text-anchor="start" x="367.4047" y="-1014.9" font-family="Times,serif" font-size="14.00" fill="#000000">Public:</text>
<text text-anchor="start" x="367.4047" y="-998.1" font-family="Times,serif" font-size="14.00" fill="#000000"> &#160;&#160;&#160;&lt;&lt;abstract&gt;&gt; balanceOf(who: address): uint256</text>
<text text-anchor="start" x="367.4047" y="-981.3" font-family="Times,serif" font-size="14.00" fill="#000000"> &#160;&#160;&#160;&lt;&lt;abstract&gt;&gt; transfer(to: address, value: uint256): bool</text>
<text text-anchor="start" x="367.4047" y="-964.5" font-family="Times,serif" font-size="14.00" fill="#000000"> &#160;&#160;&#160;&lt;&lt;event&gt;&gt; Transfer(from: address, to: address, value: uint256)</text>
</g>
<!-- 2&#45;&gt;3 -->
<g id="edge2" class="edge">
<title>2&#45;&gt;3</title>
<path fill="none" stroke="#000000" stroke-dasharray="5,2" d="M296.4472,-707.3506C284.2094,-764.8013 274.5983,-855.8536 315.1351,-919.8 324.8751,-935.1648 337.305,-948.55 351.3507,-960.1995"/>
<polygon fill="#000000" stroke="#000000" points="349.298,-963.0384 359.3133,-966.4945 353.6393,-957.5471 349.298,-963.0384"/>
</g>
<!-- 4 -->
<g id="node5" class="node">
<title>4</title>
<polygon fill="#f2f2f2" stroke="#000000" points="323.823,-760.9 323.823,-919.3 778.4472,-919.3 778.4472,-760.9 323.823,-760.9"/>
<text text-anchor="middle" x="551.1351" y="-902.7" font-family="Times,serif" font-size="14.00" fill="#000000">&lt;&lt;Abstract&gt;&gt;</text>
<text text-anchor="middle" x="551.1351" y="-885.9" font-family="Times,serif" font-size="14.00" fill="#000000">ERC20</text>
<polyline fill="none" stroke="#000000" points="323.823,-877.7 778.4472,-877.7 "/>
<text text-anchor="middle" x="551.1351" y="-861.1" font-family="Times,serif" font-size="14.00" fill="#000000"> </text>
<polyline fill="none" stroke="#000000" points="323.823,-852.9 778.4472,-852.9 "/>
<text text-anchor="start" x="331.823" y="-836.3" font-family="Times,serif" font-size="14.00" fill="#000000">Public:</text>
<text text-anchor="start" x="331.823" y="-819.5" font-family="Times,serif" font-size="14.00" fill="#000000"> &#160;&#160;&#160;&lt;&lt;abstract&gt;&gt; allowance(owner: address, spender: address): uint256</text>
<text text-anchor="start" x="331.823" y="-802.7" font-family="Times,serif" font-size="14.00" fill="#000000"> &#160;&#160;&#160;&lt;&lt;abstract&gt;&gt; transferFrom(from: address, to: address, value: uint256): bool</text>
<text text-anchor="start" x="331.823" y="-785.9" font-family="Times,serif" font-size="14.00" fill="#000000"> &#160;&#160;&#160;&lt;&lt;abstract&gt;&gt; approve(spender: address, value: uint256): bool</text>
<text text-anchor="start" x="331.823" y="-769.1" font-family="Times,serif" font-size="14.00" fill="#000000"> &#160;&#160;&#160;&lt;&lt;event&gt;&gt; Approval(owner: address, spender: address, value: uint256)</text>
</g>
<!-- 4&#45;&gt;3 -->
<g id="edge3" class="edge">
<title>4&#45;&gt;3</title>
<path fill="none" stroke="#000000" d="M551.1351,-919.5767C551.1351,-921.6469 551.1351,-923.7285 551.1351,-925.8175"/>
<polygon fill="none" stroke="#000000" points="540.6352,-926.0937 551.1351,-956.0938 561.6352,-926.0938 540.6352,-926.0937"/>
</g>
<!-- 5 -->
<g id="node6" class="node">
<title>5</title>
<polygon fill="#f2f2f2" stroke="#000000" points="796.2244,-777.7 796.2244,-902.5 1094.0458,-902.5 1094.0458,-777.7 796.2244,-777.7"/>
<text text-anchor="middle" x="945.1351" y="-885.9" font-family="Times,serif" font-size="14.00" fill="#000000">BasicToken</text>
<polyline fill="none" stroke="#000000" points="796.2244,-877.7 1094.0458,-877.7 "/>
<text text-anchor="start" x="804.2244" y="-861.1" font-family="Times,serif" font-size="14.00" fill="#000000">Public:</text>
<text text-anchor="start" x="804.2244" y="-844.3" font-family="Times,serif" font-size="14.00" fill="#000000"> &#160;&#160;balances: mapping(address=&gt;uint256)</text>
<polyline fill="none" stroke="#000000" points="796.2244,-836.1 1094.0458,-836.1 "/>
<text text-anchor="start" x="804.2244" y="-819.5" font-family="Times,serif" font-size="14.00" fill="#000000">Public:</text>
<text text-anchor="start" x="804.2244" y="-802.7" font-family="Times,serif" font-size="14.00" fill="#000000"> &#160;&#160;&#160;transfer(_to: address, _value: uint256): bool</text>
<text text-anchor="start" x="804.2244" y="-785.9" font-family="Times,serif" font-size="14.00" fill="#000000"> &#160;&#160;&#160;balanceOf(_owner: address): (balance: uint256)</text>
</g>
<!-- 5&#45;&gt;0 -->
<g id="edge5" class="edge">
<title>5&#45;&gt;0</title>
<path fill="none" stroke="#000000" stroke-dasharray="5,2" d="M945.1351,-902.7321C945.1351,-916.5182 945.1351,-931.3783 945.1351,-945.9923"/>
<polygon fill="#000000" stroke="#000000" points="941.6352,-946.0541 945.1351,-956.0542 948.6352,-946.0542 941.6352,-946.0541"/>
</g>
<!-- 5&#45;&gt;3 -->
<g id="edge4" class="edge">
<title>5&#45;&gt;3</title>
<path fill="none" stroke="#000000" d="M821.4316,-902.6681C809.8465,-908.477 798.2761,-914.2593 787.1351,-919.8 771.9815,-927.3362 756.2653,-935.1172 740.4674,-942.914"/>
<polygon fill="none" stroke="#000000" points="735.7067,-933.5543 713.4364,-956.2322 744.9881,-952.3919 735.7067,-933.5543"/>
</g>
<!-- 6 -->
<g id="node7" class="node">
<title>6</title>
<polygon fill="#f2f2f2" stroke="#000000" points="514.1511,-582.3 514.1511,-723.9 932.1191,-723.9 932.1191,-582.3 514.1511,-582.3"/>
<text text-anchor="middle" x="723.1351" y="-707.3" font-family="Times,serif" font-size="14.00" fill="#000000">StandardToken</text>
<polyline fill="none" stroke="#000000" points="514.1511,-699.1 932.1191,-699.1 "/>
<text text-anchor="start" x="522.1511" y="-682.5" font-family="Times,serif" font-size="14.00" fill="#000000">Public:</text>
<text text-anchor="start" x="522.1511" y="-665.7" font-family="Times,serif" font-size="14.00" fill="#000000"> &#160;&#160;allowed: mapping(address=&gt;mapping(address=&gt;uint256))</text>
<polyline fill="none" stroke="#000000" points="514.1511,-657.5 932.1191,-657.5 "/>
<text text-anchor="start" x="522.1511" y="-640.9" font-family="Times,serif" font-size="14.00" fill="#000000">Public:</text>
<text text-anchor="start" x="522.1511" y="-624.1" font-family="Times,serif" font-size="14.00" fill="#000000"> &#160;&#160;&#160;transferFrom(_from: address, _to: address, _value: uint256): bool</text>
<text text-anchor="start" x="522.1511" y="-607.3" font-family="Times,serif" font-size="14.00" fill="#000000"> &#160;&#160;&#160;approve(_spender: address, _value: uint256): bool</text>
<text text-anchor="start" x="522.1511" y="-590.5" font-family="Times,serif" font-size="14.00" fill="#000000"> &#160;&#160;&#160;allowance(_owner: address, _spender: address): (remaining: uint256)</text>
</g>
<!-- 6&#45;&gt;4 -->
<g id="edge6" class="edge">
<title>6&#45;&gt;4</title>
<path fill="none" stroke="#000000" d="M657.864,-724.0633C653.4717,-728.8387 649.0026,-733.6976 644.5064,-738.5858"/>
<polygon fill="none" stroke="#000000" points="636.7084,-731.5537 624.1273,-760.7422 652.1646,-745.7701 636.7084,-731.5537"/>
</g>
<!-- 6&#45;&gt;5 -->
<g id="edge7" class="edge">
<title>6&#45;&gt;5</title>
<path fill="none" stroke="#000000" d="M807.3803,-724.0633C820.5759,-735.1785 834.3079,-746.7456 847.7683,-758.0839"/>
<polygon fill="none" stroke="#000000" points="841.0581,-766.1602 870.7673,-777.4569 854.5872,-750.099 841.0581,-766.1602"/>
</g>
<!-- 7 -->
<g id="node8" class="node">
<title>7</title>
<polygon fill="#f2f2f2" stroke="#000000" points="950.2641,-590.7 950.2641,-715.5 1338.0061,-715.5 1338.0061,-590.7 950.2641,-590.7"/>
<text text-anchor="middle" x="1144.1351" y="-698.9" font-family="Times,serif" font-size="14.00" fill="#000000">&lt;&lt;Abstract&gt;&gt;</text>
<text text-anchor="middle" x="1144.1351" y="-682.1" font-family="Times,serif" font-size="14.00" fill="#000000">MigrationAgent</text>
<polyline fill="none" stroke="#000000" points="950.2641,-673.9 1338.0061,-673.9 "/>
<text text-anchor="start" x="958.2641" y="-657.3" font-family="Times,serif" font-size="14.00" fill="#000000">Public:</text>
<text text-anchor="start" x="958.2641" y="-640.5" font-family="Times,serif" font-size="14.00" fill="#000000"> &#160;&#160;MIGRATE_MAGIC_ID: uint256</text>
<polyline fill="none" stroke="#000000" points="950.2641,-632.3 1338.0061,-632.3 "/>
<text text-anchor="start" x="958.2641" y="-615.7" font-family="Times,serif" font-size="14.00" fill="#000000">External:</text>
<text text-anchor="start" x="958.2641" y="-598.9" font-family="Times,serif" font-size="14.00" fill="#000000"> &#160;&#160;&#160;&lt;&lt;abstract&gt;&gt; migrateTo(beneficiary: address, amount: uint256)</text>
</g>
<!-- 8 -->
<g id="node9" class="node">
<title>8</title>
<polygon fill="#f2f2f2" stroke="#000000" points="74.6852,-.5 74.6852,-545.3 547.585,-545.3 547.585,-.5 74.6852,-.5"/>
<text text-anchor="middle" x="311.1351" y="-528.7" font-family="Times,serif" font-size="14.00" fill="#000000">MoedaToken</text>
<polyline fill="none" stroke="#000000" points="74.6852,-520.5 547.585,-520.5 "/>
<text text-anchor="start" x="82.6852" y="-503.9" font-family="Times,serif" font-size="14.00" fill="#000000">Public:</text>
<text text-anchor="start" x="82.6852" y="-487.1" font-family="Times,serif" font-size="14.00" fill="#000000"> &#160;&#160;name: string</text>
<text text-anchor="start" x="82.6852" y="-470.3" font-family="Times,serif" font-size="14.00" fill="#000000"> &#160;&#160;symbol: string</text>
<text text-anchor="start" x="82.6852" y="-453.5" font-family="Times,serif" font-size="14.00" fill="#000000"> &#160;&#160;decimals: uint8</text>
<text text-anchor="start" x="82.6852" y="-436.7" font-family="Times,serif" font-size="14.00" fill="#000000"> &#160;&#160;migrationAgent: MigrationAgent</text>
<text text-anchor="start" x="82.6852" y="-419.9" font-family="Times,serif" font-size="14.00" fill="#000000"> &#160;&#160;AGENT_MAGIC_ID: uint256</text>
<text text-anchor="start" x="82.6852" y="-403.1" font-family="Times,serif" font-size="14.00" fill="#000000"> &#160;&#160;totalMigrated: uint256</text>
<text text-anchor="start" x="82.6852" y="-386.3" font-family="Times,serif" font-size="14.00" fill="#000000"> &#160;&#160;TOKEN_MULTIPLIER: uint</text>
<text text-anchor="start" x="82.6852" y="-369.5" font-family="Times,serif" font-size="14.00" fill="#000000"> &#160;&#160;MAX_TOKENS: uint</text>
<text text-anchor="start" x="82.6852" y="-352.7" font-family="Times,serif" font-size="14.00" fill="#000000"> &#160;&#160;mintingFinished: bool</text>
<polyline fill="none" stroke="#000000" points="74.6852,-344.5 547.585,-344.5 "/>
<text text-anchor="start" x="82.6852" y="-327.9" font-family="Times,serif" font-size="14.00" fill="#000000">Internal:</text>
<text text-anchor="start" x="82.6852" y="-311.1" font-family="Times,serif" font-size="14.00" fill="#000000"> &#160;&#160;&#160;issueTokens()</text>
<text text-anchor="start" x="82.6852" y="-294.3" font-family="Times,serif" font-size="14.00" fill="#000000"> &#160;&#160;&#160;isContract(addr: address): bool</text>
<text text-anchor="start" x="82.6852" y="-277.5" font-family="Times,serif" font-size="14.00" fill="#000000"> &#160;&#160;&#160;mint(recipient: address, amount: uint256)</text>
<text text-anchor="start" x="82.6852" y="-260.7" font-family="Times,serif" font-size="14.00" fill="#000000">External:</text>
<text text-anchor="start" x="82.6852" y="-243.9" font-family="Times,serif" font-size="14.00" fill="#000000"> &#160;&#160;&#160;setMigrationAgent(agent: address)</text>
<text text-anchor="start" x="82.6852" y="-227.1" font-family="Times,serif" font-size="14.00" fill="#000000"> &#160;&#160;&#160;migrate(beneficiary: address, amount: uint256)</text>
<text text-anchor="start" x="82.6852" y="-210.3" font-family="Times,serif" font-size="14.00" fill="#000000"> &#160;&#160;&#160;burn(amount: uint256)</text>
<text text-anchor="start" x="82.6852" y="-193.5" font-family="Times,serif" font-size="14.00" fill="#000000"> &#160;&#160;&#160;unlock()</text>
<text text-anchor="start" x="82.6852" y="-176.7" font-family="Times,serif" font-size="14.00" fill="#000000">Public:</text>
<text text-anchor="start" x="82.6852" y="-159.9" font-family="Times,serif" font-size="14.00" fill="#000000"> &#160;&#160;&#160;&lt;&lt;event&gt;&gt; LogMigration(spender: address, grantee: address, amount: uint256)</text>
<text text-anchor="start" x="82.6852" y="-143.1" font-family="Times,serif" font-size="14.00" fill="#000000"> &#160;&#160;&#160;&lt;&lt;event&gt;&gt; LogCreation(donor: address, tokensReceived: uint256)</text>
<text text-anchor="start" x="82.6852" y="-126.3" font-family="Times,serif" font-size="14.00" fill="#000000"> &#160;&#160;&#160;&lt;&lt;event&gt;&gt; LogDestruction(sender: address, amount: uint256)</text>
<text text-anchor="start" x="82.6852" y="-109.5" font-family="Times,serif" font-size="14.00" fill="#000000"> &#160;&#160;&#160;&lt;&lt;event&gt;&gt; LogMintingFinished()</text>
<text text-anchor="start" x="82.6852" y="-92.7" font-family="Times,serif" font-size="14.00" fill="#000000"> &#160;&#160;&#160;&lt;&lt;modifier&gt;&gt; afterMinting()</text>
<text text-anchor="start" x="82.6852" y="-75.9" font-family="Times,serif" font-size="14.00" fill="#000000"> &#160;&#160;&#160;&lt;&lt;modifier&gt;&gt; canTransfer(recipient: address)</text>
<text text-anchor="start" x="82.6852" y="-59.1" font-family="Times,serif" font-size="14.00" fill="#000000"> &#160;&#160;&#160;&lt;&lt;modifier&gt;&gt; canMint()</text>
<text text-anchor="start" x="82.6852" y="-42.3" font-family="Times,serif" font-size="14.00" fill="#000000"> &#160;&#160;&#160;constructor()</text>
<text text-anchor="start" x="82.6852" y="-25.5" font-family="Times,serif" font-size="14.00" fill="#000000"> &#160;&#160;&#160;transfer(to: address, _value: uint): bool</text>
<text text-anchor="start" x="82.6852" y="-8.7" font-family="Times,serif" font-size="14.00" fill="#000000"> &#160;&#160;&#160;transferFrom(from: address, to: address, value: uint): bool</text>
</g>
<!-- 8&#45;&gt;1 -->
<g id="edge9" class="edge">
<title>8&#45;&gt;1</title>
<path fill="none" stroke="#000000" d="M129.4384,-545.408C124.7814,-557.4745 120.64,-569.6291 117.1351,-581.8 102.5835,-632.3305 103.4476,-690.7174 108.6641,-739.1829"/>
<polygon fill="none" stroke="#000000" points="98.2656,-740.6442 112.5451,-769.0404 119.0905,-737.9372 98.2656,-740.6442"/>
</g>
<!-- 8&#45;&gt;2 -->
<g id="edge10" class="edge">
<title>8&#45;&gt;2</title>
<path fill="none" stroke="#000000" d="M311.1351,-545.4208C311.1351,-553.4314 311.1351,-561.1999 311.1351,-568.651"/>
<polygon fill="none" stroke="#000000" points="300.6352,-569.0532 311.1351,-599.0532 321.6352,-569.0533 300.6352,-569.0532"/>
</g>
<!-- 8&#45;&gt;6 -->
<g id="edge8" class="edge">
<title>8&#45;&gt;6</title>
<path fill="none" stroke="#000000" d="M547.8126,-491.3097C574.5827,-516.0135 600.6458,-540.065 624.1387,-561.7446"/>
<polygon fill="none" stroke="#000000" points="617.0904,-569.5279 646.2582,-582.1568 631.3321,-554.095 617.0904,-569.5279"/>
</g>
<!-- 8&#45;&gt;7 -->
<g id="edge11" class="edge">
<title>8&#45;&gt;7</title>
<path fill="none" stroke="#000000" d="M547.6113,-380.8331C692.6113,-447.0143 873.6577,-529.648 998.0374,-586.4177"/>
<polygon fill="#000000" stroke="#000000" points="996.7168,-589.6623 1007.2673,-590.6305 999.6234,-583.2942 996.7168,-589.6623"/>
</g>
</g>
</svg>
