<?xml version="1.0" encoding="UTF-8" standalone="no"?>
<!DOCTYPE svg PUBLIC "-//W3C//DTD SVG 1.1//EN"
 "http://www.w3.org/Graphics/SVG/1.1/DTD/svg11.dtd">
<!-- Generated by graphviz version 2.40.1 (20161225.0304)
 -->
<!-- Title: UmlClassDiagram Pages: 1 -->
<svg width="1281pt" height="983pt"
 viewBox="0.00 0.00 1281.35 982.60" xmlns="http://www.w3.org/2000/svg" xmlns:xlink="http://www.w3.org/1999/xlink">
<g id="graph0" class="graph" transform="scale(1 1) rotate(0) translate(4 978.6)">
<title>UmlClassDiagram</title>
<polygon fill="#ffffff" stroke="transparent" points="-4,4 -4,-978.6 1277.3477,-978.6 1277.3477,4 -4,4"/>
<!-- 0 -->
<g id="node1" class="node">
<title>0</title>
<polygon fill="#f2f2f2" stroke="#000000" points="1008.5208,-815.7 1008.5208,-974.1 1240.3532,-974.1 1240.3532,-815.7 1008.5208,-815.7"/>
<text text-anchor="middle" x="1124.437" y="-957.5" font-family="Times,serif" font-size="14.00" fill="#000000">&lt;&lt;Library&gt;&gt;</text>
<text text-anchor="middle" x="1124.437" y="-940.7" font-family="Times,serif" font-size="14.00" fill="#000000">SafeMath</text>
<polyline fill="none" stroke="#000000" points="1008.5208,-932.5 1240.3532,-932.5 "/>
<text text-anchor="middle" x="1124.437" y="-915.9" font-family="Times,serif" font-size="14.00" fill="#000000"> </text>
<polyline fill="none" stroke="#000000" points="1008.5208,-907.7 1240.3532,-907.7 "/>
<text text-anchor="start" x="1016.5208" y="-891.1" font-family="Times,serif" font-size="14.00" fill="#000000">Internal:</text>
<text text-anchor="start" x="1016.5208" y="-874.3" font-family="Times,serif" font-size="14.00" fill="#000000"> &#160;&#160;&#160;mul(a: uint256, b: uint256): uint256</text>
<text text-anchor="start" x="1016.5208" y="-857.5" font-family="Times,serif" font-size="14.00" fill="#000000"> &#160;&#160;&#160;div(a: uint256, b: uint256): uint256</text>
<text text-anchor="start" x="1016.5208" y="-840.7" font-family="Times,serif" font-size="14.00" fill="#000000"> &#160;&#160;&#160;sub(a: uint256, b: uint256): uint256</text>
<text text-anchor="start" x="1016.5208" y="-823.9" font-family="Times,serif" font-size="14.00" fill="#000000"> &#160;&#160;&#160;add(a: uint256, b: uint256): uint256</text>
</g>
<!-- 1 -->
<g id="node2" class="node">
<title>1</title>
<polygon fill="#f2f2f2" stroke="#000000" points="0,-620.3 0,-778.7 484.874,-778.7 484.874,-620.3 0,-620.3"/>
<text text-anchor="middle" x="242.437" y="-762.1" font-family="Times,serif" font-size="14.00" fill="#000000">Ownable</text>
<polyline fill="none" stroke="#000000" points="0,-753.9 484.874,-753.9 "/>
<text text-anchor="start" x="8" y="-737.3" font-family="Times,serif" font-size="14.00" fill="#000000">Public:</text>
<text text-anchor="start" x="8" y="-720.5" font-family="Times,serif" font-size="14.00" fill="#000000"> &#160;&#160;owner: address</text>
<polyline fill="none" stroke="#000000" points="0,-712.3 484.874,-712.3 "/>
<text text-anchor="start" x="8" y="-695.7" font-family="Times,serif" font-size="14.00" fill="#000000">Public:</text>
<text text-anchor="start" x="8" y="-678.9" font-family="Times,serif" font-size="14.00" fill="#000000"> &#160;&#160;&#160;&lt;&lt;event&gt;&gt; OwnershipTransferred(previousOwner: address, newOwner: address)</text>
<text text-anchor="start" x="8" y="-662.1" font-family="Times,serif" font-size="14.00" fill="#000000"> &#160;&#160;&#160;&lt;&lt;modifier&gt;&gt; onlyOwner()</text>
<text text-anchor="start" x="8" y="-645.3" font-family="Times,serif" font-size="14.00" fill="#000000"> &#160;&#160;&#160;constructor()</text>
<text text-anchor="start" x="8" y="-628.5" font-family="Times,serif" font-size="14.00" fill="#000000"> &#160;&#160;&#160;transferOwnership(newOwner: address)</text>
</g>
<!-- 2 -->
<g id="node3" class="node">
<title>2</title>
<polygon fill="#f2f2f2" stroke="#000000" points="215.646,-391.3 215.646,-583.3 429.228,-583.3 429.228,-391.3 215.646,-391.3"/>
<text text-anchor="middle" x="322.437" y="-566.7" font-family="Times,serif" font-size="14.00" fill="#000000">Pausable</text>
<polyline fill="none" stroke="#000000" points="215.646,-558.5 429.228,-558.5 "/>
<text text-anchor="start" x="223.646" y="-541.9" font-family="Times,serif" font-size="14.00" fill="#000000">Public:</text>
<text text-anchor="start" x="223.646" y="-525.1" font-family="Times,serif" font-size="14.00" fill="#000000"> &#160;&#160;paused: bool</text>
<polyline fill="none" stroke="#000000" points="215.646,-516.9 429.228,-516.9 "/>
<text text-anchor="start" x="223.646" y="-500.3" font-family="Times,serif" font-size="14.00" fill="#000000">Public:</text>
<text text-anchor="start" x="223.646" y="-483.5" font-family="Times,serif" font-size="14.00" fill="#000000"> &#160;&#160;&#160;&lt;&lt;event&gt;&gt; Pause()</text>
<text text-anchor="start" x="223.646" y="-466.7" font-family="Times,serif" font-size="14.00" fill="#000000"> &#160;&#160;&#160;&lt;&lt;event&gt;&gt; Unpause()</text>
<text text-anchor="start" x="223.646" y="-449.9" font-family="Times,serif" font-size="14.00" fill="#000000"> &#160;&#160;&#160;&lt;&lt;modifier&gt;&gt; whenNotPaused()</text>
<text text-anchor="start" x="223.646" y="-433.1" font-family="Times,serif" font-size="14.00" fill="#000000"> &#160;&#160;&#160;&lt;&lt;modifier&gt;&gt; whenPaused()</text>
<text text-anchor="start" x="223.646" y="-416.3" font-family="Times,serif" font-size="14.00" fill="#000000"> &#160;&#160;&#160;pause()</text>
<text text-anchor="start" x="223.646" y="-399.5" font-family="Times,serif" font-size="14.00" fill="#000000"> &#160;&#160;&#160;unpause()</text>
</g>
<!-- 2&#45;&gt;1 -->
<g id="edge1" class="edge">
<title>2&#45;&gt;1</title>
<path fill="none" stroke="#000000" d="M286.1821,-583.4661C285.1331,-586.2487 284.0806,-589.0405 283.0275,-591.8337"/>
<polygon fill="none" stroke="#000000" points="273.0979,-588.4074 272.3398,-620.1828 292.7478,-595.8155 273.0979,-588.4074"/>
</g>
<!-- 3 -->
<g id="node4" class="node">
<title>3</title>
<polygon fill="#f2f2f2" stroke="#000000" points="572.7066,-815.7 572.7066,-974.1 956.1674,-974.1 956.1674,-815.7 572.7066,-815.7"/>
<text text-anchor="middle" x="764.437" y="-957.5" font-family="Times,serif" font-size="14.00" fill="#000000">&lt;&lt;Abstract&gt;&gt;</text>
<text text-anchor="middle" x="764.437" y="-940.7" font-family="Times,serif" font-size="14.00" fill="#000000">ERC20Basic</text>
<polyline fill="none" stroke="#000000" points="572.7066,-932.5 956.1674,-932.5 "/>
<text text-anchor="start" x="580.7066" y="-915.9" font-family="Times,serif" font-size="14.00" fill="#000000">Public:</text>
<text text-anchor="start" x="580.7066" y="-899.1" font-family="Times,serif" font-size="14.00" fill="#000000"> &#160;&#160;totalSupply: uint256</text>
<polyline fill="none" stroke="#000000" points="572.7066,-890.9 956.1674,-890.9 "/>
<text text-anchor="start" x="580.7066" y="-874.3" font-family="Times,serif" font-size="14.00" fill="#000000">Public:</text>
<text text-anchor="start" x="580.7066" y="-857.5" font-family="Times,serif" font-size="14.00" fill="#000000"> &#160;&#160;&#160;&lt;&lt;abstract&gt;&gt; balanceOf(who: address): uint256</text>
<text text-anchor="start" x="580.7066" y="-840.7" font-family="Times,serif" font-size="14.00" fill="#000000"> &#160;&#160;&#160;&lt;&lt;abstract&gt;&gt; transfer(to: address, value: uint256): bool</text>
<text text-anchor="start" x="580.7066" y="-823.9" font-family="Times,serif" font-size="14.00" fill="#000000"> &#160;&#160;&#160;&lt;&lt;event&gt;&gt; Transfer(from: address, to: address, value: uint256)</text>
</g>
<!-- 4 -->
<g id="node5" class="node">
<title>4</title>
<polygon fill="#f2f2f2" stroke="#000000" points="503.1249,-620.3 503.1249,-778.7 957.7491,-778.7 957.7491,-620.3 503.1249,-620.3"/>
<text text-anchor="middle" x="730.437" y="-762.1" font-family="Times,serif" font-size="14.00" fill="#000000">&lt;&lt;Abstract&gt;&gt;</text>
<text text-anchor="middle" x="730.437" y="-745.3" font-family="Times,serif" font-size="14.00" fill="#000000">ERC20</text>
<polyline fill="none" stroke="#000000" points="503.1249,-737.1 957.7491,-737.1 "/>
<text text-anchor="middle" x="730.437" y="-720.5" font-family="Times,serif" font-size="14.00" fill="#000000"> </text>
<polyline fill="none" stroke="#000000" points="503.1249,-712.3 957.7491,-712.3 "/>
<text text-anchor="start" x="511.1249" y="-695.7" font-family="Times,serif" font-size="14.00" fill="#000000">Public:</text>
<text text-anchor="start" x="511.1249" y="-678.9" font-family="Times,serif" font-size="14.00" fill="#000000"> &#160;&#160;&#160;&lt;&lt;abstract&gt;&gt; allowance(owner: address, spender: address): uint256</text>
<text text-anchor="start" x="511.1249" y="-662.1" font-family="Times,serif" font-size="14.00" fill="#000000"> &#160;&#160;&#160;&lt;&lt;abstract&gt;&gt; transferFrom(from: address, to: address, value: uint256): bool</text>
<text text-anchor="start" x="511.1249" y="-645.3" font-family="Times,serif" font-size="14.00" fill="#000000"> &#160;&#160;&#160;&lt;&lt;abstract&gt;&gt; approve(spender: address, value: uint256): bool</text>
<text text-anchor="start" x="511.1249" y="-628.5" font-family="Times,serif" font-size="14.00" fill="#000000"> &#160;&#160;&#160;&lt;&lt;event&gt;&gt; Approval(owner: address, spender: address, value: uint256)</text>
</g>
<!-- 4&#45;&gt;3 -->
<g id="edge2" class="edge">
<title>4&#45;&gt;3</title>
<path fill="none" stroke="#000000" d="M744.2661,-778.9767C744.6591,-781.2351 745.0544,-783.5071 745.4512,-785.7874"/>
<polygon fill="none" stroke="#000000" points="735.1327,-787.7379 750.6202,-815.4938 755.8219,-784.1379 735.1327,-787.7379"/>
</g>
<!-- 5 -->
<g id="node6" class="node">
<title>5</title>
<polygon fill="#f2f2f2" stroke="#000000" points="975.5263,-637.1 975.5263,-761.9 1273.3477,-761.9 1273.3477,-637.1 975.5263,-637.1"/>
<text text-anchor="middle" x="1124.437" y="-745.3" font-family="Times,serif" font-size="14.00" fill="#000000">BasicToken</text>
<polyline fill="none" stroke="#000000" points="975.5263,-737.1 1273.3477,-737.1 "/>
<text text-anchor="start" x="983.5263" y="-720.5" font-family="Times,serif" font-size="14.00" fill="#000000">Public:</text>
<text text-anchor="start" x="983.5263" y="-703.7" font-family="Times,serif" font-size="14.00" fill="#000000"> &#160;&#160;balances: mapping(address=&gt;uint256)</text>
<polyline fill="none" stroke="#000000" points="975.5263,-695.5 1273.3477,-695.5 "/>
<text text-anchor="start" x="983.5263" y="-678.9" font-family="Times,serif" font-size="14.00" fill="#000000">Public:</text>
<text text-anchor="start" x="983.5263" y="-662.1" font-family="Times,serif" font-size="14.00" fill="#000000"> &#160;&#160;&#160;transfer(_to: address, _value: uint256): bool</text>
<text text-anchor="start" x="983.5263" y="-645.3" font-family="Times,serif" font-size="14.00" fill="#000000"> &#160;&#160;&#160;balanceOf(_owner: address): (balance: uint256)</text>
</g>
<!-- 5&#45;&gt;0 -->
<g id="edge4" class="edge">
<title>5&#45;&gt;0</title>
<path fill="none" stroke="#000000" stroke-dasharray="5,2" d="M1124.437,-762.1321C1124.437,-775.9182 1124.437,-790.7783 1124.437,-805.3923"/>
<polygon fill="#000000" stroke="#000000" points="1120.9371,-805.4541 1124.437,-815.4542 1127.9371,-805.4542 1120.9371,-805.4541"/>
</g>
<!-- 5&#45;&gt;3 -->
<g id="edge3" class="edge">
<title>5&#45;&gt;3</title>
<path fill="none" stroke="#000000" d="M1009.0453,-762.1321C986.0128,-774.6336 961.3531,-788.0183 936.88,-801.3018"/>
<polygon fill="none" stroke="#000000" points="931.8407,-792.0899 910.4832,-815.6294 941.8586,-810.5465 931.8407,-792.0899"/>
</g>
<!-- 6 -->
<g id="node7" class="node">
<title>6</title>
<polygon fill="#f2f2f2" stroke="#000000" points="527.0943,-399.7 527.0943,-574.9 933.7797,-574.9 933.7797,-399.7 527.0943,-399.7"/>
<text text-anchor="middle" x="730.437" y="-558.3" font-family="Times,serif" font-size="14.00" fill="#000000">StandardToken</text>
<polyline fill="none" stroke="#000000" points="527.0943,-550.1 933.7797,-550.1 "/>
<text text-anchor="start" x="535.0943" y="-533.5" font-family="Times,serif" font-size="14.00" fill="#000000">Internal:</text>
<text text-anchor="start" x="535.0943" y="-516.7" font-family="Times,serif" font-size="14.00" fill="#000000"> &#160;&#160;allowed: mapping(address=&gt;mapping(address=&gt;uint256))</text>
<polyline fill="none" stroke="#000000" points="527.0943,-508.5 933.7797,-508.5 "/>
<text text-anchor="start" x="535.0943" y="-491.9" font-family="Times,serif" font-size="14.00" fill="#000000">Public:</text>
<text text-anchor="start" x="535.0943" y="-475.1" font-family="Times,serif" font-size="14.00" fill="#000000"> &#160;&#160;&#160;transferFrom(_from: address, _to: address, _value: uint256): bool</text>
<text text-anchor="start" x="535.0943" y="-458.3" font-family="Times,serif" font-size="14.00" fill="#000000"> &#160;&#160;&#160;approve(_spender: address, _value: uint256): bool</text>
<text text-anchor="start" x="535.0943" y="-441.5" font-family="Times,serif" font-size="14.00" fill="#000000"> &#160;&#160;&#160;allowance(_owner: address, _spender: address): uint256</text>
<text text-anchor="start" x="535.0943" y="-424.7" font-family="Times,serif" font-size="14.00" fill="#000000"> &#160;&#160;&#160;increaseApproval(_spender: address, _addedValue: uint): bool</text>
<text text-anchor="start" x="535.0943" y="-407.9" font-family="Times,serif" font-size="14.00" fill="#000000"> &#160;&#160;&#160;decreaseApproval(_spender: address, _subtractedValue: uint): bool</text>
</g>
<!-- 6&#45;&gt;4 -->
<g id="edge5" class="edge">
<title>6&#45;&gt;4</title>
<path fill="none" stroke="#000000" d="M730.437,-575.1416C730.437,-580.0426 730.437,-584.9973 730.437,-589.9619"/>
<polygon fill="none" stroke="#000000" points="719.9371,-590.2116 730.437,-620.2117 740.9371,-590.2117 719.9371,-590.2116"/>
</g>
<!-- 6&#45;&gt;5 -->
<g id="edge6" class="edge">
<title>6&#45;&gt;5</title>
<path fill="none" stroke="#000000" d="M893.2513,-574.9883C922.6999,-590.8487 953.1999,-607.2753 982.0094,-622.7915"/>
<polygon fill="none" stroke="#000000" points="977.0741,-632.0594 1008.4658,-637.0404 987.0319,-613.5704 977.0741,-632.0594"/>
</g>
<!-- 7 -->
<g id="node8" class="node">
<title>7</title>
<polygon fill="#f2f2f2" stroke="#000000" points="253.7496,-195.9 253.7496,-354.3 719.1244,-354.3 719.1244,-195.9 253.7496,-195.9"/>
<text text-anchor="middle" x="486.437" y="-337.7" font-family="Times,serif" font-size="14.00" fill="#000000">PausableToken</text>
<polyline fill="none" stroke="#000000" points="253.7496,-329.5 719.1244,-329.5 "/>
<text text-anchor="middle" x="486.437" y="-312.9" font-family="Times,serif" font-size="14.00" fill="#000000"> </text>
<polyline fill="none" stroke="#000000" points="253.7496,-304.7 719.1244,-304.7 "/>
<text text-anchor="start" x="261.7496" y="-288.1" font-family="Times,serif" font-size="14.00" fill="#000000">Public:</text>
<text text-anchor="start" x="261.7496" y="-271.3" font-family="Times,serif" font-size="14.00" fill="#000000"> &#160;&#160;&#160;transfer(_to: address, _value: uint256): bool</text>
<text text-anchor="start" x="261.7496" y="-254.5" font-family="Times,serif" font-size="14.00" fill="#000000"> &#160;&#160;&#160;transferFrom(_from: address, _to: address, _value: uint256): bool</text>
<text text-anchor="start" x="261.7496" y="-237.7" font-family="Times,serif" font-size="14.00" fill="#000000"> &#160;&#160;&#160;approve(_spender: address, _value: uint256): bool</text>
<text text-anchor="start" x="261.7496" y="-220.9" font-family="Times,serif" font-size="14.00" fill="#000000"> &#160;&#160;&#160;increaseApproval(_spender: address, _addedValue: uint): (success: bool)</text>
<text text-anchor="start" x="261.7496" y="-204.1" font-family="Times,serif" font-size="14.00" fill="#000000"> &#160;&#160;&#160;decreaseApproval(_spender: address, _subtractedValue: uint): (success: bool)</text>
</g>
<!-- 7&#45;&gt;2 -->
<g id="edge8" class="edge">
<title>7&#45;&gt;2</title>
<path fill="none" stroke="#000000" d="M425.1362,-354.4172C421.8737,-358.6386 418.5645,-362.9204 415.231,-367.2336"/>
<polygon fill="none" stroke="#000000" points="406.7174,-361.0787 396.6801,-391.2367 423.3334,-373.9205 406.7174,-361.0787"/>
</g>
<!-- 7&#45;&gt;6 -->
<g id="edge7" class="edge">
<title>7&#45;&gt;6</title>
<path fill="none" stroke="#000000" d="M577.6406,-354.4172C587.1581,-362.6944 596.9432,-371.2042 606.7429,-379.7267"/>
<polygon fill="none" stroke="#000000" points="599.9889,-387.7682 629.5163,-399.5321 613.7696,-371.9223 599.9889,-387.7682"/>
</g>
<!-- 8 -->
<g id="node9" class="node">
<title>8</title>
<polygon fill="#f2f2f2" stroke="#000000" points="403.3942,-.5 403.3942,-158.9 569.4798,-158.9 569.4798,-.5 403.3942,-.5"/>
<text text-anchor="middle" x="486.437" y="-142.3" font-family="Times,serif" font-size="14.00" fill="#000000">EgretiaToken</text>
<polyline fill="none" stroke="#000000" points="403.3942,-134.1 569.4798,-134.1 "/>
<text text-anchor="start" x="411.3942" y="-117.5" font-family="Times,serif" font-size="14.00" fill="#000000">Public:</text>
<text text-anchor="start" x="411.3942" y="-100.7" font-family="Times,serif" font-size="14.00" fill="#000000"> &#160;&#160;name: string</text>
<text text-anchor="start" x="411.3942" y="-83.9" font-family="Times,serif" font-size="14.00" fill="#000000"> &#160;&#160;symbol: string</text>
<text text-anchor="start" x="411.3942" y="-67.1" font-family="Times,serif" font-size="14.00" fill="#000000"> &#160;&#160;decimals: uint</text>
<text text-anchor="start" x="411.3942" y="-50.3" font-family="Times,serif" font-size="14.00" fill="#000000"> &#160;&#160;INITIAL_SUPPLY: uint</text>
<polyline fill="none" stroke="#000000" points="403.3942,-42.1 569.4798,-42.1 "/>
<text text-anchor="start" x="411.3942" y="-25.5" font-family="Times,serif" font-size="14.00" fill="#000000">Public:</text>
<text text-anchor="start" x="411.3942" y="-8.7" font-family="Times,serif" font-size="14.00" fill="#000000"> &#160;&#160;&#160;constructor()</text>
</g>
<!-- 8&#45;&gt;7 -->
<g id="edge9" class="edge">
<title>8&#45;&gt;7</title>
<path fill="none" stroke="#000000" d="M486.437,-159.1767C486.437,-161.2469 486.437,-163.3285 486.437,-165.4175"/>
<polygon fill="none" stroke="#000000" points="475.9371,-165.6937 486.437,-195.6938 496.9371,-165.6938 475.9371,-165.6937"/>
</g>
</g>
</svg>
