<?xml version="1.0" encoding="UTF-8" standalone="no"?>
<!DOCTYPE svg PUBLIC "-//W3C//DTD SVG 1.1//EN"
 "http://www.w3.org/Graphics/SVG/1.1/DTD/svg11.dtd">
<!-- Generated by graphviz version 2.40.1 (20161225.0304)
 -->
<!-- Title: UmlClassDiagram Pages: 1 -->
<svg width="1818pt" height="1699pt"
 viewBox="0.00 0.00 1817.52 1698.80" xmlns="http://www.w3.org/2000/svg" xmlns:xlink="http://www.w3.org/1999/xlink">
<g id="graph0" class="graph" transform="scale(1 1) rotate(0) translate(4 1694.8)">
<title>UmlClassDiagram</title>
<polygon fill="#ffffff" stroke="transparent" points="-4,4 -4,-1694.8 1813.5181,-1694.8 1813.5181,4 -4,4"/>
<!-- 6 -->
<g id="node1" class="node">
<title>6</title>
<polygon fill="#f2f2f2" stroke="#000000" points="165.5578,-727.3 165.5578,-1087.3 675.3406,-1087.3 675.3406,-727.3 165.5578,-727.3"/>
<text text-anchor="middle" x="420.4492" y="-1070.7" font-family="Times,serif" font-size="14.00" fill="#000000">StandardCrowdsale</text>
<polyline fill="none" stroke="#000000" points="165.5578,-1062.5 675.3406,-1062.5 "/>
<text text-anchor="start" x="173.5578" y="-1045.9" font-family="Times,serif" font-size="14.00" fill="#000000">Public:</text>
<text text-anchor="start" x="173.5578" y="-1029.1" font-family="Times,serif" font-size="14.00" fill="#000000"> &#160;&#160;token: StandardToken</text>
<text text-anchor="start" x="173.5578" y="-1012.3" font-family="Times,serif" font-size="14.00" fill="#000000"> &#160;&#160;startTime: uint256</text>
<text text-anchor="start" x="173.5578" y="-995.5" font-family="Times,serif" font-size="14.00" fill="#000000"> &#160;&#160;endTime: uint256</text>
<text text-anchor="start" x="173.5578" y="-978.7" font-family="Times,serif" font-size="14.00" fill="#000000"> &#160;&#160;wallet: address</text>
<text text-anchor="start" x="173.5578" y="-961.9" font-family="Times,serif" font-size="14.00" fill="#000000"> &#160;&#160;rate: uint256</text>
<text text-anchor="start" x="173.5578" y="-945.1" font-family="Times,serif" font-size="14.00" fill="#000000"> &#160;&#160;weiRaised: uint256</text>
<polyline fill="none" stroke="#000000" points="165.5578,-936.9 675.3406,-936.9 "/>
<text text-anchor="start" x="173.5578" y="-920.3" font-family="Times,serif" font-size="14.00" fill="#000000">Internal:</text>
<text text-anchor="start" x="173.5578" y="-903.5" font-family="Times,serif" font-size="14.00" fill="#000000"> &#160;&#160;&#160;createTokenContract(): StandardToken</text>
<text text-anchor="start" x="173.5578" y="-886.7" font-family="Times,serif" font-size="14.00" fill="#000000"> &#160;&#160;&#160;forwardFunds()</text>
<text text-anchor="start" x="173.5578" y="-869.9" font-family="Times,serif" font-size="14.00" fill="#000000"> &#160;&#160;&#160;validPurchase(): bool</text>
<text text-anchor="start" x="173.5578" y="-853.1" font-family="Times,serif" font-size="14.00" fill="#000000">Public:</text>
<text text-anchor="start" x="173.5578" y="-836.3" font-family="Times,serif" font-size="14.00" fill="#000000"> &#160;&#160;&#160;&lt;&lt;fallback&gt;&gt; ()</text>
<text text-anchor="start" x="173.5578" y="-819.5" font-family="Times,serif" font-size="14.00" fill="#000000"> &#160;&#160;&#160;&lt;&lt;payable&gt;&gt; buyTokens()</text>
<text text-anchor="start" x="173.5578" y="-802.7" font-family="Times,serif" font-size="14.00" fill="#000000"> &#160;&#160;&#160;&lt;&lt;event&gt;&gt; TokenPurchase(purchaser: address, value: uint256, amount: uint256)</text>
<text text-anchor="start" x="173.5578" y="-785.9" font-family="Times,serif" font-size="14.00" fill="#000000"> &#160;&#160;&#160;&lt;&lt;modifier&gt;&gt; onlyBeforeSale()</text>
<text text-anchor="start" x="173.5578" y="-769.1" font-family="Times,serif" font-size="14.00" fill="#000000"> &#160;&#160;&#160;&lt;&lt;modifier&gt;&gt; only24HBeforeSale()</text>
<text text-anchor="start" x="173.5578" y="-752.3" font-family="Times,serif" font-size="14.00" fill="#000000"> &#160;&#160;&#160;constructor(_startTime: uint256, _endTime: uint256, _rate: uint256, _wallet: address)</text>
<text text-anchor="start" x="173.5578" y="-735.5" font-family="Times,serif" font-size="14.00" fill="#000000"> &#160;&#160;&#160;hasEnded(): bool</text>
</g>
<!-- 5 -->
<g id="node6" class="node">
<title>5</title>
<polygon fill="#f2f2f2" stroke="#000000" points="1043.7618,-1124.3 1043.7618,-1299.5 1509.1366,-1299.5 1509.1366,-1124.3 1043.7618,-1124.3"/>
<text text-anchor="middle" x="1276.4492" y="-1282.9" font-family="Times,serif" font-size="14.00" fill="#000000">StandardToken</text>
<polyline fill="none" stroke="#000000" points="1043.7618,-1274.7 1509.1366,-1274.7 "/>
<text text-anchor="start" x="1051.7618" y="-1258.1" font-family="Times,serif" font-size="14.00" fill="#000000">Public:</text>
<text text-anchor="start" x="1051.7618" y="-1241.3" font-family="Times,serif" font-size="14.00" fill="#000000"> &#160;&#160;allowed: mapping(address=&gt;mapping(address=&gt;uint256))</text>
<polyline fill="none" stroke="#000000" points="1043.7618,-1233.1 1509.1366,-1233.1 "/>
<text text-anchor="start" x="1051.7618" y="-1216.5" font-family="Times,serif" font-size="14.00" fill="#000000">Public:</text>
<text text-anchor="start" x="1051.7618" y="-1199.7" font-family="Times,serif" font-size="14.00" fill="#000000"> &#160;&#160;&#160;transferFrom(_from: address, _to: address, _value: uint256): bool</text>
<text text-anchor="start" x="1051.7618" y="-1182.9" font-family="Times,serif" font-size="14.00" fill="#000000"> &#160;&#160;&#160;approve(_spender: address, _value: uint256): bool</text>
<text text-anchor="start" x="1051.7618" y="-1166.1" font-family="Times,serif" font-size="14.00" fill="#000000"> &#160;&#160;&#160;allowance(_owner: address, _spender: address): (remaining: uint256)</text>
<text text-anchor="start" x="1051.7618" y="-1149.3" font-family="Times,serif" font-size="14.00" fill="#000000"> &#160;&#160;&#160;increaseApproval(_spender: address, _addedValue: uint): (success: bool)</text>
<text text-anchor="start" x="1051.7618" y="-1132.5" font-family="Times,serif" font-size="14.00" fill="#000000"> &#160;&#160;&#160;decreaseApproval(_spender: address, _subtractedValue: uint): (success: bool)</text>
</g>
<!-- 6&#45;&gt;5 -->
<g id="edge2" class="edge">
<title>6&#45;&gt;5</title>
<path fill="none" stroke="#000000" d="M675.6373,-1083.9402C678.5748,-1085.2601 681.5127,-1086.5475 684.4492,-1087.8 794.5025,-1134.742 923.8586,-1164.4816 1033.5362,-1183.0327"/>
<polygon fill="#000000" stroke="#000000" points="1032.9719,-1186.4869 1043.4119,-1184.682 1034.125,-1179.5825 1032.9719,-1186.4869"/>
</g>
<!-- 1 -->
<g id="node7" class="node">
<title>1</title>
<polygon fill="#f2f2f2" stroke="#000000" points="304.533,-1531.9 304.533,-1690.3 536.3654,-1690.3 536.3654,-1531.9 304.533,-1531.9"/>
<text text-anchor="middle" x="420.4492" y="-1673.7" font-family="Times,serif" font-size="14.00" fill="#000000">&lt;&lt;Library&gt;&gt;</text>
<text text-anchor="middle" x="420.4492" y="-1656.9" font-family="Times,serif" font-size="14.00" fill="#000000">SafeMath</text>
<polyline fill="none" stroke="#000000" points="304.533,-1648.7 536.3654,-1648.7 "/>
<text text-anchor="middle" x="420.4492" y="-1632.1" font-family="Times,serif" font-size="14.00" fill="#000000"> </text>
<polyline fill="none" stroke="#000000" points="304.533,-1623.9 536.3654,-1623.9 "/>
<text text-anchor="start" x="312.533" y="-1607.3" font-family="Times,serif" font-size="14.00" fill="#000000">Internal:</text>
<text text-anchor="start" x="312.533" y="-1590.5" font-family="Times,serif" font-size="14.00" fill="#000000"> &#160;&#160;&#160;mul(a: uint256, b: uint256): uint256</text>
<text text-anchor="start" x="312.533" y="-1573.7" font-family="Times,serif" font-size="14.00" fill="#000000"> &#160;&#160;&#160;div(a: uint256, b: uint256): uint256</text>
<text text-anchor="start" x="312.533" y="-1556.9" font-family="Times,serif" font-size="14.00" fill="#000000"> &#160;&#160;&#160;sub(a: uint256, b: uint256): uint256</text>
<text text-anchor="start" x="312.533" y="-1540.1" font-family="Times,serif" font-size="14.00" fill="#000000"> &#160;&#160;&#160;add(a: uint256, b: uint256): uint256</text>
</g>
<!-- 6&#45;&gt;1 -->
<g id="edge1" class="edge">
<title>6&#45;&gt;1</title>
<path fill="none" stroke="#000000" stroke-dasharray="5,2" d="M420.4492,-1087.6321C420.4492,-1226.5136 420.4492,-1412.5989 420.4492,-1521.4063"/>
<polygon fill="#000000" stroke="#000000" points="416.9493,-1521.6906 420.4492,-1531.6907 423.9493,-1521.6907 416.9493,-1521.6906"/>
</g>
<!-- 0 -->
<g id="node2" class="node">
<title>0</title>
<polygon fill="#f2f2f2" stroke="#000000" points="693.0122,-828.1 693.0122,-986.5 1177.8862,-986.5 1177.8862,-828.1 693.0122,-828.1"/>
<text text-anchor="middle" x="935.4492" y="-969.9" font-family="Times,serif" font-size="14.00" fill="#000000">Ownable</text>
<polyline fill="none" stroke="#000000" points="693.0122,-961.7 1177.8862,-961.7 "/>
<text text-anchor="start" x="701.0122" y="-945.1" font-family="Times,serif" font-size="14.00" fill="#000000">Public:</text>
<text text-anchor="start" x="701.0122" y="-928.3" font-family="Times,serif" font-size="14.00" fill="#000000"> &#160;&#160;owner: address</text>
<polyline fill="none" stroke="#000000" points="693.0122,-920.1 1177.8862,-920.1 "/>
<text text-anchor="start" x="701.0122" y="-903.5" font-family="Times,serif" font-size="14.00" fill="#000000">Public:</text>
<text text-anchor="start" x="701.0122" y="-886.7" font-family="Times,serif" font-size="14.00" fill="#000000"> &#160;&#160;&#160;&lt;&lt;event&gt;&gt; OwnershipTransferred(previousOwner: address, newOwner: address)</text>
<text text-anchor="start" x="701.0122" y="-869.9" font-family="Times,serif" font-size="14.00" fill="#000000"> &#160;&#160;&#160;&lt;&lt;modifier&gt;&gt; onlyOwner()</text>
<text text-anchor="start" x="701.0122" y="-853.1" font-family="Times,serif" font-size="14.00" fill="#000000"> &#160;&#160;&#160;constructor()</text>
<text text-anchor="start" x="701.0122" y="-836.3" font-family="Times,serif" font-size="14.00" fill="#000000"> &#160;&#160;&#160;transferOwnership(newOwner: address)</text>
</g>
<!-- 2 -->
<g id="node3" class="node">
<title>2</title>
<polygon fill="#f2f2f2" stroke="#000000" points="1148.7188,-1531.9 1148.7188,-1690.3 1532.1796,-1690.3 1532.1796,-1531.9 1148.7188,-1531.9"/>
<text text-anchor="middle" x="1340.4492" y="-1673.7" font-family="Times,serif" font-size="14.00" fill="#000000">&lt;&lt;Abstract&gt;&gt;</text>
<text text-anchor="middle" x="1340.4492" y="-1656.9" font-family="Times,serif" font-size="14.00" fill="#000000">ERC20Basic</text>
<polyline fill="none" stroke="#000000" points="1148.7188,-1648.7 1532.1796,-1648.7 "/>
<text text-anchor="start" x="1156.7188" y="-1632.1" font-family="Times,serif" font-size="14.00" fill="#000000">Public:</text>
<text text-anchor="start" x="1156.7188" y="-1615.3" font-family="Times,serif" font-size="14.00" fill="#000000"> &#160;&#160;totalSupply: uint256</text>
<polyline fill="none" stroke="#000000" points="1148.7188,-1607.1 1532.1796,-1607.1 "/>
<text text-anchor="start" x="1156.7188" y="-1590.5" font-family="Times,serif" font-size="14.00" fill="#000000">Public:</text>
<text text-anchor="start" x="1156.7188" y="-1573.7" font-family="Times,serif" font-size="14.00" fill="#000000"> &#160;&#160;&#160;&lt;&lt;abstract&gt;&gt; balanceOf(who: address): uint256</text>
<text text-anchor="start" x="1156.7188" y="-1556.9" font-family="Times,serif" font-size="14.00" fill="#000000"> &#160;&#160;&#160;&lt;&lt;abstract&gt;&gt; transfer(to: address, value: uint256): bool</text>
<text text-anchor="start" x="1156.7188" y="-1540.1" font-family="Times,serif" font-size="14.00" fill="#000000"> &#160;&#160;&#160;&lt;&lt;event&gt;&gt; Transfer(from: address, to: address, value: uint256)</text>
</g>
<!-- 3 -->
<g id="node4" class="node">
<title>3</title>
<polygon fill="#f2f2f2" stroke="#000000" points="1310.1371,-1336.5 1310.1371,-1494.9 1764.7613,-1494.9 1764.7613,-1336.5 1310.1371,-1336.5"/>
<text text-anchor="middle" x="1537.4492" y="-1478.3" font-family="Times,serif" font-size="14.00" fill="#000000">&lt;&lt;Abstract&gt;&gt;</text>
<text text-anchor="middle" x="1537.4492" y="-1461.5" font-family="Times,serif" font-size="14.00" fill="#000000">ERC20</text>
<polyline fill="none" stroke="#000000" points="1310.1371,-1453.3 1764.7613,-1453.3 "/>
<text text-anchor="middle" x="1537.4492" y="-1436.7" font-family="Times,serif" font-size="14.00" fill="#000000"> </text>
<polyline fill="none" stroke="#000000" points="1310.1371,-1428.5 1764.7613,-1428.5 "/>
<text text-anchor="start" x="1318.1371" y="-1411.9" font-family="Times,serif" font-size="14.00" fill="#000000">Public:</text>
<text text-anchor="start" x="1318.1371" y="-1395.1" font-family="Times,serif" font-size="14.00" fill="#000000"> &#160;&#160;&#160;&lt;&lt;abstract&gt;&gt; allowance(owner: address, spender: address): uint256</text>
<text text-anchor="start" x="1318.1371" y="-1378.3" font-family="Times,serif" font-size="14.00" fill="#000000"> &#160;&#160;&#160;&lt;&lt;abstract&gt;&gt; transferFrom(from: address, to: address, value: uint256): bool</text>
<text text-anchor="start" x="1318.1371" y="-1361.5" font-family="Times,serif" font-size="14.00" fill="#000000"> &#160;&#160;&#160;&lt;&lt;abstract&gt;&gt; approve(spender: address, value: uint256): bool</text>
<text text-anchor="start" x="1318.1371" y="-1344.7" font-family="Times,serif" font-size="14.00" fill="#000000"> &#160;&#160;&#160;&lt;&lt;event&gt;&gt; Approval(owner: address, spender: address, value: uint256)</text>
</g>
<!-- 3&#45;&gt;2 -->
<g id="edge3" class="edge">
<title>3&#45;&gt;2</title>
<path fill="none" stroke="#000000" d="M1457.3218,-1495.1767C1452.2935,-1500.1641 1447.199,-1505.2172 1442.0932,-1510.2816"/>
<polygon fill="none" stroke="#000000" points="1434.4109,-1503.1124 1420.5056,-1531.6938 1449.1995,-1518.0221 1434.4109,-1503.1124"/>
</g>
<!-- 4 -->
<g id="node5" class="node">
<title>4</title>
<polygon fill="#f2f2f2" stroke="#000000" points="994.5385,-1353.3 994.5385,-1478.1 1292.3599,-1478.1 1292.3599,-1353.3 994.5385,-1353.3"/>
<text text-anchor="middle" x="1143.4492" y="-1461.5" font-family="Times,serif" font-size="14.00" fill="#000000">BasicToken</text>
<polyline fill="none" stroke="#000000" points="994.5385,-1453.3 1292.3599,-1453.3 "/>
<text text-anchor="start" x="1002.5385" y="-1436.7" font-family="Times,serif" font-size="14.00" fill="#000000">Public:</text>
<text text-anchor="start" x="1002.5385" y="-1419.9" font-family="Times,serif" font-size="14.00" fill="#000000"> &#160;&#160;balances: mapping(address=&gt;uint256)</text>
<polyline fill="none" stroke="#000000" points="994.5385,-1411.7 1292.3599,-1411.7 "/>
<text text-anchor="start" x="1002.5385" y="-1395.1" font-family="Times,serif" font-size="14.00" fill="#000000">Public:</text>
<text text-anchor="start" x="1002.5385" y="-1378.3" font-family="Times,serif" font-size="14.00" fill="#000000"> &#160;&#160;&#160;transfer(_to: address, _value: uint256): bool</text>
<text text-anchor="start" x="1002.5385" y="-1361.5" font-family="Times,serif" font-size="14.00" fill="#000000"> &#160;&#160;&#160;balanceOf(_owner: address): (balance: uint256)</text>
</g>
<!-- 4&#45;&gt;2 -->
<g id="edge4" class="edge">
<title>4&#45;&gt;2</title>
<path fill="none" stroke="#000000" d="M1206.5941,-1478.3321C1216.8847,-1488.5391 1227.7689,-1499.3349 1238.7065,-1510.1836"/>
<polygon fill="none" stroke="#000000" points="1231.659,-1517.9824 1260.3528,-1531.6542 1246.4476,-1503.0728 1231.659,-1517.9824"/>
</g>
<!-- 4&#45;&gt;1 -->
<g id="edge5" class="edge">
<title>4&#45;&gt;1</title>
<path fill="none" stroke="#000000" stroke-dasharray="5,2" d="M994.5198,-1455.9501C862.3061,-1491.6825 671.2562,-1543.3162 546.472,-1577.0407"/>
<polygon fill="#000000" stroke="#000000" points="545.2228,-1573.7527 536.4824,-1579.7406 547.0492,-1580.5102 545.2228,-1573.7527"/>
</g>
<!-- 5&#45;&gt;3 -->
<g id="edge6" class="edge">
<title>5&#45;&gt;3</title>
<path fill="none" stroke="#000000" d="M1388.6514,-1299.5123C1396.3357,-1305.5125 1404.1063,-1311.5802 1411.8539,-1317.6298"/>
<polygon fill="none" stroke="#000000" points="1405.5329,-1326.0159 1435.6405,-1336.2034 1418.4573,-1309.4641 1405.5329,-1326.0159"/>
</g>
<!-- 5&#45;&gt;4 -->
<g id="edge7" class="edge">
<title>5&#45;&gt;4</title>
<path fill="none" stroke="#000000" d="M1219.2734,-1299.5123C1213.2108,-1308.8021 1207.0428,-1318.2536 1200.9762,-1327.5496"/>
<polygon fill="none" stroke="#000000" points="1191.9222,-1322.2109 1184.3198,-1353.0728 1209.5086,-1333.6878 1191.9222,-1322.2109"/>
</g>
<!-- 7 -->
<g id="node8" class="node">
<title>7</title>
<polygon fill="#f2f2f2" stroke="#000000" points="0,-447.9 0,-606.3 178.8984,-606.3 178.8984,-447.9 0,-447.9"/>
<text text-anchor="middle" x="89.4492" y="-589.7" font-family="Times,serif" font-size="14.00" fill="#000000">CappedCrowdsale</text>
<polyline fill="none" stroke="#000000" points="0,-581.5 178.8984,-581.5 "/>
<text text-anchor="start" x="8" y="-564.9" font-family="Times,serif" font-size="14.00" fill="#000000">Public:</text>
<text text-anchor="start" x="8" y="-548.1" font-family="Times,serif" font-size="14.00" fill="#000000"> &#160;&#160;cap: uint256</text>
<polyline fill="none" stroke="#000000" points="0,-539.9 178.8984,-539.9 "/>
<text text-anchor="start" x="8" y="-523.3" font-family="Times,serif" font-size="14.00" fill="#000000">Internal:</text>
<text text-anchor="start" x="8" y="-506.5" font-family="Times,serif" font-size="14.00" fill="#000000"> &#160;&#160;&#160;validPurchase(): bool</text>
<text text-anchor="start" x="8" y="-489.7" font-family="Times,serif" font-size="14.00" fill="#000000">Public:</text>
<text text-anchor="start" x="8" y="-472.9" font-family="Times,serif" font-size="14.00" fill="#000000"> &#160;&#160;&#160;constructor(_cap: uint256)</text>
<text text-anchor="start" x="8" y="-456.1" font-family="Times,serif" font-size="14.00" fill="#000000"> &#160;&#160;&#160;hasEnded(): bool</text>
</g>
<!-- 7&#45;&gt;6 -->
<g id="edge8" class="edge">
<title>7&#45;&gt;6</title>
<path fill="none" stroke="#000000" d="M131.6115,-606.6535C147.8297,-634.3955 167.5152,-665.0147 188.4492,-690.8 192.1603,-695.3711 195.9659,-699.9379 199.8516,-704.4927"/>
<polygon fill="none" stroke="#000000" points="192.1388,-711.6212 219.8815,-727.1323 207.8668,-697.7061 192.1388,-711.6212"/>
</g>
<!-- 7&#45;&gt;1 -->
<g id="edge9" class="edge">
<title>7&#45;&gt;1</title>
<path fill="none" stroke="#000000" stroke-dasharray="5,2" d="M90.3171,-606.4042C93.4434,-716.6538 106.2466,-921.4406 156.4492,-1087.8 205.3676,-1249.904 302.2322,-1422.3672 364.0449,-1523.2336"/>
<polygon fill="#000000" stroke="#000000" points="361.1367,-1525.186 369.3582,-1531.8686 367.0984,-1521.5176 361.1367,-1525.186"/>
</g>
<!-- 8 -->
<g id="node9" class="node">
<title>8</title>
<polygon fill="#f2f2f2" stroke="#000000" points="661.8625,-422.7 661.8625,-631.5 1039.0359,-631.5 1039.0359,-422.7 661.8625,-422.7"/>
<text text-anchor="middle" x="850.4492" y="-614.9" font-family="Times,serif" font-size="14.00" fill="#000000">ProgressiveIndividualCappedCrowdsale</text>
<polyline fill="none" stroke="#000000" points="661.8625,-606.7 1039.0359,-606.7 "/>
<text text-anchor="start" x="669.8625" y="-590.1" font-family="Times,serif" font-size="14.00" fill="#000000">Public:</text>
<text text-anchor="start" x="669.8625" y="-573.3" font-family="Times,serif" font-size="14.00" fill="#000000"> &#160;&#160;TIME_PERIOD_IN_SEC: uint</text>
<text text-anchor="start" x="669.8625" y="-556.5" font-family="Times,serif" font-size="14.00" fill="#000000"> &#160;&#160;GAS_LIMIT_IN_WEI: uint</text>
<text text-anchor="start" x="669.8625" y="-539.7" font-family="Times,serif" font-size="14.00" fill="#000000"> &#160;&#160;baseEthCapPerAddress: uint256</text>
<text text-anchor="start" x="669.8625" y="-522.9" font-family="Times,serif" font-size="14.00" fill="#000000"> &#160;&#160;participated: mapping(address=&gt;uint)</text>
<polyline fill="none" stroke="#000000" points="661.8625,-514.7 1039.0359,-514.7 "/>
<text text-anchor="start" x="669.8625" y="-498.1" font-family="Times,serif" font-size="14.00" fill="#000000">Internal:</text>
<text text-anchor="start" x="669.8625" y="-481.3" font-family="Times,serif" font-size="14.00" fill="#000000"> &#160;&#160;&#160;validPurchase(): bool</text>
<text text-anchor="start" x="669.8625" y="-464.5" font-family="Times,serif" font-size="14.00" fill="#000000">Public:</text>
<text text-anchor="start" x="669.8625" y="-447.7" font-family="Times,serif" font-size="14.00" fill="#000000"> &#160;&#160;&#160;setBaseEthCapPerAddress(_baseEthCapPerAddress: uint256)</text>
<text text-anchor="start" x="669.8625" y="-430.9" font-family="Times,serif" font-size="14.00" fill="#000000"> &#160;&#160;&#160;getCurrentEthCapPerAddress(): uint</text>
</g>
<!-- 8&#45;&gt;6 -->
<g id="edge10" class="edge">
<title>8&#45;&gt;6</title>
<path fill="none" stroke="#000000" d="M732.0964,-631.7459C705.4506,-655.3057 676.3039,-681.0769 646.8709,-707.1011"/>
<polygon fill="none" stroke="#000000" points="639.8638,-699.2809 624.3442,-727.0189 653.7741,-715.0132 639.8638,-699.2809"/>
</g>
<!-- 8&#45;&gt;0 -->
<g id="edge11" class="edge">
<title>8&#45;&gt;0</title>
<path fill="none" stroke="#000000" d="M873.8445,-631.7459C885.4293,-683.5641 899.4057,-746.0796 911.1156,-798.4572"/>
<polygon fill="none" stroke="#000000" points="900.9206,-800.9811 917.7131,-827.9674 921.4146,-796.3992 900.9206,-800.9811"/>
</g>
<!-- 9 -->
<g id="node10" class="node">
<title>9</title>
<polygon fill="#f2f2f2" stroke="#000000" points="197.0165,-439.5 197.0165,-614.7 643.8819,-614.7 643.8819,-439.5 197.0165,-439.5"/>
<text text-anchor="middle" x="420.4492" y="-598.1" font-family="Times,serif" font-size="14.00" fill="#000000">WhitelistedCrowdsale</text>
<polyline fill="none" stroke="#000000" points="197.0165,-589.9 643.8819,-589.9 "/>
<text text-anchor="start" x="205.0165" y="-573.3" font-family="Times,serif" font-size="14.00" fill="#000000">Public:</text>
<text text-anchor="start" x="205.0165" y="-556.5" font-family="Times,serif" font-size="14.00" fill="#000000"> &#160;&#160;registered: mapping(address=&gt;bool)</text>
<polyline fill="none" stroke="#000000" points="197.0165,-548.3 643.8819,-548.3 "/>
<text text-anchor="start" x="205.0165" y="-531.7" font-family="Times,serif" font-size="14.00" fill="#000000">Internal:</text>
<text text-anchor="start" x="205.0165" y="-514.9" font-family="Times,serif" font-size="14.00" fill="#000000"> &#160;&#160;&#160;validPurchase(): bool</text>
<text text-anchor="start" x="205.0165" y="-498.1" font-family="Times,serif" font-size="14.00" fill="#000000">Public:</text>
<text text-anchor="start" x="205.0165" y="-481.3" font-family="Times,serif" font-size="14.00" fill="#000000"> &#160;&#160;&#160;&lt;&lt;event&gt;&gt; RegistrationStatusChanged(target: address, isRegistered: bool)</text>
<text text-anchor="start" x="205.0165" y="-464.5" font-family="Times,serif" font-size="14.00" fill="#000000"> &#160;&#160;&#160;changeRegistrationStatus(target: address, isRegistered: bool)</text>
<text text-anchor="start" x="205.0165" y="-447.7" font-family="Times,serif" font-size="14.00" fill="#000000"> &#160;&#160;&#160;changeRegistrationStatuses(targets: address[], isRegistered: bool)</text>
</g>
<!-- 9&#45;&gt;6 -->
<g id="edge12" class="edge">
<title>9&#45;&gt;6</title>
<path fill="none" stroke="#000000" d="M420.4492,-614.8029C420.4492,-639.7056 420.4492,-667.9499 420.4492,-696.8285"/>
<polygon fill="none" stroke="#000000" points="409.9493,-697.0392 420.4492,-727.0392 430.9493,-697.0393 409.9493,-697.0392"/>
</g>
<!-- 9&#45;&gt;0 -->
<g id="edge13" class="edge">
<title>9&#45;&gt;0</title>
<path fill="none" stroke="#000000" d="M539.2472,-614.8029C618.2095,-673.097 721.9746,-749.7018 803.5047,-809.8917"/>
<polygon fill="none" stroke="#000000" points="797.3971,-818.4341 827.7689,-827.8047 809.8697,-801.5393 797.3971,-818.4341"/>
</g>
<!-- 10 -->
<g id="node11" class="node">
<title>10</title>
<polygon fill="#f2f2f2" stroke="#000000" points="1133.3803,-363.9 1133.3803,-690.3 1809.5181,-690.3 1809.5181,-363.9 1133.3803,-363.9"/>
<text text-anchor="middle" x="1471.4492" y="-673.7" font-family="Times,serif" font-size="14.00" fill="#000000">RequestToken</text>
<polyline fill="none" stroke="#000000" points="1133.3803,-665.5 1809.5181,-665.5 "/>
<text text-anchor="start" x="1141.3803" y="-648.9" font-family="Times,serif" font-size="14.00" fill="#000000">Public:</text>
<text text-anchor="start" x="1141.3803" y="-632.1" font-family="Times,serif" font-size="14.00" fill="#000000"> &#160;&#160;name: string</text>
<text text-anchor="start" x="1141.3803" y="-615.3" font-family="Times,serif" font-size="14.00" fill="#000000"> &#160;&#160;symbol: string</text>
<text text-anchor="start" x="1141.3803" y="-598.5" font-family="Times,serif" font-size="14.00" fill="#000000"> &#160;&#160;decimals: uint8</text>
<text text-anchor="start" x="1141.3803" y="-581.7" font-family="Times,serif" font-size="14.00" fill="#000000"> &#160;&#160;transferableStartTime: uint</text>
<text text-anchor="start" x="1141.3803" y="-564.9" font-family="Times,serif" font-size="14.00" fill="#000000"> &#160;&#160;tokenSaleContract: address</text>
<text text-anchor="start" x="1141.3803" y="-548.1" font-family="Times,serif" font-size="14.00" fill="#000000"> &#160;&#160;earlyInvestorWallet: address</text>
<polyline fill="none" stroke="#000000" points="1133.3803,-539.9 1809.5181,-539.9 "/>
<text text-anchor="start" x="1141.3803" y="-523.3" font-family="Times,serif" font-size="14.00" fill="#000000">Public:</text>
<text text-anchor="start" x="1141.3803" y="-506.5" font-family="Times,serif" font-size="14.00" fill="#000000"> &#160;&#160;&#160;&lt;&lt;event&gt;&gt; Burn(_burner: address, _value: uint)</text>
<text text-anchor="start" x="1141.3803" y="-489.7" font-family="Times,serif" font-size="14.00" fill="#000000"> &#160;&#160;&#160;&lt;&lt;modifier&gt;&gt; onlyWhenTransferEnabled()</text>
<text text-anchor="start" x="1141.3803" y="-472.9" font-family="Times,serif" font-size="14.00" fill="#000000"> &#160;&#160;&#160;&lt;&lt;modifier&gt;&gt; validDestination(to: address)</text>
<text text-anchor="start" x="1141.3803" y="-456.1" font-family="Times,serif" font-size="14.00" fill="#000000"> &#160;&#160;&#160;constructor(tokenTotalAmount: uint, _transferableStartTime: uint, _admin: address, _earlyInvestorWallet: address)</text>
<text text-anchor="start" x="1141.3803" y="-439.3" font-family="Times,serif" font-size="14.00" fill="#000000"> &#160;&#160;&#160;transfer(_to: address, _value: uint): bool</text>
<text text-anchor="start" x="1141.3803" y="-422.5" font-family="Times,serif" font-size="14.00" fill="#000000"> &#160;&#160;&#160;transferFrom(_from: address, _to: address, _value: uint): bool</text>
<text text-anchor="start" x="1141.3803" y="-405.7" font-family="Times,serif" font-size="14.00" fill="#000000"> &#160;&#160;&#160;burn(_value: uint): bool</text>
<text text-anchor="start" x="1141.3803" y="-388.9" font-family="Times,serif" font-size="14.00" fill="#000000"> &#160;&#160;&#160;burnFrom(_from: address, _value: uint256): bool</text>
<text text-anchor="start" x="1141.3803" y="-372.1" font-family="Times,serif" font-size="14.00" fill="#000000"> &#160;&#160;&#160;emergencyERC20Drain(token: ERC20, amount: uint)</text>
</g>
<!-- 10&#45;&gt;0 -->
<g id="edge15" class="edge">
<title>10&#45;&gt;0</title>
<path fill="none" stroke="#000000" d="M1241.0263,-690.5455C1183.3586,-731.4509 1123.3227,-774.036 1071.8859,-810.5216"/>
<polygon fill="none" stroke="#000000" points="1065.7683,-801.9876 1047.3739,-827.9087 1077.918,-819.1161 1065.7683,-801.9876"/>
</g>
<!-- 10&#45;&gt;3 -->
<g id="edge16" class="edge">
<title>10&#45;&gt;3</title>
<path fill="none" stroke="#000000" stroke-dasharray="5,2" d="M1484.9146,-690.4084C1494.6539,-810.3068 1507.9006,-977.1397 1518.4492,-1123.8 1523.3296,-1191.6539 1528.3049,-1268.4215 1531.9394,-1326.1951"/>
<polygon fill="#000000" stroke="#000000" points="1528.4597,-1326.629 1532.5793,-1336.3901 1535.446,-1326.1904 1528.4597,-1326.629"/>
</g>
<!-- 10&#45;&gt;5 -->
<g id="edge14" class="edge">
<title>10&#45;&gt;5</title>
<path fill="none" stroke="#000000" d="M1424.8658,-690.6915C1389.4164,-815.1823 1341.4847,-983.5085 1309.8012,-1094.7745"/>
<polygon fill="none" stroke="#000000" points="1299.636,-1092.1333 1301.5185,-1123.8619 1319.8331,-1097.8845 1299.636,-1092.1333"/>
</g>
<!-- 11 -->
<g id="node12" class="node">
<title>11</title>
<polygon fill="#f2f2f2" stroke="#000000" points="651.5228,-.5 651.5228,-326.9 1049.3756,-326.9 1049.3756,-.5 651.5228,-.5"/>
<text text-anchor="middle" x="850.4492" y="-310.3" font-family="Times,serif" font-size="14.00" fill="#000000">RequestTokenSale</text>
<polyline fill="none" stroke="#000000" points="651.5228,-302.1 1049.3756,-302.1 "/>
<text text-anchor="start" x="659.5228" y="-285.5" font-family="Times,serif" font-size="14.00" fill="#000000">Private:</text>
<text text-anchor="start" x="659.5228" y="-268.7" font-family="Times,serif" font-size="14.00" fill="#000000"> &#160;&#160;HARD_CAP_IN_WEI: uint</text>
<text text-anchor="start" x="659.5228" y="-251.9" font-family="Times,serif" font-size="14.00" fill="#000000"> &#160;&#160;RATE_ETH_REQ: uint</text>
<text text-anchor="start" x="659.5228" y="-235.1" font-family="Times,serif" font-size="14.00" fill="#000000"> &#160;&#160;REQUEST_FOUNDATION_WALLET: address</text>
<text text-anchor="start" x="659.5228" y="-218.3" font-family="Times,serif" font-size="14.00" fill="#000000">Public:</text>
<text text-anchor="start" x="659.5228" y="-201.5" font-family="Times,serif" font-size="14.00" fill="#000000"> &#160;&#160;TOTAL_REQUEST_TOKEN_SUPPLY: uint</text>
<text text-anchor="start" x="659.5228" y="-184.7" font-family="Times,serif" font-size="14.00" fill="#000000"> &#160;&#160;TEAM_VESTING_WALLET: address</text>
<text text-anchor="start" x="659.5228" y="-167.9" font-family="Times,serif" font-size="14.00" fill="#000000"> &#160;&#160;TEAM_VESTING_AMOUNT: uint</text>
<text text-anchor="start" x="659.5228" y="-151.1" font-family="Times,serif" font-size="14.00" fill="#000000"> &#160;&#160;EARLY_INVESTOR_WALLET: address</text>
<text text-anchor="start" x="659.5228" y="-134.3" font-family="Times,serif" font-size="14.00" fill="#000000"> &#160;&#160;EARLY_INVESTOR_AMOUNT: uint</text>
<text text-anchor="start" x="659.5228" y="-117.5" font-family="Times,serif" font-size="14.00" fill="#000000"> &#160;&#160;REQUEST_FOUNDATION_AMOUNT: uint</text>
<text text-anchor="start" x="659.5228" y="-100.7" font-family="Times,serif" font-size="14.00" fill="#000000"> &#160;&#160;PERIOD_AFTERSALE_NOT_TRANSFERABLE_IN_SEC: uint</text>
<polyline fill="none" stroke="#000000" points="651.5228,-92.5 1049.3756,-92.5 "/>
<text text-anchor="start" x="659.5228" y="-75.9" font-family="Times,serif" font-size="14.00" fill="#000000">Internal:</text>
<text text-anchor="start" x="659.5228" y="-59.1" font-family="Times,serif" font-size="14.00" fill="#000000"> &#160;&#160;&#160;createTokenContract(): StandardToken</text>
<text text-anchor="start" x="659.5228" y="-42.3" font-family="Times,serif" font-size="14.00" fill="#000000">Public:</text>
<text text-anchor="start" x="659.5228" y="-25.5" font-family="Times,serif" font-size="14.00" fill="#000000"> &#160;&#160;&#160;constructor(_startTime: uint256, _endTime: uint256)</text>
<text text-anchor="start" x="659.5228" y="-8.7" font-family="Times,serif" font-size="14.00" fill="#000000"> &#160;&#160;&#160;drainRemainingToken()</text>
</g>
<!-- 11&#45;&gt;0 -->
<g id="edge17" class="edge">
<title>11&#45;&gt;0</title>
<path fill="none" stroke="#000000" d="M1029.673,-326.9915C1036.925,-338.7134 1043.2913,-350.8719 1048.4492,-363.4 1103.8464,-497.9534 1083.1114,-549.4776 1048.4492,-690.8 1039.1051,-728.8969 1021.7562,-767.7342 1003.4088,-801.8009"/>
<polygon fill="none" stroke="#000000" points="994.2259,-796.7086 988.6142,-827.9938 1012.5108,-807.0365 994.2259,-796.7086"/>
</g>
<!-- 11&#45;&gt;5 -->
<g id="edge21" class="edge">
<title>11&#45;&gt;5</title>
<path fill="none" stroke="#000000" stroke-dasharray="5,2" d="M1049.5904,-317.4347C1061.2833,-331.987 1071.7876,-347.3431 1080.4492,-363.4 1150.1535,-492.6177 1042.8671,-568.7334 1124.4492,-690.8 1142.1548,-717.2919 1168.0888,-700.7576 1186.4492,-726.8 1267.531,-841.8065 1281.6117,-1008.9743 1281.2933,-1113.998"/>
<polygon fill="#000000" stroke="#000000" points="1277.7914,-1114.2526 1281.2155,-1124.2788 1284.7912,-1114.3056 1277.7914,-1114.2526"/>
</g>
<!-- 11&#45;&gt;7 -->
<g id="edge18" class="edge">
<title>11&#45;&gt;7</title>
<path fill="none" stroke="#000000" d="M651.4087,-185.4418C510.0814,-209.411 322.4115,-259.4461 188.4492,-363.4 168.2852,-379.0471 151.3062,-400.0509 137.417,-421.7856"/>
<polygon fill="none" stroke="#000000" points="128.2641,-416.6381 122.2644,-447.8511 146.4193,-427.1922 128.2641,-416.6381"/>
</g>
<!-- 11&#45;&gt;8 -->
<g id="edge20" class="edge">
<title>11&#45;&gt;8</title>
<path fill="none" stroke="#000000" d="M850.4492,-327.0626C850.4492,-348.8505 850.4492,-370.9938 850.4492,-392.2219"/>
<polygon fill="none" stroke="#000000" points="839.9493,-392.5209 850.4492,-422.521 860.9493,-392.521 839.9493,-392.5209"/>
</g>
<!-- 11&#45;&gt;9 -->
<g id="edge19" class="edge">
<title>11&#45;&gt;9</title>
<path fill="none" stroke="#000000" d="M657.1473,-327.0626C619.9886,-358.466 581.9566,-390.6074 547.552,-419.6833"/>
<polygon fill="none" stroke="#000000" points="540.5041,-411.8922 524.3683,-439.2763 554.0592,-427.9315 540.5041,-411.8922"/>
</g>
<!-- 11&#45;&gt;10 -->
<g id="edge22" class="edge">
<title>11&#45;&gt;10</title>
<path fill="none" stroke="#000000" stroke-dasharray="5,2" d="M1049.4999,-280.1815C1092.2438,-305.1946 1138.2366,-332.1089 1183.5822,-358.6445"/>
<polygon fill="#000000" stroke="#000000" points="1181.9419,-361.7398 1192.3405,-363.7697 1185.4774,-355.6983 1181.9419,-361.7398"/>
</g>
</g>
</svg>
