<?xml version="1.0" encoding="UTF-8" standalone="no"?>
<!DOCTYPE svg PUBLIC "-//W3C//DTD SVG 1.1//EN"
 "http://www.w3.org/Graphics/SVG/1.1/DTD/svg11.dtd">
<!-- Generated by graphviz version 2.40.1 (20161225.0304)
 -->
<!-- Title: UmlClassDiagram Pages: 1 -->
<svg width="752pt" height="915pt"
 viewBox="0.00 0.00 751.95 915.40" xmlns="http://www.w3.org/2000/svg" xmlns:xlink="http://www.w3.org/1999/xlink">
<g id="graph0" class="graph" transform="scale(1 1) rotate(0) translate(4 911.4)">
<title>UmlClassDiagram</title>
<polygon fill="#ffffff" stroke="transparent" points="-4,4 -4,-911.4 747.9496,-911.4 747.9496,4 -4,4"/>
<!-- 0 -->
<g id="node1" class="node">
<title>0</title>
<polygon fill="#f2f2f2" stroke="#000000" points="472.8412,-536.3 472.8412,-711.5 707.783,-711.5 707.783,-536.3 472.8412,-536.3"/>
<text text-anchor="middle" x="590.3121" y="-694.9" font-family="Times,serif" font-size="14.00" fill="#000000">&lt;&lt;Library&gt;&gt;</text>
<text text-anchor="middle" x="590.3121" y="-678.1" font-family="Times,serif" font-size="14.00" fill="#000000">SafeMath</text>
<polyline fill="none" stroke="#000000" points="472.8412,-669.9 707.783,-669.9 "/>
<text text-anchor="middle" x="590.3121" y="-653.3" font-family="Times,serif" font-size="14.00" fill="#000000"> </text>
<polyline fill="none" stroke="#000000" points="472.8412,-645.1 707.783,-645.1 "/>
<text text-anchor="start" x="480.8412" y="-628.5" font-family="Times,serif" font-size="14.00" fill="#000000">Internal:</text>
<text text-anchor="start" x="480.8412" y="-611.7" font-family="Times,serif" font-size="14.00" fill="#000000"> &#160;&#160;&#160;mul(a: uint256, b: uint256): uint256</text>
<text text-anchor="start" x="480.8412" y="-594.9" font-family="Times,serif" font-size="14.00" fill="#000000"> &#160;&#160;&#160;div(a: uint256, b: uint256): uint256</text>
<text text-anchor="start" x="480.8412" y="-578.1" font-family="Times,serif" font-size="14.00" fill="#000000"> &#160;&#160;&#160;sub(a: uint256, b: uint256): uint256</text>
<text text-anchor="start" x="480.8412" y="-561.3" font-family="Times,serif" font-size="14.00" fill="#000000"> &#160;&#160;&#160;add(a: uint256, b: uint256): uint256</text>
<text text-anchor="start" x="480.8412" y="-544.5" font-family="Times,serif" font-size="14.00" fill="#000000"> &#160;&#160;&#160;mod(a: uint256, b: uint256): uint256</text>
</g>
<!-- 1 -->
<g id="node2" class="node">
<title>1</title>
<polygon fill="#f2f2f2" stroke="#000000" points="289.5817,-748.5 289.5817,-906.9 673.0425,-906.9 673.0425,-748.5 289.5817,-748.5"/>
<text text-anchor="middle" x="481.3121" y="-890.3" font-family="Times,serif" font-size="14.00" fill="#000000">&lt;&lt;Abstract&gt;&gt;</text>
<text text-anchor="middle" x="481.3121" y="-873.5" font-family="Times,serif" font-size="14.00" fill="#000000">ERC20Basic</text>
<polyline fill="none" stroke="#000000" points="289.5817,-865.3 673.0425,-865.3 "/>
<text text-anchor="middle" x="481.3121" y="-848.7" font-family="Times,serif" font-size="14.00" fill="#000000"> </text>
<polyline fill="none" stroke="#000000" points="289.5817,-840.5 673.0425,-840.5 "/>
<text text-anchor="start" x="297.5817" y="-823.9" font-family="Times,serif" font-size="14.00" fill="#000000">Public:</text>
<text text-anchor="start" x="297.5817" y="-807.1" font-family="Times,serif" font-size="14.00" fill="#000000"> &#160;&#160;&#160;&lt;&lt;abstract&gt;&gt; totalSupply(): uint256</text>
<text text-anchor="start" x="297.5817" y="-790.3" font-family="Times,serif" font-size="14.00" fill="#000000"> &#160;&#160;&#160;&lt;&lt;abstract&gt;&gt; balanceOf(who: address): uint256</text>
<text text-anchor="start" x="297.5817" y="-773.5" font-family="Times,serif" font-size="14.00" fill="#000000"> &#160;&#160;&#160;&lt;&lt;abstract&gt;&gt; transfer(to: address, value: uint256): bool</text>
<text text-anchor="start" x="297.5817" y="-756.7" font-family="Times,serif" font-size="14.00" fill="#000000"> &#160;&#160;&#160;&lt;&lt;event&gt;&gt; Transfer(from: address, to: address, value: uint256)</text>
</g>
<!-- 2 -->
<g id="node3" class="node">
<title>2</title>
<polygon fill="#f2f2f2" stroke="#000000" points="0,-544.7 0,-703.1 454.6242,-703.1 454.6242,-544.7 0,-544.7"/>
<text text-anchor="middle" x="227.3121" y="-686.5" font-family="Times,serif" font-size="14.00" fill="#000000">&lt;&lt;Abstract&gt;&gt;</text>
<text text-anchor="middle" x="227.3121" y="-669.7" font-family="Times,serif" font-size="14.00" fill="#000000">ERC20</text>
<polyline fill="none" stroke="#000000" points="0,-661.5 454.6242,-661.5 "/>
<text text-anchor="middle" x="227.3121" y="-644.9" font-family="Times,serif" font-size="14.00" fill="#000000"> </text>
<polyline fill="none" stroke="#000000" points="0,-636.7 454.6242,-636.7 "/>
<text text-anchor="start" x="8" y="-620.1" font-family="Times,serif" font-size="14.00" fill="#000000">Public:</text>
<text text-anchor="start" x="8" y="-603.3" font-family="Times,serif" font-size="14.00" fill="#000000"> &#160;&#160;&#160;&lt;&lt;abstract&gt;&gt; allowance(owner: address, spender: address): uint256</text>
<text text-anchor="start" x="8" y="-586.5" font-family="Times,serif" font-size="14.00" fill="#000000"> &#160;&#160;&#160;&lt;&lt;abstract&gt;&gt; transferFrom(from: address, to: address, value: uint256): bool</text>
<text text-anchor="start" x="8" y="-569.7" font-family="Times,serif" font-size="14.00" fill="#000000"> &#160;&#160;&#160;&lt;&lt;abstract&gt;&gt; approve(spender: address, value: uint256): bool</text>
<text text-anchor="start" x="8" y="-552.9" font-family="Times,serif" font-size="14.00" fill="#000000"> &#160;&#160;&#160;&lt;&lt;event&gt;&gt; Approval(owner: address, spender: address, value: uint256)</text>
</g>
<!-- 2&#45;&gt;1 -->
<g id="edge1" class="edge">
<title>2&#45;&gt;1</title>
<path fill="none" stroke="#000000" d="M326.2424,-703.278C336.8724,-711.807 347.7785,-720.5577 358.6423,-729.2744"/>
<polygon fill="none" stroke="#000000" points="352.2637,-737.6185 382.2339,-748.2034 365.4059,-721.2392 352.2637,-737.6185"/>
</g>
<!-- 3 -->
<g id="node4" class="node">
<title>3</title>
<polygon fill="#f2f2f2" stroke="#000000" points="60.6476,-349.3 60.6476,-490.9 433.9766,-490.9 433.9766,-349.3 60.6476,-349.3"/>
<text text-anchor="middle" x="247.3121" y="-474.3" font-family="Times,serif" font-size="14.00" fill="#000000">DetailedERC20</text>
<polyline fill="none" stroke="#000000" points="60.6476,-466.1 433.9766,-466.1 "/>
<text text-anchor="start" x="68.6476" y="-449.5" font-family="Times,serif" font-size="14.00" fill="#000000">Public:</text>
<text text-anchor="start" x="68.6476" y="-432.7" font-family="Times,serif" font-size="14.00" fill="#000000"> &#160;&#160;name: string</text>
<text text-anchor="start" x="68.6476" y="-415.9" font-family="Times,serif" font-size="14.00" fill="#000000"> &#160;&#160;symbol: string</text>
<text text-anchor="start" x="68.6476" y="-399.1" font-family="Times,serif" font-size="14.00" fill="#000000"> &#160;&#160;decimals: uint8</text>
<polyline fill="none" stroke="#000000" points="60.6476,-390.9 433.9766,-390.9 "/>
<text text-anchor="start" x="68.6476" y="-374.3" font-family="Times,serif" font-size="14.00" fill="#000000">Public:</text>
<text text-anchor="start" x="68.6476" y="-357.5" font-family="Times,serif" font-size="14.00" fill="#000000"> &#160;&#160;&#160;constructor(_name: string, _symbol: string, _decimals: uint8)</text>
</g>
<!-- 3&#45;&gt;2 -->
<g id="edge2" class="edge">
<title>3&#45;&gt;2</title>
<path fill="none" stroke="#000000" d="M240.3451,-491.0933C239.6053,-498.632 238.841,-506.42 238.0707,-514.2695"/>
<polygon fill="none" stroke="#000000" points="227.589,-513.5704 235.1087,-544.4525 248.4886,-515.6214 227.589,-513.5704"/>
</g>
<!-- 4 -->
<g id="node5" class="node">
<title>4</title>
<polygon fill="#f2f2f2" stroke="#000000" points="452.2619,-340.9 452.2619,-499.3 728.3623,-499.3 728.3623,-340.9 452.2619,-340.9"/>
<text text-anchor="middle" x="590.3121" y="-482.7" font-family="Times,serif" font-size="14.00" fill="#000000">BasicToken</text>
<polyline fill="none" stroke="#000000" points="452.2619,-474.5 728.3623,-474.5 "/>
<text text-anchor="start" x="460.2619" y="-457.9" font-family="Times,serif" font-size="14.00" fill="#000000">Public:</text>
<text text-anchor="start" x="460.2619" y="-441.1" font-family="Times,serif" font-size="14.00" fill="#000000"> &#160;&#160;balances: mapping(address=&gt;uint256)</text>
<text text-anchor="start" x="460.2619" y="-424.3" font-family="Times,serif" font-size="14.00" fill="#000000"> &#160;&#160;totalSupply_: uint256</text>
<polyline fill="none" stroke="#000000" points="452.2619,-416.1 728.3623,-416.1 "/>
<text text-anchor="start" x="460.2619" y="-399.5" font-family="Times,serif" font-size="14.00" fill="#000000">Public:</text>
<text text-anchor="start" x="460.2619" y="-382.7" font-family="Times,serif" font-size="14.00" fill="#000000"> &#160;&#160;&#160;totalSupply(): uint256</text>
<text text-anchor="start" x="460.2619" y="-365.9" font-family="Times,serif" font-size="14.00" fill="#000000"> &#160;&#160;&#160;transfer(_to: address, _value: uint256): bool</text>
<text text-anchor="start" x="460.2619" y="-349.1" font-family="Times,serif" font-size="14.00" fill="#000000"> &#160;&#160;&#160;balanceOf(_owner: address): uint256</text>
</g>
<!-- 4&#45;&gt;0 -->
<g id="edge4" class="edge">
<title>4&#45;&gt;0</title>
<path fill="none" stroke="#000000" stroke-dasharray="5,2" d="M590.3121,-499.478C590.3121,-508.248 590.3121,-517.2524 590.3121,-526.2132"/>
<polygon fill="#000000" stroke="#000000" points="586.8122,-526.2969 590.3121,-536.297 593.8122,-526.297 586.8122,-526.2969"/>
</g>
<!-- 4&#45;&gt;1 -->
<g id="edge3" class="edge">
<title>4&#45;&gt;1</title>
<path fill="none" stroke="#000000" d="M693.6155,-499.6274C702.7307,-510.7794 710.6374,-522.885 716.3121,-535.8 747.8142,-607.4955 757.6872,-645.5114 716.3121,-712 710.4326,-721.4481 703.5299,-730.1472 695.8534,-738.154"/>
<polygon fill="none" stroke="#000000" points="688.5894,-730.5624 673.1497,-758.3449 702.5449,-746.2546 688.5894,-730.5624"/>
</g>
<!-- 5 -->
<g id="node6" class="node">
<title>5</title>
<polygon fill="#f2f2f2" stroke="#000000" points="204.4694,-128.7 204.4694,-303.9 632.1548,-303.9 632.1548,-128.7 204.4694,-128.7"/>
<text text-anchor="middle" x="418.3121" y="-287.3" font-family="Times,serif" font-size="14.00" fill="#000000">StandardToken</text>
<polyline fill="none" stroke="#000000" points="204.4694,-279.1 632.1548,-279.1 "/>
<text text-anchor="start" x="212.4694" y="-262.5" font-family="Times,serif" font-size="14.00" fill="#000000">Internal:</text>
<text text-anchor="start" x="212.4694" y="-245.7" font-family="Times,serif" font-size="14.00" fill="#000000"> &#160;&#160;allowed: mapping(address=&gt;mapping(address=&gt;uint256))</text>
<polyline fill="none" stroke="#000000" points="204.4694,-237.5 632.1548,-237.5 "/>
<text text-anchor="start" x="212.4694" y="-220.9" font-family="Times,serif" font-size="14.00" fill="#000000">Public:</text>
<text text-anchor="start" x="212.4694" y="-204.1" font-family="Times,serif" font-size="14.00" fill="#000000"> &#160;&#160;&#160;transferFrom(_from: address, _to: address, _value: uint256): bool</text>
<text text-anchor="start" x="212.4694" y="-187.3" font-family="Times,serif" font-size="14.00" fill="#000000"> &#160;&#160;&#160;approve(_spender: address, _value: uint256): bool</text>
<text text-anchor="start" x="212.4694" y="-170.5" font-family="Times,serif" font-size="14.00" fill="#000000"> &#160;&#160;&#160;allowance(_owner: address, _spender: address): uint256</text>
<text text-anchor="start" x="212.4694" y="-153.7" font-family="Times,serif" font-size="14.00" fill="#000000"> &#160;&#160;&#160;increaseApproval(_spender: address, _addedValue: uint256): bool</text>
<text text-anchor="start" x="212.4694" y="-136.9" font-family="Times,serif" font-size="14.00" fill="#000000"> &#160;&#160;&#160;decreaseApproval(_spender: address, _subtractedValue: uint256): bool</text>
</g>
<!-- 5&#45;&gt;3 -->
<g id="edge5" class="edge">
<title>5&#45;&gt;3</title>
<path fill="none" stroke="#000000" d="M344.8003,-303.9123C338.6618,-311.2282 332.4393,-318.6443 326.2625,-326.0058"/>
<polygon fill="none" stroke="#000000" points="318.089,-319.4116 306.8496,-349.1425 334.1763,-332.9098 318.089,-319.4116"/>
</g>
<!-- 5&#45;&gt;4 -->
<g id="edge6" class="edge">
<title>5&#45;&gt;4</title>
<path fill="none" stroke="#000000" d="M492.2538,-303.9123C496.0317,-308.3887 499.8412,-312.9025 503.6525,-317.4185"/>
<polygon fill="none" stroke="#000000" points="495.8465,-324.4492 523.2198,-340.6034 511.895,-310.9049 495.8465,-324.4492"/>
</g>
<!-- 6 -->
<g id="node7" class="node">
<title>6</title>
<polygon fill="#f2f2f2" stroke="#000000" points="367.1634,-.5 367.1634,-91.7 469.4608,-91.7 469.4608,-.5 367.1634,-.5"/>
<text text-anchor="middle" x="418.3121" y="-75.1" font-family="Times,serif" font-size="14.00" fill="#000000">ZEON</text>
<polyline fill="none" stroke="#000000" points="367.1634,-66.9 469.4608,-66.9 "/>
<text text-anchor="middle" x="418.3121" y="-50.3" font-family="Times,serif" font-size="14.00" fill="#000000"> </text>
<polyline fill="none" stroke="#000000" points="367.1634,-42.1 469.4608,-42.1 "/>
<text text-anchor="start" x="375.1634" y="-25.5" font-family="Times,serif" font-size="14.00" fill="#000000">Public:</text>
<text text-anchor="start" x="375.1634" y="-8.7" font-family="Times,serif" font-size="14.00" fill="#000000"> &#160;&#160;&#160;constructor()</text>
</g>
<!-- 6&#45;&gt;5 -->
<g id="edge7" class="edge">
<title>6&#45;&gt;5</title>
<path fill="none" stroke="#000000" d="M418.3121,-91.7105C418.3121,-93.8521 418.3121,-96.0367 418.3121,-98.2566"/>
<polygon fill="none" stroke="#000000" points="407.8122,-98.4968 418.3121,-128.4969 428.8122,-98.4969 407.8122,-98.4968"/>
</g>
</g>
</svg>
