<?xml version="1.0" encoding="UTF-8" standalone="no"?>
<!DOCTYPE svg PUBLIC "-//W3C//DTD SVG 1.1//EN"
 "http://www.w3.org/Graphics/SVG/1.1/DTD/svg11.dtd">
<!-- Generated by graphviz version 2.40.1 (20161225.0304)
 -->
<!-- Title: UmlClassDiagram Pages: 1 -->
<svg width="1609pt" height="1167pt"
 viewBox="0.00 0.00 1608.77 1167.40" xmlns="http://www.w3.org/2000/svg" xmlns:xlink="http://www.w3.org/1999/xlink">
<g id="graph0" class="graph" transform="scale(1 1) rotate(0) translate(4 1163.4)">
<title>UmlClassDiagram</title>
<polygon fill="#ffffff" stroke="transparent" points="-4,4 -4,-1163.4 1604.766,-1163.4 1604.766,4 -4,4"/>
<!-- 6 -->
<g id="node1" class="node">
<title>6</title>
<polygon fill="#f2f2f2" stroke="#000000" points="135.646,-576.1 135.646,-768.1 349.228,-768.1 349.228,-576.1 135.646,-576.1"/>
<text text-anchor="middle" x="242.437" y="-751.5" font-family="Times,serif" font-size="14.00" fill="#000000">Pausable</text>
<polyline fill="none" stroke="#000000" points="135.646,-743.3 349.228,-743.3 "/>
<text text-anchor="start" x="143.646" y="-726.7" font-family="Times,serif" font-size="14.00" fill="#000000">Public:</text>
<text text-anchor="start" x="143.646" y="-709.9" font-family="Times,serif" font-size="14.00" fill="#000000"> &#160;&#160;paused: bool</text>
<polyline fill="none" stroke="#000000" points="135.646,-701.7 349.228,-701.7 "/>
<text text-anchor="start" x="143.646" y="-685.1" font-family="Times,serif" font-size="14.00" fill="#000000">Public:</text>
<text text-anchor="start" x="143.646" y="-668.3" font-family="Times,serif" font-size="14.00" fill="#000000"> &#160;&#160;&#160;&lt;&lt;event&gt;&gt; Pause()</text>
<text text-anchor="start" x="143.646" y="-651.5" font-family="Times,serif" font-size="14.00" fill="#000000"> &#160;&#160;&#160;&lt;&lt;event&gt;&gt; Unpause()</text>
<text text-anchor="start" x="143.646" y="-634.7" font-family="Times,serif" font-size="14.00" fill="#000000"> &#160;&#160;&#160;&lt;&lt;modifier&gt;&gt; whenNotPaused()</text>
<text text-anchor="start" x="143.646" y="-617.9" font-family="Times,serif" font-size="14.00" fill="#000000"> &#160;&#160;&#160;&lt;&lt;modifier&gt;&gt; whenPaused()</text>
<text text-anchor="start" x="143.646" y="-601.1" font-family="Times,serif" font-size="14.00" fill="#000000"> &#160;&#160;&#160;pause()</text>
<text text-anchor="start" x="143.646" y="-584.3" font-family="Times,serif" font-size="14.00" fill="#000000"> &#160;&#160;&#160;unpause()</text>
</g>
<!-- 1 -->
<g id="node7" class="node">
<title>1</title>
<polygon fill="#f2f2f2" stroke="#000000" points="0,-805.1 0,-963.5 484.874,-963.5 484.874,-805.1 0,-805.1"/>
<text text-anchor="middle" x="242.437" y="-946.9" font-family="Times,serif" font-size="14.00" fill="#000000">Ownable</text>
<polyline fill="none" stroke="#000000" points="0,-938.7 484.874,-938.7 "/>
<text text-anchor="start" x="8" y="-922.1" font-family="Times,serif" font-size="14.00" fill="#000000">Public:</text>
<text text-anchor="start" x="8" y="-905.3" font-family="Times,serif" font-size="14.00" fill="#000000"> &#160;&#160;owner: address</text>
<polyline fill="none" stroke="#000000" points="0,-897.1 484.874,-897.1 "/>
<text text-anchor="start" x="8" y="-880.5" font-family="Times,serif" font-size="14.00" fill="#000000">Public:</text>
<text text-anchor="start" x="8" y="-863.7" font-family="Times,serif" font-size="14.00" fill="#000000"> &#160;&#160;&#160;&lt;&lt;event&gt;&gt; OwnershipTransferred(previousOwner: address, newOwner: address)</text>
<text text-anchor="start" x="8" y="-846.9" font-family="Times,serif" font-size="14.00" fill="#000000"> &#160;&#160;&#160;&lt;&lt;modifier&gt;&gt; onlyOwner()</text>
<text text-anchor="start" x="8" y="-830.1" font-family="Times,serif" font-size="14.00" fill="#000000"> &#160;&#160;&#160;constructor()</text>
<text text-anchor="start" x="8" y="-813.3" font-family="Times,serif" font-size="14.00" fill="#000000"> &#160;&#160;&#160;transferOwnership(newOwner: address)</text>
</g>
<!-- 6&#45;&gt;1 -->
<g id="edge1" class="edge">
<title>6&#45;&gt;1</title>
<path fill="none" stroke="#000000" d="M242.437,-768.2661C242.437,-770.473 242.437,-772.6856 242.437,-774.9002"/>
<polygon fill="none" stroke="#000000" points="231.9371,-774.9828 242.437,-804.9828 252.9371,-774.9828 231.9371,-774.9828"/>
</g>
<!-- 0 -->
<g id="node2" class="node">
<title>0</title>
<polygon fill="#f2f2f2" stroke="#000000" points="535.5208,-1000.5 535.5208,-1158.9 767.3532,-1158.9 767.3532,-1000.5 535.5208,-1000.5"/>
<text text-anchor="middle" x="651.437" y="-1142.3" font-family="Times,serif" font-size="14.00" fill="#000000">&lt;&lt;Library&gt;&gt;</text>
<text text-anchor="middle" x="651.437" y="-1125.5" font-family="Times,serif" font-size="14.00" fill="#000000">SafeMath</text>
<polyline fill="none" stroke="#000000" points="535.5208,-1117.3 767.3532,-1117.3 "/>
<text text-anchor="middle" x="651.437" y="-1100.7" font-family="Times,serif" font-size="14.00" fill="#000000"> </text>
<polyline fill="none" stroke="#000000" points="535.5208,-1092.5 767.3532,-1092.5 "/>
<text text-anchor="start" x="543.5208" y="-1075.9" font-family="Times,serif" font-size="14.00" fill="#000000">Internal:</text>
<text text-anchor="start" x="543.5208" y="-1059.1" font-family="Times,serif" font-size="14.00" fill="#000000"> &#160;&#160;&#160;mul(a: uint256, b: uint256): uint256</text>
<text text-anchor="start" x="543.5208" y="-1042.3" font-family="Times,serif" font-size="14.00" fill="#000000"> &#160;&#160;&#160;div(a: uint256, b: uint256): uint256</text>
<text text-anchor="start" x="543.5208" y="-1025.5" font-family="Times,serif" font-size="14.00" fill="#000000"> &#160;&#160;&#160;sub(a: uint256, b: uint256): uint256</text>
<text text-anchor="start" x="543.5208" y="-1008.7" font-family="Times,serif" font-size="14.00" fill="#000000"> &#160;&#160;&#160;add(a: uint256, b: uint256): uint256</text>
</g>
<!-- 2 -->
<g id="node3" class="node">
<title>2</title>
<polygon fill="#f2f2f2" stroke="#000000" points="819.7066,-1000.5 819.7066,-1158.9 1203.1674,-1158.9 1203.1674,-1000.5 819.7066,-1000.5"/>
<text text-anchor="middle" x="1011.437" y="-1142.3" font-family="Times,serif" font-size="14.00" fill="#000000">&lt;&lt;Abstract&gt;&gt;</text>
<text text-anchor="middle" x="1011.437" y="-1125.5" font-family="Times,serif" font-size="14.00" fill="#000000">ERC20Basic</text>
<polyline fill="none" stroke="#000000" points="819.7066,-1117.3 1203.1674,-1117.3 "/>
<text text-anchor="start" x="827.7066" y="-1100.7" font-family="Times,serif" font-size="14.00" fill="#000000">Public:</text>
<text text-anchor="start" x="827.7066" y="-1083.9" font-family="Times,serif" font-size="14.00" fill="#000000"> &#160;&#160;totalSupply: uint256</text>
<polyline fill="none" stroke="#000000" points="819.7066,-1075.7 1203.1674,-1075.7 "/>
<text text-anchor="start" x="827.7066" y="-1059.1" font-family="Times,serif" font-size="14.00" fill="#000000">Public:</text>
<text text-anchor="start" x="827.7066" y="-1042.3" font-family="Times,serif" font-size="14.00" fill="#000000"> &#160;&#160;&#160;&lt;&lt;abstract&gt;&gt; balanceOf(who: address): uint256</text>
<text text-anchor="start" x="827.7066" y="-1025.5" font-family="Times,serif" font-size="14.00" fill="#000000"> &#160;&#160;&#160;&lt;&lt;abstract&gt;&gt; transfer(to: address, value: uint256): bool</text>
<text text-anchor="start" x="827.7066" y="-1008.7" font-family="Times,serif" font-size="14.00" fill="#000000"> &#160;&#160;&#160;&lt;&lt;event&gt;&gt; Transfer(from: address, to: address, value: uint256)</text>
</g>
<!-- 3 -->
<g id="node4" class="node">
<title>3</title>
<polygon fill="#f2f2f2" stroke="#000000" points="818.1249,-805.1 818.1249,-963.5 1272.7491,-963.5 1272.7491,-805.1 818.1249,-805.1"/>
<text text-anchor="middle" x="1045.437" y="-946.9" font-family="Times,serif" font-size="14.00" fill="#000000">&lt;&lt;Abstract&gt;&gt;</text>
<text text-anchor="middle" x="1045.437" y="-930.1" font-family="Times,serif" font-size="14.00" fill="#000000">ERC20</text>
<polyline fill="none" stroke="#000000" points="818.1249,-921.9 1272.7491,-921.9 "/>
<text text-anchor="middle" x="1045.437" y="-905.3" font-family="Times,serif" font-size="14.00" fill="#000000"> </text>
<polyline fill="none" stroke="#000000" points="818.1249,-897.1 1272.7491,-897.1 "/>
<text text-anchor="start" x="826.1249" y="-880.5" font-family="Times,serif" font-size="14.00" fill="#000000">Public:</text>
<text text-anchor="start" x="826.1249" y="-863.7" font-family="Times,serif" font-size="14.00" fill="#000000"> &#160;&#160;&#160;&lt;&lt;abstract&gt;&gt; allowance(owner: address, spender: address): uint256</text>
<text text-anchor="start" x="826.1249" y="-846.9" font-family="Times,serif" font-size="14.00" fill="#000000"> &#160;&#160;&#160;&lt;&lt;abstract&gt;&gt; transferFrom(from: address, to: address, value: uint256): bool</text>
<text text-anchor="start" x="826.1249" y="-830.1" font-family="Times,serif" font-size="14.00" fill="#000000"> &#160;&#160;&#160;&lt;&lt;abstract&gt;&gt; approve(spender: address, value: uint256): bool</text>
<text text-anchor="start" x="826.1249" y="-813.3" font-family="Times,serif" font-size="14.00" fill="#000000"> &#160;&#160;&#160;&lt;&lt;event&gt;&gt; Approval(owner: address, spender: address, value: uint256)</text>
</g>
<!-- 3&#45;&gt;2 -->
<g id="edge2" class="edge">
<title>3&#45;&gt;2</title>
<path fill="none" stroke="#000000" d="M1031.6079,-963.7767C1031.2149,-966.0351 1030.8196,-968.3071 1030.4228,-970.5874"/>
<polygon fill="none" stroke="#000000" points="1020.0521,-968.9379 1025.2538,-1000.2938 1040.7413,-972.5379 1020.0521,-968.9379"/>
</g>
<!-- 4 -->
<g id="node5" class="node">
<title>4</title>
<polygon fill="#f2f2f2" stroke="#000000" points="502.5263,-821.9 502.5263,-946.7 800.3477,-946.7 800.3477,-821.9 502.5263,-821.9"/>
<text text-anchor="middle" x="651.437" y="-930.1" font-family="Times,serif" font-size="14.00" fill="#000000">BasicToken</text>
<polyline fill="none" stroke="#000000" points="502.5263,-921.9 800.3477,-921.9 "/>
<text text-anchor="start" x="510.5263" y="-905.3" font-family="Times,serif" font-size="14.00" fill="#000000">Public:</text>
<text text-anchor="start" x="510.5263" y="-888.5" font-family="Times,serif" font-size="14.00" fill="#000000"> &#160;&#160;balances: mapping(address=&gt;uint256)</text>
<polyline fill="none" stroke="#000000" points="502.5263,-880.3 800.3477,-880.3 "/>
<text text-anchor="start" x="510.5263" y="-863.7" font-family="Times,serif" font-size="14.00" fill="#000000">Public:</text>
<text text-anchor="start" x="510.5263" y="-846.9" font-family="Times,serif" font-size="14.00" fill="#000000"> &#160;&#160;&#160;transfer(_to: address, _value: uint256): bool</text>
<text text-anchor="start" x="510.5263" y="-830.1" font-family="Times,serif" font-size="14.00" fill="#000000"> &#160;&#160;&#160;balanceOf(_owner: address): (balance: uint256)</text>
</g>
<!-- 4&#45;&gt;0 -->
<g id="edge4" class="edge">
<title>4&#45;&gt;0</title>
<path fill="none" stroke="#000000" stroke-dasharray="5,2" d="M651.437,-946.9321C651.437,-960.7182 651.437,-975.5783 651.437,-990.1923"/>
<polygon fill="#000000" stroke="#000000" points="647.9371,-990.2541 651.437,-1000.2542 654.9371,-990.2542 647.9371,-990.2541"/>
</g>
<!-- 4&#45;&gt;2 -->
<g id="edge3" class="edge">
<title>4&#45;&gt;2</title>
<path fill="none" stroke="#000000" d="M766.8287,-946.9321C789.8612,-959.4336 814.5209,-972.8183 838.994,-986.1018"/>
<polygon fill="none" stroke="#000000" points="834.0154,-995.3465 865.3908,-1000.4294 844.0333,-976.8899 834.0154,-995.3465"/>
</g>
<!-- 5 -->
<g id="node6" class="node">
<title>5</title>
<polygon fill="#f2f2f2" stroke="#000000" points="448.0943,-584.5 448.0943,-759.7 854.7797,-759.7 854.7797,-584.5 448.0943,-584.5"/>
<text text-anchor="middle" x="651.437" y="-743.1" font-family="Times,serif" font-size="14.00" fill="#000000">StandardToken</text>
<polyline fill="none" stroke="#000000" points="448.0943,-734.9 854.7797,-734.9 "/>
<text text-anchor="start" x="456.0943" y="-718.3" font-family="Times,serif" font-size="14.00" fill="#000000">Internal:</text>
<text text-anchor="start" x="456.0943" y="-701.5" font-family="Times,serif" font-size="14.00" fill="#000000"> &#160;&#160;allowed: mapping(address=&gt;mapping(address=&gt;uint256))</text>
<polyline fill="none" stroke="#000000" points="448.0943,-693.3 854.7797,-693.3 "/>
<text text-anchor="start" x="456.0943" y="-676.7" font-family="Times,serif" font-size="14.00" fill="#000000">Public:</text>
<text text-anchor="start" x="456.0943" y="-659.9" font-family="Times,serif" font-size="14.00" fill="#000000"> &#160;&#160;&#160;transferFrom(_from: address, _to: address, _value: uint256): bool</text>
<text text-anchor="start" x="456.0943" y="-643.1" font-family="Times,serif" font-size="14.00" fill="#000000"> &#160;&#160;&#160;approve(_spender: address, _value: uint256): bool</text>
<text text-anchor="start" x="456.0943" y="-626.3" font-family="Times,serif" font-size="14.00" fill="#000000"> &#160;&#160;&#160;allowance(_owner: address, _spender: address): uint256</text>
<text text-anchor="start" x="456.0943" y="-609.5" font-family="Times,serif" font-size="14.00" fill="#000000"> &#160;&#160;&#160;increaseApproval(_spender: address, _addedValue: uint): bool</text>
<text text-anchor="start" x="456.0943" y="-592.7" font-family="Times,serif" font-size="14.00" fill="#000000"> &#160;&#160;&#160;decreaseApproval(_spender: address, _subtractedValue: uint): bool</text>
</g>
<!-- 5&#45;&gt;3 -->
<g id="edge5" class="edge">
<title>5&#45;&gt;3</title>
<path fill="none" stroke="#000000" d="M814.2513,-759.7883C833.1853,-769.9857 852.5539,-780.4173 871.6284,-790.6904"/>
<polygon fill="none" stroke="#000000" points="866.9318,-800.0869 898.3235,-805.0678 876.8896,-781.5979 866.9318,-800.0869"/>
</g>
<!-- 5&#45;&gt;4 -->
<g id="edge6" class="edge">
<title>5&#45;&gt;4</title>
<path fill="none" stroke="#000000" d="M651.437,-759.9416C651.437,-770.3173 651.437,-780.9332 651.437,-791.3761"/>
<polygon fill="none" stroke="#000000" points="640.9371,-791.7729 651.437,-821.7729 661.9371,-791.7729 640.9371,-791.7729"/>
</g>
<!-- 7 -->
<g id="node8" class="node">
<title>7</title>
<polygon fill="#f2f2f2" stroke="#000000" points="492.7505,-363.9 492.7505,-539.1 784.1235,-539.1 784.1235,-363.9 492.7505,-363.9"/>
<text text-anchor="middle" x="638.437" y="-522.5" font-family="Times,serif" font-size="14.00" fill="#000000">MintableToken</text>
<polyline fill="none" stroke="#000000" points="492.7505,-514.3 784.1235,-514.3 "/>
<text text-anchor="start" x="500.7505" y="-497.7" font-family="Times,serif" font-size="14.00" fill="#000000">Public:</text>
<text text-anchor="start" x="500.7505" y="-480.9" font-family="Times,serif" font-size="14.00" fill="#000000"> &#160;&#160;mintingFinished: bool</text>
<polyline fill="none" stroke="#000000" points="492.7505,-472.7 784.1235,-472.7 "/>
<text text-anchor="start" x="500.7505" y="-456.1" font-family="Times,serif" font-size="14.00" fill="#000000">Public:</text>
<text text-anchor="start" x="500.7505" y="-439.3" font-family="Times,serif" font-size="14.00" fill="#000000"> &#160;&#160;&#160;&lt;&lt;event&gt;&gt; Mint(to: address, amount: uint256)</text>
<text text-anchor="start" x="500.7505" y="-422.5" font-family="Times,serif" font-size="14.00" fill="#000000"> &#160;&#160;&#160;&lt;&lt;event&gt;&gt; MintFinished()</text>
<text text-anchor="start" x="500.7505" y="-405.7" font-family="Times,serif" font-size="14.00" fill="#000000"> &#160;&#160;&#160;&lt;&lt;modifier&gt;&gt; canMint()</text>
<text text-anchor="start" x="500.7505" y="-388.9" font-family="Times,serif" font-size="14.00" fill="#000000"> &#160;&#160;&#160;mint(_to: address, _amount: uint256): bool</text>
<text text-anchor="start" x="500.7505" y="-372.1" font-family="Times,serif" font-size="14.00" fill="#000000"> &#160;&#160;&#160;finishMinting(): bool</text>
</g>
<!-- 7&#45;&gt;5 -->
<g id="edge7" class="edge">
<title>7&#45;&gt;5</title>
<path fill="none" stroke="#000000" d="M643.6123,-539.3208C643.8981,-544.1701 644.1874,-549.0799 644.478,-554.0106"/>
<polygon fill="none" stroke="#000000" points="634.0115,-554.8906 646.2583,-584.221 654.9751,-553.6552 634.0115,-554.8906"/>
</g>
<!-- 7&#45;&gt;1 -->
<g id="edge8" class="edge">
<title>7&#45;&gt;1</title>
<path fill="none" stroke="#000000" d="M492.5322,-534.375C468.8371,-549.7397 448.9388,-564.4391 439.437,-575.6 379.1334,-646.4329 410.3497,-691.4061 358.437,-768.6 355.4794,-772.9979 352.3378,-777.3685 349.0547,-781.6926"/>
<polygon fill="none" stroke="#000000" points="340.7764,-775.2263 329.7101,-805.0221 356.9419,-788.6306 340.7764,-775.2263"/>
</g>
<!-- 8 -->
<g id="node9" class="node">
<title>8</title>
<polygon fill="#f2f2f2" stroke="#000000" points="802.3802,-397.5 802.3802,-505.5 1108.4938,-505.5 1108.4938,-397.5 802.3802,-397.5"/>
<text text-anchor="middle" x="955.437" y="-488.9" font-family="Times,serif" font-size="14.00" fill="#000000">BurnableToken</text>
<polyline fill="none" stroke="#000000" points="802.3802,-480.7 1108.4938,-480.7 "/>
<text text-anchor="middle" x="955.437" y="-464.1" font-family="Times,serif" font-size="14.00" fill="#000000"> </text>
<polyline fill="none" stroke="#000000" points="802.3802,-455.9 1108.4938,-455.9 "/>
<text text-anchor="start" x="810.3802" y="-439.3" font-family="Times,serif" font-size="14.00" fill="#000000">Public:</text>
<text text-anchor="start" x="810.3802" y="-422.5" font-family="Times,serif" font-size="14.00" fill="#000000"> &#160;&#160;&#160;&lt;&lt;event&gt;&gt; Burn(burner: address, value: uint256)</text>
<text text-anchor="start" x="810.3802" y="-405.7" font-family="Times,serif" font-size="14.00" fill="#000000"> &#160;&#160;&#160;burn(_value: uint256)</text>
</g>
<!-- 8&#45;&gt;5 -->
<g id="edge9" class="edge">
<title>8&#45;&gt;5</title>
<path fill="none" stroke="#000000" d="M880.6809,-505.7474C855.3305,-524.1431 826.0759,-545.3719 797.1271,-566.3788"/>
<polygon fill="none" stroke="#000000" points="790.5395,-558.1858 772.4256,-584.3036 802.8732,-575.1824 790.5395,-558.1858"/>
</g>
<!-- 9 -->
<g id="node10" class="node">
<title>9</title>
<polygon fill="#f2f2f2" stroke="#000000" points="9.7496,-372.3 9.7496,-530.7 475.1244,-530.7 475.1244,-372.3 9.7496,-372.3"/>
<text text-anchor="middle" x="242.437" y="-514.1" font-family="Times,serif" font-size="14.00" fill="#000000">PausableToken</text>
<polyline fill="none" stroke="#000000" points="9.7496,-505.9 475.1244,-505.9 "/>
<text text-anchor="middle" x="242.437" y="-489.3" font-family="Times,serif" font-size="14.00" fill="#000000"> </text>
<polyline fill="none" stroke="#000000" points="9.7496,-481.1 475.1244,-481.1 "/>
<text text-anchor="start" x="17.7496" y="-464.5" font-family="Times,serif" font-size="14.00" fill="#000000">Public:</text>
<text text-anchor="start" x="17.7496" y="-447.7" font-family="Times,serif" font-size="14.00" fill="#000000"> &#160;&#160;&#160;transfer(_to: address, _value: uint256): bool</text>
<text text-anchor="start" x="17.7496" y="-430.9" font-family="Times,serif" font-size="14.00" fill="#000000"> &#160;&#160;&#160;transferFrom(_from: address, _to: address, _value: uint256): bool</text>
<text text-anchor="start" x="17.7496" y="-414.1" font-family="Times,serif" font-size="14.00" fill="#000000"> &#160;&#160;&#160;approve(_spender: address, _value: uint256): bool</text>
<text text-anchor="start" x="17.7496" y="-397.3" font-family="Times,serif" font-size="14.00" fill="#000000"> &#160;&#160;&#160;increaseApproval(_spender: address, _addedValue: uint): (success: bool)</text>
<text text-anchor="start" x="17.7496" y="-380.5" font-family="Times,serif" font-size="14.00" fill="#000000"> &#160;&#160;&#160;decreaseApproval(_spender: address, _subtractedValue: uint): (success: bool)</text>
</g>
<!-- 9&#45;&gt;6 -->
<g id="edge11" class="edge">
<title>9&#45;&gt;6</title>
<path fill="none" stroke="#000000" d="M242.437,-530.83C242.437,-535.7265 242.437,-540.7117 242.437,-545.7424"/>
<polygon fill="none" stroke="#000000" points="231.9371,-545.7766 242.437,-575.7766 252.9371,-545.7766 231.9371,-545.7766"/>
</g>
<!-- 9&#45;&gt;5 -->
<g id="edge10" class="edge">
<title>9&#45;&gt;5</title>
<path fill="none" stroke="#000000" d="M389.5175,-530.83C413.0217,-543.5073 437.627,-556.7785 461.9477,-569.8962"/>
<polygon fill="none" stroke="#000000" points="457.2949,-579.3166 488.6836,-584.3166 467.264,-560.8337 457.2949,-579.3166"/>
</g>
<!-- 10 -->
<g id="node11" class="node">
<title>10</title>
<polygon fill="#f2f2f2" stroke="#000000" points="1164.108,-405.9 1164.108,-497.1 1600.766,-497.1 1600.766,-405.9 1164.108,-405.9"/>
<text text-anchor="middle" x="1382.437" y="-480.5" font-family="Times,serif" font-size="14.00" fill="#000000">TokenRecipient</text>
<polyline fill="none" stroke="#000000" points="1164.108,-472.3 1600.766,-472.3 "/>
<text text-anchor="middle" x="1382.437" y="-455.7" font-family="Times,serif" font-size="14.00" fill="#000000"> </text>
<polyline fill="none" stroke="#000000" points="1164.108,-447.5 1600.766,-447.5 "/>
<text text-anchor="start" x="1172.108" y="-430.9" font-family="Times,serif" font-size="14.00" fill="#000000">Public:</text>
<text text-anchor="start" x="1172.108" y="-414.1" font-family="Times,serif" font-size="14.00" fill="#000000"> &#160;&#160;&#160;tokenFallback(sender: address, _value: uint256, _extraData: bytes): bool</text>
</g>
<!-- 11 -->
<g id="node12" class="node">
<title>11</title>
<polygon fill="#f2f2f2" stroke="#000000" points="384.9162,-.5 384.9162,-326.9 891.9578,-326.9 891.9578,-.5 384.9162,-.5"/>
<text text-anchor="middle" x="638.437" y="-310.3" font-family="Times,serif" font-size="14.00" fill="#000000">FunctionXToken</text>
<polyline fill="none" stroke="#000000" points="384.9162,-302.1 891.9578,-302.1 "/>
<text text-anchor="start" x="392.9162" y="-285.5" font-family="Times,serif" font-size="14.00" fill="#000000">Public:</text>
<text text-anchor="start" x="392.9162" y="-268.7" font-family="Times,serif" font-size="14.00" fill="#000000"> &#160;&#160;name: string</text>
<text text-anchor="start" x="392.9162" y="-251.9" font-family="Times,serif" font-size="14.00" fill="#000000"> &#160;&#160;symbol: string</text>
<text text-anchor="start" x="392.9162" y="-235.1" font-family="Times,serif" font-size="14.00" fill="#000000"> &#160;&#160;decimals: uint8</text>
<text text-anchor="start" x="392.9162" y="-218.3" font-family="Times,serif" font-size="14.00" fill="#000000"> &#160;&#160;stopReceive: mapping(address=&gt;bool)</text>
<polyline fill="none" stroke="#000000" points="384.9162,-210.1 891.9578,-210.1 "/>
<text text-anchor="start" x="392.9162" y="-193.5" font-family="Times,serif" font-size="14.00" fill="#000000">Public:</text>
<text text-anchor="start" x="392.9162" y="-176.7" font-family="Times,serif" font-size="14.00" fill="#000000"> &#160;&#160;&#160;mint(_to: address, _amount: uint256): bool</text>
<text text-anchor="start" x="392.9162" y="-159.9" font-family="Times,serif" font-size="14.00" fill="#000000"> &#160;&#160;&#160;constructor()</text>
<text text-anchor="start" x="392.9162" y="-143.1" font-family="Times,serif" font-size="14.00" fill="#000000"> &#160;&#160;&#160;setStopReceive(stop: bool)</text>
<text text-anchor="start" x="392.9162" y="-126.3" font-family="Times,serif" font-size="14.00" fill="#000000"> &#160;&#160;&#160;getStopReceive(): bool</text>
<text text-anchor="start" x="392.9162" y="-109.5" font-family="Times,serif" font-size="14.00" fill="#000000"> &#160;&#160;&#160;transfer(_to: address, _value: uint256): bool</text>
<text text-anchor="start" x="392.9162" y="-92.7" font-family="Times,serif" font-size="14.00" fill="#000000"> &#160;&#160;&#160;transferFrom(_from: address, _to: address, _value: uint256): bool</text>
<text text-anchor="start" x="392.9162" y="-75.9" font-family="Times,serif" font-size="14.00" fill="#000000"> &#160;&#160;&#160;burn(_value: uint256)</text>
<text text-anchor="start" x="392.9162" y="-59.1" font-family="Times,serif" font-size="14.00" fill="#000000"> &#160;&#160;&#160;pause()</text>
<text text-anchor="start" x="392.9162" y="-42.3" font-family="Times,serif" font-size="14.00" fill="#000000"> &#160;&#160;&#160;unpause()</text>
<text text-anchor="start" x="392.9162" y="-25.5" font-family="Times,serif" font-size="14.00" fill="#000000"> &#160;&#160;&#160;transferAndCall(_recipient: address, _amount: uint256, _data: bytes)</text>
<text text-anchor="start" x="392.9162" y="-8.7" font-family="Times,serif" font-size="14.00" fill="#000000"> &#160;&#160;&#160;transferERCToken(_tokenContractAddress: address, _to: address, _amount: uint256)</text>
</g>
<!-- 11&#45;&gt;3 -->
<g id="edge16" class="edge">
<title>11&#45;&gt;3</title>
<path fill="none" stroke="#000000" stroke-dasharray="5,2" d="M892.0584,-209.6837C978.3754,-238.7705 1065.9686,-286.18 1117.437,-363.4 1163.3608,-432.3011 1108.051,-665.101 1071.9156,-794.9302"/>
<polygon fill="#000000" stroke="#000000" points="1068.4604,-794.2893 1069.1326,-804.8628 1075.2009,-796.178 1068.4604,-794.2893"/>
</g>
<!-- 11&#45;&gt;7 -->
<g id="edge12" class="edge">
<title>11&#45;&gt;7</title>
<path fill="none" stroke="#000000" d="M638.437,-326.9406C638.437,-329.0994 638.437,-331.2522 638.437,-333.3971"/>
<polygon fill="none" stroke="#000000" points="627.9371,-333.628 638.437,-363.628 648.9371,-333.6281 627.9371,-333.628"/>
</g>
<!-- 11&#45;&gt;8 -->
<g id="edge13" class="edge">
<title>11&#45;&gt;8</title>
<path fill="none" stroke="#000000" d="M818.2399,-326.9406C837.4543,-344.3851 856.2434,-361.4435 873.4498,-377.0649"/>
<polygon fill="none" stroke="#000000" points="866.5539,-384.9861 895.8234,-397.3776 880.6698,-369.438 866.5539,-384.9861"/>
</g>
<!-- 11&#45;&gt;9 -->
<g id="edge14" class="edge">
<title>11&#45;&gt;9</title>
<path fill="none" stroke="#000000" d="M413.8252,-326.9406C401.0764,-336.206 388.4775,-345.3625 376.2451,-354.2526"/>
<polygon fill="none" stroke="#000000" points="369.8156,-345.9452 351.7207,-372.0762 382.1616,-362.9328 369.8156,-345.9452"/>
</g>
<!-- 11&#45;&gt;10 -->
<g id="edge15" class="edge">
<title>11&#45;&gt;10</title>
<path fill="none" stroke="#000000" stroke-dasharray="5,2" d="M892.1388,-261.839C1014.2984,-309.0937 1155.4551,-363.697 1254.8495,-402.1456"/>
<polygon fill="#000000" stroke="#000000" points="1253.7466,-405.4717 1264.3359,-405.8152 1256.2721,-398.9431 1253.7466,-405.4717"/>
</g>
</g>
</svg>
