<?xml version="1.0" encoding="UTF-8" standalone="no"?>
<!DOCTYPE svg PUBLIC "-//W3C//DTD SVG 1.1//EN"
 "http://www.w3.org/Graphics/SVG/1.1/DTD/svg11.dtd">
<!-- Generated by graphviz version 2.40.1 (20161225.0304)
 -->
<!-- Title: UmlClassDiagram Pages: 1 -->
<svg width="772pt" height="821pt"
 viewBox="0.00 0.00 771.65 820.80" xmlns="http://www.w3.org/2000/svg" xmlns:xlink="http://www.w3.org/1999/xlink">
<g id="graph0" class="graph" transform="scale(1 1) rotate(0) translate(4 816.8)">
<title>UmlClassDiagram</title>
<polygon fill="#ffffff" stroke="transparent" points="-4,4 -4,-816.8 767.6534,-816.8 767.6534,4 -4,4"/>
<!-- 0 -->
<g id="node1" class="node">
<title>0</title>
<polygon fill="#f2f2f2" stroke="#000000" points="437.5912,-569.9 437.5912,-812.3 692.7476,-812.3 692.7476,-569.9 437.5912,-569.9"/>
<text text-anchor="middle" x="565.1694" y="-795.7" font-family="Times,serif" font-size="14.00" fill="#000000">&lt;&lt;Library&gt;&gt;</text>
<text text-anchor="middle" x="565.1694" y="-778.9" font-family="Times,serif" font-size="14.00" fill="#000000">SafeMath</text>
<polyline fill="none" stroke="#000000" points="437.5912,-770.7 692.7476,-770.7 "/>
<text text-anchor="middle" x="565.1694" y="-754.1" font-family="Times,serif" font-size="14.00" fill="#000000"> </text>
<polyline fill="none" stroke="#000000" points="437.5912,-745.9 692.7476,-745.9 "/>
<text text-anchor="start" x="445.5912" y="-729.3" font-family="Times,serif" font-size="14.00" fill="#000000">Internal:</text>
<text text-anchor="start" x="445.5912" y="-712.5" font-family="Times,serif" font-size="14.00" fill="#000000"> &#160;&#160;&#160;mul(a: uint, b: uint): uint</text>
<text text-anchor="start" x="445.5912" y="-695.7" font-family="Times,serif" font-size="14.00" fill="#000000"> &#160;&#160;&#160;div(a: uint, b: uint): uint</text>
<text text-anchor="start" x="445.5912" y="-678.9" font-family="Times,serif" font-size="14.00" fill="#000000"> &#160;&#160;&#160;sub(a: uint, b: uint): uint</text>
<text text-anchor="start" x="445.5912" y="-662.1" font-family="Times,serif" font-size="14.00" fill="#000000"> &#160;&#160;&#160;add(a: uint, b: uint): uint</text>
<text text-anchor="start" x="445.5912" y="-645.3" font-family="Times,serif" font-size="14.00" fill="#000000"> &#160;&#160;&#160;max64(a: uint64, b: uint64): uint64</text>
<text text-anchor="start" x="445.5912" y="-628.5" font-family="Times,serif" font-size="14.00" fill="#000000"> &#160;&#160;&#160;min64(a: uint64, b: uint64): uint64</text>
<text text-anchor="start" x="445.5912" y="-611.7" font-family="Times,serif" font-size="14.00" fill="#000000"> &#160;&#160;&#160;max256(a: uint256, b: uint256): uint256</text>
<text text-anchor="start" x="445.5912" y="-594.9" font-family="Times,serif" font-size="14.00" fill="#000000"> &#160;&#160;&#160;min256(a: uint256, b: uint256): uint256</text>
<text text-anchor="start" x="445.5912" y="-578.1" font-family="Times,serif" font-size="14.00" fill="#000000"> &#160;&#160;&#160;assert(assertion: bool)</text>
</g>
<!-- 1 -->
<g id="node2" class="node">
<title>1</title>
<polygon fill="#f2f2f2" stroke="#000000" points="39.939,-611.9 39.939,-770.3 402.3998,-770.3 402.3998,-611.9 39.939,-611.9"/>
<text text-anchor="middle" x="221.1694" y="-753.7" font-family="Times,serif" font-size="14.00" fill="#000000">&lt;&lt;Abstract&gt;&gt;</text>
<text text-anchor="middle" x="221.1694" y="-736.9" font-family="Times,serif" font-size="14.00" fill="#000000">ERC20Basic</text>
<polyline fill="none" stroke="#000000" points="39.939,-728.7 402.3998,-728.7 "/>
<text text-anchor="start" x="47.939" y="-712.1" font-family="Times,serif" font-size="14.00" fill="#000000">Public:</text>
<text text-anchor="start" x="47.939" y="-695.3" font-family="Times,serif" font-size="14.00" fill="#000000"> &#160;&#160;totalSupply: uint</text>
<polyline fill="none" stroke="#000000" points="39.939,-687.1 402.3998,-687.1 "/>
<text text-anchor="start" x="47.939" y="-670.5" font-family="Times,serif" font-size="14.00" fill="#000000">Public:</text>
<text text-anchor="start" x="47.939" y="-653.7" font-family="Times,serif" font-size="14.00" fill="#000000"> &#160;&#160;&#160;&lt;&lt;abstract&gt;&gt; balanceOf(who: address): uint</text>
<text text-anchor="start" x="47.939" y="-636.9" font-family="Times,serif" font-size="14.00" fill="#000000"> &#160;&#160;&#160;&lt;&lt;abstract&gt;&gt; transfer(to: address, value: uint)</text>
<text text-anchor="start" x="47.939" y="-620.1" font-family="Times,serif" font-size="14.00" fill="#000000"> &#160;&#160;&#160;&lt;&lt;event&gt;&gt; Transfer(from: address, to: address, value: uint)</text>
</g>
<!-- 2 -->
<g id="node3" class="node">
<title>2</title>
<polygon fill="#f2f2f2" stroke="#000000" points="0,-374.5 0,-532.9 408.3388,-532.9 408.3388,-374.5 0,-374.5"/>
<text text-anchor="middle" x="204.1694" y="-516.3" font-family="Times,serif" font-size="14.00" fill="#000000">&lt;&lt;Abstract&gt;&gt;</text>
<text text-anchor="middle" x="204.1694" y="-499.5" font-family="Times,serif" font-size="14.00" fill="#000000">ERC20</text>
<polyline fill="none" stroke="#000000" points="0,-491.3 408.3388,-491.3 "/>
<text text-anchor="middle" x="204.1694" y="-474.7" font-family="Times,serif" font-size="14.00" fill="#000000"> </text>
<polyline fill="none" stroke="#000000" points="0,-466.5 408.3388,-466.5 "/>
<text text-anchor="start" x="8" y="-449.9" font-family="Times,serif" font-size="14.00" fill="#000000">Public:</text>
<text text-anchor="start" x="8" y="-433.1" font-family="Times,serif" font-size="14.00" fill="#000000"> &#160;&#160;&#160;&lt;&lt;abstract&gt;&gt; allowance(owner: address, spender: address): uint</text>
<text text-anchor="start" x="8" y="-416.3" font-family="Times,serif" font-size="14.00" fill="#000000"> &#160;&#160;&#160;&lt;&lt;abstract&gt;&gt; transferFrom(from: address, to: address, value: uint)</text>
<text text-anchor="start" x="8" y="-399.5" font-family="Times,serif" font-size="14.00" fill="#000000"> &#160;&#160;&#160;&lt;&lt;abstract&gt;&gt; approve(spender: address, value: uint)</text>
<text text-anchor="start" x="8" y="-382.7" font-family="Times,serif" font-size="14.00" fill="#000000"> &#160;&#160;&#160;&lt;&lt;event&gt;&gt; Approval(owner: address, spender: address, value: uint)</text>
</g>
<!-- 2&#45;&gt;1 -->
<g id="edge1" class="edge">
<title>2&#45;&gt;1</title>
<path fill="none" stroke="#000000" d="M209.8538,-533.0808C210.9738,-548.721 212.1673,-565.3879 213.3434,-581.8129"/>
<polygon fill="none" stroke="#000000" points="202.8743,-582.6206 215.4904,-611.794 223.8207,-581.1206 202.8743,-582.6206"/>
</g>
<!-- 3 -->
<g id="node4" class="node">
<title>3</title>
<polygon fill="#f2f2f2" stroke="#000000" points="426.7587,-382.9 426.7587,-524.5 703.5801,-524.5 703.5801,-382.9 426.7587,-382.9"/>
<text text-anchor="middle" x="565.1694" y="-507.9" font-family="Times,serif" font-size="14.00" fill="#000000">BasicToken</text>
<polyline fill="none" stroke="#000000" points="426.7587,-499.7 703.5801,-499.7 "/>
<text text-anchor="start" x="434.7587" y="-483.1" font-family="Times,serif" font-size="14.00" fill="#000000">Public:</text>
<text text-anchor="start" x="434.7587" y="-466.3" font-family="Times,serif" font-size="14.00" fill="#000000"> &#160;&#160;balances: mapping(address=&gt;uint)</text>
<polyline fill="none" stroke="#000000" points="426.7587,-458.1 703.5801,-458.1 "/>
<text text-anchor="start" x="434.7587" y="-441.5" font-family="Times,serif" font-size="14.00" fill="#000000">Public:</text>
<text text-anchor="start" x="434.7587" y="-424.7" font-family="Times,serif" font-size="14.00" fill="#000000"> &#160;&#160;&#160;&lt;&lt;modifier&gt;&gt; onlyPayloadSize(size: uint)</text>
<text text-anchor="start" x="434.7587" y="-407.9" font-family="Times,serif" font-size="14.00" fill="#000000"> &#160;&#160;&#160;transfer(_to: address, _value: uint)</text>
<text text-anchor="start" x="434.7587" y="-391.1" font-family="Times,serif" font-size="14.00" fill="#000000"> &#160;&#160;&#160;balanceOf(_owner: address): (balance: uint)</text>
</g>
<!-- 3&#45;&gt;0 -->
<g id="edge3" class="edge">
<title>3&#45;&gt;0</title>
<path fill="none" stroke="#000000" stroke-dasharray="5,2" d="M565.1694,-524.6063C565.1694,-535.7073 565.1694,-547.4779 565.1694,-559.426"/>
<polygon fill="#000000" stroke="#000000" points="561.6695,-559.4932 565.1694,-569.4933 568.6695,-559.4933 561.6695,-559.4932"/>
</g>
<!-- 3&#45;&gt;1 -->
<g id="edge2" class="edge">
<title>3&#45;&gt;1</title>
<path fill="none" stroke="#000000" d="M462.424,-524.6063C430.5579,-546.5976 394.8846,-571.2163 360.947,-594.6372"/>
<polygon fill="none" stroke="#000000" points="354.7527,-586.1543 336.0256,-611.8359 366.6805,-603.438 354.7527,-586.1543"/>
</g>
<!-- 4 -->
<g id="node5" class="node">
<title>4</title>
<polygon fill="#f2f2f2" stroke="#000000" points="366.6854,-195.9 366.6854,-337.5 763.6534,-337.5 763.6534,-195.9 366.6854,-195.9"/>
<text text-anchor="middle" x="565.1694" y="-320.9" font-family="Times,serif" font-size="14.00" fill="#000000">StandardToken</text>
<polyline fill="none" stroke="#000000" points="366.6854,-312.7 763.6534,-312.7 "/>
<text text-anchor="start" x="374.6854" y="-296.1" font-family="Times,serif" font-size="14.00" fill="#000000">Public:</text>
<text text-anchor="start" x="374.6854" y="-279.3" font-family="Times,serif" font-size="14.00" fill="#000000"> &#160;&#160;allowed: mapping(address=&gt;mapping(address=&gt;uint))</text>
<polyline fill="none" stroke="#000000" points="366.6854,-271.1 763.6534,-271.1 "/>
<text text-anchor="start" x="374.6854" y="-254.5" font-family="Times,serif" font-size="14.00" fill="#000000">Public:</text>
<text text-anchor="start" x="374.6854" y="-237.7" font-family="Times,serif" font-size="14.00" fill="#000000"> &#160;&#160;&#160;transferFrom(_from: address, _to: address, _value: uint)</text>
<text text-anchor="start" x="374.6854" y="-220.9" font-family="Times,serif" font-size="14.00" fill="#000000"> &#160;&#160;&#160;approve(_spender: address, _value: uint)</text>
<text text-anchor="start" x="374.6854" y="-204.1" font-family="Times,serif" font-size="14.00" fill="#000000"> &#160;&#160;&#160;allowance(_owner: address, _spender: address): (remaining: uint)</text>
</g>
<!-- 4&#45;&gt;2 -->
<g id="edge5" class="edge">
<title>4&#45;&gt;2</title>
<path fill="none" stroke="#000000" d="M428.4334,-337.53C413.9027,-345.057 398.9693,-352.7926 384.0416,-360.5252"/>
<polygon fill="none" stroke="#000000" points="379.0748,-351.2729 357.2662,-374.395 388.734,-369.9196 379.0748,-351.2729"/>
</g>
<!-- 4&#45;&gt;3 -->
<g id="edge4" class="edge">
<title>4&#45;&gt;3</title>
<path fill="none" stroke="#000000" d="M565.1694,-337.6633C565.1694,-342.6268 565.1694,-347.6804 565.1694,-352.7635"/>
<polygon fill="none" stroke="#000000" points="554.6695,-352.7851 565.1694,-382.7851 575.6695,-352.7852 554.6695,-352.7851"/>
</g>
<!-- 5 -->
<g id="node6" class="node">
<title>5</title>
<polygon fill="#f2f2f2" stroke="#000000" points="482.1266,-.5 482.1266,-158.9 648.2122,-158.9 648.2122,-.5 482.1266,-.5"/>
<text text-anchor="middle" x="565.1694" y="-142.3" font-family="Times,serif" font-size="14.00" fill="#000000">MetalToken</text>
<polyline fill="none" stroke="#000000" points="482.1266,-134.1 648.2122,-134.1 "/>
<text text-anchor="start" x="490.1266" y="-117.5" font-family="Times,serif" font-size="14.00" fill="#000000">Public:</text>
<text text-anchor="start" x="490.1266" y="-100.7" font-family="Times,serif" font-size="14.00" fill="#000000"> &#160;&#160;name: string</text>
<text text-anchor="start" x="490.1266" y="-83.9" font-family="Times,serif" font-size="14.00" fill="#000000"> &#160;&#160;symbol: string</text>
<text text-anchor="start" x="490.1266" y="-67.1" font-family="Times,serif" font-size="14.00" fill="#000000"> &#160;&#160;decimals: uint</text>
<text text-anchor="start" x="490.1266" y="-50.3" font-family="Times,serif" font-size="14.00" fill="#000000"> &#160;&#160;INITIAL_SUPPLY: uint</text>
<polyline fill="none" stroke="#000000" points="482.1266,-42.1 648.2122,-42.1 "/>
<text text-anchor="start" x="490.1266" y="-25.5" font-family="Times,serif" font-size="14.00" fill="#000000">Public:</text>
<text text-anchor="start" x="490.1266" y="-8.7" font-family="Times,serif" font-size="14.00" fill="#000000"> &#160;&#160;&#160;constructor()</text>
</g>
<!-- 5&#45;&gt;4 -->
<g id="edge6" class="edge">
<title>5&#45;&gt;4</title>
<path fill="none" stroke="#000000" d="M565.1694,-159.0048C565.1694,-161.2049 565.1694,-163.4158 565.1694,-165.6323"/>
<polygon fill="none" stroke="#000000" points="554.6695,-165.8679 565.1694,-195.8679 575.6695,-165.868 554.6695,-165.8679"/>
</g>
</g>
</svg>
