<?xml version="1.0" encoding="UTF-8" standalone="no"?>
<!DOCTYPE svg PUBLIC "-//W3C//DTD SVG 1.1//EN"
 "http://www.w3.org/Graphics/SVG/1.1/DTD/svg11.dtd">
<!-- Generated by graphviz version 2.40.1 (20161225.0304)
 -->
<!-- Title: UmlClassDiagram Pages: 1 -->
<svg width="668pt" height="413pt"
 viewBox="0.00 0.00 668.08 413.20" xmlns="http://www.w3.org/2000/svg" xmlns:xlink="http://www.w3.org/1999/xlink">
<g id="graph0" class="graph" transform="scale(1 1) rotate(0) translate(4 409.2)">
<title>UmlClassDiagram</title>
<polygon fill="#ffffff" stroke="transparent" points="-4,4 -4,-409.2 664.0754,-409.2 664.0754,4 -4,4"/>
<!-- 0 -->
<g id="node1" class="node">
<title>0</title>
<polygon fill="#f2f2f2" stroke="#000000" points="0,-221.1 0,-345.9 185.5862,-345.9 185.5862,-221.1 0,-221.1"/>
<text text-anchor="middle" x="92.7931" y="-329.3" font-family="Times,serif" font-size="14.00" fill="#000000">owned</text>
<polyline fill="none" stroke="#000000" points="0,-321.1 185.5862,-321.1 "/>
<text text-anchor="start" x="8" y="-304.5" font-family="Times,serif" font-size="14.00" fill="#000000">Public:</text>
<text text-anchor="start" x="8" y="-287.7" font-family="Times,serif" font-size="14.00" fill="#000000"> &#160;&#160;owner: address</text>
<polyline fill="none" stroke="#000000" points="0,-279.5 185.5862,-279.5 "/>
<text text-anchor="start" x="8" y="-262.9" font-family="Times,serif" font-size="14.00" fill="#000000">Public:</text>
<text text-anchor="start" x="8" y="-246.1" font-family="Times,serif" font-size="14.00" fill="#000000"> &#160;&#160;&#160;&lt;&lt;modifier&gt;&gt; onlyOwner()</text>
<text text-anchor="start" x="8" y="-229.3" font-family="Times,serif" font-size="14.00" fill="#000000"> &#160;&#160;&#160;constructor()</text>
</g>
<!-- 1 -->
<g id="node2" class="node">
<title>1</title>
<polygon fill="#f2f2f2" stroke="#000000" points="203.5108,-162.3 203.5108,-404.7 660.0754,-404.7 660.0754,-162.3 203.5108,-162.3"/>
<text text-anchor="middle" x="431.7931" y="-388.1" font-family="Times,serif" font-size="14.00" fill="#000000">TokenERC20</text>
<polyline fill="none" stroke="#000000" points="203.5108,-379.9 660.0754,-379.9 "/>
<text text-anchor="start" x="211.5108" y="-363.3" font-family="Times,serif" font-size="14.00" fill="#000000">Public:</text>
<text text-anchor="start" x="211.5108" y="-346.5" font-family="Times,serif" font-size="14.00" fill="#000000"> &#160;&#160;name: string</text>
<text text-anchor="start" x="211.5108" y="-329.7" font-family="Times,serif" font-size="14.00" fill="#000000"> &#160;&#160;symbol: string</text>
<text text-anchor="start" x="211.5108" y="-312.9" font-family="Times,serif" font-size="14.00" fill="#000000"> &#160;&#160;decimals: uint8</text>
<text text-anchor="start" x="211.5108" y="-296.1" font-family="Times,serif" font-size="14.00" fill="#000000"> &#160;&#160;totalSupply: uint256</text>
<text text-anchor="start" x="211.5108" y="-279.3" font-family="Times,serif" font-size="14.00" fill="#000000"> &#160;&#160;balanceOf: mapping(address=&gt;uint256)</text>
<polyline fill="none" stroke="#000000" points="203.5108,-271.1 660.0754,-271.1 "/>
<text text-anchor="start" x="211.5108" y="-254.5" font-family="Times,serif" font-size="14.00" fill="#000000">Internal:</text>
<text text-anchor="start" x="211.5108" y="-237.7" font-family="Times,serif" font-size="14.00" fill="#000000"> &#160;&#160;&#160;_transfer(_from: address, _to: address, _value: uint)</text>
<text text-anchor="start" x="211.5108" y="-220.9" font-family="Times,serif" font-size="14.00" fill="#000000">Public:</text>
<text text-anchor="start" x="211.5108" y="-204.1" font-family="Times,serif" font-size="14.00" fill="#000000"> &#160;&#160;&#160;&lt;&lt;event&gt;&gt; Transfer(from: address, to: address, value: uint256)</text>
<text text-anchor="start" x="211.5108" y="-187.3" font-family="Times,serif" font-size="14.00" fill="#000000"> &#160;&#160;&#160;constructor(initialSupply: uint256, tokenName: string, tokenSymbol: string)</text>
<text text-anchor="start" x="211.5108" y="-170.5" font-family="Times,serif" font-size="14.00" fill="#000000"> &#160;&#160;&#160;transfer(_to: address, _value: uint256)</text>
</g>
<!-- 2 -->
<g id="node3" class="node">
<title>2</title>
<polygon fill="#f2f2f2" stroke="#000000" points="101.5928,-.5 101.5928,-125.3 421.9934,-125.3 421.9934,-.5 101.5928,-.5"/>
<text text-anchor="middle" x="261.7931" y="-108.7" font-family="Times,serif" font-size="14.00" fill="#000000">AllSportsCoin</text>
<polyline fill="none" stroke="#000000" points="101.5928,-100.5 421.9934,-100.5 "/>
<text text-anchor="middle" x="261.7931" y="-83.9" font-family="Times,serif" font-size="14.00" fill="#000000"> </text>
<polyline fill="none" stroke="#000000" points="101.5928,-75.7 421.9934,-75.7 "/>
<text text-anchor="start" x="109.5928" y="-59.1" font-family="Times,serif" font-size="14.00" fill="#000000">Internal:</text>
<text text-anchor="start" x="109.5928" y="-42.3" font-family="Times,serif" font-size="14.00" fill="#000000"> &#160;&#160;&#160;_transfer(_from: address, _to: address, _value: uint)</text>
<text text-anchor="start" x="109.5928" y="-25.5" font-family="Times,serif" font-size="14.00" fill="#000000">Public:</text>
<text text-anchor="start" x="109.5928" y="-8.7" font-family="Times,serif" font-size="14.00" fill="#000000"> &#160;&#160;&#160;constructor()</text>
</g>
<!-- 2&#45;&gt;0 -->
<g id="edge1" class="edge">
<title>2&#45;&gt;0</title>
<path fill="none" stroke="#000000" d="M213.8165,-125.525C196.8687,-147.6475 177.4935,-172.9384 159.2878,-196.7027"/>
<polygon fill="none" stroke="#000000" points="150.7988,-190.518 140.8896,-220.7184 167.4692,-203.2891 150.7988,-190.518"/>
</g>
<!-- 2&#45;&gt;1 -->
<g id="edge2" class="edge">
<title>2&#45;&gt;1</title>
<path fill="none" stroke="#000000" d="M310.0536,-125.525C313.2638,-129.6908 316.5606,-133.9689 319.9198,-138.328"/>
<polygon fill="none" stroke="#000000" points="311.7135,-144.8808 338.3426,-162.2343 328.3474,-132.0623 311.7135,-144.8808"/>
</g>
</g>
</svg>
