<?xml version="1.0" encoding="UTF-8" standalone="no"?>
<!DOCTYPE svg PUBLIC "-//W3C//DTD SVG 1.1//EN"
 "http://www.w3.org/Graphics/SVG/1.1/DTD/svg11.dtd">
<!-- Generated by graphviz version 2.40.1 (20161225.0304)
 -->
<!-- Title: UmlClassDiagram Pages: 1 -->
<svg width="1525pt" height="1140pt"
 viewBox="0.00 0.00 1524.53 1140.00" xmlns="http://www.w3.org/2000/svg" xmlns:xlink="http://www.w3.org/1999/xlink">
<g id="graph0" class="graph" transform="scale(1 1) rotate(0) translate(4 1136)">
<title>UmlClassDiagram</title>
<polygon fill="#ffffff" stroke="transparent" points="-4,4 -4,-1136 1520.5258,-1136 1520.5258,4 -4,4"/>
<!-- 0 -->
<g id="node1" class="node">
<title>0</title>
<polygon fill="#f2f2f2" stroke="#000000" points="92.1137,-676.9 92.1137,-835.3 363.5913,-835.3 363.5913,-676.9 92.1137,-676.9"/>
<text text-anchor="middle" x="227.8525" y="-818.7" font-family="Times,serif" font-size="14.00" fill="#000000">SafeMath</text>
<polyline fill="none" stroke="#000000" points="92.1137,-810.5 363.5913,-810.5 "/>
<text text-anchor="middle" x="227.8525" y="-793.9" font-family="Times,serif" font-size="14.00" fill="#000000"> </text>
<polyline fill="none" stroke="#000000" points="92.1137,-785.7 363.5913,-785.7 "/>
<text text-anchor="start" x="100.1137" y="-769.1" font-family="Times,serif" font-size="14.00" fill="#000000">Internal:</text>
<text text-anchor="start" x="100.1137" y="-752.3" font-family="Times,serif" font-size="14.00" fill="#000000"> &#160;&#160;&#160;safeAdd(_x: uint256, _y: uint256): uint256</text>
<text text-anchor="start" x="100.1137" y="-735.5" font-family="Times,serif" font-size="14.00" fill="#000000"> &#160;&#160;&#160;safeSub(_x: uint256, _y: uint256): uint256</text>
<text text-anchor="start" x="100.1137" y="-718.7" font-family="Times,serif" font-size="14.00" fill="#000000"> &#160;&#160;&#160;safeMul(_x: uint256, _y: uint256): uint256</text>
<text text-anchor="start" x="100.1137" y="-701.9" font-family="Times,serif" font-size="14.00" fill="#000000">Public:</text>
<text text-anchor="start" x="100.1137" y="-685.1" font-family="Times,serif" font-size="14.00" fill="#000000"> &#160;&#160;&#160;constructor()</text>
</g>
<!-- 1 -->
<g id="node2" class="node">
<title>1</title>
<polygon fill="#f2f2f2" stroke="#000000" points="950.9131,-939.5 950.9131,-1081.1 1290.7919,-1081.1 1290.7919,-939.5 950.9131,-939.5"/>
<text text-anchor="middle" x="1120.8525" y="-1064.5" font-family="Times,serif" font-size="14.00" fill="#000000">&lt;&lt;Abstract&gt;&gt;</text>
<text text-anchor="middle" x="1120.8525" y="-1047.7" font-family="Times,serif" font-size="14.00" fill="#000000">IOwned</text>
<polyline fill="none" stroke="#000000" points="950.9131,-1039.5 1290.7919,-1039.5 "/>
<text text-anchor="middle" x="1120.8525" y="-1022.9" font-family="Times,serif" font-size="14.00" fill="#000000"> </text>
<polyline fill="none" stroke="#000000" points="950.9131,-1014.7 1290.7919,-1014.7 "/>
<text text-anchor="start" x="958.9131" y="-998.1" font-family="Times,serif" font-size="14.00" fill="#000000">Public:</text>
<text text-anchor="start" x="958.9131" y="-981.3" font-family="Times,serif" font-size="14.00" fill="#000000"> &#160;&#160;&#160;&lt;&lt;abstract&gt;&gt; transferOwnership(_newOwner: address)</text>
<text text-anchor="start" x="958.9131" y="-964.5" font-family="Times,serif" font-size="14.00" fill="#000000"> &#160;&#160;&#160;&lt;&lt;abstract&gt;&gt; acceptOwnership()</text>
<text text-anchor="start" x="958.9131" y="-947.7" font-family="Times,serif" font-size="14.00" fill="#000000"> &#160;&#160;&#160;owner(): (owner: address)</text>
</g>
<!-- 2 -->
<g id="node3" class="node">
<title>2</title>
<polygon fill="#f2f2f2" stroke="#000000" points="1089.1792,-660.1 1089.1792,-852.1 1516.5258,-852.1 1516.5258,-660.1 1089.1792,-660.1"/>
<text text-anchor="middle" x="1302.8525" y="-835.5" font-family="Times,serif" font-size="14.00" fill="#000000">Owned</text>
<polyline fill="none" stroke="#000000" points="1089.1792,-827.3 1516.5258,-827.3 "/>
<text text-anchor="start" x="1097.1792" y="-810.7" font-family="Times,serif" font-size="14.00" fill="#000000">Public:</text>
<text text-anchor="start" x="1097.1792" y="-793.9" font-family="Times,serif" font-size="14.00" fill="#000000"> &#160;&#160;owner: address</text>
<text text-anchor="start" x="1097.1792" y="-777.1" font-family="Times,serif" font-size="14.00" fill="#000000"> &#160;&#160;newOwner: address</text>
<polyline fill="none" stroke="#000000" points="1089.1792,-768.9 1516.5258,-768.9 "/>
<text text-anchor="start" x="1097.1792" y="-752.3" font-family="Times,serif" font-size="14.00" fill="#000000">Public:</text>
<text text-anchor="start" x="1097.1792" y="-735.5" font-family="Times,serif" font-size="14.00" fill="#000000"> &#160;&#160;&#160;&lt;&lt;event&gt;&gt; OwnerUpdate(_prevOwner: address, _newOwner: address)</text>
<text text-anchor="start" x="1097.1792" y="-718.7" font-family="Times,serif" font-size="14.00" fill="#000000"> &#160;&#160;&#160;&lt;&lt;modifier&gt;&gt; ownerOnly()</text>
<text text-anchor="start" x="1097.1792" y="-701.9" font-family="Times,serif" font-size="14.00" fill="#000000"> &#160;&#160;&#160;constructor()</text>
<text text-anchor="start" x="1097.1792" y="-685.1" font-family="Times,serif" font-size="14.00" fill="#000000"> &#160;&#160;&#160;transferOwnership(_newOwner: address)</text>
<text text-anchor="start" x="1097.1792" y="-668.3" font-family="Times,serif" font-size="14.00" fill="#000000"> &#160;&#160;&#160;acceptOwnership()</text>
</g>
<!-- 2&#45;&gt;1 -->
<g id="edge1" class="edge">
<title>2&#45;&gt;1</title>
<path fill="none" stroke="#000000" d="M1234.0461,-852.2021C1219.3848,-872.6797 1203.9049,-894.3005 1189.2586,-914.757"/>
<polygon fill="none" stroke="#000000" points="1180.5258,-908.9174 1171.5988,-939.4225 1197.6006,-921.1425 1180.5258,-908.9174"/>
</g>
<!-- 3 -->
<g id="node4" class="node">
<title>3</title>
<polygon fill="#f2f2f2" stroke="#000000" points="513.0583,-702.1 513.0583,-810.1 1032.6467,-810.1 1032.6467,-702.1 513.0583,-702.1"/>
<text text-anchor="middle" x="772.8525" y="-793.5" font-family="Times,serif" font-size="14.00" fill="#000000">&lt;&lt;Abstract&gt;&gt;</text>
<text text-anchor="middle" x="772.8525" y="-776.7" font-family="Times,serif" font-size="14.00" fill="#000000">ITokenHolder</text>
<polyline fill="none" stroke="#000000" points="513.0583,-768.5 1032.6467,-768.5 "/>
<text text-anchor="middle" x="772.8525" y="-751.9" font-family="Times,serif" font-size="14.00" fill="#000000"> </text>
<polyline fill="none" stroke="#000000" points="513.0583,-743.7 1032.6467,-743.7 "/>
<text text-anchor="start" x="521.0583" y="-727.1" font-family="Times,serif" font-size="14.00" fill="#000000">Public:</text>
<text text-anchor="start" x="521.0583" y="-710.3" font-family="Times,serif" font-size="14.00" fill="#000000"> &#160;&#160;&#160;&lt;&lt;abstract&gt;&gt; withdrawTokens(_token: IERC20Token, _to: address, _amount: uint256)</text>
</g>
<!-- 3&#45;&gt;1 -->
<g id="edge2" class="edge">
<title>3&#45;&gt;1</title>
<path fill="none" stroke="#000000" d="M847.0804,-810.3205C891.4249,-842.7124 948.8277,-884.6428 999.6091,-921.7366"/>
<polygon fill="none" stroke="#000000" points="993.5013,-930.278 1023.9201,-939.4948 1005.8882,-913.3202 993.5013,-930.278"/>
</g>
<!-- 5 -->
<g id="node6" class="node">
<title>5</title>
<polygon fill="#f2f2f2" stroke="#000000" points="217.6957,-889.1 217.6957,-1131.5 752.0093,-1131.5 752.0093,-889.1 217.6957,-889.1"/>
<text text-anchor="middle" x="484.8525" y="-1114.9" font-family="Times,serif" font-size="14.00" fill="#000000">&lt;&lt;Abstract&gt;&gt;</text>
<text text-anchor="middle" x="484.8525" y="-1098.1" font-family="Times,serif" font-size="14.00" fill="#000000">IERC20Token</text>
<polyline fill="none" stroke="#000000" points="217.6957,-1089.9 752.0093,-1089.9 "/>
<text text-anchor="middle" x="484.8525" y="-1073.3" font-family="Times,serif" font-size="14.00" fill="#000000"> </text>
<polyline fill="none" stroke="#000000" points="217.6957,-1065.1 752.0093,-1065.1 "/>
<text text-anchor="start" x="225.6957" y="-1048.5" font-family="Times,serif" font-size="14.00" fill="#000000">Public:</text>
<text text-anchor="start" x="225.6957" y="-1031.7" font-family="Times,serif" font-size="14.00" fill="#000000"> &#160;&#160;&#160;&lt;&lt;abstract&gt;&gt; transfer(_to: address, _value: uint256): (success: bool)</text>
<text text-anchor="start" x="225.6957" y="-1014.9" font-family="Times,serif" font-size="14.00" fill="#000000"> &#160;&#160;&#160;&lt;&lt;abstract&gt;&gt; transferFrom(_from: address, _to: address, _value: uint256): (success: bool)</text>
<text text-anchor="start" x="225.6957" y="-998.1" font-family="Times,serif" font-size="14.00" fill="#000000"> &#160;&#160;&#160;&lt;&lt;abstract&gt;&gt; approve(_spender: address, _value: uint256): (success: bool)</text>
<text text-anchor="start" x="225.6957" y="-981.3" font-family="Times,serif" font-size="14.00" fill="#000000"> &#160;&#160;&#160;name(): (name: string)</text>
<text text-anchor="start" x="225.6957" y="-964.5" font-family="Times,serif" font-size="14.00" fill="#000000"> &#160;&#160;&#160;symbol(): (symbol: string)</text>
<text text-anchor="start" x="225.6957" y="-947.7" font-family="Times,serif" font-size="14.00" fill="#000000"> &#160;&#160;&#160;decimals(): (decimals: uint8)</text>
<text text-anchor="start" x="225.6957" y="-930.9" font-family="Times,serif" font-size="14.00" fill="#000000"> &#160;&#160;&#160;totalSupply(): (totalSupply: uint256)</text>
<text text-anchor="start" x="225.6957" y="-914.1" font-family="Times,serif" font-size="14.00" fill="#000000"> &#160;&#160;&#160;balanceOf(_owner: address): (balance: uint256)</text>
<text text-anchor="start" x="225.6957" y="-897.3" font-family="Times,serif" font-size="14.00" fill="#000000"> &#160;&#160;&#160;allowance(_owner: address, _spender: address): (remaining: uint256)</text>
</g>
<!-- 3&#45;&gt;5 -->
<g id="edge3" class="edge">
<title>3&#45;&gt;5</title>
<path fill="none" stroke="#000000" stroke-dasharray="5,2" d="M711.4225,-810.3205C687.3862,-831.5359 658.7141,-856.843 629.9821,-882.203"/>
<polygon fill="#000000" stroke="#000000" points="627.4625,-879.7585 622.2813,-889 632.0947,-885.0066 627.4625,-879.7585"/>
</g>
<!-- 4 -->
<g id="node5" class="node">
<title>4</title>
<polygon fill="#f2f2f2" stroke="#000000" points="840.3626,-397.5 840.3626,-539.1 1281.3424,-539.1 1281.3424,-397.5 840.3626,-397.5"/>
<text text-anchor="middle" x="1060.8525" y="-522.5" font-family="Times,serif" font-size="14.00" fill="#000000">TokenHolder</text>
<polyline fill="none" stroke="#000000" points="840.3626,-514.3 1281.3424,-514.3 "/>
<text text-anchor="middle" x="1060.8525" y="-497.7" font-family="Times,serif" font-size="14.00" fill="#000000"> </text>
<polyline fill="none" stroke="#000000" points="840.3626,-489.5 1281.3424,-489.5 "/>
<text text-anchor="start" x="848.3626" y="-472.9" font-family="Times,serif" font-size="14.00" fill="#000000">Public:</text>
<text text-anchor="start" x="848.3626" y="-456.1" font-family="Times,serif" font-size="14.00" fill="#000000"> &#160;&#160;&#160;&lt;&lt;modifier&gt;&gt; validAddress(_address: address)</text>
<text text-anchor="start" x="848.3626" y="-439.3" font-family="Times,serif" font-size="14.00" fill="#000000"> &#160;&#160;&#160;&lt;&lt;modifier&gt;&gt; notThis(_address: address)</text>
<text text-anchor="start" x="848.3626" y="-422.5" font-family="Times,serif" font-size="14.00" fill="#000000"> &#160;&#160;&#160;constructor()</text>
<text text-anchor="start" x="848.3626" y="-405.7" font-family="Times,serif" font-size="14.00" fill="#000000"> &#160;&#160;&#160;withdrawTokens(_token: IERC20Token, _to: address, _amount: uint256)</text>
</g>
<!-- 4&#45;&gt;2 -->
<g id="edge5" class="edge">
<title>4&#45;&gt;2</title>
<path fill="none" stroke="#000000" d="M1120.6727,-539.4416C1145.4018,-568.8508 1174.7574,-603.7621 1202.6019,-636.8763"/>
<polygon fill="none" stroke="#000000" points="1194.6961,-643.7894 1222.04,-659.9933 1210.7691,-630.2743 1194.6961,-643.7894"/>
</g>
<!-- 4&#45;&gt;3 -->
<g id="edge4" class="edge">
<title>4&#45;&gt;3</title>
<path fill="none" stroke="#000000" d="M989.6615,-539.4416C946.7255,-582.3478 892.0701,-636.9651 848.3777,-680.6273"/>
<polygon fill="none" stroke="#000000" points="840.7635,-673.392 826.965,-702.0251 855.6076,-688.2464 840.7635,-673.392"/>
</g>
<!-- 4&#45;&gt;5 -->
<g id="edge6" class="edge">
<title>4&#45;&gt;5</title>
<path fill="none" stroke="#000000" stroke-dasharray="5,2" d="M1066.8615,-539.3997C1073.5514,-637.0434 1079.0274,-805.8834 1041.8525,-852.6 1036.8775,-858.8519 899.3374,-897.8232 762.1942,-935.4562"/>
<polygon fill="#000000" stroke="#000000" points="761.0409,-932.1431 752.3224,-938.163 762.8919,-938.894 761.0409,-932.1431"/>
</g>
<!-- 6 -->
<g id="node7" class="node">
<title>6</title>
<polygon fill="#f2f2f2" stroke="#000000" points="0,-313.5 0,-623.1 455.705,-623.1 455.705,-313.5 0,-313.5"/>
<text text-anchor="middle" x="227.8525" y="-606.5" font-family="Times,serif" font-size="14.00" fill="#000000">ERC20Token</text>
<polyline fill="none" stroke="#000000" points="0,-598.3 455.705,-598.3 "/>
<text text-anchor="start" x="8" y="-581.7" font-family="Times,serif" font-size="14.00" fill="#000000">Public:</text>
<text text-anchor="start" x="8" y="-564.9" font-family="Times,serif" font-size="14.00" fill="#000000"> &#160;&#160;standard: string</text>
<text text-anchor="start" x="8" y="-548.1" font-family="Times,serif" font-size="14.00" fill="#000000"> &#160;&#160;name: string</text>
<text text-anchor="start" x="8" y="-531.3" font-family="Times,serif" font-size="14.00" fill="#000000"> &#160;&#160;symbol: string</text>
<text text-anchor="start" x="8" y="-514.5" font-family="Times,serif" font-size="14.00" fill="#000000"> &#160;&#160;decimals: uint8</text>
<text text-anchor="start" x="8" y="-497.7" font-family="Times,serif" font-size="14.00" fill="#000000"> &#160;&#160;totalSupply: uint256</text>
<text text-anchor="start" x="8" y="-480.9" font-family="Times,serif" font-size="14.00" fill="#000000"> &#160;&#160;balanceOf: mapping(address=&gt;uint256)</text>
<text text-anchor="start" x="8" y="-464.1" font-family="Times,serif" font-size="14.00" fill="#000000"> &#160;&#160;allowance: mapping(address=&gt;mapping(address=&gt;uint256))</text>
<polyline fill="none" stroke="#000000" points="0,-455.9 455.705,-455.9 "/>
<text text-anchor="start" x="8" y="-439.3" font-family="Times,serif" font-size="14.00" fill="#000000">Public:</text>
<text text-anchor="start" x="8" y="-422.5" font-family="Times,serif" font-size="14.00" fill="#000000"> &#160;&#160;&#160;&lt;&lt;event&gt;&gt; Transfer(_from: address, _to: address, _value: uint256)</text>
<text text-anchor="start" x="8" y="-405.7" font-family="Times,serif" font-size="14.00" fill="#000000"> &#160;&#160;&#160;&lt;&lt;event&gt;&gt; Approval(_owner: address, _spender: address, _value: uint256)</text>
<text text-anchor="start" x="8" y="-388.9" font-family="Times,serif" font-size="14.00" fill="#000000"> &#160;&#160;&#160;&lt;&lt;modifier&gt;&gt; validAddress(_address: address)</text>
<text text-anchor="start" x="8" y="-372.1" font-family="Times,serif" font-size="14.00" fill="#000000"> &#160;&#160;&#160;constructor(_name: string, _symbol: string, _decimals: uint8)</text>
<text text-anchor="start" x="8" y="-355.3" font-family="Times,serif" font-size="14.00" fill="#000000"> &#160;&#160;&#160;transfer(_to: address, _value: uint256): (success: bool)</text>
<text text-anchor="start" x="8" y="-338.5" font-family="Times,serif" font-size="14.00" fill="#000000"> &#160;&#160;&#160;transferFrom(_from: address, _to: address, _value: uint256): (success: bool)</text>
<text text-anchor="start" x="8" y="-321.7" font-family="Times,serif" font-size="14.00" fill="#000000"> &#160;&#160;&#160;approve(_spender: address, _value: uint256): (success: bool)</text>
</g>
<!-- 6&#45;&gt;0 -->
<g id="edge8" class="edge">
<title>6&#45;&gt;0</title>
<path fill="none" stroke="#000000" d="M227.8525,-623.1517C227.8525,-630.9537 227.8525,-638.7125 227.8525,-646.3356"/>
<polygon fill="none" stroke="#000000" points="217.3526,-646.6732 227.8525,-676.6732 238.3526,-646.6732 217.3526,-646.6732"/>
</g>
<!-- 6&#45;&gt;5 -->
<g id="edge7" class="edge">
<title>6&#45;&gt;5</title>
<path fill="none" stroke="#000000" d="M351.9929,-623.3721C359.5112,-635.3421 366.5639,-647.4868 372.8525,-659.6 405.4042,-722.3014 430.7259,-796.2374 448.9925,-860.0171"/>
<polygon fill="none" stroke="#000000" points="438.8923,-862.8879 457.0151,-888.9994 459.1312,-857.2855 438.8923,-862.8879"/>
</g>
<!-- 7 -->
<g id="node8" class="node">
<title>7</title>
<polygon fill="#f2f2f2" stroke="#000000" points="473.4079,-397.5 473.4079,-539.1 822.2971,-539.1 822.2971,-397.5 473.4079,-397.5"/>
<text text-anchor="middle" x="647.8525" y="-522.5" font-family="Times,serif" font-size="14.00" fill="#000000">&lt;&lt;Abstract&gt;&gt;</text>
<text text-anchor="middle" x="647.8525" y="-505.7" font-family="Times,serif" font-size="14.00" fill="#000000">ISmartToken</text>
<polyline fill="none" stroke="#000000" points="473.4079,-497.5 822.2971,-497.5 "/>
<text text-anchor="middle" x="647.8525" y="-480.9" font-family="Times,serif" font-size="14.00" fill="#000000"> </text>
<polyline fill="none" stroke="#000000" points="473.4079,-472.7 822.2971,-472.7 "/>
<text text-anchor="start" x="481.4079" y="-456.1" font-family="Times,serif" font-size="14.00" fill="#000000">Public:</text>
<text text-anchor="start" x="481.4079" y="-439.3" font-family="Times,serif" font-size="14.00" fill="#000000"> &#160;&#160;&#160;&lt;&lt;abstract&gt;&gt; disableTransfers(_disable: bool)</text>
<text text-anchor="start" x="481.4079" y="-422.5" font-family="Times,serif" font-size="14.00" fill="#000000"> &#160;&#160;&#160;&lt;&lt;abstract&gt;&gt; issue(_to: address, _amount: uint256)</text>
<text text-anchor="start" x="481.4079" y="-405.7" font-family="Times,serif" font-size="14.00" fill="#000000"> &#160;&#160;&#160;&lt;&lt;abstract&gt;&gt; destroy(_from: address, _amount: uint256)</text>
</g>
<!-- 7&#45;&gt;3 -->
<g id="edge9" class="edge">
<title>7&#45;&gt;3</title>
<path fill="none" stroke="#000000" d="M678.7514,-539.4416C696.4913,-580.2859 718.8406,-631.7429 737.3067,-674.2593"/>
<polygon fill="none" stroke="#000000" points="727.784,-678.6914 749.3662,-702.0251 747.0457,-670.3255 727.784,-678.6914"/>
</g>
<!-- 7&#45;&gt;5 -->
<g id="edge10" class="edge">
<title>7&#45;&gt;5</title>
<path fill="none" stroke="#000000" d="M578.3189,-539.3766C549.8888,-573.025 519.9459,-615.4693 503.8525,-659.6 481.0078,-722.2437 474.2132,-795.362 473.9251,-858.5753"/>
<polygon fill="none" stroke="#000000" points="463.4273,-858.8424 474.2645,-888.7223 484.426,-858.6059 463.4273,-858.8424"/>
</g>
<!-- 8 -->
<g id="node9" class="node">
<title>8</title>
<polygon fill="#f2f2f2" stroke="#000000" points="833,-.5 833,-276.5 1288.705,-276.5 1288.705,-.5 833,-.5"/>
<text text-anchor="middle" x="1060.8525" y="-259.9" font-family="Times,serif" font-size="14.00" fill="#000000">SmartToken</text>
<polyline fill="none" stroke="#000000" points="833,-251.7 1288.705,-251.7 "/>
<text text-anchor="start" x="841" y="-235.1" font-family="Times,serif" font-size="14.00" fill="#000000">Public:</text>
<text text-anchor="start" x="841" y="-218.3" font-family="Times,serif" font-size="14.00" fill="#000000"> &#160;&#160;version: string</text>
<text text-anchor="start" x="841" y="-201.5" font-family="Times,serif" font-size="14.00" fill="#000000"> &#160;&#160;transfersEnabled: bool</text>
<polyline fill="none" stroke="#000000" points="833,-193.3 1288.705,-193.3 "/>
<text text-anchor="start" x="841" y="-176.7" font-family="Times,serif" font-size="14.00" fill="#000000">Public:</text>
<text text-anchor="start" x="841" y="-159.9" font-family="Times,serif" font-size="14.00" fill="#000000"> &#160;&#160;&#160;&lt;&lt;event&gt;&gt; NewSmartToken(_token: address)</text>
<text text-anchor="start" x="841" y="-143.1" font-family="Times,serif" font-size="14.00" fill="#000000"> &#160;&#160;&#160;&lt;&lt;event&gt;&gt; Issuance(_amount: uint256)</text>
<text text-anchor="start" x="841" y="-126.3" font-family="Times,serif" font-size="14.00" fill="#000000"> &#160;&#160;&#160;&lt;&lt;event&gt;&gt; Destruction(_amount: uint256)</text>
<text text-anchor="start" x="841" y="-109.5" font-family="Times,serif" font-size="14.00" fill="#000000"> &#160;&#160;&#160;&lt;&lt;modifier&gt;&gt; transfersAllowed()</text>
<text text-anchor="start" x="841" y="-92.7" font-family="Times,serif" font-size="14.00" fill="#000000"> &#160;&#160;&#160;constructor(_name: string, _symbol: string, _decimals: uint8)</text>
<text text-anchor="start" x="841" y="-75.9" font-family="Times,serif" font-size="14.00" fill="#000000"> &#160;&#160;&#160;disableTransfers(_disable: bool)</text>
<text text-anchor="start" x="841" y="-59.1" font-family="Times,serif" font-size="14.00" fill="#000000"> &#160;&#160;&#160;issue(_to: address, _amount: uint256)</text>
<text text-anchor="start" x="841" y="-42.3" font-family="Times,serif" font-size="14.00" fill="#000000"> &#160;&#160;&#160;destroy(_from: address, _amount: uint256)</text>
<text text-anchor="start" x="841" y="-25.5" font-family="Times,serif" font-size="14.00" fill="#000000"> &#160;&#160;&#160;transfer(_to: address, _value: uint256): (success: bool)</text>
<text text-anchor="start" x="841" y="-8.7" font-family="Times,serif" font-size="14.00" fill="#000000"> &#160;&#160;&#160;transferFrom(_from: address, _to: address, _value: uint256): (success: bool)</text>
</g>
<!-- 8&#45;&gt;2 -->
<g id="edge13" class="edge">
<title>8&#45;&gt;2</title>
<path fill="none" stroke="#000000" d="M1266.3153,-276.673C1275.3077,-288.1046 1283.2868,-300.2171 1289.8525,-313 1340.0576,-410.7457 1338.3037,-537.2955 1326.9326,-630.1125"/>
<polygon fill="none" stroke="#000000" points="1316.5219,-628.7449 1322.816,-659.8999 1337.3242,-631.6199 1316.5219,-628.7449"/>
</g>
<!-- 8&#45;&gt;4 -->
<g id="edge14" class="edge">
<title>8&#45;&gt;4</title>
<path fill="none" stroke="#000000" d="M1060.8525,-276.9314C1060.8525,-307.191 1060.8525,-338.6715 1060.8525,-367.1529"/>
<polygon fill="none" stroke="#000000" points="1050.3526,-367.2433 1060.8525,-397.2434 1071.3526,-367.2434 1050.3526,-367.2433"/>
</g>
<!-- 8&#45;&gt;6 -->
<g id="edge12" class="edge">
<title>8&#45;&gt;6</title>
<path fill="none" stroke="#000000" d="M832.9862,-188.3737C727.6715,-215.2973 601.5987,-253.0555 483.2861,-304.9021"/>
<polygon fill="none" stroke="#000000" points="478.8407,-295.3883 455.7931,-317.2758 487.4594,-314.5382 478.8407,-295.3883"/>
</g>
<!-- 8&#45;&gt;7 -->
<g id="edge11" class="edge">
<title>8&#45;&gt;7</title>
<path fill="none" stroke="#000000" d="M878.0311,-276.5107C862.3351,-288.7525 846.7659,-301.0366 831.8525,-313 806.0142,-333.7273 778.5419,-356.5029 752.9229,-378.0726"/>
<polygon fill="none" stroke="#000000" points="746.1397,-370.0577 730.0163,-397.4492 759.7021,-386.0909 746.1397,-370.0577"/>
</g>
</g>
</svg>
