<?xml version="1.0" encoding="UTF-8" standalone="no"?>
<!DOCTYPE svg PUBLIC "-//W3C//DTD SVG 1.1//EN"
 "http://www.w3.org/Graphics/SVG/1.1/DTD/svg11.dtd">
<!-- Generated by graphviz version 2.40.1 (20161225.0304)
 -->
<!-- Title: UmlClassDiagram Pages: 1 -->
<svg width="976pt" height="1228pt"
 viewBox="0.00 0.00 976.12 1228.40" xmlns="http://www.w3.org/2000/svg" xmlns:xlink="http://www.w3.org/1999/xlink">
<g id="graph0" class="graph" transform="scale(1 1) rotate(0) translate(4 1224.4)">
<title>UmlClassDiagram</title>
<polygon fill="#ffffff" stroke="transparent" points="-4,4 -4,-1224.4 972.1244,-1224.4 972.1244,4 -4,4"/>
<!-- 0 -->
<g id="node1" class="node">
<title>0</title>
<polygon fill="#f2f2f2" stroke="#000000" points="258.5208,-866.1 258.5208,-1024.5 490.3532,-1024.5 490.3532,-866.1 258.5208,-866.1"/>
<text text-anchor="middle" x="374.437" y="-1007.9" font-family="Times,serif" font-size="14.00" fill="#000000">&lt;&lt;Library&gt;&gt;</text>
<text text-anchor="middle" x="374.437" y="-991.1" font-family="Times,serif" font-size="14.00" fill="#000000">SafeMath</text>
<polyline fill="none" stroke="#000000" points="258.5208,-982.9 490.3532,-982.9 "/>
<text text-anchor="middle" x="374.437" y="-966.3" font-family="Times,serif" font-size="14.00" fill="#000000"> </text>
<polyline fill="none" stroke="#000000" points="258.5208,-958.1 490.3532,-958.1 "/>
<text text-anchor="start" x="266.5208" y="-941.5" font-family="Times,serif" font-size="14.00" fill="#000000">Internal:</text>
<text text-anchor="start" x="266.5208" y="-924.7" font-family="Times,serif" font-size="14.00" fill="#000000"> &#160;&#160;&#160;mul(a: uint256, b: uint256): uint256</text>
<text text-anchor="start" x="266.5208" y="-907.9" font-family="Times,serif" font-size="14.00" fill="#000000"> &#160;&#160;&#160;div(a: uint256, b: uint256): uint256</text>
<text text-anchor="start" x="266.5208" y="-891.1" font-family="Times,serif" font-size="14.00" fill="#000000"> &#160;&#160;&#160;sub(a: uint256, b: uint256): uint256</text>
<text text-anchor="start" x="266.5208" y="-874.3" font-family="Times,serif" font-size="14.00" fill="#000000"> &#160;&#160;&#160;add(a: uint256, b: uint256): uint256</text>
</g>
<!-- 1 -->
<g id="node2" class="node">
<title>1</title>
<polygon fill="#f2f2f2" stroke="#000000" points="0,-670.7 0,-829.1 484.874,-829.1 484.874,-670.7 0,-670.7"/>
<text text-anchor="middle" x="242.437" y="-812.5" font-family="Times,serif" font-size="14.00" fill="#000000">Ownable</text>
<polyline fill="none" stroke="#000000" points="0,-804.3 484.874,-804.3 "/>
<text text-anchor="start" x="8" y="-787.7" font-family="Times,serif" font-size="14.00" fill="#000000">Public:</text>
<text text-anchor="start" x="8" y="-770.9" font-family="Times,serif" font-size="14.00" fill="#000000"> &#160;&#160;owner: address</text>
<polyline fill="none" stroke="#000000" points="0,-762.7 484.874,-762.7 "/>
<text text-anchor="start" x="8" y="-746.1" font-family="Times,serif" font-size="14.00" fill="#000000">Public:</text>
<text text-anchor="start" x="8" y="-729.3" font-family="Times,serif" font-size="14.00" fill="#000000"> &#160;&#160;&#160;&lt;&lt;event&gt;&gt; OwnershipTransferred(previousOwner: address, newOwner: address)</text>
<text text-anchor="start" x="8" y="-712.5" font-family="Times,serif" font-size="14.00" fill="#000000"> &#160;&#160;&#160;&lt;&lt;modifier&gt;&gt; onlyOwner()</text>
<text text-anchor="start" x="8" y="-695.7" font-family="Times,serif" font-size="14.00" fill="#000000"> &#160;&#160;&#160;constructor()</text>
<text text-anchor="start" x="8" y="-678.9" font-family="Times,serif" font-size="14.00" fill="#000000"> &#160;&#160;&#160;transferOwnership(newOwner: address)</text>
</g>
<!-- 2 -->
<g id="node3" class="node">
<title>2</title>
<polygon fill="#f2f2f2" stroke="#000000" points="543.7066,-1061.5 543.7066,-1219.9 927.1674,-1219.9 927.1674,-1061.5 543.7066,-1061.5"/>
<text text-anchor="middle" x="735.437" y="-1203.3" font-family="Times,serif" font-size="14.00" fill="#000000">&lt;&lt;Abstract&gt;&gt;</text>
<text text-anchor="middle" x="735.437" y="-1186.5" font-family="Times,serif" font-size="14.00" fill="#000000">ERC20Basic</text>
<polyline fill="none" stroke="#000000" points="543.7066,-1178.3 927.1674,-1178.3 "/>
<text text-anchor="start" x="551.7066" y="-1161.7" font-family="Times,serif" font-size="14.00" fill="#000000">Public:</text>
<text text-anchor="start" x="551.7066" y="-1144.9" font-family="Times,serif" font-size="14.00" fill="#000000"> &#160;&#160;totalSupply: uint256</text>
<polyline fill="none" stroke="#000000" points="543.7066,-1136.7 927.1674,-1136.7 "/>
<text text-anchor="start" x="551.7066" y="-1120.1" font-family="Times,serif" font-size="14.00" fill="#000000">Public:</text>
<text text-anchor="start" x="551.7066" y="-1103.3" font-family="Times,serif" font-size="14.00" fill="#000000"> &#160;&#160;&#160;&lt;&lt;abstract&gt;&gt; balanceOf(who: address): uint256</text>
<text text-anchor="start" x="551.7066" y="-1086.5" font-family="Times,serif" font-size="14.00" fill="#000000"> &#160;&#160;&#160;&lt;&lt;abstract&gt;&gt; transfer(to: address, value: uint256): bool</text>
<text text-anchor="start" x="551.7066" y="-1069.7" font-family="Times,serif" font-size="14.00" fill="#000000"> &#160;&#160;&#160;&lt;&lt;event&gt;&gt; Transfer(from: address, to: address, value: uint256)</text>
</g>
<!-- 3 -->
<g id="node4" class="node">
<title>3</title>
<polygon fill="#f2f2f2" stroke="#000000" points="508.1249,-866.1 508.1249,-1024.5 962.7491,-1024.5 962.7491,-866.1 508.1249,-866.1"/>
<text text-anchor="middle" x="735.437" y="-1007.9" font-family="Times,serif" font-size="14.00" fill="#000000">&lt;&lt;Abstract&gt;&gt;</text>
<text text-anchor="middle" x="735.437" y="-991.1" font-family="Times,serif" font-size="14.00" fill="#000000">ERC20</text>
<polyline fill="none" stroke="#000000" points="508.1249,-982.9 962.7491,-982.9 "/>
<text text-anchor="middle" x="735.437" y="-966.3" font-family="Times,serif" font-size="14.00" fill="#000000"> </text>
<polyline fill="none" stroke="#000000" points="508.1249,-958.1 962.7491,-958.1 "/>
<text text-anchor="start" x="516.1249" y="-941.5" font-family="Times,serif" font-size="14.00" fill="#000000">Public:</text>
<text text-anchor="start" x="516.1249" y="-924.7" font-family="Times,serif" font-size="14.00" fill="#000000"> &#160;&#160;&#160;&lt;&lt;abstract&gt;&gt; allowance(owner: address, spender: address): uint256</text>
<text text-anchor="start" x="516.1249" y="-907.9" font-family="Times,serif" font-size="14.00" fill="#000000"> &#160;&#160;&#160;&lt;&lt;abstract&gt;&gt; transferFrom(from: address, to: address, value: uint256): bool</text>
<text text-anchor="start" x="516.1249" y="-891.1" font-family="Times,serif" font-size="14.00" fill="#000000"> &#160;&#160;&#160;&lt;&lt;abstract&gt;&gt; approve(spender: address, value: uint256): bool</text>
<text text-anchor="start" x="516.1249" y="-874.3" font-family="Times,serif" font-size="14.00" fill="#000000"> &#160;&#160;&#160;&lt;&lt;event&gt;&gt; Approval(owner: address, spender: address, value: uint256)</text>
</g>
<!-- 3&#45;&gt;2 -->
<g id="edge2" class="edge">
<title>3&#45;&gt;2</title>
<path fill="none" stroke="#000000" d="M735.437,-1024.7767C735.437,-1026.8469 735.437,-1028.9285 735.437,-1031.0175"/>
<polygon fill="none" stroke="#000000" points="724.9371,-1031.2937 735.437,-1061.2938 745.9371,-1031.2938 724.9371,-1031.2937"/>
</g>
<!-- 4 -->
<g id="node5" class="node">
<title>4</title>
<polygon fill="#f2f2f2" stroke="#000000" points="502.7496,-670.7 502.7496,-829.1 968.1244,-829.1 968.1244,-670.7 502.7496,-670.7"/>
<text text-anchor="middle" x="735.437" y="-812.5" font-family="Times,serif" font-size="14.00" fill="#000000">ApprovalContract</text>
<polyline fill="none" stroke="#000000" points="502.7496,-804.3 968.1244,-804.3 "/>
<text text-anchor="start" x="510.7496" y="-787.7" font-family="Times,serif" font-size="14.00" fill="#000000">Public:</text>
<text text-anchor="start" x="510.7496" y="-770.9" font-family="Times,serif" font-size="14.00" fill="#000000"> &#160;&#160;allowed: mapping(address=&gt;mapping(address=&gt;uint256))</text>
<polyline fill="none" stroke="#000000" points="502.7496,-762.7 968.1244,-762.7 "/>
<text text-anchor="start" x="510.7496" y="-746.1" font-family="Times,serif" font-size="14.00" fill="#000000">Public:</text>
<text text-anchor="start" x="510.7496" y="-729.3" font-family="Times,serif" font-size="14.00" fill="#000000"> &#160;&#160;&#160;approve(_spender: address, _value: uint256): bool</text>
<text text-anchor="start" x="510.7496" y="-712.5" font-family="Times,serif" font-size="14.00" fill="#000000"> &#160;&#160;&#160;allowance(_owner: address, _spender: address): (remaining: uint256)</text>
<text text-anchor="start" x="510.7496" y="-695.7" font-family="Times,serif" font-size="14.00" fill="#000000"> &#160;&#160;&#160;increaseApproval(_spender: address, _addedValue: uint): (success: bool)</text>
<text text-anchor="start" x="510.7496" y="-678.9" font-family="Times,serif" font-size="14.00" fill="#000000"> &#160;&#160;&#160;decreaseApproval(_spender: address, _subtractedValue: uint): (success: bool)</text>
</g>
<!-- 4&#45;&gt;0 -->
<g id="edge4" class="edge">
<title>4&#45;&gt;0</title>
<path fill="none" stroke="#000000" stroke-dasharray="5,2" d="M567.9055,-829.1452C544.6924,-840.9614 521.3193,-853.3106 499.437,-865.6 499.3458,-865.6512 499.2546,-865.7024 499.1634,-865.7537"/>
<polygon fill="#000000" stroke="#000000" points="497.5723,-862.632 490.6172,-870.6243 501.0383,-868.7136 497.5723,-862.632"/>
</g>
<!-- 4&#45;&gt;3 -->
<g id="edge3" class="edge">
<title>4&#45;&gt;3</title>
<path fill="none" stroke="#000000" d="M735.437,-829.3767C735.437,-831.4469 735.437,-833.5285 735.437,-835.6175"/>
<polygon fill="none" stroke="#000000" points="724.9371,-835.8937 735.437,-865.8938 745.9371,-835.8938 724.9371,-835.8937"/>
</g>
<!-- 5 -->
<g id="node6" class="node">
<title>5</title>
<polygon fill="#f2f2f2" stroke="#000000" points="342.7505,-475.3 342.7505,-633.7 634.1235,-633.7 634.1235,-475.3 342.7505,-475.3"/>
<text text-anchor="middle" x="488.437" y="-617.1" font-family="Times,serif" font-size="14.00" fill="#000000">MintableToken</text>
<polyline fill="none" stroke="#000000" points="342.7505,-608.9 634.1235,-608.9 "/>
<text text-anchor="start" x="350.7505" y="-592.3" font-family="Times,serif" font-size="14.00" fill="#000000">Public:</text>
<text text-anchor="start" x="350.7505" y="-575.5" font-family="Times,serif" font-size="14.00" fill="#000000"> &#160;&#160;hardCap: uint256</text>
<text text-anchor="start" x="350.7505" y="-558.7" font-family="Times,serif" font-size="14.00" fill="#000000"> &#160;&#160;balances: mapping(address=&gt;uint256)</text>
<polyline fill="none" stroke="#000000" points="342.7505,-550.5 634.1235,-550.5 "/>
<text text-anchor="start" x="350.7505" y="-533.9" font-family="Times,serif" font-size="14.00" fill="#000000">Public:</text>
<text text-anchor="start" x="350.7505" y="-517.1" font-family="Times,serif" font-size="14.00" fill="#000000"> &#160;&#160;&#160;&lt;&lt;event&gt;&gt; Mint(to: address, amount: uint256)</text>
<text text-anchor="start" x="350.7505" y="-500.3" font-family="Times,serif" font-size="14.00" fill="#000000"> &#160;&#160;&#160;&lt;&lt;modifier&gt;&gt; canMint()</text>
<text text-anchor="start" x="350.7505" y="-483.5" font-family="Times,serif" font-size="14.00" fill="#000000"> &#160;&#160;&#160;mint(_to: address, _amount: uint256): bool</text>
</g>
<!-- 5&#45;&gt;1 -->
<g id="edge6" class="edge">
<title>5&#45;&gt;1</title>
<path fill="none" stroke="#000000" d="M388.3794,-633.9767C381.0342,-639.811 373.5758,-645.7353 366.1141,-651.6622"/>
<polygon fill="none" stroke="#000000" points="359.3664,-643.6126 342.4059,-670.4938 372.4278,-660.0564 359.3664,-643.6126"/>
</g>
<!-- 5&#45;&gt;4 -->
<g id="edge5" class="edge">
<title>5&#45;&gt;4</title>
<path fill="none" stroke="#000000" d="M588.9014,-633.9767C596.2764,-639.811 603.7651,-645.7353 611.2572,-651.6622"/>
<polygon fill="none" stroke="#000000" points="605.0192,-660.1157 635.0617,-670.4938 618.0482,-643.6462 605.0192,-660.1157"/>
</g>
<!-- 6 -->
<g id="node7" class="node">
<title>6</title>
<polygon fill="#f2f2f2" stroke="#000000" points="204.343,-212.7 204.343,-438.3 772.531,-438.3 772.531,-212.7 204.343,-212.7"/>
<text text-anchor="middle" x="488.437" y="-421.7" font-family="Times,serif" font-size="14.00" fill="#000000">Vesting</text>
<polyline fill="none" stroke="#000000" points="204.343,-413.5 772.531,-413.5 "/>
<text text-anchor="start" x="212.343" y="-396.9" font-family="Times,serif" font-size="14.00" fill="#000000">Public:</text>
<text text-anchor="start" x="212.343" y="-380.1" font-family="Times,serif" font-size="14.00" fill="#000000"> &#160;&#160;vestingMembers: mapping(address=&gt;_Vesting)</text>
<polyline fill="none" stroke="#000000" points="204.343,-371.9 772.531,-371.9 "/>
<text text-anchor="start" x="212.343" y="-355.3" font-family="Times,serif" font-size="14.00" fill="#000000">Private:</text>
<text text-anchor="start" x="212.343" y="-338.5" font-family="Times,serif" font-size="14.00" fill="#000000"> &#160;&#160;&#160;currentPart(_address: address): uint256</text>
<text text-anchor="start" x="212.343" y="-321.7" font-family="Times,serif" font-size="14.00" fill="#000000"> &#160;&#160;&#160;subFromBalance(_address: address, _amount: uint256): uint256</text>
<text text-anchor="start" x="212.343" y="-304.9" font-family="Times,serif" font-size="14.00" fill="#000000">Public:</text>
<text text-anchor="start" x="212.343" y="-288.1" font-family="Times,serif" font-size="14.00" fill="#000000"> &#160;&#160;&#160;&lt;&lt;event&gt;&gt; VestingMemberAdded(_address: address, _amount: uint256, _start: uint, _end: uint)</text>
<text text-anchor="start" x="212.343" y="-271.3" font-family="Times,serif" font-size="14.00" fill="#000000"> &#160;&#160;&#160;addVestingMember(_address: address, _amount: uint256, _start: uint256, _end: uint256): bool</text>
<text text-anchor="start" x="212.343" y="-254.5" font-family="Times,serif" font-size="14.00" fill="#000000"> &#160;&#160;&#160;balanceOf(_owner: address): (balance: uint256)</text>
<text text-anchor="start" x="212.343" y="-237.7" font-family="Times,serif" font-size="14.00" fill="#000000"> &#160;&#160;&#160;transfer(_to: address, _value: uint256): bool</text>
<text text-anchor="start" x="212.343" y="-220.9" font-family="Times,serif" font-size="14.00" fill="#000000"> &#160;&#160;&#160;transferFrom(_from: address, _to: address, _value: uint256): bool</text>
</g>
<!-- 6&#45;&gt;5 -->
<g id="edge7" class="edge">
<title>6&#45;&gt;5</title>
<path fill="none" stroke="#000000" d="M488.437,-438.3228C488.437,-440.5543 488.437,-442.7866 488.437,-445.0164"/>
<polygon fill="none" stroke="#000000" points="477.9371,-445.0734 488.437,-475.0734 498.9371,-445.0735 477.9371,-445.0734"/>
</g>
<!-- 6struct0 -->
<g id="node8" class="node">
<title>6struct0</title>
<polygon fill="#f2f2f2" stroke="#000000" points="69.5776,-29.7 69.5776,-146.5 207.2964,-146.5 207.2964,-29.7 69.5776,-29.7"/>
<text text-anchor="middle" x="138.437" y="-129.9" font-family="Times,serif" font-size="14.00" fill="#000000">&lt;&lt;struct&gt;&gt;</text>
<text text-anchor="middle" x="138.437" y="-113.1" font-family="Times,serif" font-size="14.00" fill="#000000">_Vesting</text>
<polyline fill="none" stroke="#000000" points="69.5776,-104.9 207.2964,-104.9 "/>
<text text-anchor="start" x="77.5776" y="-88.3" font-family="Times,serif" font-size="14.00" fill="#000000">totalSum: uint256</text>
<text text-anchor="start" x="77.5776" y="-71.5" font-family="Times,serif" font-size="14.00" fill="#000000">start: uint256</text>
<text text-anchor="start" x="77.5776" y="-54.7" font-family="Times,serif" font-size="14.00" fill="#000000">end: uint256</text>
<text text-anchor="start" x="77.5776" y="-37.9" font-family="Times,serif" font-size="14.00" fill="#000000">usedAmount: uint256</text>
</g>
<!-- 6struct0&#45;&gt;6 -->
<g id="edge1" class="edge">
<title>6struct0&#45;&gt;6</title>
<path fill="none" stroke="#000000" d="M185.2909,-146.826C194.993,-157.2492 205.5838,-167.5295 216.437,-176.2 229.2217,-186.4136 242.8022,-196.3054 256.8095,-205.8081"/>
<polygon fill="#000000" stroke="#000000" points="257.096,-205.9992 264.3071,-206.0007 267.0792,-212.6578 259.8681,-212.6562 257.096,-205.9992"/>
</g>
<!-- 7 -->
<g id="node9" class="node">
<title>7</title>
<polygon fill="#f2f2f2" stroke="#000000" points="224.9916,-.5 224.9916,-175.7 751.8824,-175.7 751.8824,-.5 224.9916,-.5"/>
<text text-anchor="middle" x="488.437" y="-159.1" font-family="Times,serif" font-size="14.00" fill="#000000">DMToken</text>
<polyline fill="none" stroke="#000000" points="224.9916,-150.9 751.8824,-150.9 "/>
<text text-anchor="start" x="232.9916" y="-134.3" font-family="Times,serif" font-size="14.00" fill="#000000">Public:</text>
<text text-anchor="start" x="232.9916" y="-117.5" font-family="Times,serif" font-size="14.00" fill="#000000"> &#160;&#160;name: string</text>
<text text-anchor="start" x="232.9916" y="-100.7" font-family="Times,serif" font-size="14.00" fill="#000000"> &#160;&#160;symbol: string</text>
<text text-anchor="start" x="232.9916" y="-83.9" font-family="Times,serif" font-size="14.00" fill="#000000"> &#160;&#160;decimals: uint256</text>
<polyline fill="none" stroke="#000000" points="224.9916,-75.7 751.8824,-75.7 "/>
<text text-anchor="start" x="232.9916" y="-59.1" font-family="Times,serif" font-size="14.00" fill="#000000">Public:</text>
<text text-anchor="start" x="232.9916" y="-42.3" font-family="Times,serif" font-size="14.00" fill="#000000"> &#160;&#160;&#160;constructor()</text>
<text text-anchor="start" x="232.9916" y="-25.5" font-family="Times,serif" font-size="14.00" fill="#000000"> &#160;&#160;&#160;multiTransfer(recipients: address[], amounts: uint256[])</text>
<text text-anchor="start" x="232.9916" y="-8.7" font-family="Times,serif" font-size="14.00" fill="#000000"> &#160;&#160;&#160;multiVesting(_address: address[], _amount: uint256[], _start: uint256[], _end: uint256[])</text>
</g>
<!-- 7&#45;&gt;6 -->
<g id="edge8" class="edge">
<title>7&#45;&gt;6</title>
<path fill="none" stroke="#000000" d="M488.437,-175.8245C488.437,-177.9605 488.437,-180.1109 488.437,-182.2727"/>
<polygon fill="none" stroke="#000000" points="477.9371,-182.2998 488.437,-212.2998 498.9371,-182.2999 477.9371,-182.2998"/>
</g>
</g>
</svg>
