<?xml version="1.0" encoding="UTF-8" standalone="no"?>
<!DOCTYPE svg PUBLIC "-//W3C//DTD SVG 1.1//EN"
 "http://www.w3.org/Graphics/SVG/1.1/DTD/svg11.dtd">
<!-- Generated by graphviz version 2.40.1 (20161225.0304)
 -->
<!-- Title: UmlClassDiagram Pages: 1 -->
<svg width="1090pt" height="838pt"
 viewBox="0.00 0.00 1090.45 837.60" xmlns="http://www.w3.org/2000/svg" xmlns:xlink="http://www.w3.org/1999/xlink">
<g id="graph0" class="graph" transform="scale(1 1) rotate(0) translate(4 833.6)">
<title>UmlClassDiagram</title>
<polygon fill="#ffffff" stroke="transparent" points="-4,4 -4,-833.6 1086.4472,-833.6 1086.4472,4 -4,4"/>
<!-- 0 -->
<g id="node1" class="node">
<title>0</title>
<polygon fill="#f2f2f2" stroke="#000000" points="505.3959,-670.7 505.3959,-829.1 737.2283,-829.1 737.2283,-670.7 505.3959,-670.7"/>
<text text-anchor="middle" x="621.3121" y="-812.5" font-family="Times,serif" font-size="14.00" fill="#000000">&lt;&lt;Library&gt;&gt;</text>
<text text-anchor="middle" x="621.3121" y="-795.7" font-family="Times,serif" font-size="14.00" fill="#000000">SafeMath</text>
<polyline fill="none" stroke="#000000" points="505.3959,-787.5 737.2283,-787.5 "/>
<text text-anchor="middle" x="621.3121" y="-770.9" font-family="Times,serif" font-size="14.00" fill="#000000"> </text>
<polyline fill="none" stroke="#000000" points="505.3959,-762.7 737.2283,-762.7 "/>
<text text-anchor="start" x="513.3959" y="-746.1" font-family="Times,serif" font-size="14.00" fill="#000000">Internal:</text>
<text text-anchor="start" x="513.3959" y="-729.3" font-family="Times,serif" font-size="14.00" fill="#000000"> &#160;&#160;&#160;mul(a: uint256, b: uint256): uint256</text>
<text text-anchor="start" x="513.3959" y="-712.5" font-family="Times,serif" font-size="14.00" fill="#000000"> &#160;&#160;&#160;div(a: uint256, b: uint256): uint256</text>
<text text-anchor="start" x="513.3959" y="-695.7" font-family="Times,serif" font-size="14.00" fill="#000000"> &#160;&#160;&#160;sub(a: uint256, b: uint256): uint256</text>
<text text-anchor="start" x="513.3959" y="-678.9" font-family="Times,serif" font-size="14.00" fill="#000000"> &#160;&#160;&#160;add(a: uint256, b: uint256): uint256</text>
</g>
<!-- 1 -->
<g id="node2" class="node">
<title>1</title>
<polygon fill="#f2f2f2" stroke="#000000" points="69.5817,-670.7 69.5817,-829.1 453.0425,-829.1 453.0425,-670.7 69.5817,-670.7"/>
<text text-anchor="middle" x="261.3121" y="-812.5" font-family="Times,serif" font-size="14.00" fill="#000000">&lt;&lt;Abstract&gt;&gt;</text>
<text text-anchor="middle" x="261.3121" y="-795.7" font-family="Times,serif" font-size="14.00" fill="#000000">ERC20Basic</text>
<polyline fill="none" stroke="#000000" points="69.5817,-787.5 453.0425,-787.5 "/>
<text text-anchor="start" x="77.5817" y="-770.9" font-family="Times,serif" font-size="14.00" fill="#000000">Public:</text>
<text text-anchor="start" x="77.5817" y="-754.1" font-family="Times,serif" font-size="14.00" fill="#000000"> &#160;&#160;totalSupply: uint256</text>
<polyline fill="none" stroke="#000000" points="69.5817,-745.9 453.0425,-745.9 "/>
<text text-anchor="start" x="77.5817" y="-729.3" font-family="Times,serif" font-size="14.00" fill="#000000">Public:</text>
<text text-anchor="start" x="77.5817" y="-712.5" font-family="Times,serif" font-size="14.00" fill="#000000"> &#160;&#160;&#160;&lt;&lt;abstract&gt;&gt; balanceOf(who: address): uint256</text>
<text text-anchor="start" x="77.5817" y="-695.7" font-family="Times,serif" font-size="14.00" fill="#000000"> &#160;&#160;&#160;&lt;&lt;abstract&gt;&gt; transfer(to: address, value: uint256): bool</text>
<text text-anchor="start" x="77.5817" y="-678.9" font-family="Times,serif" font-size="14.00" fill="#000000"> &#160;&#160;&#160;&lt;&lt;event&gt;&gt; Transfer(from: address, to: address, value: uint256)</text>
</g>
<!-- 2 -->
<g id="node3" class="node">
<title>2</title>
<polygon fill="#f2f2f2" stroke="#000000" points="0,-475.3 0,-633.7 454.6242,-633.7 454.6242,-475.3 0,-475.3"/>
<text text-anchor="middle" x="227.3121" y="-617.1" font-family="Times,serif" font-size="14.00" fill="#000000">&lt;&lt;Abstract&gt;&gt;</text>
<text text-anchor="middle" x="227.3121" y="-600.3" font-family="Times,serif" font-size="14.00" fill="#000000">ERC20</text>
<polyline fill="none" stroke="#000000" points="0,-592.1 454.6242,-592.1 "/>
<text text-anchor="middle" x="227.3121" y="-575.5" font-family="Times,serif" font-size="14.00" fill="#000000"> </text>
<polyline fill="none" stroke="#000000" points="0,-567.3 454.6242,-567.3 "/>
<text text-anchor="start" x="8" y="-550.7" font-family="Times,serif" font-size="14.00" fill="#000000">Public:</text>
<text text-anchor="start" x="8" y="-533.9" font-family="Times,serif" font-size="14.00" fill="#000000"> &#160;&#160;&#160;&lt;&lt;abstract&gt;&gt; allowance(owner: address, spender: address): uint256</text>
<text text-anchor="start" x="8" y="-517.1" font-family="Times,serif" font-size="14.00" fill="#000000"> &#160;&#160;&#160;&lt;&lt;abstract&gt;&gt; transferFrom(from: address, to: address, value: uint256): bool</text>
<text text-anchor="start" x="8" y="-500.3" font-family="Times,serif" font-size="14.00" fill="#000000"> &#160;&#160;&#160;&lt;&lt;abstract&gt;&gt; approve(spender: address, value: uint256): bool</text>
<text text-anchor="start" x="8" y="-483.5" font-family="Times,serif" font-size="14.00" fill="#000000"> &#160;&#160;&#160;&lt;&lt;event&gt;&gt; Approval(owner: address, spender: address, value: uint256)</text>
</g>
<!-- 2&#45;&gt;1 -->
<g id="edge1" class="edge">
<title>2&#45;&gt;1</title>
<path fill="none" stroke="#000000" d="M241.1412,-633.9767C241.5342,-636.2351 241.9295,-638.5071 242.3263,-640.7874"/>
<polygon fill="none" stroke="#000000" points="232.0078,-642.7379 247.4953,-670.4938 252.697,-639.1379 232.0078,-642.7379"/>
</g>
<!-- 3 -->
<g id="node4" class="node">
<title>3</title>
<polygon fill="#f2f2f2" stroke="#000000" points="472.4014,-492.1 472.4014,-616.9 770.2228,-616.9 770.2228,-492.1 472.4014,-492.1"/>
<text text-anchor="middle" x="621.3121" y="-600.3" font-family="Times,serif" font-size="14.00" fill="#000000">BasicToken</text>
<polyline fill="none" stroke="#000000" points="472.4014,-592.1 770.2228,-592.1 "/>
<text text-anchor="start" x="480.4014" y="-575.5" font-family="Times,serif" font-size="14.00" fill="#000000">Public:</text>
<text text-anchor="start" x="480.4014" y="-558.7" font-family="Times,serif" font-size="14.00" fill="#000000"> &#160;&#160;balances: mapping(address=&gt;uint256)</text>
<polyline fill="none" stroke="#000000" points="472.4014,-550.5 770.2228,-550.5 "/>
<text text-anchor="start" x="480.4014" y="-533.9" font-family="Times,serif" font-size="14.00" fill="#000000">Public:</text>
<text text-anchor="start" x="480.4014" y="-517.1" font-family="Times,serif" font-size="14.00" fill="#000000"> &#160;&#160;&#160;transfer(_to: address, _value: uint256): bool</text>
<text text-anchor="start" x="480.4014" y="-500.3" font-family="Times,serif" font-size="14.00" fill="#000000"> &#160;&#160;&#160;balanceOf(_owner: address): (balance: uint256)</text>
</g>
<!-- 3&#45;&gt;0 -->
<g id="edge3" class="edge">
<title>3&#45;&gt;0</title>
<path fill="none" stroke="#000000" stroke-dasharray="5,2" d="M621.3121,-617.1321C621.3121,-630.9182 621.3121,-645.7783 621.3121,-660.3923"/>
<polygon fill="#000000" stroke="#000000" points="617.8122,-660.4541 621.3121,-670.4542 624.8122,-660.4542 617.8122,-660.4541"/>
</g>
<!-- 3&#45;&gt;1 -->
<g id="edge2" class="edge">
<title>3&#45;&gt;1</title>
<path fill="none" stroke="#000000" d="M505.9204,-617.1321C482.8879,-629.6336 458.2282,-643.0183 433.7551,-656.3018"/>
<polygon fill="none" stroke="#000000" points="428.7158,-647.0899 407.3583,-670.6294 438.7337,-665.5465 428.7158,-647.0899"/>
</g>
<!-- 4 -->
<g id="node5" class="node">
<title>4</title>
<polygon fill="#f2f2f2" stroke="#000000" points="412.3281,-271.5 412.3281,-413.1 830.2961,-413.1 830.2961,-271.5 412.3281,-271.5"/>
<text text-anchor="middle" x="621.3121" y="-396.5" font-family="Times,serif" font-size="14.00" fill="#000000">StandardToken</text>
<polyline fill="none" stroke="#000000" points="412.3281,-388.3 830.2961,-388.3 "/>
<text text-anchor="start" x="420.3281" y="-371.7" font-family="Times,serif" font-size="14.00" fill="#000000">Public:</text>
<text text-anchor="start" x="420.3281" y="-354.9" font-family="Times,serif" font-size="14.00" fill="#000000"> &#160;&#160;allowed: mapping(address=&gt;mapping(address=&gt;uint256))</text>
<polyline fill="none" stroke="#000000" points="412.3281,-346.7 830.2961,-346.7 "/>
<text text-anchor="start" x="420.3281" y="-330.1" font-family="Times,serif" font-size="14.00" fill="#000000">Public:</text>
<text text-anchor="start" x="420.3281" y="-313.3" font-family="Times,serif" font-size="14.00" fill="#000000"> &#160;&#160;&#160;transferFrom(_from: address, _to: address, _value: uint256): bool</text>
<text text-anchor="start" x="420.3281" y="-296.5" font-family="Times,serif" font-size="14.00" fill="#000000"> &#160;&#160;&#160;approve(_spender: address, _value: uint256): bool</text>
<text text-anchor="start" x="420.3281" y="-279.7" font-family="Times,serif" font-size="14.00" fill="#000000"> &#160;&#160;&#160;allowance(_owner: address, _spender: address): (remaining: uint256)</text>
</g>
<!-- 4&#45;&gt;2 -->
<g id="edge4" class="edge">
<title>4&#45;&gt;2</title>
<path fill="none" stroke="#000000" d="M489.842,-413.107C461.3416,-428.4567 430.776,-444.9187 400.9362,-460.9898"/>
<polygon fill="none" stroke="#000000" points="395.83,-451.8138 374.396,-475.2837 405.7878,-470.3028 395.83,-451.8138"/>
</g>
<!-- 4&#45;&gt;3 -->
<g id="edge5" class="edge">
<title>4&#45;&gt;3</title>
<path fill="none" stroke="#000000" d="M621.3121,-413.2545C621.3121,-428.7462 621.3121,-445.3648 621.3121,-461.5674"/>
<polygon fill="none" stroke="#000000" points="610.8122,-461.8067 621.3121,-491.8068 631.8122,-461.8068 610.8122,-461.8067"/>
</g>
<!-- 5 -->
<g id="node6" class="node">
<title>5</title>
<polygon fill="#f2f2f2" stroke="#000000" points="828.177,-483.7 828.177,-625.3 1082.4472,-625.3 1082.4472,-483.7 828.177,-483.7"/>
<text text-anchor="middle" x="955.3121" y="-608.7" font-family="Times,serif" font-size="14.00" fill="#000000">Ownable</text>
<polyline fill="none" stroke="#000000" points="828.177,-600.5 1082.4472,-600.5 "/>
<text text-anchor="start" x="836.177" y="-583.9" font-family="Times,serif" font-size="14.00" fill="#000000">Public:</text>
<text text-anchor="start" x="836.177" y="-567.1" font-family="Times,serif" font-size="14.00" fill="#000000"> &#160;&#160;owner: address</text>
<polyline fill="none" stroke="#000000" points="828.177,-558.9 1082.4472,-558.9 "/>
<text text-anchor="start" x="836.177" y="-542.3" font-family="Times,serif" font-size="14.00" fill="#000000">Public:</text>
<text text-anchor="start" x="836.177" y="-525.5" font-family="Times,serif" font-size="14.00" fill="#000000"> &#160;&#160;&#160;&lt;&lt;modifier&gt;&gt; onlyOwner()</text>
<text text-anchor="start" x="836.177" y="-508.7" font-family="Times,serif" font-size="14.00" fill="#000000"> &#160;&#160;&#160;constructor()</text>
<text text-anchor="start" x="836.177" y="-491.9" font-family="Times,serif" font-size="14.00" fill="#000000"> &#160;&#160;&#160;transferOwnership(newOwner: address)</text>
</g>
<!-- 6 -->
<g id="node7" class="node">
<title>6</title>
<polygon fill="#f2f2f2" stroke="#000000" points="848.5211,-246.3 848.5211,-438.3 1062.1031,-438.3 1062.1031,-246.3 848.5211,-246.3"/>
<text text-anchor="middle" x="955.3121" y="-421.7" font-family="Times,serif" font-size="14.00" fill="#000000">Pausable</text>
<polyline fill="none" stroke="#000000" points="848.5211,-413.5 1062.1031,-413.5 "/>
<text text-anchor="start" x="856.5211" y="-396.9" font-family="Times,serif" font-size="14.00" fill="#000000">Public:</text>
<text text-anchor="start" x="856.5211" y="-380.1" font-family="Times,serif" font-size="14.00" fill="#000000"> &#160;&#160;paused: bool</text>
<polyline fill="none" stroke="#000000" points="848.5211,-371.9 1062.1031,-371.9 "/>
<text text-anchor="start" x="856.5211" y="-355.3" font-family="Times,serif" font-size="14.00" fill="#000000">Public:</text>
<text text-anchor="start" x="856.5211" y="-338.5" font-family="Times,serif" font-size="14.00" fill="#000000"> &#160;&#160;&#160;&lt;&lt;event&gt;&gt; Pause()</text>
<text text-anchor="start" x="856.5211" y="-321.7" font-family="Times,serif" font-size="14.00" fill="#000000"> &#160;&#160;&#160;&lt;&lt;event&gt;&gt; Unpause()</text>
<text text-anchor="start" x="856.5211" y="-304.9" font-family="Times,serif" font-size="14.00" fill="#000000"> &#160;&#160;&#160;&lt;&lt;modifier&gt;&gt; whenNotPaused()</text>
<text text-anchor="start" x="856.5211" y="-288.1" font-family="Times,serif" font-size="14.00" fill="#000000"> &#160;&#160;&#160;&lt;&lt;modifier&gt;&gt; whenPaused()</text>
<text text-anchor="start" x="856.5211" y="-271.3" font-family="Times,serif" font-size="14.00" fill="#000000"> &#160;&#160;&#160;pause(): bool</text>
<text text-anchor="start" x="856.5211" y="-254.5" font-family="Times,serif" font-size="14.00" fill="#000000"> &#160;&#160;&#160;unpause(): bool</text>
</g>
<!-- 6&#45;&gt;5 -->
<g id="edge6" class="edge">
<title>6&#45;&gt;5</title>
<path fill="none" stroke="#000000" d="M955.3121,-438.4661C955.3121,-443.4316 955.3121,-448.4264 955.3121,-453.4064"/>
<polygon fill="none" stroke="#000000" points="944.8122,-453.4347 955.3121,-483.4347 965.8122,-453.4348 944.8122,-453.4347"/>
</g>
<!-- 7 -->
<g id="node8" class="node">
<title>7</title>
<polygon fill="#f2f2f2" stroke="#000000" points="589.8043,-.5 589.8043,-209.3 986.8199,-209.3 986.8199,-.5 589.8043,-.5"/>
<text text-anchor="middle" x="788.3121" y="-192.7" font-family="Times,serif" font-size="14.00" fill="#000000">TierionNetworkToken</text>
<polyline fill="none" stroke="#000000" points="589.8043,-184.5 986.8199,-184.5 "/>
<text text-anchor="start" x="597.8043" y="-167.9" font-family="Times,serif" font-size="14.00" fill="#000000">Public:</text>
<text text-anchor="start" x="597.8043" y="-151.1" font-family="Times,serif" font-size="14.00" fill="#000000"> &#160;&#160;name: string</text>
<text text-anchor="start" x="597.8043" y="-134.3" font-family="Times,serif" font-size="14.00" fill="#000000"> &#160;&#160;symbol: string</text>
<text text-anchor="start" x="597.8043" y="-117.5" font-family="Times,serif" font-size="14.00" fill="#000000"> &#160;&#160;decimals: uint8</text>
<text text-anchor="start" x="597.8043" y="-100.7" font-family="Times,serif" font-size="14.00" fill="#000000"> &#160;&#160;INITIAL_SUPPLY: uint256</text>
<polyline fill="none" stroke="#000000" points="589.8043,-92.5 986.8199,-92.5 "/>
<text text-anchor="start" x="597.8043" y="-75.9" font-family="Times,serif" font-size="14.00" fill="#000000">Public:</text>
<text text-anchor="start" x="597.8043" y="-59.1" font-family="Times,serif" font-size="14.00" fill="#000000"> &#160;&#160;&#160;constructor()</text>
<text text-anchor="start" x="597.8043" y="-42.3" font-family="Times,serif" font-size="14.00" fill="#000000"> &#160;&#160;&#160;transfer(_to: address, _value: uint256): bool</text>
<text text-anchor="start" x="597.8043" y="-25.5" font-family="Times,serif" font-size="14.00" fill="#000000"> &#160;&#160;&#160;transferFrom(_from: address, _to: address, _value: uint256): bool</text>
<text text-anchor="start" x="597.8043" y="-8.7" font-family="Times,serif" font-size="14.00" fill="#000000"> &#160;&#160;&#160;approve(_spender: address, _value: uint256): bool</text>
</g>
<!-- 7&#45;&gt;4 -->
<g id="edge7" class="edge">
<title>7&#45;&gt;4</title>
<path fill="none" stroke="#000000" d="M714.8204,-209.3726C706.0915,-221.7812 697.2146,-234.4003 688.5786,-246.6769"/>
<polygon fill="none" stroke="#000000" points="679.9878,-240.6396 671.3151,-271.2179 697.1638,-252.7221 679.9878,-240.6396"/>
</g>
<!-- 7&#45;&gt;6 -->
<g id="edge8" class="edge">
<title>7&#45;&gt;6</title>
<path fill="none" stroke="#000000" d="M861.8038,-209.3726C864.6177,-213.3727 867.447,-217.3948 870.2787,-221.4201"/>
<polygon fill="none" stroke="#000000" points="861.7422,-227.5346 887.5909,-246.0304 878.9181,-215.4521 861.7422,-227.5346"/>
</g>
</g>
</svg>
