<?xml version="1.0" encoding="UTF-8" standalone="no"?>
<!DOCTYPE svg PUBLIC "-//W3C//DTD SVG 1.1//EN"
 "http://www.w3.org/Graphics/SVG/1.1/DTD/svg11.dtd">
<!-- Generated by graphviz version 2.40.1 (20161225.0304)
 -->
<!-- Title: UmlClassDiagram Pages: 1 -->
<svg width="1340pt" height="1464pt"
 viewBox="0.00 0.00 1340.37 1463.60" xmlns="http://www.w3.org/2000/svg" xmlns:xlink="http://www.w3.org/1999/xlink">
<g id="graph0" class="graph" transform="scale(1 1) rotate(0) translate(4 1459.6)">
<title>UmlClassDiagram</title>
<polygon fill="#ffffff" stroke="transparent" points="-4,4 -4,-1459.6 1336.3689,-1459.6 1336.3689,4 -4,4"/>
<!-- 6 -->
<g id="node1" class="node">
<title>6</title>
<polygon fill="#f2f2f2" stroke="#000000" points="81.0066,-1067.7 81.0066,-1226.1 357.107,-1226.1 357.107,-1067.7 81.0066,-1067.7"/>
<text text-anchor="middle" x="219.0568" y="-1209.5" font-family="Times,serif" font-size="14.00" fill="#000000">BasicToken</text>
<polyline fill="none" stroke="#000000" points="81.0066,-1201.3 357.107,-1201.3 "/>
<text text-anchor="start" x="89.0066" y="-1184.7" font-family="Times,serif" font-size="14.00" fill="#000000">Public:</text>
<text text-anchor="start" x="89.0066" y="-1167.9" font-family="Times,serif" font-size="14.00" fill="#000000"> &#160;&#160;balances: mapping(address=&gt;uint256)</text>
<text text-anchor="start" x="89.0066" y="-1151.1" font-family="Times,serif" font-size="14.00" fill="#000000"> &#160;&#160;totalSupply_: uint256</text>
<polyline fill="none" stroke="#000000" points="81.0066,-1142.9 357.107,-1142.9 "/>
<text text-anchor="start" x="89.0066" y="-1126.3" font-family="Times,serif" font-size="14.00" fill="#000000">Public:</text>
<text text-anchor="start" x="89.0066" y="-1109.5" font-family="Times,serif" font-size="14.00" fill="#000000"> &#160;&#160;&#160;totalSupply(): uint256</text>
<text text-anchor="start" x="89.0066" y="-1092.7" font-family="Times,serif" font-size="14.00" fill="#000000"> &#160;&#160;&#160;transfer(_to: address, _value: uint256): bool</text>
<text text-anchor="start" x="89.0066" y="-1075.9" font-family="Times,serif" font-size="14.00" fill="#000000"> &#160;&#160;&#160;balanceOf(_owner: address): uint256</text>
</g>
<!-- 0 -->
<g id="node2" class="node">
<title>0</title>
<polygon fill="#f2f2f2" stroke="#000000" points="638.3264,-1296.7 638.3264,-1455.1 1021.7872,-1455.1 1021.7872,-1296.7 638.3264,-1296.7"/>
<text text-anchor="middle" x="830.0568" y="-1438.5" font-family="Times,serif" font-size="14.00" fill="#000000">&lt;&lt;Abstract&gt;&gt;</text>
<text text-anchor="middle" x="830.0568" y="-1421.7" font-family="Times,serif" font-size="14.00" fill="#000000">ERC20Basic</text>
<polyline fill="none" stroke="#000000" points="638.3264,-1413.5 1021.7872,-1413.5 "/>
<text text-anchor="middle" x="830.0568" y="-1396.9" font-family="Times,serif" font-size="14.00" fill="#000000"> </text>
<polyline fill="none" stroke="#000000" points="638.3264,-1388.7 1021.7872,-1388.7 "/>
<text text-anchor="start" x="646.3264" y="-1372.1" font-family="Times,serif" font-size="14.00" fill="#000000">Public:</text>
<text text-anchor="start" x="646.3264" y="-1355.3" font-family="Times,serif" font-size="14.00" fill="#000000"> &#160;&#160;&#160;&lt;&lt;abstract&gt;&gt; totalSupply(): uint256</text>
<text text-anchor="start" x="646.3264" y="-1338.5" font-family="Times,serif" font-size="14.00" fill="#000000"> &#160;&#160;&#160;&lt;&lt;abstract&gt;&gt; balanceOf(who: address): uint256</text>
<text text-anchor="start" x="646.3264" y="-1321.7" font-family="Times,serif" font-size="14.00" fill="#000000"> &#160;&#160;&#160;&lt;&lt;abstract&gt;&gt; transfer(to: address, value: uint256): bool</text>
<text text-anchor="start" x="646.3264" y="-1304.9" font-family="Times,serif" font-size="14.00" fill="#000000"> &#160;&#160;&#160;&lt;&lt;event&gt;&gt; Transfer(from: address, to: address, value: uint256)</text>
</g>
<!-- 6&#45;&gt;0 -->
<g id="edge1" class="edge">
<title>6&#45;&gt;0</title>
<path fill="none" stroke="#000000" d="M310.1461,-1226.1887C327.8687,-1238.9242 346.9124,-1250.9402 366.0568,-1260.2 441.5244,-1296.7024 529.6465,-1322.4097 608.6992,-1340.1587"/>
<polygon fill="none" stroke="#000000" points="606.6848,-1350.4656 638.2232,-1346.5188 611.1072,-1329.9365 606.6848,-1350.4656"/>
</g>
<!-- 2 -->
<g id="node3" class="node">
<title>2</title>
<polygon fill="#f2f2f2" stroke="#000000" points="91.6774,-1296.7 91.6774,-1455.1 346.4362,-1455.1 346.4362,-1296.7 91.6774,-1296.7"/>
<text text-anchor="middle" x="219.0568" y="-1438.5" font-family="Times,serif" font-size="14.00" fill="#000000">&lt;&lt;Library&gt;&gt;</text>
<text text-anchor="middle" x="219.0568" y="-1421.7" font-family="Times,serif" font-size="14.00" fill="#000000">SafeMath</text>
<polyline fill="none" stroke="#000000" points="91.6774,-1413.5 346.4362,-1413.5 "/>
<text text-anchor="middle" x="219.0568" y="-1396.9" font-family="Times,serif" font-size="14.00" fill="#000000"> </text>
<polyline fill="none" stroke="#000000" points="91.6774,-1388.7 346.4362,-1388.7 "/>
<text text-anchor="start" x="99.6774" y="-1372.1" font-family="Times,serif" font-size="14.00" fill="#000000">Internal:</text>
<text text-anchor="start" x="99.6774" y="-1355.3" font-family="Times,serif" font-size="14.00" fill="#000000"> &#160;&#160;&#160;mul(a: uint256, b: uint256): (c: uint256)</text>
<text text-anchor="start" x="99.6774" y="-1338.5" font-family="Times,serif" font-size="14.00" fill="#000000"> &#160;&#160;&#160;div(a: uint256, b: uint256): uint256</text>
<text text-anchor="start" x="99.6774" y="-1321.7" font-family="Times,serif" font-size="14.00" fill="#000000"> &#160;&#160;&#160;sub(a: uint256, b: uint256): uint256</text>
<text text-anchor="start" x="99.6774" y="-1304.9" font-family="Times,serif" font-size="14.00" fill="#000000"> &#160;&#160;&#160;add(a: uint256, b: uint256): (c: uint256)</text>
</g>
<!-- 6&#45;&gt;2 -->
<g id="edge2" class="edge">
<title>6&#45;&gt;2</title>
<path fill="none" stroke="#000000" stroke-dasharray="5,2" d="M219.0568,-1226.3504C219.0568,-1245.7114 219.0568,-1266.5521 219.0568,-1286.3472"/>
<polygon fill="#000000" stroke="#000000" points="215.5569,-1286.59 219.0568,-1296.59 222.5569,-1286.5901 215.5569,-1286.59"/>
</g>
<!-- 3 -->
<g id="node4" class="node">
<title>3</title>
<polygon fill="#f2f2f2" stroke="#000000" points="877.7447,-1067.7 877.7447,-1226.1 1332.3689,-1226.1 1332.3689,-1067.7 877.7447,-1067.7"/>
<text text-anchor="middle" x="1105.0568" y="-1209.5" font-family="Times,serif" font-size="14.00" fill="#000000">&lt;&lt;Abstract&gt;&gt;</text>
<text text-anchor="middle" x="1105.0568" y="-1192.7" font-family="Times,serif" font-size="14.00" fill="#000000">ERC20</text>
<polyline fill="none" stroke="#000000" points="877.7447,-1184.5 1332.3689,-1184.5 "/>
<text text-anchor="middle" x="1105.0568" y="-1167.9" font-family="Times,serif" font-size="14.00" fill="#000000"> </text>
<polyline fill="none" stroke="#000000" points="877.7447,-1159.7 1332.3689,-1159.7 "/>
<text text-anchor="start" x="885.7447" y="-1143.1" font-family="Times,serif" font-size="14.00" fill="#000000">Public:</text>
<text text-anchor="start" x="885.7447" y="-1126.3" font-family="Times,serif" font-size="14.00" fill="#000000"> &#160;&#160;&#160;&lt;&lt;abstract&gt;&gt; allowance(owner: address, spender: address): uint256</text>
<text text-anchor="start" x="885.7447" y="-1109.5" font-family="Times,serif" font-size="14.00" fill="#000000"> &#160;&#160;&#160;&lt;&lt;abstract&gt;&gt; transferFrom(from: address, to: address, value: uint256): bool</text>
<text text-anchor="start" x="885.7447" y="-1092.7" font-family="Times,serif" font-size="14.00" fill="#000000"> &#160;&#160;&#160;&lt;&lt;abstract&gt;&gt; approve(spender: address, value: uint256): bool</text>
<text text-anchor="start" x="885.7447" y="-1075.9" font-family="Times,serif" font-size="14.00" fill="#000000"> &#160;&#160;&#160;&lt;&lt;event&gt;&gt; Approval(owner: address, spender: address, value: uint256)</text>
</g>
<!-- 3&#45;&gt;0 -->
<g id="edge3" class="edge">
<title>3&#45;&gt;0</title>
<path fill="none" stroke="#000000" d="M1009.6469,-1226.3504C989.9163,-1242.7806 968.9061,-1260.2764 948.4695,-1277.2945"/>
<polygon fill="none" stroke="#000000" points="941.6325,-1269.324 925.298,-1296.59 955.0706,-1285.4615 941.6325,-1269.324"/>
</g>
<!-- 4 -->
<g id="node5" class="node">
<title>4</title>
<polygon fill="#f2f2f2" stroke="#000000" points="759.2658,-805.1 759.2658,-997.1 972.8478,-997.1 972.8478,-805.1 759.2658,-805.1"/>
<text text-anchor="middle" x="866.0568" y="-980.5" font-family="Times,serif" font-size="14.00" fill="#000000">Pausable</text>
<polyline fill="none" stroke="#000000" points="759.2658,-972.3 972.8478,-972.3 "/>
<text text-anchor="start" x="767.2658" y="-955.7" font-family="Times,serif" font-size="14.00" fill="#000000">Public:</text>
<text text-anchor="start" x="767.2658" y="-938.9" font-family="Times,serif" font-size="14.00" fill="#000000"> &#160;&#160;paused: bool</text>
<polyline fill="none" stroke="#000000" points="759.2658,-930.7 972.8478,-930.7 "/>
<text text-anchor="start" x="767.2658" y="-914.1" font-family="Times,serif" font-size="14.00" fill="#000000">Public:</text>
<text text-anchor="start" x="767.2658" y="-897.3" font-family="Times,serif" font-size="14.00" fill="#000000"> &#160;&#160;&#160;&lt;&lt;event&gt;&gt; Pause()</text>
<text text-anchor="start" x="767.2658" y="-880.5" font-family="Times,serif" font-size="14.00" fill="#000000"> &#160;&#160;&#160;&lt;&lt;event&gt;&gt; Unpause()</text>
<text text-anchor="start" x="767.2658" y="-863.7" font-family="Times,serif" font-size="14.00" fill="#000000"> &#160;&#160;&#160;&lt;&lt;modifier&gt;&gt; whenNotPaused()</text>
<text text-anchor="start" x="767.2658" y="-846.9" font-family="Times,serif" font-size="14.00" fill="#000000"> &#160;&#160;&#160;&lt;&lt;modifier&gt;&gt; whenPaused()</text>
<text text-anchor="start" x="767.2658" y="-830.1" font-family="Times,serif" font-size="14.00" fill="#000000"> &#160;&#160;&#160;pause()</text>
<text text-anchor="start" x="767.2658" y="-813.3" font-family="Times,serif" font-size="14.00" fill="#000000"> &#160;&#160;&#160;unpause()</text>
</g>
<!-- 1 -->
<g id="node7" class="node">
<title>1</title>
<polygon fill="#f2f2f2" stroke="#000000" points="374.6198,-1034.1 374.6198,-1259.7 859.4938,-1259.7 859.4938,-1034.1 374.6198,-1034.1"/>
<text text-anchor="middle" x="617.0568" y="-1243.1" font-family="Times,serif" font-size="14.00" fill="#000000">Ownable</text>
<polyline fill="none" stroke="#000000" points="374.6198,-1234.9 859.4938,-1234.9 "/>
<text text-anchor="start" x="382.6198" y="-1218.3" font-family="Times,serif" font-size="14.00" fill="#000000">Public:</text>
<text text-anchor="start" x="382.6198" y="-1201.5" font-family="Times,serif" font-size="14.00" fill="#000000"> &#160;&#160;owner: address</text>
<polyline fill="none" stroke="#000000" points="374.6198,-1193.3 859.4938,-1193.3 "/>
<text text-anchor="start" x="382.6198" y="-1176.7" font-family="Times,serif" font-size="14.00" fill="#000000">Internal:</text>
<text text-anchor="start" x="382.6198" y="-1159.9" font-family="Times,serif" font-size="14.00" fill="#000000"> &#160;&#160;&#160;_transferOwnership(_newOwner: address)</text>
<text text-anchor="start" x="382.6198" y="-1143.1" font-family="Times,serif" font-size="14.00" fill="#000000">Public:</text>
<text text-anchor="start" x="382.6198" y="-1126.3" font-family="Times,serif" font-size="14.00" fill="#000000"> &#160;&#160;&#160;&lt;&lt;event&gt;&gt; OwnershipRenounced(previousOwner: address)</text>
<text text-anchor="start" x="382.6198" y="-1109.5" font-family="Times,serif" font-size="14.00" fill="#000000"> &#160;&#160;&#160;&lt;&lt;event&gt;&gt; OwnershipTransferred(previousOwner: address, newOwner: address)</text>
<text text-anchor="start" x="382.6198" y="-1092.7" font-family="Times,serif" font-size="14.00" fill="#000000"> &#160;&#160;&#160;&lt;&lt;modifier&gt;&gt; onlyOwner()</text>
<text text-anchor="start" x="382.6198" y="-1075.9" font-family="Times,serif" font-size="14.00" fill="#000000"> &#160;&#160;&#160;constructor()</text>
<text text-anchor="start" x="382.6198" y="-1059.1" font-family="Times,serif" font-size="14.00" fill="#000000"> &#160;&#160;&#160;renounceOwnership()</text>
<text text-anchor="start" x="382.6198" y="-1042.3" font-family="Times,serif" font-size="14.00" fill="#000000"> &#160;&#160;&#160;transferOwnership(_newOwner: address)</text>
</g>
<!-- 4&#45;&gt;1 -->
<g id="edge4" class="edge">
<title>4&#45;&gt;1</title>
<path fill="none" stroke="#000000" d="M768.7171,-997.1888C763.5957,-1002.2444 758.4098,-1007.3636 753.1964,-1012.51"/>
<polygon fill="none" stroke="#000000" points="745.6778,-1005.1778 731.7043,-1033.7259 760.4307,-1020.1228 745.6778,-1005.1778"/>
</g>
<!-- 5 -->
<g id="node6" class="node">
<title>5</title>
<polygon fill="#f2f2f2" stroke="#000000" points="913.3923,-330.3 913.3923,-471.9 1286.7213,-471.9 1286.7213,-330.3 913.3923,-330.3"/>
<text text-anchor="middle" x="1100.0568" y="-455.3" font-family="Times,serif" font-size="14.00" fill="#000000">DetailedERC20</text>
<polyline fill="none" stroke="#000000" points="913.3923,-447.1 1286.7213,-447.1 "/>
<text text-anchor="start" x="921.3923" y="-430.5" font-family="Times,serif" font-size="14.00" fill="#000000">Public:</text>
<text text-anchor="start" x="921.3923" y="-413.7" font-family="Times,serif" font-size="14.00" fill="#000000"> &#160;&#160;name: string</text>
<text text-anchor="start" x="921.3923" y="-396.9" font-family="Times,serif" font-size="14.00" fill="#000000"> &#160;&#160;symbol: string</text>
<text text-anchor="start" x="921.3923" y="-380.1" font-family="Times,serif" font-size="14.00" fill="#000000"> &#160;&#160;decimals: uint8</text>
<polyline fill="none" stroke="#000000" points="913.3923,-371.9 1286.7213,-371.9 "/>
<text text-anchor="start" x="921.3923" y="-355.3" font-family="Times,serif" font-size="14.00" fill="#000000">Public:</text>
<text text-anchor="start" x="921.3923" y="-338.5" font-family="Times,serif" font-size="14.00" fill="#000000"> &#160;&#160;&#160;constructor(_name: string, _symbol: string, _decimals: uint8)</text>
</g>
<!-- 5&#45;&gt;3 -->
<g id="edge5" class="edge">
<title>5&#45;&gt;3</title>
<path fill="none" stroke="#000000" d="M1104.0432,-471.9683C1105.6358,-503.6615 1107.2753,-541.4911 1108.0568,-575.6 1111.7363,-736.2004 1109.5592,-922.2592 1107.4633,-1037.2807"/>
<polygon fill="none" stroke="#000000" points="1096.9628,-1037.2097 1106.8863,-1067.4053 1117.959,-1037.6119 1096.9628,-1037.2097"/>
</g>
<!-- 7 -->
<g id="node8" class="node">
<title>7</title>
<polygon fill="#f2f2f2" stroke="#000000" points="0,-601.3 0,-742.9 306.1136,-742.9 306.1136,-601.3 0,-601.3"/>
<text text-anchor="middle" x="153.0568" y="-726.3" font-family="Times,serif" font-size="14.00" fill="#000000">BurnableToken</text>
<polyline fill="none" stroke="#000000" points="0,-718.1 306.1136,-718.1 "/>
<text text-anchor="middle" x="153.0568" y="-701.5" font-family="Times,serif" font-size="14.00" fill="#000000"> </text>
<polyline fill="none" stroke="#000000" points="0,-693.3 306.1136,-693.3 "/>
<text text-anchor="start" x="8" y="-676.7" font-family="Times,serif" font-size="14.00" fill="#000000">Internal:</text>
<text text-anchor="start" x="8" y="-659.9" font-family="Times,serif" font-size="14.00" fill="#000000"> &#160;&#160;&#160;_burn(_who: address, _value: uint256)</text>
<text text-anchor="start" x="8" y="-643.1" font-family="Times,serif" font-size="14.00" fill="#000000">Public:</text>
<text text-anchor="start" x="8" y="-626.3" font-family="Times,serif" font-size="14.00" fill="#000000"> &#160;&#160;&#160;&lt;&lt;event&gt;&gt; Burn(burner: address, value: uint256)</text>
<text text-anchor="start" x="8" y="-609.5" font-family="Times,serif" font-size="14.00" fill="#000000"> &#160;&#160;&#160;burn(_value: uint256)</text>
</g>
<!-- 7&#45;&gt;6 -->
<g id="edge6" class="edge">
<title>7&#45;&gt;6</title>
<path fill="none" stroke="#000000" d="M162.902,-742.9258C173.7263,-820.7951 191.2505,-946.8633 203.8448,-1037.4659"/>
<polygon fill="none" stroke="#000000" points="193.4619,-1039.0351 207.9925,-1067.3037 214.2619,-1036.1438 193.4619,-1039.0351"/>
</g>
<!-- 8 -->
<g id="node9" class="node">
<title>8</title>
<polygon fill="#f2f2f2" stroke="#000000" points="334.7141,-813.5 334.7141,-988.7 741.3995,-988.7 741.3995,-813.5 334.7141,-813.5"/>
<text text-anchor="middle" x="538.0568" y="-972.1" font-family="Times,serif" font-size="14.00" fill="#000000">StandardToken</text>
<polyline fill="none" stroke="#000000" points="334.7141,-963.9 741.3995,-963.9 "/>
<text text-anchor="start" x="342.7141" y="-947.3" font-family="Times,serif" font-size="14.00" fill="#000000">Internal:</text>
<text text-anchor="start" x="342.7141" y="-930.5" font-family="Times,serif" font-size="14.00" fill="#000000"> &#160;&#160;allowed: mapping(address=&gt;mapping(address=&gt;uint256))</text>
<polyline fill="none" stroke="#000000" points="334.7141,-922.3 741.3995,-922.3 "/>
<text text-anchor="start" x="342.7141" y="-905.7" font-family="Times,serif" font-size="14.00" fill="#000000">Public:</text>
<text text-anchor="start" x="342.7141" y="-888.9" font-family="Times,serif" font-size="14.00" fill="#000000"> &#160;&#160;&#160;transferFrom(_from: address, _to: address, _value: uint256): bool</text>
<text text-anchor="start" x="342.7141" y="-872.1" font-family="Times,serif" font-size="14.00" fill="#000000"> &#160;&#160;&#160;approve(_spender: address, _value: uint256): bool</text>
<text text-anchor="start" x="342.7141" y="-855.3" font-family="Times,serif" font-size="14.00" fill="#000000"> &#160;&#160;&#160;allowance(_owner: address, _spender: address): uint256</text>
<text text-anchor="start" x="342.7141" y="-838.5" font-family="Times,serif" font-size="14.00" fill="#000000"> &#160;&#160;&#160;increaseApproval(_spender: address, _addedValue: uint): bool</text>
<text text-anchor="start" x="342.7141" y="-821.7" font-family="Times,serif" font-size="14.00" fill="#000000"> &#160;&#160;&#160;decreaseApproval(_spender: address, _subtractedValue: uint): bool</text>
</g>
<!-- 8&#45;&gt;6 -->
<g id="edge8" class="edge">
<title>8&#45;&gt;6</title>
<path fill="none" stroke="#000000" d="M424.2544,-988.7611C404.8365,-1003.7205 384.8675,-1019.1055 366.0568,-1033.6 359.4686,-1038.6765 352.7145,-1043.8812 345.8949,-1049.1366"/>
<polygon fill="none" stroke="#000000" points="339.2132,-1041.0296 321.8604,-1067.6591 352.0321,-1057.6632 339.2132,-1041.0296"/>
</g>
<!-- 8&#45;&gt;3 -->
<g id="edge7" class="edge">
<title>8&#45;&gt;3</title>
<path fill="none" stroke="#000000" d="M727.3801,-988.7458C735.0073,-991.8101 742.5867,-994.7742 750.0568,-997.6 801.3411,-1016.9995 816.9569,-1013.7198 868.0568,-1033.6 885.2106,-1040.2736 902.8462,-1047.659 920.3854,-1055.3659"/>
<polygon fill="none" stroke="#000000" points="916.1172,-1064.9593 947.7845,-1067.6853 924.729,-1045.8063 916.1172,-1064.9593"/>
</g>
<!-- 9 -->
<g id="node10" class="node">
<title>9</title>
<polygon fill="#f2f2f2" stroke="#000000" points="633.3694,-592.9 633.3694,-751.3 1098.7442,-751.3 1098.7442,-592.9 633.3694,-592.9"/>
<text text-anchor="middle" x="866.0568" y="-734.7" font-family="Times,serif" font-size="14.00" fill="#000000">PausableToken</text>
<polyline fill="none" stroke="#000000" points="633.3694,-726.5 1098.7442,-726.5 "/>
<text text-anchor="middle" x="866.0568" y="-709.9" font-family="Times,serif" font-size="14.00" fill="#000000"> </text>
<polyline fill="none" stroke="#000000" points="633.3694,-701.7 1098.7442,-701.7 "/>
<text text-anchor="start" x="641.3694" y="-685.1" font-family="Times,serif" font-size="14.00" fill="#000000">Public:</text>
<text text-anchor="start" x="641.3694" y="-668.3" font-family="Times,serif" font-size="14.00" fill="#000000"> &#160;&#160;&#160;transfer(_to: address, _value: uint256): bool</text>
<text text-anchor="start" x="641.3694" y="-651.5" font-family="Times,serif" font-size="14.00" fill="#000000"> &#160;&#160;&#160;transferFrom(_from: address, _to: address, _value: uint256): bool</text>
<text text-anchor="start" x="641.3694" y="-634.7" font-family="Times,serif" font-size="14.00" fill="#000000"> &#160;&#160;&#160;approve(_spender: address, _value: uint256): bool</text>
<text text-anchor="start" x="641.3694" y="-617.9" font-family="Times,serif" font-size="14.00" fill="#000000"> &#160;&#160;&#160;increaseApproval(_spender: address, _addedValue: uint): (success: bool)</text>
<text text-anchor="start" x="641.3694" y="-601.1" font-family="Times,serif" font-size="14.00" fill="#000000"> &#160;&#160;&#160;decreaseApproval(_spender: address, _subtractedValue: uint): (success: bool)</text>
</g>
<!-- 9&#45;&gt;4 -->
<g id="edge10" class="edge">
<title>9&#45;&gt;4</title>
<path fill="none" stroke="#000000" d="M866.0568,-751.5504C866.0568,-759.0671 866.0568,-766.8069 866.0568,-774.6219"/>
<polygon fill="none" stroke="#000000" points="855.5569,-774.8246 866.0568,-804.8246 876.5569,-774.8246 855.5569,-774.8246"/>
</g>
<!-- 9&#45;&gt;8 -->
<g id="edge9" class="edge">
<title>9&#45;&gt;8</title>
<path fill="none" stroke="#000000" d="M752.2588,-751.5504C731.7121,-765.8956 710.0018,-781.053 688.5993,-795.9956"/>
<polygon fill="none" stroke="#000000" points="682.2915,-787.5936 663.7042,-813.3767 694.3131,-804.8123 682.2915,-787.5936"/>
</g>
<!-- 10 -->
<g id="node11" class="node">
<title>10</title>
<polygon fill="#f2f2f2" stroke="#000000" points="324.3703,-576.1 324.3703,-768.1 615.7433,-768.1 615.7433,-576.1 324.3703,-576.1"/>
<text text-anchor="middle" x="470.0568" y="-751.5" font-family="Times,serif" font-size="14.00" fill="#000000">MintableToken</text>
<polyline fill="none" stroke="#000000" points="324.3703,-743.3 615.7433,-743.3 "/>
<text text-anchor="start" x="332.3703" y="-726.7" font-family="Times,serif" font-size="14.00" fill="#000000">Public:</text>
<text text-anchor="start" x="332.3703" y="-709.9" font-family="Times,serif" font-size="14.00" fill="#000000"> &#160;&#160;mintingFinished: bool</text>
<polyline fill="none" stroke="#000000" points="324.3703,-701.7 615.7433,-701.7 "/>
<text text-anchor="start" x="332.3703" y="-685.1" font-family="Times,serif" font-size="14.00" fill="#000000">Public:</text>
<text text-anchor="start" x="332.3703" y="-668.3" font-family="Times,serif" font-size="14.00" fill="#000000"> &#160;&#160;&#160;&lt;&lt;event&gt;&gt; Mint(to: address, amount: uint256)</text>
<text text-anchor="start" x="332.3703" y="-651.5" font-family="Times,serif" font-size="14.00" fill="#000000"> &#160;&#160;&#160;&lt;&lt;event&gt;&gt; MintFinished()</text>
<text text-anchor="start" x="332.3703" y="-634.7" font-family="Times,serif" font-size="14.00" fill="#000000"> &#160;&#160;&#160;&lt;&lt;modifier&gt;&gt; canMint()</text>
<text text-anchor="start" x="332.3703" y="-617.9" font-family="Times,serif" font-size="14.00" fill="#000000"> &#160;&#160;&#160;&lt;&lt;modifier&gt;&gt; hasMintPermission()</text>
<text text-anchor="start" x="332.3703" y="-601.1" font-family="Times,serif" font-size="14.00" fill="#000000"> &#160;&#160;&#160;mint(_to: address, _amount: uint256): bool</text>
<text text-anchor="start" x="332.3703" y="-584.3" font-family="Times,serif" font-size="14.00" fill="#000000"> &#160;&#160;&#160;finishMinting(): bool</text>
</g>
<!-- 10&#45;&gt;1 -->
<g id="edge12" class="edge">
<title>10&#45;&gt;1</title>
<path fill="none" stroke="#000000" d="M347.7971,-768.5029C339.151,-779.7768 331.6534,-791.8449 326.0568,-804.6 291.5912,-883.149 281.3405,-924.3997 326.0568,-997.6 329.1649,-1002.6879 339.0858,-1010.125 353.5005,-1019.0034"/>
<polygon fill="none" stroke="#000000" points="348.2847,-1028.1164 379.5178,-1034.0113 358.7778,-1009.9259 348.2847,-1028.1164"/>
</g>
<!-- 10&#45;&gt;8 -->
<g id="edge11" class="edge">
<title>10&#45;&gt;8</title>
<path fill="none" stroke="#000000" d="M498.5994,-768.2213C500.1929,-773.5877 501.8028,-779.0094 503.4147,-784.4377"/>
<polygon fill="none" stroke="#000000" points="493.3655,-787.4821 511.9709,-813.2521 513.4967,-781.5042 493.3655,-787.4821"/>
</g>
<!-- 11 -->
<g id="node12" class="node">
<title>11</title>
<polygon fill="#f2f2f2" stroke="#000000" points="498.549,-263.1 498.549,-539.1 895.5646,-539.1 895.5646,-263.1 498.549,-263.1"/>
<text text-anchor="middle" x="697.0568" y="-522.5" font-family="Times,serif" font-size="14.00" fill="#000000">WhitelistedPausableToken</text>
<polyline fill="none" stroke="#000000" points="498.549,-514.3 895.5646,-514.3 "/>
<text text-anchor="start" x="506.549" y="-497.7" font-family="Times,serif" font-size="14.00" fill="#000000">Public:</text>
<text text-anchor="start" x="506.549" y="-480.9" font-family="Times,serif" font-size="14.00" fill="#000000"> &#160;&#160;whitelistExpiration: uint256</text>
<text text-anchor="start" x="506.549" y="-464.1" font-family="Times,serif" font-size="14.00" fill="#000000"> &#160;&#160;allowedTransactors: mapping(address=&gt;bool)</text>
<polyline fill="none" stroke="#000000" points="498.549,-455.9 895.5646,-455.9 "/>
<text text-anchor="start" x="506.549" y="-439.3" font-family="Times,serif" font-size="14.00" fill="#000000">Public:</text>
<text text-anchor="start" x="506.549" y="-422.5" font-family="Times,serif" font-size="14.00" fill="#000000"> &#160;&#160;&#160;&lt;&lt;event&gt;&gt; SetWhitelistExpiration(expiration: uint256)</text>
<text text-anchor="start" x="506.549" y="-405.7" font-family="Times,serif" font-size="14.00" fill="#000000"> &#160;&#160;&#160;&lt;&lt;event&gt;&gt; AllowedTransactorAdded(sender: address)</text>
<text text-anchor="start" x="506.549" y="-388.9" font-family="Times,serif" font-size="14.00" fill="#000000"> &#160;&#160;&#160;&lt;&lt;event&gt;&gt; AllowedTransactorRemoved(sender: address)</text>
<text text-anchor="start" x="506.549" y="-372.1" font-family="Times,serif" font-size="14.00" fill="#000000"> &#160;&#160;&#160;&lt;&lt;modifier&gt;&gt; allowedTransfer(_from: address, _to: address)</text>
<text text-anchor="start" x="506.549" y="-355.3" font-family="Times,serif" font-size="14.00" fill="#000000"> &#160;&#160;&#160;whitelistActive(): bool</text>
<text text-anchor="start" x="506.549" y="-338.5" font-family="Times,serif" font-size="14.00" fill="#000000"> &#160;&#160;&#160;addAllowedTransactor(_transactor: address)</text>
<text text-anchor="start" x="506.549" y="-321.7" font-family="Times,serif" font-size="14.00" fill="#000000"> &#160;&#160;&#160;removeAllowedTransactor(_transactor: address)</text>
<text text-anchor="start" x="506.549" y="-304.9" font-family="Times,serif" font-size="14.00" fill="#000000"> &#160;&#160;&#160;setWhitelistExpiration(_expiration: uint256)</text>
<text text-anchor="start" x="506.549" y="-288.1" font-family="Times,serif" font-size="14.00" fill="#000000"> &#160;&#160;&#160;transfer(_to: address, _value: uint256): bool</text>
<text text-anchor="start" x="506.549" y="-271.3" font-family="Times,serif" font-size="14.00" fill="#000000"> &#160;&#160;&#160;transferFrom(_from: address, _to: address, _value: uint256): bool</text>
</g>
<!-- 11&#45;&gt;9 -->
<g id="edge13" class="edge">
<title>11&#45;&gt;9</title>
<path fill="none" stroke="#000000" d="M783.2896,-539.3786C789.0749,-548.6557 794.8494,-557.9154 800.5046,-566.9837"/>
<polygon fill="none" stroke="#000000" points="791.7285,-572.7539 816.5127,-592.6535 809.5475,-561.6416 791.7285,-572.7539"/>
</g>
<!-- 12 -->
<g id="node13" class="node">
<title>12</title>
<polygon fill="#f2f2f2" stroke="#000000" points="224.1384,-.5 224.1384,-226.1 941.9752,-226.1 941.9752,-.5 224.1384,-.5"/>
<text text-anchor="middle" x="583.0568" y="-209.5" font-family="Times,serif" font-size="14.00" fill="#000000">OriginToken</text>
<polyline fill="none" stroke="#000000" points="224.1384,-201.3 941.9752,-201.3 "/>
<text text-anchor="start" x="232.1384" y="-184.7" font-family="Times,serif" font-size="14.00" fill="#000000">Public:</text>
<text text-anchor="start" x="232.1384" y="-167.9" font-family="Times,serif" font-size="14.00" fill="#000000"> &#160;&#160;callSpenderWhitelist: mapping(address=&gt;bool)</text>
<polyline fill="none" stroke="#000000" points="224.1384,-159.7 941.9752,-159.7 "/>
<text text-anchor="start" x="232.1384" y="-143.1" font-family="Times,serif" font-size="14.00" fill="#000000">Public:</text>
<text text-anchor="start" x="232.1384" y="-126.3" font-family="Times,serif" font-size="14.00" fill="#000000"> &#160;&#160;&#160;&lt;&lt;payable&gt;&gt; approveAndCallWithSender(_spender: address, _value: uint256, _selector: bytes4, _callParams: bytes): bool</text>
<text text-anchor="start" x="232.1384" y="-109.5" font-family="Times,serif" font-size="14.00" fill="#000000"> &#160;&#160;&#160;&lt;&lt;event&gt;&gt; AddCallSpenderWhitelist(enabler: address, spender: address)</text>
<text text-anchor="start" x="232.1384" y="-92.7" font-family="Times,serif" font-size="14.00" fill="#000000"> &#160;&#160;&#160;&lt;&lt;event&gt;&gt; RemoveCallSpenderWhitelist(disabler: address, spender: address)</text>
<text text-anchor="start" x="232.1384" y="-75.9" font-family="Times,serif" font-size="14.00" fill="#000000"> &#160;&#160;&#160;constructor(_initialSupply: uint256)</text>
<text text-anchor="start" x="232.1384" y="-59.1" font-family="Times,serif" font-size="14.00" fill="#000000"> &#160;&#160;&#160;burn(_value: uint256)</text>
<text text-anchor="start" x="232.1384" y="-42.3" font-family="Times,serif" font-size="14.00" fill="#000000"> &#160;&#160;&#160;burn(_who: address, _value: uint256)</text>
<text text-anchor="start" x="232.1384" y="-25.5" font-family="Times,serif" font-size="14.00" fill="#000000"> &#160;&#160;&#160;addCallSpenderWhitelist(_spender: address)</text>
<text text-anchor="start" x="232.1384" y="-8.7" font-family="Times,serif" font-size="14.00" fill="#000000"> &#160;&#160;&#160;removeCallSpenderWhitelist(_spender: address)</text>
</g>
<!-- 12&#45;&gt;5 -->
<g id="edge17" class="edge">
<title>12&#45;&gt;5</title>
<path fill="none" stroke="#000000" d="M837.9726,-226.1607C860.9404,-237.9248 883.6059,-250.1504 905.0568,-262.6 931.0495,-277.6856 957.9311,-295.3114 983.1214,-312.8353"/>
<polygon fill="none" stroke="#000000" points="977.1062,-321.4418 1007.6524,-330.2273 989.252,-304.3105 977.1062,-321.4418"/>
</g>
<!-- 12&#45;&gt;7 -->
<g id="edge14" class="edge">
<title>12&#45;&gt;7</title>
<path fill="none" stroke="#000000" d="M484.6855,-226.2896C474.5551,-238.444 464.5164,-250.711 455.0568,-262.6 371.4437,-367.6863 280.6369,-492.3726 220.6661,-576.3219"/>
<polygon fill="none" stroke="#000000" points="211.9402,-570.474 203.0866,-601.0005 229.0443,-582.658 211.9402,-570.474"/>
</g>
<!-- 12&#45;&gt;10 -->
<g id="edge15" class="edge">
<title>12&#45;&gt;10</title>
<path fill="none" stroke="#000000" d="M503.8933,-226.1317C498.0278,-238.0606 492.9093,-250.3259 489.0568,-262.6 460.2834,-354.2724 456.5736,-463.1403 459.4946,-545.5731"/>
<polygon fill="none" stroke="#000000" points="449.0171,-546.3015 460.9003,-575.781 469.9944,-545.3253 449.0171,-546.3015"/>
</g>
<!-- 12&#45;&gt;11 -->
<g id="edge16" class="edge">
<title>12&#45;&gt;11</title>
<path fill="none" stroke="#000000" d="M627.7854,-226.2202C628.8965,-229.0252 630.0142,-231.8468 631.1366,-234.6803"/>
<polygon fill="none" stroke="#000000" points="621.4144,-238.6481 642.2246,-262.6728 640.9385,-230.9144 621.4144,-238.6481"/>
</g>
</g>
</svg>
