<?xml version="1.0" encoding="UTF-8" standalone="no"?>
<!DOCTYPE svg PUBLIC "-//W3C//DTD SVG 1.1//EN"
 "http://www.w3.org/Graphics/SVG/1.1/DTD/svg11.dtd">
<!-- Generated by graphviz version 2.40.1 (20161225.0304)
 -->
<!-- Title: UmlClassDiagram Pages: 1 -->
<svg width="1274pt" height="1144pt"
 viewBox="0.00 0.00 1274.49 1144.40" xmlns="http://www.w3.org/2000/svg" xmlns:xlink="http://www.w3.org/1999/xlink">
<g id="graph0" class="graph" transform="scale(1 1) rotate(0) translate(4 1140.4)">
<title>UmlClassDiagram</title>
<polygon fill="#ffffff" stroke="transparent" points="-4,4 -4,-1140.4 1270.4938,-1140.4 1270.4938,4 -4,4"/>
<!-- 6 -->
<g id="node1" class="node">
<title>6</title>
<polygon fill="#f2f2f2" stroke="#000000" points="323.7141,-494.3 323.7141,-669.5 730.3995,-669.5 730.3995,-494.3 323.7141,-494.3"/>
<text text-anchor="middle" x="527.0568" y="-652.9" font-family="Times,serif" font-size="14.00" fill="#000000">StandardToken</text>
<polyline fill="none" stroke="#000000" points="323.7141,-644.7 730.3995,-644.7 "/>
<text text-anchor="start" x="331.7141" y="-628.1" font-family="Times,serif" font-size="14.00" fill="#000000">Internal:</text>
<text text-anchor="start" x="331.7141" y="-611.3" font-family="Times,serif" font-size="14.00" fill="#000000"> &#160;&#160;allowed: mapping(address=&gt;mapping(address=&gt;uint256))</text>
<polyline fill="none" stroke="#000000" points="323.7141,-603.1 730.3995,-603.1 "/>
<text text-anchor="start" x="331.7141" y="-586.5" font-family="Times,serif" font-size="14.00" fill="#000000">Public:</text>
<text text-anchor="start" x="331.7141" y="-569.7" font-family="Times,serif" font-size="14.00" fill="#000000"> &#160;&#160;&#160;transferFrom(_from: address, _to: address, _value: uint256): bool</text>
<text text-anchor="start" x="331.7141" y="-552.9" font-family="Times,serif" font-size="14.00" fill="#000000"> &#160;&#160;&#160;approve(_spender: address, _value: uint256): bool</text>
<text text-anchor="start" x="331.7141" y="-536.1" font-family="Times,serif" font-size="14.00" fill="#000000"> &#160;&#160;&#160;allowance(_owner: address, _spender: address): uint256</text>
<text text-anchor="start" x="331.7141" y="-519.3" font-family="Times,serif" font-size="14.00" fill="#000000"> &#160;&#160;&#160;increaseApproval(_spender: address, _addedValue: uint): bool</text>
<text text-anchor="start" x="331.7141" y="-502.5" font-family="Times,serif" font-size="14.00" fill="#000000"> &#160;&#160;&#160;decreaseApproval(_spender: address, _subtractedValue: uint): bool</text>
</g>
<!-- 2 -->
<g id="node3" class="node">
<title>2</title>
<polygon fill="#f2f2f2" stroke="#000000" points="308.7447,-748.5 308.7447,-906.9 763.3689,-906.9 763.3689,-748.5 308.7447,-748.5"/>
<text text-anchor="middle" x="536.0568" y="-890.3" font-family="Times,serif" font-size="14.00" fill="#000000">&lt;&lt;Abstract&gt;&gt;</text>
<text text-anchor="middle" x="536.0568" y="-873.5" font-family="Times,serif" font-size="14.00" fill="#000000">ERC20</text>
<polyline fill="none" stroke="#000000" points="308.7447,-865.3 763.3689,-865.3 "/>
<text text-anchor="middle" x="536.0568" y="-848.7" font-family="Times,serif" font-size="14.00" fill="#000000"> </text>
<polyline fill="none" stroke="#000000" points="308.7447,-840.5 763.3689,-840.5 "/>
<text text-anchor="start" x="316.7447" y="-823.9" font-family="Times,serif" font-size="14.00" fill="#000000">Public:</text>
<text text-anchor="start" x="316.7447" y="-807.1" font-family="Times,serif" font-size="14.00" fill="#000000"> &#160;&#160;&#160;&lt;&lt;abstract&gt;&gt; allowance(owner: address, spender: address): uint256</text>
<text text-anchor="start" x="316.7447" y="-790.3" font-family="Times,serif" font-size="14.00" fill="#000000"> &#160;&#160;&#160;&lt;&lt;abstract&gt;&gt; transferFrom(from: address, to: address, value: uint256): bool</text>
<text text-anchor="start" x="316.7447" y="-773.5" font-family="Times,serif" font-size="14.00" fill="#000000"> &#160;&#160;&#160;&lt;&lt;abstract&gt;&gt; approve(spender: address, value: uint256): bool</text>
<text text-anchor="start" x="316.7447" y="-756.7" font-family="Times,serif" font-size="14.00" fill="#000000"> &#160;&#160;&#160;&lt;&lt;event&gt;&gt; Approval(owner: address, spender: address, value: uint256)</text>
</g>
<!-- 6&#45;&gt;2 -->
<g id="edge1" class="edge">
<title>6&#45;&gt;2</title>
<path fill="none" stroke="#000000" d="M530.2679,-669.5984C530.8437,-685.3255 531.4503,-701.8924 532.0454,-718.1444"/>
<polygon fill="none" stroke="#000000" points="521.556,-718.6276 533.1468,-748.2233 542.5419,-717.8592 521.556,-718.6276"/>
</g>
<!-- 4 -->
<g id="node5" class="node">
<title>4</title>
<polygon fill="#f2f2f2" stroke="#000000" points="15.0066,-748.5 15.0066,-906.9 291.107,-906.9 291.107,-748.5 15.0066,-748.5"/>
<text text-anchor="middle" x="153.0568" y="-890.3" font-family="Times,serif" font-size="14.00" fill="#000000">BasicToken</text>
<polyline fill="none" stroke="#000000" points="15.0066,-882.1 291.107,-882.1 "/>
<text text-anchor="start" x="23.0066" y="-865.5" font-family="Times,serif" font-size="14.00" fill="#000000">Public:</text>
<text text-anchor="start" x="23.0066" y="-848.7" font-family="Times,serif" font-size="14.00" fill="#000000"> &#160;&#160;balances: mapping(address=&gt;uint256)</text>
<text text-anchor="start" x="23.0066" y="-831.9" font-family="Times,serif" font-size="14.00" fill="#000000"> &#160;&#160;totalSupply_: uint256</text>
<polyline fill="none" stroke="#000000" points="15.0066,-823.7 291.107,-823.7 "/>
<text text-anchor="start" x="23.0066" y="-807.1" font-family="Times,serif" font-size="14.00" fill="#000000">Public:</text>
<text text-anchor="start" x="23.0066" y="-790.3" font-family="Times,serif" font-size="14.00" fill="#000000"> &#160;&#160;&#160;totalSupply(): uint256</text>
<text text-anchor="start" x="23.0066" y="-773.5" font-family="Times,serif" font-size="14.00" fill="#000000"> &#160;&#160;&#160;transfer(_to: address, _value: uint256): bool</text>
<text text-anchor="start" x="23.0066" y="-756.7" font-family="Times,serif" font-size="14.00" fill="#000000"> &#160;&#160;&#160;balanceOf(_owner: address): uint256</text>
</g>
<!-- 6&#45;&gt;4 -->
<g id="edge2" class="edge">
<title>6&#45;&gt;4</title>
<path fill="none" stroke="#000000" d="M370.6512,-669.6377C346.6915,-684.0945 322.4853,-699.3016 300.0568,-714.4 292.4828,-719.4987 284.7845,-724.8567 277.0822,-730.3543"/>
<polygon fill="none" stroke="#000000" points="270.6375,-722.059 252.6161,-748.2407 283.0312,-739.0118 270.6375,-722.059"/>
</g>
<!-- 0 -->
<g id="node2" class="node">
<title>0</title>
<polygon fill="#f2f2f2" stroke="#000000" points="25.6774,-977.5 25.6774,-1135.9 280.4362,-1135.9 280.4362,-977.5 25.6774,-977.5"/>
<text text-anchor="middle" x="153.0568" y="-1119.3" font-family="Times,serif" font-size="14.00" fill="#000000">&lt;&lt;Library&gt;&gt;</text>
<text text-anchor="middle" x="153.0568" y="-1102.5" font-family="Times,serif" font-size="14.00" fill="#000000">SafeMath</text>
<polyline fill="none" stroke="#000000" points="25.6774,-1094.3 280.4362,-1094.3 "/>
<text text-anchor="middle" x="153.0568" y="-1077.7" font-family="Times,serif" font-size="14.00" fill="#000000"> </text>
<polyline fill="none" stroke="#000000" points="25.6774,-1069.5 280.4362,-1069.5 "/>
<text text-anchor="start" x="33.6774" y="-1052.9" font-family="Times,serif" font-size="14.00" fill="#000000">Internal:</text>
<text text-anchor="start" x="33.6774" y="-1036.1" font-family="Times,serif" font-size="14.00" fill="#000000"> &#160;&#160;&#160;mul(a: uint256, b: uint256): (c: uint256)</text>
<text text-anchor="start" x="33.6774" y="-1019.3" font-family="Times,serif" font-size="14.00" fill="#000000"> &#160;&#160;&#160;div(a: uint256, b: uint256): uint256</text>
<text text-anchor="start" x="33.6774" y="-1002.5" font-family="Times,serif" font-size="14.00" fill="#000000"> &#160;&#160;&#160;sub(a: uint256, b: uint256): uint256</text>
<text text-anchor="start" x="33.6774" y="-985.7" font-family="Times,serif" font-size="14.00" fill="#000000"> &#160;&#160;&#160;add(a: uint256, b: uint256): (c: uint256)</text>
</g>
<!-- 1 -->
<g id="node7" class="node">
<title>1</title>
<polygon fill="#f2f2f2" stroke="#000000" points="321.3264,-977.5 321.3264,-1135.9 704.7872,-1135.9 704.7872,-977.5 321.3264,-977.5"/>
<text text-anchor="middle" x="513.0568" y="-1119.3" font-family="Times,serif" font-size="14.00" fill="#000000">&lt;&lt;Abstract&gt;&gt;</text>
<text text-anchor="middle" x="513.0568" y="-1102.5" font-family="Times,serif" font-size="14.00" fill="#000000">ERC20Basic</text>
<polyline fill="none" stroke="#000000" points="321.3264,-1094.3 704.7872,-1094.3 "/>
<text text-anchor="middle" x="513.0568" y="-1077.7" font-family="Times,serif" font-size="14.00" fill="#000000"> </text>
<polyline fill="none" stroke="#000000" points="321.3264,-1069.5 704.7872,-1069.5 "/>
<text text-anchor="start" x="329.3264" y="-1052.9" font-family="Times,serif" font-size="14.00" fill="#000000">Public:</text>
<text text-anchor="start" x="329.3264" y="-1036.1" font-family="Times,serif" font-size="14.00" fill="#000000"> &#160;&#160;&#160;&lt;&lt;abstract&gt;&gt; totalSupply(): uint256</text>
<text text-anchor="start" x="329.3264" y="-1019.3" font-family="Times,serif" font-size="14.00" fill="#000000"> &#160;&#160;&#160;&lt;&lt;abstract&gt;&gt; balanceOf(who: address): uint256</text>
<text text-anchor="start" x="329.3264" y="-1002.5" font-family="Times,serif" font-size="14.00" fill="#000000"> &#160;&#160;&#160;&lt;&lt;abstract&gt;&gt; transfer(to: address, value: uint256): bool</text>
<text text-anchor="start" x="329.3264" y="-985.7" font-family="Times,serif" font-size="14.00" fill="#000000"> &#160;&#160;&#160;&lt;&lt;event&gt;&gt; Transfer(from: address, to: address, value: uint256)</text>
</g>
<!-- 2&#45;&gt;1 -->
<g id="edge3" class="edge">
<title>2&#45;&gt;1</title>
<path fill="none" stroke="#000000" d="M528.0771,-907.1504C526.7747,-920.1169 525.4058,-933.7472 524.0463,-947.2825"/>
<polygon fill="none" stroke="#000000" points="513.5731,-946.4909 521.0224,-977.39 534.468,-948.5896 513.5731,-946.4909"/>
</g>
<!-- 3 -->
<g id="node4" class="node">
<title>3</title>
<polygon fill="#f2f2f2" stroke="#000000" points="781.6198,-714.9 781.6198,-940.5 1266.4938,-940.5 1266.4938,-714.9 781.6198,-714.9"/>
<text text-anchor="middle" x="1024.0568" y="-923.9" font-family="Times,serif" font-size="14.00" fill="#000000">Ownable</text>
<polyline fill="none" stroke="#000000" points="781.6198,-915.7 1266.4938,-915.7 "/>
<text text-anchor="start" x="789.6198" y="-899.1" font-family="Times,serif" font-size="14.00" fill="#000000">Public:</text>
<text text-anchor="start" x="789.6198" y="-882.3" font-family="Times,serif" font-size="14.00" fill="#000000"> &#160;&#160;owner: address</text>
<polyline fill="none" stroke="#000000" points="781.6198,-874.1 1266.4938,-874.1 "/>
<text text-anchor="start" x="789.6198" y="-857.5" font-family="Times,serif" font-size="14.00" fill="#000000">Internal:</text>
<text text-anchor="start" x="789.6198" y="-840.7" font-family="Times,serif" font-size="14.00" fill="#000000"> &#160;&#160;&#160;_transferOwnership(_newOwner: address)</text>
<text text-anchor="start" x="789.6198" y="-823.9" font-family="Times,serif" font-size="14.00" fill="#000000">Public:</text>
<text text-anchor="start" x="789.6198" y="-807.1" font-family="Times,serif" font-size="14.00" fill="#000000"> &#160;&#160;&#160;&lt;&lt;event&gt;&gt; OwnershipRenounced(previousOwner: address)</text>
<text text-anchor="start" x="789.6198" y="-790.3" font-family="Times,serif" font-size="14.00" fill="#000000"> &#160;&#160;&#160;&lt;&lt;event&gt;&gt; OwnershipTransferred(previousOwner: address, newOwner: address)</text>
<text text-anchor="start" x="789.6198" y="-773.5" font-family="Times,serif" font-size="14.00" fill="#000000"> &#160;&#160;&#160;&lt;&lt;modifier&gt;&gt; onlyOwner()</text>
<text text-anchor="start" x="789.6198" y="-756.7" font-family="Times,serif" font-size="14.00" fill="#000000"> &#160;&#160;&#160;constructor()</text>
<text text-anchor="start" x="789.6198" y="-739.9" font-family="Times,serif" font-size="14.00" fill="#000000"> &#160;&#160;&#160;renounceOwnership()</text>
<text text-anchor="start" x="789.6198" y="-723.1" font-family="Times,serif" font-size="14.00" fill="#000000"> &#160;&#160;&#160;transferOwnership(_newOwner: address)</text>
</g>
<!-- 4&#45;&gt;0 -->
<g id="edge5" class="edge">
<title>4&#45;&gt;0</title>
<path fill="none" stroke="#000000" stroke-dasharray="5,2" d="M153.0568,-907.1504C153.0568,-926.5114 153.0568,-947.3521 153.0568,-967.1472"/>
<polygon fill="#000000" stroke="#000000" points="149.5569,-967.39 153.0568,-977.39 156.5569,-967.3901 149.5569,-967.39"/>
</g>
<!-- 4&#45;&gt;1 -->
<g id="edge4" class="edge">
<title>4&#45;&gt;1</title>
<path fill="none" stroke="#000000" d="M251.527,-906.9945C267.4511,-918.8211 283.9902,-930.5395 300.0568,-941 310.9178,-948.0712 322.2482,-955.1156 333.7779,-962.0371"/>
<polygon fill="none" stroke="#000000" points="328.8687,-971.3302 360.0621,-977.4317 339.482,-953.2095 328.8687,-971.3302"/>
</g>
<!-- 5 -->
<g id="node6" class="node">
<title>5</title>
<polygon fill="#f2f2f2" stroke="#000000" points="0,-511.1 0,-652.7 306.1136,-652.7 306.1136,-511.1 0,-511.1"/>
<text text-anchor="middle" x="153.0568" y="-636.1" font-family="Times,serif" font-size="14.00" fill="#000000">BurnableToken</text>
<polyline fill="none" stroke="#000000" points="0,-627.9 306.1136,-627.9 "/>
<text text-anchor="middle" x="153.0568" y="-611.3" font-family="Times,serif" font-size="14.00" fill="#000000"> </text>
<polyline fill="none" stroke="#000000" points="0,-603.1 306.1136,-603.1 "/>
<text text-anchor="start" x="8" y="-586.5" font-family="Times,serif" font-size="14.00" fill="#000000">Internal:</text>
<text text-anchor="start" x="8" y="-569.7" font-family="Times,serif" font-size="14.00" fill="#000000"> &#160;&#160;&#160;_burn(_who: address, _value: uint256)</text>
<text text-anchor="start" x="8" y="-552.9" font-family="Times,serif" font-size="14.00" fill="#000000">Public:</text>
<text text-anchor="start" x="8" y="-536.1" font-family="Times,serif" font-size="14.00" fill="#000000"> &#160;&#160;&#160;&lt;&lt;event&gt;&gt; Burn(burner: address, value: uint256)</text>
<text text-anchor="start" x="8" y="-519.3" font-family="Times,serif" font-size="14.00" fill="#000000"> &#160;&#160;&#160;burn(_value: uint256)</text>
</g>
<!-- 5&#45;&gt;4 -->
<g id="edge6" class="edge">
<title>5&#45;&gt;4</title>
<path fill="none" stroke="#000000" d="M153.0568,-652.9955C153.0568,-673.3495 153.0568,-696.0238 153.0568,-718.1172"/>
<polygon fill="none" stroke="#000000" points="142.5569,-718.1345 153.0568,-748.1345 163.5569,-718.1345 142.5569,-718.1345"/>
</g>
<!-- 7 -->
<g id="node8" class="node">
<title>7</title>
<polygon fill="#f2f2f2" stroke="#000000" points="109.3625,-324.1 109.3625,-415.3 382.7511,-415.3 382.7511,-324.1 109.3625,-324.1"/>
<text text-anchor="middle" x="246.0568" y="-398.7" font-family="Times,serif" font-size="14.00" fill="#000000">StandardBurnableToken</text>
<polyline fill="none" stroke="#000000" points="109.3625,-390.5 382.7511,-390.5 "/>
<text text-anchor="middle" x="246.0568" y="-373.9" font-family="Times,serif" font-size="14.00" fill="#000000"> </text>
<polyline fill="none" stroke="#000000" points="109.3625,-365.7 382.7511,-365.7 "/>
<text text-anchor="start" x="117.3625" y="-349.1" font-family="Times,serif" font-size="14.00" fill="#000000">Public:</text>
<text text-anchor="start" x="117.3625" y="-332.3" font-family="Times,serif" font-size="14.00" fill="#000000"> &#160;&#160;&#160;burnFrom(_from: address, _value: uint256)</text>
</g>
<!-- 7&#45;&gt;6 -->
<g id="edge8" class="edge">
<title>7&#45;&gt;6</title>
<path fill="none" stroke="#000000" d="M306.6837,-415.483C330.3875,-433.3832 358.6332,-454.7132 386.8624,-476.0308"/>
<polygon fill="none" stroke="#000000" points="380.7403,-484.5652 411.0086,-494.265 393.3956,-467.8068 380.7403,-484.5652"/>
</g>
<!-- 7&#45;&gt;5 -->
<g id="edge7" class="edge">
<title>7&#45;&gt;5</title>
<path fill="none" stroke="#000000" d="M225.9917,-415.483C217.2887,-435.3407 206.7359,-459.4194 196.3927,-483.0195"/>
<polygon fill="none" stroke="#000000" points="186.6711,-479.0437 184.2457,-510.7355 205.905,-487.4733 186.6711,-479.0437"/>
</g>
<!-- 8 -->
<g id="node9" class="node">
<title>8</title>
<polygon fill="#f2f2f2" stroke="#000000" points="400.3923,-298.9 400.3923,-440.5 773.7213,-440.5 773.7213,-298.9 400.3923,-298.9"/>
<text text-anchor="middle" x="587.0568" y="-423.9" font-family="Times,serif" font-size="14.00" fill="#000000">DetailedERC20</text>
<polyline fill="none" stroke="#000000" points="400.3923,-415.7 773.7213,-415.7 "/>
<text text-anchor="start" x="408.3923" y="-399.1" font-family="Times,serif" font-size="14.00" fill="#000000">Public:</text>
<text text-anchor="start" x="408.3923" y="-382.3" font-family="Times,serif" font-size="14.00" fill="#000000"> &#160;&#160;name: string</text>
<text text-anchor="start" x="408.3923" y="-365.5" font-family="Times,serif" font-size="14.00" fill="#000000"> &#160;&#160;symbol: string</text>
<text text-anchor="start" x="408.3923" y="-348.7" font-family="Times,serif" font-size="14.00" fill="#000000"> &#160;&#160;decimals: uint8</text>
<polyline fill="none" stroke="#000000" points="400.3923,-340.5 773.7213,-340.5 "/>
<text text-anchor="start" x="408.3923" y="-323.9" font-family="Times,serif" font-size="14.00" fill="#000000">Public:</text>
<text text-anchor="start" x="408.3923" y="-307.1" font-family="Times,serif" font-size="14.00" fill="#000000"> &#160;&#160;&#160;constructor(_name: string, _symbol: string, _decimals: uint8)</text>
</g>
<!-- 8&#45;&gt;2 -->
<g id="edge9" class="edge">
<title>8&#45;&gt;2</title>
<path fill="none" stroke="#000000" d="M705.319,-440.743C718.8984,-453.8626 730.8104,-468.7594 739.0568,-485.4 777.1444,-562.258 777.7766,-601.8585 739.0568,-678.4 729.8686,-696.5632 717.3148,-713.0559 702.9222,-727.8853"/>
<polygon fill="none" stroke="#000000" points="695.6044,-720.3508 680.6975,-748.4229 709.8567,-735.774 695.6044,-720.3508"/>
</g>
<!-- 9 -->
<g id="node10" class="node">
<title>9</title>
<polygon fill="#f2f2f2" stroke="#000000" points="917.2658,-485.9 917.2658,-677.9 1130.8478,-677.9 1130.8478,-485.9 917.2658,-485.9"/>
<text text-anchor="middle" x="1024.0568" y="-661.3" font-family="Times,serif" font-size="14.00" fill="#000000">Pausable</text>
<polyline fill="none" stroke="#000000" points="917.2658,-653.1 1130.8478,-653.1 "/>
<text text-anchor="start" x="925.2658" y="-636.5" font-family="Times,serif" font-size="14.00" fill="#000000">Public:</text>
<text text-anchor="start" x="925.2658" y="-619.7" font-family="Times,serif" font-size="14.00" fill="#000000"> &#160;&#160;paused: bool</text>
<polyline fill="none" stroke="#000000" points="917.2658,-611.5 1130.8478,-611.5 "/>
<text text-anchor="start" x="925.2658" y="-594.9" font-family="Times,serif" font-size="14.00" fill="#000000">Public:</text>
<text text-anchor="start" x="925.2658" y="-578.1" font-family="Times,serif" font-size="14.00" fill="#000000"> &#160;&#160;&#160;&lt;&lt;event&gt;&gt; Pause()</text>
<text text-anchor="start" x="925.2658" y="-561.3" font-family="Times,serif" font-size="14.00" fill="#000000"> &#160;&#160;&#160;&lt;&lt;event&gt;&gt; Unpause()</text>
<text text-anchor="start" x="925.2658" y="-544.5" font-family="Times,serif" font-size="14.00" fill="#000000"> &#160;&#160;&#160;&lt;&lt;modifier&gt;&gt; whenNotPaused()</text>
<text text-anchor="start" x="925.2658" y="-527.7" font-family="Times,serif" font-size="14.00" fill="#000000"> &#160;&#160;&#160;&lt;&lt;modifier&gt;&gt; whenPaused()</text>
<text text-anchor="start" x="925.2658" y="-510.9" font-family="Times,serif" font-size="14.00" fill="#000000"> &#160;&#160;&#160;pause()</text>
<text text-anchor="start" x="925.2658" y="-494.1" font-family="Times,serif" font-size="14.00" fill="#000000"> &#160;&#160;&#160;unpause()</text>
</g>
<!-- 9&#45;&gt;3 -->
<g id="edge10" class="edge">
<title>9&#45;&gt;3</title>
<path fill="none" stroke="#000000" d="M1024.0568,-677.9888C1024.0568,-680.1421 1024.0568,-682.3069 1024.0568,-684.4805"/>
<polygon fill="none" stroke="#000000" points="1013.5569,-684.5259 1024.0568,-714.5259 1034.5569,-684.5259 1013.5569,-684.5259"/>
</g>
<!-- 10 -->
<g id="node11" class="node">
<title>10</title>
<polygon fill="#f2f2f2" stroke="#000000" points="791.3694,-290.5 791.3694,-448.9 1256.7442,-448.9 1256.7442,-290.5 791.3694,-290.5"/>
<text text-anchor="middle" x="1024.0568" y="-432.3" font-family="Times,serif" font-size="14.00" fill="#000000">PausableToken</text>
<polyline fill="none" stroke="#000000" points="791.3694,-424.1 1256.7442,-424.1 "/>
<text text-anchor="middle" x="1024.0568" y="-407.5" font-family="Times,serif" font-size="14.00" fill="#000000"> </text>
<polyline fill="none" stroke="#000000" points="791.3694,-399.3 1256.7442,-399.3 "/>
<text text-anchor="start" x="799.3694" y="-382.7" font-family="Times,serif" font-size="14.00" fill="#000000">Public:</text>
<text text-anchor="start" x="799.3694" y="-365.9" font-family="Times,serif" font-size="14.00" fill="#000000"> &#160;&#160;&#160;transfer(_to: address, _value: uint256): bool</text>
<text text-anchor="start" x="799.3694" y="-349.1" font-family="Times,serif" font-size="14.00" fill="#000000"> &#160;&#160;&#160;transferFrom(_from: address, _to: address, _value: uint256): bool</text>
<text text-anchor="start" x="799.3694" y="-332.3" font-family="Times,serif" font-size="14.00" fill="#000000"> &#160;&#160;&#160;approve(_spender: address, _value: uint256): bool</text>
<text text-anchor="start" x="799.3694" y="-315.5" font-family="Times,serif" font-size="14.00" fill="#000000"> &#160;&#160;&#160;increaseApproval(_spender: address, _addedValue: uint): (success: bool)</text>
<text text-anchor="start" x="799.3694" y="-298.7" font-family="Times,serif" font-size="14.00" fill="#000000"> &#160;&#160;&#160;decreaseApproval(_spender: address, _subtractedValue: uint): (success: bool)</text>
</g>
<!-- 10&#45;&gt;6 -->
<g id="edge11" class="edge">
<title>10&#45;&gt;6</title>
<path fill="none" stroke="#000000" d="M838.2856,-449.0172C812.195,-460.1569 785.1174,-471.718 758.3088,-483.1643"/>
<polygon fill="none" stroke="#000000" points="753.9887,-473.5917 730.5213,-495.0284 762.2348,-492.905 753.9887,-473.5917"/>
</g>
<!-- 10&#45;&gt;9 -->
<g id="edge12" class="edge">
<title>10&#45;&gt;9</title>
<path fill="none" stroke="#000000" d="M1024.0568,-449.0172C1024.0568,-451.2686 1024.0568,-453.5372 1024.0568,-455.8186"/>
<polygon fill="none" stroke="#000000" points="1013.5569,-455.8367 1024.0568,-485.8367 1034.5569,-455.8368 1013.5569,-455.8367"/>
</g>
<!-- 11 -->
<g id="node12" class="node">
<title>11</title>
<polygon fill="#f2f2f2" stroke="#000000" points="282.7573,-128.7 282.7573,-253.5 891.3563,-253.5 891.3563,-128.7 282.7573,-128.7"/>
<text text-anchor="middle" x="587.0568" y="-236.9" font-family="Times,serif" font-size="14.00" fill="#000000">BaseERC20Token</text>
<polyline fill="none" stroke="#000000" points="282.7573,-228.7 891.3563,-228.7 "/>
<text text-anchor="middle" x="587.0568" y="-212.1" font-family="Times,serif" font-size="14.00" fill="#000000"> </text>
<polyline fill="none" stroke="#000000" points="282.7573,-203.9 891.3563,-203.9 "/>
<text text-anchor="start" x="290.7573" y="-187.3" font-family="Times,serif" font-size="14.00" fill="#000000">Internal:</text>
<text text-anchor="start" x="290.7573" y="-170.5" font-family="Times,serif" font-size="14.00" fill="#000000"> &#160;&#160;&#160;_burn(_from: address, _value: uint256)</text>
<text text-anchor="start" x="290.7573" y="-153.7" font-family="Times,serif" font-size="14.00" fill="#000000">Public:</text>
<text text-anchor="start" x="290.7573" y="-136.9" font-family="Times,serif" font-size="14.00" fill="#000000"> &#160;&#160;&#160;constructor(_initialAmount: uint256, _decimalUnits: uint8, _tokenName: string, _tokenSymbol: string)</text>
</g>
<!-- 11&#45;&gt;7 -->
<g id="edge13" class="edge">
<title>11&#45;&gt;7</title>
<path fill="none" stroke="#000000" d="M461.5098,-253.6244C438.0216,-265.5555 413.7333,-278.0514 391.0568,-290 379.1561,-296.2707 366.7574,-302.9141 354.4411,-309.584"/>
<polygon fill="none" stroke="#000000" points="349.1462,-300.5116 327.8356,-324.0936 359.2008,-318.9481 349.1462,-300.5116"/>
</g>
<!-- 11&#45;&gt;8 -->
<g id="edge15" class="edge">
<title>11&#45;&gt;8</title>
<path fill="none" stroke="#000000" d="M587.0568,-253.5656C587.0568,-258.4655 587.0568,-263.4843 587.0568,-268.5549"/>
<polygon fill="none" stroke="#000000" points="576.5569,-268.7157 587.0568,-298.7157 597.5569,-268.7157 576.5569,-268.7157"/>
</g>
<!-- 11&#45;&gt;10 -->
<g id="edge14" class="edge">
<title>11&#45;&gt;10</title>
<path fill="none" stroke="#000000" d="M739.8982,-253.5656C760.064,-261.8073 781.0523,-270.3851 802.0836,-278.9805"/>
<polygon fill="none" stroke="#000000" points="798.4577,-288.8417 830.2004,-290.4717 806.4025,-269.4025 798.4577,-288.8417"/>
</g>
<!-- 12 -->
<g id="node13" class="node">
<title>12</title>
<polygon fill="#f2f2f2" stroke="#000000" points="535.9081,-.5 535.9081,-91.7 638.2055,-91.7 638.2055,-.5 535.9081,-.5"/>
<text text-anchor="middle" x="587.0568" y="-75.1" font-family="Times,serif" font-size="14.00" fill="#000000">VidyCoin</text>
<polyline fill="none" stroke="#000000" points="535.9081,-66.9 638.2055,-66.9 "/>
<text text-anchor="middle" x="587.0568" y="-50.3" font-family="Times,serif" font-size="14.00" fill="#000000"> </text>
<polyline fill="none" stroke="#000000" points="535.9081,-42.1 638.2055,-42.1 "/>
<text text-anchor="start" x="543.9081" y="-25.5" font-family="Times,serif" font-size="14.00" fill="#000000">Public:</text>
<text text-anchor="start" x="543.9081" y="-8.7" font-family="Times,serif" font-size="14.00" fill="#000000"> &#160;&#160;&#160;constructor()</text>
</g>
<!-- 12&#45;&gt;11 -->
<g id="edge16" class="edge">
<title>12&#45;&gt;11</title>
<path fill="none" stroke="#000000" d="M587.0568,-91.9789C587.0568,-94.0661 587.0568,-96.1875 587.0568,-98.3347"/>
<polygon fill="none" stroke="#000000" points="576.5569,-98.5548 587.0568,-128.5549 597.5569,-98.5549 576.5569,-98.5548"/>
</g>
</g>
</svg>
