<?xml version="1.0" encoding="UTF-8" standalone="no"?>
<!DOCTYPE svg PUBLIC "-//W3C//DTD SVG 1.1//EN"
 "http://www.w3.org/Graphics/SVG/1.1/DTD/svg11.dtd">
<!-- Generated by graphviz version 2.40.1 (20161225.0304)
 -->
<!-- Title: UmlClassDiagram Pages: 1 -->
<svg width="1044pt" height="804pt"
 viewBox="0.00 0.00 1044.30 804.00" xmlns="http://www.w3.org/2000/svg" xmlns:xlink="http://www.w3.org/1999/xlink">
<g id="graph0" class="graph" transform="scale(1 1) rotate(0) translate(4 800)">
<title>UmlClassDiagram</title>
<polygon fill="#ffffff" stroke="transparent" points="-4,4 -4,-800 1040.3045,-800 1040.3045,4 -4,4"/>
<!-- 0 -->
<g id="node1" class="node">
<title>0</title>
<polygon fill="#f2f2f2" stroke="#000000" points="437.5912,-569.9 437.5912,-795.5 692.7476,-795.5 692.7476,-569.9 437.5912,-569.9"/>
<text text-anchor="middle" x="565.1694" y="-778.9" font-family="Times,serif" font-size="14.00" fill="#000000">&lt;&lt;Library&gt;&gt;</text>
<text text-anchor="middle" x="565.1694" y="-762.1" font-family="Times,serif" font-size="14.00" fill="#000000">SafeMath</text>
<polyline fill="none" stroke="#000000" points="437.5912,-753.9 692.7476,-753.9 "/>
<text text-anchor="middle" x="565.1694" y="-737.3" font-family="Times,serif" font-size="14.00" fill="#000000"> </text>
<polyline fill="none" stroke="#000000" points="437.5912,-729.1 692.7476,-729.1 "/>
<text text-anchor="start" x="445.5912" y="-712.5" font-family="Times,serif" font-size="14.00" fill="#000000">Internal:</text>
<text text-anchor="start" x="445.5912" y="-695.7" font-family="Times,serif" font-size="14.00" fill="#000000"> &#160;&#160;&#160;mul(a: uint, b: uint): uint</text>
<text text-anchor="start" x="445.5912" y="-678.9" font-family="Times,serif" font-size="14.00" fill="#000000"> &#160;&#160;&#160;div(a: uint, b: uint): uint</text>
<text text-anchor="start" x="445.5912" y="-662.1" font-family="Times,serif" font-size="14.00" fill="#000000"> &#160;&#160;&#160;sub(a: uint, b: uint): uint</text>
<text text-anchor="start" x="445.5912" y="-645.3" font-family="Times,serif" font-size="14.00" fill="#000000"> &#160;&#160;&#160;add(a: uint, b: uint): uint</text>
<text text-anchor="start" x="445.5912" y="-628.5" font-family="Times,serif" font-size="14.00" fill="#000000"> &#160;&#160;&#160;max64(a: uint64, b: uint64): uint64</text>
<text text-anchor="start" x="445.5912" y="-611.7" font-family="Times,serif" font-size="14.00" fill="#000000"> &#160;&#160;&#160;min64(a: uint64, b: uint64): uint64</text>
<text text-anchor="start" x="445.5912" y="-594.9" font-family="Times,serif" font-size="14.00" fill="#000000"> &#160;&#160;&#160;max256(a: uint256, b: uint256): uint256</text>
<text text-anchor="start" x="445.5912" y="-578.1" font-family="Times,serif" font-size="14.00" fill="#000000"> &#160;&#160;&#160;min256(a: uint256, b: uint256): uint256</text>
</g>
<!-- 1 -->
<g id="node2" class="node">
<title>1</title>
<polygon fill="#f2f2f2" stroke="#000000" points="39.939,-603.5 39.939,-761.9 402.3998,-761.9 402.3998,-603.5 39.939,-603.5"/>
<text text-anchor="middle" x="221.1694" y="-745.3" font-family="Times,serif" font-size="14.00" fill="#000000">&lt;&lt;Abstract&gt;&gt;</text>
<text text-anchor="middle" x="221.1694" y="-728.5" font-family="Times,serif" font-size="14.00" fill="#000000">ERC20Basic</text>
<polyline fill="none" stroke="#000000" points="39.939,-720.3 402.3998,-720.3 "/>
<text text-anchor="start" x="47.939" y="-703.7" font-family="Times,serif" font-size="14.00" fill="#000000">Public:</text>
<text text-anchor="start" x="47.939" y="-686.9" font-family="Times,serif" font-size="14.00" fill="#000000"> &#160;&#160;totalSupply: uint</text>
<polyline fill="none" stroke="#000000" points="39.939,-678.7 402.3998,-678.7 "/>
<text text-anchor="start" x="47.939" y="-662.1" font-family="Times,serif" font-size="14.00" fill="#000000">Public:</text>
<text text-anchor="start" x="47.939" y="-645.3" font-family="Times,serif" font-size="14.00" fill="#000000"> &#160;&#160;&#160;&lt;&lt;abstract&gt;&gt; balanceOf(who: address): uint</text>
<text text-anchor="start" x="47.939" y="-628.5" font-family="Times,serif" font-size="14.00" fill="#000000"> &#160;&#160;&#160;&lt;&lt;abstract&gt;&gt; transfer(to: address, value: uint)</text>
<text text-anchor="start" x="47.939" y="-611.7" font-family="Times,serif" font-size="14.00" fill="#000000"> &#160;&#160;&#160;&lt;&lt;event&gt;&gt; Transfer(from: address, to: address, value: uint)</text>
</g>
<!-- 2 -->
<g id="node3" class="node">
<title>2</title>
<polygon fill="#f2f2f2" stroke="#000000" points="0,-374.5 0,-532.9 408.3388,-532.9 408.3388,-374.5 0,-374.5"/>
<text text-anchor="middle" x="204.1694" y="-516.3" font-family="Times,serif" font-size="14.00" fill="#000000">&lt;&lt;Abstract&gt;&gt;</text>
<text text-anchor="middle" x="204.1694" y="-499.5" font-family="Times,serif" font-size="14.00" fill="#000000">ERC20</text>
<polyline fill="none" stroke="#000000" points="0,-491.3 408.3388,-491.3 "/>
<text text-anchor="middle" x="204.1694" y="-474.7" font-family="Times,serif" font-size="14.00" fill="#000000"> </text>
<polyline fill="none" stroke="#000000" points="0,-466.5 408.3388,-466.5 "/>
<text text-anchor="start" x="8" y="-449.9" font-family="Times,serif" font-size="14.00" fill="#000000">Public:</text>
<text text-anchor="start" x="8" y="-433.1" font-family="Times,serif" font-size="14.00" fill="#000000"> &#160;&#160;&#160;&lt;&lt;abstract&gt;&gt; allowance(owner: address, spender: address): uint</text>
<text text-anchor="start" x="8" y="-416.3" font-family="Times,serif" font-size="14.00" fill="#000000"> &#160;&#160;&#160;&lt;&lt;abstract&gt;&gt; transferFrom(from: address, to: address, value: uint)</text>
<text text-anchor="start" x="8" y="-399.5" font-family="Times,serif" font-size="14.00" fill="#000000"> &#160;&#160;&#160;&lt;&lt;abstract&gt;&gt; approve(spender: address, value: uint)</text>
<text text-anchor="start" x="8" y="-382.7" font-family="Times,serif" font-size="14.00" fill="#000000"> &#160;&#160;&#160;&lt;&lt;event&gt;&gt; Approval(owner: address, spender: address, value: uint)</text>
</g>
<!-- 2&#45;&gt;1 -->
<g id="edge1" class="edge">
<title>2&#45;&gt;1</title>
<path fill="none" stroke="#000000" d="M210.0675,-533.1504C211.03,-546.1169 212.0419,-559.7472 213.0467,-573.2825"/>
<polygon fill="none" stroke="#000000" points="202.5895,-574.2497 215.2818,-603.39 223.5319,-572.695 202.5895,-574.2497"/>
</g>
<!-- 3 -->
<g id="node4" class="node">
<title>3</title>
<polygon fill="#f2f2f2" stroke="#000000" points="426.7587,-391.3 426.7587,-516.1 703.5801,-516.1 703.5801,-391.3 426.7587,-391.3"/>
<text text-anchor="middle" x="565.1694" y="-499.5" font-family="Times,serif" font-size="14.00" fill="#000000">BasicToken</text>
<polyline fill="none" stroke="#000000" points="426.7587,-491.3 703.5801,-491.3 "/>
<text text-anchor="start" x="434.7587" y="-474.7" font-family="Times,serif" font-size="14.00" fill="#000000">Public:</text>
<text text-anchor="start" x="434.7587" y="-457.9" font-family="Times,serif" font-size="14.00" fill="#000000"> &#160;&#160;balances: mapping(address=&gt;uint)</text>
<polyline fill="none" stroke="#000000" points="426.7587,-449.7 703.5801,-449.7 "/>
<text text-anchor="start" x="434.7587" y="-433.1" font-family="Times,serif" font-size="14.00" fill="#000000">Public:</text>
<text text-anchor="start" x="434.7587" y="-416.3" font-family="Times,serif" font-size="14.00" fill="#000000"> &#160;&#160;&#160;transfer(_to: address, _value: uint)</text>
<text text-anchor="start" x="434.7587" y="-399.5" font-family="Times,serif" font-size="14.00" fill="#000000"> &#160;&#160;&#160;balanceOf(_owner: address): (balance: uint)</text>
</g>
<!-- 3&#45;&gt;0 -->
<g id="edge3" class="edge">
<title>3&#45;&gt;0</title>
<path fill="none" stroke="#000000" stroke-dasharray="5,2" d="M565.1694,-516.2753C565.1694,-529.7249 565.1694,-544.3872 565.1694,-559.2519"/>
<polygon fill="#000000" stroke="#000000" points="561.6695,-559.5627 565.1694,-569.5627 568.6695,-559.5628 561.6695,-559.5627"/>
</g>
<!-- 3&#45;&gt;1 -->
<g id="edge2" class="edge">
<title>3&#45;&gt;1</title>
<path fill="none" stroke="#000000" d="M471.1699,-516.2753C438.5167,-538.0124 401.105,-562.9173 365.3422,-586.7245"/>
<polygon fill="none" stroke="#000000" points="359.4617,-578.0253 340.3075,-603.39 371.0987,-595.5062 359.4617,-578.0253"/>
</g>
<!-- 4 -->
<g id="node5" class="node">
<title>4</title>
<polygon fill="#f2f2f2" stroke="#000000" points="366.6854,-195.9 366.6854,-337.5 763.6534,-337.5 763.6534,-195.9 366.6854,-195.9"/>
<text text-anchor="middle" x="565.1694" y="-320.9" font-family="Times,serif" font-size="14.00" fill="#000000">StandardToken</text>
<polyline fill="none" stroke="#000000" points="366.6854,-312.7 763.6534,-312.7 "/>
<text text-anchor="start" x="374.6854" y="-296.1" font-family="Times,serif" font-size="14.00" fill="#000000">Public:</text>
<text text-anchor="start" x="374.6854" y="-279.3" font-family="Times,serif" font-size="14.00" fill="#000000"> &#160;&#160;allowed: mapping(address=&gt;mapping(address=&gt;uint))</text>
<polyline fill="none" stroke="#000000" points="366.6854,-271.1 763.6534,-271.1 "/>
<text text-anchor="start" x="374.6854" y="-254.5" font-family="Times,serif" font-size="14.00" fill="#000000">Public:</text>
<text text-anchor="start" x="374.6854" y="-237.7" font-family="Times,serif" font-size="14.00" fill="#000000"> &#160;&#160;&#160;transferFrom(_from: address, _to: address, _value: uint)</text>
<text text-anchor="start" x="374.6854" y="-220.9" font-family="Times,serif" font-size="14.00" fill="#000000"> &#160;&#160;&#160;approve(_spender: address, _value: uint)</text>
<text text-anchor="start" x="374.6854" y="-204.1" font-family="Times,serif" font-size="14.00" fill="#000000"> &#160;&#160;&#160;allowance(_owner: address, _spender: address): (remaining: uint)</text>
</g>
<!-- 4&#45;&gt;2 -->
<g id="edge5" class="edge">
<title>4&#45;&gt;2</title>
<path fill="none" stroke="#000000" d="M428.4334,-337.53C413.9027,-345.057 398.9693,-352.7926 384.0416,-360.5252"/>
<polygon fill="none" stroke="#000000" points="379.0748,-351.2729 357.2662,-374.395 388.734,-369.9196 379.0748,-351.2729"/>
</g>
<!-- 4&#45;&gt;3 -->
<g id="edge4" class="edge">
<title>4&#45;&gt;3</title>
<path fill="none" stroke="#000000" d="M565.1694,-337.6633C565.1694,-345.2107 565.1694,-352.9664 565.1694,-360.7173"/>
<polygon fill="none" stroke="#000000" points="554.6695,-361.0569 565.1694,-391.0569 575.6695,-361.0569 554.6695,-361.0569"/>
</g>
<!-- 5 -->
<g id="node6" class="node">
<title>5</title>
<polygon fill="#f2f2f2" stroke="#000000" points="782.0343,-195.9 782.0343,-337.5 1036.3045,-337.5 1036.3045,-195.9 782.0343,-195.9"/>
<text text-anchor="middle" x="909.1694" y="-320.9" font-family="Times,serif" font-size="14.00" fill="#000000">Ownable</text>
<polyline fill="none" stroke="#000000" points="782.0343,-312.7 1036.3045,-312.7 "/>
<text text-anchor="start" x="790.0343" y="-296.1" font-family="Times,serif" font-size="14.00" fill="#000000">Public:</text>
<text text-anchor="start" x="790.0343" y="-279.3" font-family="Times,serif" font-size="14.00" fill="#000000"> &#160;&#160;owner: address</text>
<polyline fill="none" stroke="#000000" points="782.0343,-271.1 1036.3045,-271.1 "/>
<text text-anchor="start" x="790.0343" y="-254.5" font-family="Times,serif" font-size="14.00" fill="#000000">Public:</text>
<text text-anchor="start" x="790.0343" y="-237.7" font-family="Times,serif" font-size="14.00" fill="#000000"> &#160;&#160;&#160;&lt;&lt;modifier&gt;&gt; onlyOwner()</text>
<text text-anchor="start" x="790.0343" y="-220.9" font-family="Times,serif" font-size="14.00" fill="#000000"> &#160;&#160;&#160;constructor()</text>
<text text-anchor="start" x="790.0343" y="-204.1" font-family="Times,serif" font-size="14.00" fill="#000000"> &#160;&#160;&#160;transferOwnership(newOwner: address)</text>
</g>
<!-- 6 -->
<g id="node7" class="node">
<title>6</title>
<polygon fill="#f2f2f2" stroke="#000000" points="655.2921,-.5 655.2921,-158.9 819.0467,-158.9 819.0467,-.5 655.2921,-.5"/>
<text text-anchor="middle" x="737.1694" y="-142.3" font-family="Times,serif" font-size="14.00" fill="#000000">TTC</text>
<polyline fill="none" stroke="#000000" points="655.2921,-134.1 819.0467,-134.1 "/>
<text text-anchor="start" x="663.2921" y="-117.5" font-family="Times,serif" font-size="14.00" fill="#000000">Public:</text>
<text text-anchor="start" x="663.2921" y="-100.7" font-family="Times,serif" font-size="14.00" fill="#000000"> &#160;&#160;name: string</text>
<text text-anchor="start" x="663.2921" y="-83.9" font-family="Times,serif" font-size="14.00" fill="#000000"> &#160;&#160;symbol: string</text>
<text text-anchor="start" x="663.2921" y="-67.1" font-family="Times,serif" font-size="14.00" fill="#000000"> &#160;&#160;decimals: uint</text>
<polyline fill="none" stroke="#000000" points="655.2921,-58.9 819.0467,-58.9 "/>
<text text-anchor="start" x="663.2921" y="-42.3" font-family="Times,serif" font-size="14.00" fill="#000000">Public:</text>
<text text-anchor="start" x="663.2921" y="-25.5" font-family="Times,serif" font-size="14.00" fill="#000000"> &#160;&#160;&#160;constructor()</text>
<text text-anchor="start" x="663.2921" y="-8.7" font-family="Times,serif" font-size="14.00" fill="#000000"> &#160;&#160;&#160;burn(_value: uint): bool</text>
</g>
<!-- 6&#45;&gt;4 -->
<g id="edge6" class="edge">
<title>6&#45;&gt;4</title>
<path fill="none" stroke="#000000" d="M664.2259,-159.0048C659.7388,-163.8833 655.2031,-168.8146 650.6692,-173.7438"/>
<polygon fill="none" stroke="#000000" points="642.9008,-166.6794 630.3197,-195.8679 658.357,-180.8958 642.9008,-166.6794"/>
</g>
<!-- 6&#45;&gt;5 -->
<g id="edge7" class="edge">
<title>6&#45;&gt;5</title>
<path fill="none" stroke="#000000" d="M810.1129,-159.0048C814.6,-163.8833 819.1357,-168.8146 823.6696,-173.7438"/>
<polygon fill="none" stroke="#000000" points="815.9818,-180.8958 844.0191,-195.8679 831.438,-166.6794 815.9818,-180.8958"/>
</g>
</g>
</svg>
