<?xml version="1.0" encoding="UTF-8" standalone="no"?>
<!DOCTYPE svg PUBLIC "-//W3C//DTD SVG 1.1//EN"
 "http://www.w3.org/Graphics/SVG/1.1/DTD/svg11.dtd">
<!-- Generated by graphviz version 2.40.1 (20161225.0304)
 -->
<!-- Title: UmlClassDiagram Pages: 1 -->
<svg width="1281pt" height="1033pt"
 viewBox="0.00 0.00 1280.75 1033.00" xmlns="http://www.w3.org/2000/svg" xmlns:xlink="http://www.w3.org/1999/xlink">
<g id="graph0" class="graph" transform="scale(1 1) rotate(0) translate(4 1029)">
<title>UmlClassDiagram</title>
<polygon fill="#ffffff" stroke="transparent" points="-4,4 -4,-1029 1276.7491,-1029 1276.7491,4 -4,4"/>
<!-- 0 -->
<g id="node1" class="node">
<title>0</title>
<polygon fill="#f2f2f2" stroke="#000000" points="0,-670.7 0,-829.1 484.874,-829.1 484.874,-670.7 0,-670.7"/>
<text text-anchor="middle" x="242.437" y="-812.5" font-family="Times,serif" font-size="14.00" fill="#000000">Ownable</text>
<polyline fill="none" stroke="#000000" points="0,-804.3 484.874,-804.3 "/>
<text text-anchor="start" x="8" y="-787.7" font-family="Times,serif" font-size="14.00" fill="#000000">Public:</text>
<text text-anchor="start" x="8" y="-770.9" font-family="Times,serif" font-size="14.00" fill="#000000"> &#160;&#160;owner: address</text>
<polyline fill="none" stroke="#000000" points="0,-762.7 484.874,-762.7 "/>
<text text-anchor="start" x="8" y="-746.1" font-family="Times,serif" font-size="14.00" fill="#000000">Public:</text>
<text text-anchor="start" x="8" y="-729.3" font-family="Times,serif" font-size="14.00" fill="#000000"> &#160;&#160;&#160;&lt;&lt;event&gt;&gt; OwnershipTransferred(previousOwner: address, newOwner: address)</text>
<text text-anchor="start" x="8" y="-712.5" font-family="Times,serif" font-size="14.00" fill="#000000"> &#160;&#160;&#160;&lt;&lt;modifier&gt;&gt; onlyOwner()</text>
<text text-anchor="start" x="8" y="-695.7" font-family="Times,serif" font-size="14.00" fill="#000000"> &#160;&#160;&#160;constructor()</text>
<text text-anchor="start" x="8" y="-678.9" font-family="Times,serif" font-size="14.00" fill="#000000"> &#160;&#160;&#160;transferOwnership(newOwner: address)</text>
</g>
<!-- 1 -->
<g id="node2" class="node">
<title>1</title>
<polygon fill="#f2f2f2" stroke="#000000" points="535.5208,-866.1 535.5208,-1024.5 767.3532,-1024.5 767.3532,-866.1 535.5208,-866.1"/>
<text text-anchor="middle" x="651.437" y="-1007.9" font-family="Times,serif" font-size="14.00" fill="#000000">&lt;&lt;Library&gt;&gt;</text>
<text text-anchor="middle" x="651.437" y="-991.1" font-family="Times,serif" font-size="14.00" fill="#000000">SafeMath</text>
<polyline fill="none" stroke="#000000" points="535.5208,-982.9 767.3532,-982.9 "/>
<text text-anchor="middle" x="651.437" y="-966.3" font-family="Times,serif" font-size="14.00" fill="#000000"> </text>
<polyline fill="none" stroke="#000000" points="535.5208,-958.1 767.3532,-958.1 "/>
<text text-anchor="start" x="543.5208" y="-941.5" font-family="Times,serif" font-size="14.00" fill="#000000">Internal:</text>
<text text-anchor="start" x="543.5208" y="-924.7" font-family="Times,serif" font-size="14.00" fill="#000000"> &#160;&#160;&#160;mul(a: uint256, b: uint256): uint256</text>
<text text-anchor="start" x="543.5208" y="-907.9" font-family="Times,serif" font-size="14.00" fill="#000000"> &#160;&#160;&#160;div(a: uint256, b: uint256): uint256</text>
<text text-anchor="start" x="543.5208" y="-891.1" font-family="Times,serif" font-size="14.00" fill="#000000"> &#160;&#160;&#160;sub(a: uint256, b: uint256): uint256</text>
<text text-anchor="start" x="543.5208" y="-874.3" font-family="Times,serif" font-size="14.00" fill="#000000"> &#160;&#160;&#160;add(a: uint256, b: uint256): uint256</text>
</g>
<!-- 2 -->
<g id="node3" class="node">
<title>2</title>
<polygon fill="#f2f2f2" stroke="#000000" points="819.7066,-866.1 819.7066,-1024.5 1203.1674,-1024.5 1203.1674,-866.1 819.7066,-866.1"/>
<text text-anchor="middle" x="1011.437" y="-1007.9" font-family="Times,serif" font-size="14.00" fill="#000000">&lt;&lt;Abstract&gt;&gt;</text>
<text text-anchor="middle" x="1011.437" y="-991.1" font-family="Times,serif" font-size="14.00" fill="#000000">ERC20Basic</text>
<polyline fill="none" stroke="#000000" points="819.7066,-982.9 1203.1674,-982.9 "/>
<text text-anchor="start" x="827.7066" y="-966.3" font-family="Times,serif" font-size="14.00" fill="#000000">Public:</text>
<text text-anchor="start" x="827.7066" y="-949.5" font-family="Times,serif" font-size="14.00" fill="#000000"> &#160;&#160;totalSupply: uint256</text>
<polyline fill="none" stroke="#000000" points="819.7066,-941.3 1203.1674,-941.3 "/>
<text text-anchor="start" x="827.7066" y="-924.7" font-family="Times,serif" font-size="14.00" fill="#000000">Public:</text>
<text text-anchor="start" x="827.7066" y="-907.9" font-family="Times,serif" font-size="14.00" fill="#000000"> &#160;&#160;&#160;&lt;&lt;abstract&gt;&gt; balanceOf(who: address): uint256</text>
<text text-anchor="start" x="827.7066" y="-891.1" font-family="Times,serif" font-size="14.00" fill="#000000"> &#160;&#160;&#160;&lt;&lt;abstract&gt;&gt; transfer(to: address, value: uint256): bool</text>
<text text-anchor="start" x="827.7066" y="-874.3" font-family="Times,serif" font-size="14.00" fill="#000000"> &#160;&#160;&#160;&lt;&lt;event&gt;&gt; Transfer(from: address, to: address, value: uint256)</text>
</g>
<!-- 3 -->
<g id="node4" class="node">
<title>3</title>
<polygon fill="#f2f2f2" stroke="#000000" points="502.5263,-687.5 502.5263,-812.3 800.3477,-812.3 800.3477,-687.5 502.5263,-687.5"/>
<text text-anchor="middle" x="651.437" y="-795.7" font-family="Times,serif" font-size="14.00" fill="#000000">BasicToken</text>
<polyline fill="none" stroke="#000000" points="502.5263,-787.5 800.3477,-787.5 "/>
<text text-anchor="start" x="510.5263" y="-770.9" font-family="Times,serif" font-size="14.00" fill="#000000">Public:</text>
<text text-anchor="start" x="510.5263" y="-754.1" font-family="Times,serif" font-size="14.00" fill="#000000"> &#160;&#160;balances: mapping(address=&gt;uint256)</text>
<polyline fill="none" stroke="#000000" points="502.5263,-745.9 800.3477,-745.9 "/>
<text text-anchor="start" x="510.5263" y="-729.3" font-family="Times,serif" font-size="14.00" fill="#000000">Public:</text>
<text text-anchor="start" x="510.5263" y="-712.5" font-family="Times,serif" font-size="14.00" fill="#000000"> &#160;&#160;&#160;transfer(_to: address, _value: uint256): bool</text>
<text text-anchor="start" x="510.5263" y="-695.7" font-family="Times,serif" font-size="14.00" fill="#000000"> &#160;&#160;&#160;balanceOf(_owner: address): (balance: uint256)</text>
</g>
<!-- 3&#45;&gt;1 -->
<g id="edge2" class="edge">
<title>3&#45;&gt;1</title>
<path fill="none" stroke="#000000" stroke-dasharray="5,2" d="M651.437,-812.5321C651.437,-826.3182 651.437,-841.1783 651.437,-855.7923"/>
<polygon fill="#000000" stroke="#000000" points="647.9371,-855.8541 651.437,-865.8542 654.9371,-855.8542 647.9371,-855.8541"/>
</g>
<!-- 3&#45;&gt;2 -->
<g id="edge1" class="edge">
<title>3&#45;&gt;2</title>
<path fill="none" stroke="#000000" d="M766.8287,-812.5321C789.8612,-825.0336 814.5209,-838.4183 838.994,-851.7018"/>
<polygon fill="none" stroke="#000000" points="834.0154,-860.9465 865.3908,-866.0294 844.0333,-842.4899 834.0154,-860.9465"/>
</g>
<!-- 4 -->
<g id="node5" class="node">
<title>4</title>
<polygon fill="#f2f2f2" stroke="#000000" points="818.1249,-670.7 818.1249,-829.1 1272.7491,-829.1 1272.7491,-670.7 818.1249,-670.7"/>
<text text-anchor="middle" x="1045.437" y="-812.5" font-family="Times,serif" font-size="14.00" fill="#000000">&lt;&lt;Abstract&gt;&gt;</text>
<text text-anchor="middle" x="1045.437" y="-795.7" font-family="Times,serif" font-size="14.00" fill="#000000">ERC20</text>
<polyline fill="none" stroke="#000000" points="818.1249,-787.5 1272.7491,-787.5 "/>
<text text-anchor="middle" x="1045.437" y="-770.9" font-family="Times,serif" font-size="14.00" fill="#000000"> </text>
<polyline fill="none" stroke="#000000" points="818.1249,-762.7 1272.7491,-762.7 "/>
<text text-anchor="start" x="826.1249" y="-746.1" font-family="Times,serif" font-size="14.00" fill="#000000">Public:</text>
<text text-anchor="start" x="826.1249" y="-729.3" font-family="Times,serif" font-size="14.00" fill="#000000"> &#160;&#160;&#160;&lt;&lt;abstract&gt;&gt; allowance(owner: address, spender: address): uint256</text>
<text text-anchor="start" x="826.1249" y="-712.5" font-family="Times,serif" font-size="14.00" fill="#000000"> &#160;&#160;&#160;&lt;&lt;abstract&gt;&gt; transferFrom(from: address, to: address, value: uint256): bool</text>
<text text-anchor="start" x="826.1249" y="-695.7" font-family="Times,serif" font-size="14.00" fill="#000000"> &#160;&#160;&#160;&lt;&lt;abstract&gt;&gt; approve(spender: address, value: uint256): bool</text>
<text text-anchor="start" x="826.1249" y="-678.9" font-family="Times,serif" font-size="14.00" fill="#000000"> &#160;&#160;&#160;&lt;&lt;event&gt;&gt; Approval(owner: address, spender: address, value: uint256)</text>
</g>
<!-- 4&#45;&gt;2 -->
<g id="edge3" class="edge">
<title>4&#45;&gt;2</title>
<path fill="none" stroke="#000000" d="M1031.6079,-829.3767C1031.2149,-831.6351 1030.8196,-833.9071 1030.4228,-836.1874"/>
<polygon fill="none" stroke="#000000" points="1020.0521,-834.5379 1025.2538,-865.8938 1040.7413,-838.1379 1020.0521,-834.5379"/>
</g>
<!-- 5 -->
<g id="node6" class="node">
<title>5</title>
<polygon fill="#f2f2f2" stroke="#000000" points="444.0943,-450.1 444.0943,-625.3 850.7797,-625.3 850.7797,-450.1 444.0943,-450.1"/>
<text text-anchor="middle" x="647.437" y="-608.7" font-family="Times,serif" font-size="14.00" fill="#000000">StandardToken</text>
<polyline fill="none" stroke="#000000" points="444.0943,-600.5 850.7797,-600.5 "/>
<text text-anchor="start" x="452.0943" y="-583.9" font-family="Times,serif" font-size="14.00" fill="#000000">Internal:</text>
<text text-anchor="start" x="452.0943" y="-567.1" font-family="Times,serif" font-size="14.00" fill="#000000"> &#160;&#160;allowed: mapping(address=&gt;mapping(address=&gt;uint256))</text>
<polyline fill="none" stroke="#000000" points="444.0943,-558.9 850.7797,-558.9 "/>
<text text-anchor="start" x="452.0943" y="-542.3" font-family="Times,serif" font-size="14.00" fill="#000000">Public:</text>
<text text-anchor="start" x="452.0943" y="-525.5" font-family="Times,serif" font-size="14.00" fill="#000000"> &#160;&#160;&#160;transferFrom(_from: address, _to: address, _value: uint256): bool</text>
<text text-anchor="start" x="452.0943" y="-508.7" font-family="Times,serif" font-size="14.00" fill="#000000"> &#160;&#160;&#160;approve(_spender: address, _value: uint256): bool</text>
<text text-anchor="start" x="452.0943" y="-491.9" font-family="Times,serif" font-size="14.00" fill="#000000"> &#160;&#160;&#160;allowance(_owner: address, _spender: address): uint256</text>
<text text-anchor="start" x="452.0943" y="-475.1" font-family="Times,serif" font-size="14.00" fill="#000000"> &#160;&#160;&#160;increaseApproval(_spender: address, _addedValue: uint): bool</text>
<text text-anchor="start" x="452.0943" y="-458.3" font-family="Times,serif" font-size="14.00" fill="#000000"> &#160;&#160;&#160;decreaseApproval(_spender: address, _subtractedValue: uint): bool</text>
</g>
<!-- 5&#45;&gt;3 -->
<g id="edge5" class="edge">
<title>5&#45;&gt;3</title>
<path fill="none" stroke="#000000" d="M649.0928,-625.5416C649.2884,-635.9173 649.4885,-646.5332 649.6854,-656.9761"/>
<polygon fill="none" stroke="#000000" points="639.1947,-657.5761 650.2584,-687.3729 660.191,-657.1803 639.1947,-657.5761"/>
</g>
<!-- 5&#45;&gt;4 -->
<g id="edge4" class="edge">
<title>5&#45;&gt;4</title>
<path fill="none" stroke="#000000" d="M811.9042,-625.3883C831.1403,-635.6443 850.8206,-646.1372 870.196,-656.4675"/>
<polygon fill="none" stroke="#000000" points="865.4176,-665.8189 896.83,-670.6678 875.2976,-647.2882 865.4176,-665.8189"/>
</g>
<!-- 6 -->
<g id="node7" class="node">
<title>6</title>
<polygon fill="#f2f2f2" stroke="#000000" points="501.7505,-229.5 501.7505,-404.7 793.1235,-404.7 793.1235,-229.5 501.7505,-229.5"/>
<text text-anchor="middle" x="647.437" y="-388.1" font-family="Times,serif" font-size="14.00" fill="#000000">MintableToken</text>
<polyline fill="none" stroke="#000000" points="501.7505,-379.9 793.1235,-379.9 "/>
<text text-anchor="start" x="509.7505" y="-363.3" font-family="Times,serif" font-size="14.00" fill="#000000">Public:</text>
<text text-anchor="start" x="509.7505" y="-346.5" font-family="Times,serif" font-size="14.00" fill="#000000"> &#160;&#160;mintingFinished: bool</text>
<polyline fill="none" stroke="#000000" points="501.7505,-338.3 793.1235,-338.3 "/>
<text text-anchor="start" x="509.7505" y="-321.7" font-family="Times,serif" font-size="14.00" fill="#000000">Public:</text>
<text text-anchor="start" x="509.7505" y="-304.9" font-family="Times,serif" font-size="14.00" fill="#000000"> &#160;&#160;&#160;&lt;&lt;event&gt;&gt; Mint(to: address, amount: uint256)</text>
<text text-anchor="start" x="509.7505" y="-288.1" font-family="Times,serif" font-size="14.00" fill="#000000"> &#160;&#160;&#160;&lt;&lt;event&gt;&gt; MintFinished()</text>
<text text-anchor="start" x="509.7505" y="-271.3" font-family="Times,serif" font-size="14.00" fill="#000000"> &#160;&#160;&#160;&lt;&lt;modifier&gt;&gt; canMint()</text>
<text text-anchor="start" x="509.7505" y="-254.5" font-family="Times,serif" font-size="14.00" fill="#000000"> &#160;&#160;&#160;mint(_to: address, _amount: uint256): bool</text>
<text text-anchor="start" x="509.7505" y="-237.7" font-family="Times,serif" font-size="14.00" fill="#000000"> &#160;&#160;&#160;finishMinting(): bool</text>
</g>
<!-- 6&#45;&gt;0 -->
<g id="edge7" class="edge">
<title>6&#45;&gt;0</title>
<path fill="none" stroke="#000000" d="M501.5528,-401.3189C465.7476,-422.2192 437.0365,-439.2888 435.437,-441.2 376.777,-511.2899 414.6936,-557.8596 364.437,-634.2 361.5309,-638.6144 358.4256,-642.9831 355.1639,-647.2905"/>
<polygon fill="none" stroke="#000000" points="347.0156,-640.6663 335.7867,-670.4012 363.1077,-654.1587 347.0156,-640.6663"/>
</g>
<!-- 6&#45;&gt;5 -->
<g id="edge6" class="edge">
<title>6&#45;&gt;5</title>
<path fill="none" stroke="#000000" d="M647.437,-404.9208C647.437,-409.7701 647.437,-414.6799 647.437,-419.6106"/>
<polygon fill="none" stroke="#000000" points="636.9371,-419.8209 647.437,-449.821 657.9371,-419.821 636.9371,-419.8209"/>
</g>
<!-- 7 -->
<g id="node8" class="node">
<title>7</title>
<polygon fill="#f2f2f2" stroke="#000000" points="141.646,-441.7 141.646,-633.7 355.228,-633.7 355.228,-441.7 141.646,-441.7"/>
<text text-anchor="middle" x="248.437" y="-617.1" font-family="Times,serif" font-size="14.00" fill="#000000">Pausable</text>
<polyline fill="none" stroke="#000000" points="141.646,-608.9 355.228,-608.9 "/>
<text text-anchor="start" x="149.646" y="-592.3" font-family="Times,serif" font-size="14.00" fill="#000000">Public:</text>
<text text-anchor="start" x="149.646" y="-575.5" font-family="Times,serif" font-size="14.00" fill="#000000"> &#160;&#160;paused: bool</text>
<polyline fill="none" stroke="#000000" points="141.646,-567.3 355.228,-567.3 "/>
<text text-anchor="start" x="149.646" y="-550.7" font-family="Times,serif" font-size="14.00" fill="#000000">Public:</text>
<text text-anchor="start" x="149.646" y="-533.9" font-family="Times,serif" font-size="14.00" fill="#000000"> &#160;&#160;&#160;&lt;&lt;event&gt;&gt; Pause()</text>
<text text-anchor="start" x="149.646" y="-517.1" font-family="Times,serif" font-size="14.00" fill="#000000"> &#160;&#160;&#160;&lt;&lt;event&gt;&gt; Unpause()</text>
<text text-anchor="start" x="149.646" y="-500.3" font-family="Times,serif" font-size="14.00" fill="#000000"> &#160;&#160;&#160;&lt;&lt;modifier&gt;&gt; whenNotPaused()</text>
<text text-anchor="start" x="149.646" y="-483.5" font-family="Times,serif" font-size="14.00" fill="#000000"> &#160;&#160;&#160;&lt;&lt;modifier&gt;&gt; whenPaused()</text>
<text text-anchor="start" x="149.646" y="-466.7" font-family="Times,serif" font-size="14.00" fill="#000000"> &#160;&#160;&#160;pause()</text>
<text text-anchor="start" x="149.646" y="-449.9" font-family="Times,serif" font-size="14.00" fill="#000000"> &#160;&#160;&#160;unpause()</text>
</g>
<!-- 7&#45;&gt;0 -->
<g id="edge8" class="edge">
<title>7&#45;&gt;0</title>
<path fill="none" stroke="#000000" d="M245.7179,-633.8661C245.6555,-636.073 245.5929,-638.2856 245.5303,-640.5002"/>
<polygon fill="none" stroke="#000000" points="235.0319,-640.298 244.6797,-670.5828 256.0235,-640.8916 235.0319,-640.298"/>
</g>
<!-- 8 -->
<g id="node9" class="node">
<title>8</title>
<polygon fill="#f2f2f2" stroke="#000000" points="18.7496,-237.9 18.7496,-396.3 484.1244,-396.3 484.1244,-237.9 18.7496,-237.9"/>
<text text-anchor="middle" x="251.437" y="-379.7" font-family="Times,serif" font-size="14.00" fill="#000000">PausableToken</text>
<polyline fill="none" stroke="#000000" points="18.7496,-371.5 484.1244,-371.5 "/>
<text text-anchor="middle" x="251.437" y="-354.9" font-family="Times,serif" font-size="14.00" fill="#000000"> </text>
<polyline fill="none" stroke="#000000" points="18.7496,-346.7 484.1244,-346.7 "/>
<text text-anchor="start" x="26.7496" y="-330.1" font-family="Times,serif" font-size="14.00" fill="#000000">Public:</text>
<text text-anchor="start" x="26.7496" y="-313.3" font-family="Times,serif" font-size="14.00" fill="#000000"> &#160;&#160;&#160;transfer(_to: address, _value: uint256): bool</text>
<text text-anchor="start" x="26.7496" y="-296.5" font-family="Times,serif" font-size="14.00" fill="#000000"> &#160;&#160;&#160;transferFrom(_from: address, _to: address, _value: uint256): bool</text>
<text text-anchor="start" x="26.7496" y="-279.7" font-family="Times,serif" font-size="14.00" fill="#000000"> &#160;&#160;&#160;approve(_spender: address, _value: uint256): bool</text>
<text text-anchor="start" x="26.7496" y="-262.9" font-family="Times,serif" font-size="14.00" fill="#000000"> &#160;&#160;&#160;increaseApproval(_spender: address, _addedValue: uint): (success: bool)</text>
<text text-anchor="start" x="26.7496" y="-246.1" font-family="Times,serif" font-size="14.00" fill="#000000"> &#160;&#160;&#160;decreaseApproval(_spender: address, _subtractedValue: uint): (success: bool)</text>
</g>
<!-- 8&#45;&gt;5 -->
<g id="edge9" class="edge">
<title>8&#45;&gt;5</title>
<path fill="none" stroke="#000000" d="M393.8426,-396.43C416.478,-409.0395 440.1682,-422.2366 463.5928,-435.2858"/>
<polygon fill="none" stroke="#000000" points="458.539,-444.4897 489.8567,-449.9166 468.7588,-426.1442 458.539,-444.4897"/>
</g>
<!-- 8&#45;&gt;7 -->
<g id="edge10" class="edge">
<title>8&#45;&gt;7</title>
<path fill="none" stroke="#000000" d="M250.3582,-396.43C250.2916,-401.3265 250.2238,-406.3117 250.1554,-411.3424"/>
<polygon fill="none" stroke="#000000" points="239.6559,-411.2366 249.7469,-441.3766 260.654,-411.5222 239.6559,-411.2366"/>
</g>
<!-- 9 -->
<g id="node10" class="node">
<title>9</title>
<polygon fill="#f2f2f2" stroke="#000000" points="405.5355,-.5 405.5355,-192.5 889.3385,-192.5 889.3385,-.5 405.5355,-.5"/>
<text text-anchor="middle" x="647.437" y="-175.9" font-family="Times,serif" font-size="14.00" fill="#000000">WPR</text>
<polyline fill="none" stroke="#000000" points="405.5355,-167.7 889.3385,-167.7 "/>
<text text-anchor="start" x="413.5355" y="-151.1" font-family="Times,serif" font-size="14.00" fill="#000000">Public:</text>
<text text-anchor="start" x="413.5355" y="-134.3" font-family="Times,serif" font-size="14.00" fill="#000000"> &#160;&#160;name: string</text>
<text text-anchor="start" x="413.5355" y="-117.5" font-family="Times,serif" font-size="14.00" fill="#000000"> &#160;&#160;symbol: string</text>
<text text-anchor="start" x="413.5355" y="-100.7" font-family="Times,serif" font-size="14.00" fill="#000000"> &#160;&#160;decimals: uint</text>
<polyline fill="none" stroke="#000000" points="405.5355,-92.5 889.3385,-92.5 "/>
<text text-anchor="start" x="413.5355" y="-75.9" font-family="Times,serif" font-size="14.00" fill="#000000">Public:</text>
<text text-anchor="start" x="413.5355" y="-59.1" font-family="Times,serif" font-size="14.00" fill="#000000"> &#160;&#160;&#160;&lt;&lt;event&gt;&gt; ClaimedTokens(_token: address, _controller: address, _amount: uint)</text>
<text text-anchor="start" x="413.5355" y="-42.3" font-family="Times,serif" font-size="14.00" fill="#000000"> &#160;&#160;&#160;constructor()</text>
<text text-anchor="start" x="413.5355" y="-25.5" font-family="Times,serif" font-size="14.00" fill="#000000"> &#160;&#160;&#160;claimTokens(_token: address)</text>
<text text-anchor="start" x="413.5355" y="-8.7" font-family="Times,serif" font-size="14.00" fill="#000000"> &#160;&#160;&#160;disown()</text>
</g>
<!-- 9&#45;&gt;4 -->
<g id="edge13" class="edge">
<title>9&#45;&gt;4</title>
<path fill="none" stroke="#000000" stroke-dasharray="5,2" d="M770.4922,-192.7001C782.0001,-204.2736 792.9031,-216.4586 802.437,-229 905.7584,-364.914 979.511,-551.8149 1017.0701,-660.8493"/>
<polygon fill="#000000" stroke="#000000" points="1013.8245,-662.1755 1020.3717,-670.5053 1020.448,-659.9107 1013.8245,-662.1755"/>
</g>
<!-- 9&#45;&gt;6 -->
<g id="edge11" class="edge">
<title>9&#45;&gt;6</title>
<path fill="none" stroke="#000000" d="M647.437,-192.6166C647.437,-194.8073 647.437,-197.0055 647.437,-199.2078"/>
<polygon fill="none" stroke="#000000" points="636.9371,-199.2866 647.437,-229.2866 657.9371,-199.2866 636.9371,-199.2866"/>
</g>
<!-- 9&#45;&gt;8 -->
<g id="edge12" class="edge">
<title>9&#45;&gt;8</title>
<path fill="none" stroke="#000000" d="M474.8976,-192.6166C456.6929,-202.7579 438.1963,-213.0619 420.0371,-223.1778"/>
<polygon fill="none" stroke="#000000" points="414.8445,-214.0511 393.7465,-237.8235 425.0642,-232.3966 414.8445,-214.0511"/>
</g>
</g>
</svg>
