<?xml version="1.0" encoding="UTF-8" standalone="no"?>
<!DOCTYPE svg PUBLIC "-//W3C//DTD SVG 1.1//EN"
 "http://www.w3.org/Graphics/SVG/1.1/DTD/svg11.dtd">
<!-- Generated by graphviz version 2.40.1 (20161225.0304)
 -->
<!-- Title: UmlClassDiagram Pages: 1 -->
<svg width="1894pt" height="1245pt"
 viewBox="0.00 0.00 1893.87 1245.20" xmlns="http://www.w3.org/2000/svg" xmlns:xlink="http://www.w3.org/1999/xlink">
<g id="graph0" class="graph" transform="scale(1 1) rotate(0) translate(4 1241.2)">
<title>UmlClassDiagram</title>
<polygon fill="#ffffff" stroke="transparent" points="-4,4 -4,-1241.2 1889.8676,-1241.2 1889.8676,4 -4,4"/>
<!-- 8 -->
<g id="node1" class="node">
<title>8</title>
<polygon fill="#f2f2f2" stroke="#000000" points="173.6077,-416.5 173.6077,-558.1 479.7213,-558.1 479.7213,-416.5 173.6077,-416.5"/>
<text text-anchor="middle" x="326.6645" y="-541.5" font-family="Times,serif" font-size="14.00" fill="#000000">BurnableToken</text>
<polyline fill="none" stroke="#000000" points="173.6077,-533.3 479.7213,-533.3 "/>
<text text-anchor="middle" x="326.6645" y="-516.7" font-family="Times,serif" font-size="14.00" fill="#000000"> </text>
<polyline fill="none" stroke="#000000" points="173.6077,-508.5 479.7213,-508.5 "/>
<text text-anchor="start" x="181.6077" y="-491.9" font-family="Times,serif" font-size="14.00" fill="#000000">Internal:</text>
<text text-anchor="start" x="181.6077" y="-475.1" font-family="Times,serif" font-size="14.00" fill="#000000"> &#160;&#160;&#160;_burn(_who: address, _value: uint256)</text>
<text text-anchor="start" x="181.6077" y="-458.3" font-family="Times,serif" font-size="14.00" fill="#000000">Public:</text>
<text text-anchor="start" x="181.6077" y="-441.5" font-family="Times,serif" font-size="14.00" fill="#000000"> &#160;&#160;&#160;&lt;&lt;event&gt;&gt; Burn(burner: address, value: uint256)</text>
<text text-anchor="start" x="181.6077" y="-424.7" font-family="Times,serif" font-size="14.00" fill="#000000"> &#160;&#160;&#160;burn(_value: uint256)</text>
</g>
<!-- 2 -->
<g id="node3" class="node">
<title>2</title>
<polygon fill="#f2f2f2" stroke="#000000" points="345.6143,-653.9 345.6143,-812.3 621.7147,-812.3 621.7147,-653.9 345.6143,-653.9"/>
<text text-anchor="middle" x="483.6645" y="-795.7" font-family="Times,serif" font-size="14.00" fill="#000000">BasicToken</text>
<polyline fill="none" stroke="#000000" points="345.6143,-787.5 621.7147,-787.5 "/>
<text text-anchor="start" x="353.6143" y="-770.9" font-family="Times,serif" font-size="14.00" fill="#000000">Internal:</text>
<text text-anchor="start" x="353.6143" y="-754.1" font-family="Times,serif" font-size="14.00" fill="#000000"> &#160;&#160;balances: mapping(address=&gt;uint256)</text>
<text text-anchor="start" x="353.6143" y="-737.3" font-family="Times,serif" font-size="14.00" fill="#000000"> &#160;&#160;totalSupply_: uint256</text>
<polyline fill="none" stroke="#000000" points="345.6143,-729.1 621.7147,-729.1 "/>
<text text-anchor="start" x="353.6143" y="-712.5" font-family="Times,serif" font-size="14.00" fill="#000000">Public:</text>
<text text-anchor="start" x="353.6143" y="-695.7" font-family="Times,serif" font-size="14.00" fill="#000000"> &#160;&#160;&#160;totalSupply(): uint256</text>
<text text-anchor="start" x="353.6143" y="-678.9" font-family="Times,serif" font-size="14.00" fill="#000000"> &#160;&#160;&#160;transfer(_to: address, _value: uint256): bool</text>
<text text-anchor="start" x="353.6143" y="-662.1" font-family="Times,serif" font-size="14.00" fill="#000000"> &#160;&#160;&#160;balanceOf(_owner: address): uint256</text>
</g>
<!-- 8&#45;&gt;2 -->
<g id="edge1" class="edge">
<title>8&#45;&gt;2</title>
<path fill="none" stroke="#000000" d="M372.0754,-558.3955C385.9676,-580.1452 401.5521,-604.5443 416.5678,-628.053"/>
<polygon fill="none" stroke="#000000" points="407.8457,-633.9039 432.8436,-653.5345 425.5436,-622.5997 407.8457,-633.9039"/>
</g>
<!-- 0 -->
<g id="node2" class="node">
<title>0</title>
<polygon fill="#f2f2f2" stroke="#000000" points="557.9341,-1078.3 557.9341,-1236.7 941.3949,-1236.7 941.3949,-1078.3 557.9341,-1078.3"/>
<text text-anchor="middle" x="749.6645" y="-1220.1" font-family="Times,serif" font-size="14.00" fill="#000000">&lt;&lt;Abstract&gt;&gt;</text>
<text text-anchor="middle" x="749.6645" y="-1203.3" font-family="Times,serif" font-size="14.00" fill="#000000">ERC20Basic</text>
<polyline fill="none" stroke="#000000" points="557.9341,-1195.1 941.3949,-1195.1 "/>
<text text-anchor="middle" x="749.6645" y="-1178.5" font-family="Times,serif" font-size="14.00" fill="#000000"> </text>
<polyline fill="none" stroke="#000000" points="557.9341,-1170.3 941.3949,-1170.3 "/>
<text text-anchor="start" x="565.9341" y="-1153.7" font-family="Times,serif" font-size="14.00" fill="#000000">Public:</text>
<text text-anchor="start" x="565.9341" y="-1136.9" font-family="Times,serif" font-size="14.00" fill="#000000"> &#160;&#160;&#160;&lt;&lt;abstract&gt;&gt; totalSupply(): uint256</text>
<text text-anchor="start" x="565.9341" y="-1120.1" font-family="Times,serif" font-size="14.00" fill="#000000"> &#160;&#160;&#160;&lt;&lt;abstract&gt;&gt; balanceOf(_who: address): uint256</text>
<text text-anchor="start" x="565.9341" y="-1103.3" font-family="Times,serif" font-size="14.00" fill="#000000"> &#160;&#160;&#160;&lt;&lt;abstract&gt;&gt; transfer(_to: address, _value: uint256): bool</text>
<text text-anchor="start" x="565.9341" y="-1086.5" font-family="Times,serif" font-size="14.00" fill="#000000"> &#160;&#160;&#160;&lt;&lt;event&gt;&gt; Transfer(from: address, to: address, value: uint256)</text>
</g>
<!-- 2&#45;&gt;0 -->
<g id="edge2" class="edge">
<title>2&#45;&gt;0</title>
<path fill="none" stroke="#000000" d="M479.5888,-812.4843C477.0942,-891.4147 478.1729,-1005.777 502.6645,-1041.8 511.4256,-1054.686 522.0154,-1066.171 533.8191,-1076.4021"/>
<polygon fill="none" stroke="#000000" points="527.5896,-1084.8555 557.853,-1094.5705 540.2533,-1068.1035 527.5896,-1084.8555"/>
</g>
<!-- 1 -->
<g id="node9" class="node">
<title>1</title>
<polygon fill="#f2f2f2" stroke="#000000" points="187.2851,-882.9 187.2851,-1041.3 456.0439,-1041.3 456.0439,-882.9 187.2851,-882.9"/>
<text text-anchor="middle" x="321.6645" y="-1024.7" font-family="Times,serif" font-size="14.00" fill="#000000">&lt;&lt;Library&gt;&gt;</text>
<text text-anchor="middle" x="321.6645" y="-1007.9" font-family="Times,serif" font-size="14.00" fill="#000000">SafeMath</text>
<polyline fill="none" stroke="#000000" points="187.2851,-999.7 456.0439,-999.7 "/>
<text text-anchor="middle" x="321.6645" y="-983.1" font-family="Times,serif" font-size="14.00" fill="#000000"> </text>
<polyline fill="none" stroke="#000000" points="187.2851,-974.9 456.0439,-974.9 "/>
<text text-anchor="start" x="195.2851" y="-958.3" font-family="Times,serif" font-size="14.00" fill="#000000">Internal:</text>
<text text-anchor="start" x="195.2851" y="-941.5" font-family="Times,serif" font-size="14.00" fill="#000000"> &#160;&#160;&#160;mul(_a: uint256, _b: uint256): (c: uint256)</text>
<text text-anchor="start" x="195.2851" y="-924.7" font-family="Times,serif" font-size="14.00" fill="#000000"> &#160;&#160;&#160;div(_a: uint256, _b: uint256): uint256</text>
<text text-anchor="start" x="195.2851" y="-907.9" font-family="Times,serif" font-size="14.00" fill="#000000"> &#160;&#160;&#160;sub(_a: uint256, _b: uint256): uint256</text>
<text text-anchor="start" x="195.2851" y="-891.1" font-family="Times,serif" font-size="14.00" fill="#000000"> &#160;&#160;&#160;add(_a: uint256, _b: uint256): (c: uint256)</text>
</g>
<!-- 2&#45;&gt;1 -->
<g id="edge3" class="edge">
<title>2&#45;&gt;1</title>
<path fill="none" stroke="#000000" stroke-dasharray="5,2" d="M427.4594,-812.5504C413.3232,-832.5331 398.0719,-854.092 383.6697,-874.4507"/>
<polygon fill="#000000" stroke="#000000" points="380.6882,-872.6049 377.7702,-882.79 386.4028,-876.6476 380.6882,-872.6049"/>
</g>
<!-- 3 -->
<g id="node4" class="node">
<title>3</title>
<polygon fill="#f2f2f2" stroke="#000000" points="511.8524,-882.9 511.8524,-1041.3 987.4766,-1041.3 987.4766,-882.9 511.8524,-882.9"/>
<text text-anchor="middle" x="749.6645" y="-1024.7" font-family="Times,serif" font-size="14.00" fill="#000000">&lt;&lt;Abstract&gt;&gt;</text>
<text text-anchor="middle" x="749.6645" y="-1007.9" font-family="Times,serif" font-size="14.00" fill="#000000">ERC20</text>
<polyline fill="none" stroke="#000000" points="511.8524,-999.7 987.4766,-999.7 "/>
<text text-anchor="middle" x="749.6645" y="-983.1" font-family="Times,serif" font-size="14.00" fill="#000000"> </text>
<polyline fill="none" stroke="#000000" points="511.8524,-974.9 987.4766,-974.9 "/>
<text text-anchor="start" x="519.8524" y="-958.3" font-family="Times,serif" font-size="14.00" fill="#000000">Public:</text>
<text text-anchor="start" x="519.8524" y="-941.5" font-family="Times,serif" font-size="14.00" fill="#000000"> &#160;&#160;&#160;&lt;&lt;abstract&gt;&gt; allowance(_owner: address, _spender: address): uint256</text>
<text text-anchor="start" x="519.8524" y="-924.7" font-family="Times,serif" font-size="14.00" fill="#000000"> &#160;&#160;&#160;&lt;&lt;abstract&gt;&gt; transferFrom(_from: address, _to: address, _value: uint256): bool</text>
<text text-anchor="start" x="519.8524" y="-907.9" font-family="Times,serif" font-size="14.00" fill="#000000"> &#160;&#160;&#160;&lt;&lt;abstract&gt;&gt; approve(_spender: address, _value: uint256): bool</text>
<text text-anchor="start" x="519.8524" y="-891.1" font-family="Times,serif" font-size="14.00" fill="#000000"> &#160;&#160;&#160;&lt;&lt;event&gt;&gt; Approval(owner: address, spender: address, value: uint256)</text>
</g>
<!-- 3&#45;&gt;0 -->
<g id="edge4" class="edge">
<title>3&#45;&gt;0</title>
<path fill="none" stroke="#000000" d="M749.6645,-1041.5767C749.6645,-1043.6469 749.6645,-1045.7285 749.6645,-1047.8175"/>
<polygon fill="none" stroke="#000000" points="739.1646,-1048.0937 749.6645,-1078.0938 760.1646,-1048.0938 739.1646,-1048.0937"/>
</g>
<!-- 4 -->
<g id="node5" class="node">
<title>4</title>
<polygon fill="#f2f2f2" stroke="#000000" points="535.8218,-399.7 535.8218,-574.9 963.5072,-574.9 963.5072,-399.7 535.8218,-399.7"/>
<text text-anchor="middle" x="749.6645" y="-558.3" font-family="Times,serif" font-size="14.00" fill="#000000">StandardToken</text>
<polyline fill="none" stroke="#000000" points="535.8218,-550.1 963.5072,-550.1 "/>
<text text-anchor="start" x="543.8218" y="-533.5" font-family="Times,serif" font-size="14.00" fill="#000000">Internal:</text>
<text text-anchor="start" x="543.8218" y="-516.7" font-family="Times,serif" font-size="14.00" fill="#000000"> &#160;&#160;allowed: mapping(address=&gt;mapping(address=&gt;uint256))</text>
<polyline fill="none" stroke="#000000" points="535.8218,-508.5 963.5072,-508.5 "/>
<text text-anchor="start" x="543.8218" y="-491.9" font-family="Times,serif" font-size="14.00" fill="#000000">Public:</text>
<text text-anchor="start" x="543.8218" y="-475.1" font-family="Times,serif" font-size="14.00" fill="#000000"> &#160;&#160;&#160;transferFrom(_from: address, _to: address, _value: uint256): bool</text>
<text text-anchor="start" x="543.8218" y="-458.3" font-family="Times,serif" font-size="14.00" fill="#000000"> &#160;&#160;&#160;approve(_spender: address, _value: uint256): bool</text>
<text text-anchor="start" x="543.8218" y="-441.5" font-family="Times,serif" font-size="14.00" fill="#000000"> &#160;&#160;&#160;allowance(_owner: address, _spender: address): uint256</text>
<text text-anchor="start" x="543.8218" y="-424.7" font-family="Times,serif" font-size="14.00" fill="#000000"> &#160;&#160;&#160;increaseApproval(_spender: address, _addedValue: uint256): bool</text>
<text text-anchor="start" x="543.8218" y="-407.9" font-family="Times,serif" font-size="14.00" fill="#000000"> &#160;&#160;&#160;decreaseApproval(_spender: address, _subtractedValue: uint256): bool</text>
</g>
<!-- 4&#45;&gt;2 -->
<g id="edge6" class="edge">
<title>4&#45;&gt;2</title>
<path fill="none" stroke="#000000" d="M654.7589,-574.9984C634.3789,-593.8308 612.6955,-613.8676 591.8548,-633.1257"/>
<polygon fill="none" stroke="#000000" points="584.5799,-625.5515 569.6726,-653.6233 598.832,-640.9748 584.5799,-625.5515"/>
</g>
<!-- 4&#45;&gt;3 -->
<g id="edge5" class="edge">
<title>4&#45;&gt;3</title>
<path fill="none" stroke="#000000" d="M749.6645,-574.939C749.6645,-653.2805 749.6645,-768.3981 749.6645,-852.7443"/>
<polygon fill="none" stroke="#000000" points="739.1646,-852.862 749.6645,-882.862 760.1646,-852.8621 739.1646,-852.862"/>
</g>
<!-- 5 -->
<g id="node6" class="node">
<title>5</title>
<polygon fill="#f2f2f2" stroke="#000000" points="0,-187.5 0,-329.1 373.329,-329.1 373.329,-187.5 0,-187.5"/>
<text text-anchor="middle" x="186.6645" y="-312.5" font-family="Times,serif" font-size="14.00" fill="#000000">DetailedERC20</text>
<polyline fill="none" stroke="#000000" points="0,-304.3 373.329,-304.3 "/>
<text text-anchor="start" x="8" y="-287.7" font-family="Times,serif" font-size="14.00" fill="#000000">Public:</text>
<text text-anchor="start" x="8" y="-270.9" font-family="Times,serif" font-size="14.00" fill="#000000"> &#160;&#160;name: string</text>
<text text-anchor="start" x="8" y="-254.1" font-family="Times,serif" font-size="14.00" fill="#000000"> &#160;&#160;symbol: string</text>
<text text-anchor="start" x="8" y="-237.3" font-family="Times,serif" font-size="14.00" fill="#000000"> &#160;&#160;decimals: uint8</text>
<polyline fill="none" stroke="#000000" points="0,-229.1 373.329,-229.1 "/>
<text text-anchor="start" x="8" y="-212.5" font-family="Times,serif" font-size="14.00" fill="#000000">Public:</text>
<text text-anchor="start" x="8" y="-195.7" font-family="Times,serif" font-size="14.00" fill="#000000"> &#160;&#160;&#160;constructor(_name: string, _symbol: string, _decimals: uint8)</text>
</g>
<!-- 5&#45;&gt;3 -->
<g id="edge7" class="edge">
<title>5&#45;&gt;3</title>
<path fill="none" stroke="#000000" d="M167.7229,-329.4188C153.143,-396.4534 139.3634,-498.9948 164.6645,-583.8 204.5515,-717.4947 224.0975,-763.9748 336.6645,-846.4 336.9051,-846.5762 403.2072,-865.1721 482.6134,-887.4042"/>
<polygon fill="none" stroke="#000000" points="480.0402,-897.5874 511.7601,-895.5633 485.7012,-877.3648 480.0402,-897.5874"/>
</g>
<!-- 6 -->
<g id="node7" class="node">
<title>6</title>
<polygon fill="#f2f2f2" stroke="#000000" points="846.2275,-620.3 846.2275,-845.9 1331.1015,-845.9 1331.1015,-620.3 846.2275,-620.3"/>
<text text-anchor="middle" x="1088.6645" y="-829.3" font-family="Times,serif" font-size="14.00" fill="#000000">Ownable</text>
<polyline fill="none" stroke="#000000" points="846.2275,-821.1 1331.1015,-821.1 "/>
<text text-anchor="start" x="854.2275" y="-804.5" font-family="Times,serif" font-size="14.00" fill="#000000">Public:</text>
<text text-anchor="start" x="854.2275" y="-787.7" font-family="Times,serif" font-size="14.00" fill="#000000"> &#160;&#160;owner: address</text>
<polyline fill="none" stroke="#000000" points="846.2275,-779.5 1331.1015,-779.5 "/>
<text text-anchor="start" x="854.2275" y="-762.9" font-family="Times,serif" font-size="14.00" fill="#000000">Internal:</text>
<text text-anchor="start" x="854.2275" y="-746.1" font-family="Times,serif" font-size="14.00" fill="#000000"> &#160;&#160;&#160;_transferOwnership(_newOwner: address)</text>
<text text-anchor="start" x="854.2275" y="-729.3" font-family="Times,serif" font-size="14.00" fill="#000000">Public:</text>
<text text-anchor="start" x="854.2275" y="-712.5" font-family="Times,serif" font-size="14.00" fill="#000000"> &#160;&#160;&#160;&lt;&lt;event&gt;&gt; OwnershipRenounced(previousOwner: address)</text>
<text text-anchor="start" x="854.2275" y="-695.7" font-family="Times,serif" font-size="14.00" fill="#000000"> &#160;&#160;&#160;&lt;&lt;event&gt;&gt; OwnershipTransferred(previousOwner: address, newOwner: address)</text>
<text text-anchor="start" x="854.2275" y="-678.9" font-family="Times,serif" font-size="14.00" fill="#000000"> &#160;&#160;&#160;&lt;&lt;modifier&gt;&gt; onlyOwner()</text>
<text text-anchor="start" x="854.2275" y="-662.1" font-family="Times,serif" font-size="14.00" fill="#000000"> &#160;&#160;&#160;constructor()</text>
<text text-anchor="start" x="854.2275" y="-645.3" font-family="Times,serif" font-size="14.00" fill="#000000"> &#160;&#160;&#160;renounceOwnership()</text>
<text text-anchor="start" x="854.2275" y="-628.5" font-family="Times,serif" font-size="14.00" fill="#000000"> &#160;&#160;&#160;transferOwnership(_newOwner: address)</text>
</g>
<!-- 7 -->
<g id="node8" class="node">
<title>7</title>
<polygon fill="#f2f2f2" stroke="#000000" points="429.978,-162.3 429.978,-354.3 721.351,-354.3 721.351,-162.3 429.978,-162.3"/>
<text text-anchor="middle" x="575.6645" y="-337.7" font-family="Times,serif" font-size="14.00" fill="#000000">MintableToken</text>
<polyline fill="none" stroke="#000000" points="429.978,-329.5 721.351,-329.5 "/>
<text text-anchor="start" x="437.978" y="-312.9" font-family="Times,serif" font-size="14.00" fill="#000000">Public:</text>
<text text-anchor="start" x="437.978" y="-296.1" font-family="Times,serif" font-size="14.00" fill="#000000"> &#160;&#160;mintingFinished: bool</text>
<polyline fill="none" stroke="#000000" points="429.978,-287.9 721.351,-287.9 "/>
<text text-anchor="start" x="437.978" y="-271.3" font-family="Times,serif" font-size="14.00" fill="#000000">Public:</text>
<text text-anchor="start" x="437.978" y="-254.5" font-family="Times,serif" font-size="14.00" fill="#000000"> &#160;&#160;&#160;&lt;&lt;event&gt;&gt; Mint(to: address, amount: uint256)</text>
<text text-anchor="start" x="437.978" y="-237.7" font-family="Times,serif" font-size="14.00" fill="#000000"> &#160;&#160;&#160;&lt;&lt;event&gt;&gt; MintFinished()</text>
<text text-anchor="start" x="437.978" y="-220.9" font-family="Times,serif" font-size="14.00" fill="#000000"> &#160;&#160;&#160;&lt;&lt;modifier&gt;&gt; canMint()</text>
<text text-anchor="start" x="437.978" y="-204.1" font-family="Times,serif" font-size="14.00" fill="#000000"> &#160;&#160;&#160;&lt;&lt;modifier&gt;&gt; hasMintPermission()</text>
<text text-anchor="start" x="437.978" y="-187.3" font-family="Times,serif" font-size="14.00" fill="#000000"> &#160;&#160;&#160;mint(_to: address, _amount: uint256): bool</text>
<text text-anchor="start" x="437.978" y="-170.5" font-family="Times,serif" font-size="14.00" fill="#000000"> &#160;&#160;&#160;finishMinting(): bool</text>
</g>
<!-- 7&#45;&gt;4 -->
<g id="edge8" class="edge">
<title>7&#45;&gt;4</title>
<path fill="none" stroke="#000000" d="M648.6999,-354.4213C653.9298,-361.3043 659.2288,-368.2783 664.5187,-375.2403"/>
<polygon fill="none" stroke="#000000" points="656.4051,-381.9176 682.9154,-399.4521 673.1259,-369.2127 656.4051,-381.9176"/>
</g>
<!-- 7&#45;&gt;6 -->
<g id="edge9" class="edge">
<title>7&#45;&gt;6</title>
<path fill="none" stroke="#000000" d="M526.481,-354.3388C498.0484,-424.718 476.7599,-518.9068 526.6645,-583.8 531.6477,-590.2799 675.5212,-628.4384 816.4313,-664.5526"/>
<polygon fill="none" stroke="#000000" points="814.2686,-674.8374 845.9346,-672.0961 819.4707,-654.4919 814.2686,-674.8374"/>
</g>
<!-- 9 -->
<g id="node10" class="node">
<title>9</title>
<polygon fill="#f2f2f2" stroke="#000000" points="981.8735,-391.3 981.8735,-583.3 1195.4555,-583.3 1195.4555,-391.3 981.8735,-391.3"/>
<text text-anchor="middle" x="1088.6645" y="-566.7" font-family="Times,serif" font-size="14.00" fill="#000000">Pausable</text>
<polyline fill="none" stroke="#000000" points="981.8735,-558.5 1195.4555,-558.5 "/>
<text text-anchor="start" x="989.8735" y="-541.9" font-family="Times,serif" font-size="14.00" fill="#000000">Public:</text>
<text text-anchor="start" x="989.8735" y="-525.1" font-family="Times,serif" font-size="14.00" fill="#000000"> &#160;&#160;paused: bool</text>
<polyline fill="none" stroke="#000000" points="981.8735,-516.9 1195.4555,-516.9 "/>
<text text-anchor="start" x="989.8735" y="-500.3" font-family="Times,serif" font-size="14.00" fill="#000000">Public:</text>
<text text-anchor="start" x="989.8735" y="-483.5" font-family="Times,serif" font-size="14.00" fill="#000000"> &#160;&#160;&#160;&lt;&lt;event&gt;&gt; Pause()</text>
<text text-anchor="start" x="989.8735" y="-466.7" font-family="Times,serif" font-size="14.00" fill="#000000"> &#160;&#160;&#160;&lt;&lt;event&gt;&gt; Unpause()</text>
<text text-anchor="start" x="989.8735" y="-449.9" font-family="Times,serif" font-size="14.00" fill="#000000"> &#160;&#160;&#160;&lt;&lt;modifier&gt;&gt; whenNotPaused()</text>
<text text-anchor="start" x="989.8735" y="-433.1" font-family="Times,serif" font-size="14.00" fill="#000000"> &#160;&#160;&#160;&lt;&lt;modifier&gt;&gt; whenPaused()</text>
<text text-anchor="start" x="989.8735" y="-416.3" font-family="Times,serif" font-size="14.00" fill="#000000"> &#160;&#160;&#160;pause()</text>
<text text-anchor="start" x="989.8735" y="-399.5" font-family="Times,serif" font-size="14.00" fill="#000000"> &#160;&#160;&#160;unpause()</text>
</g>
<!-- 9&#45;&gt;6 -->
<g id="edge10" class="edge">
<title>9&#45;&gt;6</title>
<path fill="none" stroke="#000000" d="M1088.6645,-583.3888C1088.6645,-585.5421 1088.6645,-587.7069 1088.6645,-589.8805"/>
<polygon fill="none" stroke="#000000" points="1078.1646,-589.9259 1088.6645,-619.9259 1099.1646,-589.9259 1078.1646,-589.9259"/>
</g>
<!-- 10 -->
<g id="node11" class="node">
<title>10</title>
<polygon fill="#f2f2f2" stroke="#000000" points="777.9771,-179.1 777.9771,-337.5 1243.3519,-337.5 1243.3519,-179.1 777.9771,-179.1"/>
<text text-anchor="middle" x="1010.6645" y="-320.9" font-family="Times,serif" font-size="14.00" fill="#000000">PausableToken</text>
<polyline fill="none" stroke="#000000" points="777.9771,-312.7 1243.3519,-312.7 "/>
<text text-anchor="middle" x="1010.6645" y="-296.1" font-family="Times,serif" font-size="14.00" fill="#000000"> </text>
<polyline fill="none" stroke="#000000" points="777.9771,-287.9 1243.3519,-287.9 "/>
<text text-anchor="start" x="785.9771" y="-271.3" font-family="Times,serif" font-size="14.00" fill="#000000">Public:</text>
<text text-anchor="start" x="785.9771" y="-254.5" font-family="Times,serif" font-size="14.00" fill="#000000"> &#160;&#160;&#160;transfer(_to: address, _value: uint256): bool</text>
<text text-anchor="start" x="785.9771" y="-237.7" font-family="Times,serif" font-size="14.00" fill="#000000"> &#160;&#160;&#160;transferFrom(_from: address, _to: address, _value: uint256): bool</text>
<text text-anchor="start" x="785.9771" y="-220.9" font-family="Times,serif" font-size="14.00" fill="#000000"> &#160;&#160;&#160;approve(_spender: address, _value: uint256): bool</text>
<text text-anchor="start" x="785.9771" y="-204.1" font-family="Times,serif" font-size="14.00" fill="#000000"> &#160;&#160;&#160;increaseApproval(_spender: address, _addedValue: uint): (success: bool)</text>
<text text-anchor="start" x="785.9771" y="-187.3" font-family="Times,serif" font-size="14.00" fill="#000000"> &#160;&#160;&#160;decreaseApproval(_spender: address, _subtractedValue: uint): (success: bool)</text>
</g>
<!-- 10&#45;&gt;4 -->
<g id="edge11" class="edge">
<title>10&#45;&gt;4</title>
<path fill="none" stroke="#000000" d="M920.1119,-337.7504C904.7893,-351.1943 888.6536,-365.3517 872.6685,-379.377"/>
<polygon fill="none" stroke="#000000" points="865.4967,-371.7008 849.8712,-399.3792 879.3467,-387.4861 865.4967,-371.7008"/>
</g>
<!-- 10&#45;&gt;9 -->
<g id="edge12" class="edge">
<title>10&#45;&gt;9</title>
<path fill="none" stroke="#000000" d="M1037.7262,-337.7504C1040.4694,-345.804 1043.2997,-354.1137 1046.1554,-362.4976"/>
<polygon fill="none" stroke="#000000" points="1036.26,-366.0121 1055.872,-391.0246 1056.1386,-359.2413 1036.26,-366.0121"/>
</g>
<!-- 11 -->
<g id="node12" class="node">
<title>11</title>
<polygon fill="#f2f2f2" stroke="#000000" points="1213.5294,-416.5 1213.5294,-558.1 1467.7996,-558.1 1467.7996,-416.5 1213.5294,-416.5"/>
<text text-anchor="middle" x="1340.6645" y="-541.5" font-family="Times,serif" font-size="14.00" fill="#000000">Claimable</text>
<polyline fill="none" stroke="#000000" points="1213.5294,-533.3 1467.7996,-533.3 "/>
<text text-anchor="start" x="1221.5294" y="-516.7" font-family="Times,serif" font-size="14.00" fill="#000000">Public:</text>
<text text-anchor="start" x="1221.5294" y="-499.9" font-family="Times,serif" font-size="14.00" fill="#000000"> &#160;&#160;pendingOwner: address</text>
<polyline fill="none" stroke="#000000" points="1213.5294,-491.7 1467.7996,-491.7 "/>
<text text-anchor="start" x="1221.5294" y="-475.1" font-family="Times,serif" font-size="14.00" fill="#000000">Public:</text>
<text text-anchor="start" x="1221.5294" y="-458.3" font-family="Times,serif" font-size="14.00" fill="#000000"> &#160;&#160;&#160;&lt;&lt;modifier&gt;&gt; onlyPendingOwner()</text>
<text text-anchor="start" x="1221.5294" y="-441.5" font-family="Times,serif" font-size="14.00" fill="#000000"> &#160;&#160;&#160;transferOwnership(newOwner: address)</text>
<text text-anchor="start" x="1221.5294" y="-424.7" font-family="Times,serif" font-size="14.00" fill="#000000"> &#160;&#160;&#160;claimOwnership()</text>
</g>
<!-- 11&#45;&gt;6 -->
<g id="edge13" class="edge">
<title>11&#45;&gt;6</title>
<path fill="none" stroke="#000000" d="M1267.7757,-558.3955C1254.6477,-571.2005 1240.5782,-584.9239 1226.3077,-598.8432"/>
<polygon fill="none" stroke="#000000" points="1218.7361,-591.5608 1204.5919,-620.0248 1233.3993,-606.5939 1218.7361,-591.5608"/>
</g>
<!-- 12 -->
<g id="node13" class="node">
<title>12</title>
<polygon fill="#f2f2f2" stroke="#000000" points="1348.8383,-662.3 1348.8383,-803.9 1834.4907,-803.9 1834.4907,-662.3 1348.8383,-662.3"/>
<text text-anchor="middle" x="1591.6645" y="-787.3" font-family="Times,serif" font-size="14.00" fill="#000000">&lt;&lt;Library&gt;&gt;</text>
<text text-anchor="middle" x="1591.6645" y="-770.5" font-family="Times,serif" font-size="14.00" fill="#000000">SafeERC20</text>
<polyline fill="none" stroke="#000000" points="1348.8383,-762.3 1834.4907,-762.3 "/>
<text text-anchor="middle" x="1591.6645" y="-745.7" font-family="Times,serif" font-size="14.00" fill="#000000"> </text>
<polyline fill="none" stroke="#000000" points="1348.8383,-737.5 1834.4907,-737.5 "/>
<text text-anchor="start" x="1356.8383" y="-720.9" font-family="Times,serif" font-size="14.00" fill="#000000">Internal:</text>
<text text-anchor="start" x="1356.8383" y="-704.1" font-family="Times,serif" font-size="14.00" fill="#000000"> &#160;&#160;&#160;safeTransfer(_token: ERC20Basic, _to: address, _value: uint256)</text>
<text text-anchor="start" x="1356.8383" y="-687.3" font-family="Times,serif" font-size="14.00" fill="#000000"> &#160;&#160;&#160;safeTransferFrom(_token: ERC20, _from: address, _to: address, _value: uint256)</text>
<text text-anchor="start" x="1356.8383" y="-670.5" font-family="Times,serif" font-size="14.00" fill="#000000"> &#160;&#160;&#160;safeApprove(_token: ERC20, _spender: address, _value: uint256)</text>
</g>
<!-- 12&#45;&gt;0 -->
<g id="edge14" class="edge">
<title>12&#45;&gt;0</title>
<path fill="none" stroke="#000000" stroke-dasharray="5,2" d="M1458.9349,-803.9243C1338.869,-867.5215 1156.8622,-962.7632 996.6645,-1041.8 975.2966,-1052.3423 952.7863,-1063.2101 930.4081,-1073.8683"/>
<polygon fill="#000000" stroke="#000000" points="928.6979,-1070.8059 921.1692,-1078.2604 931.7034,-1077.1279 928.6979,-1070.8059"/>
</g>
<!-- 12&#45;&gt;3 -->
<g id="edge15" class="edge">
<title>12&#45;&gt;3</title>
<path fill="none" stroke="#000000" stroke-dasharray="5,2" d="M1449.2997,-803.9163C1414.0759,-819.528 1376.0039,-834.8362 1339.6645,-846.4 1229.4639,-881.4676 1104.1429,-907.8525 997.4293,-926.502"/>
<polygon fill="#000000" stroke="#000000" points="996.7451,-923.0683 987.4904,-928.226 997.9415,-929.9653 996.7451,-923.0683"/>
</g>
<!-- 13 -->
<g id="node14" class="node">
<title>13</title>
<polygon fill="#f2f2f2" stroke="#000000" points="1486.2209,-441.7 1486.2209,-532.9 1721.1081,-532.9 1721.1081,-441.7 1486.2209,-441.7"/>
<text text-anchor="middle" x="1603.6645" y="-516.3" font-family="Times,serif" font-size="14.00" fill="#000000">CanReclaimToken</text>
<polyline fill="none" stroke="#000000" points="1486.2209,-508.1 1721.1081,-508.1 "/>
<text text-anchor="middle" x="1603.6645" y="-491.5" font-family="Times,serif" font-size="14.00" fill="#000000"> </text>
<polyline fill="none" stroke="#000000" points="1486.2209,-483.3 1721.1081,-483.3 "/>
<text text-anchor="start" x="1494.2209" y="-466.7" font-family="Times,serif" font-size="14.00" fill="#000000">External:</text>
<text text-anchor="start" x="1494.2209" y="-449.9" font-family="Times,serif" font-size="14.00" fill="#000000"> &#160;&#160;&#160;reclaimToken(_token: ERC20Basic)</text>
</g>
<!-- 13&#45;&gt;0 -->
<g id="edge18" class="edge">
<title>13&#45;&gt;0</title>
<path fill="none" stroke="#000000" stroke-dasharray="5,2" d="M1721.2719,-522.7438C1767.9057,-543.2103 1816.7518,-574.2003 1843.6645,-619.8 1894.8532,-706.532 1904.2357,-765.9397 1843.6645,-846.4 1736.5662,-988.6651 1237.3467,-1084.8895 951.6939,-1129.3316"/>
<polygon fill="#000000" stroke="#000000" points="950.9702,-1125.9018 941.6234,-1130.8907 952.0412,-1132.8194 950.9702,-1125.9018"/>
</g>
<!-- 13&#45;&gt;6 -->
<g id="edge16" class="edge">
<title>13&#45;&gt;6</title>
<path fill="none" stroke="#000000" d="M1552.9706,-533.1369C1530.8506,-551.1228 1503.799,-570.5797 1476.6645,-583.8 1428.9116,-607.0659 1406.4558,-601.7322 1359.8629,-613.9573"/>
<polygon fill="none" stroke="#000000" points="1356.7265,-603.9365 1331.1808,-622.8486 1362.9445,-623.9948 1356.7265,-603.9365"/>
</g>
<!-- 13&#45;&gt;12 -->
<g id="edge17" class="edge">
<title>13&#45;&gt;12</title>
<path fill="none" stroke="#000000" stroke-dasharray="5,2" d="M1601.4355,-532.957C1599.8081,-566.2913 1597.5583,-612.3749 1595.6277,-651.92"/>
<polygon fill="#000000" stroke="#000000" points="1592.1233,-651.9268 1595.1314,-662.0856 1599.115,-652.2682 1592.1233,-651.9268"/>
</g>
<!-- 14 -->
<g id="node15" class="node">
<title>14</title>
<polygon fill="#f2f2f2" stroke="#000000" points="1283.2942,-221.1 1283.2942,-295.5 1398.0348,-295.5 1398.0348,-221.1 1283.2942,-221.1"/>
<text text-anchor="middle" x="1340.6645" y="-278.9" font-family="Times,serif" font-size="14.00" fill="#000000">OwnableContract</text>
<polyline fill="none" stroke="#000000" points="1283.2942,-270.7 1398.0348,-270.7 "/>
<text text-anchor="middle" x="1340.6645" y="-254.1" font-family="Times,serif" font-size="14.00" fill="#000000"> </text>
<polyline fill="none" stroke="#000000" points="1283.2942,-245.9 1398.0348,-245.9 "/>
<text text-anchor="middle" x="1340.6645" y="-229.3" font-family="Times,serif" font-size="14.00" fill="#000000"> </text>
</g>
<!-- 14&#45;&gt;11 -->
<g id="edge20" class="edge">
<title>14&#45;&gt;11</title>
<path fill="none" stroke="#000000" d="M1340.6645,-295.6025C1340.6645,-320.2857 1340.6645,-353.928 1340.6645,-386.1421"/>
<polygon fill="none" stroke="#000000" points="1330.1646,-386.2511 1340.6645,-416.2511 1351.1646,-386.2512 1330.1646,-386.2511"/>
</g>
<!-- 14&#45;&gt;13 -->
<g id="edge19" class="edge">
<title>14&#45;&gt;13</title>
<path fill="none" stroke="#000000" d="M1383.5053,-295.6025C1422.6039,-329.6465 1481.2758,-380.7334 1528.221,-421.6097"/>
<polygon fill="none" stroke="#000000" points="1521.3398,-429.5405 1550.8601,-441.322 1535.13,-413.7029 1521.3398,-429.5405"/>
</g>
<!-- 15 -->
<g id="node16" class="node">
<title>15</title>
<polygon fill="#f2f2f2" stroke="#000000" points="586.6399,-.5 586.6399,-125.3 738.6891,-125.3 738.6891,-.5 586.6399,-.5"/>
<text text-anchor="middle" x="662.6645" y="-108.7" font-family="Times,serif" font-size="14.00" fill="#000000">WBTC</text>
<polyline fill="none" stroke="#000000" points="586.6399,-100.5 738.6891,-100.5 "/>
<text text-anchor="middle" x="662.6645" y="-83.9" font-family="Times,serif" font-size="14.00" fill="#000000"> </text>
<polyline fill="none" stroke="#000000" points="586.6399,-75.7 738.6891,-75.7 "/>
<text text-anchor="start" x="594.6399" y="-59.1" font-family="Times,serif" font-size="14.00" fill="#000000">Public:</text>
<text text-anchor="start" x="594.6399" y="-42.3" font-family="Times,serif" font-size="14.00" fill="#000000"> &#160;&#160;&#160;burn(value: uint)</text>
<text text-anchor="start" x="594.6399" y="-25.5" font-family="Times,serif" font-size="14.00" fill="#000000"> &#160;&#160;&#160;finishMinting(): bool</text>
<text text-anchor="start" x="594.6399" y="-8.7" font-family="Times,serif" font-size="14.00" fill="#000000"> &#160;&#160;&#160;renounceOwnership()</text>
</g>
<!-- 15&#45;&gt;8 -->
<g id="edge24" class="edge">
<title>15&#45;&gt;8</title>
<path fill="none" stroke="#000000" d="M586.3739,-74.5345C532.0921,-86.8747 461.7645,-111.8617 420.6645,-161.8 365.1087,-229.3027 408.2611,-271.2065 382.6645,-354.8 379.2945,-365.8059 375.3227,-377.1437 371.0752,-388.3371"/>
<polygon fill="none" stroke="#000000" points="361.2268,-384.6847 359.7781,-416.4361 380.711,-392.5183 361.2268,-384.6847"/>
</g>
<!-- 15&#45;&gt;4 -->
<g id="edge21" class="edge">
<title>15&#45;&gt;4</title>
<path fill="none" stroke="#000000" d="M712.9087,-125.3323C720.0265,-136.8917 726.3729,-149.2837 730.6645,-161.8 753.3727,-228.0279 758.5736,-306.2401 757.8834,-369.3976"/>
<polygon fill="none" stroke="#000000" points="747.3833,-369.2697 757.1038,-399.5312 768.3763,-369.8128 747.3833,-369.2697"/>
</g>
<!-- 15&#45;&gt;5 -->
<g id="edge22" class="edge">
<title>15&#45;&gt;5</title>
<path fill="none" stroke="#000000" d="M586.581,-87.9199C530.9215,-106.788 453.8895,-134.0798 387.6645,-161.8 377.6107,-166.0083 367.3369,-170.4582 357.0133,-175.0457"/>
<polygon fill="none" stroke="#000000" points="352.671,-165.4856 329.6862,-187.439 361.3446,-184.6107 352.671,-165.4856"/>
</g>
<!-- 15&#45;&gt;7 -->
<g id="edge23" class="edge">
<title>15&#45;&gt;7</title>
<path fill="none" stroke="#000000" d="M634.7782,-125.5321C633.4327,-128.5539 632.0643,-131.6273 630.6791,-134.7384"/>
<polygon fill="none" stroke="#000000" points="621.0567,-130.5357 618.4464,-162.2128 640.241,-139.0774 621.0567,-130.5357"/>
</g>
<!-- 15&#45;&gt;10 -->
<g id="edge25" class="edge">
<title>15&#45;&gt;10</title>
<path fill="none" stroke="#000000" d="M739.0346,-105.7814C769.7855,-123.0478 806.5515,-143.6917 842.9502,-164.1294"/>
<polygon fill="none" stroke="#000000" points="837.9987,-173.3911 869.2979,-178.9235 848.2802,-155.0801 837.9987,-173.3911"/>
</g>
<!-- 15&#45;&gt;14 -->
<g id="edge26" class="edge">
<title>15&#45;&gt;14</title>
<path fill="none" stroke="#000000" d="M738.7056,-69.436C877.3851,-82.3638 1165.1627,-114.1384 1252.6645,-161.8 1269.1194,-170.7629 1284.1209,-183.9952 1296.8927,-197.8066"/>
<polygon fill="none" stroke="#000000" points="1288.8853,-204.5994 1316.1445,-220.9452 1305.0284,-191.168 1288.8853,-204.5994"/>
</g>
</g>
</svg>
