<?xml version="1.0" encoding="UTF-8" standalone="no"?>
<!DOCTYPE svg PUBLIC "-//W3C//DTD SVG 1.1//EN"
 "http://www.w3.org/Graphics/SVG/1.1/DTD/svg11.dtd">
<!-- Generated by graphviz version 2.40.1 (20161225.0304)
 -->
<!-- Title: UmlClassDiagram Pages: 1 -->
<svg width="1259pt" height="999pt"
 viewBox="0.00 0.00 1258.75 999.40" xmlns="http://www.w3.org/2000/svg" xmlns:xlink="http://www.w3.org/1999/xlink">
<g id="graph0" class="graph" transform="scale(1 1) rotate(0) translate(4 995.4)">
<title>UmlClassDiagram</title>
<polygon fill="#ffffff" stroke="transparent" points="-4,4 -4,-995.4 1254.7491,-995.4 1254.7491,4 -4,4"/>
<!-- 0 -->
<g id="node1" class="node">
<title>0</title>
<polygon fill="#f2f2f2" stroke="#000000" points="513.0576,-832.5 513.0576,-990.9 767.8164,-990.9 767.8164,-832.5 513.0576,-832.5"/>
<text text-anchor="middle" x="640.437" y="-974.3" font-family="Times,serif" font-size="14.00" fill="#000000">&lt;&lt;Library&gt;&gt;</text>
<text text-anchor="middle" x="640.437" y="-957.5" font-family="Times,serif" font-size="14.00" fill="#000000">SafeMath</text>
<polyline fill="none" stroke="#000000" points="513.0576,-949.3 767.8164,-949.3 "/>
<text text-anchor="middle" x="640.437" y="-932.7" font-family="Times,serif" font-size="14.00" fill="#000000"> </text>
<polyline fill="none" stroke="#000000" points="513.0576,-924.5 767.8164,-924.5 "/>
<text text-anchor="start" x="521.0576" y="-907.9" font-family="Times,serif" font-size="14.00" fill="#000000">Internal:</text>
<text text-anchor="start" x="521.0576" y="-891.1" font-family="Times,serif" font-size="14.00" fill="#000000"> &#160;&#160;&#160;mul(a: uint256, b: uint256): (c: uint256)</text>
<text text-anchor="start" x="521.0576" y="-874.3" font-family="Times,serif" font-size="14.00" fill="#000000"> &#160;&#160;&#160;div(a: uint256, b: uint256): uint256</text>
<text text-anchor="start" x="521.0576" y="-857.5" font-family="Times,serif" font-size="14.00" fill="#000000"> &#160;&#160;&#160;sub(a: uint256, b: uint256): uint256</text>
<text text-anchor="start" x="521.0576" y="-840.7" font-family="Times,serif" font-size="14.00" fill="#000000"> &#160;&#160;&#160;add(a: uint256, b: uint256): (c: uint256)</text>
</g>
<!-- 1 -->
<g id="node2" class="node">
<title>1</title>
<polygon fill="#f2f2f2" stroke="#000000" points="0,-603.5 0,-795.5 484.874,-795.5 484.874,-603.5 0,-603.5"/>
<text text-anchor="middle" x="242.437" y="-778.9" font-family="Times,serif" font-size="14.00" fill="#000000">Ownable</text>
<polyline fill="none" stroke="#000000" points="0,-770.7 484.874,-770.7 "/>
<text text-anchor="start" x="8" y="-754.1" font-family="Times,serif" font-size="14.00" fill="#000000">Public:</text>
<text text-anchor="start" x="8" y="-737.3" font-family="Times,serif" font-size="14.00" fill="#000000"> &#160;&#160;owner: address</text>
<polyline fill="none" stroke="#000000" points="0,-729.1 484.874,-729.1 "/>
<text text-anchor="start" x="8" y="-712.5" font-family="Times,serif" font-size="14.00" fill="#000000">Public:</text>
<text text-anchor="start" x="8" y="-695.7" font-family="Times,serif" font-size="14.00" fill="#000000"> &#160;&#160;&#160;&lt;&lt;event&gt;&gt; OwnershipRenounced(previousOwner: address)</text>
<text text-anchor="start" x="8" y="-678.9" font-family="Times,serif" font-size="14.00" fill="#000000"> &#160;&#160;&#160;&lt;&lt;event&gt;&gt; OwnershipTransferred(previousOwner: address, newOwner: address)</text>
<text text-anchor="start" x="8" y="-662.1" font-family="Times,serif" font-size="14.00" fill="#000000"> &#160;&#160;&#160;&lt;&lt;modifier&gt;&gt; onlyOwner()</text>
<text text-anchor="start" x="8" y="-645.3" font-family="Times,serif" font-size="14.00" fill="#000000"> &#160;&#160;&#160;constructor()</text>
<text text-anchor="start" x="8" y="-628.5" font-family="Times,serif" font-size="14.00" fill="#000000"> &#160;&#160;&#160;transferOwnership(newOwner: address)</text>
<text text-anchor="start" x="8" y="-611.7" font-family="Times,serif" font-size="14.00" fill="#000000"> &#160;&#160;&#160;renounceOwnership()</text>
</g>
<!-- 2 -->
<g id="node3" class="node">
<title>2</title>
<polygon fill="#f2f2f2" stroke="#000000" points="135.646,-374.5 135.646,-566.5 349.228,-566.5 349.228,-374.5 135.646,-374.5"/>
<text text-anchor="middle" x="242.437" y="-549.9" font-family="Times,serif" font-size="14.00" fill="#000000">Pausable</text>
<polyline fill="none" stroke="#000000" points="135.646,-541.7 349.228,-541.7 "/>
<text text-anchor="start" x="143.646" y="-525.1" font-family="Times,serif" font-size="14.00" fill="#000000">Public:</text>
<text text-anchor="start" x="143.646" y="-508.3" font-family="Times,serif" font-size="14.00" fill="#000000"> &#160;&#160;paused: bool</text>
<polyline fill="none" stroke="#000000" points="135.646,-500.1 349.228,-500.1 "/>
<text text-anchor="start" x="143.646" y="-483.5" font-family="Times,serif" font-size="14.00" fill="#000000">Public:</text>
<text text-anchor="start" x="143.646" y="-466.7" font-family="Times,serif" font-size="14.00" fill="#000000"> &#160;&#160;&#160;&lt;&lt;event&gt;&gt; Pause()</text>
<text text-anchor="start" x="143.646" y="-449.9" font-family="Times,serif" font-size="14.00" fill="#000000"> &#160;&#160;&#160;&lt;&lt;event&gt;&gt; Unpause()</text>
<text text-anchor="start" x="143.646" y="-433.1" font-family="Times,serif" font-size="14.00" fill="#000000"> &#160;&#160;&#160;&lt;&lt;modifier&gt;&gt; whenNotPaused()</text>
<text text-anchor="start" x="143.646" y="-416.3" font-family="Times,serif" font-size="14.00" fill="#000000"> &#160;&#160;&#160;&lt;&lt;modifier&gt;&gt; whenPaused()</text>
<text text-anchor="start" x="143.646" y="-399.5" font-family="Times,serif" font-size="14.00" fill="#000000"> &#160;&#160;&#160;pause()</text>
<text text-anchor="start" x="143.646" y="-382.7" font-family="Times,serif" font-size="14.00" fill="#000000"> &#160;&#160;&#160;unpause()</text>
</g>
<!-- 2&#45;&gt;1 -->
<g id="edge1" class="edge">
<title>2&#45;&gt;1</title>
<path fill="none" stroke="#000000" d="M242.437,-566.6213C242.437,-568.7986 242.437,-570.9851 242.437,-573.1774"/>
<polygon fill="none" stroke="#000000" points="231.9371,-573.2576 242.437,-603.2576 252.9371,-573.2577 231.9371,-573.2576"/>
</g>
<!-- 3 -->
<g id="node4" class="node">
<title>3</title>
<polygon fill="#f2f2f2" stroke="#000000" points="808.7066,-832.5 808.7066,-990.9 1192.1674,-990.9 1192.1674,-832.5 808.7066,-832.5"/>
<text text-anchor="middle" x="1000.437" y="-974.3" font-family="Times,serif" font-size="14.00" fill="#000000">&lt;&lt;Abstract&gt;&gt;</text>
<text text-anchor="middle" x="1000.437" y="-957.5" font-family="Times,serif" font-size="14.00" fill="#000000">ERC20Basic</text>
<polyline fill="none" stroke="#000000" points="808.7066,-949.3 1192.1674,-949.3 "/>
<text text-anchor="middle" x="1000.437" y="-932.7" font-family="Times,serif" font-size="14.00" fill="#000000"> </text>
<polyline fill="none" stroke="#000000" points="808.7066,-924.5 1192.1674,-924.5 "/>
<text text-anchor="start" x="816.7066" y="-907.9" font-family="Times,serif" font-size="14.00" fill="#000000">Public:</text>
<text text-anchor="start" x="816.7066" y="-891.1" font-family="Times,serif" font-size="14.00" fill="#000000"> &#160;&#160;&#160;&lt;&lt;abstract&gt;&gt; totalSupply(): uint256</text>
<text text-anchor="start" x="816.7066" y="-874.3" font-family="Times,serif" font-size="14.00" fill="#000000"> &#160;&#160;&#160;&lt;&lt;abstract&gt;&gt; balanceOf(who: address): uint256</text>
<text text-anchor="start" x="816.7066" y="-857.5" font-family="Times,serif" font-size="14.00" fill="#000000"> &#160;&#160;&#160;&lt;&lt;abstract&gt;&gt; transfer(to: address, value: uint256): bool</text>
<text text-anchor="start" x="816.7066" y="-840.7" font-family="Times,serif" font-size="14.00" fill="#000000"> &#160;&#160;&#160;&lt;&lt;event&gt;&gt; Transfer(from: address, to: address, value: uint256)</text>
</g>
<!-- 4 -->
<g id="node5" class="node">
<title>4</title>
<polygon fill="#f2f2f2" stroke="#000000" points="796.1249,-620.3 796.1249,-778.7 1250.7491,-778.7 1250.7491,-620.3 796.1249,-620.3"/>
<text text-anchor="middle" x="1023.437" y="-762.1" font-family="Times,serif" font-size="14.00" fill="#000000">&lt;&lt;Abstract&gt;&gt;</text>
<text text-anchor="middle" x="1023.437" y="-745.3" font-family="Times,serif" font-size="14.00" fill="#000000">ERC20</text>
<polyline fill="none" stroke="#000000" points="796.1249,-737.1 1250.7491,-737.1 "/>
<text text-anchor="middle" x="1023.437" y="-720.5" font-family="Times,serif" font-size="14.00" fill="#000000"> </text>
<polyline fill="none" stroke="#000000" points="796.1249,-712.3 1250.7491,-712.3 "/>
<text text-anchor="start" x="804.1249" y="-695.7" font-family="Times,serif" font-size="14.00" fill="#000000">Public:</text>
<text text-anchor="start" x="804.1249" y="-678.9" font-family="Times,serif" font-size="14.00" fill="#000000"> &#160;&#160;&#160;&lt;&lt;abstract&gt;&gt; allowance(owner: address, spender: address): uint256</text>
<text text-anchor="start" x="804.1249" y="-662.1" font-family="Times,serif" font-size="14.00" fill="#000000"> &#160;&#160;&#160;&lt;&lt;abstract&gt;&gt; transferFrom(from: address, to: address, value: uint256): bool</text>
<text text-anchor="start" x="804.1249" y="-645.3" font-family="Times,serif" font-size="14.00" fill="#000000"> &#160;&#160;&#160;&lt;&lt;abstract&gt;&gt; approve(spender: address, value: uint256): bool</text>
<text text-anchor="start" x="804.1249" y="-628.5" font-family="Times,serif" font-size="14.00" fill="#000000"> &#160;&#160;&#160;&lt;&lt;event&gt;&gt; Approval(owner: address, spender: address, value: uint256)</text>
</g>
<!-- 4&#45;&gt;3 -->
<g id="edge2" class="edge">
<title>4&#45;&gt;3</title>
<path fill="none" stroke="#000000" d="M1014.8399,-778.8172C1014.0082,-786.491 1013.1548,-794.3649 1012.2986,-802.2634"/>
<polygon fill="none" stroke="#000000" points="1001.8176,-801.5221 1009.0236,-832.4789 1022.6953,-803.785 1001.8176,-801.5221"/>
</g>
<!-- 5 -->
<g id="node6" class="node">
<title>5</title>
<polygon fill="#f2f2f2" stroke="#000000" points="502.3868,-620.3 502.3868,-778.7 778.4872,-778.7 778.4872,-620.3 502.3868,-620.3"/>
<text text-anchor="middle" x="640.437" y="-762.1" font-family="Times,serif" font-size="14.00" fill="#000000">BasicToken</text>
<polyline fill="none" stroke="#000000" points="502.3868,-753.9 778.4872,-753.9 "/>
<text text-anchor="start" x="510.3868" y="-737.3" font-family="Times,serif" font-size="14.00" fill="#000000">Public:</text>
<text text-anchor="start" x="510.3868" y="-720.5" font-family="Times,serif" font-size="14.00" fill="#000000"> &#160;&#160;balances: mapping(address=&gt;uint256)</text>
<text text-anchor="start" x="510.3868" y="-703.7" font-family="Times,serif" font-size="14.00" fill="#000000"> &#160;&#160;totalSupply_: uint256</text>
<polyline fill="none" stroke="#000000" points="502.3868,-695.5 778.4872,-695.5 "/>
<text text-anchor="start" x="510.3868" y="-678.9" font-family="Times,serif" font-size="14.00" fill="#000000">Public:</text>
<text text-anchor="start" x="510.3868" y="-662.1" font-family="Times,serif" font-size="14.00" fill="#000000"> &#160;&#160;&#160;totalSupply(): uint256</text>
<text text-anchor="start" x="510.3868" y="-645.3" font-family="Times,serif" font-size="14.00" fill="#000000"> &#160;&#160;&#160;transfer(_to: address, _value: uint256): bool</text>
<text text-anchor="start" x="510.3868" y="-628.5" font-family="Times,serif" font-size="14.00" fill="#000000"> &#160;&#160;&#160;balanceOf(_owner: address): uint256</text>
</g>
<!-- 5&#45;&gt;0 -->
<g id="edge4" class="edge">
<title>5&#45;&gt;0</title>
<path fill="none" stroke="#000000" stroke-dasharray="5,2" d="M640.437,-778.8172C640.437,-792.9316 640.437,-807.7226 640.437,-822.0992"/>
<polygon fill="#000000" stroke="#000000" points="636.9371,-822.4788 640.437,-832.4789 643.9371,-822.4789 636.9371,-822.4788"/>
</g>
<!-- 5&#45;&gt;3 -->
<g id="edge3" class="edge">
<title>5&#45;&gt;3</title>
<path fill="none" stroke="#000000" d="M759.4461,-778.8149C768.8589,-784.7231 778.2683,-790.5133 787.437,-796 799.2858,-803.0905 811.5965,-810.2642 824.056,-817.3832"/>
<polygon fill="none" stroke="#000000" points="819.294,-826.7523 850.5825,-832.3449 829.6107,-808.4611 819.294,-826.7523"/>
</g>
<!-- 6 -->
<g id="node7" class="node">
<title>6</title>
<polygon fill="#f2f2f2" stroke="#000000" points="366.8329,-416.5 366.8329,-524.5 580.0411,-524.5 580.0411,-416.5 366.8329,-416.5"/>
<text text-anchor="middle" x="473.437" y="-507.9" font-family="Times,serif" font-size="14.00" fill="#000000">BurnableToken</text>
<polyline fill="none" stroke="#000000" points="366.8329,-499.7 580.0411,-499.7 "/>
<text text-anchor="middle" x="473.437" y="-483.1" font-family="Times,serif" font-size="14.00" fill="#000000"> </text>
<polyline fill="none" stroke="#000000" points="366.8329,-474.9 580.0411,-474.9 "/>
<text text-anchor="start" x="374.8329" y="-458.3" font-family="Times,serif" font-size="14.00" fill="#000000">Public:</text>
<text text-anchor="start" x="374.8329" y="-441.5" font-family="Times,serif" font-size="14.00" fill="#000000"> &#160;&#160;&#160;&lt;&lt;event&gt;&gt; Burn(value: uint256)</text>
<text text-anchor="start" x="374.8329" y="-424.7" font-family="Times,serif" font-size="14.00" fill="#000000"> &#160;&#160;&#160;burn(_value: uint256)</text>
</g>
<!-- 6&#45;&gt;1 -->
<g id="edge6" class="edge">
<title>6&#45;&gt;1</title>
<path fill="none" stroke="#000000" d="M418.6932,-524.7698C401.1603,-542.151 381.0161,-562.1207 360.7562,-582.2052"/>
<polygon fill="none" stroke="#000000" points="353.1905,-574.9202 339.2776,-603.4979 367.9751,-589.8339 353.1905,-574.9202"/>
</g>
<!-- 6&#45;&gt;5 -->
<g id="edge5" class="edge">
<title>6&#45;&gt;5</title>
<path fill="none" stroke="#000000" d="M513.0137,-524.7698C528.4858,-545.9861 546.7706,-571.0592 564.587,-595.4901"/>
<polygon fill="none" stroke="#000000" points="556.324,-601.9797 582.4844,-620.032 573.2915,-589.606 556.324,-601.9797"/>
</g>
<!-- 7 -->
<g id="node8" class="node">
<title>7</title>
<polygon fill="#f2f2f2" stroke="#000000" points="598.0943,-382.9 598.0943,-558.1 1004.7797,-558.1 1004.7797,-382.9 598.0943,-382.9"/>
<text text-anchor="middle" x="801.437" y="-541.5" font-family="Times,serif" font-size="14.00" fill="#000000">StandardToken</text>
<polyline fill="none" stroke="#000000" points="598.0943,-533.3 1004.7797,-533.3 "/>
<text text-anchor="start" x="606.0943" y="-516.7" font-family="Times,serif" font-size="14.00" fill="#000000">Internal:</text>
<text text-anchor="start" x="606.0943" y="-499.9" font-family="Times,serif" font-size="14.00" fill="#000000"> &#160;&#160;allowed: mapping(address=&gt;mapping(address=&gt;uint256))</text>
<polyline fill="none" stroke="#000000" points="598.0943,-491.7 1004.7797,-491.7 "/>
<text text-anchor="start" x="606.0943" y="-475.1" font-family="Times,serif" font-size="14.00" fill="#000000">Public:</text>
<text text-anchor="start" x="606.0943" y="-458.3" font-family="Times,serif" font-size="14.00" fill="#000000"> &#160;&#160;&#160;transferFrom(_from: address, _to: address, _value: uint256): bool</text>
<text text-anchor="start" x="606.0943" y="-441.5" font-family="Times,serif" font-size="14.00" fill="#000000"> &#160;&#160;&#160;approve(_spender: address, _value: uint256): bool</text>
<text text-anchor="start" x="606.0943" y="-424.7" font-family="Times,serif" font-size="14.00" fill="#000000"> &#160;&#160;&#160;allowance(_owner: address, _spender: address): uint256</text>
<text text-anchor="start" x="606.0943" y="-407.9" font-family="Times,serif" font-size="14.00" fill="#000000"> &#160;&#160;&#160;increaseApproval(_spender: address, _addedValue: uint): bool</text>
<text text-anchor="start" x="606.0943" y="-391.1" font-family="Times,serif" font-size="14.00" fill="#000000"> &#160;&#160;&#160;decreaseApproval(_spender: address, _subtractedValue: uint): bool</text>
</g>
<!-- 7&#45;&gt;4 -->
<g id="edge7" class="edge">
<title>7&#45;&gt;4</title>
<path fill="none" stroke="#000000" d="M886.6331,-558.3825C899.2447,-571.3917 912.3268,-584.8863 925.178,-598.1427"/>
<polygon fill="none" stroke="#000000" points="918.0434,-605.8684 946.4638,-620.0998 933.1213,-591.2514 918.0434,-605.8684"/>
</g>
<!-- 7&#45;&gt;5 -->
<g id="edge8" class="edge">
<title>7&#45;&gt;5</title>
<path fill="none" stroke="#000000" d="M739.6506,-558.3825C731.1736,-570.4398 722.4035,-582.9141 713.7453,-595.2292"/>
<polygon fill="none" stroke="#000000" points="704.9245,-589.5191 696.2599,-620.0998 722.1037,-601.5971 704.9245,-589.5191"/>
</g>
<!-- 8 -->
<g id="node9" class="node">
<title>8</title>
<polygon fill="#f2f2f2" stroke="#000000" points="9.7496,-179.1 9.7496,-337.5 475.1244,-337.5 475.1244,-179.1 9.7496,-179.1"/>
<text text-anchor="middle" x="242.437" y="-320.9" font-family="Times,serif" font-size="14.00" fill="#000000">PausableToken</text>
<polyline fill="none" stroke="#000000" points="9.7496,-312.7 475.1244,-312.7 "/>
<text text-anchor="middle" x="242.437" y="-296.1" font-family="Times,serif" font-size="14.00" fill="#000000"> </text>
<polyline fill="none" stroke="#000000" points="9.7496,-287.9 475.1244,-287.9 "/>
<text text-anchor="start" x="17.7496" y="-271.3" font-family="Times,serif" font-size="14.00" fill="#000000">Public:</text>
<text text-anchor="start" x="17.7496" y="-254.5" font-family="Times,serif" font-size="14.00" fill="#000000"> &#160;&#160;&#160;transfer(_to: address, _value: uint256): bool</text>
<text text-anchor="start" x="17.7496" y="-237.7" font-family="Times,serif" font-size="14.00" fill="#000000"> &#160;&#160;&#160;transferFrom(_from: address, _to: address, _value: uint256): bool</text>
<text text-anchor="start" x="17.7496" y="-220.9" font-family="Times,serif" font-size="14.00" fill="#000000"> &#160;&#160;&#160;approve(_spender: address, _value: uint256): bool</text>
<text text-anchor="start" x="17.7496" y="-204.1" font-family="Times,serif" font-size="14.00" fill="#000000"> &#160;&#160;&#160;increaseApproval(_spender: address, _addedValue: uint): (success: bool)</text>
<text text-anchor="start" x="17.7496" y="-187.3" font-family="Times,serif" font-size="14.00" fill="#000000"> &#160;&#160;&#160;decreaseApproval(_spender: address, _subtractedValue: uint): (success: bool)</text>
</g>
<!-- 8&#45;&gt;2 -->
<g id="edge10" class="edge">
<title>8&#45;&gt;2</title>
<path fill="none" stroke="#000000" d="M242.437,-337.6172C242.437,-339.8686 242.437,-342.1372 242.437,-344.4186"/>
<polygon fill="none" stroke="#000000" points="231.9371,-344.4367 242.437,-374.4367 252.9371,-344.4368 231.9371,-344.4367"/>
</g>
<!-- 8&#45;&gt;7 -->
<g id="edge9" class="edge">
<title>8&#45;&gt;7</title>
<path fill="none" stroke="#000000" d="M475.5704,-332.2753C507.3559,-343.2523 539.6834,-354.8715 583.2113,-371.7758"/>
<polygon fill="none" stroke="#000000" points="579.6799,-381.6696 611.4421,-382.8613 587.3556,-362.1226 579.6799,-381.6696"/>
</g>
<!-- 9 -->
<g id="node10" class="node">
<title>9</title>
<polygon fill="#f2f2f2" stroke="#000000" points="271.7045,-.5 271.7045,-142.1 473.1695,-142.1 473.1695,-.5 271.7045,-.5"/>
<text text-anchor="middle" x="372.437" y="-125.5" font-family="Times,serif" font-size="14.00" fill="#000000">MossCoin</text>
<polyline fill="none" stroke="#000000" points="271.7045,-117.3 473.1695,-117.3 "/>
<text text-anchor="start" x="279.7045" y="-100.7" font-family="Times,serif" font-size="14.00" fill="#000000">Public:</text>
<text text-anchor="start" x="279.7045" y="-83.9" font-family="Times,serif" font-size="14.00" fill="#000000"> &#160;&#160;name: string</text>
<text text-anchor="start" x="279.7045" y="-67.1" font-family="Times,serif" font-size="14.00" fill="#000000"> &#160;&#160;symbol: string</text>
<text text-anchor="start" x="279.7045" y="-50.3" font-family="Times,serif" font-size="14.00" fill="#000000"> &#160;&#160;decimals: uint8</text>
<polyline fill="none" stroke="#000000" points="271.7045,-42.1 473.1695,-42.1 "/>
<text text-anchor="start" x="279.7045" y="-25.5" font-family="Times,serif" font-size="14.00" fill="#000000">Public:</text>
<text text-anchor="start" x="279.7045" y="-8.7" font-family="Times,serif" font-size="14.00" fill="#000000"> &#160;&#160;&#160;constructor(_amount: uint256)</text>
</g>
<!-- 9&#45;&gt;6 -->
<g id="edge12" class="edge">
<title>9&#45;&gt;6</title>
<path fill="none" stroke="#000000" d="M461.7173,-142.2643C470.9035,-153.4157 478.8873,-165.5977 484.437,-178.6 512.5787,-244.533 506.2876,-326.6543 495.0095,-386.9825"/>
<polygon fill="none" stroke="#000000" points="484.7345,-384.821 488.8132,-416.3426 505.2819,-389.1574 484.7345,-384.821"/>
</g>
<!-- 9&#45;&gt;8 -->
<g id="edge11" class="edge">
<title>9&#45;&gt;8</title>
<path fill="none" stroke="#000000" d="M323.1042,-142.2633C320.3703,-146.196 317.597,-150.1853 314.8053,-154.201"/>
<polygon fill="none" stroke="#000000" points="306.1084,-148.3162 297.6055,-178.9422 323.3512,-160.3032 306.1084,-148.3162"/>
</g>
</g>
</svg>
