<?xml version="1.0" encoding="UTF-8" standalone="no"?>
<!DOCTYPE svg PUBLIC "-//W3C//DTD SVG 1.1//EN"
 "http://www.w3.org/Graphics/SVG/1.1/DTD/svg11.dtd">
<!-- Generated by graphviz version 2.40.1 (20161225.0304)
 -->
<!-- Title: UmlClassDiagram Pages: 1 -->
<svg width="1111pt" height="1218pt"
 viewBox="0.00 0.00 1110.80 1217.80" xmlns="http://www.w3.org/2000/svg" xmlns:xlink="http://www.w3.org/1999/xlink">
<g id="graph0" class="graph" transform="scale(1 1) rotate(0) translate(4 1213.8)">
<title>UmlClassDiagram</title>
<polygon fill="#ffffff" stroke="transparent" points="-4,4 -4,-1213.8 1106.8024,-1213.8 1106.8024,4 -4,4"/>
<!-- 0 -->
<g id="node1" class="node">
<title>0</title>
<polygon fill="#f2f2f2" stroke="#000000" points="751.0675,-966.9 751.0675,-1209.3 1006.2239,-1209.3 1006.2239,-966.9 751.0675,-966.9"/>
<text text-anchor="middle" x="878.6457" y="-1192.7" font-family="Times,serif" font-size="14.00" fill="#000000">&lt;&lt;Library&gt;&gt;</text>
<text text-anchor="middle" x="878.6457" y="-1175.9" font-family="Times,serif" font-size="14.00" fill="#000000">SafeMath</text>
<polyline fill="none" stroke="#000000" points="751.0675,-1167.7 1006.2239,-1167.7 "/>
<text text-anchor="middle" x="878.6457" y="-1151.1" font-family="Times,serif" font-size="14.00" fill="#000000"> </text>
<polyline fill="none" stroke="#000000" points="751.0675,-1142.9 1006.2239,-1142.9 "/>
<text text-anchor="start" x="759.0675" y="-1126.3" font-family="Times,serif" font-size="14.00" fill="#000000">Internal:</text>
<text text-anchor="start" x="759.0675" y="-1109.5" font-family="Times,serif" font-size="14.00" fill="#000000"> &#160;&#160;&#160;mul(a: uint, b: uint): uint</text>
<text text-anchor="start" x="759.0675" y="-1092.7" font-family="Times,serif" font-size="14.00" fill="#000000"> &#160;&#160;&#160;div(a: uint, b: uint): uint</text>
<text text-anchor="start" x="759.0675" y="-1075.9" font-family="Times,serif" font-size="14.00" fill="#000000"> &#160;&#160;&#160;sub(a: uint, b: uint): uint</text>
<text text-anchor="start" x="759.0675" y="-1059.1" font-family="Times,serif" font-size="14.00" fill="#000000"> &#160;&#160;&#160;add(a: uint, b: uint): uint</text>
<text text-anchor="start" x="759.0675" y="-1042.3" font-family="Times,serif" font-size="14.00" fill="#000000"> &#160;&#160;&#160;max64(a: uint64, b: uint64): uint64</text>
<text text-anchor="start" x="759.0675" y="-1025.5" font-family="Times,serif" font-size="14.00" fill="#000000"> &#160;&#160;&#160;min64(a: uint64, b: uint64): uint64</text>
<text text-anchor="start" x="759.0675" y="-1008.7" font-family="Times,serif" font-size="14.00" fill="#000000"> &#160;&#160;&#160;max256(a: uint256, b: uint256): uint256</text>
<text text-anchor="start" x="759.0675" y="-991.9" font-family="Times,serif" font-size="14.00" fill="#000000"> &#160;&#160;&#160;min256(a: uint256, b: uint256): uint256</text>
<text text-anchor="start" x="759.0675" y="-975.1" font-family="Times,serif" font-size="14.00" fill="#000000"> &#160;&#160;&#160;assert(assertion: bool)</text>
</g>
<!-- 1 -->
<g id="node2" class="node">
<title>1</title>
<polygon fill="#f2f2f2" stroke="#000000" points="240.4153,-1008.9 240.4153,-1167.3 602.8761,-1167.3 602.8761,-1008.9 240.4153,-1008.9"/>
<text text-anchor="middle" x="421.6457" y="-1150.7" font-family="Times,serif" font-size="14.00" fill="#000000">&lt;&lt;Abstract&gt;&gt;</text>
<text text-anchor="middle" x="421.6457" y="-1133.9" font-family="Times,serif" font-size="14.00" fill="#000000">ERC20Basic</text>
<polyline fill="none" stroke="#000000" points="240.4153,-1125.7 602.8761,-1125.7 "/>
<text text-anchor="start" x="248.4153" y="-1109.1" font-family="Times,serif" font-size="14.00" fill="#000000">Public:</text>
<text text-anchor="start" x="248.4153" y="-1092.3" font-family="Times,serif" font-size="14.00" fill="#000000"> &#160;&#160;totalSupply: uint</text>
<polyline fill="none" stroke="#000000" points="240.4153,-1084.1 602.8761,-1084.1 "/>
<text text-anchor="start" x="248.4153" y="-1067.5" font-family="Times,serif" font-size="14.00" fill="#000000">Public:</text>
<text text-anchor="start" x="248.4153" y="-1050.7" font-family="Times,serif" font-size="14.00" fill="#000000"> &#160;&#160;&#160;&lt;&lt;abstract&gt;&gt; balanceOf(who: address): uint</text>
<text text-anchor="start" x="248.4153" y="-1033.9" font-family="Times,serif" font-size="14.00" fill="#000000"> &#160;&#160;&#160;&lt;&lt;abstract&gt;&gt; transfer(to: address, value: uint)</text>
<text text-anchor="start" x="248.4153" y="-1017.1" font-family="Times,serif" font-size="14.00" fill="#000000"> &#160;&#160;&#160;&lt;&lt;event&gt;&gt; Transfer(from: address, to: address, value: uint)</text>
</g>
<!-- 2 -->
<g id="node3" class="node">
<title>2</title>
<polygon fill="#f2f2f2" stroke="#000000" points="87.4763,-771.5 87.4763,-929.9 495.8151,-929.9 495.8151,-771.5 87.4763,-771.5"/>
<text text-anchor="middle" x="291.6457" y="-913.3" font-family="Times,serif" font-size="14.00" fill="#000000">&lt;&lt;Abstract&gt;&gt;</text>
<text text-anchor="middle" x="291.6457" y="-896.5" font-family="Times,serif" font-size="14.00" fill="#000000">ERC20</text>
<polyline fill="none" stroke="#000000" points="87.4763,-888.3 495.8151,-888.3 "/>
<text text-anchor="middle" x="291.6457" y="-871.7" font-family="Times,serif" font-size="14.00" fill="#000000"> </text>
<polyline fill="none" stroke="#000000" points="87.4763,-863.5 495.8151,-863.5 "/>
<text text-anchor="start" x="95.4763" y="-846.9" font-family="Times,serif" font-size="14.00" fill="#000000">Public:</text>
<text text-anchor="start" x="95.4763" y="-830.1" font-family="Times,serif" font-size="14.00" fill="#000000"> &#160;&#160;&#160;&lt;&lt;abstract&gt;&gt; allowance(owner: address, spender: address): uint</text>
<text text-anchor="start" x="95.4763" y="-813.3" font-family="Times,serif" font-size="14.00" fill="#000000"> &#160;&#160;&#160;&lt;&lt;abstract&gt;&gt; transferFrom(from: address, to: address, value: uint)</text>
<text text-anchor="start" x="95.4763" y="-796.5" font-family="Times,serif" font-size="14.00" fill="#000000"> &#160;&#160;&#160;&lt;&lt;abstract&gt;&gt; approve(spender: address, value: uint)</text>
<text text-anchor="start" x="95.4763" y="-779.7" font-family="Times,serif" font-size="14.00" fill="#000000"> &#160;&#160;&#160;&lt;&lt;event&gt;&gt; Approval(owner: address, spender: address, value: uint)</text>
</g>
<!-- 2&#45;&gt;1 -->
<g id="edge2" class="edge">
<title>2&#45;&gt;1</title>
<path fill="none" stroke="#000000" d="M335.1146,-930.0808C344.2754,-946.8099 354.0794,-964.7136 363.6766,-982.2395"/>
<polygon fill="none" stroke="#000000" points="354.5991,-987.524 378.2178,-1008.794 373.0183,-977.4377 354.5991,-987.524"/>
</g>
<!-- 3 -->
<g id="node4" class="node">
<title>3</title>
<polygon fill="#f2f2f2" stroke="#000000" points="79.1635,-592.9 79.1635,-734.5 436.1279,-734.5 436.1279,-592.9 79.1635,-592.9"/>
<text text-anchor="middle" x="257.6457" y="-717.9" font-family="Times,serif" font-size="14.00" fill="#000000">LimitedTransferToken</text>
<polyline fill="none" stroke="#000000" points="79.1635,-709.7 436.1279,-709.7 "/>
<text text-anchor="middle" x="257.6457" y="-693.1" font-family="Times,serif" font-size="14.00" fill="#000000"> </text>
<polyline fill="none" stroke="#000000" points="79.1635,-684.9 436.1279,-684.9 "/>
<text text-anchor="start" x="87.1635" y="-668.3" font-family="Times,serif" font-size="14.00" fill="#000000">Public:</text>
<text text-anchor="start" x="87.1635" y="-651.5" font-family="Times,serif" font-size="14.00" fill="#000000"> &#160;&#160;&#160;&lt;&lt;modifier&gt;&gt; canTransfer(_sender: address, _value: uint)</text>
<text text-anchor="start" x="87.1635" y="-634.7" font-family="Times,serif" font-size="14.00" fill="#000000"> &#160;&#160;&#160;transfer(_to: address, _value: uint)</text>
<text text-anchor="start" x="87.1635" y="-617.9" font-family="Times,serif" font-size="14.00" fill="#000000"> &#160;&#160;&#160;transferFrom(_from: address, _to: address, _value: uint)</text>
<text text-anchor="start" x="87.1635" y="-601.1" font-family="Times,serif" font-size="14.00" fill="#000000"> &#160;&#160;&#160;transferableTokens(holder: address, time: uint64): uint256</text>
</g>
<!-- 3&#45;&gt;2 -->
<g id="edge3" class="edge">
<title>3&#45;&gt;2</title>
<path fill="none" stroke="#000000" d="M270.5481,-734.6633C270.9737,-737.0042 271.403,-739.3651 271.8347,-741.7398"/>
<polygon fill="none" stroke="#000000" points="261.5197,-743.7044 277.217,-771.3422 282.181,-739.9478 261.5197,-743.7044"/>
</g>
<!-- 4 -->
<g id="node5" class="node">
<title>4</title>
<polygon fill="#f2f2f2" stroke="#000000" points="514.235,-779.9 514.235,-921.5 791.0564,-921.5 791.0564,-779.9 514.235,-779.9"/>
<text text-anchor="middle" x="652.6457" y="-904.9" font-family="Times,serif" font-size="14.00" fill="#000000">BasicToken</text>
<polyline fill="none" stroke="#000000" points="514.235,-896.7 791.0564,-896.7 "/>
<text text-anchor="start" x="522.235" y="-880.1" font-family="Times,serif" font-size="14.00" fill="#000000">Public:</text>
<text text-anchor="start" x="522.235" y="-863.3" font-family="Times,serif" font-size="14.00" fill="#000000"> &#160;&#160;balances: mapping(address=&gt;uint)</text>
<polyline fill="none" stroke="#000000" points="514.235,-855.1 791.0564,-855.1 "/>
<text text-anchor="start" x="522.235" y="-838.5" font-family="Times,serif" font-size="14.00" fill="#000000">Public:</text>
<text text-anchor="start" x="522.235" y="-821.7" font-family="Times,serif" font-size="14.00" fill="#000000"> &#160;&#160;&#160;&lt;&lt;modifier&gt;&gt; onlyPayloadSize(size: uint)</text>
<text text-anchor="start" x="522.235" y="-804.9" font-family="Times,serif" font-size="14.00" fill="#000000"> &#160;&#160;&#160;transfer(_to: address, _value: uint)</text>
<text text-anchor="start" x="522.235" y="-788.1" font-family="Times,serif" font-size="14.00" fill="#000000"> &#160;&#160;&#160;balanceOf(_owner: address): (balance: uint)</text>
</g>
<!-- 4&#45;&gt;0 -->
<g id="edge5" class="edge">
<title>4&#45;&gt;0</title>
<path fill="none" stroke="#000000" stroke-dasharray="5,2" d="M720.147,-921.6063C731.4548,-933.4844 743.4922,-946.1291 755.6856,-958.9375"/>
<polygon fill="#000000" stroke="#000000" points="753.4485,-961.6637 762.8785,-966.4933 758.5185,-956.8371 753.4485,-961.6637"/>
</g>
<!-- 4&#45;&gt;1 -->
<g id="edge4" class="edge">
<title>4&#45;&gt;1</title>
<path fill="none" stroke="#000000" d="M583.651,-921.6063C563.6095,-942.203 541.3254,-965.1045 519.8566,-987.1681"/>
<polygon fill="none" stroke="#000000" points="512.169,-980.0123 498.7729,-1008.8359 527.2198,-994.6573 512.169,-980.0123"/>
</g>
<!-- 5 -->
<g id="node6" class="node">
<title>5</title>
<polygon fill="#f2f2f2" stroke="#000000" points="454.1617,-592.9 454.1617,-734.5 851.1297,-734.5 851.1297,-592.9 454.1617,-592.9"/>
<text text-anchor="middle" x="652.6457" y="-717.9" font-family="Times,serif" font-size="14.00" fill="#000000">StandardToken</text>
<polyline fill="none" stroke="#000000" points="454.1617,-709.7 851.1297,-709.7 "/>
<text text-anchor="start" x="462.1617" y="-693.1" font-family="Times,serif" font-size="14.00" fill="#000000">Public:</text>
<text text-anchor="start" x="462.1617" y="-676.3" font-family="Times,serif" font-size="14.00" fill="#000000"> &#160;&#160;allowed: mapping(address=&gt;mapping(address=&gt;uint))</text>
<polyline fill="none" stroke="#000000" points="454.1617,-668.1 851.1297,-668.1 "/>
<text text-anchor="start" x="462.1617" y="-651.5" font-family="Times,serif" font-size="14.00" fill="#000000">Public:</text>
<text text-anchor="start" x="462.1617" y="-634.7" font-family="Times,serif" font-size="14.00" fill="#000000"> &#160;&#160;&#160;transferFrom(_from: address, _to: address, _value: uint)</text>
<text text-anchor="start" x="462.1617" y="-617.9" font-family="Times,serif" font-size="14.00" fill="#000000"> &#160;&#160;&#160;approve(_spender: address, _value: uint)</text>
<text text-anchor="start" x="462.1617" y="-601.1" font-family="Times,serif" font-size="14.00" fill="#000000"> &#160;&#160;&#160;allowance(_owner: address, _spender: address): (remaining: uint)</text>
</g>
<!-- 5&#45;&gt;2 -->
<g id="edge7" class="edge">
<title>5&#45;&gt;2</title>
<path fill="none" stroke="#000000" d="M515.9097,-734.53C501.379,-742.057 486.4456,-749.7926 471.5179,-757.5252"/>
<polygon fill="none" stroke="#000000" points="466.5511,-748.2729 444.7425,-771.395 476.2103,-766.9196 466.5511,-748.2729"/>
</g>
<!-- 5&#45;&gt;4 -->
<g id="edge6" class="edge">
<title>5&#45;&gt;4</title>
<path fill="none" stroke="#000000" d="M652.6457,-734.6633C652.6457,-739.6268 652.6457,-744.6804 652.6457,-749.7635"/>
<polygon fill="none" stroke="#000000" points="642.1458,-749.7851 652.6457,-779.7851 663.1458,-749.7852 642.1458,-749.7851"/>
</g>
<!-- 6 -->
<g id="node7" class="node">
<title>6</title>
<polygon fill="#f2f2f2" stroke="#000000" points="0,-263.1 0,-555.9 1027.2914,-555.9 1027.2914,-263.1 0,-263.1"/>
<text text-anchor="middle" x="513.6457" y="-539.3" font-family="Times,serif" font-size="14.00" fill="#000000">VestedToken</text>
<polyline fill="none" stroke="#000000" points="0,-531.1 1027.2914,-531.1 "/>
<text text-anchor="start" x="8" y="-514.5" font-family="Times,serif" font-size="14.00" fill="#000000">Public:</text>
<text text-anchor="start" x="8" y="-497.7" font-family="Times,serif" font-size="14.00" fill="#000000"> &#160;&#160;MAX_GRANTS_PER_ADDRESS: uint256</text>
<text text-anchor="start" x="8" y="-480.9" font-family="Times,serif" font-size="14.00" fill="#000000"> &#160;&#160;grants: mapping(address=&gt;TokenGrant[])</text>
<polyline fill="none" stroke="#000000" points="0,-472.7 1027.2914,-472.7 "/>
<text text-anchor="start" x="8" y="-456.1" font-family="Times,serif" font-size="14.00" fill="#000000">Private:</text>
<text text-anchor="start" x="8" y="-439.3" font-family="Times,serif" font-size="14.00" fill="#000000"> &#160;&#160;&#160;vestedTokens(grant: TokenGrant, time: uint64): uint256</text>
<text text-anchor="start" x="8" y="-422.5" font-family="Times,serif" font-size="14.00" fill="#000000"> &#160;&#160;&#160;nonVestedTokens(grant: TokenGrant, time: uint64): uint256</text>
<text text-anchor="start" x="8" y="-405.7" font-family="Times,serif" font-size="14.00" fill="#000000">Public:</text>
<text text-anchor="start" x="8" y="-388.9" font-family="Times,serif" font-size="14.00" fill="#000000"> &#160;&#160;&#160;&lt;&lt;event&gt;&gt; NewTokenGrant(from: address, to: address, value: uint256, grantId: uint256)</text>
<text text-anchor="start" x="8" y="-372.1" font-family="Times,serif" font-size="14.00" fill="#000000"> &#160;&#160;&#160;grantVestedTokens(_to: address, _value: uint256, _start: uint64, _cliff: uint64, _vesting: uint64, _revokable: bool, _burnsOnRevoke: bool)</text>
<text text-anchor="start" x="8" y="-355.3" font-family="Times,serif" font-size="14.00" fill="#000000"> &#160;&#160;&#160;revokeTokenGrant(_holder: address, _grantId: uint)</text>
<text text-anchor="start" x="8" y="-338.5" font-family="Times,serif" font-size="14.00" fill="#000000"> &#160;&#160;&#160;transferableTokens(holder: address, time: uint64): uint256</text>
<text text-anchor="start" x="8" y="-321.7" font-family="Times,serif" font-size="14.00" fill="#000000"> &#160;&#160;&#160;tokenGrantsCount(_holder: address): (index: uint)</text>
<text text-anchor="start" x="8" y="-304.9" font-family="Times,serif" font-size="14.00" fill="#000000"> &#160;&#160;&#160;calculateVestedTokens(tokens: uint256, time: uint256, start: uint256, cliff: uint256, vesting: uint256): uint256</text>
<text text-anchor="start" x="8" y="-288.1" font-family="Times,serif" font-size="14.00" fill="#000000"> &#160;&#160;&#160;tokenGrant(_holder: address, _grantId: uint): (granter: address, value: uint256, vested: uint256, start: uint64, cliff: uint64, vesting: uint64, revokable: bool, burnsOnRevoke: bool)</text>
<text text-anchor="start" x="8" y="-271.3" font-family="Times,serif" font-size="14.00" fill="#000000"> &#160;&#160;&#160;lastTokenIsTransferableDate(holder: address): (date: uint64)</text>
</g>
<!-- 6&#45;&gt;0 -->
<g id="edge10" class="edge">
<title>6&#45;&gt;0</title>
<path fill="none" stroke="#000000" stroke-dasharray="5,2" d="M831.7837,-556.1109C842.1256,-567.3797 851.5067,-579.4589 859.6457,-592.4 927.7709,-700.7202 923.2169,-850.2854 907.4008,-956.7294"/>
<polygon fill="#000000" stroke="#000000" points="903.8985,-956.4771 905.8371,-966.893 910.8171,-957.5416 903.8985,-956.4771"/>
</g>
<!-- 6&#45;&gt;3 -->
<g id="edge9" class="edge">
<title>6&#45;&gt;3</title>
<path fill="none" stroke="#000000" d="M365.8417,-556.2648C360.7075,-561.3629 355.6169,-566.4177 350.6039,-571.3954"/>
<polygon fill="none" stroke="#000000" points="343.1181,-564.0314 329.2285,-592.6205 357.9149,-578.933 343.1181,-564.0314"/>
</g>
<!-- 6&#45;&gt;5 -->
<g id="edge8" class="edge">
<title>6&#45;&gt;5</title>
<path fill="none" stroke="#000000" d="M593.8987,-556.2648C595.7214,-559.5981 597.534,-562.913 599.3313,-566.1999"/>
<polygon fill="none" stroke="#000000" points="590.1726,-571.3363 613.7785,-592.6205 608.5979,-561.261 590.1726,-571.3363"/>
</g>
<!-- 6struct0 -->
<g id="node8" class="node">
<title>6struct0</title>
<polygon fill="#f2f2f2" stroke="#000000" points="322.0163,-29.7 322.0163,-196.9 461.2751,-196.9 461.2751,-29.7 322.0163,-29.7"/>
<text text-anchor="middle" x="391.6457" y="-180.3" font-family="Times,serif" font-size="14.00" fill="#000000">&lt;&lt;struct&gt;&gt;</text>
<text text-anchor="middle" x="391.6457" y="-163.5" font-family="Times,serif" font-size="14.00" fill="#000000">TokenGrant</text>
<polyline fill="none" stroke="#000000" points="322.0163,-155.3 461.2751,-155.3 "/>
<text text-anchor="start" x="330.0163" y="-138.7" font-family="Times,serif" font-size="14.00" fill="#000000">granter: address</text>
<text text-anchor="start" x="330.0163" y="-121.9" font-family="Times,serif" font-size="14.00" fill="#000000">value: uint256</text>
<text text-anchor="start" x="330.0163" y="-105.1" font-family="Times,serif" font-size="14.00" fill="#000000">cliff: uint64</text>
<text text-anchor="start" x="330.0163" y="-88.3" font-family="Times,serif" font-size="14.00" fill="#000000">vesting: uint64</text>
<text text-anchor="start" x="330.0163" y="-71.5" font-family="Times,serif" font-size="14.00" fill="#000000">start: uint64</text>
<text text-anchor="start" x="330.0163" y="-54.7" font-family="Times,serif" font-size="14.00" fill="#000000">revokable: bool</text>
<text text-anchor="start" x="330.0163" y="-37.9" font-family="Times,serif" font-size="14.00" fill="#000000">burnsOnRevoke: bool</text>
</g>
<!-- 6struct0&#45;&gt;6 -->
<g id="edge1" class="edge">
<title>6struct0&#45;&gt;6</title>
<path fill="none" stroke="#000000" d="M426.1168,-196.9913C433.2145,-214.2237 440.9074,-232.9009 448.6864,-251.7874"/>
<polygon fill="#000000" stroke="#000000" points="448.7026,-251.8267 454.6862,-255.8512 453.2727,-262.9224 447.2891,-258.898 448.7026,-251.8267"/>
</g>
<!-- 7 -->
<g id="node9" class="node">
<title>7</title>
<polygon fill="#f2f2f2" stroke="#000000" points="479.1845,-.5 479.1845,-226.1 794.1069,-226.1 794.1069,-.5 479.1845,-.5"/>
<text text-anchor="middle" x="636.6457" y="-209.5" font-family="Times,serif" font-size="14.00" fill="#000000">CDTToken</text>
<polyline fill="none" stroke="#000000" points="479.1845,-201.3 794.1069,-201.3 "/>
<text text-anchor="start" x="487.1845" y="-184.7" font-family="Times,serif" font-size="14.00" fill="#000000">Public:</text>
<text text-anchor="start" x="487.1845" y="-167.9" font-family="Times,serif" font-size="14.00" fill="#000000"> &#160;&#160;decimals: uint</text>
<text text-anchor="start" x="487.1845" y="-151.1" font-family="Times,serif" font-size="14.00" fill="#000000"> &#160;&#160;name: string</text>
<text text-anchor="start" x="487.1845" y="-134.3" font-family="Times,serif" font-size="14.00" fill="#000000"> &#160;&#160;symbol: string</text>
<text text-anchor="start" x="487.1845" y="-117.5" font-family="Times,serif" font-size="14.00" fill="#000000"> &#160;&#160;creator: address</text>
<polyline fill="none" stroke="#000000" points="479.1845,-109.3 794.1069,-109.3 "/>
<text text-anchor="start" x="487.1845" y="-92.7" font-family="Times,serif" font-size="14.00" fill="#000000">Public:</text>
<text text-anchor="start" x="487.1845" y="-75.9" font-family="Times,serif" font-size="14.00" fill="#000000"> &#160;&#160;&#160;&lt;&lt;fallback&gt;&gt; ()</text>
<text text-anchor="start" x="487.1845" y="-59.1" font-family="Times,serif" font-size="14.00" fill="#000000"> &#160;&#160;&#160;&lt;&lt;modifier&gt;&gt; only_owner()</text>
<text text-anchor="start" x="487.1845" y="-42.3" font-family="Times,serif" font-size="14.00" fill="#000000"> &#160;&#160;&#160;constructor(supply: uint)</text>
<text text-anchor="start" x="487.1845" y="-25.5" font-family="Times,serif" font-size="14.00" fill="#000000"> &#160;&#160;&#160;vestedBalanceOf(_owner: address): (balance: uint)</text>
<text text-anchor="start" x="487.1845" y="-8.7" font-family="Times,serif" font-size="14.00" fill="#000000"> &#160;&#160;&#160;drain()</text>
</g>
<!-- 7&#45;&gt;0 -->
<g id="edge12" class="edge">
<title>7&#45;&gt;0</title>
<path fill="none" stroke="#000000" stroke-dasharray="5,2" d="M794.1296,-152.2872C893.1111,-180.3368 1007.4283,-220.5083 1036.6457,-262.6 1182.9366,-473.3522 1053.7601,-783.9911 958.4899,-957.907"/>
<polygon fill="#000000" stroke="#000000" points="955.3201,-956.407 953.5529,-966.8534 961.4489,-959.7891 955.3201,-956.407"/>
</g>
<!-- 7&#45;&gt;6 -->
<g id="edge11" class="edge">
<title>7&#45;&gt;6</title>
<path fill="none" stroke="#000000" d="M589.7938,-226.1255C588.5378,-229.15 587.2732,-232.1954 586.0022,-235.2562"/>
<polygon fill="none" stroke="#000000" points="576.2599,-231.3381 574.4518,-263.0711 595.6542,-239.3918 576.2599,-231.3381"/>
</g>
</g>
</svg>
