<?xml version="1.0" encoding="UTF-8" standalone="no"?>
<!DOCTYPE svg PUBLIC "-//W3C//DTD SVG 1.1//EN"
 "http://www.w3.org/Graphics/SVG/1.1/DTD/svg11.dtd">
<!-- Generated by graphviz version 2.40.1 (20161225.0304)
 -->
<!-- Title: UmlClassDiagram Pages: 1 -->
<svg width="1431pt" height="1027pt"
 viewBox="0.00 0.00 1430.78 1026.80" xmlns="http://www.w3.org/2000/svg" xmlns:xlink="http://www.w3.org/1999/xlink">
<g id="graph0" class="graph" transform="scale(1 1) rotate(0) translate(4 1022.8)">
<title>UmlClassDiagram</title>
<polygon fill="#ffffff" stroke="transparent" points="-4,4 -4,-1022.8 1426.7797,-1022.8 1426.7797,4 -4,4"/>
<!-- 6 -->
<g id="node1" class="node">
<title>6</title>
<polygon fill="#f2f2f2" stroke="#000000" points="644.7066,-859.9 644.7066,-1018.3 1028.1674,-1018.3 1028.1674,-859.9 644.7066,-859.9"/>
<text text-anchor="middle" x="836.437" y="-1001.7" font-family="Times,serif" font-size="14.00" fill="#000000">&lt;&lt;Abstract&gt;&gt;</text>
<text text-anchor="middle" x="836.437" y="-984.9" font-family="Times,serif" font-size="14.00" fill="#000000">ERC20Basic</text>
<polyline fill="none" stroke="#000000" points="644.7066,-976.7 1028.1674,-976.7 "/>
<text text-anchor="middle" x="836.437" y="-960.1" font-family="Times,serif" font-size="14.00" fill="#000000"> </text>
<polyline fill="none" stroke="#000000" points="644.7066,-951.9 1028.1674,-951.9 "/>
<text text-anchor="start" x="652.7066" y="-935.3" font-family="Times,serif" font-size="14.00" fill="#000000">Public:</text>
<text text-anchor="start" x="652.7066" y="-918.5" font-family="Times,serif" font-size="14.00" fill="#000000"> &#160;&#160;&#160;&lt;&lt;abstract&gt;&gt; totalSupply(): uint256</text>
<text text-anchor="start" x="652.7066" y="-901.7" font-family="Times,serif" font-size="14.00" fill="#000000"> &#160;&#160;&#160;&lt;&lt;abstract&gt;&gt; balanceOf(who: address): uint256</text>
<text text-anchor="start" x="652.7066" y="-884.9" font-family="Times,serif" font-size="14.00" fill="#000000"> &#160;&#160;&#160;&lt;&lt;abstract&gt;&gt; transfer(to: address, value: uint256): bool</text>
<text text-anchor="start" x="652.7066" y="-868.1" font-family="Times,serif" font-size="14.00" fill="#000000"> &#160;&#160;&#160;&lt;&lt;event&gt;&gt; Transfer(from: address, to: address, value: uint256)</text>
</g>
<!-- 0 -->
<g id="node2" class="node">
<title>0</title>
<polygon fill="#f2f2f2" stroke="#000000" points="626.8588,-.5 626.8588,-158.9 882.0152,-158.9 882.0152,-.5 626.8588,-.5"/>
<text text-anchor="middle" x="754.437" y="-142.3" font-family="Times,serif" font-size="14.00" fill="#000000">&lt;&lt;Library&gt;&gt;</text>
<text text-anchor="middle" x="754.437" y="-125.5" font-family="Times,serif" font-size="14.00" fill="#000000">Math</text>
<polyline fill="none" stroke="#000000" points="626.8588,-117.3 882.0152,-117.3 "/>
<text text-anchor="middle" x="754.437" y="-100.7" font-family="Times,serif" font-size="14.00" fill="#000000"> </text>
<polyline fill="none" stroke="#000000" points="626.8588,-92.5 882.0152,-92.5 "/>
<text text-anchor="start" x="634.8588" y="-75.9" font-family="Times,serif" font-size="14.00" fill="#000000">Internal:</text>
<text text-anchor="start" x="634.8588" y="-59.1" font-family="Times,serif" font-size="14.00" fill="#000000"> &#160;&#160;&#160;max64(a: uint64, b: uint64): uint64</text>
<text text-anchor="start" x="634.8588" y="-42.3" font-family="Times,serif" font-size="14.00" fill="#000000"> &#160;&#160;&#160;min64(a: uint64, b: uint64): uint64</text>
<text text-anchor="start" x="634.8588" y="-25.5" font-family="Times,serif" font-size="14.00" fill="#000000"> &#160;&#160;&#160;max256(a: uint256, b: uint256): uint256</text>
<text text-anchor="start" x="634.8588" y="-8.7" font-family="Times,serif" font-size="14.00" fill="#000000"> &#160;&#160;&#160;min256(a: uint256, b: uint256): uint256</text>
</g>
<!-- 2 -->
<g id="node3" class="node">
<title>2</title>
<polygon fill="#f2f2f2" stroke="#000000" points="0,-460.7 0,-619.1 484.874,-619.1 484.874,-460.7 0,-460.7"/>
<text text-anchor="middle" x="242.437" y="-602.5" font-family="Times,serif" font-size="14.00" fill="#000000">Ownable</text>
<polyline fill="none" stroke="#000000" points="0,-594.3 484.874,-594.3 "/>
<text text-anchor="start" x="8" y="-577.7" font-family="Times,serif" font-size="14.00" fill="#000000">Public:</text>
<text text-anchor="start" x="8" y="-560.9" font-family="Times,serif" font-size="14.00" fill="#000000"> &#160;&#160;owner: address</text>
<polyline fill="none" stroke="#000000" points="0,-552.7 484.874,-552.7 "/>
<text text-anchor="start" x="8" y="-536.1" font-family="Times,serif" font-size="14.00" fill="#000000">Public:</text>
<text text-anchor="start" x="8" y="-519.3" font-family="Times,serif" font-size="14.00" fill="#000000"> &#160;&#160;&#160;&lt;&lt;event&gt;&gt; OwnershipTransferred(previousOwner: address, newOwner: address)</text>
<text text-anchor="start" x="8" y="-502.5" font-family="Times,serif" font-size="14.00" fill="#000000"> &#160;&#160;&#160;&lt;&lt;modifier&gt;&gt; onlyOwner()</text>
<text text-anchor="start" x="8" y="-485.7" font-family="Times,serif" font-size="14.00" fill="#000000"> &#160;&#160;&#160;constructor()</text>
<text text-anchor="start" x="8" y="-468.9" font-family="Times,serif" font-size="14.00" fill="#000000"> &#160;&#160;&#160;transferOwnership(newOwner: address)</text>
</g>
<!-- 3 -->
<g id="node4" class="node">
<title>3</title>
<polygon fill="#f2f2f2" stroke="#000000" points="386.4934,-324.1 386.4934,-415.3 614.3806,-415.3 614.3806,-324.1 386.4934,-324.1"/>
<text text-anchor="middle" x="500.437" y="-398.7" font-family="Times,serif" font-size="14.00" fill="#000000">CanReclaimToken</text>
<polyline fill="none" stroke="#000000" points="386.4934,-390.5 614.3806,-390.5 "/>
<text text-anchor="middle" x="500.437" y="-373.9" font-family="Times,serif" font-size="14.00" fill="#000000"> </text>
<polyline fill="none" stroke="#000000" points="386.4934,-365.7 614.3806,-365.7 "/>
<text text-anchor="start" x="394.4934" y="-349.1" font-family="Times,serif" font-size="14.00" fill="#000000">External:</text>
<text text-anchor="start" x="394.4934" y="-332.3" font-family="Times,serif" font-size="14.00" fill="#000000"> &#160;&#160;&#160;reclaimToken(token: ERC20Basic)</text>
</g>
<!-- 3&#45;&gt;6 -->
<g id="edge3" class="edge">
<title>3&#45;&gt;6</title>
<path fill="none" stroke="#000000" stroke-dasharray="5,2" d="M501.8076,-415.658C505.7483,-518.1323 520.2744,-761.2108 570.437,-823.4 588.1844,-845.4024 610.9376,-863.3186 635.6481,-877.8828"/>
<polygon fill="#000000" stroke="#000000" points="634.042,-880.9958 644.4651,-882.8957 637.5018,-874.9105 634.042,-880.9958"/>
</g>
<!-- 3&#45;&gt;2 -->
<g id="edge1" class="edge">
<title>3&#45;&gt;2</title>
<path fill="none" stroke="#000000" d="M431.2977,-415.3105C417.6367,-424.3225 402.8248,-434.0938 387.71,-444.0649"/>
<polygon fill="none" stroke="#000000" points="381.8277,-435.3664 362.5678,-460.6509 393.3916,-452.8957 381.8277,-435.3664"/>
</g>
<!-- 10 -->
<g id="node11" class="node">
<title>10</title>
<polygon fill="#f2f2f2" stroke="#000000" points="540.6108,-469.1 540.6108,-610.7 998.2632,-610.7 998.2632,-469.1 540.6108,-469.1"/>
<text text-anchor="middle" x="769.437" y="-594.1" font-family="Times,serif" font-size="14.00" fill="#000000">&lt;&lt;Library&gt;&gt;</text>
<text text-anchor="middle" x="769.437" y="-577.3" font-family="Times,serif" font-size="14.00" fill="#000000">SafeERC20</text>
<polyline fill="none" stroke="#000000" points="540.6108,-569.1 998.2632,-569.1 "/>
<text text-anchor="middle" x="769.437" y="-552.5" font-family="Times,serif" font-size="14.00" fill="#000000"> </text>
<polyline fill="none" stroke="#000000" points="540.6108,-544.3 998.2632,-544.3 "/>
<text text-anchor="start" x="548.6108" y="-527.7" font-family="Times,serif" font-size="14.00" fill="#000000">Internal:</text>
<text text-anchor="start" x="548.6108" y="-510.9" font-family="Times,serif" font-size="14.00" fill="#000000"> &#160;&#160;&#160;safeTransfer(token: ERC20Basic, to: address, value: uint256)</text>
<text text-anchor="start" x="548.6108" y="-494.1" font-family="Times,serif" font-size="14.00" fill="#000000"> &#160;&#160;&#160;safeTransferFrom(token: ERC20, from: address, to: address, value: uint256)</text>
<text text-anchor="start" x="548.6108" y="-477.3" font-family="Times,serif" font-size="14.00" fill="#000000"> &#160;&#160;&#160;safeApprove(token: ERC20, spender: address, value: uint256)</text>
</g>
<!-- 3&#45;&gt;10 -->
<g id="edge2" class="edge">
<title>3&#45;&gt;10</title>
<path fill="none" stroke="#000000" stroke-dasharray="5,2" d="M572.5241,-415.3105C595.9441,-430.1287 622.6082,-446.9994 648.586,-463.4359"/>
<polygon fill="#000000" stroke="#000000" points="647.042,-466.6007 657.3639,-468.9898 650.7848,-460.6853 647.042,-466.6007"/>
</g>
<!-- 4 -->
<g id="node5" class="node">
<title>4</title>
<polygon fill="#f2f2f2" stroke="#000000" points="116.0733,-324.1 116.0733,-415.3 368.8007,-415.3 368.8007,-324.1 116.0733,-324.1"/>
<text text-anchor="middle" x="242.437" y="-398.7" font-family="Times,serif" font-size="14.00" fill="#000000">HasNoContracts</text>
<polyline fill="none" stroke="#000000" points="116.0733,-390.5 368.8007,-390.5 "/>
<text text-anchor="middle" x="242.437" y="-373.9" font-family="Times,serif" font-size="14.00" fill="#000000"> </text>
<polyline fill="none" stroke="#000000" points="116.0733,-365.7 368.8007,-365.7 "/>
<text text-anchor="start" x="124.0733" y="-349.1" font-family="Times,serif" font-size="14.00" fill="#000000">External:</text>
<text text-anchor="start" x="124.0733" y="-332.3" font-family="Times,serif" font-size="14.00" fill="#000000"> &#160;&#160;&#160;reclaimContract(contractAddr: address)</text>
</g>
<!-- 4&#45;&gt;2 -->
<g id="edge4" class="edge">
<title>4&#45;&gt;2</title>
<path fill="none" stroke="#000000" d="M242.437,-415.3105C242.437,-420.2262 242.437,-425.3677 242.437,-430.6443"/>
<polygon fill="none" stroke="#000000" points="231.9371,-430.6509 242.437,-460.6509 252.9371,-430.651 231.9371,-430.6509"/>
</g>
<!-- 5 -->
<g id="node6" class="node">
<title>5</title>
<polygon fill="#f2f2f2" stroke="#000000" points="314.9534,-195.9 314.9534,-287.1 685.9206,-287.1 685.9206,-195.9 314.9534,-195.9"/>
<text text-anchor="middle" x="500.437" y="-270.5" font-family="Times,serif" font-size="14.00" fill="#000000">HasNoTokens</text>
<polyline fill="none" stroke="#000000" points="314.9534,-262.3 685.9206,-262.3 "/>
<text text-anchor="middle" x="500.437" y="-245.7" font-family="Times,serif" font-size="14.00" fill="#000000"> </text>
<polyline fill="none" stroke="#000000" points="314.9534,-237.5 685.9206,-237.5 "/>
<text text-anchor="start" x="322.9534" y="-220.9" font-family="Times,serif" font-size="14.00" fill="#000000">External:</text>
<text text-anchor="start" x="322.9534" y="-204.1" font-family="Times,serif" font-size="14.00" fill="#000000"> &#160;&#160;&#160;tokenFallback(from_: address, value_: uint256, data_: bytes)</text>
</g>
<!-- 5&#45;&gt;3 -->
<g id="edge5" class="edge">
<title>5&#45;&gt;3</title>
<path fill="none" stroke="#000000" d="M500.437,-287.421C500.437,-289.5641 500.437,-291.7367 500.437,-293.9282"/>
<polygon fill="none" stroke="#000000" points="489.9371,-294.0995 500.437,-324.0996 510.9371,-294.0996 489.9371,-294.0995"/>
</g>
<!-- 1 -->
<g id="node7" class="node">
<title>1</title>
<polygon fill="#f2f2f2" stroke="#000000" points="1092.0576,-859.9 1092.0576,-1018.3 1346.8164,-1018.3 1346.8164,-859.9 1092.0576,-859.9"/>
<text text-anchor="middle" x="1219.437" y="-1001.7" font-family="Times,serif" font-size="14.00" fill="#000000">&lt;&lt;Library&gt;&gt;</text>
<text text-anchor="middle" x="1219.437" y="-984.9" font-family="Times,serif" font-size="14.00" fill="#000000">SafeMath</text>
<polyline fill="none" stroke="#000000" points="1092.0576,-976.7 1346.8164,-976.7 "/>
<text text-anchor="middle" x="1219.437" y="-960.1" font-family="Times,serif" font-size="14.00" fill="#000000"> </text>
<polyline fill="none" stroke="#000000" points="1092.0576,-951.9 1346.8164,-951.9 "/>
<text text-anchor="start" x="1100.0576" y="-935.3" font-family="Times,serif" font-size="14.00" fill="#000000">Internal:</text>
<text text-anchor="start" x="1100.0576" y="-918.5" font-family="Times,serif" font-size="14.00" fill="#000000"> &#160;&#160;&#160;mul(a: uint256, b: uint256): (c: uint256)</text>
<text text-anchor="start" x="1100.0576" y="-901.7" font-family="Times,serif" font-size="14.00" fill="#000000"> &#160;&#160;&#160;div(a: uint256, b: uint256): uint256</text>
<text text-anchor="start" x="1100.0576" y="-884.9" font-family="Times,serif" font-size="14.00" fill="#000000"> &#160;&#160;&#160;sub(a: uint256, b: uint256): uint256</text>
<text text-anchor="start" x="1100.0576" y="-868.1" font-family="Times,serif" font-size="14.00" fill="#000000"> &#160;&#160;&#160;add(a: uint256, b: uint256): (c: uint256)</text>
</g>
<!-- 7 -->
<g id="node8" class="node">
<title>7</title>
<polygon fill="#f2f2f2" stroke="#000000" points="609.1249,-664.5 609.1249,-822.9 1063.7491,-822.9 1063.7491,-664.5 609.1249,-664.5"/>
<text text-anchor="middle" x="836.437" y="-806.3" font-family="Times,serif" font-size="14.00" fill="#000000">&lt;&lt;Abstract&gt;&gt;</text>
<text text-anchor="middle" x="836.437" y="-789.5" font-family="Times,serif" font-size="14.00" fill="#000000">ERC20</text>
<polyline fill="none" stroke="#000000" points="609.1249,-781.3 1063.7491,-781.3 "/>
<text text-anchor="middle" x="836.437" y="-764.7" font-family="Times,serif" font-size="14.00" fill="#000000"> </text>
<polyline fill="none" stroke="#000000" points="609.1249,-756.5 1063.7491,-756.5 "/>
<text text-anchor="start" x="617.1249" y="-739.9" font-family="Times,serif" font-size="14.00" fill="#000000">Public:</text>
<text text-anchor="start" x="617.1249" y="-723.1" font-family="Times,serif" font-size="14.00" fill="#000000"> &#160;&#160;&#160;&lt;&lt;abstract&gt;&gt; allowance(owner: address, spender: address): uint256</text>
<text text-anchor="start" x="617.1249" y="-706.3" font-family="Times,serif" font-size="14.00" fill="#000000"> &#160;&#160;&#160;&lt;&lt;abstract&gt;&gt; transferFrom(from: address, to: address, value: uint256): bool</text>
<text text-anchor="start" x="617.1249" y="-689.5" font-family="Times,serif" font-size="14.00" fill="#000000"> &#160;&#160;&#160;&lt;&lt;abstract&gt;&gt; approve(spender: address, value: uint256): bool</text>
<text text-anchor="start" x="617.1249" y="-672.7" font-family="Times,serif" font-size="14.00" fill="#000000"> &#160;&#160;&#160;&lt;&lt;event&gt;&gt; Approval(owner: address, spender: address, value: uint256)</text>
</g>
<!-- 7&#45;&gt;6 -->
<g id="edge6" class="edge">
<title>7&#45;&gt;6</title>
<path fill="none" stroke="#000000" d="M836.437,-823.1767C836.437,-825.2469 836.437,-827.3285 836.437,-829.4175"/>
<polygon fill="none" stroke="#000000" points="825.9371,-829.6937 836.437,-859.6938 846.9371,-829.6938 825.9371,-829.6937"/>
</g>
<!-- 8 -->
<g id="node9" class="node">
<title>8</title>
<polygon fill="#f2f2f2" stroke="#000000" points="1081.3868,-664.5 1081.3868,-822.9 1357.4872,-822.9 1357.4872,-664.5 1081.3868,-664.5"/>
<text text-anchor="middle" x="1219.437" y="-806.3" font-family="Times,serif" font-size="14.00" fill="#000000">BasicToken</text>
<polyline fill="none" stroke="#000000" points="1081.3868,-798.1 1357.4872,-798.1 "/>
<text text-anchor="start" x="1089.3868" y="-781.5" font-family="Times,serif" font-size="14.00" fill="#000000">Public:</text>
<text text-anchor="start" x="1089.3868" y="-764.7" font-family="Times,serif" font-size="14.00" fill="#000000"> &#160;&#160;balances: mapping(address=&gt;uint256)</text>
<text text-anchor="start" x="1089.3868" y="-747.9" font-family="Times,serif" font-size="14.00" fill="#000000"> &#160;&#160;totalSupply_: uint256</text>
<polyline fill="none" stroke="#000000" points="1081.3868,-739.7 1357.4872,-739.7 "/>
<text text-anchor="start" x="1089.3868" y="-723.1" font-family="Times,serif" font-size="14.00" fill="#000000">Public:</text>
<text text-anchor="start" x="1089.3868" y="-706.3" font-family="Times,serif" font-size="14.00" fill="#000000"> &#160;&#160;&#160;totalSupply(): uint256</text>
<text text-anchor="start" x="1089.3868" y="-689.5" font-family="Times,serif" font-size="14.00" fill="#000000"> &#160;&#160;&#160;transfer(_to: address, _value: uint256): bool</text>
<text text-anchor="start" x="1089.3868" y="-672.7" font-family="Times,serif" font-size="14.00" fill="#000000"> &#160;&#160;&#160;balanceOf(_owner: address): uint256</text>
</g>
<!-- 8&#45;&gt;6 -->
<g id="edge7" class="edge">
<title>8&#45;&gt;6</title>
<path fill="none" stroke="#000000" d="M1081.0257,-818.948C1078.1403,-820.4503 1075.2749,-821.9358 1072.437,-823.4 1057.8363,-830.9331 1042.6744,-838.6358 1027.3979,-846.3115"/>
<polygon fill="none" stroke="#000000" points="1022.4759,-837.033 1000.3277,-859.8302 1031.8583,-855.8205 1022.4759,-837.033"/>
</g>
<!-- 8&#45;&gt;1 -->
<g id="edge8" class="edge">
<title>8&#45;&gt;1</title>
<path fill="none" stroke="#000000" stroke-dasharray="5,2" d="M1219.437,-823.1767C1219.437,-831.8341 1219.437,-840.6895 1219.437,-849.4577"/>
<polygon fill="#000000" stroke="#000000" points="1215.9371,-849.6937 1219.437,-859.6938 1222.9371,-849.6938 1215.9371,-849.6937"/>
</g>
<!-- 9 -->
<g id="node10" class="node">
<title>9</title>
<polygon fill="#f2f2f2" stroke="#000000" points="1016.0943,-452.3 1016.0943,-627.5 1422.7797,-627.5 1422.7797,-452.3 1016.0943,-452.3"/>
<text text-anchor="middle" x="1219.437" y="-610.9" font-family="Times,serif" font-size="14.00" fill="#000000">StandardToken</text>
<polyline fill="none" stroke="#000000" points="1016.0943,-602.7 1422.7797,-602.7 "/>
<text text-anchor="start" x="1024.0943" y="-586.1" font-family="Times,serif" font-size="14.00" fill="#000000">Internal:</text>
<text text-anchor="start" x="1024.0943" y="-569.3" font-family="Times,serif" font-size="14.00" fill="#000000"> &#160;&#160;allowed: mapping(address=&gt;mapping(address=&gt;uint256))</text>
<polyline fill="none" stroke="#000000" points="1016.0943,-561.1 1422.7797,-561.1 "/>
<text text-anchor="start" x="1024.0943" y="-544.5" font-family="Times,serif" font-size="14.00" fill="#000000">Public:</text>
<text text-anchor="start" x="1024.0943" y="-527.7" font-family="Times,serif" font-size="14.00" fill="#000000"> &#160;&#160;&#160;transferFrom(_from: address, _to: address, _value: uint256): bool</text>
<text text-anchor="start" x="1024.0943" y="-510.9" font-family="Times,serif" font-size="14.00" fill="#000000"> &#160;&#160;&#160;approve(_spender: address, _value: uint256): bool</text>
<text text-anchor="start" x="1024.0943" y="-494.1" font-family="Times,serif" font-size="14.00" fill="#000000"> &#160;&#160;&#160;allowance(_owner: address, _spender: address): uint256</text>
<text text-anchor="start" x="1024.0943" y="-477.3" font-family="Times,serif" font-size="14.00" fill="#000000"> &#160;&#160;&#160;increaseApproval(_spender: address, _addedValue: uint): bool</text>
<text text-anchor="start" x="1024.0943" y="-460.5" font-family="Times,serif" font-size="14.00" fill="#000000"> &#160;&#160;&#160;decreaseApproval(_spender: address, _subtractedValue: uint): bool</text>
</g>
<!-- 9&#45;&gt;7 -->
<g id="edge9" class="edge">
<title>9&#45;&gt;7</title>
<path fill="none" stroke="#000000" d="M1054.7878,-627.5123C1040.6751,-635.0218 1026.364,-642.637 1012.1692,-650.1903"/>
<polygon fill="none" stroke="#000000" points="1007.0859,-641.0011 985.5343,-664.3631 1016.9507,-659.5399 1007.0859,-641.0011"/>
</g>
<!-- 9&#45;&gt;8 -->
<g id="edge10" class="edge">
<title>9&#45;&gt;8</title>
<path fill="none" stroke="#000000" d="M1219.437,-627.5123C1219.437,-629.7029 1219.437,-631.9024 1219.437,-634.1068"/>
<polygon fill="none" stroke="#000000" points="1208.9371,-634.2034 1219.437,-664.2034 1229.9371,-634.2034 1208.9371,-634.2034"/>
</g>
<!-- 10&#45;&gt;6 -->
<g id="edge11" class="edge">
<title>10&#45;&gt;6</title>
<path fill="none" stroke="#000000" stroke-dasharray="5,2" d="M642.9378,-610.9996C625.8014,-626.2041 610.632,-643.8652 600.437,-664 568.4345,-727.2042 562.9563,-763.2823 600.437,-823.4 610.1124,-838.9191 622.5426,-852.4147 636.6279,-864.1401"/>
<polygon fill="#000000" stroke="#000000" points="634.6059,-867.0035 644.6164,-870.4737 638.9548,-861.5183 634.6059,-867.0035"/>
</g>
<!-- 10&#45;&gt;7 -->
<g id="edge12" class="edge">
<title>10&#45;&gt;7</title>
<path fill="none" stroke="#000000" stroke-dasharray="5,2" d="M792.7763,-610.8933C797.4233,-625.0284 802.3584,-640.0399 807.1747,-654.6902"/>
<polygon fill="#000000" stroke="#000000" points="803.8702,-655.8458 810.3183,-664.2525 810.5201,-653.6595 803.8702,-655.8458"/>
</g>
<!-- 11 -->
<g id="node12" class="node">
<title>11</title>
<polygon fill="#f2f2f2" stroke="#000000" points="391.9394,-.5 391.9394,-158.9 608.9346,-158.9 608.9346,-.5 391.9394,-.5"/>
<text text-anchor="middle" x="500.437" y="-142.3" font-family="Times,serif" font-size="14.00" fill="#000000">OrbsToken</text>
<polyline fill="none" stroke="#000000" points="391.9394,-134.1 608.9346,-134.1 "/>
<text text-anchor="start" x="399.9394" y="-117.5" font-family="Times,serif" font-size="14.00" fill="#000000">Public:</text>
<text text-anchor="start" x="399.9394" y="-100.7" font-family="Times,serif" font-size="14.00" fill="#000000"> &#160;&#160;name: string</text>
<text text-anchor="start" x="399.9394" y="-83.9" font-family="Times,serif" font-size="14.00" fill="#000000"> &#160;&#160;symbol: string</text>
<text text-anchor="start" x="399.9394" y="-67.1" font-family="Times,serif" font-size="14.00" fill="#000000"> &#160;&#160;decimals: uint8</text>
<text text-anchor="start" x="399.9394" y="-50.3" font-family="Times,serif" font-size="14.00" fill="#000000"> &#160;&#160;TOTAL_SUPPLY: uint256</text>
<polyline fill="none" stroke="#000000" points="391.9394,-42.1 608.9346,-42.1 "/>
<text text-anchor="start" x="399.9394" y="-25.5" font-family="Times,serif" font-size="14.00" fill="#000000">Public:</text>
<text text-anchor="start" x="399.9394" y="-8.7" font-family="Times,serif" font-size="14.00" fill="#000000"> &#160;&#160;&#160;constructor(_distributor: address)</text>
</g>
<!-- 11&#45;&gt;4 -->
<g id="edge14" class="edge">
<title>11&#45;&gt;4</title>
<path fill="none" stroke="#000000" d="M391.701,-127.2682C360.8329,-145.0026 329.4082,-167.7069 306.437,-195.4 282.9221,-223.7486 267.6486,-261.5129 257.9442,-294.641"/>
<polygon fill="none" stroke="#000000" points="247.7127,-292.2677 250.39,-323.9392 268.0477,-297.5109 247.7127,-292.2677"/>
</g>
<!-- 11&#45;&gt;5 -->
<g id="edge13" class="edge">
<title>11&#45;&gt;5</title>
<path fill="none" stroke="#000000" d="M500.437,-159.178C500.437,-161.2234 500.437,-163.27 500.437,-165.3127"/>
<polygon fill="none" stroke="#000000" points="489.9371,-165.5302 500.437,-195.5303 510.9371,-165.5303 489.9371,-165.5302"/>
</g>
<!-- 11&#45;&gt;9 -->
<g id="edge15" class="edge">
<title>11&#45;&gt;9</title>
<path fill="none" stroke="#000000" d="M609.0576,-154.5305C611.8644,-156.1929 614.6606,-157.8189 617.437,-159.4 650.265,-178.0945 661.4487,-176.9899 694.437,-195.4 826.1338,-268.8975 968.8106,-363.5647 1072.14,-435.0574"/>
<polygon fill="none" stroke="#000000" points="1066.2415,-443.7448 1096.8685,-452.2441 1078.2265,-426.5007 1066.2415,-443.7448"/>
</g>
</g>
</svg>
