<?xml version="1.0" encoding="UTF-8" standalone="no"?>
<!DOCTYPE svg PUBLIC "-//W3C//DTD SVG 1.1//EN"
 "http://www.w3.org/Graphics/SVG/1.1/DTD/svg11.dtd">
<!-- Generated by graphviz version 2.40.1 (20161225.0304)
 -->
<!-- Title: UmlClassDiagram Pages: 1 -->
<svg width="1117pt" height="1094pt"
 viewBox="0.00 0.00 1117.25 1094.00" xmlns="http://www.w3.org/2000/svg" xmlns:xlink="http://www.w3.org/1999/xlink">
<g id="graph0" class="graph" transform="scale(1 1) rotate(0) translate(4 1090)">
<title>UmlClassDiagram</title>
<polygon fill="#ffffff" stroke="transparent" points="-4,4 -4,-1090 1113.2488,-1090 1113.2488,4 -4,4"/>
<!-- 5 -->
<g id="node1" class="node">
<title>5</title>
<polygon fill="#f2f2f2" stroke="#000000" points="409.7447,-731.7 409.7447,-890.1 864.3689,-890.1 864.3689,-731.7 409.7447,-731.7"/>
<text text-anchor="middle" x="637.0568" y="-873.5" font-family="Times,serif" font-size="14.00" fill="#000000">&lt;&lt;Abstract&gt;&gt;</text>
<text text-anchor="middle" x="637.0568" y="-856.7" font-family="Times,serif" font-size="14.00" fill="#000000">ERC20</text>
<polyline fill="none" stroke="#000000" points="409.7447,-848.5 864.3689,-848.5 "/>
<text text-anchor="middle" x="637.0568" y="-831.9" font-family="Times,serif" font-size="14.00" fill="#000000"> </text>
<polyline fill="none" stroke="#000000" points="409.7447,-823.7 864.3689,-823.7 "/>
<text text-anchor="start" x="417.7447" y="-807.1" font-family="Times,serif" font-size="14.00" fill="#000000">Public:</text>
<text text-anchor="start" x="417.7447" y="-790.3" font-family="Times,serif" font-size="14.00" fill="#000000"> &#160;&#160;&#160;&lt;&lt;abstract&gt;&gt; allowance(owner: address, spender: address): uint256</text>
<text text-anchor="start" x="417.7447" y="-773.5" font-family="Times,serif" font-size="14.00" fill="#000000"> &#160;&#160;&#160;&lt;&lt;abstract&gt;&gt; transferFrom(from: address, to: address, value: uint256): bool</text>
<text text-anchor="start" x="417.7447" y="-756.7" font-family="Times,serif" font-size="14.00" fill="#000000"> &#160;&#160;&#160;&lt;&lt;abstract&gt;&gt; approve(spender: address, value: uint256): bool</text>
<text text-anchor="start" x="417.7447" y="-739.9" font-family="Times,serif" font-size="14.00" fill="#000000"> &#160;&#160;&#160;&lt;&lt;event&gt;&gt; Approval(owner: address, spender: address, value: uint256)</text>
</g>
<!-- 1 -->
<g id="node6" class="node">
<title>1</title>
<polygon fill="#f2f2f2" stroke="#000000" points="411.3264,-927.1 411.3264,-1085.5 794.7872,-1085.5 794.7872,-927.1 411.3264,-927.1"/>
<text text-anchor="middle" x="603.0568" y="-1068.9" font-family="Times,serif" font-size="14.00" fill="#000000">&lt;&lt;Abstract&gt;&gt;</text>
<text text-anchor="middle" x="603.0568" y="-1052.1" font-family="Times,serif" font-size="14.00" fill="#000000">ERC20Basic</text>
<polyline fill="none" stroke="#000000" points="411.3264,-1043.9 794.7872,-1043.9 "/>
<text text-anchor="start" x="419.3264" y="-1027.3" font-family="Times,serif" font-size="14.00" fill="#000000">Public:</text>
<text text-anchor="start" x="419.3264" y="-1010.5" font-family="Times,serif" font-size="14.00" fill="#000000"> &#160;&#160;totalSupply: uint256</text>
<polyline fill="none" stroke="#000000" points="411.3264,-1002.3 794.7872,-1002.3 "/>
<text text-anchor="start" x="419.3264" y="-985.7" font-family="Times,serif" font-size="14.00" fill="#000000">Public:</text>
<text text-anchor="start" x="419.3264" y="-968.9" font-family="Times,serif" font-size="14.00" fill="#000000"> &#160;&#160;&#160;&lt;&lt;abstract&gt;&gt; balanceOf(who: address): uint256</text>
<text text-anchor="start" x="419.3264" y="-952.1" font-family="Times,serif" font-size="14.00" fill="#000000"> &#160;&#160;&#160;&lt;&lt;abstract&gt;&gt; transfer(to: address, value: uint256): bool</text>
<text text-anchor="start" x="419.3264" y="-935.3" font-family="Times,serif" font-size="14.00" fill="#000000"> &#160;&#160;&#160;&lt;&lt;event&gt;&gt; Transfer(from: address, to: address, value: uint256)</text>
</g>
<!-- 5&#45;&gt;1 -->
<g id="edge1" class="edge">
<title>5&#45;&gt;1</title>
<path fill="none" stroke="#000000" d="M623.2277,-890.3767C622.8347,-892.6351 622.4394,-894.9071 622.0426,-897.1874"/>
<polygon fill="none" stroke="#000000" points="611.6719,-895.5379 616.8736,-926.8938 632.3611,-899.1379 611.6719,-895.5379"/>
</g>
<!-- 0 -->
<g id="node2" class="node">
<title>0</title>
<polygon fill="#f2f2f2" stroke="#000000" points="127.1406,-927.1 127.1406,-1085.5 358.973,-1085.5 358.973,-927.1 127.1406,-927.1"/>
<text text-anchor="middle" x="243.0568" y="-1068.9" font-family="Times,serif" font-size="14.00" fill="#000000">&lt;&lt;Library&gt;&gt;</text>
<text text-anchor="middle" x="243.0568" y="-1052.1" font-family="Times,serif" font-size="14.00" fill="#000000">SafeMath</text>
<polyline fill="none" stroke="#000000" points="127.1406,-1043.9 358.973,-1043.9 "/>
<text text-anchor="middle" x="243.0568" y="-1027.3" font-family="Times,serif" font-size="14.00" fill="#000000"> </text>
<polyline fill="none" stroke="#000000" points="127.1406,-1019.1 358.973,-1019.1 "/>
<text text-anchor="start" x="135.1406" y="-1002.5" font-family="Times,serif" font-size="14.00" fill="#000000">Internal:</text>
<text text-anchor="start" x="135.1406" y="-985.7" font-family="Times,serif" font-size="14.00" fill="#000000"> &#160;&#160;&#160;mul(a: uint256, b: uint256): uint256</text>
<text text-anchor="start" x="135.1406" y="-968.9" font-family="Times,serif" font-size="14.00" fill="#000000"> &#160;&#160;&#160;div(a: uint256, b: uint256): uint256</text>
<text text-anchor="start" x="135.1406" y="-952.1" font-family="Times,serif" font-size="14.00" fill="#000000"> &#160;&#160;&#160;sub(a: uint256, b: uint256): uint256</text>
<text text-anchor="start" x="135.1406" y="-935.3" font-family="Times,serif" font-size="14.00" fill="#000000"> &#160;&#160;&#160;add(a: uint256, b: uint256): uint256</text>
</g>
<!-- 2 -->
<g id="node3" class="node">
<title>2</title>
<polygon fill="#f2f2f2" stroke="#000000" points="94.1461,-748.5 94.1461,-873.3 391.9675,-873.3 391.9675,-748.5 94.1461,-748.5"/>
<text text-anchor="middle" x="243.0568" y="-856.7" font-family="Times,serif" font-size="14.00" fill="#000000">BasicToken</text>
<polyline fill="none" stroke="#000000" points="94.1461,-848.5 391.9675,-848.5 "/>
<text text-anchor="start" x="102.1461" y="-831.9" font-family="Times,serif" font-size="14.00" fill="#000000">Public:</text>
<text text-anchor="start" x="102.1461" y="-815.1" font-family="Times,serif" font-size="14.00" fill="#000000"> &#160;&#160;balances: mapping(address=&gt;uint256)</text>
<polyline fill="none" stroke="#000000" points="94.1461,-806.9 391.9675,-806.9 "/>
<text text-anchor="start" x="102.1461" y="-790.3" font-family="Times,serif" font-size="14.00" fill="#000000">Public:</text>
<text text-anchor="start" x="102.1461" y="-773.5" font-family="Times,serif" font-size="14.00" fill="#000000"> &#160;&#160;&#160;transfer(_to: address, _value: uint256): bool</text>
<text text-anchor="start" x="102.1461" y="-756.7" font-family="Times,serif" font-size="14.00" fill="#000000"> &#160;&#160;&#160;balanceOf(_owner: address): (balance: uint256)</text>
</g>
<!-- 2&#45;&gt;0 -->
<g id="edge3" class="edge">
<title>2&#45;&gt;0</title>
<path fill="none" stroke="#000000" stroke-dasharray="5,2" d="M243.0568,-873.5321C243.0568,-887.3182 243.0568,-902.1783 243.0568,-916.7923"/>
<polygon fill="#000000" stroke="#000000" points="239.5569,-916.8541 243.0568,-926.8542 246.5569,-916.8542 239.5569,-916.8541"/>
</g>
<!-- 2&#45;&gt;1 -->
<g id="edge2" class="edge">
<title>2&#45;&gt;1</title>
<path fill="none" stroke="#000000" d="M358.4485,-873.5321C381.481,-886.0336 406.1407,-899.4183 430.6138,-912.7018"/>
<polygon fill="none" stroke="#000000" points="425.6352,-921.9465 457.0106,-927.0294 435.6531,-903.4899 425.6352,-921.9465"/>
</g>
<!-- 3 -->
<g id="node4" class="node">
<title>3</title>
<polygon fill="#f2f2f2" stroke="#000000" points="0,-340.9 0,-448.9 306.1136,-448.9 306.1136,-340.9 0,-340.9"/>
<text text-anchor="middle" x="153.0568" y="-432.3" font-family="Times,serif" font-size="14.00" fill="#000000">BurnableToken</text>
<polyline fill="none" stroke="#000000" points="0,-424.1 306.1136,-424.1 "/>
<text text-anchor="middle" x="153.0568" y="-407.5" font-family="Times,serif" font-size="14.00" fill="#000000"> </text>
<polyline fill="none" stroke="#000000" points="0,-399.3 306.1136,-399.3 "/>
<text text-anchor="start" x="8" y="-382.7" font-family="Times,serif" font-size="14.00" fill="#000000">Public:</text>
<text text-anchor="start" x="8" y="-365.9" font-family="Times,serif" font-size="14.00" fill="#000000"> &#160;&#160;&#160;&lt;&lt;event&gt;&gt; Burn(burner: address, value: uint256)</text>
<text text-anchor="start" x="8" y="-349.1" font-family="Times,serif" font-size="14.00" fill="#000000"> &#160;&#160;&#160;burn(_value: uint256)</text>
</g>
<!-- 3&#45;&gt;2 -->
<g id="edge4" class="edge">
<title>3&#45;&gt;2</title>
<path fill="none" stroke="#000000" d="M140.6157,-449.1258C129.0234,-510.7589 117.5428,-613.409 147.0568,-695.2 150.5971,-705.011 155.3712,-714.5782 160.9078,-723.7387"/>
<polygon fill="none" stroke="#000000" points="152.3288,-729.7929 178.1386,-748.3429 169.5301,-717.7464 152.3288,-729.7929"/>
</g>
<!-- 4 -->
<g id="node5" class="node">
<title>4</title>
<polygon fill="#f2f2f2" stroke="#000000" points="580.6198,-527.9 580.6198,-686.3 1065.4938,-686.3 1065.4938,-527.9 580.6198,-527.9"/>
<text text-anchor="middle" x="823.0568" y="-669.7" font-family="Times,serif" font-size="14.00" fill="#000000">Ownable</text>
<polyline fill="none" stroke="#000000" points="580.6198,-661.5 1065.4938,-661.5 "/>
<text text-anchor="start" x="588.6198" y="-644.9" font-family="Times,serif" font-size="14.00" fill="#000000">Public:</text>
<text text-anchor="start" x="588.6198" y="-628.1" font-family="Times,serif" font-size="14.00" fill="#000000"> &#160;&#160;owner: address</text>
<polyline fill="none" stroke="#000000" points="580.6198,-619.9 1065.4938,-619.9 "/>
<text text-anchor="start" x="588.6198" y="-603.3" font-family="Times,serif" font-size="14.00" fill="#000000">Public:</text>
<text text-anchor="start" x="588.6198" y="-586.5" font-family="Times,serif" font-size="14.00" fill="#000000"> &#160;&#160;&#160;&lt;&lt;event&gt;&gt; OwnershipTransferred(previousOwner: address, newOwner: address)</text>
<text text-anchor="start" x="588.6198" y="-569.7" font-family="Times,serif" font-size="14.00" fill="#000000"> &#160;&#160;&#160;&lt;&lt;modifier&gt;&gt; onlyOwner()</text>
<text text-anchor="start" x="588.6198" y="-552.9" font-family="Times,serif" font-size="14.00" fill="#000000"> &#160;&#160;&#160;constructor()</text>
<text text-anchor="start" x="588.6198" y="-536.1" font-family="Times,serif" font-size="14.00" fill="#000000"> &#160;&#160;&#160;transferOwnership(newOwner: address)</text>
</g>
<!-- 6 -->
<g id="node7" class="node">
<title>6</title>
<polygon fill="#f2f2f2" stroke="#000000" points="155.7141,-519.5 155.7141,-694.7 562.3995,-694.7 562.3995,-519.5 155.7141,-519.5"/>
<text text-anchor="middle" x="359.0568" y="-678.1" font-family="Times,serif" font-size="14.00" fill="#000000">StandardToken</text>
<polyline fill="none" stroke="#000000" points="155.7141,-669.9 562.3995,-669.9 "/>
<text text-anchor="start" x="163.7141" y="-653.3" font-family="Times,serif" font-size="14.00" fill="#000000">Internal:</text>
<text text-anchor="start" x="163.7141" y="-636.5" font-family="Times,serif" font-size="14.00" fill="#000000"> &#160;&#160;allowed: mapping(address=&gt;mapping(address=&gt;uint256))</text>
<polyline fill="none" stroke="#000000" points="155.7141,-628.3 562.3995,-628.3 "/>
<text text-anchor="start" x="163.7141" y="-611.7" font-family="Times,serif" font-size="14.00" fill="#000000">Public:</text>
<text text-anchor="start" x="163.7141" y="-594.9" font-family="Times,serif" font-size="14.00" fill="#000000"> &#160;&#160;&#160;transferFrom(_from: address, _to: address, _value: uint256): bool</text>
<text text-anchor="start" x="163.7141" y="-578.1" font-family="Times,serif" font-size="14.00" fill="#000000"> &#160;&#160;&#160;approve(_spender: address, _value: uint256): bool</text>
<text text-anchor="start" x="163.7141" y="-561.3" font-family="Times,serif" font-size="14.00" fill="#000000"> &#160;&#160;&#160;allowance(_owner: address, _spender: address): uint256</text>
<text text-anchor="start" x="163.7141" y="-544.5" font-family="Times,serif" font-size="14.00" fill="#000000"> &#160;&#160;&#160;increaseApproval(_spender: address, _addedValue: uint): bool</text>
<text text-anchor="start" x="163.7141" y="-527.7" font-family="Times,serif" font-size="14.00" fill="#000000"> &#160;&#160;&#160;decreaseApproval(_spender: address, _subtractedValue: uint): bool</text>
</g>
<!-- 6&#45;&gt;5 -->
<g id="edge5" class="edge">
<title>6&#45;&gt;5</title>
<path fill="none" stroke="#000000" d="M478.5672,-694.7123C487.0118,-700.903 495.5544,-707.1655 504.0668,-713.4059"/>
<polygon fill="none" stroke="#000000" points="498.214,-722.1345 528.6169,-731.4034 510.63,-705.198 498.214,-722.1345"/>
</g>
<!-- 6&#45;&gt;2 -->
<g id="edge6" class="edge">
<title>6&#45;&gt;2</title>
<path fill="none" stroke="#000000" d="M309.1892,-694.7123C304.0617,-703.7206 298.8478,-712.881 293.712,-721.9041"/>
<polygon fill="none" stroke="#000000" points="284.4181,-717.0063 278.7033,-748.2728 302.6688,-727.3943 284.4181,-717.0063"/>
</g>
<!-- 7 -->
<g id="node8" class="node">
<title>7</title>
<polygon fill="#f2f2f2" stroke="#000000" points="387.3703,-307.3 387.3703,-482.5 678.7433,-482.5 678.7433,-307.3 387.3703,-307.3"/>
<text text-anchor="middle" x="533.0568" y="-465.9" font-family="Times,serif" font-size="14.00" fill="#000000">MintableToken</text>
<polyline fill="none" stroke="#000000" points="387.3703,-457.7 678.7433,-457.7 "/>
<text text-anchor="start" x="395.3703" y="-441.1" font-family="Times,serif" font-size="14.00" fill="#000000">Public:</text>
<text text-anchor="start" x="395.3703" y="-424.3" font-family="Times,serif" font-size="14.00" fill="#000000"> &#160;&#160;mintingFinished: bool</text>
<polyline fill="none" stroke="#000000" points="387.3703,-416.1 678.7433,-416.1 "/>
<text text-anchor="start" x="395.3703" y="-399.5" font-family="Times,serif" font-size="14.00" fill="#000000">Public:</text>
<text text-anchor="start" x="395.3703" y="-382.7" font-family="Times,serif" font-size="14.00" fill="#000000"> &#160;&#160;&#160;&lt;&lt;event&gt;&gt; Mint(to: address, amount: uint256)</text>
<text text-anchor="start" x="395.3703" y="-365.9" font-family="Times,serif" font-size="14.00" fill="#000000"> &#160;&#160;&#160;&lt;&lt;event&gt;&gt; MintFinished()</text>
<text text-anchor="start" x="395.3703" y="-349.1" font-family="Times,serif" font-size="14.00" fill="#000000"> &#160;&#160;&#160;&lt;&lt;modifier&gt;&gt; canMint()</text>
<text text-anchor="start" x="395.3703" y="-332.3" font-family="Times,serif" font-size="14.00" fill="#000000"> &#160;&#160;&#160;mint(_to: address, _amount: uint256): bool</text>
<text text-anchor="start" x="395.3703" y="-315.5" font-family="Times,serif" font-size="14.00" fill="#000000"> &#160;&#160;&#160;finishMinting(): bool</text>
</g>
<!-- 7&#45;&gt;4 -->
<g id="edge8" class="edge">
<title>7&#45;&gt;4</title>
<path fill="none" stroke="#000000" d="M653.1043,-482.7416C665.3838,-491.7268 677.9094,-500.8922 690.3146,-509.9693"/>
<polygon fill="none" stroke="#000000" points="684.2874,-518.5698 714.6986,-527.8117 696.6883,-501.6223 684.2874,-518.5698"/>
</g>
<!-- 7&#45;&gt;6 -->
<g id="edge7" class="edge">
<title>7&#45;&gt;6</title>
<path fill="none" stroke="#000000" d="M461.0283,-482.7416C457.4668,-487.085 453.8708,-491.4705 450.2651,-495.8678"/>
<polygon fill="none" stroke="#000000" points="441.934,-489.4682 431.0312,-519.3243 458.1728,-502.7838 441.934,-489.4682"/>
</g>
<!-- 8 -->
<g id="node9" class="node">
<title>8</title>
<polygon fill="#f2f2f2" stroke="#000000" points="386.7058,-137.1 386.7058,-261.9 657.4078,-261.9 657.4078,-137.1 386.7058,-137.1"/>
<text text-anchor="middle" x="522.0568" y="-245.3" font-family="Times,serif" font-size="14.00" fill="#000000">CappedToken</text>
<polyline fill="none" stroke="#000000" points="386.7058,-237.1 657.4078,-237.1 "/>
<text text-anchor="start" x="394.7058" y="-220.5" font-family="Times,serif" font-size="14.00" fill="#000000">Public:</text>
<text text-anchor="start" x="394.7058" y="-203.7" font-family="Times,serif" font-size="14.00" fill="#000000"> &#160;&#160;cap: uint256</text>
<polyline fill="none" stroke="#000000" points="386.7058,-195.5 657.4078,-195.5 "/>
<text text-anchor="start" x="394.7058" y="-178.9" font-family="Times,serif" font-size="14.00" fill="#000000">Public:</text>
<text text-anchor="start" x="394.7058" y="-162.1" font-family="Times,serif" font-size="14.00" fill="#000000"> &#160;&#160;&#160;constructor(_cap: uint256)</text>
<text text-anchor="start" x="394.7058" y="-145.3" font-family="Times,serif" font-size="14.00" fill="#000000"> &#160;&#160;&#160;mint(_to: address, _amount: uint256): bool</text>
</g>
<!-- 8&#45;&gt;7 -->
<g id="edge9" class="edge">
<title>8&#45;&gt;7</title>
<path fill="none" stroke="#000000" d="M525.5827,-262.1321C525.8529,-266.9321 526.1304,-271.8623 526.4122,-276.867"/>
<polygon fill="none" stroke="#000000" points="515.9382,-277.6264 528.1079,-306.9888 536.905,-276.446 515.9382,-277.6264"/>
</g>
<!-- 9 -->
<g id="node10" class="node">
<title>9</title>
<polygon fill="#f2f2f2" stroke="#000000" points="675.3923,-128.7 675.3923,-270.3 1048.7213,-270.3 1048.7213,-128.7 675.3923,-128.7"/>
<text text-anchor="middle" x="862.0568" y="-253.7" font-family="Times,serif" font-size="14.00" fill="#000000">DetailedERC20</text>
<polyline fill="none" stroke="#000000" points="675.3923,-245.5 1048.7213,-245.5 "/>
<text text-anchor="start" x="683.3923" y="-228.9" font-family="Times,serif" font-size="14.00" fill="#000000">Public:</text>
<text text-anchor="start" x="683.3923" y="-212.1" font-family="Times,serif" font-size="14.00" fill="#000000"> &#160;&#160;name: string</text>
<text text-anchor="start" x="683.3923" y="-195.3" font-family="Times,serif" font-size="14.00" fill="#000000"> &#160;&#160;symbol: string</text>
<text text-anchor="start" x="683.3923" y="-178.5" font-family="Times,serif" font-size="14.00" fill="#000000"> &#160;&#160;decimals: uint8</text>
<polyline fill="none" stroke="#000000" points="675.3923,-170.3 1048.7213,-170.3 "/>
<text text-anchor="start" x="683.3923" y="-153.7" font-family="Times,serif" font-size="14.00" fill="#000000">Public:</text>
<text text-anchor="start" x="683.3923" y="-136.9" font-family="Times,serif" font-size="14.00" fill="#000000"> &#160;&#160;&#160;constructor(_name: string, _symbol: string, _decimals: uint8)</text>
</g>
<!-- 9&#45;&gt;5 -->
<g id="edge10" class="edge">
<title>9&#45;&gt;5</title>
<path fill="none" stroke="#000000" d="M935.3908,-270.5984C1031.4792,-372.4511 1176.3908,-562.2462 1074.0568,-695.2 1049.5687,-727.0153 974.8547,-751.8804 893.9721,-770.269"/>
<polygon fill="none" stroke="#000000" points="891.6799,-760.0219 864.5782,-776.6276 896.1201,-780.5471 891.6799,-760.0219"/>
</g>
<!-- 10 -->
<g id="node11" class="node">
<title>10</title>
<polygon fill="#f2f2f2" stroke="#000000" points="388.9081,-.5 388.9081,-91.7 491.2055,-91.7 491.2055,-.5 388.9081,-.5"/>
<text text-anchor="middle" x="440.0568" y="-75.1" font-family="Times,serif" font-size="14.00" fill="#000000">BaxToken</text>
<polyline fill="none" stroke="#000000" points="388.9081,-66.9 491.2055,-66.9 "/>
<text text-anchor="middle" x="440.0568" y="-50.3" font-family="Times,serif" font-size="14.00" fill="#000000"> </text>
<polyline fill="none" stroke="#000000" points="388.9081,-42.1 491.2055,-42.1 "/>
<text text-anchor="start" x="396.9081" y="-25.5" font-family="Times,serif" font-size="14.00" fill="#000000">Public:</text>
<text text-anchor="start" x="396.9081" y="-8.7" font-family="Times,serif" font-size="14.00" fill="#000000"> &#160;&#160;&#160;constructor()</text>
</g>
<!-- 10&#45;&gt;3 -->
<g id="edge13" class="edge">
<title>10&#45;&gt;3</title>
<path fill="none" stroke="#000000" d="M388.7317,-86.6352C373.9739,-99.2816 358.3005,-113.7258 345.0568,-128.2 291.5215,-186.709 239.5162,-260.3107 203.1632,-315.3646"/>
<polygon fill="none" stroke="#000000" points="194.2028,-309.883 186.6364,-340.7537 211.8026,-321.3394 194.2028,-309.883"/>
</g>
<!-- 10&#45;&gt;6 -->
<g id="edge12" class="edge">
<title>10&#45;&gt;6</title>
<path fill="none" stroke="#000000" d="M397.9808,-91.8299C389.9452,-102.9884 382.625,-115.4172 378.0568,-128.2 336.0222,-245.8205 336.7511,-390.1661 344.5454,-489.4518"/>
<polygon fill="none" stroke="#000000" points="334.0907,-490.4272 347.2152,-519.3754 355.0076,-488.5609 334.0907,-490.4272"/>
</g>
<!-- 10&#45;&gt;8 -->
<g id="edge14" class="edge">
<title>10&#45;&gt;8</title>
<path fill="none" stroke="#000000" d="M464.4375,-91.7097C467.6441,-97.7084 471.0139,-104.0124 474.4472,-110.4353"/>
<polygon fill="none" stroke="#000000" points="465.2604,-115.5222 488.6632,-137.0294 483.7804,-105.6223 465.2604,-115.5222"/>
</g>
<!-- 10&#45;&gt;9 -->
<g id="edge11" class="edge">
<title>10&#45;&gt;9</title>
<path fill="none" stroke="#000000" d="M491.221,-64.6793C530.7659,-79.0408 587.5963,-99.6831 646.9752,-121.2645"/>
<polygon fill="none" stroke="#000000" points="643.5379,-131.1872 675.3201,-131.5676 650.712,-111.4506 643.5379,-131.1872"/>
</g>
</g>
</svg>
