<?xml version="1.0" encoding="UTF-8" standalone="no"?>
<!DOCTYPE svg PUBLIC "-//W3C//DTD SVG 1.1//EN"
 "http://www.w3.org/Graphics/SVG/1.1/DTD/svg11.dtd">
<!-- Generated by graphviz version 2.40.1 (20161225.0304)
 -->
<!-- Title: UmlClassDiagram Pages: 1 -->
<svg width="1259pt" height="966pt"
 viewBox="0.00 0.00 1259.49 965.80" xmlns="http://www.w3.org/2000/svg" xmlns:xlink="http://www.w3.org/1999/xlink">
<g id="graph0" class="graph" transform="scale(1 1) rotate(0) translate(4 961.8)">
<title>UmlClassDiagram</title>
<polygon fill="#ffffff" stroke="transparent" points="-4,4 -4,-961.8 1255.4872,-961.8 1255.4872,4 -4,4"/>
<!-- 0 -->
<g id="node1" class="node">
<title>0</title>
<polygon fill="#f2f2f2" stroke="#000000" points="10.6708,-798.9 10.6708,-957.3 265.4296,-957.3 265.4296,-798.9 10.6708,-798.9"/>
<text text-anchor="middle" x="138.0502" y="-940.7" font-family="Times,serif" font-size="14.00" fill="#000000">&lt;&lt;Library&gt;&gt;</text>
<text text-anchor="middle" x="138.0502" y="-923.9" font-family="Times,serif" font-size="14.00" fill="#000000">SafeMath</text>
<polyline fill="none" stroke="#000000" points="10.6708,-915.7 265.4296,-915.7 "/>
<text text-anchor="middle" x="138.0502" y="-899.1" font-family="Times,serif" font-size="14.00" fill="#000000"> </text>
<polyline fill="none" stroke="#000000" points="10.6708,-890.9 265.4296,-890.9 "/>
<text text-anchor="start" x="18.6708" y="-874.3" font-family="Times,serif" font-size="14.00" fill="#000000">Internal:</text>
<text text-anchor="start" x="18.6708" y="-857.5" font-family="Times,serif" font-size="14.00" fill="#000000"> &#160;&#160;&#160;mul(a: uint256, b: uint256): (c: uint256)</text>
<text text-anchor="start" x="18.6708" y="-840.7" font-family="Times,serif" font-size="14.00" fill="#000000"> &#160;&#160;&#160;div(a: uint256, b: uint256): uint256</text>
<text text-anchor="start" x="18.6708" y="-823.9" font-family="Times,serif" font-size="14.00" fill="#000000"> &#160;&#160;&#160;sub(a: uint256, b: uint256): uint256</text>
<text text-anchor="start" x="18.6708" y="-807.1" font-family="Times,serif" font-size="14.00" fill="#000000"> &#160;&#160;&#160;add(a: uint256, b: uint256): (c: uint256)</text>
</g>
<!-- 1 -->
<g id="node2" class="node">
<title>1</title>
<polygon fill="#f2f2f2" stroke="#000000" points="306.3198,-798.9 306.3198,-957.3 689.7806,-957.3 689.7806,-798.9 306.3198,-798.9"/>
<text text-anchor="middle" x="498.0502" y="-940.7" font-family="Times,serif" font-size="14.00" fill="#000000">&lt;&lt;Abstract&gt;&gt;</text>
<text text-anchor="middle" x="498.0502" y="-923.9" font-family="Times,serif" font-size="14.00" fill="#000000">ERC20Basic</text>
<polyline fill="none" stroke="#000000" points="306.3198,-915.7 689.7806,-915.7 "/>
<text text-anchor="middle" x="498.0502" y="-899.1" font-family="Times,serif" font-size="14.00" fill="#000000"> </text>
<polyline fill="none" stroke="#000000" points="306.3198,-890.9 689.7806,-890.9 "/>
<text text-anchor="start" x="314.3198" y="-874.3" font-family="Times,serif" font-size="14.00" fill="#000000">Public:</text>
<text text-anchor="start" x="314.3198" y="-857.5" font-family="Times,serif" font-size="14.00" fill="#000000"> &#160;&#160;&#160;&lt;&lt;abstract&gt;&gt; totalSupply(): uint256</text>
<text text-anchor="start" x="314.3198" y="-840.7" font-family="Times,serif" font-size="14.00" fill="#000000"> &#160;&#160;&#160;&lt;&lt;abstract&gt;&gt; balanceOf(who: address): uint256</text>
<text text-anchor="start" x="314.3198" y="-823.9" font-family="Times,serif" font-size="14.00" fill="#000000"> &#160;&#160;&#160;&lt;&lt;abstract&gt;&gt; transfer(to: address, value: uint256): bool</text>
<text text-anchor="start" x="314.3198" y="-807.1" font-family="Times,serif" font-size="14.00" fill="#000000"> &#160;&#160;&#160;&lt;&lt;event&gt;&gt; Transfer(from: address, to: address, value: uint256)</text>
</g>
<!-- 2 -->
<g id="node3" class="node">
<title>2</title>
<polygon fill="#f2f2f2" stroke="#000000" points="293.7381,-603.5 293.7381,-761.9 748.3623,-761.9 748.3623,-603.5 293.7381,-603.5"/>
<text text-anchor="middle" x="521.0502" y="-745.3" font-family="Times,serif" font-size="14.00" fill="#000000">&lt;&lt;Abstract&gt;&gt;</text>
<text text-anchor="middle" x="521.0502" y="-728.5" font-family="Times,serif" font-size="14.00" fill="#000000">ERC20</text>
<polyline fill="none" stroke="#000000" points="293.7381,-720.3 748.3623,-720.3 "/>
<text text-anchor="middle" x="521.0502" y="-703.7" font-family="Times,serif" font-size="14.00" fill="#000000"> </text>
<polyline fill="none" stroke="#000000" points="293.7381,-695.5 748.3623,-695.5 "/>
<text text-anchor="start" x="301.7381" y="-678.9" font-family="Times,serif" font-size="14.00" fill="#000000">Public:</text>
<text text-anchor="start" x="301.7381" y="-662.1" font-family="Times,serif" font-size="14.00" fill="#000000"> &#160;&#160;&#160;&lt;&lt;abstract&gt;&gt; allowance(owner: address, spender: address): uint256</text>
<text text-anchor="start" x="301.7381" y="-645.3" font-family="Times,serif" font-size="14.00" fill="#000000"> &#160;&#160;&#160;&lt;&lt;abstract&gt;&gt; transferFrom(from: address, to: address, value: uint256): bool</text>
<text text-anchor="start" x="301.7381" y="-628.5" font-family="Times,serif" font-size="14.00" fill="#000000"> &#160;&#160;&#160;&lt;&lt;abstract&gt;&gt; approve(spender: address, value: uint256): bool</text>
<text text-anchor="start" x="301.7381" y="-611.7" font-family="Times,serif" font-size="14.00" fill="#000000"> &#160;&#160;&#160;&lt;&lt;event&gt;&gt; Approval(owner: address, spender: address, value: uint256)</text>
</g>
<!-- 2&#45;&gt;1 -->
<g id="edge1" class="edge">
<title>2&#45;&gt;1</title>
<path fill="none" stroke="#000000" d="M511.6952,-762.1767C511.4405,-764.341 511.1842,-766.5178 510.9271,-768.7024"/>
<polygon fill="none" stroke="#000000" points="500.476,-767.672 507.3969,-798.6938 521.332,-770.1269 500.476,-767.672"/>
</g>
<!-- 3 -->
<g id="node4" class="node">
<title>3</title>
<polygon fill="#f2f2f2" stroke="#000000" points="766.6132,-603.5 766.6132,-761.9 1251.4872,-761.9 1251.4872,-603.5 766.6132,-603.5"/>
<text text-anchor="middle" x="1009.0502" y="-745.3" font-family="Times,serif" font-size="14.00" fill="#000000">Ownable</text>
<polyline fill="none" stroke="#000000" points="766.6132,-737.1 1251.4872,-737.1 "/>
<text text-anchor="start" x="774.6132" y="-720.5" font-family="Times,serif" font-size="14.00" fill="#000000">Public:</text>
<text text-anchor="start" x="774.6132" y="-703.7" font-family="Times,serif" font-size="14.00" fill="#000000"> &#160;&#160;owner: address</text>
<polyline fill="none" stroke="#000000" points="766.6132,-695.5 1251.4872,-695.5 "/>
<text text-anchor="start" x="774.6132" y="-678.9" font-family="Times,serif" font-size="14.00" fill="#000000">Public:</text>
<text text-anchor="start" x="774.6132" y="-662.1" font-family="Times,serif" font-size="14.00" fill="#000000"> &#160;&#160;&#160;&lt;&lt;event&gt;&gt; OwnershipTransferred(previousOwner: address, newOwner: address)</text>
<text text-anchor="start" x="774.6132" y="-645.3" font-family="Times,serif" font-size="14.00" fill="#000000"> &#160;&#160;&#160;&lt;&lt;modifier&gt;&gt; onlyOwner()</text>
<text text-anchor="start" x="774.6132" y="-628.5" font-family="Times,serif" font-size="14.00" fill="#000000"> &#160;&#160;&#160;constructor()</text>
<text text-anchor="start" x="774.6132" y="-611.7" font-family="Times,serif" font-size="14.00" fill="#000000"> &#160;&#160;&#160;transferOwnership(newOwner: address)</text>
</g>
<!-- 4 -->
<g id="node5" class="node">
<title>4</title>
<polygon fill="#f2f2f2" stroke="#000000" points="902.2592,-374.5 902.2592,-566.5 1115.8412,-566.5 1115.8412,-374.5 902.2592,-374.5"/>
<text text-anchor="middle" x="1009.0502" y="-549.9" font-family="Times,serif" font-size="14.00" fill="#000000">Pausable</text>
<polyline fill="none" stroke="#000000" points="902.2592,-541.7 1115.8412,-541.7 "/>
<text text-anchor="start" x="910.2592" y="-525.1" font-family="Times,serif" font-size="14.00" fill="#000000">Public:</text>
<text text-anchor="start" x="910.2592" y="-508.3" font-family="Times,serif" font-size="14.00" fill="#000000"> &#160;&#160;paused: bool</text>
<polyline fill="none" stroke="#000000" points="902.2592,-500.1 1115.8412,-500.1 "/>
<text text-anchor="start" x="910.2592" y="-483.5" font-family="Times,serif" font-size="14.00" fill="#000000">Public:</text>
<text text-anchor="start" x="910.2592" y="-466.7" font-family="Times,serif" font-size="14.00" fill="#000000"> &#160;&#160;&#160;&lt;&lt;event&gt;&gt; Pause()</text>
<text text-anchor="start" x="910.2592" y="-449.9" font-family="Times,serif" font-size="14.00" fill="#000000"> &#160;&#160;&#160;&lt;&lt;event&gt;&gt; Unpause()</text>
<text text-anchor="start" x="910.2592" y="-433.1" font-family="Times,serif" font-size="14.00" fill="#000000"> &#160;&#160;&#160;&lt;&lt;modifier&gt;&gt; whenNotPaused()</text>
<text text-anchor="start" x="910.2592" y="-416.3" font-family="Times,serif" font-size="14.00" fill="#000000"> &#160;&#160;&#160;&lt;&lt;modifier&gt;&gt; whenPaused()</text>
<text text-anchor="start" x="910.2592" y="-399.5" font-family="Times,serif" font-size="14.00" fill="#000000"> &#160;&#160;&#160;pause()</text>
<text text-anchor="start" x="910.2592" y="-382.7" font-family="Times,serif" font-size="14.00" fill="#000000"> &#160;&#160;&#160;unpause()</text>
</g>
<!-- 4&#45;&gt;3 -->
<g id="edge2" class="edge">
<title>4&#45;&gt;3</title>
<path fill="none" stroke="#000000" d="M1009.0502,-566.6661C1009.0502,-568.873 1009.0502,-571.0856 1009.0502,-573.3002"/>
<polygon fill="none" stroke="#000000" points="998.5503,-573.3828 1009.0502,-603.3828 1019.5503,-573.3828 998.5503,-573.3828"/>
</g>
<!-- 5 -->
<g id="node6" class="node">
<title>5</title>
<polygon fill="#f2f2f2" stroke="#000000" points="0,-603.5 0,-761.9 276.1004,-761.9 276.1004,-603.5 0,-603.5"/>
<text text-anchor="middle" x="138.0502" y="-745.3" font-family="Times,serif" font-size="14.00" fill="#000000">BasicToken</text>
<polyline fill="none" stroke="#000000" points="0,-737.1 276.1004,-737.1 "/>
<text text-anchor="start" x="8" y="-720.5" font-family="Times,serif" font-size="14.00" fill="#000000">Public:</text>
<text text-anchor="start" x="8" y="-703.7" font-family="Times,serif" font-size="14.00" fill="#000000"> &#160;&#160;balances: mapping(address=&gt;uint256)</text>
<text text-anchor="start" x="8" y="-686.9" font-family="Times,serif" font-size="14.00" fill="#000000"> &#160;&#160;totalSupply_: uint256</text>
<polyline fill="none" stroke="#000000" points="0,-678.7 276.1004,-678.7 "/>
<text text-anchor="start" x="8" y="-662.1" font-family="Times,serif" font-size="14.00" fill="#000000">Public:</text>
<text text-anchor="start" x="8" y="-645.3" font-family="Times,serif" font-size="14.00" fill="#000000"> &#160;&#160;&#160;totalSupply(): uint256</text>
<text text-anchor="start" x="8" y="-628.5" font-family="Times,serif" font-size="14.00" fill="#000000"> &#160;&#160;&#160;transfer(_to: address, _value: uint256): bool</text>
<text text-anchor="start" x="8" y="-611.7" font-family="Times,serif" font-size="14.00" fill="#000000"> &#160;&#160;&#160;balanceOf(_owner: address): uint256</text>
</g>
<!-- 5&#45;&gt;0 -->
<g id="edge4" class="edge">
<title>5&#45;&gt;0</title>
<path fill="none" stroke="#000000" stroke-dasharray="5,2" d="M138.0502,-762.1767C138.0502,-770.8341 138.0502,-779.6895 138.0502,-788.4577"/>
<polygon fill="#000000" stroke="#000000" points="134.5503,-788.6937 138.0502,-798.6938 141.5503,-788.6938 134.5503,-788.6937"/>
</g>
<!-- 5&#45;&gt;1 -->
<g id="edge3" class="edge">
<title>5&#45;&gt;1</title>
<path fill="none" stroke="#000000" d="M276.206,-757.6879C292.278,-766.4114 308.8211,-775.3906 325.2834,-784.326"/>
<polygon fill="none" stroke="#000000" points="320.5247,-793.6901 351.9002,-798.773 330.5426,-775.2335 320.5247,-793.6901"/>
</g>
<!-- 6 -->
<g id="node7" class="node">
<title>6</title>
<polygon fill="#f2f2f2" stroke="#000000" points="409.7075,-382.9 409.7075,-558.1 816.3929,-558.1 816.3929,-382.9 409.7075,-382.9"/>
<text text-anchor="middle" x="613.0502" y="-541.5" font-family="Times,serif" font-size="14.00" fill="#000000">StandardToken</text>
<polyline fill="none" stroke="#000000" points="409.7075,-533.3 816.3929,-533.3 "/>
<text text-anchor="start" x="417.7075" y="-516.7" font-family="Times,serif" font-size="14.00" fill="#000000">Internal:</text>
<text text-anchor="start" x="417.7075" y="-499.9" font-family="Times,serif" font-size="14.00" fill="#000000"> &#160;&#160;allowed: mapping(address=&gt;mapping(address=&gt;uint256))</text>
<polyline fill="none" stroke="#000000" points="409.7075,-491.7 816.3929,-491.7 "/>
<text text-anchor="start" x="417.7075" y="-475.1" font-family="Times,serif" font-size="14.00" fill="#000000">Public:</text>
<text text-anchor="start" x="417.7075" y="-458.3" font-family="Times,serif" font-size="14.00" fill="#000000"> &#160;&#160;&#160;transferFrom(_from: address, _to: address, _value: uint256): bool</text>
<text text-anchor="start" x="417.7075" y="-441.5" font-family="Times,serif" font-size="14.00" fill="#000000"> &#160;&#160;&#160;approve(_spender: address, _value: uint256): bool</text>
<text text-anchor="start" x="417.7075" y="-424.7" font-family="Times,serif" font-size="14.00" fill="#000000"> &#160;&#160;&#160;allowance(_owner: address, _spender: address): uint256</text>
<text text-anchor="start" x="417.7075" y="-407.9" font-family="Times,serif" font-size="14.00" fill="#000000"> &#160;&#160;&#160;increaseApproval(_spender: address, _addedValue: uint): bool</text>
<text text-anchor="start" x="417.7075" y="-391.1" font-family="Times,serif" font-size="14.00" fill="#000000"> &#160;&#160;&#160;decreaseApproval(_spender: address, _subtractedValue: uint): bool</text>
</g>
<!-- 6&#45;&gt;2 -->
<g id="edge5" class="edge">
<title>6&#45;&gt;2</title>
<path fill="none" stroke="#000000" d="M574.9662,-558.3416C572.4872,-564.0595 569.9766,-569.8503 567.4643,-575.6449"/>
<polygon fill="none" stroke="#000000" points="557.7257,-571.7105 555.4259,-603.4117 576.9929,-580.0639 557.7257,-571.7105"/>
</g>
<!-- 6&#45;&gt;5 -->
<g id="edge6" class="edge">
<title>6&#45;&gt;5</title>
<path fill="none" stroke="#000000" d="M409.4136,-548.5981C375.84,-562.4131 341.2209,-577.2174 303.5835,-594.4786"/>
<polygon fill="none" stroke="#000000" points="299.0883,-584.9892 276.322,-607.1691 307.9508,-604.0275 299.0883,-584.9892"/>
</g>
<!-- 7 -->
<g id="node8" class="node">
<title>7</title>
<polygon fill="#f2f2f2" stroke="#000000" points="467.3637,-162.3 467.3637,-337.5 758.7367,-337.5 758.7367,-162.3 467.3637,-162.3"/>
<text text-anchor="middle" x="613.0502" y="-320.9" font-family="Times,serif" font-size="14.00" fill="#000000">MintableToken</text>
<polyline fill="none" stroke="#000000" points="467.3637,-312.7 758.7367,-312.7 "/>
<text text-anchor="start" x="475.3637" y="-296.1" font-family="Times,serif" font-size="14.00" fill="#000000">Public:</text>
<text text-anchor="start" x="475.3637" y="-279.3" font-family="Times,serif" font-size="14.00" fill="#000000"> &#160;&#160;mintingFinished: bool</text>
<polyline fill="none" stroke="#000000" points="467.3637,-271.1 758.7367,-271.1 "/>
<text text-anchor="start" x="475.3637" y="-254.5" font-family="Times,serif" font-size="14.00" fill="#000000">Public:</text>
<text text-anchor="start" x="475.3637" y="-237.7" font-family="Times,serif" font-size="14.00" fill="#000000"> &#160;&#160;&#160;&lt;&lt;event&gt;&gt; Mint(to: address, amount: uint256)</text>
<text text-anchor="start" x="475.3637" y="-220.9" font-family="Times,serif" font-size="14.00" fill="#000000"> &#160;&#160;&#160;&lt;&lt;event&gt;&gt; MintFinished()</text>
<text text-anchor="start" x="475.3637" y="-204.1" font-family="Times,serif" font-size="14.00" fill="#000000"> &#160;&#160;&#160;&lt;&lt;modifier&gt;&gt; canMint()</text>
<text text-anchor="start" x="475.3637" y="-187.3" font-family="Times,serif" font-size="14.00" fill="#000000"> &#160;&#160;&#160;mint(_to: address, _amount: uint256): bool</text>
<text text-anchor="start" x="475.3637" y="-170.5" font-family="Times,serif" font-size="14.00" fill="#000000"> &#160;&#160;&#160;finishMinting(): bool</text>
</g>
<!-- 7&#45;&gt;3 -->
<g id="edge8" class="edge">
<title>7&#45;&gt;3</title>
<path fill="none" stroke="#000000" d="M758.9503,-334.1056C794.7563,-355.0053 823.4638,-372.0778 825.0502,-374 882.939,-444.1434 844.5313,-490.0771 893.0502,-567 895.7626,-571.3004 898.6619,-575.5643 901.7085,-579.7759"/>
<polygon fill="none" stroke="#000000" points="893.54,-586.3735 920.4964,-603.2142 909.9256,-573.239 893.54,-586.3735"/>
</g>
<!-- 7&#45;&gt;6 -->
<g id="edge7" class="edge">
<title>7&#45;&gt;6</title>
<path fill="none" stroke="#000000" d="M613.0502,-337.7208C613.0502,-342.5701 613.0502,-347.4799 613.0502,-352.4106"/>
<polygon fill="none" stroke="#000000" points="602.5503,-352.6209 613.0502,-382.621 623.5503,-352.621 602.5503,-352.6209"/>
</g>
<!-- 8 -->
<g id="node9" class="node">
<title>8</title>
<polygon fill="#f2f2f2" stroke="#000000" points="776.3628,-170.7 776.3628,-329.1 1241.7376,-329.1 1241.7376,-170.7 776.3628,-170.7"/>
<text text-anchor="middle" x="1009.0502" y="-312.5" font-family="Times,serif" font-size="14.00" fill="#000000">PausableToken</text>
<polyline fill="none" stroke="#000000" points="776.3628,-304.3 1241.7376,-304.3 "/>
<text text-anchor="middle" x="1009.0502" y="-287.7" font-family="Times,serif" font-size="14.00" fill="#000000"> </text>
<polyline fill="none" stroke="#000000" points="776.3628,-279.5 1241.7376,-279.5 "/>
<text text-anchor="start" x="784.3628" y="-262.9" font-family="Times,serif" font-size="14.00" fill="#000000">Public:</text>
<text text-anchor="start" x="784.3628" y="-246.1" font-family="Times,serif" font-size="14.00" fill="#000000"> &#160;&#160;&#160;transfer(_to: address, _value: uint256): bool</text>
<text text-anchor="start" x="784.3628" y="-229.3" font-family="Times,serif" font-size="14.00" fill="#000000"> &#160;&#160;&#160;transferFrom(_from: address, _to: address, _value: uint256): bool</text>
<text text-anchor="start" x="784.3628" y="-212.5" font-family="Times,serif" font-size="14.00" fill="#000000"> &#160;&#160;&#160;approve(_spender: address, _value: uint256): bool</text>
<text text-anchor="start" x="784.3628" y="-195.7" font-family="Times,serif" font-size="14.00" fill="#000000"> &#160;&#160;&#160;increaseApproval(_spender: address, _addedValue: uint): (success: bool)</text>
<text text-anchor="start" x="784.3628" y="-178.9" font-family="Times,serif" font-size="14.00" fill="#000000"> &#160;&#160;&#160;decreaseApproval(_spender: address, _subtractedValue: uint): (success: bool)</text>
</g>
<!-- 8&#45;&gt;4 -->
<g id="edge10" class="edge">
<title>8&#45;&gt;4</title>
<path fill="none" stroke="#000000" d="M1009.0502,-329.23C1009.0502,-334.1265 1009.0502,-339.1117 1009.0502,-344.1424"/>
<polygon fill="none" stroke="#000000" points="998.5503,-344.1766 1009.0502,-374.1766 1019.5503,-344.1766 998.5503,-344.1766"/>
</g>
<!-- 8&#45;&gt;6 -->
<g id="edge9" class="edge">
<title>8&#45;&gt;6</title>
<path fill="none" stroke="#000000" d="M866.6446,-329.23C844.0092,-341.8395 820.319,-355.0366 796.8944,-368.0858"/>
<polygon fill="none" stroke="#000000" points="791.7284,-358.9442 770.6305,-382.7166 801.9482,-377.2897 791.7284,-358.9442"/>
</g>
<!-- 9 -->
<g id="node10" class="node">
<title>9</title>
<polygon fill="#f2f2f2" stroke="#000000" points="747.8342,-.5 747.8342,-125.3 874.2662,-125.3 874.2662,-.5 747.8342,-.5"/>
<text text-anchor="middle" x="811.0502" y="-108.7" font-family="Times,serif" font-size="14.00" fill="#000000">MedXToken</text>
<polyline fill="none" stroke="#000000" points="747.8342,-100.5 874.2662,-100.5 "/>
<text text-anchor="start" x="755.8342" y="-83.9" font-family="Times,serif" font-size="14.00" fill="#000000">Public:</text>
<text text-anchor="start" x="755.8342" y="-67.1" font-family="Times,serif" font-size="14.00" fill="#000000"> &#160;&#160;name: string</text>
<text text-anchor="start" x="755.8342" y="-50.3" font-family="Times,serif" font-size="14.00" fill="#000000"> &#160;&#160;symbol: string</text>
<text text-anchor="start" x="755.8342" y="-33.5" font-family="Times,serif" font-size="14.00" fill="#000000"> &#160;&#160;decimals: uint256</text>
<polyline fill="none" stroke="#000000" points="747.8342,-25.3 874.2662,-25.3 "/>
<text text-anchor="middle" x="811.0502" y="-8.7" font-family="Times,serif" font-size="14.00" fill="#000000"> </text>
</g>
<!-- 9&#45;&gt;7 -->
<g id="edge12" class="edge">
<title>9&#45;&gt;7</title>
<path fill="none" stroke="#000000" d="M747.5848,-122.8396C741.2778,-128.7962 734.749,-134.9623 728.1214,-141.2216"/>
<polygon fill="none" stroke="#000000" points="720.6898,-133.7977 706.0889,-162.0301 735.1089,-149.065 720.6898,-133.7977"/>
</g>
<!-- 9&#45;&gt;8 -->
<g id="edge11" class="edge">
<title>9&#45;&gt;8</title>
<path fill="none" stroke="#000000" d="M874.5156,-122.8396C883.6761,-131.4911 893.3045,-140.5846 903.0237,-149.7639"/>
<polygon fill="none" stroke="#000000" points="895.9651,-157.5401 924.9851,-170.5051 910.3842,-142.2728 895.9651,-157.5401"/>
</g>
</g>
</svg>
