<?xml version="1.0" encoding="UTF-8" standalone="no"?>
<!DOCTYPE svg PUBLIC "-//W3C//DTD SVG 1.1//EN"
 "http://www.w3.org/Graphics/SVG/1.1/DTD/svg11.dtd">
<!-- Generated by graphviz version 2.40.1 (20161225.0304)
 -->
<!-- Title: UmlClassDiagram Pages: 1 -->
<svg width="1619pt" height="2186pt"
 viewBox="0.00 0.00 1619.43 2186.00" xmlns="http://www.w3.org/2000/svg" xmlns:xlink="http://www.w3.org/1999/xlink">
<g id="graph0" class="graph" transform="scale(1 1) rotate(0) translate(4 2182)">
<title>UmlClassDiagram</title>
<polygon fill="#ffffff" stroke="transparent" points="-4,4 -4,-2182 1615.4286,-2182 1615.4286,4 -4,4"/>
<!-- 6 -->
<g id="node1" class="node">
<title>6</title>
<polygon fill="#f2f2f2" stroke="#000000" points="612.6017,-1840.5 612.6017,-1965.3 910.4231,-1965.3 910.4231,-1840.5 612.6017,-1840.5"/>
<text text-anchor="middle" x="761.5124" y="-1948.7" font-family="Times,serif" font-size="14.00" fill="#000000">BasicToken</text>
<polyline fill="none" stroke="#000000" points="612.6017,-1940.5 910.4231,-1940.5 "/>
<text text-anchor="start" x="620.6017" y="-1923.9" font-family="Times,serif" font-size="14.00" fill="#000000">Public:</text>
<text text-anchor="start" x="620.6017" y="-1907.1" font-family="Times,serif" font-size="14.00" fill="#000000"> &#160;&#160;balances: mapping(address=&gt;uint256)</text>
<polyline fill="none" stroke="#000000" points="612.6017,-1898.9 910.4231,-1898.9 "/>
<text text-anchor="start" x="620.6017" y="-1882.3" font-family="Times,serif" font-size="14.00" fill="#000000">Public:</text>
<text text-anchor="start" x="620.6017" y="-1865.5" font-family="Times,serif" font-size="14.00" fill="#000000"> &#160;&#160;&#160;transfer(_to: address, _value: uint256): bool</text>
<text text-anchor="start" x="620.6017" y="-1848.7" font-family="Times,serif" font-size="14.00" fill="#000000"> &#160;&#160;&#160;balanceOf(_owner: address): (balance: uint256)</text>
</g>
<!-- 0 -->
<g id="node2" class="node">
<title>0</title>
<polygon fill="#f2f2f2" stroke="#000000" points="1379.5962,-2019.1 1379.5962,-2177.5 1611.4286,-2177.5 1611.4286,-2019.1 1379.5962,-2019.1"/>
<text text-anchor="middle" x="1495.5124" y="-2160.9" font-family="Times,serif" font-size="14.00" fill="#000000">&lt;&lt;Library&gt;&gt;</text>
<text text-anchor="middle" x="1495.5124" y="-2144.1" font-family="Times,serif" font-size="14.00" fill="#000000">SafeMath</text>
<polyline fill="none" stroke="#000000" points="1379.5962,-2135.9 1611.4286,-2135.9 "/>
<text text-anchor="middle" x="1495.5124" y="-2119.3" font-family="Times,serif" font-size="14.00" fill="#000000"> </text>
<polyline fill="none" stroke="#000000" points="1379.5962,-2111.1 1611.4286,-2111.1 "/>
<text text-anchor="start" x="1387.5962" y="-2094.5" font-family="Times,serif" font-size="14.00" fill="#000000">Internal:</text>
<text text-anchor="start" x="1387.5962" y="-2077.7" font-family="Times,serif" font-size="14.00" fill="#000000"> &#160;&#160;&#160;mul(a: uint256, b: uint256): uint256</text>
<text text-anchor="start" x="1387.5962" y="-2060.9" font-family="Times,serif" font-size="14.00" fill="#000000"> &#160;&#160;&#160;div(a: uint256, b: uint256): uint256</text>
<text text-anchor="start" x="1387.5962" y="-2044.1" font-family="Times,serif" font-size="14.00" fill="#000000"> &#160;&#160;&#160;sub(a: uint256, b: uint256): uint256</text>
<text text-anchor="start" x="1387.5962" y="-2027.3" font-family="Times,serif" font-size="14.00" fill="#000000"> &#160;&#160;&#160;add(a: uint256, b: uint256): uint256</text>
</g>
<!-- 6&#45;&gt;0 -->
<g id="edge3" class="edge">
<title>6&#45;&gt;0</title>
<path fill="none" stroke="#000000" stroke-dasharray="5,2" d="M910.4904,-1942.5598C1045.5661,-1978.5187 1242.4521,-2030.9322 1369.7752,-2064.8272"/>
<polygon fill="#000000" stroke="#000000" points="1369.0185,-2068.2476 1379.5823,-2067.438 1370.8193,-2061.4831 1369.0185,-2068.2476"/>
</g>
<!-- 1 -->
<g id="node7" class="node">
<title>1</title>
<polygon fill="#f2f2f2" stroke="#000000" points="175.782,-2019.1 175.782,-2177.5 559.2428,-2177.5 559.2428,-2019.1 175.782,-2019.1"/>
<text text-anchor="middle" x="367.5124" y="-2160.9" font-family="Times,serif" font-size="14.00" fill="#000000">&lt;&lt;Abstract&gt;&gt;</text>
<text text-anchor="middle" x="367.5124" y="-2144.1" font-family="Times,serif" font-size="14.00" fill="#000000">ERC20Basic</text>
<polyline fill="none" stroke="#000000" points="175.782,-2135.9 559.2428,-2135.9 "/>
<text text-anchor="start" x="183.782" y="-2119.3" font-family="Times,serif" font-size="14.00" fill="#000000">Public:</text>
<text text-anchor="start" x="183.782" y="-2102.5" font-family="Times,serif" font-size="14.00" fill="#000000"> &#160;&#160;totalSupply: uint256</text>
<polyline fill="none" stroke="#000000" points="175.782,-2094.3 559.2428,-2094.3 "/>
<text text-anchor="start" x="183.782" y="-2077.7" font-family="Times,serif" font-size="14.00" fill="#000000">Public:</text>
<text text-anchor="start" x="183.782" y="-2060.9" font-family="Times,serif" font-size="14.00" fill="#000000"> &#160;&#160;&#160;&lt;&lt;abstract&gt;&gt; balanceOf(who: address): uint256</text>
<text text-anchor="start" x="183.782" y="-2044.1" font-family="Times,serif" font-size="14.00" fill="#000000"> &#160;&#160;&#160;&lt;&lt;abstract&gt;&gt; transfer(to: address, value: uint256): bool</text>
<text text-anchor="start" x="183.782" y="-2027.3" font-family="Times,serif" font-size="14.00" fill="#000000"> &#160;&#160;&#160;&lt;&lt;event&gt;&gt; Transfer(from: address, to: address, value: uint256)</text>
</g>
<!-- 6&#45;&gt;1 -->
<g id="edge2" class="edge">
<title>6&#45;&gt;1</title>
<path fill="none" stroke="#000000" d="M637.8089,-1965.4681C626.2238,-1971.277 614.6534,-1977.0593 603.5124,-1982.6 588.3588,-1990.1362 572.6426,-1997.9172 556.8447,-2005.714"/>
<polygon fill="none" stroke="#000000" points="552.084,-1996.3543 529.8137,-2019.0322 561.3654,-2015.1919 552.084,-1996.3543"/>
</g>
<!-- 2 -->
<g id="node3" class="node">
<title>2</title>
<polygon fill="#f2f2f2" stroke="#000000" points="140.2003,-1823.7 140.2003,-1982.1 594.8245,-1982.1 594.8245,-1823.7 140.2003,-1823.7"/>
<text text-anchor="middle" x="367.5124" y="-1965.5" font-family="Times,serif" font-size="14.00" fill="#000000">&lt;&lt;Abstract&gt;&gt;</text>
<text text-anchor="middle" x="367.5124" y="-1948.7" font-family="Times,serif" font-size="14.00" fill="#000000">ERC20</text>
<polyline fill="none" stroke="#000000" points="140.2003,-1940.5 594.8245,-1940.5 "/>
<text text-anchor="middle" x="367.5124" y="-1923.9" font-family="Times,serif" font-size="14.00" fill="#000000"> </text>
<polyline fill="none" stroke="#000000" points="140.2003,-1915.7 594.8245,-1915.7 "/>
<text text-anchor="start" x="148.2003" y="-1899.1" font-family="Times,serif" font-size="14.00" fill="#000000">Public:</text>
<text text-anchor="start" x="148.2003" y="-1882.3" font-family="Times,serif" font-size="14.00" fill="#000000"> &#160;&#160;&#160;&lt;&lt;abstract&gt;&gt; allowance(owner: address, spender: address): uint256</text>
<text text-anchor="start" x="148.2003" y="-1865.5" font-family="Times,serif" font-size="14.00" fill="#000000"> &#160;&#160;&#160;&lt;&lt;abstract&gt;&gt; transferFrom(from: address, to: address, value: uint256): bool</text>
<text text-anchor="start" x="148.2003" y="-1848.7" font-family="Times,serif" font-size="14.00" fill="#000000"> &#160;&#160;&#160;&lt;&lt;abstract&gt;&gt; approve(spender: address, value: uint256): bool</text>
<text text-anchor="start" x="148.2003" y="-1831.9" font-family="Times,serif" font-size="14.00" fill="#000000"> &#160;&#160;&#160;&lt;&lt;event&gt;&gt; Approval(owner: address, spender: address, value: uint256)</text>
</g>
<!-- 2&#45;&gt;1 -->
<g id="edge4" class="edge">
<title>2&#45;&gt;1</title>
<path fill="none" stroke="#000000" d="M367.5124,-1982.3767C367.5124,-1984.4469 367.5124,-1986.5285 367.5124,-1988.6175"/>
<polygon fill="none" stroke="#000000" points="357.0125,-1988.8937 367.5124,-2018.8938 378.0125,-1988.8938 357.0125,-1988.8937"/>
</g>
<!-- 3 -->
<g id="node4" class="node">
<title>3</title>
<polygon fill="#f2f2f2" stroke="#000000" points="82.6862,-1628.3 82.6862,-1769.9 540.3386,-1769.9 540.3386,-1628.3 82.6862,-1628.3"/>
<text text-anchor="middle" x="311.5124" y="-1753.3" font-family="Times,serif" font-size="14.00" fill="#000000">&lt;&lt;Library&gt;&gt;</text>
<text text-anchor="middle" x="311.5124" y="-1736.5" font-family="Times,serif" font-size="14.00" fill="#000000">SafeERC20</text>
<polyline fill="none" stroke="#000000" points="82.6862,-1728.3 540.3386,-1728.3 "/>
<text text-anchor="middle" x="311.5124" y="-1711.7" font-family="Times,serif" font-size="14.00" fill="#000000"> </text>
<polyline fill="none" stroke="#000000" points="82.6862,-1703.5 540.3386,-1703.5 "/>
<text text-anchor="start" x="90.6862" y="-1686.9" font-family="Times,serif" font-size="14.00" fill="#000000">Internal:</text>
<text text-anchor="start" x="90.6862" y="-1670.1" font-family="Times,serif" font-size="14.00" fill="#000000"> &#160;&#160;&#160;safeTransfer(token: ERC20Basic, to: address, value: uint256)</text>
<text text-anchor="start" x="90.6862" y="-1653.3" font-family="Times,serif" font-size="14.00" fill="#000000"> &#160;&#160;&#160;safeTransferFrom(token: ERC20, from: address, to: address, value: uint256)</text>
<text text-anchor="start" x="90.6862" y="-1636.5" font-family="Times,serif" font-size="14.00" fill="#000000"> &#160;&#160;&#160;safeApprove(token: ERC20, spender: address, value: uint256)</text>
</g>
<!-- 3&#45;&gt;2 -->
<g id="edge6" class="edge">
<title>3&#45;&gt;2</title>
<path fill="none" stroke="#000000" stroke-dasharray="5,2" d="M331.0199,-1770.0933C334.8669,-1784.0938 338.9502,-1798.954 342.9393,-1813.4715"/>
<polygon fill="#000000" stroke="#000000" points="339.6573,-1814.7372 345.6819,-1823.4525 346.4071,-1812.8825 339.6573,-1814.7372"/>
</g>
<!-- 3&#45;&gt;1 -->
<g id="edge5" class="edge">
<title>3&#45;&gt;1</title>
<path fill="none" stroke="#000000" stroke-dasharray="5,2" d="M175.6015,-1770.1122C157.8738,-1785.2167 142.1899,-1802.8692 131.5124,-1823.2 98.5722,-1885.9207 94.0317,-1922.4823 131.5124,-1982.6 141.1878,-1998.1191 153.618,-2011.6147 167.7033,-2023.3401"/>
<polygon fill="#000000" stroke="#000000" points="165.6813,-2026.2035 175.6918,-2029.6737 170.0302,-2020.7183 165.6813,-2026.2035"/>
</g>
<!-- 4 -->
<g id="node5" class="node">
<title>4</title>
<polygon fill="#f2f2f2" stroke="#000000" points="267.1007,-800.7 267.1007,-1278.3 601.9241,-1278.3 601.9241,-800.7 267.1007,-800.7"/>
<text text-anchor="middle" x="434.5124" y="-1261.7" font-family="Times,serif" font-size="14.00" fill="#000000">CrowdsaleConfig</text>
<polyline fill="none" stroke="#000000" points="267.1007,-1253.5 601.9241,-1253.5 "/>
<text text-anchor="start" x="275.1007" y="-1236.9" font-family="Times,serif" font-size="14.00" fill="#000000">Public:</text>
<text text-anchor="start" x="275.1007" y="-1220.1" font-family="Times,serif" font-size="14.00" fill="#000000"> &#160;&#160;TOKEN_DECIMALS: uint256</text>
<text text-anchor="start" x="275.1007" y="-1203.3" font-family="Times,serif" font-size="14.00" fill="#000000"> &#160;&#160;MIN_TOKEN_UNIT: uint256</text>
<text text-anchor="start" x="275.1007" y="-1186.5" font-family="Times,serif" font-size="14.00" fill="#000000"> &#160;&#160;TOTAL_SUPPLY_CAP: uint256</text>
<text text-anchor="start" x="275.1007" y="-1169.7" font-family="Times,serif" font-size="14.00" fill="#000000"> &#160;&#160;SALE_CAP: uint256</text>
<text text-anchor="start" x="275.1007" y="-1152.9" font-family="Times,serif" font-size="14.00" fill="#000000"> &#160;&#160;PURCHASER_MIN_TOKEN_CAP: uint256</text>
<text text-anchor="start" x="275.1007" y="-1136.1" font-family="Times,serif" font-size="14.00" fill="#000000"> &#160;&#160;PURCHASER_MAX_TOKEN_CAP_DAY1: uint256</text>
<text text-anchor="start" x="275.1007" y="-1119.3" font-family="Times,serif" font-size="14.00" fill="#000000"> &#160;&#160;PURCHASER_MAX_TOKEN_CAP: uint256</text>
<text text-anchor="start" x="275.1007" y="-1102.5" font-family="Times,serif" font-size="14.00" fill="#000000"> &#160;&#160;FOUNDATION_POOL_TOKENS: uint256</text>
<text text-anchor="start" x="275.1007" y="-1085.7" font-family="Times,serif" font-size="14.00" fill="#000000"> &#160;&#160;FOUNDATION_POOL_TOKENS_VESTED: uint256</text>
<text text-anchor="start" x="275.1007" y="-1068.9" font-family="Times,serif" font-size="14.00" fill="#000000"> &#160;&#160;COMMUNITY_POOL_TOKENS: uint256</text>
<text text-anchor="start" x="275.1007" y="-1052.1" font-family="Times,serif" font-size="14.00" fill="#000000"> &#160;&#160;FOUNDERS_TOKENS: uint256</text>
<text text-anchor="start" x="275.1007" y="-1035.3" font-family="Times,serif" font-size="14.00" fill="#000000"> &#160;&#160;FOUNDERS_TOKENS_VESTED_1: uint256</text>
<text text-anchor="start" x="275.1007" y="-1018.5" font-family="Times,serif" font-size="14.00" fill="#000000"> &#160;&#160;FOUNDERS_TOKENS_VESTED_2: uint256</text>
<text text-anchor="start" x="275.1007" y="-1001.7" font-family="Times,serif" font-size="14.00" fill="#000000"> &#160;&#160;LEGAL_EXPENSES_1_TOKENS: uint256</text>
<text text-anchor="start" x="275.1007" y="-984.9" font-family="Times,serif" font-size="14.00" fill="#000000"> &#160;&#160;LEGAL_EXPENSES_2_TOKENS: uint256</text>
<text text-anchor="start" x="275.1007" y="-968.1" font-family="Times,serif" font-size="14.00" fill="#000000"> &#160;&#160;TOKEN_PRICE_THOUSANDTH: uint256</text>
<text text-anchor="start" x="275.1007" y="-951.3" font-family="Times,serif" font-size="14.00" fill="#000000"> &#160;&#160;CROWDSALE_WALLET_ADDR: address</text>
<text text-anchor="start" x="275.1007" y="-934.5" font-family="Times,serif" font-size="14.00" fill="#000000"> &#160;&#160;FOUNDATION_POOL_ADDR: address</text>
<text text-anchor="start" x="275.1007" y="-917.7" font-family="Times,serif" font-size="14.00" fill="#000000"> &#160;&#160;FOUNDATION_POOL_ADDR_VEST: address</text>
<text text-anchor="start" x="275.1007" y="-900.9" font-family="Times,serif" font-size="14.00" fill="#000000"> &#160;&#160;COMMUNITY_POOL_ADDR: address</text>
<text text-anchor="start" x="275.1007" y="-884.1" font-family="Times,serif" font-size="14.00" fill="#000000"> &#160;&#160;FOUNDERS_POOL_ADDR: address</text>
<text text-anchor="start" x="275.1007" y="-867.3" font-family="Times,serif" font-size="14.00" fill="#000000"> &#160;&#160;LEGAL_EXPENSES_ADDR_1: address</text>
<text text-anchor="start" x="275.1007" y="-850.5" font-family="Times,serif" font-size="14.00" fill="#000000"> &#160;&#160;LEGAL_EXPENSES_ADDR_2: address</text>
<text text-anchor="start" x="275.1007" y="-833.7" font-family="Times,serif" font-size="14.00" fill="#000000"> &#160;&#160;PRECOMMITMENT_VESTING_SECONDS: uint64</text>
<polyline fill="none" stroke="#000000" points="267.1007,-825.5 601.9241,-825.5 "/>
<text text-anchor="middle" x="434.5124" y="-808.9" font-family="Times,serif" font-size="14.00" fill="#000000"> </text>
</g>
<!-- 5 -->
<g id="node6" class="node">
<title>5</title>
<polygon fill="#f2f2f2" stroke="#000000" points="983.0754,-1619.9 983.0754,-1778.3 1467.9494,-1778.3 1467.9494,-1619.9 983.0754,-1619.9"/>
<text text-anchor="middle" x="1225.5124" y="-1761.7" font-family="Times,serif" font-size="14.00" fill="#000000">Ownable</text>
<polyline fill="none" stroke="#000000" points="983.0754,-1753.5 1467.9494,-1753.5 "/>
<text text-anchor="start" x="991.0754" y="-1736.9" font-family="Times,serif" font-size="14.00" fill="#000000">Public:</text>
<text text-anchor="start" x="991.0754" y="-1720.1" font-family="Times,serif" font-size="14.00" fill="#000000"> &#160;&#160;owner: address</text>
<polyline fill="none" stroke="#000000" points="983.0754,-1711.9 1467.9494,-1711.9 "/>
<text text-anchor="start" x="991.0754" y="-1695.3" font-family="Times,serif" font-size="14.00" fill="#000000">Public:</text>
<text text-anchor="start" x="991.0754" y="-1678.5" font-family="Times,serif" font-size="14.00" fill="#000000"> &#160;&#160;&#160;&lt;&lt;event&gt;&gt; OwnershipTransferred(previousOwner: address, newOwner: address)</text>
<text text-anchor="start" x="991.0754" y="-1661.7" font-family="Times,serif" font-size="14.00" fill="#000000"> &#160;&#160;&#160;&lt;&lt;modifier&gt;&gt; onlyOwner()</text>
<text text-anchor="start" x="991.0754" y="-1644.9" font-family="Times,serif" font-size="14.00" fill="#000000"> &#160;&#160;&#160;constructor()</text>
<text text-anchor="start" x="991.0754" y="-1628.1" font-family="Times,serif" font-size="14.00" fill="#000000"> &#160;&#160;&#160;transferOwnership(newOwner: address)</text>
</g>
<!-- 7 -->
<g id="node8" class="node">
<title>7</title>
<polygon fill="#f2f2f2" stroke="#000000" points="558.1697,-1611.5 558.1697,-1786.7 964.8551,-1786.7 964.8551,-1611.5 558.1697,-1611.5"/>
<text text-anchor="middle" x="761.5124" y="-1770.1" font-family="Times,serif" font-size="14.00" fill="#000000">StandardToken</text>
<polyline fill="none" stroke="#000000" points="558.1697,-1761.9 964.8551,-1761.9 "/>
<text text-anchor="start" x="566.1697" y="-1745.3" font-family="Times,serif" font-size="14.00" fill="#000000">Internal:</text>
<text text-anchor="start" x="566.1697" y="-1728.5" font-family="Times,serif" font-size="14.00" fill="#000000"> &#160;&#160;allowed: mapping(address=&gt;mapping(address=&gt;uint256))</text>
<polyline fill="none" stroke="#000000" points="558.1697,-1720.3 964.8551,-1720.3 "/>
<text text-anchor="start" x="566.1697" y="-1703.7" font-family="Times,serif" font-size="14.00" fill="#000000">Public:</text>
<text text-anchor="start" x="566.1697" y="-1686.9" font-family="Times,serif" font-size="14.00" fill="#000000"> &#160;&#160;&#160;transferFrom(_from: address, _to: address, _value: uint256): bool</text>
<text text-anchor="start" x="566.1697" y="-1670.1" font-family="Times,serif" font-size="14.00" fill="#000000"> &#160;&#160;&#160;approve(_spender: address, _value: uint256): bool</text>
<text text-anchor="start" x="566.1697" y="-1653.3" font-family="Times,serif" font-size="14.00" fill="#000000"> &#160;&#160;&#160;allowance(_owner: address, _spender: address): uint256</text>
<text text-anchor="start" x="566.1697" y="-1636.5" font-family="Times,serif" font-size="14.00" fill="#000000"> &#160;&#160;&#160;increaseApproval(_spender: address, _addedValue: uint): bool</text>
<text text-anchor="start" x="566.1697" y="-1619.7" font-family="Times,serif" font-size="14.00" fill="#000000"> &#160;&#160;&#160;decreaseApproval(_spender: address, _subtractedValue: uint): bool</text>
</g>
<!-- 7&#45;&gt;6 -->
<g id="edge8" class="edge">
<title>7&#45;&gt;6</title>
<path fill="none" stroke="#000000" d="M761.5124,-1786.7123C761.5124,-1794.4538 761.5124,-1802.3076 761.5124,-1810.0901"/>
<polygon fill="none" stroke="#000000" points="751.0125,-1810.2727 761.5124,-1840.2728 772.0125,-1810.2728 751.0125,-1810.2727"/>
</g>
<!-- 7&#45;&gt;2 -->
<g id="edge7" class="edge">
<title>7&#45;&gt;2</title>
<path fill="none" stroke="#000000" d="M592.1344,-1786.7123C577.4314,-1794.3175 562.5191,-1802.031 547.7338,-1809.6789"/>
<polygon fill="none" stroke="#000000" points="542.7142,-1800.4538 520.8919,-1823.5631 552.3623,-1819.1062 542.7142,-1800.4538"/>
</g>
<!-- 8 -->
<g id="node9" class="node">
<title>8</title>
<polygon fill="#f2f2f2" stroke="#000000" points="710.8259,-1357.3 710.8259,-1532.5 1002.1989,-1532.5 1002.1989,-1357.3 710.8259,-1357.3"/>
<text text-anchor="middle" x="856.5124" y="-1515.9" font-family="Times,serif" font-size="14.00" fill="#000000">MintableToken</text>
<polyline fill="none" stroke="#000000" points="710.8259,-1507.7 1002.1989,-1507.7 "/>
<text text-anchor="start" x="718.8259" y="-1491.1" font-family="Times,serif" font-size="14.00" fill="#000000">Public:</text>
<text text-anchor="start" x="718.8259" y="-1474.3" font-family="Times,serif" font-size="14.00" fill="#000000"> &#160;&#160;mintingFinished: bool</text>
<polyline fill="none" stroke="#000000" points="710.8259,-1466.1 1002.1989,-1466.1 "/>
<text text-anchor="start" x="718.8259" y="-1449.5" font-family="Times,serif" font-size="14.00" fill="#000000">Public:</text>
<text text-anchor="start" x="718.8259" y="-1432.7" font-family="Times,serif" font-size="14.00" fill="#000000"> &#160;&#160;&#160;&lt;&lt;event&gt;&gt; Mint(to: address, amount: uint256)</text>
<text text-anchor="start" x="718.8259" y="-1415.9" font-family="Times,serif" font-size="14.00" fill="#000000"> &#160;&#160;&#160;&lt;&lt;event&gt;&gt; MintFinished()</text>
<text text-anchor="start" x="718.8259" y="-1399.1" font-family="Times,serif" font-size="14.00" fill="#000000"> &#160;&#160;&#160;&lt;&lt;modifier&gt;&gt; canMint()</text>
<text text-anchor="start" x="718.8259" y="-1382.3" font-family="Times,serif" font-size="14.00" fill="#000000"> &#160;&#160;&#160;mint(_to: address, _amount: uint256): bool</text>
<text text-anchor="start" x="718.8259" y="-1365.5" font-family="Times,serif" font-size="14.00" fill="#000000"> &#160;&#160;&#160;finishMinting(): bool</text>
</g>
<!-- 8&#45;&gt;5 -->
<g id="edge10" class="edge">
<title>8&#45;&gt;5</title>
<path fill="none" stroke="#000000" d="M983.7596,-1532.5592C1016.5574,-1555.1532 1052.0345,-1579.593 1085.4448,-1602.609"/>
<polygon fill="none" stroke="#000000" points="1079.8504,-1611.5054 1110.5123,-1619.8777 1091.7638,-1594.2117 1079.8504,-1611.5054"/>
</g>
<!-- 8&#45;&gt;7 -->
<g id="edge9" class="edge">
<title>8&#45;&gt;7</title>
<path fill="none" stroke="#000000" d="M823.6858,-1532.7372C817.6415,-1548.9103 811.2458,-1566.0239 804.9462,-1582.8804"/>
<polygon fill="none" stroke="#000000" points="795.007,-1579.4819 794.3403,-1611.2594 814.6782,-1586.8335 795.007,-1579.4819"/>
</g>
<!-- 9 -->
<g id="node10" class="node">
<title>9</title>
<polygon fill="#f2f2f2" stroke="#000000" points="658.0046,-884.7 658.0046,-1194.3 1055.0202,-1194.3 1055.0202,-884.7 658.0046,-884.7"/>
<text text-anchor="middle" x="856.5124" y="-1177.7" font-family="Times,serif" font-size="14.00" fill="#000000">SelfKeyToken</text>
<polyline fill="none" stroke="#000000" points="658.0046,-1169.5 1055.0202,-1169.5 "/>
<text text-anchor="start" x="666.0046" y="-1152.9" font-family="Times,serif" font-size="14.00" fill="#000000">Private:</text>
<text text-anchor="start" x="666.0046" y="-1136.1" font-family="Times,serif" font-size="14.00" fill="#000000"> &#160;&#160;transfersEnabled: bool</text>
<text text-anchor="start" x="666.0046" y="-1119.3" font-family="Times,serif" font-size="14.00" fill="#000000">Public:</text>
<text text-anchor="start" x="666.0046" y="-1102.5" font-family="Times,serif" font-size="14.00" fill="#000000"> &#160;&#160;name: string</text>
<text text-anchor="start" x="666.0046" y="-1085.7" font-family="Times,serif" font-size="14.00" fill="#000000"> &#160;&#160;symbol: string</text>
<text text-anchor="start" x="666.0046" y="-1068.9" font-family="Times,serif" font-size="14.00" fill="#000000"> &#160;&#160;decimals: uint256</text>
<text text-anchor="start" x="666.0046" y="-1052.1" font-family="Times,serif" font-size="14.00" fill="#000000"> &#160;&#160;cap: uint256</text>
<polyline fill="none" stroke="#000000" points="658.0046,-1043.9 1055.0202,-1043.9 "/>
<text text-anchor="start" x="666.0046" y="-1027.3" font-family="Times,serif" font-size="14.00" fill="#000000">Public:</text>
<text text-anchor="start" x="666.0046" y="-1010.5" font-family="Times,serif" font-size="14.00" fill="#000000"> &#160;&#160;&#160;&lt;&lt;event&gt;&gt; Burned(burner: address, value: uint256)</text>
<text text-anchor="start" x="666.0046" y="-993.7" font-family="Times,serif" font-size="14.00" fill="#000000"> &#160;&#160;&#160;&lt;&lt;modifier&gt;&gt; canTransfer(_sender: address, _value: uint256)</text>
<text text-anchor="start" x="666.0046" y="-976.9" font-family="Times,serif" font-size="14.00" fill="#000000"> &#160;&#160;&#160;constructor(_cap: uint256)</text>
<text text-anchor="start" x="666.0046" y="-960.1" font-family="Times,serif" font-size="14.00" fill="#000000"> &#160;&#160;&#160;mint(_to: address, _value: uint256): bool</text>
<text text-anchor="start" x="666.0046" y="-943.3" font-family="Times,serif" font-size="14.00" fill="#000000"> &#160;&#160;&#160;transfer(_to: address, _value: uint256): bool</text>
<text text-anchor="start" x="666.0046" y="-926.5" font-family="Times,serif" font-size="14.00" fill="#000000"> &#160;&#160;&#160;transferFrom(_from: address, _to: address, _value: uint256): bool</text>
<text text-anchor="start" x="666.0046" y="-909.7" font-family="Times,serif" font-size="14.00" fill="#000000"> &#160;&#160;&#160;enableTransfers()</text>
<text text-anchor="start" x="666.0046" y="-892.9" font-family="Times,serif" font-size="14.00" fill="#000000"> &#160;&#160;&#160;burn(_value: uint256)</text>
</g>
<!-- 9&#45;&gt;8 -->
<g id="edge11" class="edge">
<title>9&#45;&gt;8</title>
<path fill="none" stroke="#000000" d="M856.5124,-1194.4996C856.5124,-1238.5147 856.5124,-1285.711 856.5124,-1327.1313"/>
<polygon fill="none" stroke="#000000" points="846.0125,-1327.1824 856.5124,-1357.1824 867.0125,-1327.1825 846.0125,-1327.1824"/>
</g>
<!-- 10 -->
<g id="node11" class="node">
<title>10</title>
<polygon fill="#f2f2f2" stroke="#000000" points="0,-1365.7 0,-1524.1 479.0248,-1524.1 479.0248,-1365.7 0,-1365.7"/>
<text text-anchor="middle" x="239.5124" y="-1507.5" font-family="Times,serif" font-size="14.00" fill="#000000">TokenTimelock</text>
<polyline fill="none" stroke="#000000" points="0,-1499.3 479.0248,-1499.3 "/>
<text text-anchor="start" x="8" y="-1482.7" font-family="Times,serif" font-size="14.00" fill="#000000">Public:</text>
<text text-anchor="start" x="8" y="-1465.9" font-family="Times,serif" font-size="14.00" fill="#000000"> &#160;&#160;token: ERC20Basic</text>
<text text-anchor="start" x="8" y="-1449.1" font-family="Times,serif" font-size="14.00" fill="#000000"> &#160;&#160;beneficiary: address</text>
<text text-anchor="start" x="8" y="-1432.3" font-family="Times,serif" font-size="14.00" fill="#000000"> &#160;&#160;releaseTime: uint256</text>
<polyline fill="none" stroke="#000000" points="0,-1424.1 479.0248,-1424.1 "/>
<text text-anchor="start" x="8" y="-1407.5" font-family="Times,serif" font-size="14.00" fill="#000000">Public:</text>
<text text-anchor="start" x="8" y="-1390.7" font-family="Times,serif" font-size="14.00" fill="#000000"> &#160;&#160;&#160;constructor(_token: ERC20Basic, _beneficiary: address, _releaseTime: uint256)</text>
<text text-anchor="start" x="8" y="-1373.9" font-family="Times,serif" font-size="14.00" fill="#000000"> &#160;&#160;&#160;release()</text>
</g>
<!-- 10&#45;&gt;3 -->
<g id="edge12" class="edge">
<title>10&#45;&gt;3</title>
<path fill="none" stroke="#000000" stroke-dasharray="5,2" d="M261.9975,-1524.2848C270.4495,-1554.1253 280.0643,-1588.0707 288.5584,-1618.0598"/>
<polygon fill="#000000" stroke="#000000" points="285.3,-1619.3991 291.3928,-1628.0667 292.0351,-1617.4914 285.3,-1619.3991"/>
</g>
<!-- 10&#45;&gt;1 -->
<g id="edge13" class="edge">
<title>10&#45;&gt;1</title>
<path fill="none" stroke="#000000" d="M134.8709,-1524.5032C110.0597,-1549.2309 86.925,-1578.6054 73.5124,-1611 10.154,-1764.0259 1.0917,-1850.8923 101.5124,-1982.6 118.9249,-2005.4375 141.7792,-2023.8418 166.7868,-2038.6546"/>
<polygon fill="#000000" stroke="#000000" points="165.2959,-2041.8334 175.7167,-2043.7456 168.7628,-2035.7522 165.2959,-2041.8334"/>
</g>
<!-- 11 -->
<g id="node12" class="node">
<title>11</title>
<polygon fill="#f2f2f2" stroke="#000000" points="1111.1386,-1315.3 1111.1386,-1574.5 1505.8862,-1574.5 1505.8862,-1315.3 1111.1386,-1315.3"/>
<text text-anchor="middle" x="1308.5124" y="-1557.9" font-family="Times,serif" font-size="14.00" fill="#000000">RefundVault</text>
<polyline fill="none" stroke="#000000" points="1111.1386,-1549.7 1505.8862,-1549.7 "/>
<text text-anchor="start" x="1119.1386" y="-1533.1" font-family="Times,serif" font-size="14.00" fill="#000000">Public:</text>
<text text-anchor="start" x="1119.1386" y="-1516.3" font-family="Times,serif" font-size="14.00" fill="#000000"> &#160;&#160;deposited: mapping(address=&gt;uint256)</text>
<text text-anchor="start" x="1119.1386" y="-1499.5" font-family="Times,serif" font-size="14.00" fill="#000000"> &#160;&#160;wallet: address</text>
<text text-anchor="start" x="1119.1386" y="-1482.7" font-family="Times,serif" font-size="14.00" fill="#000000"> &#160;&#160;state: State</text>
<polyline fill="none" stroke="#000000" points="1111.1386,-1474.5 1505.8862,-1474.5 "/>
<text text-anchor="start" x="1119.1386" y="-1457.9" font-family="Times,serif" font-size="14.00" fill="#000000">Public:</text>
<text text-anchor="start" x="1119.1386" y="-1441.1" font-family="Times,serif" font-size="14.00" fill="#000000"> &#160;&#160;&#160;&lt;&lt;payable&gt;&gt; deposit(investor: address)</text>
<text text-anchor="start" x="1119.1386" y="-1424.3" font-family="Times,serif" font-size="14.00" fill="#000000"> &#160;&#160;&#160;&lt;&lt;event&gt;&gt; Closed()</text>
<text text-anchor="start" x="1119.1386" y="-1407.5" font-family="Times,serif" font-size="14.00" fill="#000000"> &#160;&#160;&#160;&lt;&lt;event&gt;&gt; RefundsEnabled()</text>
<text text-anchor="start" x="1119.1386" y="-1390.7" font-family="Times,serif" font-size="14.00" fill="#000000"> &#160;&#160;&#160;&lt;&lt;event&gt;&gt; Refunded(beneficiary: address, weiAmount: uint256)</text>
<text text-anchor="start" x="1119.1386" y="-1373.9" font-family="Times,serif" font-size="14.00" fill="#000000"> &#160;&#160;&#160;constructor(_wallet: address)</text>
<text text-anchor="start" x="1119.1386" y="-1357.1" font-family="Times,serif" font-size="14.00" fill="#000000"> &#160;&#160;&#160;close()</text>
<text text-anchor="start" x="1119.1386" y="-1340.3" font-family="Times,serif" font-size="14.00" fill="#000000"> &#160;&#160;&#160;enableRefunds()</text>
<text text-anchor="start" x="1119.1386" y="-1323.5" font-family="Times,serif" font-size="14.00" fill="#000000"> &#160;&#160;&#160;refund(investor: address)</text>
</g>
<!-- 11&#45;&gt;0 -->
<g id="edge15" class="edge">
<title>11&#45;&gt;0</title>
<path fill="none" stroke="#000000" stroke-dasharray="5,2" d="M1456.0794,-1574.7168C1464.0051,-1586.2991 1470.9722,-1598.4263 1476.5124,-1611 1506.8228,-1679.79 1504.2254,-1887.6123 1499.7894,-2008.489"/>
<polygon fill="#000000" stroke="#000000" points="1496.2788,-2008.7056 1499.3976,-2018.8309 1503.2737,-2008.9706 1496.2788,-2008.7056"/>
</g>
<!-- 11&#45;&gt;5 -->
<g id="edge14" class="edge">
<title>11&#45;&gt;5</title>
<path fill="none" stroke="#000000" d="M1266.1614,-1574.6064C1264.3517,-1580.1489 1262.5441,-1585.6847 1260.7525,-1591.1718"/>
<polygon fill="none" stroke="#000000" points="1250.7315,-1588.0342 1251.4012,-1619.8117 1270.6943,-1594.5524 1250.7315,-1588.0342"/>
</g>
<!-- 11enum0 -->
<g id="node13" class="node">
<title>11enum0</title>
<polygon fill="#f2f2f2" stroke="#000000" points="1269.1706,-989.5 1269.1706,-1089.5 1347.8542,-1089.5 1347.8542,-989.5 1269.1706,-989.5"/>
<text text-anchor="middle" x="1308.5124" y="-1072.9" font-family="Times,serif" font-size="14.00" fill="#000000">&lt;&lt;enum&gt;&gt;</text>
<text text-anchor="middle" x="1308.5124" y="-1056.1" font-family="Times,serif" font-size="14.00" fill="#000000">State</text>
<polyline fill="none" stroke="#000000" points="1269.1706,-1047.9 1347.8542,-1047.9 "/>
<text text-anchor="start" x="1277.1706" y="-1031.3" font-family="Times,serif" font-size="14.00" fill="#000000">Active</text>
<text text-anchor="start" x="1277.1706" y="-1014.5" font-family="Times,serif" font-size="14.00" fill="#000000">Refunding</text>
<text text-anchor="start" x="1277.1706" y="-997.7" font-family="Times,serif" font-size="14.00" fill="#000000">Closed</text>
</g>
<!-- 11enum0&#45;&gt;11 -->
<g id="edge1" class="edge">
<title>11enum0&#45;&gt;11</title>
<path fill="none" stroke="#000000" d="M1308.5124,-1089.6166C1308.5124,-1142.5946 1308.5124,-1228.5792 1308.5124,-1302.6885"/>
<polygon fill="#000000" stroke="#000000" points="1308.5125,-1302.9474 1312.5124,-1308.9474 1308.5124,-1314.9474 1304.5124,-1308.9474 1308.5125,-1302.9474"/>
</g>
<!-- 12 -->
<g id="node14" class="node">
<title>12</title>
<polygon fill="#f2f2f2" stroke="#000000" points="556.1189,-.5 556.1189,-763.7 1156.9059,-763.7 1156.9059,-.5 556.1189,-.5"/>
<text text-anchor="middle" x="856.5124" y="-747.1" font-family="Times,serif" font-size="14.00" fill="#000000">SelfKeyCrowdsale</text>
<polyline fill="none" stroke="#000000" points="556.1189,-738.9 1156.9059,-738.9 "/>
<text text-anchor="start" x="564.1189" y="-722.3" font-family="Times,serif" font-size="14.00" fill="#000000">Public:</text>
<text text-anchor="start" x="564.1189" y="-705.5" font-family="Times,serif" font-size="14.00" fill="#000000"> &#160;&#160;isVerifier: mapping(address=&gt;bool)</text>
<text text-anchor="start" x="564.1189" y="-688.7" font-family="Times,serif" font-size="14.00" fill="#000000"> &#160;&#160;token: SelfKeyToken</text>
<text text-anchor="start" x="564.1189" y="-671.9" font-family="Times,serif" font-size="14.00" fill="#000000"> &#160;&#160;startTime: uint64</text>
<text text-anchor="start" x="564.1189" y="-655.1" font-family="Times,serif" font-size="14.00" fill="#000000"> &#160;&#160;endTime: uint64</text>
<text text-anchor="start" x="564.1189" y="-638.3" font-family="Times,serif" font-size="14.00" fill="#000000"> &#160;&#160;goal: uint256</text>
<text text-anchor="start" x="564.1189" y="-621.5" font-family="Times,serif" font-size="14.00" fill="#000000"> &#160;&#160;rate: uint256</text>
<text text-anchor="start" x="564.1189" y="-604.7" font-family="Times,serif" font-size="14.00" fill="#000000"> &#160;&#160;ethPrice: uint256</text>
<text text-anchor="start" x="564.1189" y="-587.9" font-family="Times,serif" font-size="14.00" fill="#000000"> &#160;&#160;totalPurchased: uint256</text>
<text text-anchor="start" x="564.1189" y="-571.1" font-family="Times,serif" font-size="14.00" fill="#000000"> &#160;&#160;kycVerified: mapping(address=&gt;bool)</text>
<text text-anchor="start" x="564.1189" y="-554.3" font-family="Times,serif" font-size="14.00" fill="#000000"> &#160;&#160;tokensPurchased: mapping(address=&gt;uint256)</text>
<text text-anchor="start" x="564.1189" y="-537.5" font-family="Times,serif" font-size="14.00" fill="#000000"> &#160;&#160;vestedTokens: mapping(address=&gt;address)</text>
<text text-anchor="start" x="564.1189" y="-520.7" font-family="Times,serif" font-size="14.00" fill="#000000"> &#160;&#160;isFinalized: bool</text>
<text text-anchor="start" x="564.1189" y="-503.9" font-family="Times,serif" font-size="14.00" fill="#000000"> &#160;&#160;foundersTimelock1: TokenTimelock</text>
<text text-anchor="start" x="564.1189" y="-487.1" font-family="Times,serif" font-size="14.00" fill="#000000"> &#160;&#160;foundersTimelock2: TokenTimelock</text>
<text text-anchor="start" x="564.1189" y="-470.3" font-family="Times,serif" font-size="14.00" fill="#000000"> &#160;&#160;foundationTimelock: TokenTimelock</text>
<text text-anchor="start" x="564.1189" y="-453.5" font-family="Times,serif" font-size="14.00" fill="#000000"> &#160;&#160;vault: RefundVault</text>
<polyline fill="none" stroke="#000000" points="556.1189,-445.3 1156.9059,-445.3 "/>
<text text-anchor="start" x="564.1189" y="-428.7" font-family="Times,serif" font-size="14.00" fill="#000000">Internal:</text>
<text text-anchor="start" x="564.1189" y="-411.9" font-family="Times,serif" font-size="14.00" fill="#000000"> &#160;&#160;&#160;finalization()</text>
<text text-anchor="start" x="564.1189" y="-395.1" font-family="Times,serif" font-size="14.00" fill="#000000"> &#160;&#160;&#160;buyTokens(participant: address)</text>
<text text-anchor="start" x="564.1189" y="-378.3" font-family="Times,serif" font-size="14.00" fill="#000000"> &#160;&#160;&#160;burnUnsold()</text>
<text text-anchor="start" x="564.1189" y="-361.5" font-family="Times,serif" font-size="14.00" fill="#000000">Public:</text>
<text text-anchor="start" x="564.1189" y="-344.7" font-family="Times,serif" font-size="14.00" fill="#000000"> &#160;&#160;&#160;&lt;&lt;fallback&gt;&gt; ()</text>
<text text-anchor="start" x="564.1189" y="-327.9" font-family="Times,serif" font-size="14.00" fill="#000000"> &#160;&#160;&#160;&lt;&lt;event&gt;&gt; TokenPurchase(purchaser: address, beneficiary: address, value: uint256, amount: uint256)</text>
<text text-anchor="start" x="564.1189" y="-311.1" font-family="Times,serif" font-size="14.00" fill="#000000"> &#160;&#160;&#160;&lt;&lt;event&gt;&gt; AddedPrecommitment(participant: address, tokensAllocated: uint256)</text>
<text text-anchor="start" x="564.1189" y="-294.3" font-family="Times,serif" font-size="14.00" fill="#000000"> &#160;&#160;&#160;&lt;&lt;event&gt;&gt; Finalized()</text>
<text text-anchor="start" x="564.1189" y="-277.5" font-family="Times,serif" font-size="14.00" fill="#000000"> &#160;&#160;&#160;&lt;&lt;event&gt;&gt; VerifiedKYC(participant: address)</text>
<text text-anchor="start" x="564.1189" y="-260.7" font-family="Times,serif" font-size="14.00" fill="#000000"> &#160;&#160;&#160;&lt;&lt;modifier&gt;&gt; verifierOnly()</text>
<text text-anchor="start" x="564.1189" y="-243.9" font-family="Times,serif" font-size="14.00" fill="#000000"> &#160;&#160;&#160;addPrecommitment(beneficiary: address, tokensAllocated: uint256, halfVesting: bool)</text>
<text text-anchor="start" x="564.1189" y="-227.1" font-family="Times,serif" font-size="14.00" fill="#000000"> &#160;&#160;&#160;addVerifier(_address: address)</text>
<text text-anchor="start" x="564.1189" y="-210.3" font-family="Times,serif" font-size="14.00" fill="#000000"> &#160;&#160;&#160;removeVerifier(_address: address)</text>
<text text-anchor="start" x="564.1189" y="-193.5" font-family="Times,serif" font-size="14.00" fill="#000000"> &#160;&#160;&#160;setStartTime(_startTime: uint64)</text>
<text text-anchor="start" x="564.1189" y="-176.7" font-family="Times,serif" font-size="14.00" fill="#000000"> &#160;&#160;&#160;constructor(_startTime: uint64, _endTime: uint64, _goal: uint256)</text>
<text text-anchor="start" x="564.1189" y="-159.9" font-family="Times,serif" font-size="14.00" fill="#000000"> &#160;&#160;&#160;setEthPrice(_ethPrice: uint256)</text>
<text text-anchor="start" x="564.1189" y="-143.1" font-family="Times,serif" font-size="14.00" fill="#000000"> &#160;&#160;&#160;finalize()</text>
<text text-anchor="start" x="564.1189" y="-126.3" font-family="Times,serif" font-size="14.00" fill="#000000"> &#160;&#160;&#160;claimRefund(participant: address)</text>
<text text-anchor="start" x="564.1189" y="-109.5" font-family="Times,serif" font-size="14.00" fill="#000000"> &#160;&#160;&#160;goalReached(): bool</text>
<text text-anchor="start" x="564.1189" y="-92.7" font-family="Times,serif" font-size="14.00" fill="#000000"> &#160;&#160;&#160;releaseLockFounders1()</text>
<text text-anchor="start" x="564.1189" y="-75.9" font-family="Times,serif" font-size="14.00" fill="#000000"> &#160;&#160;&#160;releaseLockFounders2()</text>
<text text-anchor="start" x="564.1189" y="-59.1" font-family="Times,serif" font-size="14.00" fill="#000000"> &#160;&#160;&#160;releaseLockFoundation()</text>
<text text-anchor="start" x="564.1189" y="-42.3" font-family="Times,serif" font-size="14.00" fill="#000000"> &#160;&#160;&#160;releaseLock(participant: address)</text>
<text text-anchor="start" x="564.1189" y="-25.5" font-family="Times,serif" font-size="14.00" fill="#000000"> &#160;&#160;&#160;verifyKYC(participant: address)</text>
<text text-anchor="start" x="564.1189" y="-8.7" font-family="Times,serif" font-size="14.00" fill="#000000"> &#160;&#160;&#160;setEndTime(_endTime: uint64)</text>
</g>
<!-- 12&#45;&gt;0 -->
<g id="edge18" class="edge">
<title>12&#45;&gt;0</title>
<path fill="none" stroke="#000000" stroke-dasharray="5,2" d="M1157.1832,-561.2677C1244.2818,-626.4851 1331.8597,-707.3442 1391.5124,-800.2 1550.0955,-1047.0517 1533.5124,-1151.4986 1533.5124,-1444.9 1533.5124,-1444.9 1533.5124,-1444.9 1533.5124,-1699.1 1533.5124,-1825.3537 1530.2865,-1857.2137 1515.5124,-1982.6 1514.5072,-1991.1312 1513.291,-1999.9889 1511.9604,-2008.8344"/>
<polygon fill="#000000" stroke="#000000" points="1508.4892,-2008.3796 1510.4148,-2018.798 1515.4065,-2009.4527 1508.4892,-2008.3796"/>
</g>
<!-- 12&#45;&gt;3 -->
<g id="edge19" class="edge">
<title>12&#45;&gt;3</title>
<path fill="none" stroke="#000000" stroke-dasharray="5,2" d="M659.5962,-763.7246C655.5826,-775.9144 651.8695,-788.0904 648.5124,-800.2 554.5768,-1139.0416 708.2425,-1300.4892 488.5124,-1575 474.8861,-1592.0234 458.3277,-1607.712 440.87,-1621.7949"/>
<polygon fill="#000000" stroke="#000000" points="438.4868,-1619.2166 432.7929,-1628.1514 442.8158,-1624.7174 438.4868,-1619.2166"/>
</g>
<!-- 12&#45;&gt;4 -->
<g id="edge17" class="edge">
<title>12&#45;&gt;4</title>
<path fill="none" stroke="#000000" d="M611.3387,-764.0365C608.9323,-767.7852 606.532,-771.5244 604.1391,-775.2521"/>
<polygon fill="none" stroke="#000000" points="595.2578,-769.6505 587.8878,-800.5687 612.93,-780.9947 595.2578,-769.6505"/>
</g>
<!-- 12&#45;&gt;5 -->
<g id="edge16" class="edge">
<title>12&#45;&gt;5</title>
<path fill="none" stroke="#000000" d="M1054.0078,-763.8898C1057.8441,-776.0188 1061.3643,-788.1391 1064.5124,-800.2 1108.0492,-966.9964 1033.0124,-1417.2463 1102.5124,-1575 1105.589,-1581.9834 1109.2487,-1588.7927 1113.3471,-1595.3946"/>
<polygon fill="none" stroke="#000000" points="1104.9087,-1601.6439 1131.0247,-1619.7604 1121.9064,-1589.312 1104.9087,-1601.6439"/>
</g>
<!-- 12&#45;&gt;9 -->
<g id="edge20" class="edge">
<title>12&#45;&gt;9</title>
<path fill="none" stroke="#000000" d="M856.5124,-764.0365C856.5124,-802.5218 856.5124,-840.0068 856.5124,-874.3051"/>
<polygon fill="#000000" stroke="#000000" points="853.0125,-874.3668 856.5124,-884.3668 860.0125,-874.3669 853.0125,-874.3668"/>
</g>
<!-- 12&#45;&gt;10 -->
<g id="edge21" class="edge">
<title>12&#45;&gt;10</title>
<path fill="none" stroke="#000000" d="M555.9227,-517.3998C441.9875,-585.0804 324.0348,-678.8372 258.5124,-800.2 162.6622,-977.7369 192.3246,-1224.7325 218.3023,-1355.4642"/>
<polygon fill="#000000" stroke="#000000" points="214.9076,-1356.3354 220.3228,-1365.4417 221.7683,-1354.946 214.9076,-1356.3354"/>
</g>
<!-- 12&#45;&gt;11 -->
<g id="edge22" class="edge">
<title>12&#45;&gt;11</title>
<path fill="none" stroke="#000000" d="M1157.2306,-562.7449C1236.926,-626.8986 1312.8556,-706.7855 1356.5124,-800.2 1431.8065,-961.3103 1395.5085,-1169.9588 1356.9112,-1305.5813"/>
<polygon fill="#000000" stroke="#000000" points="1353.5401,-1304.6399 1354.1297,-1315.2183 1360.2656,-1306.5811 1353.5401,-1304.6399"/>
</g>
</g>
</svg>
