<?xml version="1.0" encoding="UTF-8" standalone="no"?>
<!DOCTYPE svg PUBLIC "-//W3C//DTD SVG 1.1//EN"
 "http://www.w3.org/Graphics/SVG/1.1/DTD/svg11.dtd">
<!-- Generated by graphviz version 2.40.1 (20161225.0304)
 -->
<!-- Title: UmlClassDiagram Pages: 1 -->
<svg width="1281pt" height="966pt"
 viewBox="0.00 0.00 1281.35 965.80" xmlns="http://www.w3.org/2000/svg" xmlns:xlink="http://www.w3.org/1999/xlink">
<g id="graph0" class="graph" transform="scale(1 1) rotate(0) translate(4 961.8)">
<title>UmlClassDiagram</title>
<polygon fill="#ffffff" stroke="transparent" points="-4,4 -4,-961.8 1277.3477,-961.8 1277.3477,4 -4,4"/>
<!-- 0 -->
<g id="node1" class="node">
<title>0</title>
<polygon fill="#f2f2f2" stroke="#000000" points="32.9945,-798.9 32.9945,-957.3 264.8269,-957.3 264.8269,-798.9 32.9945,-798.9"/>
<text text-anchor="middle" x="148.9107" y="-940.7" font-family="Times,serif" font-size="14.00" fill="#000000">&lt;&lt;Library&gt;&gt;</text>
<text text-anchor="middle" x="148.9107" y="-923.9" font-family="Times,serif" font-size="14.00" fill="#000000">SafeMath</text>
<polyline fill="none" stroke="#000000" points="32.9945,-915.7 264.8269,-915.7 "/>
<text text-anchor="middle" x="148.9107" y="-899.1" font-family="Times,serif" font-size="14.00" fill="#000000"> </text>
<polyline fill="none" stroke="#000000" points="32.9945,-890.9 264.8269,-890.9 "/>
<text text-anchor="start" x="40.9945" y="-874.3" font-family="Times,serif" font-size="14.00" fill="#000000">Internal:</text>
<text text-anchor="start" x="40.9945" y="-857.5" font-family="Times,serif" font-size="14.00" fill="#000000"> &#160;&#160;&#160;mul(a: uint256, b: uint256): uint256</text>
<text text-anchor="start" x="40.9945" y="-840.7" font-family="Times,serif" font-size="14.00" fill="#000000"> &#160;&#160;&#160;div(a: uint256, b: uint256): uint256</text>
<text text-anchor="start" x="40.9945" y="-823.9" font-family="Times,serif" font-size="14.00" fill="#000000"> &#160;&#160;&#160;sub(a: uint256, b: uint256): uint256</text>
<text text-anchor="start" x="40.9945" y="-807.1" font-family="Times,serif" font-size="14.00" fill="#000000"> &#160;&#160;&#160;add(a: uint256, b: uint256): uint256</text>
</g>
<!-- 1 -->
<g id="node2" class="node">
<title>1</title>
<polygon fill="#f2f2f2" stroke="#000000" points="317.1803,-798.9 317.1803,-957.3 700.6411,-957.3 700.6411,-798.9 317.1803,-798.9"/>
<text text-anchor="middle" x="508.9107" y="-940.7" font-family="Times,serif" font-size="14.00" fill="#000000">&lt;&lt;Abstract&gt;&gt;</text>
<text text-anchor="middle" x="508.9107" y="-923.9" font-family="Times,serif" font-size="14.00" fill="#000000">ERC20Basic</text>
<polyline fill="none" stroke="#000000" points="317.1803,-915.7 700.6411,-915.7 "/>
<text text-anchor="start" x="325.1803" y="-899.1" font-family="Times,serif" font-size="14.00" fill="#000000">Public:</text>
<text text-anchor="start" x="325.1803" y="-882.3" font-family="Times,serif" font-size="14.00" fill="#000000"> &#160;&#160;totalSupply: uint256</text>
<polyline fill="none" stroke="#000000" points="317.1803,-874.1 700.6411,-874.1 "/>
<text text-anchor="start" x="325.1803" y="-857.5" font-family="Times,serif" font-size="14.00" fill="#000000">Public:</text>
<text text-anchor="start" x="325.1803" y="-840.7" font-family="Times,serif" font-size="14.00" fill="#000000"> &#160;&#160;&#160;&lt;&lt;abstract&gt;&gt; balanceOf(who: address): uint256</text>
<text text-anchor="start" x="325.1803" y="-823.9" font-family="Times,serif" font-size="14.00" fill="#000000"> &#160;&#160;&#160;&lt;&lt;abstract&gt;&gt; transfer(to: address, value: uint256): bool</text>
<text text-anchor="start" x="325.1803" y="-807.1" font-family="Times,serif" font-size="14.00" fill="#000000"> &#160;&#160;&#160;&lt;&lt;event&gt;&gt; Transfer(from: address, to: address, value: uint256)</text>
</g>
<!-- 2 -->
<g id="node3" class="node">
<title>2</title>
<polygon fill="#f2f2f2" stroke="#000000" points="0,-620.3 0,-745.1 297.8214,-745.1 297.8214,-620.3 0,-620.3"/>
<text text-anchor="middle" x="148.9107" y="-728.5" font-family="Times,serif" font-size="14.00" fill="#000000">BasicToken</text>
<polyline fill="none" stroke="#000000" points="0,-720.3 297.8214,-720.3 "/>
<text text-anchor="start" x="8" y="-703.7" font-family="Times,serif" font-size="14.00" fill="#000000">Public:</text>
<text text-anchor="start" x="8" y="-686.9" font-family="Times,serif" font-size="14.00" fill="#000000"> &#160;&#160;balances: mapping(address=&gt;uint256)</text>
<polyline fill="none" stroke="#000000" points="0,-678.7 297.8214,-678.7 "/>
<text text-anchor="start" x="8" y="-662.1" font-family="Times,serif" font-size="14.00" fill="#000000">Public:</text>
<text text-anchor="start" x="8" y="-645.3" font-family="Times,serif" font-size="14.00" fill="#000000"> &#160;&#160;&#160;transfer(_to: address, _value: uint256): bool</text>
<text text-anchor="start" x="8" y="-628.5" font-family="Times,serif" font-size="14.00" fill="#000000"> &#160;&#160;&#160;balanceOf(_owner: address): (balance: uint256)</text>
</g>
<!-- 2&#45;&gt;0 -->
<g id="edge2" class="edge">
<title>2&#45;&gt;0</title>
<path fill="none" stroke="#000000" stroke-dasharray="5,2" d="M148.9107,-745.3321C148.9107,-759.1182 148.9107,-773.9783 148.9107,-788.5923"/>
<polygon fill="#000000" stroke="#000000" points="145.4108,-788.6541 148.9107,-798.6542 152.4108,-788.6542 145.4108,-788.6541"/>
</g>
<!-- 2&#45;&gt;1 -->
<g id="edge1" class="edge">
<title>2&#45;&gt;1</title>
<path fill="none" stroke="#000000" d="M264.3024,-745.3321C287.3349,-757.8336 311.9946,-771.2183 336.4677,-784.5018"/>
<polygon fill="none" stroke="#000000" points="331.4891,-793.7465 362.8645,-798.8294 341.507,-775.2899 331.4891,-793.7465"/>
</g>
<!-- 3 -->
<g id="node4" class="node">
<title>3</title>
<polygon fill="#f2f2f2" stroke="#000000" points="315.5986,-603.5 315.5986,-761.9 770.2228,-761.9 770.2228,-603.5 315.5986,-603.5"/>
<text text-anchor="middle" x="542.9107" y="-745.3" font-family="Times,serif" font-size="14.00" fill="#000000">&lt;&lt;Abstract&gt;&gt;</text>
<text text-anchor="middle" x="542.9107" y="-728.5" font-family="Times,serif" font-size="14.00" fill="#000000">ERC20</text>
<polyline fill="none" stroke="#000000" points="315.5986,-720.3 770.2228,-720.3 "/>
<text text-anchor="middle" x="542.9107" y="-703.7" font-family="Times,serif" font-size="14.00" fill="#000000"> </text>
<polyline fill="none" stroke="#000000" points="315.5986,-695.5 770.2228,-695.5 "/>
<text text-anchor="start" x="323.5986" y="-678.9" font-family="Times,serif" font-size="14.00" fill="#000000">Public:</text>
<text text-anchor="start" x="323.5986" y="-662.1" font-family="Times,serif" font-size="14.00" fill="#000000"> &#160;&#160;&#160;&lt;&lt;abstract&gt;&gt; allowance(owner: address, spender: address): uint256</text>
<text text-anchor="start" x="323.5986" y="-645.3" font-family="Times,serif" font-size="14.00" fill="#000000"> &#160;&#160;&#160;&lt;&lt;abstract&gt;&gt; transferFrom(from: address, to: address, value: uint256): bool</text>
<text text-anchor="start" x="323.5986" y="-628.5" font-family="Times,serif" font-size="14.00" fill="#000000"> &#160;&#160;&#160;&lt;&lt;abstract&gt;&gt; approve(spender: address, value: uint256): bool</text>
<text text-anchor="start" x="323.5986" y="-611.7" font-family="Times,serif" font-size="14.00" fill="#000000"> &#160;&#160;&#160;&lt;&lt;event&gt;&gt; Approval(owner: address, spender: address, value: uint256)</text>
</g>
<!-- 3&#45;&gt;1 -->
<g id="edge3" class="edge">
<title>3&#45;&gt;1</title>
<path fill="none" stroke="#000000" d="M529.0816,-762.1767C528.6886,-764.4351 528.2933,-766.7071 527.8965,-768.9874"/>
<polygon fill="none" stroke="#000000" points="517.5258,-767.3379 522.7275,-798.6938 538.215,-770.9379 517.5258,-767.3379"/>
</g>
<!-- 4 -->
<g id="node5" class="node">
<title>4</title>
<polygon fill="#f2f2f2" stroke="#000000" points="333.9267,-399.7 333.9267,-541.3 751.8947,-541.3 751.8947,-399.7 333.9267,-399.7"/>
<text text-anchor="middle" x="542.9107" y="-524.7" font-family="Times,serif" font-size="14.00" fill="#000000">StandardToken</text>
<polyline fill="none" stroke="#000000" points="333.9267,-516.5 751.8947,-516.5 "/>
<text text-anchor="start" x="341.9267" y="-499.9" font-family="Times,serif" font-size="14.00" fill="#000000">Internal:</text>
<text text-anchor="start" x="341.9267" y="-483.1" font-family="Times,serif" font-size="14.00" fill="#000000"> &#160;&#160;allowed: mapping(address=&gt;mapping(address=&gt;uint256))</text>
<polyline fill="none" stroke="#000000" points="333.9267,-474.9 751.8947,-474.9 "/>
<text text-anchor="start" x="341.9267" y="-458.3" font-family="Times,serif" font-size="14.00" fill="#000000">Public:</text>
<text text-anchor="start" x="341.9267" y="-441.5" font-family="Times,serif" font-size="14.00" fill="#000000"> &#160;&#160;&#160;transferFrom(_from: address, _to: address, _value: uint256): bool</text>
<text text-anchor="start" x="341.9267" y="-424.7" font-family="Times,serif" font-size="14.00" fill="#000000"> &#160;&#160;&#160;approve(_spender: address, _value: uint256): bool</text>
<text text-anchor="start" x="341.9267" y="-407.9" font-family="Times,serif" font-size="14.00" fill="#000000"> &#160;&#160;&#160;allowance(_owner: address, _spender: address): (remaining: uint256)</text>
</g>
<!-- 4&#45;&gt;2 -->
<g id="edge5" class="edge">
<title>4&#45;&gt;2</title>
<path fill="none" stroke="#000000" d="M411.4406,-541.307C372.894,-562.0674 330.5698,-584.8623 291.3725,-605.9731"/>
<polygon fill="none" stroke="#000000" points="286.2543,-596.8036 264.8204,-620.2735 296.2122,-615.2926 286.2543,-596.8036"/>
</g>
<!-- 4&#45;&gt;3 -->
<g id="edge4" class="edge">
<title>4&#45;&gt;3</title>
<path fill="none" stroke="#000000" d="M542.9107,-541.4545C542.9107,-551.7051 542.9107,-562.4491 542.9107,-573.2395"/>
<polygon fill="none" stroke="#000000" points="532.4108,-573.401 542.9107,-603.4011 553.4108,-573.4011 532.4108,-573.401"/>
</g>
<!-- 5 -->
<g id="node6" class="node">
<title>5</title>
<polygon fill="#f2f2f2" stroke="#000000" points="788.4737,-603.5 788.4737,-761.9 1273.3477,-761.9 1273.3477,-603.5 788.4737,-603.5"/>
<text text-anchor="middle" x="1030.9107" y="-745.3" font-family="Times,serif" font-size="14.00" fill="#000000">Ownable</text>
<polyline fill="none" stroke="#000000" points="788.4737,-737.1 1273.3477,-737.1 "/>
<text text-anchor="start" x="796.4737" y="-720.5" font-family="Times,serif" font-size="14.00" fill="#000000">Public:</text>
<text text-anchor="start" x="796.4737" y="-703.7" font-family="Times,serif" font-size="14.00" fill="#000000"> &#160;&#160;owner: address</text>
<polyline fill="none" stroke="#000000" points="788.4737,-695.5 1273.3477,-695.5 "/>
<text text-anchor="start" x="796.4737" y="-678.9" font-family="Times,serif" font-size="14.00" fill="#000000">Public:</text>
<text text-anchor="start" x="796.4737" y="-662.1" font-family="Times,serif" font-size="14.00" fill="#000000"> &#160;&#160;&#160;&lt;&lt;event&gt;&gt; OwnershipTransferred(previousOwner: address, newOwner: address)</text>
<text text-anchor="start" x="796.4737" y="-645.3" font-family="Times,serif" font-size="14.00" fill="#000000"> &#160;&#160;&#160;&lt;&lt;modifier&gt;&gt; onlyOwner()</text>
<text text-anchor="start" x="796.4737" y="-628.5" font-family="Times,serif" font-size="14.00" fill="#000000"> &#160;&#160;&#160;constructor()</text>
<text text-anchor="start" x="796.4737" y="-611.7" font-family="Times,serif" font-size="14.00" fill="#000000"> &#160;&#160;&#160;transferOwnership(newOwner: address)</text>
</g>
<!-- 6 -->
<g id="node7" class="node">
<title>6</title>
<polygon fill="#f2f2f2" stroke="#000000" points="847.1197,-374.5 847.1197,-566.5 1060.7017,-566.5 1060.7017,-374.5 847.1197,-374.5"/>
<text text-anchor="middle" x="953.9107" y="-549.9" font-family="Times,serif" font-size="14.00" fill="#000000">Pausable</text>
<polyline fill="none" stroke="#000000" points="847.1197,-541.7 1060.7017,-541.7 "/>
<text text-anchor="start" x="855.1197" y="-525.1" font-family="Times,serif" font-size="14.00" fill="#000000">Public:</text>
<text text-anchor="start" x="855.1197" y="-508.3" font-family="Times,serif" font-size="14.00" fill="#000000"> &#160;&#160;paused: bool</text>
<polyline fill="none" stroke="#000000" points="847.1197,-500.1 1060.7017,-500.1 "/>
<text text-anchor="start" x="855.1197" y="-483.5" font-family="Times,serif" font-size="14.00" fill="#000000">Public:</text>
<text text-anchor="start" x="855.1197" y="-466.7" font-family="Times,serif" font-size="14.00" fill="#000000"> &#160;&#160;&#160;&lt;&lt;event&gt;&gt; Pause()</text>
<text text-anchor="start" x="855.1197" y="-449.9" font-family="Times,serif" font-size="14.00" fill="#000000"> &#160;&#160;&#160;&lt;&lt;event&gt;&gt; Unpause()</text>
<text text-anchor="start" x="855.1197" y="-433.1" font-family="Times,serif" font-size="14.00" fill="#000000"> &#160;&#160;&#160;&lt;&lt;modifier&gt;&gt; whenNotPaused()</text>
<text text-anchor="start" x="855.1197" y="-416.3" font-family="Times,serif" font-size="14.00" fill="#000000"> &#160;&#160;&#160;&lt;&lt;modifier&gt;&gt; whenPaused()</text>
<text text-anchor="start" x="855.1197" y="-399.5" font-family="Times,serif" font-size="14.00" fill="#000000"> &#160;&#160;&#160;pause()</text>
<text text-anchor="start" x="855.1197" y="-382.7" font-family="Times,serif" font-size="14.00" fill="#000000"> &#160;&#160;&#160;unpause()</text>
</g>
<!-- 6&#45;&gt;5 -->
<g id="edge6" class="edge">
<title>6&#45;&gt;5</title>
<path fill="none" stroke="#000000" d="M988.806,-566.6661C989.8157,-569.4487 990.8288,-572.2405 991.8423,-575.0337"/>
<polygon fill="none" stroke="#000000" points="982.0258,-578.7636 1002.1292,-603.3828 1001.7664,-571.6004 982.0258,-578.7636"/>
</g>
<!-- 7 -->
<g id="node8" class="node">
<title>7</title>
<polygon fill="#f2f2f2" stroke="#000000" points="511.4029,-212.7 511.4029,-337.5 908.4185,-337.5 908.4185,-212.7 511.4029,-212.7"/>
<text text-anchor="middle" x="709.9107" y="-320.9" font-family="Times,serif" font-size="14.00" fill="#000000">PausableToken</text>
<polyline fill="none" stroke="#000000" points="511.4029,-312.7 908.4185,-312.7 "/>
<text text-anchor="middle" x="709.9107" y="-296.1" font-family="Times,serif" font-size="14.00" fill="#000000"> </text>
<polyline fill="none" stroke="#000000" points="511.4029,-287.9 908.4185,-287.9 "/>
<text text-anchor="start" x="519.4029" y="-271.3" font-family="Times,serif" font-size="14.00" fill="#000000">Public:</text>
<text text-anchor="start" x="519.4029" y="-254.5" font-family="Times,serif" font-size="14.00" fill="#000000"> &#160;&#160;&#160;transfer(_to: address, _value: uint256): bool</text>
<text text-anchor="start" x="519.4029" y="-237.7" font-family="Times,serif" font-size="14.00" fill="#000000"> &#160;&#160;&#160;transferFrom(_from: address, _to: address, _value: uint256): bool</text>
<text text-anchor="start" x="519.4029" y="-220.9" font-family="Times,serif" font-size="14.00" fill="#000000"> &#160;&#160;&#160;approve(_spender: address, _value: uint256): bool</text>
</g>
<!-- 7&#45;&gt;4 -->
<g id="edge7" class="edge">
<title>7&#45;&gt;4</title>
<path fill="none" stroke="#000000" d="M656.3818,-337.7321C645.8873,-350.0112 634.6646,-363.1424 623.511,-376.1928"/>
<polygon fill="none" stroke="#000000" points="615.1904,-369.7671 603.6813,-399.3947 631.1544,-383.4109 615.1904,-369.7671"/>
</g>
<!-- 7&#45;&gt;6 -->
<g id="edge8" class="edge">
<title>7&#45;&gt;6</title>
<path fill="none" stroke="#000000" d="M788.1206,-337.7321C799.357,-346.7303 811.1647,-356.1862 823.0854,-365.7326"/>
<polygon fill="none" stroke="#000000" points="816.8074,-374.1569 846.7875,-384.7136 829.9342,-357.7652 816.8074,-374.1569"/>
</g>
<!-- 8 -->
<g id="node9" class="node">
<title>8</title>
<polygon fill="#f2f2f2" stroke="#000000" points="458.8805,-.5 458.8805,-175.7 960.9409,-175.7 960.9409,-.5 458.8805,-.5"/>
<text text-anchor="middle" x="709.9107" y="-159.1" font-family="Times,serif" font-size="14.00" fill="#000000">QASHToken</text>
<polyline fill="none" stroke="#000000" points="458.8805,-150.9 960.9409,-150.9 "/>
<text text-anchor="start" x="466.8805" y="-134.3" font-family="Times,serif" font-size="14.00" fill="#000000">Public:</text>
<text text-anchor="start" x="466.8805" y="-117.5" font-family="Times,serif" font-size="14.00" fill="#000000"> &#160;&#160;name: string</text>
<text text-anchor="start" x="466.8805" y="-100.7" font-family="Times,serif" font-size="14.00" fill="#000000"> &#160;&#160;decimals: uint8</text>
<text text-anchor="start" x="466.8805" y="-83.9" font-family="Times,serif" font-size="14.00" fill="#000000"> &#160;&#160;symbol: string</text>
<text text-anchor="start" x="466.8805" y="-67.1" font-family="Times,serif" font-size="14.00" fill="#000000"> &#160;&#160;version: string</text>
<polyline fill="none" stroke="#000000" points="458.8805,-58.9 960.9409,-58.9 "/>
<text text-anchor="start" x="466.8805" y="-42.3" font-family="Times,serif" font-size="14.00" fill="#000000">Public:</text>
<text text-anchor="start" x="466.8805" y="-25.5" font-family="Times,serif" font-size="14.00" fill="#000000"> &#160;&#160;&#160;&lt;&lt;fallback&gt;&gt; ()</text>
<text text-anchor="start" x="466.8805" y="-8.7" font-family="Times,serif" font-size="14.00" fill="#000000"> &#160;&#160;&#160;constructor(_totalSupply: uint256, _name: string, _symbol: string, _decimals: uint8)</text>
</g>
<!-- 8&#45;&gt;7 -->
<g id="edge9" class="edge">
<title>8&#45;&gt;7</title>
<path fill="none" stroke="#000000" d="M709.9107,-175.8508C709.9107,-178.0845 709.9107,-180.3226 709.9107,-182.56"/>
<polygon fill="none" stroke="#000000" points="699.4108,-182.6687 709.9107,-212.6687 720.4108,-182.6688 699.4108,-182.6687"/>
</g>
</g>
</svg>
