<?xml version="1.0" encoding="UTF-8" standalone="no"?>
<!DOCTYPE svg PUBLIC "-//W3C//DTD SVG 1.1//EN"
 "http://www.w3.org/Graphics/SVG/1.1/DTD/svg11.dtd">
<!-- Generated by graphviz version 2.40.1 (20161225.0304)
 -->
<!-- Title: UmlClassDiagram Pages: 1 -->
<svg width="782pt" height="770pt"
 viewBox="0.00 0.00 782.37 770.40" xmlns="http://www.w3.org/2000/svg" xmlns:xlink="http://www.w3.org/1999/xlink">
<g id="graph0" class="graph" transform="scale(1 1) rotate(0) translate(4 766.4)">
<title>UmlClassDiagram</title>
<polygon fill="#ffffff" stroke="transparent" points="-4,4 -4,-766.4 778.3689,-766.4 778.3689,4 -4,4"/>
<!-- 0 -->
<g id="node1" class="node">
<title>0</title>
<polygon fill="#f2f2f2" stroke="#000000" points="321.3264,-603.5 321.3264,-761.9 704.7872,-761.9 704.7872,-603.5 321.3264,-603.5"/>
<text text-anchor="middle" x="513.0568" y="-745.3" font-family="Times,serif" font-size="14.00" fill="#000000">&lt;&lt;Abstract&gt;&gt;</text>
<text text-anchor="middle" x="513.0568" y="-728.5" font-family="Times,serif" font-size="14.00" fill="#000000">ERC20Basic</text>
<polyline fill="none" stroke="#000000" points="321.3264,-720.3 704.7872,-720.3 "/>
<text text-anchor="start" x="329.3264" y="-703.7" font-family="Times,serif" font-size="14.00" fill="#000000">Public:</text>
<text text-anchor="start" x="329.3264" y="-686.9" font-family="Times,serif" font-size="14.00" fill="#000000"> &#160;&#160;totalSupply: uint256</text>
<polyline fill="none" stroke="#000000" points="321.3264,-678.7 704.7872,-678.7 "/>
<text text-anchor="start" x="329.3264" y="-662.1" font-family="Times,serif" font-size="14.00" fill="#000000">Public:</text>
<text text-anchor="start" x="329.3264" y="-645.3" font-family="Times,serif" font-size="14.00" fill="#000000"> &#160;&#160;&#160;&lt;&lt;abstract&gt;&gt; balanceOf(who: address): uint256</text>
<text text-anchor="start" x="329.3264" y="-628.5" font-family="Times,serif" font-size="14.00" fill="#000000"> &#160;&#160;&#160;&lt;&lt;abstract&gt;&gt; transfer(to: address, value: uint256): bool</text>
<text text-anchor="start" x="329.3264" y="-611.7" font-family="Times,serif" font-size="14.00" fill="#000000"> &#160;&#160;&#160;&lt;&lt;event&gt;&gt; Transfer(from: address, to: address, value: uint256)</text>
</g>
<!-- 1 -->
<g id="node2" class="node">
<title>1</title>
<polygon fill="#f2f2f2" stroke="#000000" points="37.1406,-603.5 37.1406,-761.9 268.973,-761.9 268.973,-603.5 37.1406,-603.5"/>
<text text-anchor="middle" x="153.0568" y="-745.3" font-family="Times,serif" font-size="14.00" fill="#000000">&lt;&lt;Library&gt;&gt;</text>
<text text-anchor="middle" x="153.0568" y="-728.5" font-family="Times,serif" font-size="14.00" fill="#000000">SafeMath</text>
<polyline fill="none" stroke="#000000" points="37.1406,-720.3 268.973,-720.3 "/>
<text text-anchor="middle" x="153.0568" y="-703.7" font-family="Times,serif" font-size="14.00" fill="#000000"> </text>
<polyline fill="none" stroke="#000000" points="37.1406,-695.5 268.973,-695.5 "/>
<text text-anchor="start" x="45.1406" y="-678.9" font-family="Times,serif" font-size="14.00" fill="#000000">Internal:</text>
<text text-anchor="start" x="45.1406" y="-662.1" font-family="Times,serif" font-size="14.00" fill="#000000"> &#160;&#160;&#160;mul(a: uint256, b: uint256): uint256</text>
<text text-anchor="start" x="45.1406" y="-645.3" font-family="Times,serif" font-size="14.00" fill="#000000"> &#160;&#160;&#160;div(a: uint256, b: uint256): uint256</text>
<text text-anchor="start" x="45.1406" y="-628.5" font-family="Times,serif" font-size="14.00" fill="#000000"> &#160;&#160;&#160;sub(a: uint256, b: uint256): uint256</text>
<text text-anchor="start" x="45.1406" y="-611.7" font-family="Times,serif" font-size="14.00" fill="#000000"> &#160;&#160;&#160;add(a: uint256, b: uint256): uint256</text>
</g>
<!-- 2 -->
<g id="node3" class="node">
<title>2</title>
<polygon fill="#f2f2f2" stroke="#000000" points="4.1461,-424.9 4.1461,-549.7 301.9675,-549.7 301.9675,-424.9 4.1461,-424.9"/>
<text text-anchor="middle" x="153.0568" y="-533.1" font-family="Times,serif" font-size="14.00" fill="#000000">BasicToken</text>
<polyline fill="none" stroke="#000000" points="4.1461,-524.9 301.9675,-524.9 "/>
<text text-anchor="start" x="12.1461" y="-508.3" font-family="Times,serif" font-size="14.00" fill="#000000">Public:</text>
<text text-anchor="start" x="12.1461" y="-491.5" font-family="Times,serif" font-size="14.00" fill="#000000"> &#160;&#160;balances: mapping(address=&gt;uint256)</text>
<polyline fill="none" stroke="#000000" points="4.1461,-483.3 301.9675,-483.3 "/>
<text text-anchor="start" x="12.1461" y="-466.7" font-family="Times,serif" font-size="14.00" fill="#000000">Public:</text>
<text text-anchor="start" x="12.1461" y="-449.9" font-family="Times,serif" font-size="14.00" fill="#000000"> &#160;&#160;&#160;transfer(_to: address, _value: uint256): bool</text>
<text text-anchor="start" x="12.1461" y="-433.1" font-family="Times,serif" font-size="14.00" fill="#000000"> &#160;&#160;&#160;balanceOf(_owner: address): (balance: uint256)</text>
</g>
<!-- 2&#45;&gt;0 -->
<g id="edge1" class="edge">
<title>2&#45;&gt;0</title>
<path fill="none" stroke="#000000" d="M268.4485,-549.9321C291.481,-562.4336 316.1407,-575.8183 340.6138,-589.1018"/>
<polygon fill="none" stroke="#000000" points="335.6352,-598.3465 367.0106,-603.4294 345.6531,-579.8899 335.6352,-598.3465"/>
</g>
<!-- 2&#45;&gt;1 -->
<g id="edge2" class="edge">
<title>2&#45;&gt;1</title>
<path fill="none" stroke="#000000" stroke-dasharray="5,2" d="M153.0568,-549.9321C153.0568,-563.7182 153.0568,-578.5783 153.0568,-593.1923"/>
<polygon fill="#000000" stroke="#000000" points="149.5569,-593.2541 153.0568,-603.2542 156.5569,-593.2542 149.5569,-593.2541"/>
</g>
<!-- 3 -->
<g id="node4" class="node">
<title>3</title>
<polygon fill="#f2f2f2" stroke="#000000" points="319.7447,-408.1 319.7447,-566.5 774.3689,-566.5 774.3689,-408.1 319.7447,-408.1"/>
<text text-anchor="middle" x="547.0568" y="-549.9" font-family="Times,serif" font-size="14.00" fill="#000000">&lt;&lt;Abstract&gt;&gt;</text>
<text text-anchor="middle" x="547.0568" y="-533.1" font-family="Times,serif" font-size="14.00" fill="#000000">ERC20</text>
<polyline fill="none" stroke="#000000" points="319.7447,-524.9 774.3689,-524.9 "/>
<text text-anchor="middle" x="547.0568" y="-508.3" font-family="Times,serif" font-size="14.00" fill="#000000"> </text>
<polyline fill="none" stroke="#000000" points="319.7447,-500.1 774.3689,-500.1 "/>
<text text-anchor="start" x="327.7447" y="-483.5" font-family="Times,serif" font-size="14.00" fill="#000000">Public:</text>
<text text-anchor="start" x="327.7447" y="-466.7" font-family="Times,serif" font-size="14.00" fill="#000000"> &#160;&#160;&#160;&lt;&lt;abstract&gt;&gt; allowance(owner: address, spender: address): uint256</text>
<text text-anchor="start" x="327.7447" y="-449.9" font-family="Times,serif" font-size="14.00" fill="#000000"> &#160;&#160;&#160;&lt;&lt;abstract&gt;&gt; transferFrom(from: address, to: address, value: uint256): bool</text>
<text text-anchor="start" x="327.7447" y="-433.1" font-family="Times,serif" font-size="14.00" fill="#000000"> &#160;&#160;&#160;&lt;&lt;abstract&gt;&gt; approve(spender: address, value: uint256): bool</text>
<text text-anchor="start" x="327.7447" y="-416.3" font-family="Times,serif" font-size="14.00" fill="#000000"> &#160;&#160;&#160;&lt;&lt;event&gt;&gt; Approval(owner: address, spender: address, value: uint256)</text>
</g>
<!-- 3&#45;&gt;0 -->
<g id="edge3" class="edge">
<title>3&#45;&gt;0</title>
<path fill="none" stroke="#000000" d="M533.2277,-566.7767C532.8347,-569.0351 532.4394,-571.3071 532.0426,-573.5874"/>
<polygon fill="none" stroke="#000000" points="521.6719,-571.9379 526.8736,-603.2938 542.3611,-575.5379 521.6719,-571.9379"/>
</g>
<!-- 4 -->
<g id="node5" class="node">
<title>4</title>
<polygon fill="#f2f2f2" stroke="#000000" points="323.7141,-195.9 323.7141,-371.1 730.3995,-371.1 730.3995,-195.9 323.7141,-195.9"/>
<text text-anchor="middle" x="527.0568" y="-354.5" font-family="Times,serif" font-size="14.00" fill="#000000">StandardToken</text>
<polyline fill="none" stroke="#000000" points="323.7141,-346.3 730.3995,-346.3 "/>
<text text-anchor="start" x="331.7141" y="-329.7" font-family="Times,serif" font-size="14.00" fill="#000000">Internal:</text>
<text text-anchor="start" x="331.7141" y="-312.9" font-family="Times,serif" font-size="14.00" fill="#000000"> &#160;&#160;allowed: mapping(address=&gt;mapping(address=&gt;uint256))</text>
<polyline fill="none" stroke="#000000" points="323.7141,-304.7 730.3995,-304.7 "/>
<text text-anchor="start" x="331.7141" y="-288.1" font-family="Times,serif" font-size="14.00" fill="#000000">Public:</text>
<text text-anchor="start" x="331.7141" y="-271.3" font-family="Times,serif" font-size="14.00" fill="#000000"> &#160;&#160;&#160;transferFrom(_from: address, _to: address, _value: uint256): bool</text>
<text text-anchor="start" x="331.7141" y="-254.5" font-family="Times,serif" font-size="14.00" fill="#000000"> &#160;&#160;&#160;approve(_spender: address, _value: uint256): bool</text>
<text text-anchor="start" x="331.7141" y="-237.7" font-family="Times,serif" font-size="14.00" fill="#000000"> &#160;&#160;&#160;allowance(_owner: address, _spender: address): uint256</text>
<text text-anchor="start" x="331.7141" y="-220.9" font-family="Times,serif" font-size="14.00" fill="#000000"> &#160;&#160;&#160;increaseApproval(_spender: address, _addedValue: uint): bool</text>
<text text-anchor="start" x="331.7141" y="-204.1" font-family="Times,serif" font-size="14.00" fill="#000000"> &#160;&#160;&#160;decreaseApproval(_spender: address, _subtractedValue: uint): bool</text>
</g>
<!-- 4&#45;&gt;2 -->
<g id="edge5" class="edge">
<title>4&#45;&gt;2</title>
<path fill="none" stroke="#000000" d="M366.2766,-371.1123C342.3119,-384.1711 317.7611,-397.5494 294.2407,-410.3661"/>
<polygon fill="none" stroke="#000000" points="289.0259,-401.25 267.7073,-424.8247 299.0742,-419.6899 289.0259,-401.25"/>
</g>
<!-- 4&#45;&gt;3 -->
<g id="edge4" class="edge">
<title>4&#45;&gt;3</title>
<path fill="none" stroke="#000000" d="M535.6547,-371.1123C535.8696,-373.3029 536.0855,-375.5024 536.3018,-377.7068"/>
<polygon fill="none" stroke="#000000" points="525.8755,-378.9724 539.2554,-407.8034 546.7751,-376.9213 525.8755,-378.9724"/>
</g>
<!-- 5 -->
<g id="node6" class="node">
<title>5</title>
<polygon fill="#f2f2f2" stroke="#000000" points="0,-229.5 0,-337.5 306.1136,-337.5 306.1136,-229.5 0,-229.5"/>
<text text-anchor="middle" x="153.0568" y="-320.9" font-family="Times,serif" font-size="14.00" fill="#000000">BurnableToken</text>
<polyline fill="none" stroke="#000000" points="0,-312.7 306.1136,-312.7 "/>
<text text-anchor="middle" x="153.0568" y="-296.1" font-family="Times,serif" font-size="14.00" fill="#000000"> </text>
<polyline fill="none" stroke="#000000" points="0,-287.9 306.1136,-287.9 "/>
<text text-anchor="start" x="8" y="-271.3" font-family="Times,serif" font-size="14.00" fill="#000000">Public:</text>
<text text-anchor="start" x="8" y="-254.5" font-family="Times,serif" font-size="14.00" fill="#000000"> &#160;&#160;&#160;&lt;&lt;event&gt;&gt; Burn(burner: address, value: uint256)</text>
<text text-anchor="start" x="8" y="-237.7" font-family="Times,serif" font-size="14.00" fill="#000000"> &#160;&#160;&#160;burn(_value: uint256)</text>
</g>
<!-- 5&#45;&gt;2 -->
<g id="edge6" class="edge">
<title>5&#45;&gt;2</title>
<path fill="none" stroke="#000000" d="M153.0568,-337.5796C153.0568,-355.0419 153.0568,-374.9273 153.0568,-394.3735"/>
<polygon fill="none" stroke="#000000" points="142.5569,-394.6564 153.0568,-424.6565 163.5569,-394.6565 142.5569,-394.6564"/>
</g>
<!-- 6 -->
<g id="node7" class="node">
<title>6</title>
<polygon fill="#f2f2f2" stroke="#000000" points="246.514,-.5 246.514,-158.9 433.5996,-158.9 433.5996,-.5 246.514,-.5"/>
<text text-anchor="middle" x="340.0568" y="-142.3" font-family="Times,serif" font-size="14.00" fill="#000000">TenToken</text>
<polyline fill="none" stroke="#000000" points="246.514,-134.1 433.5996,-134.1 "/>
<text text-anchor="start" x="254.514" y="-117.5" font-family="Times,serif" font-size="14.00" fill="#000000">Public:</text>
<text text-anchor="start" x="254.514" y="-100.7" font-family="Times,serif" font-size="14.00" fill="#000000"> &#160;&#160;name: string</text>
<text text-anchor="start" x="254.514" y="-83.9" font-family="Times,serif" font-size="14.00" fill="#000000"> &#160;&#160;symbol: string</text>
<text text-anchor="start" x="254.514" y="-67.1" font-family="Times,serif" font-size="14.00" fill="#000000"> &#160;&#160;decimals: uint8</text>
<text text-anchor="start" x="254.514" y="-50.3" font-family="Times,serif" font-size="14.00" fill="#000000"> &#160;&#160;INITIAL_SUPPLY: uint256</text>
<polyline fill="none" stroke="#000000" points="246.514,-42.1 433.5996,-42.1 "/>
<text text-anchor="start" x="254.514" y="-25.5" font-family="Times,serif" font-size="14.00" fill="#000000">Public:</text>
<text text-anchor="start" x="254.514" y="-8.7" font-family="Times,serif" font-size="14.00" fill="#000000"> &#160;&#160;&#160;constructor()</text>
</g>
<!-- 6&#45;&gt;4 -->
<g id="edge7" class="edge">
<title>6&#45;&gt;4</title>
<path fill="none" stroke="#000000" d="M412.8913,-159.078C417.3043,-163.8874 421.7818,-168.7672 426.282,-173.6717"/>
<polygon fill="none" stroke="#000000" points="418.656,-180.8911 446.6752,-195.897 434.1293,-166.6933 418.656,-180.8911"/>
</g>
<!-- 6&#45;&gt;5 -->
<g id="edge8" class="edge">
<title>6&#45;&gt;5</title>
<path fill="none" stroke="#000000" d="M267.2223,-159.078C252.7529,-174.8473 237.5884,-191.3741 223.2108,-207.0434"/>
<polygon fill="none" stroke="#000000" points="215.4274,-199.9954 202.8815,-229.199 230.9008,-214.1932 215.4274,-199.9954"/>
</g>
</g>
</svg>
