<?xml version="1.0" encoding="UTF-8" standalone="no"?>
<!DOCTYPE svg PUBLIC "-//W3C//DTD SVG 1.1//EN"
 "http://www.w3.org/Graphics/SVG/1.1/DTD/svg11.dtd">
<!-- Generated by graphviz version 2.40.1 (20161225.0304)
 -->
<!-- Title: UmlClassDiagram Pages: 1 -->
<svg width="1281pt" height="1296pt"
 viewBox="0.00 0.00 1281.17 1295.60" xmlns="http://www.w3.org/2000/svg" xmlns:xlink="http://www.w3.org/1999/xlink">
<g id="graph0" class="graph" transform="scale(1 1) rotate(0) translate(4 1291.6)">
<title>UmlClassDiagram</title>
<polygon fill="#ffffff" stroke="transparent" points="-4,4 -4,-1291.6 1277.1695,-1291.6 1277.1695,4 -4,4"/>
<!-- 6 -->
<g id="node1" class="node">
<title>6</title>
<polygon fill="#f2f2f2" stroke="#000000" points="781.5211,-899.7 781.5211,-1091.7 995.1031,-1091.7 995.1031,-899.7 781.5211,-899.7"/>
<text text-anchor="middle" x="888.3121" y="-1075.1" font-family="Times,serif" font-size="14.00" fill="#000000">Pausable</text>
<polyline fill="none" stroke="#000000" points="781.5211,-1066.9 995.1031,-1066.9 "/>
<text text-anchor="start" x="789.5211" y="-1050.3" font-family="Times,serif" font-size="14.00" fill="#000000">Public:</text>
<text text-anchor="start" x="789.5211" y="-1033.5" font-family="Times,serif" font-size="14.00" fill="#000000"> &#160;&#160;paused: bool</text>
<polyline fill="none" stroke="#000000" points="781.5211,-1025.3 995.1031,-1025.3 "/>
<text text-anchor="start" x="789.5211" y="-1008.7" font-family="Times,serif" font-size="14.00" fill="#000000">Public:</text>
<text text-anchor="start" x="789.5211" y="-991.9" font-family="Times,serif" font-size="14.00" fill="#000000"> &#160;&#160;&#160;&lt;&lt;event&gt;&gt; Pause()</text>
<text text-anchor="start" x="789.5211" y="-975.1" font-family="Times,serif" font-size="14.00" fill="#000000"> &#160;&#160;&#160;&lt;&lt;event&gt;&gt; Unpause()</text>
<text text-anchor="start" x="789.5211" y="-958.3" font-family="Times,serif" font-size="14.00" fill="#000000"> &#160;&#160;&#160;&lt;&lt;modifier&gt;&gt; whenNotPaused()</text>
<text text-anchor="start" x="789.5211" y="-941.5" font-family="Times,serif" font-size="14.00" fill="#000000"> &#160;&#160;&#160;&lt;&lt;modifier&gt;&gt; whenPaused()</text>
<text text-anchor="start" x="789.5211" y="-924.7" font-family="Times,serif" font-size="14.00" fill="#000000"> &#160;&#160;&#160;pause()</text>
<text text-anchor="start" x="789.5211" y="-907.9" font-family="Times,serif" font-size="14.00" fill="#000000"> &#160;&#160;&#160;unpause()</text>
</g>
<!-- 4 -->
<g id="node5" class="node">
<title>4</title>
<polygon fill="#f2f2f2" stroke="#000000" points="772.8751,-1128.7 772.8751,-1287.1 1257.7491,-1287.1 1257.7491,-1128.7 772.8751,-1128.7"/>
<text text-anchor="middle" x="1015.3121" y="-1270.5" font-family="Times,serif" font-size="14.00" fill="#000000">Ownable</text>
<polyline fill="none" stroke="#000000" points="772.8751,-1262.3 1257.7491,-1262.3 "/>
<text text-anchor="start" x="780.8751" y="-1245.7" font-family="Times,serif" font-size="14.00" fill="#000000">Public:</text>
<text text-anchor="start" x="780.8751" y="-1228.9" font-family="Times,serif" font-size="14.00" fill="#000000"> &#160;&#160;owner: address</text>
<polyline fill="none" stroke="#000000" points="772.8751,-1220.7 1257.7491,-1220.7 "/>
<text text-anchor="start" x="780.8751" y="-1204.1" font-family="Times,serif" font-size="14.00" fill="#000000">Public:</text>
<text text-anchor="start" x="780.8751" y="-1187.3" font-family="Times,serif" font-size="14.00" fill="#000000"> &#160;&#160;&#160;&lt;&lt;event&gt;&gt; OwnershipTransferred(previousOwner: address, newOwner: address)</text>
<text text-anchor="start" x="780.8751" y="-1170.5" font-family="Times,serif" font-size="14.00" fill="#000000"> &#160;&#160;&#160;&lt;&lt;modifier&gt;&gt; onlyOwner()</text>
<text text-anchor="start" x="780.8751" y="-1153.7" font-family="Times,serif" font-size="14.00" fill="#000000"> &#160;&#160;&#160;constructor()</text>
<text text-anchor="start" x="780.8751" y="-1136.9" font-family="Times,serif" font-size="14.00" fill="#000000"> &#160;&#160;&#160;transferOwnership(newOwner: address)</text>
</g>
<!-- 6&#45;&gt;4 -->
<g id="edge1" class="edge">
<title>6&#45;&gt;4</title>
<path fill="none" stroke="#000000" d="M945.8667,-1091.8661C948.0489,-1095.5122 950.2406,-1099.1742 952.4312,-1102.8345"/>
<polygon fill="none" stroke="#000000" points="943.4253,-1108.2331 967.8414,-1128.5828 961.4447,-1097.4486 943.4253,-1108.2331"/>
</g>
<!-- 0 -->
<g id="node2" class="node">
<title>0</title>
<polygon fill="#f2f2f2" stroke="#000000" points="69.5817,-916.5 69.5817,-1074.9 453.0425,-1074.9 453.0425,-916.5 69.5817,-916.5"/>
<text text-anchor="middle" x="261.3121" y="-1058.3" font-family="Times,serif" font-size="14.00" fill="#000000">&lt;&lt;Abstract&gt;&gt;</text>
<text text-anchor="middle" x="261.3121" y="-1041.5" font-family="Times,serif" font-size="14.00" fill="#000000">ERC20Basic</text>
<polyline fill="none" stroke="#000000" points="69.5817,-1033.3 453.0425,-1033.3 "/>
<text text-anchor="start" x="77.5817" y="-1016.7" font-family="Times,serif" font-size="14.00" fill="#000000">Public:</text>
<text text-anchor="start" x="77.5817" y="-999.9" font-family="Times,serif" font-size="14.00" fill="#000000"> &#160;&#160;totalSupply: uint256</text>
<polyline fill="none" stroke="#000000" points="69.5817,-991.7 453.0425,-991.7 "/>
<text text-anchor="start" x="77.5817" y="-975.1" font-family="Times,serif" font-size="14.00" fill="#000000">Public:</text>
<text text-anchor="start" x="77.5817" y="-958.3" font-family="Times,serif" font-size="14.00" fill="#000000"> &#160;&#160;&#160;&lt;&lt;abstract&gt;&gt; balanceOf(who: address): uint256</text>
<text text-anchor="start" x="77.5817" y="-941.5" font-family="Times,serif" font-size="14.00" fill="#000000"> &#160;&#160;&#160;&lt;&lt;abstract&gt;&gt; transfer(to: address, value: uint256): bool</text>
<text text-anchor="start" x="77.5817" y="-924.7" font-family="Times,serif" font-size="14.00" fill="#000000"> &#160;&#160;&#160;&lt;&lt;event&gt;&gt; Transfer(from: address, to: address, value: uint256)</text>
</g>
<!-- 2 -->
<g id="node3" class="node">
<title>2</title>
<polygon fill="#f2f2f2" stroke="#000000" points="472.4014,-687.5 472.4014,-812.3 770.2228,-812.3 770.2228,-687.5 472.4014,-687.5"/>
<text text-anchor="middle" x="621.3121" y="-795.7" font-family="Times,serif" font-size="14.00" fill="#000000">BasicToken</text>
<polyline fill="none" stroke="#000000" points="472.4014,-787.5 770.2228,-787.5 "/>
<text text-anchor="start" x="480.4014" y="-770.9" font-family="Times,serif" font-size="14.00" fill="#000000">Public:</text>
<text text-anchor="start" x="480.4014" y="-754.1" font-family="Times,serif" font-size="14.00" fill="#000000"> &#160;&#160;balances: mapping(address=&gt;uint256)</text>
<polyline fill="none" stroke="#000000" points="472.4014,-745.9 770.2228,-745.9 "/>
<text text-anchor="start" x="480.4014" y="-729.3" font-family="Times,serif" font-size="14.00" fill="#000000">Public:</text>
<text text-anchor="start" x="480.4014" y="-712.5" font-family="Times,serif" font-size="14.00" fill="#000000"> &#160;&#160;&#160;transfer(_to: address, _value: uint256): bool</text>
<text text-anchor="start" x="480.4014" y="-695.7" font-family="Times,serif" font-size="14.00" fill="#000000"> &#160;&#160;&#160;balanceOf(_owner: address): (balance: uint256)</text>
</g>
<!-- 2&#45;&gt;0 -->
<g id="edge2" class="edge">
<title>2&#45;&gt;0</title>
<path fill="none" stroke="#000000" d="M535.2569,-812.5912C512.0385,-829.236 486.8313,-847.064 463.3121,-863.2 445.8766,-875.1621 427.4743,-887.5515 409.1621,-899.7359"/>
<polygon fill="none" stroke="#000000" points="403.1169,-891.1454 383.897,-916.4603 414.7085,-908.6564 403.1169,-891.1454"/>
</g>
<!-- 5 -->
<g id="node6" class="node">
<title>5</title>
<polygon fill="#f2f2f2" stroke="#000000" points="505.3959,-916.5 505.3959,-1074.9 737.2283,-1074.9 737.2283,-916.5 505.3959,-916.5"/>
<text text-anchor="middle" x="621.3121" y="-1058.3" font-family="Times,serif" font-size="14.00" fill="#000000">&lt;&lt;Library&gt;&gt;</text>
<text text-anchor="middle" x="621.3121" y="-1041.5" font-family="Times,serif" font-size="14.00" fill="#000000">SafeMath</text>
<polyline fill="none" stroke="#000000" points="505.3959,-1033.3 737.2283,-1033.3 "/>
<text text-anchor="middle" x="621.3121" y="-1016.7" font-family="Times,serif" font-size="14.00" fill="#000000"> </text>
<polyline fill="none" stroke="#000000" points="505.3959,-1008.5 737.2283,-1008.5 "/>
<text text-anchor="start" x="513.3959" y="-991.9" font-family="Times,serif" font-size="14.00" fill="#000000">Internal:</text>
<text text-anchor="start" x="513.3959" y="-975.1" font-family="Times,serif" font-size="14.00" fill="#000000"> &#160;&#160;&#160;mul(a: uint256, b: uint256): uint256</text>
<text text-anchor="start" x="513.3959" y="-958.3" font-family="Times,serif" font-size="14.00" fill="#000000"> &#160;&#160;&#160;div(a: uint256, b: uint256): uint256</text>
<text text-anchor="start" x="513.3959" y="-941.5" font-family="Times,serif" font-size="14.00" fill="#000000"> &#160;&#160;&#160;sub(a: uint256, b: uint256): uint256</text>
<text text-anchor="start" x="513.3959" y="-924.7" font-family="Times,serif" font-size="14.00" fill="#000000"> &#160;&#160;&#160;add(a: uint256, b: uint256): uint256</text>
</g>
<!-- 2&#45;&gt;5 -->
<g id="edge3" class="edge">
<title>2&#45;&gt;5</title>
<path fill="none" stroke="#000000" stroke-dasharray="5,2" d="M621.3121,-812.5617C621.3121,-840.931 621.3121,-874.9894 621.3121,-905.9994"/>
<polygon fill="#000000" stroke="#000000" points="617.8122,-906.3862 621.3121,-916.3863 624.8122,-906.3863 617.8122,-906.3862"/>
</g>
<!-- 3 -->
<g id="node4" class="node">
<title>3</title>
<polygon fill="#f2f2f2" stroke="#000000" points="388.6247,-424.9 388.6247,-600.1 853.9995,-600.1 853.9995,-424.9 388.6247,-424.9"/>
<text text-anchor="middle" x="621.3121" y="-583.5" font-family="Times,serif" font-size="14.00" fill="#000000">StandardToken</text>
<polyline fill="none" stroke="#000000" points="388.6247,-575.3 853.9995,-575.3 "/>
<text text-anchor="start" x="396.6247" y="-558.7" font-family="Times,serif" font-size="14.00" fill="#000000">Public:</text>
<text text-anchor="start" x="396.6247" y="-541.9" font-family="Times,serif" font-size="14.00" fill="#000000"> &#160;&#160;allowed: mapping(address=&gt;mapping(address=&gt;uint256))</text>
<polyline fill="none" stroke="#000000" points="388.6247,-533.7 853.9995,-533.7 "/>
<text text-anchor="start" x="396.6247" y="-517.1" font-family="Times,serif" font-size="14.00" fill="#000000">Public:</text>
<text text-anchor="start" x="396.6247" y="-500.3" font-family="Times,serif" font-size="14.00" fill="#000000"> &#160;&#160;&#160;transferFrom(_from: address, _to: address, _value: uint256): bool</text>
<text text-anchor="start" x="396.6247" y="-483.5" font-family="Times,serif" font-size="14.00" fill="#000000"> &#160;&#160;&#160;approve(_spender: address, _value: uint256): bool</text>
<text text-anchor="start" x="396.6247" y="-466.7" font-family="Times,serif" font-size="14.00" fill="#000000"> &#160;&#160;&#160;allowance(_owner: address, _spender: address): (remaining: uint256)</text>
<text text-anchor="start" x="396.6247" y="-449.9" font-family="Times,serif" font-size="14.00" fill="#000000"> &#160;&#160;&#160;increaseApproval(_spender: address, _addedValue: uint): (success: bool)</text>
<text text-anchor="start" x="396.6247" y="-433.1" font-family="Times,serif" font-size="14.00" fill="#000000"> &#160;&#160;&#160;decreaseApproval(_spender: address, _subtractedValue: uint): (success: bool)</text>
</g>
<!-- 3&#45;&gt;2 -->
<g id="edge5" class="edge">
<title>3&#45;&gt;2</title>
<path fill="none" stroke="#000000" d="M621.3121,-600.2245C621.3121,-618.7553 621.3121,-638.3691 621.3121,-657.0808"/>
<polygon fill="none" stroke="#000000" points="610.8122,-657.3695 621.3121,-687.3695 631.8122,-657.3696 610.8122,-657.3695"/>
</g>
<!-- 1 -->
<g id="node7" class="node">
<title>1</title>
<polygon fill="#f2f2f2" stroke="#000000" points="0,-670.7 0,-829.1 454.6242,-829.1 454.6242,-670.7 0,-670.7"/>
<text text-anchor="middle" x="227.3121" y="-812.5" font-family="Times,serif" font-size="14.00" fill="#000000">&lt;&lt;Abstract&gt;&gt;</text>
<text text-anchor="middle" x="227.3121" y="-795.7" font-family="Times,serif" font-size="14.00" fill="#000000">ERC20</text>
<polyline fill="none" stroke="#000000" points="0,-787.5 454.6242,-787.5 "/>
<text text-anchor="middle" x="227.3121" y="-770.9" font-family="Times,serif" font-size="14.00" fill="#000000"> </text>
<polyline fill="none" stroke="#000000" points="0,-762.7 454.6242,-762.7 "/>
<text text-anchor="start" x="8" y="-746.1" font-family="Times,serif" font-size="14.00" fill="#000000">Public:</text>
<text text-anchor="start" x="8" y="-729.3" font-family="Times,serif" font-size="14.00" fill="#000000"> &#160;&#160;&#160;&lt;&lt;abstract&gt;&gt; allowance(owner: address, spender: address): uint256</text>
<text text-anchor="start" x="8" y="-712.5" font-family="Times,serif" font-size="14.00" fill="#000000"> &#160;&#160;&#160;&lt;&lt;abstract&gt;&gt; transferFrom(from: address, to: address, value: uint256): bool</text>
<text text-anchor="start" x="8" y="-695.7" font-family="Times,serif" font-size="14.00" fill="#000000"> &#160;&#160;&#160;&lt;&lt;abstract&gt;&gt; approve(spender: address, value: uint256): bool</text>
<text text-anchor="start" x="8" y="-678.9" font-family="Times,serif" font-size="14.00" fill="#000000"> &#160;&#160;&#160;&lt;&lt;event&gt;&gt; Approval(owner: address, spender: address, value: uint256)</text>
</g>
<!-- 3&#45;&gt;1 -->
<g id="edge4" class="edge">
<title>3&#45;&gt;1</title>
<path fill="none" stroke="#000000" d="M475.7205,-600.2245C446.1347,-618.051 414.8857,-636.8798 384.9061,-654.9436"/>
<polygon fill="none" stroke="#000000" points="379.2379,-646.1001 358.9609,-670.5766 390.0759,-664.0873 379.2379,-646.1001"/>
</g>
<!-- 1&#45;&gt;0 -->
<g id="edge6" class="edge">
<title>1&#45;&gt;0</title>
<path fill="none" stroke="#000000" d="M238.304,-829.3648C240.81,-847.4815 243.5158,-867.0434 246.1613,-886.1684"/>
<polygon fill="none" stroke="#000000" points="235.7882,-887.8098 250.2999,-916.0881 256.5902,-884.9323 235.7882,-887.8098"/>
</g>
<!-- 7 -->
<g id="node8" class="node">
<title>7</title>
<polygon fill="#f2f2f2" stroke="#000000" points="1013.4547,-933.3 1013.4547,-1058.1 1273.1695,-1058.1 1273.1695,-933.3 1013.4547,-933.3"/>
<text text-anchor="middle" x="1143.3121" y="-1041.5" font-family="Times,serif" font-size="14.00" fill="#000000">evxOwnable</text>
<polyline fill="none" stroke="#000000" points="1013.4547,-1033.3 1273.1695,-1033.3 "/>
<text text-anchor="start" x="1021.4547" y="-1016.7" font-family="Times,serif" font-size="14.00" fill="#000000">Public:</text>
<text text-anchor="start" x="1021.4547" y="-999.9" font-family="Times,serif" font-size="14.00" fill="#000000"> &#160;&#160;newOwner: address</text>
<polyline fill="none" stroke="#000000" points="1013.4547,-991.7 1273.1695,-991.7 "/>
<text text-anchor="start" x="1021.4547" y="-975.1" font-family="Times,serif" font-size="14.00" fill="#000000">Public:</text>
<text text-anchor="start" x="1021.4547" y="-958.3" font-family="Times,serif" font-size="14.00" fill="#000000"> &#160;&#160;&#160;transferOwnership(otherOwner: address)</text>
<text text-anchor="start" x="1021.4547" y="-941.5" font-family="Times,serif" font-size="14.00" fill="#000000"> &#160;&#160;&#160;approveOwnership()</text>
</g>
<!-- 7&#45;&gt;4 -->
<g id="edge7" class="edge">
<title>7&#45;&gt;4</title>
<path fill="none" stroke="#000000" d="M1105.6002,-1058.2193C1097.1485,-1072.2307 1087.9564,-1087.4693 1078.779,-1102.6838"/>
<polygon fill="none" stroke="#000000" points="1069.7294,-1097.3578 1063.2249,-1128.4696 1087.7112,-1108.2046 1069.7294,-1097.3578"/>
</g>
<!-- 8 -->
<g id="node9" class="node">
<title>8</title>
<polygon fill="#f2f2f2" stroke="#000000" points="954.4575,-637.1 954.4575,-862.7 1256.1667,-862.7 1256.1667,-637.1 954.4575,-637.1"/>
<text text-anchor="middle" x="1105.3121" y="-846.1" font-family="Times,serif" font-size="14.00" fill="#000000">evxModerated</text>
<polyline fill="none" stroke="#000000" points="954.4575,-837.9 1256.1667,-837.9 "/>
<text text-anchor="start" x="962.4575" y="-821.3" font-family="Times,serif" font-size="14.00" fill="#000000">Public:</text>
<text text-anchor="start" x="962.4575" y="-804.5" font-family="Times,serif" font-size="14.00" fill="#000000"> &#160;&#160;moderator: address</text>
<text text-anchor="start" x="962.4575" y="-787.7" font-family="Times,serif" font-size="14.00" fill="#000000"> &#160;&#160;newModerator: address</text>
<polyline fill="none" stroke="#000000" points="954.4575,-779.5 1256.1667,-779.5 "/>
<text text-anchor="start" x="962.4575" y="-762.9" font-family="Times,serif" font-size="14.00" fill="#000000">Public:</text>
<text text-anchor="start" x="962.4575" y="-746.1" font-family="Times,serif" font-size="14.00" fill="#000000"> &#160;&#160;&#160;&lt;&lt;modifier&gt;&gt; onlyModerator()</text>
<text text-anchor="start" x="962.4575" y="-729.3" font-family="Times,serif" font-size="14.00" fill="#000000"> &#160;&#160;&#160;&lt;&lt;modifier&gt;&gt; onlyOwnerOrModerator()</text>
<text text-anchor="start" x="962.4575" y="-712.5" font-family="Times,serif" font-size="14.00" fill="#000000"> &#160;&#160;&#160;constructor()</text>
<text text-anchor="start" x="962.4575" y="-695.7" font-family="Times,serif" font-size="14.00" fill="#000000"> &#160;&#160;&#160;transferModeratorship(otherModerator: address)</text>
<text text-anchor="start" x="962.4575" y="-678.9" font-family="Times,serif" font-size="14.00" fill="#000000"> &#160;&#160;&#160;approveModeratorship()</text>
<text text-anchor="start" x="962.4575" y="-662.1" font-family="Times,serif" font-size="14.00" fill="#000000"> &#160;&#160;&#160;removeModeratorship()</text>
<text text-anchor="start" x="962.4575" y="-645.3" font-family="Times,serif" font-size="14.00" fill="#000000"> &#160;&#160;&#160;hasModerator(): bool</text>
</g>
<!-- 8&#45;&gt;7 -->
<g id="edge8" class="edge">
<title>8&#45;&gt;7</title>
<path fill="none" stroke="#000000" d="M1122.7551,-862.7284C1124.8622,-876.3585 1126.9951,-890.1549 1129.0491,-903.441"/>
<polygon fill="none" stroke="#000000" points="1118.6891,-905.1539 1133.6494,-933.1975 1139.4426,-901.9454 1118.6891,-905.1539"/>
</g>
<!-- 9 -->
<g id="node10" class="node">
<title>9</title>
<polygon fill="#f2f2f2" stroke="#000000" points="872.324,-458.5 872.324,-566.5 958.3002,-566.5 958.3002,-458.5 872.324,-458.5"/>
<text text-anchor="middle" x="915.3121" y="-549.9" font-family="Times,serif" font-size="14.00" fill="#000000">evxPausable</text>
<polyline fill="none" stroke="#000000" points="872.324,-541.7 958.3002,-541.7 "/>
<text text-anchor="middle" x="915.3121" y="-525.1" font-family="Times,serif" font-size="14.00" fill="#000000"> </text>
<polyline fill="none" stroke="#000000" points="872.324,-516.9 958.3002,-516.9 "/>
<text text-anchor="start" x="880.324" y="-500.3" font-family="Times,serif" font-size="14.00" fill="#000000">Public:</text>
<text text-anchor="start" x="880.324" y="-483.5" font-family="Times,serif" font-size="14.00" fill="#000000"> &#160;&#160;&#160;pause()</text>
<text text-anchor="start" x="880.324" y="-466.7" font-family="Times,serif" font-size="14.00" fill="#000000"> &#160;&#160;&#160;unpause()</text>
</g>
<!-- 9&#45;&gt;6 -->
<g id="edge9" class="edge">
<title>9&#45;&gt;6</title>
<path fill="none" stroke="#000000" d="M912.2934,-566.5227C908.2243,-639.3454 900.8561,-771.2084 895.3569,-869.6233"/>
<polygon fill="none" stroke="#000000" points="884.8701,-869.0969 893.6799,-899.636 905.8374,-870.2686 884.8701,-869.0969"/>
</g>
<!-- 9&#45;&gt;8 -->
<g id="edge10" class="edge">
<title>9&#45;&gt;8</title>
<path fill="none" stroke="#000000" d="M958.426,-566.3697C969.8864,-580.6891 982.7999,-596.8243 996.0935,-613.4342"/>
<polygon fill="none" stroke="#000000" points="988.0853,-620.2321 1015.0288,-637.0934 1004.4809,-607.1101 988.0853,-620.2321"/>
</g>
<!-- 10 -->
<g id="node11" class="node">
<title>10</title>
<polygon fill="#f2f2f2" stroke="#000000" points="538.7075,-195.9 538.7075,-387.9 997.9167,-387.9 997.9167,-195.9 538.7075,-195.9"/>
<text text-anchor="middle" x="768.3121" y="-371.3" font-family="Times,serif" font-size="14.00" fill="#000000">evxModeratedToken</text>
<polyline fill="none" stroke="#000000" points="538.7075,-363.1 997.9167,-363.1 "/>
<text text-anchor="start" x="546.7075" y="-346.5" font-family="Times,serif" font-size="14.00" fill="#000000">Public:</text>
<text text-anchor="start" x="546.7075" y="-329.7" font-family="Times,serif" font-size="14.00" fill="#000000"> &#160;&#160;frozen: mapping(address=&gt;bool)</text>
<polyline fill="none" stroke="#000000" points="538.7075,-321.5 997.9167,-321.5 "/>
<text text-anchor="start" x="546.7075" y="-304.9" font-family="Times,serif" font-size="14.00" fill="#000000">Public:</text>
<text text-anchor="start" x="546.7075" y="-288.1" font-family="Times,serif" font-size="14.00" fill="#000000"> &#160;&#160;&#160;isFrozen(_addr: address): bool</text>
<text text-anchor="start" x="546.7075" y="-271.3" font-family="Times,serif" font-size="14.00" fill="#000000"> &#160;&#160;&#160;freeze(_addr: address)</text>
<text text-anchor="start" x="546.7075" y="-254.5" font-family="Times,serif" font-size="14.00" fill="#000000"> &#160;&#160;&#160;unfreeze(_addr: address)</text>
<text text-anchor="start" x="546.7075" y="-237.7" font-family="Times,serif" font-size="14.00" fill="#000000"> &#160;&#160;&#160;transfer(_to: address, _value: uint256): bool</text>
<text text-anchor="start" x="546.7075" y="-220.9" font-family="Times,serif" font-size="14.00" fill="#000000"> &#160;&#160;&#160;transferFrom(_from: address, _to: address, _value: uint256): bool</text>
<text text-anchor="start" x="546.7075" y="-204.1" font-family="Times,serif" font-size="14.00" fill="#000000"> &#160;&#160;&#160;moderatorTransferFrom(_from: address, _to: address, _value: uint256): bool</text>
</g>
<!-- 10&#45;&gt;3 -->
<g id="edge11" class="edge">
<title>10&#45;&gt;3</title>
<path fill="none" stroke="#000000" d="M704.2634,-388.0166C701.7247,-391.8264 699.1707,-395.6592 696.6138,-399.4963"/>
<polygon fill="none" stroke="#000000" points="687.7259,-393.8991 679.8278,-424.6866 705.2014,-405.5441 687.7259,-393.8991"/>
</g>
<!-- 10&#45;&gt;9 -->
<g id="edge12" class="edge">
<title>10&#45;&gt;9</title>
<path fill="none" stroke="#000000" d="M838.8441,-388.1789C847.2513,-400.264 855.5843,-412.5435 863.3121,-424.4 865.082,-427.1155 866.8638,-429.8915 868.6468,-432.7057"/>
<polygon fill="none" stroke="#000000" points="859.8044,-438.3719 884.4385,-458.457 877.7063,-427.3937 859.8044,-438.3719"/>
</g>
<!-- 11 -->
<g id="node12" class="node">
<title>11</title>
<polygon fill="#f2f2f2" stroke="#000000" points="652.4071,-.5 652.4071,-158.9 884.2171,-158.9 884.2171,-.5 652.4071,-.5"/>
<text text-anchor="middle" x="768.3121" y="-142.3" font-family="Times,serif" font-size="14.00" fill="#000000">EVXToken</text>
<polyline fill="none" stroke="#000000" points="652.4071,-134.1 884.2171,-134.1 "/>
<text text-anchor="start" x="660.4071" y="-117.5" font-family="Times,serif" font-size="14.00" fill="#000000">Public:</text>
<text text-anchor="start" x="660.4071" y="-100.7" font-family="Times,serif" font-size="14.00" fill="#000000"> &#160;&#160;version: string</text>
<text text-anchor="start" x="660.4071" y="-83.9" font-family="Times,serif" font-size="14.00" fill="#000000"> &#160;&#160;name: string</text>
<text text-anchor="start" x="660.4071" y="-67.1" font-family="Times,serif" font-size="14.00" fill="#000000"> &#160;&#160;symbol: string</text>
<text text-anchor="start" x="660.4071" y="-50.3" font-family="Times,serif" font-size="14.00" fill="#000000"> &#160;&#160;decimals: uint256</text>
<polyline fill="none" stroke="#000000" points="652.4071,-42.1 884.2171,-42.1 "/>
<text text-anchor="start" x="660.4071" y="-25.5" font-family="Times,serif" font-size="14.00" fill="#000000">Public:</text>
<text text-anchor="start" x="660.4071" y="-8.7" font-family="Times,serif" font-size="14.00" fill="#000000"> &#160;&#160;&#160;constructor(_initialSupply: uint256)</text>
</g>
<!-- 11&#45;&gt;10 -->
<g id="edge13" class="edge">
<title>11&#45;&gt;10</title>
<path fill="none" stroke="#000000" d="M768.3121,-159.0172C768.3121,-161.2686 768.3121,-163.5372 768.3121,-165.8186"/>
<polygon fill="none" stroke="#000000" points="757.8122,-165.8367 768.3121,-195.8367 778.8122,-165.8368 757.8122,-165.8367"/>
</g>
</g>
</svg>
