<?xml version="1.0" encoding="UTF-8" standalone="no"?>
<!DOCTYPE svg PUBLIC "-//W3C//DTD SVG 1.1//EN"
 "http://www.w3.org/Graphics/SVG/1.1/DTD/svg11.dtd">
<!-- Generated by graphviz version 2.40.1 (20161225.0304)
 -->
<!-- Title: UmlClassDiagram Pages: 1 -->
<svg width="1322pt" height="1602pt"
 viewBox="0.00 0.00 1321.54 1602.40" xmlns="http://www.w3.org/2000/svg" xmlns:xlink="http://www.w3.org/1999/xlink">
<g id="graph0" class="graph" transform="scale(1 1) rotate(0) translate(4 1598.4)">
<title>UmlClassDiagram</title>
<polygon fill="#ffffff" stroke="transparent" points="-4,4 -4,-1598.4 1317.5352,-1598.4 1317.5352,4 -4,4"/>
<!-- 8 -->
<g id="node1" class="node">
<title>8</title>
<polygon fill="#f2f2f2" stroke="#000000" points="703.525,-332.5 703.525,-457.3 1056.2964,-457.3 1056.2964,-332.5 703.525,-332.5"/>
<text text-anchor="middle" x="879.9107" y="-440.7" font-family="Times,serif" font-size="14.00" fill="#000000">BurnableToken</text>
<polyline fill="none" stroke="#000000" points="703.525,-432.5 1056.2964,-432.5 "/>
<text text-anchor="start" x="711.525" y="-415.9" font-family="Times,serif" font-size="14.00" fill="#000000">Public:</text>
<text text-anchor="start" x="711.525" y="-399.1" font-family="Times,serif" font-size="14.00" fill="#000000"> &#160;&#160;BURN_ADDRESS: address</text>
<polyline fill="none" stroke="#000000" points="703.525,-390.9 1056.2964,-390.9 "/>
<text text-anchor="start" x="711.525" y="-374.3" font-family="Times,serif" font-size="14.00" fill="#000000">Public:</text>
<text text-anchor="start" x="711.525" y="-357.5" font-family="Times,serif" font-size="14.00" fill="#000000"> &#160;&#160;&#160;&lt;&lt;event&gt;&gt; Burned(burner: address, burnedAmount: uint)</text>
<text text-anchor="start" x="711.525" y="-340.7" font-family="Times,serif" font-size="14.00" fill="#000000"> &#160;&#160;&#160;burn(burnAmount: uint)</text>
</g>
<!-- 7 -->
<g id="node8" class="node">
<title>7</title>
<polygon fill="#f2f2f2" stroke="#000000" points="642.5509,-874.5 642.5509,-965.7 813.2705,-965.7 813.2705,-874.5 642.5509,-874.5"/>
<text text-anchor="middle" x="727.9107" y="-949.1" font-family="Times,serif" font-size="14.00" fill="#000000">StandardTokenExt</text>
<polyline fill="none" stroke="#000000" points="642.5509,-940.9 813.2705,-940.9 "/>
<text text-anchor="middle" x="727.9107" y="-924.3" font-family="Times,serif" font-size="14.00" fill="#000000"> </text>
<polyline fill="none" stroke="#000000" points="642.5509,-916.1 813.2705,-916.1 "/>
<text text-anchor="start" x="650.5509" y="-899.5" font-family="Times,serif" font-size="14.00" fill="#000000">Public:</text>
<text text-anchor="start" x="650.5509" y="-882.7" font-family="Times,serif" font-size="14.00" fill="#000000"> &#160;&#160;&#160;isToken(): (weAre: bool)</text>
</g>
<!-- 8&#45;&gt;7 -->
<g id="edge2" class="edge">
<title>8&#45;&gt;7</title>
<path fill="none" stroke="#000000" d="M883.2518,-457.6253C887.6158,-558.7193 891.4621,-752.4596 860.9107,-812.8 853.1085,-828.2096 841.9765,-842.1598 829.4327,-854.5174"/>
<polygon fill="none" stroke="#000000" points="822.3112,-846.7952 806.5458,-874.3942 836.0811,-862.6505 822.3112,-846.7952"/>
</g>
<!-- 0 -->
<g id="node2" class="node">
<title>0</title>
<polygon fill="#f2f2f2" stroke="#000000" points="351.1803,-1435.5 351.1803,-1593.9 734.6411,-1593.9 734.6411,-1435.5 351.1803,-1435.5"/>
<text text-anchor="middle" x="542.9107" y="-1577.3" font-family="Times,serif" font-size="14.00" fill="#000000">&lt;&lt;Abstract&gt;&gt;</text>
<text text-anchor="middle" x="542.9107" y="-1560.5" font-family="Times,serif" font-size="14.00" fill="#000000">ERC20Basic</text>
<polyline fill="none" stroke="#000000" points="351.1803,-1552.3 734.6411,-1552.3 "/>
<text text-anchor="middle" x="542.9107" y="-1535.7" font-family="Times,serif" font-size="14.00" fill="#000000"> </text>
<polyline fill="none" stroke="#000000" points="351.1803,-1527.5 734.6411,-1527.5 "/>
<text text-anchor="start" x="359.1803" y="-1510.9" font-family="Times,serif" font-size="14.00" fill="#000000">Public:</text>
<text text-anchor="start" x="359.1803" y="-1494.1" font-family="Times,serif" font-size="14.00" fill="#000000"> &#160;&#160;&#160;&lt;&lt;abstract&gt;&gt; totalSupply(): uint256</text>
<text text-anchor="start" x="359.1803" y="-1477.3" font-family="Times,serif" font-size="14.00" fill="#000000"> &#160;&#160;&#160;&lt;&lt;abstract&gt;&gt; balanceOf(who: address): uint256</text>
<text text-anchor="start" x="359.1803" y="-1460.5" font-family="Times,serif" font-size="14.00" fill="#000000"> &#160;&#160;&#160;&lt;&lt;abstract&gt;&gt; transfer(to: address, value: uint256): bool</text>
<text text-anchor="start" x="359.1803" y="-1443.7" font-family="Times,serif" font-size="14.00" fill="#000000"> &#160;&#160;&#160;&lt;&lt;event&gt;&gt; Transfer(from: address, to: address, value: uint256)</text>
</g>
<!-- 2 -->
<g id="node3" class="node">
<title>2</title>
<polygon fill="#f2f2f2" stroke="#000000" points="0,-1240.1 0,-1398.5 297.8214,-1398.5 297.8214,-1240.1 0,-1240.1"/>
<text text-anchor="middle" x="148.9107" y="-1381.9" font-family="Times,serif" font-size="14.00" fill="#000000">BasicToken</text>
<polyline fill="none" stroke="#000000" points="0,-1373.7 297.8214,-1373.7 "/>
<text text-anchor="start" x="8" y="-1357.1" font-family="Times,serif" font-size="14.00" fill="#000000">Public:</text>
<text text-anchor="start" x="8" y="-1340.3" font-family="Times,serif" font-size="14.00" fill="#000000"> &#160;&#160;balances: mapping(address=&gt;uint256)</text>
<text text-anchor="start" x="8" y="-1323.5" font-family="Times,serif" font-size="14.00" fill="#000000"> &#160;&#160;totalSupply_: uint256</text>
<polyline fill="none" stroke="#000000" points="0,-1315.3 297.8214,-1315.3 "/>
<text text-anchor="start" x="8" y="-1298.7" font-family="Times,serif" font-size="14.00" fill="#000000">Public:</text>
<text text-anchor="start" x="8" y="-1281.9" font-family="Times,serif" font-size="14.00" fill="#000000"> &#160;&#160;&#160;totalSupply(): uint256</text>
<text text-anchor="start" x="8" y="-1265.1" font-family="Times,serif" font-size="14.00" fill="#000000"> &#160;&#160;&#160;transfer(_to: address, _value: uint256): bool</text>
<text text-anchor="start" x="8" y="-1248.3" font-family="Times,serif" font-size="14.00" fill="#000000"> &#160;&#160;&#160;balanceOf(_owner: address): (balance: uint256)</text>
</g>
<!-- 2&#45;&gt;0 -->
<g id="edge3" class="edge">
<title>2&#45;&gt;0</title>
<path fill="none" stroke="#000000" d="M298.1661,-1394.6456C301.105,-1396.1108 304.0223,-1397.5635 306.9107,-1399 322.0643,-1406.5362 337.7805,-1414.3172 353.5784,-1422.114"/>
<polygon fill="none" stroke="#000000" points="349.0577,-1431.5919 380.6094,-1435.4322 358.3391,-1412.7543 349.0577,-1431.5919"/>
</g>
<!-- 1 -->
<g id="node9" class="node">
<title>1</title>
<polygon fill="#f2f2f2" stroke="#000000" points="32.9945,-1435.5 32.9945,-1593.9 264.8269,-1593.9 264.8269,-1435.5 32.9945,-1435.5"/>
<text text-anchor="middle" x="148.9107" y="-1577.3" font-family="Times,serif" font-size="14.00" fill="#000000">&lt;&lt;Library&gt;&gt;</text>
<text text-anchor="middle" x="148.9107" y="-1560.5" font-family="Times,serif" font-size="14.00" fill="#000000">SafeMath</text>
<polyline fill="none" stroke="#000000" points="32.9945,-1552.3 264.8269,-1552.3 "/>
<text text-anchor="middle" x="148.9107" y="-1535.7" font-family="Times,serif" font-size="14.00" fill="#000000"> </text>
<polyline fill="none" stroke="#000000" points="32.9945,-1527.5 264.8269,-1527.5 "/>
<text text-anchor="start" x="40.9945" y="-1510.9" font-family="Times,serif" font-size="14.00" fill="#000000">Internal:</text>
<text text-anchor="start" x="40.9945" y="-1494.1" font-family="Times,serif" font-size="14.00" fill="#000000"> &#160;&#160;&#160;mul(a: uint256, b: uint256): uint256</text>
<text text-anchor="start" x="40.9945" y="-1477.3" font-family="Times,serif" font-size="14.00" fill="#000000"> &#160;&#160;&#160;div(a: uint256, b: uint256): uint256</text>
<text text-anchor="start" x="40.9945" y="-1460.5" font-family="Times,serif" font-size="14.00" fill="#000000"> &#160;&#160;&#160;sub(a: uint256, b: uint256): uint256</text>
<text text-anchor="start" x="40.9945" y="-1443.7" font-family="Times,serif" font-size="14.00" fill="#000000"> &#160;&#160;&#160;add(a: uint256, b: uint256): uint256</text>
</g>
<!-- 2&#45;&gt;1 -->
<g id="edge4" class="edge">
<title>2&#45;&gt;1</title>
<path fill="none" stroke="#000000" stroke-dasharray="5,2" d="M148.9107,-1398.7767C148.9107,-1407.4341 148.9107,-1416.2895 148.9107,-1425.0577"/>
<polygon fill="#000000" stroke="#000000" points="145.4108,-1425.2937 148.9107,-1435.2938 152.4108,-1425.2938 145.4108,-1425.2937"/>
</g>
<!-- 3 -->
<g id="node4" class="node">
<title>3</title>
<polygon fill="#f2f2f2" stroke="#000000" points="315.5986,-1240.1 315.5986,-1398.5 770.2228,-1398.5 770.2228,-1240.1 315.5986,-1240.1"/>
<text text-anchor="middle" x="542.9107" y="-1381.9" font-family="Times,serif" font-size="14.00" fill="#000000">&lt;&lt;Abstract&gt;&gt;</text>
<text text-anchor="middle" x="542.9107" y="-1365.1" font-family="Times,serif" font-size="14.00" fill="#000000">ERC20</text>
<polyline fill="none" stroke="#000000" points="315.5986,-1356.9 770.2228,-1356.9 "/>
<text text-anchor="middle" x="542.9107" y="-1340.3" font-family="Times,serif" font-size="14.00" fill="#000000"> </text>
<polyline fill="none" stroke="#000000" points="315.5986,-1332.1 770.2228,-1332.1 "/>
<text text-anchor="start" x="323.5986" y="-1315.5" font-family="Times,serif" font-size="14.00" fill="#000000">Public:</text>
<text text-anchor="start" x="323.5986" y="-1298.7" font-family="Times,serif" font-size="14.00" fill="#000000"> &#160;&#160;&#160;&lt;&lt;abstract&gt;&gt; allowance(owner: address, spender: address): uint256</text>
<text text-anchor="start" x="323.5986" y="-1281.9" font-family="Times,serif" font-size="14.00" fill="#000000"> &#160;&#160;&#160;&lt;&lt;abstract&gt;&gt; transferFrom(from: address, to: address, value: uint256): bool</text>
<text text-anchor="start" x="323.5986" y="-1265.1" font-family="Times,serif" font-size="14.00" fill="#000000"> &#160;&#160;&#160;&lt;&lt;abstract&gt;&gt; approve(spender: address, value: uint256): bool</text>
<text text-anchor="start" x="323.5986" y="-1248.3" font-family="Times,serif" font-size="14.00" fill="#000000"> &#160;&#160;&#160;&lt;&lt;event&gt;&gt; Approval(owner: address, spender: address, value: uint256)</text>
</g>
<!-- 3&#45;&gt;0 -->
<g id="edge5" class="edge">
<title>3&#45;&gt;0</title>
<path fill="none" stroke="#000000" d="M542.9107,-1398.7767C542.9107,-1400.8469 542.9107,-1402.9285 542.9107,-1405.0175"/>
<polygon fill="none" stroke="#000000" points="532.4108,-1405.2937 542.9107,-1435.2938 553.4108,-1405.2938 532.4108,-1405.2937"/>
</g>
<!-- 4 -->
<g id="node5" class="node">
<title>4</title>
<polygon fill="#f2f2f2" stroke="#000000" points="339.568,-1027.9 339.568,-1203.1 746.2534,-1203.1 746.2534,-1027.9 339.568,-1027.9"/>
<text text-anchor="middle" x="542.9107" y="-1186.5" font-family="Times,serif" font-size="14.00" fill="#000000">StandardToken</text>
<polyline fill="none" stroke="#000000" points="339.568,-1178.3 746.2534,-1178.3 "/>
<text text-anchor="start" x="347.568" y="-1161.7" font-family="Times,serif" font-size="14.00" fill="#000000">Internal:</text>
<text text-anchor="start" x="347.568" y="-1144.9" font-family="Times,serif" font-size="14.00" fill="#000000"> &#160;&#160;allowed: mapping(address=&gt;mapping(address=&gt;uint256))</text>
<polyline fill="none" stroke="#000000" points="339.568,-1136.7 746.2534,-1136.7 "/>
<text text-anchor="start" x="347.568" y="-1120.1" font-family="Times,serif" font-size="14.00" fill="#000000">Public:</text>
<text text-anchor="start" x="347.568" y="-1103.3" font-family="Times,serif" font-size="14.00" fill="#000000"> &#160;&#160;&#160;transferFrom(_from: address, _to: address, _value: uint256): bool</text>
<text text-anchor="start" x="347.568" y="-1086.5" font-family="Times,serif" font-size="14.00" fill="#000000"> &#160;&#160;&#160;approve(_spender: address, _value: uint256): bool</text>
<text text-anchor="start" x="347.568" y="-1069.7" font-family="Times,serif" font-size="14.00" fill="#000000"> &#160;&#160;&#160;allowance(_owner: address, _spender: address): uint256</text>
<text text-anchor="start" x="347.568" y="-1052.9" font-family="Times,serif" font-size="14.00" fill="#000000"> &#160;&#160;&#160;increaseApproval(_spender: address, _addedValue: uint): bool</text>
<text text-anchor="start" x="347.568" y="-1036.1" font-family="Times,serif" font-size="14.00" fill="#000000"> &#160;&#160;&#160;decreaseApproval(_spender: address, _subtractedValue: uint): bool</text>
</g>
<!-- 4&#45;&gt;2 -->
<g id="edge7" class="edge">
<title>4&#45;&gt;2</title>
<path fill="none" stroke="#000000" d="M373.5327,-1203.1123C357.4321,-1211.4405 341.0804,-1219.8985 324.9193,-1228.258"/>
<polygon fill="none" stroke="#000000" points="319.8016,-1219.0836 297.9793,-1242.1929 329.4497,-1237.7361 319.8016,-1219.0836"/>
</g>
<!-- 4&#45;&gt;3 -->
<g id="edge6" class="edge">
<title>4&#45;&gt;3</title>
<path fill="none" stroke="#000000" d="M542.9107,-1203.1123C542.9107,-1205.3029 542.9107,-1207.5024 542.9107,-1209.7068"/>
<polygon fill="none" stroke="#000000" points="532.4108,-1209.8034 542.9107,-1239.8034 553.4108,-1209.8034 532.4108,-1209.8034"/>
</g>
<!-- 5 -->
<g id="node6" class="node">
<title>5</title>
<polygon fill="#f2f2f2" stroke="#000000" points="825.4737,-1240.1 825.4737,-1398.5 1310.3477,-1398.5 1310.3477,-1240.1 825.4737,-1240.1"/>
<text text-anchor="middle" x="1067.9107" y="-1381.9" font-family="Times,serif" font-size="14.00" fill="#000000">Ownable</text>
<polyline fill="none" stroke="#000000" points="825.4737,-1373.7 1310.3477,-1373.7 "/>
<text text-anchor="start" x="833.4737" y="-1357.1" font-family="Times,serif" font-size="14.00" fill="#000000">Public:</text>
<text text-anchor="start" x="833.4737" y="-1340.3" font-family="Times,serif" font-size="14.00" fill="#000000"> &#160;&#160;owner: address</text>
<polyline fill="none" stroke="#000000" points="825.4737,-1332.1 1310.3477,-1332.1 "/>
<text text-anchor="start" x="833.4737" y="-1315.5" font-family="Times,serif" font-size="14.00" fill="#000000">Public:</text>
<text text-anchor="start" x="833.4737" y="-1298.7" font-family="Times,serif" font-size="14.00" fill="#000000"> &#160;&#160;&#160;&lt;&lt;event&gt;&gt; OwnershipTransferred(previousOwner: address, newOwner: address)</text>
<text text-anchor="start" x="833.4737" y="-1281.9" font-family="Times,serif" font-size="14.00" fill="#000000"> &#160;&#160;&#160;&lt;&lt;modifier&gt;&gt; onlyOwner()</text>
<text text-anchor="start" x="833.4737" y="-1265.1" font-family="Times,serif" font-size="14.00" fill="#000000"> &#160;&#160;&#160;constructor()</text>
<text text-anchor="start" x="833.4737" y="-1248.3" font-family="Times,serif" font-size="14.00" fill="#000000"> &#160;&#160;&#160;transferOwnership(newOwner: address)</text>
</g>
<!-- 6 -->
<g id="node7" class="node">
<title>6</title>
<polygon fill="#f2f2f2" stroke="#000000" points="763.7676,-1053.1 763.7676,-1177.9 1062.0538,-1177.9 1062.0538,-1053.1 763.7676,-1053.1"/>
<text text-anchor="middle" x="912.9107" y="-1161.3" font-family="Times,serif" font-size="14.00" fill="#000000">Recoverable</text>
<polyline fill="none" stroke="#000000" points="763.7676,-1153.1 1062.0538,-1153.1 "/>
<text text-anchor="middle" x="912.9107" y="-1136.5" font-family="Times,serif" font-size="14.00" fill="#000000"> </text>
<polyline fill="none" stroke="#000000" points="763.7676,-1128.3 1062.0538,-1128.3 "/>
<text text-anchor="start" x="771.7676" y="-1111.7" font-family="Times,serif" font-size="14.00" fill="#000000">Public:</text>
<text text-anchor="start" x="771.7676" y="-1094.9" font-family="Times,serif" font-size="14.00" fill="#000000"> &#160;&#160;&#160;constructor()</text>
<text text-anchor="start" x="771.7676" y="-1078.1" font-family="Times,serif" font-size="14.00" fill="#000000"> &#160;&#160;&#160;recoverTokens(token: ERC20Basic)</text>
<text text-anchor="start" x="771.7676" y="-1061.3" font-family="Times,serif" font-size="14.00" fill="#000000"> &#160;&#160;&#160;tokensToBeReturned(token: ERC20Basic): uint</text>
</g>
<!-- 6&#45;&gt;0 -->
<g id="edge9" class="edge">
<title>6&#45;&gt;0</title>
<path fill="none" stroke="#000000" stroke-dasharray="5,2" d="M856.2582,-1178.0727C841.6663,-1196.7986 827.1966,-1218.0995 816.9107,-1239.6 785.4803,-1305.2986 824.3934,-1342.1186 778.9107,-1399 768.5861,-1411.9121 756.4569,-1423.4868 743.2408,-1433.8441"/>
<polygon fill="#000000" stroke="#000000" points="740.7641,-1431.3275 734.8779,-1440.1367 744.9729,-1436.9209 740.7641,-1431.3275"/>
</g>
<!-- 6&#45;&gt;5 -->
<g id="edge8" class="edge">
<title>6&#45;&gt;5</title>
<path fill="none" stroke="#000000" d="M960.4692,-1178.0317C969.6414,-1190.0917 979.4749,-1203.0211 989.3316,-1215.9811"/>
<polygon fill="none" stroke="#000000" points="981.0288,-1222.4095 1007.5472,-1239.9317 997.7438,-1209.6969 981.0288,-1222.4095"/>
</g>
<!-- 7&#45;&gt;4 -->
<g id="edge10" class="edge">
<title>7&#45;&gt;4</title>
<path fill="none" stroke="#000000" d="M684.5364,-965.9126C673.0423,-978.0529 660.1225,-991.6989 646.8844,-1005.6813"/>
<polygon fill="none" stroke="#000000" points="638.9793,-998.7584 625.9785,-1027.7624 654.2289,-1013.1963 638.9793,-998.7584"/>
</g>
<!-- 7&#45;&gt;6 -->
<g id="edge11" class="edge">
<title>7&#45;&gt;6</title>
<path fill="none" stroke="#000000" d="M771.285,-965.9126C789.7076,-985.3709 811.7926,-1008.6974 832.981,-1031.077"/>
<polygon fill="none" stroke="#000000" points="825.4514,-1038.3965 853.7018,-1052.9626 840.701,-1023.9586 825.4514,-1038.3965"/>
</g>
<!-- 9 -->
<g id="node10" class="node">
<title>9</title>
<polygon fill="#f2f2f2" stroke="#000000" points="925.1975,-849.3 925.1975,-990.9 1296.6239,-990.9 1296.6239,-849.3 925.1975,-849.3"/>
<text text-anchor="middle" x="1110.9107" y="-974.3" font-family="Times,serif" font-size="14.00" fill="#000000">&lt;&lt;Abstract&gt;&gt;</text>
<text text-anchor="middle" x="1110.9107" y="-957.5" font-family="Times,serif" font-size="14.00" fill="#000000">UpgradeAgent</text>
<polyline fill="none" stroke="#000000" points="925.1975,-949.3 1296.6239,-949.3 "/>
<text text-anchor="start" x="933.1975" y="-932.7" font-family="Times,serif" font-size="14.00" fill="#000000">Public:</text>
<text text-anchor="start" x="933.1975" y="-915.9" font-family="Times,serif" font-size="14.00" fill="#000000"> &#160;&#160;originalSupply: uint</text>
<polyline fill="none" stroke="#000000" points="925.1975,-907.7 1296.6239,-907.7 "/>
<text text-anchor="start" x="933.1975" y="-891.1" font-family="Times,serif" font-size="14.00" fill="#000000">Public:</text>
<text text-anchor="start" x="933.1975" y="-874.3" font-family="Times,serif" font-size="14.00" fill="#000000"> &#160;&#160;&#160;&lt;&lt;abstract&gt;&gt; upgradeFrom(_from: address, _value: uint256)</text>
<text text-anchor="start" x="933.1975" y="-857.5" font-family="Times,serif" font-size="14.00" fill="#000000"> &#160;&#160;&#160;isUpgradeAgent(): bool</text>
</g>
<!-- 10 -->
<g id="node11" class="node">
<title>10</title>
<polygon fill="#f2f2f2" stroke="#000000" points="908.2862,-536.3 908.2862,-812.3 1313.5352,-812.3 1313.5352,-536.3 908.2862,-536.3"/>
<text text-anchor="middle" x="1110.9107" y="-795.7" font-family="Times,serif" font-size="14.00" fill="#000000">UpgradeableToken</text>
<polyline fill="none" stroke="#000000" points="908.2862,-787.5 1313.5352,-787.5 "/>
<text text-anchor="start" x="916.2862" y="-770.9" font-family="Times,serif" font-size="14.00" fill="#000000">Public:</text>
<text text-anchor="start" x="916.2862" y="-754.1" font-family="Times,serif" font-size="14.00" fill="#000000"> &#160;&#160;upgradeMaster: address</text>
<text text-anchor="start" x="916.2862" y="-737.3" font-family="Times,serif" font-size="14.00" fill="#000000"> &#160;&#160;upgradeAgent: UpgradeAgent</text>
<text text-anchor="start" x="916.2862" y="-720.5" font-family="Times,serif" font-size="14.00" fill="#000000"> &#160;&#160;totalUpgraded: uint256</text>
<polyline fill="none" stroke="#000000" points="908.2862,-712.3 1313.5352,-712.3 "/>
<text text-anchor="start" x="916.2862" y="-695.7" font-family="Times,serif" font-size="14.00" fill="#000000">External:</text>
<text text-anchor="start" x="916.2862" y="-678.9" font-family="Times,serif" font-size="14.00" fill="#000000"> &#160;&#160;&#160;setUpgradeAgent(agent: address)</text>
<text text-anchor="start" x="916.2862" y="-662.1" font-family="Times,serif" font-size="14.00" fill="#000000">Public:</text>
<text text-anchor="start" x="916.2862" y="-645.3" font-family="Times,serif" font-size="14.00" fill="#000000"> &#160;&#160;&#160;&lt;&lt;event&gt;&gt; Upgrade(_from: address, _to: address, _value: uint256)</text>
<text text-anchor="start" x="916.2862" y="-628.5" font-family="Times,serif" font-size="14.00" fill="#000000"> &#160;&#160;&#160;&lt;&lt;event&gt;&gt; UpgradeAgentSet(agent: address)</text>
<text text-anchor="start" x="916.2862" y="-611.7" font-family="Times,serif" font-size="14.00" fill="#000000"> &#160;&#160;&#160;constructor(_upgradeMaster: address)</text>
<text text-anchor="start" x="916.2862" y="-594.9" font-family="Times,serif" font-size="14.00" fill="#000000"> &#160;&#160;&#160;upgrade(value: uint256)</text>
<text text-anchor="start" x="916.2862" y="-578.1" font-family="Times,serif" font-size="14.00" fill="#000000"> &#160;&#160;&#160;getUpgradeState(): UpgradeState</text>
<text text-anchor="start" x="916.2862" y="-561.3" font-family="Times,serif" font-size="14.00" fill="#000000"> &#160;&#160;&#160;setUpgradeMaster(master: address)</text>
<text text-anchor="start" x="916.2862" y="-544.5" font-family="Times,serif" font-size="14.00" fill="#000000"> &#160;&#160;&#160;canUpgrade(): bool</text>
</g>
<!-- 10&#45;&gt;7 -->
<g id="edge12" class="edge">
<title>10&#45;&gt;7</title>
<path fill="none" stroke="#000000" d="M908.1957,-804.3975C879.1641,-823.0293 850.4774,-841.4397 824.8168,-857.9081"/>
<polygon fill="none" stroke="#000000" points="818.8601,-849.2545 799.2835,-874.2947 830.2025,-866.928 818.8601,-849.2545"/>
</g>
<!-- 10&#45;&gt;9 -->
<g id="edge13" class="edge">
<title>10&#45;&gt;9</title>
<path fill="none" stroke="#000000" d="M1110.9107,-812.6461C1110.9107,-821.5712 1110.9107,-830.3858 1110.9107,-838.8977"/>
<polygon fill="#000000" stroke="#000000" points="1107.4108,-839.1172 1110.9107,-849.1172 1114.4108,-839.1172 1107.4108,-839.1172"/>
</g>
<!-- 10enum0 -->
<g id="node12" class="node">
<title>10enum0</title>
<polygon fill="#f2f2f2" stroke="#000000" points="1074.1533,-328.1 1074.1533,-461.7 1189.6681,-461.7 1189.6681,-328.1 1074.1533,-328.1"/>
<text text-anchor="middle" x="1131.9107" y="-445.1" font-family="Times,serif" font-size="14.00" fill="#000000">&lt;&lt;enum&gt;&gt;</text>
<text text-anchor="middle" x="1131.9107" y="-428.3" font-family="Times,serif" font-size="14.00" fill="#000000">UpgradeState</text>
<polyline fill="none" stroke="#000000" points="1074.1533,-420.1 1189.6681,-420.1 "/>
<text text-anchor="start" x="1082.1533" y="-403.5" font-family="Times,serif" font-size="14.00" fill="#000000">Unknown</text>
<text text-anchor="start" x="1082.1533" y="-386.7" font-family="Times,serif" font-size="14.00" fill="#000000">NotAllowed</text>
<text text-anchor="start" x="1082.1533" y="-369.9" font-family="Times,serif" font-size="14.00" fill="#000000">WaitingForAgent</text>
<text text-anchor="start" x="1082.1533" y="-353.1" font-family="Times,serif" font-size="14.00" fill="#000000">ReadyToUpgrade</text>
<text text-anchor="start" x="1082.1533" y="-336.3" font-family="Times,serif" font-size="14.00" fill="#000000">Upgrading</text>
</g>
<!-- 10enum0&#45;&gt;10 -->
<g id="edge1" class="edge">
<title>10enum0&#45;&gt;10</title>
<path fill="none" stroke="#000000" d="M1126.8807,-461.8233C1125.4576,-480.7573 1123.8485,-502.1659 1122.2133,-523.9219"/>
<polygon fill="#000000" stroke="#000000" points="1122.2026,-524.0646 1125.7416,-530.3476 1121.3032,-536.0308 1117.7642,-529.7479 1122.2026,-524.0646"/>
</g>
<!-- 11 -->
<g id="node13" class="node">
<title>11</title>
<polygon fill="#f2f2f2" stroke="#000000" points="417.5582,-544.7 417.5582,-803.9 852.2632,-803.9 852.2632,-544.7 417.5582,-544.7"/>
<text text-anchor="middle" x="634.9107" y="-787.3" font-family="Times,serif" font-size="14.00" fill="#000000">ReleasableToken</text>
<polyline fill="none" stroke="#000000" points="417.5582,-779.1 852.2632,-779.1 "/>
<text text-anchor="start" x="425.5582" y="-762.5" font-family="Times,serif" font-size="14.00" fill="#000000">Public:</text>
<text text-anchor="start" x="425.5582" y="-745.7" font-family="Times,serif" font-size="14.00" fill="#000000"> &#160;&#160;releaseAgent: address</text>
<text text-anchor="start" x="425.5582" y="-728.9" font-family="Times,serif" font-size="14.00" fill="#000000"> &#160;&#160;released: bool</text>
<text text-anchor="start" x="425.5582" y="-712.1" font-family="Times,serif" font-size="14.00" fill="#000000"> &#160;&#160;transferAgents: mapping(address=&gt;bool)</text>
<polyline fill="none" stroke="#000000" points="417.5582,-703.9 852.2632,-703.9 "/>
<text text-anchor="start" x="425.5582" y="-687.3" font-family="Times,serif" font-size="14.00" fill="#000000">Public:</text>
<text text-anchor="start" x="425.5582" y="-670.5" font-family="Times,serif" font-size="14.00" fill="#000000"> &#160;&#160;&#160;&lt;&lt;modifier&gt;&gt; canTransfer(_sender: address)</text>
<text text-anchor="start" x="425.5582" y="-653.7" font-family="Times,serif" font-size="14.00" fill="#000000"> &#160;&#160;&#160;&lt;&lt;modifier&gt;&gt; inReleaseState(releaseState: bool)</text>
<text text-anchor="start" x="425.5582" y="-636.9" font-family="Times,serif" font-size="14.00" fill="#000000"> &#160;&#160;&#160;&lt;&lt;modifier&gt;&gt; onlyReleaseAgent()</text>
<text text-anchor="start" x="425.5582" y="-620.1" font-family="Times,serif" font-size="14.00" fill="#000000"> &#160;&#160;&#160;setReleaseAgent(addr: address)</text>
<text text-anchor="start" x="425.5582" y="-603.3" font-family="Times,serif" font-size="14.00" fill="#000000"> &#160;&#160;&#160;setTransferAgent(addr: address, state: bool)</text>
<text text-anchor="start" x="425.5582" y="-586.5" font-family="Times,serif" font-size="14.00" fill="#000000"> &#160;&#160;&#160;releaseTokenTransfer()</text>
<text text-anchor="start" x="425.5582" y="-569.7" font-family="Times,serif" font-size="14.00" fill="#000000"> &#160;&#160;&#160;transfer(_to: address, _value: uint): (success: bool)</text>
<text text-anchor="start" x="425.5582" y="-552.9" font-family="Times,serif" font-size="14.00" fill="#000000"> &#160;&#160;&#160;transferFrom(_from: address, _to: address, _value: uint): (success: bool)</text>
</g>
<!-- 11&#45;&gt;7 -->
<g id="edge14" class="edge">
<title>11&#45;&gt;7</title>
<path fill="none" stroke="#000000" d="M683.9979,-804.038C689.4516,-818.4521 694.8576,-832.7403 699.9148,-846.1064"/>
<polygon fill="none" stroke="#000000" points="690.1854,-850.0634 710.6223,-874.4065 709.8266,-842.632 690.1854,-850.0634"/>
</g>
<!-- 12 -->
<g id="node14" class="node">
<title>12</title>
<polygon fill="#f2f2f2" stroke="#000000" points="122.2722,-849.3 122.2722,-990.9 303.5492,-990.9 303.5492,-849.3 122.2722,-849.3"/>
<text text-anchor="middle" x="212.9107" y="-974.3" font-family="Times,serif" font-size="14.00" fill="#000000">&lt;&lt;Library&gt;&gt;</text>
<text text-anchor="middle" x="212.9107" y="-957.5" font-family="Times,serif" font-size="14.00" fill="#000000">SafeMathLib</text>
<polyline fill="none" stroke="#000000" points="122.2722,-949.3 303.5492,-949.3 "/>
<text text-anchor="middle" x="212.9107" y="-932.7" font-family="Times,serif" font-size="14.00" fill="#000000"> </text>
<polyline fill="none" stroke="#000000" points="122.2722,-924.5 303.5492,-924.5 "/>
<text text-anchor="start" x="130.2722" y="-907.9" font-family="Times,serif" font-size="14.00" fill="#000000">Public:</text>
<text text-anchor="start" x="130.2722" y="-891.1" font-family="Times,serif" font-size="14.00" fill="#000000"> &#160;&#160;&#160;times(a: uint, b: uint): uint</text>
<text text-anchor="start" x="130.2722" y="-874.3" font-family="Times,serif" font-size="14.00" fill="#000000"> &#160;&#160;&#160;minus(a: uint, b: uint): uint</text>
<text text-anchor="start" x="130.2722" y="-857.5" font-family="Times,serif" font-size="14.00" fill="#000000"> &#160;&#160;&#160;plus(a: uint, b: uint): uint</text>
</g>
<!-- 13 -->
<g id="node15" class="node">
<title>13</title>
<polygon fill="#f2f2f2" stroke="#000000" points="26.4135,-569.9 26.4135,-778.7 399.4079,-778.7 399.4079,-569.9 26.4135,-569.9"/>
<text text-anchor="middle" x="212.9107" y="-762.1" font-family="Times,serif" font-size="14.00" fill="#000000">MintableToken</text>
<polyline fill="none" stroke="#000000" points="26.4135,-753.9 399.4079,-753.9 "/>
<text text-anchor="start" x="34.4135" y="-737.3" font-family="Times,serif" font-size="14.00" fill="#000000">Public:</text>
<text text-anchor="start" x="34.4135" y="-720.5" font-family="Times,serif" font-size="14.00" fill="#000000"> &#160;&#160;mintingFinished: bool</text>
<text text-anchor="start" x="34.4135" y="-703.7" font-family="Times,serif" font-size="14.00" fill="#000000"> &#160;&#160;mintAgents: mapping(address=&gt;bool)</text>
<polyline fill="none" stroke="#000000" points="26.4135,-695.5 399.4079,-695.5 "/>
<text text-anchor="start" x="34.4135" y="-678.9" font-family="Times,serif" font-size="14.00" fill="#000000">Public:</text>
<text text-anchor="start" x="34.4135" y="-662.1" font-family="Times,serif" font-size="14.00" fill="#000000"> &#160;&#160;&#160;&lt;&lt;event&gt;&gt; MintingAgentChanged(addr: address, state: bool)</text>
<text text-anchor="start" x="34.4135" y="-645.3" font-family="Times,serif" font-size="14.00" fill="#000000"> &#160;&#160;&#160;&lt;&lt;event&gt;&gt; Minted(receiver: address, amount: uint)</text>
<text text-anchor="start" x="34.4135" y="-628.5" font-family="Times,serif" font-size="14.00" fill="#000000"> &#160;&#160;&#160;&lt;&lt;modifier&gt;&gt; onlyMintAgent()</text>
<text text-anchor="start" x="34.4135" y="-611.7" font-family="Times,serif" font-size="14.00" fill="#000000"> &#160;&#160;&#160;&lt;&lt;modifier&gt;&gt; canMint()</text>
<text text-anchor="start" x="34.4135" y="-594.9" font-family="Times,serif" font-size="14.00" fill="#000000"> &#160;&#160;&#160;mint(receiver: address, amount: uint)</text>
<text text-anchor="start" x="34.4135" y="-578.1" font-family="Times,serif" font-size="14.00" fill="#000000"> &#160;&#160;&#160;setMintAgent(addr: address, state: bool)</text>
</g>
<!-- 13&#45;&gt;7 -->
<g id="edge15" class="edge">
<title>13&#45;&gt;7</title>
<path fill="none" stroke="#000000" d="M350.3149,-778.7653C369.4703,-791.1194 389.3133,-802.8496 408.9107,-812.8 473.7202,-845.7063 550.8663,-871.9683 613.0574,-890.2735"/>
<polygon fill="none" stroke="#000000" points="610.5366,-900.4733 642.2666,-898.6147 616.303,-880.2805 610.5366,-900.4733"/>
</g>
<!-- 13&#45;&gt;12 -->
<g id="edge16" class="edge">
<title>13&#45;&gt;12</title>
<path fill="none" stroke="#000000" stroke-dasharray="5,2" d="M212.9107,-778.8977C212.9107,-798.9451 212.9107,-819.6571 212.9107,-838.8353"/>
<polygon fill="#000000" stroke="#000000" points="209.4108,-839.0141 212.9107,-849.0141 216.4108,-839.0142 209.4108,-839.0141"/>
</g>
<!-- 14 -->
<g id="node16" class="node">
<title>14</title>
<polygon fill="#f2f2f2" stroke="#000000" points="108.3535,-290.5 108.3535,-499.3 685.4679,-499.3 685.4679,-290.5 108.3535,-290.5"/>
<text text-anchor="middle" x="396.9107" y="-482.7" font-family="Times,serif" font-size="14.00" fill="#000000">CrowdsaleToken</text>
<polyline fill="none" stroke="#000000" points="108.3535,-474.5 685.4679,-474.5 "/>
<text text-anchor="start" x="116.3535" y="-457.9" font-family="Times,serif" font-size="14.00" fill="#000000">Public:</text>
<text text-anchor="start" x="116.3535" y="-441.1" font-family="Times,serif" font-size="14.00" fill="#000000"> &#160;&#160;name: string</text>
<text text-anchor="start" x="116.3535" y="-424.3" font-family="Times,serif" font-size="14.00" fill="#000000"> &#160;&#160;symbol: string</text>
<text text-anchor="start" x="116.3535" y="-407.5" font-family="Times,serif" font-size="14.00" fill="#000000"> &#160;&#160;decimals: uint</text>
<polyline fill="none" stroke="#000000" points="108.3535,-399.3 685.4679,-399.3 "/>
<text text-anchor="start" x="116.3535" y="-382.7" font-family="Times,serif" font-size="14.00" fill="#000000">Public:</text>
<text text-anchor="start" x="116.3535" y="-365.9" font-family="Times,serif" font-size="14.00" fill="#000000"> &#160;&#160;&#160;&lt;&lt;event&gt;&gt; UpdatedTokenInformation(newName: string, newSymbol: string)</text>
<text text-anchor="start" x="116.3535" y="-349.1" font-family="Times,serif" font-size="14.00" fill="#000000"> &#160;&#160;&#160;constructor(_name: string, _symbol: string, _initialSupply: uint, _decimals: uint, _mintable: bool)</text>
<text text-anchor="start" x="116.3535" y="-332.3" font-family="Times,serif" font-size="14.00" fill="#000000"> &#160;&#160;&#160;releaseTokenTransfer()</text>
<text text-anchor="start" x="116.3535" y="-315.5" font-family="Times,serif" font-size="14.00" fill="#000000"> &#160;&#160;&#160;canUpgrade(): bool</text>
<text text-anchor="start" x="116.3535" y="-298.7" font-family="Times,serif" font-size="14.00" fill="#000000"> &#160;&#160;&#160;setTokenInformation(_name: string, _symbol: string)</text>
</g>
<!-- 14&#45;&gt;10 -->
<g id="edge19" class="edge">
<title>14&#45;&gt;10</title>
<path fill="none" stroke="#000000" d="M685.7676,-497.1797C688.8279,-498.0667 691.8763,-498.9405 694.9107,-499.8 767.546,-520.3735 790.2502,-509.2246 860.9107,-535.8 867.4008,-538.2409 873.9273,-540.8281 880.4669,-543.5382"/>
<polygon fill="none" stroke="#000000" points="876.5506,-553.286 908.242,-555.7165 884.9833,-534.0535 876.5506,-553.286"/>
</g>
<!-- 14&#45;&gt;11 -->
<g id="edge17" class="edge">
<title>14&#45;&gt;11</title>
<path fill="none" stroke="#000000" d="M485.8716,-499.3356C492.0451,-506.583 498.334,-513.9659 504.6658,-521.3991"/>
<polygon fill="none" stroke="#000000" points="496.8745,-528.4449 524.3214,-544.4737 512.8608,-514.8273 496.8745,-528.4449"/>
</g>
<!-- 14&#45;&gt;13 -->
<g id="edge18" class="edge">
<title>14&#45;&gt;13</title>
<path fill="none" stroke="#000000" d="M328.1342,-499.3356C318.4562,-514.0314 308.4113,-529.2844 298.4673,-544.3841"/>
<polygon fill="none" stroke="#000000" points="289.641,-538.6959 281.9101,-569.5259 307.1794,-550.246 289.641,-538.6959"/>
</g>
<!-- 15 -->
<g id="node17" class="node">
<title>15</title>
<polygon fill="#f2f2f2" stroke="#000000" points="349.3535,-162.3 349.3535,-253.5 926.4679,-253.5 926.4679,-162.3 349.3535,-162.3"/>
<text text-anchor="middle" x="637.9107" y="-236.9" font-family="Times,serif" font-size="14.00" fill="#000000">BurnableCrowdsaleToken</text>
<polyline fill="none" stroke="#000000" points="349.3535,-228.7 926.4679,-228.7 "/>
<text text-anchor="middle" x="637.9107" y="-212.1" font-family="Times,serif" font-size="14.00" fill="#000000"> </text>
<polyline fill="none" stroke="#000000" points="349.3535,-203.9 926.4679,-203.9 "/>
<text text-anchor="start" x="357.3535" y="-187.3" font-family="Times,serif" font-size="14.00" fill="#000000">Public:</text>
<text text-anchor="start" x="357.3535" y="-170.5" font-family="Times,serif" font-size="14.00" fill="#000000"> &#160;&#160;&#160;constructor(_name: string, _symbol: string, _initialSupply: uint, _decimals: uint, _mintable: bool)</text>
</g>
<!-- 15&#45;&gt;8 -->
<g id="edge20" class="edge">
<title>15&#45;&gt;8</title>
<path fill="none" stroke="#000000" d="M697.1106,-253.6453C720.5728,-271.7752 748.2725,-293.1796 774.9181,-313.7694"/>
<polygon fill="none" stroke="#000000" points="768.7817,-322.2971 798.9405,-332.3321 781.6221,-305.6801 768.7817,-322.2971"/>
</g>
<!-- 15&#45;&gt;14 -->
<g id="edge21" class="edge">
<title>15&#45;&gt;14</title>
<path fill="none" stroke="#000000" d="M578.9555,-253.6453C571.596,-259.3558 563.8178,-265.3911 555.7857,-271.6235"/>
<polygon fill="none" stroke="#000000" points="549.1297,-263.4979 531.8648,-290.1845 562.0035,-280.0891 549.1297,-263.4979"/>
</g>
<!-- 16 -->
<g id="node18" class="node">
<title>16</title>
<polygon fill="#f2f2f2" stroke="#000000" points="349.3535,-.5 349.3535,-125.3 926.4679,-125.3 926.4679,-.5 349.3535,-.5"/>
<text text-anchor="middle" x="637.9107" y="-108.7" font-family="Times,serif" font-size="14.00" fill="#000000">AMLToken</text>
<polyline fill="none" stroke="#000000" points="349.3535,-100.5 926.4679,-100.5 "/>
<text text-anchor="middle" x="637.9107" y="-83.9" font-family="Times,serif" font-size="14.00" fill="#000000"> </text>
<polyline fill="none" stroke="#000000" points="349.3535,-75.7 926.4679,-75.7 "/>
<text text-anchor="start" x="357.3535" y="-59.1" font-family="Times,serif" font-size="14.00" fill="#000000">Public:</text>
<text text-anchor="start" x="357.3535" y="-42.3" font-family="Times,serif" font-size="14.00" fill="#000000"> &#160;&#160;&#160;&lt;&lt;event&gt;&gt; OwnerReclaim(fromWhom: address, amount: uint)</text>
<text text-anchor="start" x="357.3535" y="-25.5" font-family="Times,serif" font-size="14.00" fill="#000000"> &#160;&#160;&#160;constructor(_name: string, _symbol: string, _initialSupply: uint, _decimals: uint, _mintable: bool)</text>
<text text-anchor="start" x="357.3535" y="-8.7" font-family="Times,serif" font-size="14.00" fill="#000000"> &#160;&#160;&#160;transferToOwner(fromWhom: address)</text>
</g>
<!-- 16&#45;&gt;15 -->
<g id="edge22" class="edge">
<title>16&#45;&gt;15</title>
<path fill="none" stroke="#000000" d="M637.9107,-125.6558C637.9107,-127.7606 637.9107,-129.8766 637.9107,-131.9965"/>
<polygon fill="none" stroke="#000000" points="627.4108,-132.0957 637.9107,-162.0958 648.4108,-132.0958 627.4108,-132.0957"/>
</g>
</g>
</svg>
