<?xml version="1.0" encoding="UTF-8" standalone="no"?>
<!DOCTYPE svg PUBLIC "-//W3C//DTD SVG 1.1//EN"
 "http://www.w3.org/Graphics/SVG/1.1/DTD/svg11.dtd">
<!-- Generated by graphviz version 2.40.1 (20161225.0304)
 -->
<!-- Title: UmlClassDiagram Pages: 1 -->
<svg width="873pt" height="1218pt"
 viewBox="0.00 0.00 873.37 1217.80" xmlns="http://www.w3.org/2000/svg" xmlns:xlink="http://www.w3.org/1999/xlink">
<g id="graph0" class="graph" transform="scale(1 1) rotate(0) translate(4 1213.8)">
<title>UmlClassDiagram</title>
<polygon fill="#ffffff" stroke="transparent" points="-4,4 -4,-1213.8 869.3689,-1213.8 869.3689,4 -4,4"/>
<!-- 0 -->
<g id="node1" class="node">
<title>0</title>
<polygon fill="#f2f2f2" stroke="#000000" points="505.3959,-1050.9 505.3959,-1209.3 737.2283,-1209.3 737.2283,-1050.9 505.3959,-1050.9"/>
<text text-anchor="middle" x="621.3121" y="-1192.7" font-family="Times,serif" font-size="14.00" fill="#000000">&lt;&lt;Library&gt;&gt;</text>
<text text-anchor="middle" x="621.3121" y="-1175.9" font-family="Times,serif" font-size="14.00" fill="#000000">SafeMath</text>
<polyline fill="none" stroke="#000000" points="505.3959,-1167.7 737.2283,-1167.7 "/>
<text text-anchor="middle" x="621.3121" y="-1151.1" font-family="Times,serif" font-size="14.00" fill="#000000"> </text>
<polyline fill="none" stroke="#000000" points="505.3959,-1142.9 737.2283,-1142.9 "/>
<text text-anchor="start" x="513.3959" y="-1126.3" font-family="Times,serif" font-size="14.00" fill="#000000">Internal:</text>
<text text-anchor="start" x="513.3959" y="-1109.5" font-family="Times,serif" font-size="14.00" fill="#000000"> &#160;&#160;&#160;mul(a: uint256, b: uint256): uint256</text>
<text text-anchor="start" x="513.3959" y="-1092.7" font-family="Times,serif" font-size="14.00" fill="#000000"> &#160;&#160;&#160;div(a: uint256, b: uint256): uint256</text>
<text text-anchor="start" x="513.3959" y="-1075.9" font-family="Times,serif" font-size="14.00" fill="#000000"> &#160;&#160;&#160;sub(a: uint256, b: uint256): uint256</text>
<text text-anchor="start" x="513.3959" y="-1059.1" font-family="Times,serif" font-size="14.00" fill="#000000"> &#160;&#160;&#160;add(a: uint256, b: uint256): uint256</text>
</g>
<!-- 1 -->
<g id="node2" class="node">
<title>1</title>
<polygon fill="#f2f2f2" stroke="#000000" points="3.8751,-447.9 3.8751,-606.3 488.7491,-606.3 488.7491,-447.9 3.8751,-447.9"/>
<text text-anchor="middle" x="246.3121" y="-589.7" font-family="Times,serif" font-size="14.00" fill="#000000">Ownable</text>
<polyline fill="none" stroke="#000000" points="3.8751,-581.5 488.7491,-581.5 "/>
<text text-anchor="start" x="11.8751" y="-564.9" font-family="Times,serif" font-size="14.00" fill="#000000">Public:</text>
<text text-anchor="start" x="11.8751" y="-548.1" font-family="Times,serif" font-size="14.00" fill="#000000"> &#160;&#160;owner: address</text>
<polyline fill="none" stroke="#000000" points="3.8751,-539.9 488.7491,-539.9 "/>
<text text-anchor="start" x="11.8751" y="-523.3" font-family="Times,serif" font-size="14.00" fill="#000000">Public:</text>
<text text-anchor="start" x="11.8751" y="-506.5" font-family="Times,serif" font-size="14.00" fill="#000000"> &#160;&#160;&#160;&lt;&lt;event&gt;&gt; OwnershipTransferred(previousOwner: address, newOwner: address)</text>
<text text-anchor="start" x="11.8751" y="-489.7" font-family="Times,serif" font-size="14.00" fill="#000000"> &#160;&#160;&#160;&lt;&lt;modifier&gt;&gt; onlyOwner()</text>
<text text-anchor="start" x="11.8751" y="-472.9" font-family="Times,serif" font-size="14.00" fill="#000000"> &#160;&#160;&#160;constructor()</text>
<text text-anchor="start" x="11.8751" y="-456.1" font-family="Times,serif" font-size="14.00" fill="#000000"> &#160;&#160;&#160;transferOwnership(newOwner: address)</text>
</g>
<!-- 2 -->
<g id="node3" class="node">
<title>2</title>
<polygon fill="#f2f2f2" stroke="#000000" points="110.5211,-109.7 110.5211,-301.7 324.1031,-301.7 324.1031,-109.7 110.5211,-109.7"/>
<text text-anchor="middle" x="217.3121" y="-285.1" font-family="Times,serif" font-size="14.00" fill="#000000">Pausable</text>
<polyline fill="none" stroke="#000000" points="110.5211,-276.9 324.1031,-276.9 "/>
<text text-anchor="start" x="118.5211" y="-260.3" font-family="Times,serif" font-size="14.00" fill="#000000">Public:</text>
<text text-anchor="start" x="118.5211" y="-243.5" font-family="Times,serif" font-size="14.00" fill="#000000"> &#160;&#160;paused: bool</text>
<polyline fill="none" stroke="#000000" points="110.5211,-235.3 324.1031,-235.3 "/>
<text text-anchor="start" x="118.5211" y="-218.7" font-family="Times,serif" font-size="14.00" fill="#000000">Public:</text>
<text text-anchor="start" x="118.5211" y="-201.9" font-family="Times,serif" font-size="14.00" fill="#000000"> &#160;&#160;&#160;&lt;&lt;event&gt;&gt; Pause()</text>
<text text-anchor="start" x="118.5211" y="-185.1" font-family="Times,serif" font-size="14.00" fill="#000000"> &#160;&#160;&#160;&lt;&lt;event&gt;&gt; Unpause()</text>
<text text-anchor="start" x="118.5211" y="-168.3" font-family="Times,serif" font-size="14.00" fill="#000000"> &#160;&#160;&#160;&lt;&lt;modifier&gt;&gt; whenNotPaused()</text>
<text text-anchor="start" x="118.5211" y="-151.5" font-family="Times,serif" font-size="14.00" fill="#000000"> &#160;&#160;&#160;&lt;&lt;modifier&gt;&gt; whenPaused()</text>
<text text-anchor="start" x="118.5211" y="-134.7" font-family="Times,serif" font-size="14.00" fill="#000000"> &#160;&#160;&#160;pause()</text>
<text text-anchor="start" x="118.5211" y="-117.9" font-family="Times,serif" font-size="14.00" fill="#000000"> &#160;&#160;&#160;unpause()</text>
</g>
<!-- 2&#45;&gt;1 -->
<g id="edge1" class="edge">
<title>2&#45;&gt;1</title>
<path fill="none" stroke="#000000" d="M226.0131,-302.1306C229.2994,-338.552 233.0615,-380.2467 236.4469,-417.7666"/>
<polygon fill="none" stroke="#000000" points="226,-418.829 239.1536,-447.764 246.9151,-416.9417 226,-418.829"/>
</g>
<!-- 3 -->
<g id="node4" class="node">
<title>3</title>
<polygon fill="#f2f2f2" stroke="#000000" points="69.5817,-1050.9 69.5817,-1209.3 453.0425,-1209.3 453.0425,-1050.9 69.5817,-1050.9"/>
<text text-anchor="middle" x="261.3121" y="-1192.7" font-family="Times,serif" font-size="14.00" fill="#000000">&lt;&lt;Abstract&gt;&gt;</text>
<text text-anchor="middle" x="261.3121" y="-1175.9" font-family="Times,serif" font-size="14.00" fill="#000000">ERC20Basic</text>
<polyline fill="none" stroke="#000000" points="69.5817,-1167.7 453.0425,-1167.7 "/>
<text text-anchor="start" x="77.5817" y="-1151.1" font-family="Times,serif" font-size="14.00" fill="#000000">Public:</text>
<text text-anchor="start" x="77.5817" y="-1134.3" font-family="Times,serif" font-size="14.00" fill="#000000"> &#160;&#160;totalSupply: uint256</text>
<polyline fill="none" stroke="#000000" points="69.5817,-1126.1 453.0425,-1126.1 "/>
<text text-anchor="start" x="77.5817" y="-1109.5" font-family="Times,serif" font-size="14.00" fill="#000000">Public:</text>
<text text-anchor="start" x="77.5817" y="-1092.7" font-family="Times,serif" font-size="14.00" fill="#000000"> &#160;&#160;&#160;&lt;&lt;abstract&gt;&gt; balanceOf(who: address): uint256</text>
<text text-anchor="start" x="77.5817" y="-1075.9" font-family="Times,serif" font-size="14.00" fill="#000000"> &#160;&#160;&#160;&lt;&lt;abstract&gt;&gt; transfer(to: address, value: uint256): bool</text>
<text text-anchor="start" x="77.5817" y="-1059.1" font-family="Times,serif" font-size="14.00" fill="#000000"> &#160;&#160;&#160;&lt;&lt;event&gt;&gt; Transfer(from: address, to: address, value: uint256)</text>
</g>
<!-- 4 -->
<g id="node5" class="node">
<title>4</title>
<polygon fill="#f2f2f2" stroke="#000000" points="0,-855.5 0,-1013.9 454.6242,-1013.9 454.6242,-855.5 0,-855.5"/>
<text text-anchor="middle" x="227.3121" y="-997.3" font-family="Times,serif" font-size="14.00" fill="#000000">&lt;&lt;Abstract&gt;&gt;</text>
<text text-anchor="middle" x="227.3121" y="-980.5" font-family="Times,serif" font-size="14.00" fill="#000000">ERC20</text>
<polyline fill="none" stroke="#000000" points="0,-972.3 454.6242,-972.3 "/>
<text text-anchor="middle" x="227.3121" y="-955.7" font-family="Times,serif" font-size="14.00" fill="#000000"> </text>
<polyline fill="none" stroke="#000000" points="0,-947.5 454.6242,-947.5 "/>
<text text-anchor="start" x="8" y="-930.9" font-family="Times,serif" font-size="14.00" fill="#000000">Public:</text>
<text text-anchor="start" x="8" y="-914.1" font-family="Times,serif" font-size="14.00" fill="#000000"> &#160;&#160;&#160;&lt;&lt;abstract&gt;&gt; allowance(owner: address, spender: address): uint256</text>
<text text-anchor="start" x="8" y="-897.3" font-family="Times,serif" font-size="14.00" fill="#000000"> &#160;&#160;&#160;&lt;&lt;abstract&gt;&gt; transferFrom(from: address, to: address, value: uint256): bool</text>
<text text-anchor="start" x="8" y="-880.5" font-family="Times,serif" font-size="14.00" fill="#000000"> &#160;&#160;&#160;&lt;&lt;abstract&gt;&gt; approve(spender: address, value: uint256): bool</text>
<text text-anchor="start" x="8" y="-863.7" font-family="Times,serif" font-size="14.00" fill="#000000"> &#160;&#160;&#160;&lt;&lt;event&gt;&gt; Approval(owner: address, spender: address, value: uint256)</text>
</g>
<!-- 4&#45;&gt;3 -->
<g id="edge2" class="edge">
<title>4&#45;&gt;3</title>
<path fill="none" stroke="#000000" d="M241.1412,-1014.1767C241.5342,-1016.4351 241.9295,-1018.7071 242.3263,-1020.9874"/>
<polygon fill="none" stroke="#000000" points="232.0078,-1022.9379 247.4953,-1050.6938 252.697,-1019.3379 232.0078,-1022.9379"/>
</g>
<!-- 5 -->
<g id="node6" class="node">
<title>5</title>
<polygon fill="#f2f2f2" stroke="#000000" points="472.4014,-872.3 472.4014,-997.1 770.2228,-997.1 770.2228,-872.3 472.4014,-872.3"/>
<text text-anchor="middle" x="621.3121" y="-980.5" font-family="Times,serif" font-size="14.00" fill="#000000">BasicToken</text>
<polyline fill="none" stroke="#000000" points="472.4014,-972.3 770.2228,-972.3 "/>
<text text-anchor="start" x="480.4014" y="-955.7" font-family="Times,serif" font-size="14.00" fill="#000000">Public:</text>
<text text-anchor="start" x="480.4014" y="-938.9" font-family="Times,serif" font-size="14.00" fill="#000000"> &#160;&#160;balances: mapping(address=&gt;uint256)</text>
<polyline fill="none" stroke="#000000" points="472.4014,-930.7 770.2228,-930.7 "/>
<text text-anchor="start" x="480.4014" y="-914.1" font-family="Times,serif" font-size="14.00" fill="#000000">Public:</text>
<text text-anchor="start" x="480.4014" y="-897.3" font-family="Times,serif" font-size="14.00" fill="#000000"> &#160;&#160;&#160;transfer(_to: address, _value: uint256): bool</text>
<text text-anchor="start" x="480.4014" y="-880.5" font-family="Times,serif" font-size="14.00" fill="#000000"> &#160;&#160;&#160;balanceOf(_owner: address): (balance: uint256)</text>
</g>
<!-- 5&#45;&gt;0 -->
<g id="edge4" class="edge">
<title>5&#45;&gt;0</title>
<path fill="none" stroke="#000000" stroke-dasharray="5,2" d="M621.3121,-997.3321C621.3121,-1011.1182 621.3121,-1025.9783 621.3121,-1040.5923"/>
<polygon fill="#000000" stroke="#000000" points="617.8122,-1040.6541 621.3121,-1050.6542 624.8122,-1040.6542 617.8122,-1040.6541"/>
</g>
<!-- 5&#45;&gt;3 -->
<g id="edge3" class="edge">
<title>5&#45;&gt;3</title>
<path fill="none" stroke="#000000" d="M505.9204,-997.3321C482.8879,-1009.8336 458.2282,-1023.2183 433.7551,-1036.5018"/>
<polygon fill="none" stroke="#000000" points="428.7158,-1027.2899 407.3583,-1050.8294 438.7337,-1045.7465 428.7158,-1027.2899"/>
</g>
<!-- 6 -->
<g id="node7" class="node">
<title>6</title>
<polygon fill="#f2f2f2" stroke="#000000" points="388.6247,-643.3 388.6247,-818.5 853.9995,-818.5 853.9995,-643.3 388.6247,-643.3"/>
<text text-anchor="middle" x="621.3121" y="-801.9" font-family="Times,serif" font-size="14.00" fill="#000000">StandardToken</text>
<polyline fill="none" stroke="#000000" points="388.6247,-793.7 853.9995,-793.7 "/>
<text text-anchor="start" x="396.6247" y="-777.1" font-family="Times,serif" font-size="14.00" fill="#000000">Public:</text>
<text text-anchor="start" x="396.6247" y="-760.3" font-family="Times,serif" font-size="14.00" fill="#000000"> &#160;&#160;allowed: mapping(address=&gt;mapping(address=&gt;uint256))</text>
<polyline fill="none" stroke="#000000" points="388.6247,-752.1 853.9995,-752.1 "/>
<text text-anchor="start" x="396.6247" y="-735.5" font-family="Times,serif" font-size="14.00" fill="#000000">Public:</text>
<text text-anchor="start" x="396.6247" y="-718.7" font-family="Times,serif" font-size="14.00" fill="#000000"> &#160;&#160;&#160;transferFrom(_from: address, _to: address, _value: uint256): bool</text>
<text text-anchor="start" x="396.6247" y="-701.9" font-family="Times,serif" font-size="14.00" fill="#000000"> &#160;&#160;&#160;approve(_spender: address, _value: uint256): bool</text>
<text text-anchor="start" x="396.6247" y="-685.1" font-family="Times,serif" font-size="14.00" fill="#000000"> &#160;&#160;&#160;allowance(_owner: address, _spender: address): (remaining: uint256)</text>
<text text-anchor="start" x="396.6247" y="-668.3" font-family="Times,serif" font-size="14.00" fill="#000000"> &#160;&#160;&#160;increaseApproval(_spender: address, _addedValue: uint): (success: bool)</text>
<text text-anchor="start" x="396.6247" y="-651.5" font-family="Times,serif" font-size="14.00" fill="#000000"> &#160;&#160;&#160;decreaseApproval(_spender: address, _subtractedValue: uint): (success: bool)</text>
</g>
<!-- 6&#45;&gt;4 -->
<g id="edge5" class="edge">
<title>6&#45;&gt;4</title>
<path fill="none" stroke="#000000" d="M451.9341,-818.5123C437.2311,-826.1175 422.3188,-833.831 407.5335,-841.4789"/>
<polygon fill="none" stroke="#000000" points="402.5139,-832.2538 380.6916,-855.3631 412.162,-850.9062 402.5139,-832.2538"/>
</g>
<!-- 6&#45;&gt;5 -->
<g id="edge6" class="edge">
<title>6&#45;&gt;5</title>
<path fill="none" stroke="#000000" d="M621.3121,-818.5123C621.3121,-826.2538 621.3121,-834.1076 621.3121,-841.8901"/>
<polygon fill="none" stroke="#000000" points="610.8122,-842.0727 621.3121,-872.0728 631.8122,-842.0728 610.8122,-842.0727"/>
</g>
<!-- 7 -->
<g id="node8" class="node">
<title>7</title>
<polygon fill="#f2f2f2" stroke="#000000" points="559.2553,-473.1 559.2553,-581.1 865.3689,-581.1 865.3689,-473.1 559.2553,-473.1"/>
<text text-anchor="middle" x="712.3121" y="-564.5" font-family="Times,serif" font-size="14.00" fill="#000000">BurnableToken</text>
<polyline fill="none" stroke="#000000" points="559.2553,-556.3 865.3689,-556.3 "/>
<text text-anchor="middle" x="712.3121" y="-539.7" font-family="Times,serif" font-size="14.00" fill="#000000"> </text>
<polyline fill="none" stroke="#000000" points="559.2553,-531.5 865.3689,-531.5 "/>
<text text-anchor="start" x="567.2553" y="-514.9" font-family="Times,serif" font-size="14.00" fill="#000000">Public:</text>
<text text-anchor="start" x="567.2553" y="-498.1" font-family="Times,serif" font-size="14.00" fill="#000000"> &#160;&#160;&#160;&lt;&lt;event&gt;&gt; Burn(burner: address, value: uint256)</text>
<text text-anchor="start" x="567.2553" y="-481.3" font-family="Times,serif" font-size="14.00" fill="#000000"> &#160;&#160;&#160;burn(_value: uint256)</text>
</g>
<!-- 7&#45;&gt;6 -->
<g id="edge7" class="edge">
<title>7&#45;&gt;6</title>
<path fill="none" stroke="#000000" d="M688.1647,-581.1796C683.3961,-591.859 678.2229,-603.4447 672.9374,-615.282"/>
<polygon fill="none" stroke="#000000" points="663.1822,-611.3764 660.5382,-643.0507 682.3575,-619.9385 663.1822,-611.3764"/>
</g>
<!-- 8 -->
<g id="node9" class="node">
<title>8</title>
<polygon fill="#f2f2f2" stroke="#000000" points="341.9754,-.5 341.9754,-410.9 750.6488,-410.9 750.6488,-.5 341.9754,-.5"/>
<text text-anchor="middle" x="546.3121" y="-394.3" font-family="Times,serif" font-size="14.00" fill="#000000">QuantstampToken</text>
<polyline fill="none" stroke="#000000" points="341.9754,-386.1 750.6488,-386.1 "/>
<text text-anchor="start" x="349.9754" y="-369.5" font-family="Times,serif" font-size="14.00" fill="#000000">Public:</text>
<text text-anchor="start" x="349.9754" y="-352.7" font-family="Times,serif" font-size="14.00" fill="#000000"> &#160;&#160;name: string</text>
<text text-anchor="start" x="349.9754" y="-335.9" font-family="Times,serif" font-size="14.00" fill="#000000"> &#160;&#160;symbol: string</text>
<text text-anchor="start" x="349.9754" y="-319.1" font-family="Times,serif" font-size="14.00" fill="#000000"> &#160;&#160;decimals: uint8</text>
<text text-anchor="start" x="349.9754" y="-302.3" font-family="Times,serif" font-size="14.00" fill="#000000"> &#160;&#160;INITIAL_SUPPLY: uint256</text>
<text text-anchor="start" x="349.9754" y="-285.5" font-family="Times,serif" font-size="14.00" fill="#000000"> &#160;&#160;CROWDSALE_ALLOWANCE: uint256</text>
<text text-anchor="start" x="349.9754" y="-268.7" font-family="Times,serif" font-size="14.00" fill="#000000"> &#160;&#160;ADMIN_ALLOWANCE: uint256</text>
<text text-anchor="start" x="349.9754" y="-251.9" font-family="Times,serif" font-size="14.00" fill="#000000"> &#160;&#160;crowdSaleAllowance: uint256</text>
<text text-anchor="start" x="349.9754" y="-235.1" font-family="Times,serif" font-size="14.00" fill="#000000"> &#160;&#160;adminAllowance: uint256</text>
<text text-anchor="start" x="349.9754" y="-218.3" font-family="Times,serif" font-size="14.00" fill="#000000"> &#160;&#160;crowdSaleAddr: address</text>
<text text-anchor="start" x="349.9754" y="-201.5" font-family="Times,serif" font-size="14.00" fill="#000000"> &#160;&#160;adminAddr: address</text>
<text text-anchor="start" x="349.9754" y="-184.7" font-family="Times,serif" font-size="14.00" fill="#000000"> &#160;&#160;transferEnabled: bool</text>
<polyline fill="none" stroke="#000000" points="341.9754,-176.5 750.6488,-176.5 "/>
<text text-anchor="start" x="349.9754" y="-159.9" font-family="Times,serif" font-size="14.00" fill="#000000">External:</text>
<text text-anchor="start" x="349.9754" y="-143.1" font-family="Times,serif" font-size="14.00" fill="#000000"> &#160;&#160;&#160;setCrowdsale(_crowdSaleAddr: address, _amountForSale: uint256)</text>
<text text-anchor="start" x="349.9754" y="-126.3" font-family="Times,serif" font-size="14.00" fill="#000000"> &#160;&#160;&#160;enableTransfer()</text>
<text text-anchor="start" x="349.9754" y="-109.5" font-family="Times,serif" font-size="14.00" fill="#000000">Public:</text>
<text text-anchor="start" x="349.9754" y="-92.7" font-family="Times,serif" font-size="14.00" fill="#000000"> &#160;&#160;&#160;&lt;&lt;modifier&gt;&gt; onlyWhenTransferEnabled()</text>
<text text-anchor="start" x="349.9754" y="-75.9" font-family="Times,serif" font-size="14.00" fill="#000000"> &#160;&#160;&#160;&lt;&lt;modifier&gt;&gt; validDestination(_to: address)</text>
<text text-anchor="start" x="349.9754" y="-59.1" font-family="Times,serif" font-size="14.00" fill="#000000"> &#160;&#160;&#160;constructor(_admin: address)</text>
<text text-anchor="start" x="349.9754" y="-42.3" font-family="Times,serif" font-size="14.00" fill="#000000"> &#160;&#160;&#160;transfer(_to: address, _value: uint256): bool</text>
<text text-anchor="start" x="349.9754" y="-25.5" font-family="Times,serif" font-size="14.00" fill="#000000"> &#160;&#160;&#160;transferFrom(_from: address, _to: address, _value: uint256): bool</text>
<text text-anchor="start" x="349.9754" y="-8.7" font-family="Times,serif" font-size="14.00" fill="#000000"> &#160;&#160;&#160;burn(_value: uint256)</text>
</g>
<!-- 8&#45;&gt;1 -->
<g id="edge10" class="edge">
<title>8&#45;&gt;1</title>
<path fill="none" stroke="#000000" d="M354.619,-411.0672C349.9538,-416.0651 345.3471,-421.0005 340.819,-425.8516"/>
<polygon fill="none" stroke="#000000" points="333.0717,-418.7635 320.2769,-447.859 348.4233,-433.0929 333.0717,-418.7635"/>
</g>
<!-- 8&#45;&gt;6 -->
<g id="edge8" class="edge">
<title>8&#45;&gt;6</title>
<path fill="none" stroke="#000000" d="M528.4933,-410.9493C528.226,-474.6439 533.4066,-544.4616 550.3121,-606.8 551.0628,-609.5681 551.8903,-612.3392 552.7863,-615.1073"/>
<polygon fill="none" stroke="#000000" points="543.1067,-619.1801 564.017,-643.1177 562.5983,-611.3649 543.1067,-619.1801"/>
</g>
<!-- 8&#45;&gt;7 -->
<g id="edge9" class="edge">
<title>8&#45;&gt;7</title>
<path fill="none" stroke="#000000" d="M652.3823,-411.0672C658.6506,-423.2035 664.7282,-434.9706 670.4558,-446.0602"/>
<polygon fill="none" stroke="#000000" points="661.1855,-450.9926 684.2816,-472.8288 679.8438,-441.3557 661.1855,-450.9926"/>
</g>
</g>
</svg>
