<?xml version="1.0" encoding="UTF-8" standalone="no"?>
<!DOCTYPE svg PUBLIC "-//W3C//DTD SVG 1.1//EN"
 "http://www.w3.org/Graphics/SVG/1.1/DTD/svg11.dtd">
<!-- Generated by graphviz version 2.40.1 (20161225.0304)
 -->
<!-- Title: UmlClassDiagram Pages: 1 -->
<svg width="1123pt" height="1134pt"
 viewBox="0.00 0.00 1122.96 1133.80" xmlns="http://www.w3.org/2000/svg" xmlns:xlink="http://www.w3.org/1999/xlink">
<g id="graph0" class="graph" transform="scale(1 1) rotate(0) translate(4 1129.8)">
<title>UmlClassDiagram</title>
<polygon fill="#ffffff" stroke="transparent" points="-4,4 -4,-1129.8 1118.9598,-1129.8 1118.9598,4 -4,4"/>
<!-- 0 -->
<g id="node1" class="node">
<title>0</title>
<polygon fill="#f2f2f2" stroke="#000000" points="505.3959,-966.9 505.3959,-1125.3 737.2283,-1125.3 737.2283,-966.9 505.3959,-966.9"/>
<text text-anchor="middle" x="621.3121" y="-1108.7" font-family="Times,serif" font-size="14.00" fill="#000000">&lt;&lt;Library&gt;&gt;</text>
<text text-anchor="middle" x="621.3121" y="-1091.9" font-family="Times,serif" font-size="14.00" fill="#000000">SafeMath</text>
<polyline fill="none" stroke="#000000" points="505.3959,-1083.7 737.2283,-1083.7 "/>
<text text-anchor="middle" x="621.3121" y="-1067.1" font-family="Times,serif" font-size="14.00" fill="#000000"> </text>
<polyline fill="none" stroke="#000000" points="505.3959,-1058.9 737.2283,-1058.9 "/>
<text text-anchor="start" x="513.3959" y="-1042.3" font-family="Times,serif" font-size="14.00" fill="#000000">Internal:</text>
<text text-anchor="start" x="513.3959" y="-1025.5" font-family="Times,serif" font-size="14.00" fill="#000000"> &#160;&#160;&#160;mul(a: uint256, b: uint256): uint256</text>
<text text-anchor="start" x="513.3959" y="-1008.7" font-family="Times,serif" font-size="14.00" fill="#000000"> &#160;&#160;&#160;div(a: uint256, b: uint256): uint256</text>
<text text-anchor="start" x="513.3959" y="-991.9" font-family="Times,serif" font-size="14.00" fill="#000000"> &#160;&#160;&#160;sub(a: uint256, b: uint256): uint256</text>
<text text-anchor="start" x="513.3959" y="-975.1" font-family="Times,serif" font-size="14.00" fill="#000000"> &#160;&#160;&#160;add(a: uint256, b: uint256): uint256</text>
</g>
<!-- 1 -->
<g id="node2" class="node">
<title>1</title>
<polygon fill="#f2f2f2" stroke="#000000" points="69.5817,-966.9 69.5817,-1125.3 453.0425,-1125.3 453.0425,-966.9 69.5817,-966.9"/>
<text text-anchor="middle" x="261.3121" y="-1108.7" font-family="Times,serif" font-size="14.00" fill="#000000">&lt;&lt;Abstract&gt;&gt;</text>
<text text-anchor="middle" x="261.3121" y="-1091.9" font-family="Times,serif" font-size="14.00" fill="#000000">ERC20Basic</text>
<polyline fill="none" stroke="#000000" points="69.5817,-1083.7 453.0425,-1083.7 "/>
<text text-anchor="start" x="77.5817" y="-1067.1" font-family="Times,serif" font-size="14.00" fill="#000000">Public:</text>
<text text-anchor="start" x="77.5817" y="-1050.3" font-family="Times,serif" font-size="14.00" fill="#000000"> &#160;&#160;totalSupply: uint256</text>
<polyline fill="none" stroke="#000000" points="69.5817,-1042.1 453.0425,-1042.1 "/>
<text text-anchor="start" x="77.5817" y="-1025.5" font-family="Times,serif" font-size="14.00" fill="#000000">Public:</text>
<text text-anchor="start" x="77.5817" y="-1008.7" font-family="Times,serif" font-size="14.00" fill="#000000"> &#160;&#160;&#160;&lt;&lt;abstract&gt;&gt; balanceOf(who: address): uint256</text>
<text text-anchor="start" x="77.5817" y="-991.9" font-family="Times,serif" font-size="14.00" fill="#000000"> &#160;&#160;&#160;&lt;&lt;abstract&gt;&gt; transfer(to: address, value: uint256): bool</text>
<text text-anchor="start" x="77.5817" y="-975.1" font-family="Times,serif" font-size="14.00" fill="#000000"> &#160;&#160;&#160;&lt;&lt;event&gt;&gt; Transfer(from: address, to: address, value: uint256)</text>
</g>
<!-- 2 -->
<g id="node3" class="node">
<title>2</title>
<polygon fill="#f2f2f2" stroke="#000000" points="0,-771.5 0,-929.9 454.6242,-929.9 454.6242,-771.5 0,-771.5"/>
<text text-anchor="middle" x="227.3121" y="-913.3" font-family="Times,serif" font-size="14.00" fill="#000000">&lt;&lt;Abstract&gt;&gt;</text>
<text text-anchor="middle" x="227.3121" y="-896.5" font-family="Times,serif" font-size="14.00" fill="#000000">ERC20</text>
<polyline fill="none" stroke="#000000" points="0,-888.3 454.6242,-888.3 "/>
<text text-anchor="middle" x="227.3121" y="-871.7" font-family="Times,serif" font-size="14.00" fill="#000000"> </text>
<polyline fill="none" stroke="#000000" points="0,-863.5 454.6242,-863.5 "/>
<text text-anchor="start" x="8" y="-846.9" font-family="Times,serif" font-size="14.00" fill="#000000">Public:</text>
<text text-anchor="start" x="8" y="-830.1" font-family="Times,serif" font-size="14.00" fill="#000000"> &#160;&#160;&#160;&lt;&lt;abstract&gt;&gt; allowance(owner: address, spender: address): uint256</text>
<text text-anchor="start" x="8" y="-813.3" font-family="Times,serif" font-size="14.00" fill="#000000"> &#160;&#160;&#160;&lt;&lt;abstract&gt;&gt; transferFrom(from: address, to: address, value: uint256): bool</text>
<text text-anchor="start" x="8" y="-796.5" font-family="Times,serif" font-size="14.00" fill="#000000"> &#160;&#160;&#160;&lt;&lt;abstract&gt;&gt; approve(spender: address, value: uint256): bool</text>
<text text-anchor="start" x="8" y="-779.7" font-family="Times,serif" font-size="14.00" fill="#000000"> &#160;&#160;&#160;&lt;&lt;event&gt;&gt; Approval(owner: address, spender: address, value: uint256)</text>
</g>
<!-- 2&#45;&gt;1 -->
<g id="edge1" class="edge">
<title>2&#45;&gt;1</title>
<path fill="none" stroke="#000000" d="M241.1412,-930.1767C241.5342,-932.4351 241.9295,-934.7071 242.3263,-936.9874"/>
<polygon fill="none" stroke="#000000" points="232.0078,-938.9379 247.4953,-966.6938 252.697,-935.3379 232.0078,-938.9379"/>
</g>
<!-- 3 -->
<g id="node4" class="node">
<title>3</title>
<polygon fill="#f2f2f2" stroke="#000000" points="472.4014,-788.3 472.4014,-913.1 770.2228,-913.1 770.2228,-788.3 472.4014,-788.3"/>
<text text-anchor="middle" x="621.3121" y="-896.5" font-family="Times,serif" font-size="14.00" fill="#000000">BasicToken</text>
<polyline fill="none" stroke="#000000" points="472.4014,-888.3 770.2228,-888.3 "/>
<text text-anchor="start" x="480.4014" y="-871.7" font-family="Times,serif" font-size="14.00" fill="#000000">Public:</text>
<text text-anchor="start" x="480.4014" y="-854.9" font-family="Times,serif" font-size="14.00" fill="#000000"> &#160;&#160;balances: mapping(address=&gt;uint256)</text>
<polyline fill="none" stroke="#000000" points="472.4014,-846.7 770.2228,-846.7 "/>
<text text-anchor="start" x="480.4014" y="-830.1" font-family="Times,serif" font-size="14.00" fill="#000000">Public:</text>
<text text-anchor="start" x="480.4014" y="-813.3" font-family="Times,serif" font-size="14.00" fill="#000000"> &#160;&#160;&#160;transfer(_to: address, _value: uint256): bool</text>
<text text-anchor="start" x="480.4014" y="-796.5" font-family="Times,serif" font-size="14.00" fill="#000000"> &#160;&#160;&#160;balanceOf(_owner: address): (balance: uint256)</text>
</g>
<!-- 3&#45;&gt;0 -->
<g id="edge3" class="edge">
<title>3&#45;&gt;0</title>
<path fill="none" stroke="#000000" stroke-dasharray="5,2" d="M621.3121,-913.3321C621.3121,-927.1182 621.3121,-941.9783 621.3121,-956.5923"/>
<polygon fill="#000000" stroke="#000000" points="617.8122,-956.6541 621.3121,-966.6542 624.8122,-956.6542 617.8122,-956.6541"/>
</g>
<!-- 3&#45;&gt;1 -->
<g id="edge2" class="edge">
<title>3&#45;&gt;1</title>
<path fill="none" stroke="#000000" d="M505.9204,-913.3321C482.8879,-925.8336 458.2282,-939.2183 433.7551,-952.5018"/>
<polygon fill="none" stroke="#000000" points="428.7158,-943.2899 407.3583,-966.8294 438.7337,-961.7465 428.7158,-943.2899"/>
</g>
<!-- 4 -->
<g id="node5" class="node">
<title>4</title>
<polygon fill="#f2f2f2" stroke="#000000" points="412.3281,-567.7 412.3281,-709.3 830.2961,-709.3 830.2961,-567.7 412.3281,-567.7"/>
<text text-anchor="middle" x="621.3121" y="-692.7" font-family="Times,serif" font-size="14.00" fill="#000000">StandardToken</text>
<polyline fill="none" stroke="#000000" points="412.3281,-684.5 830.2961,-684.5 "/>
<text text-anchor="start" x="420.3281" y="-667.9" font-family="Times,serif" font-size="14.00" fill="#000000">Public:</text>
<text text-anchor="start" x="420.3281" y="-651.1" font-family="Times,serif" font-size="14.00" fill="#000000"> &#160;&#160;allowed: mapping(address=&gt;mapping(address=&gt;uint256))</text>
<polyline fill="none" stroke="#000000" points="412.3281,-642.9 830.2961,-642.9 "/>
<text text-anchor="start" x="420.3281" y="-626.3" font-family="Times,serif" font-size="14.00" fill="#000000">Public:</text>
<text text-anchor="start" x="420.3281" y="-609.5" font-family="Times,serif" font-size="14.00" fill="#000000"> &#160;&#160;&#160;transferFrom(_from: address, _to: address, _value: uint256): bool</text>
<text text-anchor="start" x="420.3281" y="-592.7" font-family="Times,serif" font-size="14.00" fill="#000000"> &#160;&#160;&#160;approve(_spender: address, _value: uint256): bool</text>
<text text-anchor="start" x="420.3281" y="-575.9" font-family="Times,serif" font-size="14.00" fill="#000000"> &#160;&#160;&#160;allowance(_owner: address, _spender: address): (remaining: uint256)</text>
</g>
<!-- 4&#45;&gt;2 -->
<g id="edge4" class="edge">
<title>4&#45;&gt;2</title>
<path fill="none" stroke="#000000" d="M489.842,-709.307C461.3416,-724.6567 430.776,-741.1187 400.9362,-757.1898"/>
<polygon fill="none" stroke="#000000" points="395.83,-748.0138 374.396,-771.4837 405.7878,-766.5028 395.83,-748.0138"/>
</g>
<!-- 4&#45;&gt;3 -->
<g id="edge5" class="edge">
<title>4&#45;&gt;3</title>
<path fill="none" stroke="#000000" d="M621.3121,-709.4545C621.3121,-724.9462 621.3121,-741.5648 621.3121,-757.7674"/>
<polygon fill="none" stroke="#000000" points="610.8122,-758.0067 621.3121,-788.0068 631.8122,-758.0068 610.8122,-758.0067"/>
</g>
<!-- 5 -->
<g id="node6" class="node">
<title>5</title>
<polygon fill="#f2f2f2" stroke="#000000" points="827.177,-779.9 827.177,-921.5 1081.4472,-921.5 1081.4472,-779.9 827.177,-779.9"/>
<text text-anchor="middle" x="954.3121" y="-904.9" font-family="Times,serif" font-size="14.00" fill="#000000">Ownable</text>
<polyline fill="none" stroke="#000000" points="827.177,-896.7 1081.4472,-896.7 "/>
<text text-anchor="start" x="835.177" y="-880.1" font-family="Times,serif" font-size="14.00" fill="#000000">Public:</text>
<text text-anchor="start" x="835.177" y="-863.3" font-family="Times,serif" font-size="14.00" fill="#000000"> &#160;&#160;owner: address</text>
<polyline fill="none" stroke="#000000" points="827.177,-855.1 1081.4472,-855.1 "/>
<text text-anchor="start" x="835.177" y="-838.5" font-family="Times,serif" font-size="14.00" fill="#000000">Public:</text>
<text text-anchor="start" x="835.177" y="-821.7" font-family="Times,serif" font-size="14.00" fill="#000000"> &#160;&#160;&#160;&lt;&lt;modifier&gt;&gt; onlyOwner()</text>
<text text-anchor="start" x="835.177" y="-804.9" font-family="Times,serif" font-size="14.00" fill="#000000"> &#160;&#160;&#160;constructor()</text>
<text text-anchor="start" x="835.177" y="-788.1" font-family="Times,serif" font-size="14.00" fill="#000000"> &#160;&#160;&#160;transferOwnership(newOwner: address)</text>
</g>
<!-- 6 -->
<g id="node7" class="node">
<title>6</title>
<polygon fill="#f2f2f2" stroke="#000000" points="886.5211,-542.5 886.5211,-734.5 1100.1031,-734.5 1100.1031,-542.5 886.5211,-542.5"/>
<text text-anchor="middle" x="993.3121" y="-717.9" font-family="Times,serif" font-size="14.00" fill="#000000">Pausable</text>
<polyline fill="none" stroke="#000000" points="886.5211,-709.7 1100.1031,-709.7 "/>
<text text-anchor="start" x="894.5211" y="-693.1" font-family="Times,serif" font-size="14.00" fill="#000000">Public:</text>
<text text-anchor="start" x="894.5211" y="-676.3" font-family="Times,serif" font-size="14.00" fill="#000000"> &#160;&#160;paused: bool</text>
<polyline fill="none" stroke="#000000" points="886.5211,-668.1 1100.1031,-668.1 "/>
<text text-anchor="start" x="894.5211" y="-651.5" font-family="Times,serif" font-size="14.00" fill="#000000">Public:</text>
<text text-anchor="start" x="894.5211" y="-634.7" font-family="Times,serif" font-size="14.00" fill="#000000"> &#160;&#160;&#160;&lt;&lt;event&gt;&gt; Pause()</text>
<text text-anchor="start" x="894.5211" y="-617.9" font-family="Times,serif" font-size="14.00" fill="#000000"> &#160;&#160;&#160;&lt;&lt;event&gt;&gt; Unpause()</text>
<text text-anchor="start" x="894.5211" y="-601.1" font-family="Times,serif" font-size="14.00" fill="#000000"> &#160;&#160;&#160;&lt;&lt;modifier&gt;&gt; whenNotPaused()</text>
<text text-anchor="start" x="894.5211" y="-584.3" font-family="Times,serif" font-size="14.00" fill="#000000"> &#160;&#160;&#160;&lt;&lt;modifier&gt;&gt; whenPaused()</text>
<text text-anchor="start" x="894.5211" y="-567.5" font-family="Times,serif" font-size="14.00" fill="#000000"> &#160;&#160;&#160;pause()</text>
<text text-anchor="start" x="894.5211" y="-550.7" font-family="Times,serif" font-size="14.00" fill="#000000"> &#160;&#160;&#160;unpause()</text>
</g>
<!-- 6&#45;&gt;5 -->
<g id="edge6" class="edge">
<title>6&#45;&gt;5</title>
<path fill="none" stroke="#000000" d="M975.6378,-734.6661C974.7035,-739.7498 973.7635,-744.8642 972.8266,-749.9621"/>
<polygon fill="none" stroke="#000000" points="962.469,-748.2309 967.3731,-779.6347 983.1231,-752.027 962.469,-748.2309"/>
</g>
<!-- 7 -->
<g id="node8" class="node">
<title>7</title>
<polygon fill="#f2f2f2" stroke="#000000" points="701.1953,-279.9 701.1953,-505.5 1015.4289,-505.5 1015.4289,-279.9 701.1953,-279.9"/>
<text text-anchor="middle" x="858.3121" y="-488.9" font-family="Times,serif" font-size="14.00" fill="#000000">MintableToken</text>
<polyline fill="none" stroke="#000000" points="701.1953,-480.7 1015.4289,-480.7 "/>
<text text-anchor="start" x="709.1953" y="-464.1" font-family="Times,serif" font-size="14.00" fill="#000000">Public:</text>
<text text-anchor="start" x="709.1953" y="-447.3" font-family="Times,serif" font-size="14.00" fill="#000000"> &#160;&#160;mintingFinished: bool</text>
<text text-anchor="start" x="709.1953" y="-430.5" font-family="Times,serif" font-size="14.00" fill="#000000"> &#160;&#160;maxTokensToMint: uint256</text>
<polyline fill="none" stroke="#000000" points="701.1953,-422.3 1015.4289,-422.3 "/>
<text text-anchor="start" x="709.1953" y="-405.7" font-family="Times,serif" font-size="14.00" fill="#000000">Internal:</text>
<text text-anchor="start" x="709.1953" y="-388.9" font-family="Times,serif" font-size="14.00" fill="#000000"> &#160;&#160;&#160;mintInternal(_to: address, _amount: uint256): bool</text>
<text text-anchor="start" x="709.1953" y="-372.1" font-family="Times,serif" font-size="14.00" fill="#000000">Public:</text>
<text text-anchor="start" x="709.1953" y="-355.3" font-family="Times,serif" font-size="14.00" fill="#000000"> &#160;&#160;&#160;&lt;&lt;event&gt;&gt; Mint(to: address, amount: uint256)</text>
<text text-anchor="start" x="709.1953" y="-338.5" font-family="Times,serif" font-size="14.00" fill="#000000"> &#160;&#160;&#160;&lt;&lt;event&gt;&gt; MintFinished()</text>
<text text-anchor="start" x="709.1953" y="-321.7" font-family="Times,serif" font-size="14.00" fill="#000000"> &#160;&#160;&#160;&lt;&lt;modifier&gt;&gt; canMint()</text>
<text text-anchor="start" x="709.1953" y="-304.9" font-family="Times,serif" font-size="14.00" fill="#000000"> &#160;&#160;&#160;mint(_to: address, _amount: uint256): bool</text>
<text text-anchor="start" x="709.1953" y="-288.1" font-family="Times,serif" font-size="14.00" fill="#000000"> &#160;&#160;&#160;finishMinting(): bool</text>
</g>
<!-- 7&#45;&gt;4 -->
<g id="edge7" class="edge">
<title>7&#45;&gt;4</title>
<path fill="none" stroke="#000000" d="M749.5231,-505.5284C736.6634,-518.8657 723.65,-532.3622 711.0944,-545.384"/>
<polygon fill="none" stroke="#000000" points="703.0845,-538.5639 689.8201,-567.4483 718.2019,-553.1401 703.0845,-538.5639"/>
</g>
<!-- 7&#45;&gt;5 -->
<g id="edge8" class="edge">
<title>7&#45;&gt;5</title>
<path fill="none" stroke="#000000" d="M849.8474,-505.7023C848.3231,-573.7927 852.7813,-661.3037 877.3121,-735 879.3464,-741.1115 881.7937,-747.2065 884.5458,-753.2221"/>
<polygon fill="none" stroke="#000000" points="875.3082,-758.214 898.7228,-779.7084 893.8228,-748.3039 875.3082,-758.214"/>
</g>
<!-- 7&#45;&gt;6 -->
<g id="edge9" class="edge">
<title>7&#45;&gt;6</title>
<path fill="none" stroke="#000000" d="M920.2805,-505.5284C922.119,-508.8758 923.963,-512.2332 925.8069,-515.5906"/>
<polygon fill="none" stroke="#000000" points="916.7577,-520.9258 940.403,-542.1662 935.1642,-510.8164 916.7577,-520.9258"/>
</g>
<!-- 8 -->
<g id="node9" class="node">
<title>8</title>
<polygon fill="#f2f2f2" stroke="#000000" points="601.6644,-.5 601.6644,-242.9 1114.9598,-242.9 1114.9598,-.5 601.6644,-.5"/>
<text text-anchor="middle" x="858.3121" y="-226.3" font-family="Times,serif" font-size="14.00" fill="#000000">WaBi</text>
<polyline fill="none" stroke="#000000" points="601.6644,-218.1 1114.9598,-218.1 "/>
<text text-anchor="start" x="609.6644" y="-201.5" font-family="Times,serif" font-size="14.00" fill="#000000">Public:</text>
<text text-anchor="start" x="609.6644" y="-184.7" font-family="Times,serif" font-size="14.00" fill="#000000"> &#160;&#160;name: string</text>
<text text-anchor="start" x="609.6644" y="-167.9" font-family="Times,serif" font-size="14.00" fill="#000000"> &#160;&#160;symbol: string</text>
<text text-anchor="start" x="609.6644" y="-151.1" font-family="Times,serif" font-size="14.00" fill="#000000"> &#160;&#160;transferEnabled: bool</text>
<text text-anchor="start" x="609.6644" y="-134.3" font-family="Times,serif" font-size="14.00" fill="#000000"> &#160;&#160;decimals: uint8</text>
<polyline fill="none" stroke="#000000" points="601.6644,-126.1 1114.9598,-126.1 "/>
<text text-anchor="start" x="609.6644" y="-109.5" font-family="Times,serif" font-size="14.00" fill="#000000">Public:</text>
<text text-anchor="start" x="609.6644" y="-92.7" font-family="Times,serif" font-size="14.00" fill="#000000"> &#160;&#160;&#160;&lt;&lt;event&gt;&gt; TokenPurchase(purchaser: address, beneficiary: address, amount: uint256)</text>
<text text-anchor="start" x="609.6644" y="-75.9" font-family="Times,serif" font-size="14.00" fill="#000000"> &#160;&#160;&#160;&lt;&lt;modifier&gt;&gt; canTransfer()</text>
<text text-anchor="start" x="609.6644" y="-59.1" font-family="Times,serif" font-size="14.00" fill="#000000"> &#160;&#160;&#160;transfer(_to: address, _value: uint): bool</text>
<text text-anchor="start" x="609.6644" y="-42.3" font-family="Times,serif" font-size="14.00" fill="#000000"> &#160;&#160;&#160;transferFrom(_from: address, _to: address, _value: uint): bool</text>
<text text-anchor="start" x="609.6644" y="-25.5" font-family="Times,serif" font-size="14.00" fill="#000000"> &#160;&#160;&#160;approve(_spender: address, _value: uint256): bool</text>
<text text-anchor="start" x="609.6644" y="-8.7" font-family="Times,serif" font-size="14.00" fill="#000000"> &#160;&#160;&#160;enableTransfer(): bool</text>
</g>
<!-- 8&#45;&gt;7 -->
<g id="edge10" class="edge">
<title>8&#45;&gt;7</title>
<path fill="none" stroke="#000000" d="M858.3121,-242.9325C858.3121,-245.1356 858.3121,-247.3438 858.3121,-249.5547"/>
<polygon fill="none" stroke="#000000" points="847.8122,-249.7799 858.3121,-279.7799 868.8122,-249.7799 847.8122,-249.7799"/>
</g>
</g>
</svg>
