<?xml version="1.0" encoding="UTF-8" standalone="no"?>
<!DOCTYPE svg PUBLIC "-//W3C//DTD SVG 1.1//EN"
 "http://www.w3.org/Graphics/SVG/1.1/DTD/svg11.dtd">
<!-- Generated by graphviz version 2.40.1 (20161225.0304)
 -->
<!-- Title: UmlClassDiagram Pages: 1 -->
<svg width="1282pt" height="915pt"
 viewBox="0.00 0.00 1282.23 915.40" xmlns="http://www.w3.org/2000/svg" xmlns:xlink="http://www.w3.org/1999/xlink">
<g id="graph0" class="graph" transform="scale(1 1) rotate(0) translate(4 911.4)">
<title>UmlClassDiagram</title>
<polygon fill="#ffffff" stroke="transparent" points="-4,4 -4,-911.4 1278.2283,-911.4 1278.2283,4 -4,4"/>
<!-- 0 -->
<g id="node1" class="node">
<title>0</title>
<polygon fill="#f2f2f2" stroke="#000000" points="0,-748.5 0,-906.9 231.8324,-906.9 231.8324,-748.5 0,-748.5"/>
<text text-anchor="middle" x="115.9162" y="-890.3" font-family="Times,serif" font-size="14.00" fill="#000000">&lt;&lt;Library&gt;&gt;</text>
<text text-anchor="middle" x="115.9162" y="-873.5" font-family="Times,serif" font-size="14.00" fill="#000000">SafeMath</text>
<polyline fill="none" stroke="#000000" points="0,-865.3 231.8324,-865.3 "/>
<text text-anchor="middle" x="115.9162" y="-848.7" font-family="Times,serif" font-size="14.00" fill="#000000"> </text>
<polyline fill="none" stroke="#000000" points="0,-840.5 231.8324,-840.5 "/>
<text text-anchor="start" x="8" y="-823.9" font-family="Times,serif" font-size="14.00" fill="#000000">Internal:</text>
<text text-anchor="start" x="8" y="-807.1" font-family="Times,serif" font-size="14.00" fill="#000000"> &#160;&#160;&#160;mul(a: uint256, b: uint256): uint256</text>
<text text-anchor="start" x="8" y="-790.3" font-family="Times,serif" font-size="14.00" fill="#000000"> &#160;&#160;&#160;div(a: uint256, b: uint256): uint256</text>
<text text-anchor="start" x="8" y="-773.5" font-family="Times,serif" font-size="14.00" fill="#000000"> &#160;&#160;&#160;sub(a: uint256, b: uint256): uint256</text>
<text text-anchor="start" x="8" y="-756.7" font-family="Times,serif" font-size="14.00" fill="#000000"> &#160;&#160;&#160;add(a: uint256, b: uint256): uint256</text>
</g>
<!-- 1 -->
<g id="node2" class="node">
<title>1</title>
<polygon fill="#f2f2f2" stroke="#000000" points="143.4792,-349.3 143.4792,-507.7 628.3532,-507.7 628.3532,-349.3 143.4792,-349.3"/>
<text text-anchor="middle" x="385.9162" y="-491.1" font-family="Times,serif" font-size="14.00" fill="#000000">Ownable</text>
<polyline fill="none" stroke="#000000" points="143.4792,-482.9 628.3532,-482.9 "/>
<text text-anchor="start" x="151.4792" y="-466.3" font-family="Times,serif" font-size="14.00" fill="#000000">Public:</text>
<text text-anchor="start" x="151.4792" y="-449.5" font-family="Times,serif" font-size="14.00" fill="#000000"> &#160;&#160;owner: address</text>
<polyline fill="none" stroke="#000000" points="143.4792,-441.3 628.3532,-441.3 "/>
<text text-anchor="start" x="151.4792" y="-424.7" font-family="Times,serif" font-size="14.00" fill="#000000">Public:</text>
<text text-anchor="start" x="151.4792" y="-407.9" font-family="Times,serif" font-size="14.00" fill="#000000"> &#160;&#160;&#160;&lt;&lt;event&gt;&gt; OwnershipTransferred(previousOwner: address, newOwner: address)</text>
<text text-anchor="start" x="151.4792" y="-391.1" font-family="Times,serif" font-size="14.00" fill="#000000"> &#160;&#160;&#160;&lt;&lt;modifier&gt;&gt; onlyOwner()</text>
<text text-anchor="start" x="151.4792" y="-374.3" font-family="Times,serif" font-size="14.00" fill="#000000"> &#160;&#160;&#160;constructor()</text>
<text text-anchor="start" x="151.4792" y="-357.5" font-family="Times,serif" font-size="14.00" fill="#000000"> &#160;&#160;&#160;transferOwnership(newOwner: address)</text>
</g>
<!-- 2 -->
<g id="node3" class="node">
<title>2</title>
<polygon fill="#f2f2f2" stroke="#000000" points="658.1858,-748.5 658.1858,-906.9 1041.6466,-906.9 1041.6466,-748.5 658.1858,-748.5"/>
<text text-anchor="middle" x="849.9162" y="-890.3" font-family="Times,serif" font-size="14.00" fill="#000000">&lt;&lt;Abstract&gt;&gt;</text>
<text text-anchor="middle" x="849.9162" y="-873.5" font-family="Times,serif" font-size="14.00" fill="#000000">ERC20Basic</text>
<polyline fill="none" stroke="#000000" points="658.1858,-865.3 1041.6466,-865.3 "/>
<text text-anchor="start" x="666.1858" y="-848.7" font-family="Times,serif" font-size="14.00" fill="#000000">Public:</text>
<text text-anchor="start" x="666.1858" y="-831.9" font-family="Times,serif" font-size="14.00" fill="#000000"> &#160;&#160;totalSupply: uint256</text>
<polyline fill="none" stroke="#000000" points="658.1858,-823.7 1041.6466,-823.7 "/>
<text text-anchor="start" x="666.1858" y="-807.1" font-family="Times,serif" font-size="14.00" fill="#000000">Public:</text>
<text text-anchor="start" x="666.1858" y="-790.3" font-family="Times,serif" font-size="14.00" fill="#000000"> &#160;&#160;&#160;&lt;&lt;abstract&gt;&gt; balanceOf(who: address): uint256</text>
<text text-anchor="start" x="666.1858" y="-773.5" font-family="Times,serif" font-size="14.00" fill="#000000"> &#160;&#160;&#160;&lt;&lt;abstract&gt;&gt; transfer(to: address, value: uint256): bool</text>
<text text-anchor="start" x="666.1858" y="-756.7" font-family="Times,serif" font-size="14.00" fill="#000000"> &#160;&#160;&#160;&lt;&lt;event&gt;&gt; Transfer(from: address, to: address, value: uint256)</text>
</g>
<!-- 3 -->
<g id="node4" class="node">
<title>3</title>
<polygon fill="#f2f2f2" stroke="#000000" points="504.0055,-569.9 504.0055,-694.7 801.8269,-694.7 801.8269,-569.9 504.0055,-569.9"/>
<text text-anchor="middle" x="652.9162" y="-678.1" font-family="Times,serif" font-size="14.00" fill="#000000">BasicToken</text>
<polyline fill="none" stroke="#000000" points="504.0055,-669.9 801.8269,-669.9 "/>
<text text-anchor="start" x="512.0055" y="-653.3" font-family="Times,serif" font-size="14.00" fill="#000000">Public:</text>
<text text-anchor="start" x="512.0055" y="-636.5" font-family="Times,serif" font-size="14.00" fill="#000000"> &#160;&#160;balances: mapping(address=&gt;uint256)</text>
<polyline fill="none" stroke="#000000" points="504.0055,-628.3 801.8269,-628.3 "/>
<text text-anchor="start" x="512.0055" y="-611.7" font-family="Times,serif" font-size="14.00" fill="#000000">Public:</text>
<text text-anchor="start" x="512.0055" y="-594.9" font-family="Times,serif" font-size="14.00" fill="#000000"> &#160;&#160;&#160;transfer(_to: address, _value: uint256): bool</text>
<text text-anchor="start" x="512.0055" y="-578.1" font-family="Times,serif" font-size="14.00" fill="#000000"> &#160;&#160;&#160;balanceOf(_owner: address): (balance: uint256)</text>
</g>
<!-- 3&#45;&gt;0 -->
<g id="edge2" class="edge">
<title>3&#45;&gt;0</title>
<path fill="none" stroke="#000000" stroke-dasharray="5,2" d="M503.6884,-686.6C421.2239,-716.6067 319.9202,-753.4684 241.5382,-781.9895"/>
<polygon fill="#000000" stroke="#000000" points="240.2962,-778.7168 232.0958,-785.4253 242.6899,-785.2949 240.2962,-778.7168"/>
</g>
<!-- 3&#45;&gt;2 -->
<g id="edge1" class="edge">
<title>3&#45;&gt;2</title>
<path fill="none" stroke="#000000" d="M716.0611,-694.9321C726.3517,-705.1391 737.2359,-715.9349 748.1735,-726.7836"/>
<polygon fill="none" stroke="#000000" points="741.126,-734.5824 769.8198,-748.2542 755.9146,-719.6728 741.126,-734.5824"/>
</g>
<!-- 4 -->
<g id="node5" class="node">
<title>4</title>
<polygon fill="#f2f2f2" stroke="#000000" points="819.6041,-553.1 819.6041,-711.5 1274.2283,-711.5 1274.2283,-553.1 819.6041,-553.1"/>
<text text-anchor="middle" x="1046.9162" y="-694.9" font-family="Times,serif" font-size="14.00" fill="#000000">&lt;&lt;Abstract&gt;&gt;</text>
<text text-anchor="middle" x="1046.9162" y="-678.1" font-family="Times,serif" font-size="14.00" fill="#000000">ERC20</text>
<polyline fill="none" stroke="#000000" points="819.6041,-669.9 1274.2283,-669.9 "/>
<text text-anchor="middle" x="1046.9162" y="-653.3" font-family="Times,serif" font-size="14.00" fill="#000000"> </text>
<polyline fill="none" stroke="#000000" points="819.6041,-645.1 1274.2283,-645.1 "/>
<text text-anchor="start" x="827.6041" y="-628.5" font-family="Times,serif" font-size="14.00" fill="#000000">Public:</text>
<text text-anchor="start" x="827.6041" y="-611.7" font-family="Times,serif" font-size="14.00" fill="#000000"> &#160;&#160;&#160;&lt;&lt;abstract&gt;&gt; allowance(owner: address, spender: address): uint256</text>
<text text-anchor="start" x="827.6041" y="-594.9" font-family="Times,serif" font-size="14.00" fill="#000000"> &#160;&#160;&#160;&lt;&lt;abstract&gt;&gt; transferFrom(from: address, to: address, value: uint256): bool</text>
<text text-anchor="start" x="827.6041" y="-578.1" font-family="Times,serif" font-size="14.00" fill="#000000"> &#160;&#160;&#160;&lt;&lt;abstract&gt;&gt; approve(spender: address, value: uint256): bool</text>
<text text-anchor="start" x="827.6041" y="-561.3" font-family="Times,serif" font-size="14.00" fill="#000000"> &#160;&#160;&#160;&lt;&lt;event&gt;&gt; Approval(owner: address, spender: address, value: uint256)</text>
</g>
<!-- 4&#45;&gt;2 -->
<g id="edge3" class="edge">
<title>4&#45;&gt;2</title>
<path fill="none" stroke="#000000" d="M966.7888,-711.7767C961.7605,-716.7641 956.666,-721.8172 951.5602,-726.8816"/>
<polygon fill="none" stroke="#000000" points="943.8779,-719.7124 929.9726,-748.2938 958.6665,-734.6221 943.8779,-719.7124"/>
</g>
<!-- 5 -->
<g id="node6" class="node">
<title>5</title>
<polygon fill="#f2f2f2" stroke="#000000" points="646.5735,-340.9 646.5735,-516.1 1053.2589,-516.1 1053.2589,-340.9 646.5735,-340.9"/>
<text text-anchor="middle" x="849.9162" y="-499.5" font-family="Times,serif" font-size="14.00" fill="#000000">StandardToken</text>
<polyline fill="none" stroke="#000000" points="646.5735,-491.3 1053.2589,-491.3 "/>
<text text-anchor="start" x="654.5735" y="-474.7" font-family="Times,serif" font-size="14.00" fill="#000000">Internal:</text>
<text text-anchor="start" x="654.5735" y="-457.9" font-family="Times,serif" font-size="14.00" fill="#000000"> &#160;&#160;allowed: mapping(address=&gt;mapping(address=&gt;uint256))</text>
<polyline fill="none" stroke="#000000" points="646.5735,-449.7 1053.2589,-449.7 "/>
<text text-anchor="start" x="654.5735" y="-433.1" font-family="Times,serif" font-size="14.00" fill="#000000">Public:</text>
<text text-anchor="start" x="654.5735" y="-416.3" font-family="Times,serif" font-size="14.00" fill="#000000"> &#160;&#160;&#160;transferFrom(_from: address, _to: address, _value: uint256): bool</text>
<text text-anchor="start" x="654.5735" y="-399.5" font-family="Times,serif" font-size="14.00" fill="#000000"> &#160;&#160;&#160;approve(_spender: address, _value: uint256): bool</text>
<text text-anchor="start" x="654.5735" y="-382.7" font-family="Times,serif" font-size="14.00" fill="#000000"> &#160;&#160;&#160;allowance(_owner: address, _spender: address): uint256</text>
<text text-anchor="start" x="654.5735" y="-365.9" font-family="Times,serif" font-size="14.00" fill="#000000"> &#160;&#160;&#160;increaseApproval(_spender: address, _addedValue: uint): bool</text>
<text text-anchor="start" x="654.5735" y="-349.1" font-family="Times,serif" font-size="14.00" fill="#000000"> &#160;&#160;&#160;decreaseApproval(_spender: address, _subtractedValue: uint): bool</text>
</g>
<!-- 5&#45;&gt;3 -->
<g id="edge5" class="edge">
<title>5&#45;&gt;3</title>
<path fill="none" stroke="#000000" d="M765.2272,-516.1123C755.0228,-526.6689 744.6166,-537.4343 734.4585,-547.943"/>
<polygon fill="none" stroke="#000000" points="726.7546,-540.8051 713.4538,-569.6728 741.8537,-555.4003 726.7546,-540.8051"/>
</g>
<!-- 5&#45;&gt;4 -->
<g id="edge4" class="edge">
<title>5&#45;&gt;4</title>
<path fill="none" stroke="#000000" d="M934.6052,-516.1123C939.3925,-521.0649 944.2243,-526.0634 949.0539,-531.0597"/>
<polygon fill="none" stroke="#000000" points="941.6723,-538.531 970.0721,-552.8034 956.7713,-523.9358 941.6723,-538.531"/>
</g>
<!-- 6 -->
<g id="node7" class="node">
<title>6</title>
<polygon fill="#f2f2f2" stroke="#000000" points="237.5214,-195.9 237.5214,-303.9 534.311,-303.9 534.311,-195.9 237.5214,-195.9"/>
<text text-anchor="middle" x="385.9162" y="-287.3" font-family="Times,serif" font-size="14.00" fill="#000000">BurnableToken</text>
<polyline fill="none" stroke="#000000" points="237.5214,-279.1 534.311,-279.1 "/>
<text text-anchor="middle" x="385.9162" y="-262.5" font-family="Times,serif" font-size="14.00" fill="#000000"> </text>
<polyline fill="none" stroke="#000000" points="237.5214,-254.3 534.311,-254.3 "/>
<text text-anchor="start" x="245.5214" y="-237.7" font-family="Times,serif" font-size="14.00" fill="#000000">Public:</text>
<text text-anchor="start" x="245.5214" y="-220.9" font-family="Times,serif" font-size="14.00" fill="#000000"> &#160;&#160;&#160;&lt;&lt;event&gt;&gt; Burn(from: address, value: uint256)</text>
<text text-anchor="start" x="245.5214" y="-204.1" font-family="Times,serif" font-size="14.00" fill="#000000"> &#160;&#160;&#160;burn(_value: uint256): (success: bool)</text>
</g>
<!-- 6&#45;&gt;0 -->
<g id="edge8" class="edge">
<title>6&#45;&gt;0</title>
<path fill="none" stroke="#000000" stroke-dasharray="5,2" d="M237.512,-288.1625C191.342,-303.1868 148.8357,-321.3835 134.9162,-340.4 90.2285,-401.4516 98.6772,-614.7716 107.8494,-737.9916"/>
<polygon fill="#000000" stroke="#000000" points="104.3748,-738.459 108.6236,-748.1646 111.3546,-737.9278 104.3748,-738.459"/>
</g>
<!-- 6&#45;&gt;1 -->
<g id="edge7" class="edge">
<title>6&#45;&gt;1</title>
<path fill="none" stroke="#000000" d="M385.9162,-303.9706C385.9162,-308.8762 385.9162,-313.9508 385.9162,-319.1201"/>
<polygon fill="none" stroke="#000000" points="375.4163,-319.2442 385.9162,-349.2443 396.4163,-319.2443 375.4163,-319.2442"/>
</g>
<!-- 6&#45;&gt;5 -->
<g id="edge6" class="edge">
<title>6&#45;&gt;5</title>
<path fill="none" stroke="#000000" d="M534.3244,-302.1281C560.3582,-311.5633 587.5056,-321.5698 618.0645,-333.2052"/>
<polygon fill="none" stroke="#000000" points="614.7306,-343.1725 646.5007,-344.1262 622.2595,-323.5685 614.7306,-343.1725"/>
</g>
<!-- 7 -->
<g id="node8" class="node">
<title>7</title>
<polygon fill="#f2f2f2" stroke="#000000" points="292.3734,-.5 292.3734,-158.9 479.459,-158.9 479.459,-.5 292.3734,-.5"/>
<text text-anchor="middle" x="385.9162" y="-142.3" font-family="Times,serif" font-size="14.00" fill="#000000">UtrustToken</text>
<polyline fill="none" stroke="#000000" points="292.3734,-134.1 479.459,-134.1 "/>
<text text-anchor="start" x="300.3734" y="-117.5" font-family="Times,serif" font-size="14.00" fill="#000000">Public:</text>
<text text-anchor="start" x="300.3734" y="-100.7" font-family="Times,serif" font-size="14.00" fill="#000000"> &#160;&#160;name: string</text>
<text text-anchor="start" x="300.3734" y="-83.9" font-family="Times,serif" font-size="14.00" fill="#000000"> &#160;&#160;symbol: string</text>
<text text-anchor="start" x="300.3734" y="-67.1" font-family="Times,serif" font-size="14.00" fill="#000000"> &#160;&#160;decimals: uint8</text>
<text text-anchor="start" x="300.3734" y="-50.3" font-family="Times,serif" font-size="14.00" fill="#000000"> &#160;&#160;INITIAL_SUPPLY: uint256</text>
<polyline fill="none" stroke="#000000" points="292.3734,-42.1 479.459,-42.1 "/>
<text text-anchor="start" x="300.3734" y="-25.5" font-family="Times,serif" font-size="14.00" fill="#000000">Public:</text>
<text text-anchor="start" x="300.3734" y="-8.7" font-family="Times,serif" font-size="14.00" fill="#000000"> &#160;&#160;&#160;constructor()</text>
</g>
<!-- 7&#45;&gt;0 -->
<g id="edge10" class="edge">
<title>7&#45;&gt;0</title>
<path fill="none" stroke="#000000" stroke-dasharray="5,2" d="M292.1564,-131.6509C222.471,-176.4579 133.5578,-248.4299 97.9162,-340.4 47.0689,-471.607 69.8377,-637.8614 92.0634,-738.3403"/>
<polygon fill="#000000" stroke="#000000" points="88.6629,-739.1718 94.2791,-748.1556 95.4911,-737.6303 88.6629,-739.1718"/>
</g>
<!-- 7&#45;&gt;6 -->
<g id="edge9" class="edge">
<title>7&#45;&gt;6</title>
<path fill="none" stroke="#000000" d="M385.9162,-159.3184C385.9162,-161.334 385.9162,-163.3537 385.9162,-165.3729"/>
<polygon fill="none" stroke="#000000" points="375.4163,-165.6035 385.9162,-195.6035 396.4163,-165.6035 375.4163,-165.6035"/>
</g>
</g>
</svg>
