<?xml version="1.0" encoding="UTF-8" standalone="no"?>
<!DOCTYPE svg PUBLIC "-//W3C//DTD SVG 1.1//EN"
 "http://www.w3.org/Graphics/SVG/1.1/DTD/svg11.dtd">
<!-- Generated by graphviz version 2.40.1 (20161225.0304)
 -->
<!-- Title: UmlClassDiagram Pages: 1 -->
<svg width="918pt" height="754pt"
 viewBox="0.00 0.00 918.06 753.60" xmlns="http://www.w3.org/2000/svg" xmlns:xlink="http://www.w3.org/1999/xlink">
<g id="graph0" class="graph" transform="scale(1 1) rotate(0) translate(4 749.6)">
<title>UmlClassDiagram</title>
<polygon fill="#ffffff" stroke="transparent" points="-4,4 -4,-749.6 914.0604,-749.6 914.0604,4 -4,4"/>
<!-- 0 -->
<g id="node1" class="node">
<title>0</title>
<polygon fill="#f2f2f2" stroke="#000000" points="505.3959,-586.7 505.3959,-745.1 737.2283,-745.1 737.2283,-586.7 505.3959,-586.7"/>
<text text-anchor="middle" x="621.3121" y="-728.5" font-family="Times,serif" font-size="14.00" fill="#000000">&lt;&lt;Library&gt;&gt;</text>
<text text-anchor="middle" x="621.3121" y="-711.7" font-family="Times,serif" font-size="14.00" fill="#000000">SafeMath</text>
<polyline fill="none" stroke="#000000" points="505.3959,-703.5 737.2283,-703.5 "/>
<text text-anchor="middle" x="621.3121" y="-686.9" font-family="Times,serif" font-size="14.00" fill="#000000"> </text>
<polyline fill="none" stroke="#000000" points="505.3959,-678.7 737.2283,-678.7 "/>
<text text-anchor="start" x="513.3959" y="-662.1" font-family="Times,serif" font-size="14.00" fill="#000000">Internal:</text>
<text text-anchor="start" x="513.3959" y="-645.3" font-family="Times,serif" font-size="14.00" fill="#000000"> &#160;&#160;&#160;mul(a: uint256, b: uint256): uint256</text>
<text text-anchor="start" x="513.3959" y="-628.5" font-family="Times,serif" font-size="14.00" fill="#000000"> &#160;&#160;&#160;div(a: uint256, b: uint256): uint256</text>
<text text-anchor="start" x="513.3959" y="-611.7" font-family="Times,serif" font-size="14.00" fill="#000000"> &#160;&#160;&#160;sub(a: uint256, b: uint256): uint256</text>
<text text-anchor="start" x="513.3959" y="-594.9" font-family="Times,serif" font-size="14.00" fill="#000000"> &#160;&#160;&#160;add(a: uint256, b: uint256): uint256</text>
</g>
<!-- 1 -->
<g id="node2" class="node">
<title>1</title>
<polygon fill="#f2f2f2" stroke="#000000" points="69.5817,-586.7 69.5817,-745.1 453.0425,-745.1 453.0425,-586.7 69.5817,-586.7"/>
<text text-anchor="middle" x="261.3121" y="-728.5" font-family="Times,serif" font-size="14.00" fill="#000000">&lt;&lt;Abstract&gt;&gt;</text>
<text text-anchor="middle" x="261.3121" y="-711.7" font-family="Times,serif" font-size="14.00" fill="#000000">ERC20Basic</text>
<polyline fill="none" stroke="#000000" points="69.5817,-703.5 453.0425,-703.5 "/>
<text text-anchor="middle" x="261.3121" y="-686.9" font-family="Times,serif" font-size="14.00" fill="#000000"> </text>
<polyline fill="none" stroke="#000000" points="69.5817,-678.7 453.0425,-678.7 "/>
<text text-anchor="start" x="77.5817" y="-662.1" font-family="Times,serif" font-size="14.00" fill="#000000">Public:</text>
<text text-anchor="start" x="77.5817" y="-645.3" font-family="Times,serif" font-size="14.00" fill="#000000"> &#160;&#160;&#160;&lt;&lt;abstract&gt;&gt; totalSupply(): uint256</text>
<text text-anchor="start" x="77.5817" y="-628.5" font-family="Times,serif" font-size="14.00" fill="#000000"> &#160;&#160;&#160;&lt;&lt;abstract&gt;&gt; balanceOf(who: address): uint256</text>
<text text-anchor="start" x="77.5817" y="-611.7" font-family="Times,serif" font-size="14.00" fill="#000000"> &#160;&#160;&#160;&lt;&lt;abstract&gt;&gt; transfer(to: address, value: uint256): bool</text>
<text text-anchor="start" x="77.5817" y="-594.9" font-family="Times,serif" font-size="14.00" fill="#000000"> &#160;&#160;&#160;&lt;&lt;event&gt;&gt; Transfer(from: address, to: address, value: uint256)</text>
</g>
<!-- 2 -->
<g id="node3" class="node">
<title>2</title>
<polygon fill="#f2f2f2" stroke="#000000" points="0,-391.3 0,-549.7 454.6242,-549.7 454.6242,-391.3 0,-391.3"/>
<text text-anchor="middle" x="227.3121" y="-533.1" font-family="Times,serif" font-size="14.00" fill="#000000">&lt;&lt;Abstract&gt;&gt;</text>
<text text-anchor="middle" x="227.3121" y="-516.3" font-family="Times,serif" font-size="14.00" fill="#000000">ERC20</text>
<polyline fill="none" stroke="#000000" points="0,-508.1 454.6242,-508.1 "/>
<text text-anchor="middle" x="227.3121" y="-491.5" font-family="Times,serif" font-size="14.00" fill="#000000"> </text>
<polyline fill="none" stroke="#000000" points="0,-483.3 454.6242,-483.3 "/>
<text text-anchor="start" x="8" y="-466.7" font-family="Times,serif" font-size="14.00" fill="#000000">Public:</text>
<text text-anchor="start" x="8" y="-449.9" font-family="Times,serif" font-size="14.00" fill="#000000"> &#160;&#160;&#160;&lt;&lt;abstract&gt;&gt; allowance(owner: address, spender: address): uint256</text>
<text text-anchor="start" x="8" y="-433.1" font-family="Times,serif" font-size="14.00" fill="#000000"> &#160;&#160;&#160;&lt;&lt;abstract&gt;&gt; transferFrom(from: address, to: address, value: uint256): bool</text>
<text text-anchor="start" x="8" y="-416.3" font-family="Times,serif" font-size="14.00" fill="#000000"> &#160;&#160;&#160;&lt;&lt;abstract&gt;&gt; approve(spender: address, value: uint256): bool</text>
<text text-anchor="start" x="8" y="-399.5" font-family="Times,serif" font-size="14.00" fill="#000000"> &#160;&#160;&#160;&lt;&lt;event&gt;&gt; Approval(owner: address, spender: address, value: uint256)</text>
</g>
<!-- 2&#45;&gt;1 -->
<g id="edge1" class="edge">
<title>2&#45;&gt;1</title>
<path fill="none" stroke="#000000" d="M241.1412,-549.9767C241.5342,-552.2351 241.9295,-554.5071 242.3263,-556.7874"/>
<polygon fill="none" stroke="#000000" points="232.0078,-558.7379 247.4953,-586.4938 252.697,-555.1379 232.0078,-558.7379"/>
</g>
<!-- 3 -->
<g id="node4" class="node">
<title>3</title>
<polygon fill="#f2f2f2" stroke="#000000" points="472.4014,-391.3 472.4014,-549.7 770.2228,-549.7 770.2228,-391.3 472.4014,-391.3"/>
<text text-anchor="middle" x="621.3121" y="-533.1" font-family="Times,serif" font-size="14.00" fill="#000000">BasicToken</text>
<polyline fill="none" stroke="#000000" points="472.4014,-524.9 770.2228,-524.9 "/>
<text text-anchor="start" x="480.4014" y="-508.3" font-family="Times,serif" font-size="14.00" fill="#000000">Public:</text>
<text text-anchor="start" x="480.4014" y="-491.5" font-family="Times,serif" font-size="14.00" fill="#000000"> &#160;&#160;balances: mapping(address=&gt;uint256)</text>
<text text-anchor="start" x="480.4014" y="-474.7" font-family="Times,serif" font-size="14.00" fill="#000000"> &#160;&#160;totalSupply_: uint256</text>
<polyline fill="none" stroke="#000000" points="472.4014,-466.5 770.2228,-466.5 "/>
<text text-anchor="start" x="480.4014" y="-449.9" font-family="Times,serif" font-size="14.00" fill="#000000">Public:</text>
<text text-anchor="start" x="480.4014" y="-433.1" font-family="Times,serif" font-size="14.00" fill="#000000"> &#160;&#160;&#160;totalSupply(): uint256</text>
<text text-anchor="start" x="480.4014" y="-416.3" font-family="Times,serif" font-size="14.00" fill="#000000"> &#160;&#160;&#160;transfer(_to: address, _value: uint256): bool</text>
<text text-anchor="start" x="480.4014" y="-399.5" font-family="Times,serif" font-size="14.00" fill="#000000"> &#160;&#160;&#160;balanceOf(_owner: address): (balance: uint256)</text>
</g>
<!-- 3&#45;&gt;0 -->
<g id="edge3" class="edge">
<title>3&#45;&gt;0</title>
<path fill="none" stroke="#000000" stroke-dasharray="5,2" d="M621.3121,-549.9767C621.3121,-558.6341 621.3121,-567.4895 621.3121,-576.2577"/>
<polygon fill="#000000" stroke="#000000" points="617.8122,-576.4937 621.3121,-586.4938 624.8122,-576.4938 617.8122,-576.4937"/>
</g>
<!-- 3&#45;&gt;1 -->
<g id="edge2" class="edge">
<title>3&#45;&gt;1</title>
<path fill="none" stroke="#000000" d="M475.1458,-549.8358C461.5551,-557.2126 447.6973,-564.7342 433.8978,-572.2243"/>
<polygon fill="none" stroke="#000000" points="428.8752,-563.0034 407.5176,-586.5429 438.893,-581.46 428.8752,-563.0034"/>
</g>
<!-- 4 -->
<g id="node5" class="node">
<title>4</title>
<polygon fill="#f2f2f2" stroke="#000000" points="417.9694,-179.1 417.9694,-354.3 824.6548,-354.3 824.6548,-179.1 417.9694,-179.1"/>
<text text-anchor="middle" x="621.3121" y="-337.7" font-family="Times,serif" font-size="14.00" fill="#000000">StandardToken</text>
<polyline fill="none" stroke="#000000" points="417.9694,-329.5 824.6548,-329.5 "/>
<text text-anchor="start" x="425.9694" y="-312.9" font-family="Times,serif" font-size="14.00" fill="#000000">Internal:</text>
<text text-anchor="start" x="425.9694" y="-296.1" font-family="Times,serif" font-size="14.00" fill="#000000"> &#160;&#160;allowed: mapping(address=&gt;mapping(address=&gt;uint256))</text>
<polyline fill="none" stroke="#000000" points="417.9694,-287.9 824.6548,-287.9 "/>
<text text-anchor="start" x="425.9694" y="-271.3" font-family="Times,serif" font-size="14.00" fill="#000000">Public:</text>
<text text-anchor="start" x="425.9694" y="-254.5" font-family="Times,serif" font-size="14.00" fill="#000000"> &#160;&#160;&#160;transferFrom(_from: address, _to: address, _value: uint256): bool</text>
<text text-anchor="start" x="425.9694" y="-237.7" font-family="Times,serif" font-size="14.00" fill="#000000"> &#160;&#160;&#160;approve(_spender: address, _value: uint256): bool</text>
<text text-anchor="start" x="425.9694" y="-220.9" font-family="Times,serif" font-size="14.00" fill="#000000"> &#160;&#160;&#160;allowance(_owner: address, _spender: address): uint256</text>
<text text-anchor="start" x="425.9694" y="-204.1" font-family="Times,serif" font-size="14.00" fill="#000000"> &#160;&#160;&#160;increaseApproval(_spender: address, _addedValue: uint): bool</text>
<text text-anchor="start" x="425.9694" y="-187.3" font-family="Times,serif" font-size="14.00" fill="#000000"> &#160;&#160;&#160;decreaseApproval(_spender: address, _subtractedValue: uint): bool</text>
</g>
<!-- 4&#45;&gt;2 -->
<g id="edge4" class="edge">
<title>4&#45;&gt;2</title>
<path fill="none" stroke="#000000" d="M451.9341,-354.3123C437.2311,-361.9175 422.3188,-369.631 407.5335,-377.2789"/>
<polygon fill="none" stroke="#000000" points="402.5139,-368.0538 380.6916,-391.1631 412.162,-386.7062 402.5139,-368.0538"/>
</g>
<!-- 4&#45;&gt;3 -->
<g id="edge5" class="edge">
<title>4&#45;&gt;3</title>
<path fill="none" stroke="#000000" d="M621.3121,-354.3123C621.3121,-356.5029 621.3121,-358.7024 621.3121,-360.9068"/>
<polygon fill="none" stroke="#000000" points="610.8122,-361.0034 621.3121,-391.0034 631.8122,-361.0034 610.8122,-361.0034"/>
</g>
<!-- 5 -->
<g id="node6" class="node">
<title>5</title>
<polygon fill="#f2f2f2" stroke="#000000" points="332.5638,-.5 332.5638,-142.1 910.0604,-142.1 910.0604,-.5 332.5638,-.5"/>
<text text-anchor="middle" x="621.3121" y="-125.5" font-family="Times,serif" font-size="14.00" fill="#000000">FUSIONToken</text>
<polyline fill="none" stroke="#000000" points="332.5638,-117.3 910.0604,-117.3 "/>
<text text-anchor="start" x="340.5638" y="-100.7" font-family="Times,serif" font-size="14.00" fill="#000000">Public:</text>
<text text-anchor="start" x="340.5638" y="-83.9" font-family="Times,serif" font-size="14.00" fill="#000000"> &#160;&#160;name: string</text>
<text text-anchor="start" x="340.5638" y="-67.1" font-family="Times,serif" font-size="14.00" fill="#000000"> &#160;&#160;symbol: string</text>
<text text-anchor="start" x="340.5638" y="-50.3" font-family="Times,serif" font-size="14.00" fill="#000000"> &#160;&#160;decimals: uint8</text>
<polyline fill="none" stroke="#000000" points="332.5638,-42.1 910.0604,-42.1 "/>
<text text-anchor="start" x="340.5638" y="-25.5" font-family="Times,serif" font-size="14.00" fill="#000000">Public:</text>
<text text-anchor="start" x="340.5638" y="-8.7" font-family="Times,serif" font-size="14.00" fill="#000000"> &#160;&#160;&#160;constructor(_initialSupply: uint256, _tokenName: string, _tokenSymbol: string, _decimals: uint8)</text>
</g>
<!-- 5&#45;&gt;4 -->
<g id="edge6" class="edge">
<title>5&#45;&gt;4</title>
<path fill="none" stroke="#000000" d="M621.3121,-142.1202C621.3121,-144.2593 621.3121,-146.4171 621.3121,-148.589"/>
<polygon fill="none" stroke="#000000" points="610.8122,-148.7815 621.3121,-178.7815 631.8122,-148.7816 610.8122,-148.7815"/>
</g>
</g>
</svg>
