<?xml version="1.0" encoding="UTF-8" standalone="no"?>
<!DOCTYPE svg PUBLIC "-//W3C//DTD SVG 1.1//EN"
 "http://www.w3.org/Graphics/SVG/1.1/DTD/svg11.dtd">
<!-- Generated by graphviz version 2.40.1 (20161225.0304)
 -->
<!-- Title: UmlClassDiagram Pages: 1 -->
<svg width="918pt" height="1144pt"
 viewBox="0.00 0.00 917.78 1144.40" xmlns="http://www.w3.org/2000/svg" xmlns:xlink="http://www.w3.org/1999/xlink">
<g id="graph0" class="graph" transform="scale(1 1) rotate(0) translate(4 1140.4)">
<title>UmlClassDiagram</title>
<polygon fill="#ffffff" stroke="transparent" points="-4,4 -4,-1140.4 913.7797,-1140.4 913.7797,4 -4,4"/>
<!-- 0 -->
<g id="node1" class="node">
<title>0</title>
<polygon fill="#f2f2f2" stroke="#000000" points="0,-578.3 0,-736.7 484.874,-736.7 484.874,-578.3 0,-578.3"/>
<text text-anchor="middle" x="242.437" y="-720.1" font-family="Times,serif" font-size="14.00" fill="#000000">Ownable</text>
<polyline fill="none" stroke="#000000" points="0,-711.9 484.874,-711.9 "/>
<text text-anchor="start" x="8" y="-695.3" font-family="Times,serif" font-size="14.00" fill="#000000">Public:</text>
<text text-anchor="start" x="8" y="-678.5" font-family="Times,serif" font-size="14.00" fill="#000000"> &#160;&#160;owner: address</text>
<polyline fill="none" stroke="#000000" points="0,-670.3 484.874,-670.3 "/>
<text text-anchor="start" x="8" y="-653.7" font-family="Times,serif" font-size="14.00" fill="#000000">Public:</text>
<text text-anchor="start" x="8" y="-636.9" font-family="Times,serif" font-size="14.00" fill="#000000"> &#160;&#160;&#160;&lt;&lt;event&gt;&gt; OwnershipTransferred(previousOwner: address, newOwner: address)</text>
<text text-anchor="start" x="8" y="-620.1" font-family="Times,serif" font-size="14.00" fill="#000000"> &#160;&#160;&#160;&lt;&lt;modifier&gt;&gt; onlyOwner()</text>
<text text-anchor="start" x="8" y="-603.3" font-family="Times,serif" font-size="14.00" fill="#000000"> &#160;&#160;&#160;constructor()</text>
<text text-anchor="start" x="8" y="-586.5" font-family="Times,serif" font-size="14.00" fill="#000000"> &#160;&#160;&#160;transferOwnership(newOwner: address)</text>
</g>
<!-- 1 -->
<g id="node2" class="node">
<title>1</title>
<polygon fill="#f2f2f2" stroke="#000000" points="154.7066,-977.5 154.7066,-1135.9 538.1674,-1135.9 538.1674,-977.5 154.7066,-977.5"/>
<text text-anchor="middle" x="346.437" y="-1119.3" font-family="Times,serif" font-size="14.00" fill="#000000">&lt;&lt;Abstract&gt;&gt;</text>
<text text-anchor="middle" x="346.437" y="-1102.5" font-family="Times,serif" font-size="14.00" fill="#000000">ERC20Basic</text>
<polyline fill="none" stroke="#000000" points="154.7066,-1094.3 538.1674,-1094.3 "/>
<text text-anchor="middle" x="346.437" y="-1077.7" font-family="Times,serif" font-size="14.00" fill="#000000"> </text>
<polyline fill="none" stroke="#000000" points="154.7066,-1069.5 538.1674,-1069.5 "/>
<text text-anchor="start" x="162.7066" y="-1052.9" font-family="Times,serif" font-size="14.00" fill="#000000">Public:</text>
<text text-anchor="start" x="162.7066" y="-1036.1" font-family="Times,serif" font-size="14.00" fill="#000000"> &#160;&#160;&#160;&lt;&lt;abstract&gt;&gt; totalSupply(): uint256</text>
<text text-anchor="start" x="162.7066" y="-1019.3" font-family="Times,serif" font-size="14.00" fill="#000000"> &#160;&#160;&#160;&lt;&lt;abstract&gt;&gt; balanceOf(who: address): uint256</text>
<text text-anchor="start" x="162.7066" y="-1002.5" font-family="Times,serif" font-size="14.00" fill="#000000"> &#160;&#160;&#160;&lt;&lt;abstract&gt;&gt; transfer(to: address, value: uint256): bool</text>
<text text-anchor="start" x="162.7066" y="-985.7" font-family="Times,serif" font-size="14.00" fill="#000000"> &#160;&#160;&#160;&lt;&lt;event&gt;&gt; Transfer(from: address, to: address, value: uint256)</text>
</g>
<!-- 2 -->
<g id="node3" class="node">
<title>2</title>
<polygon fill="#f2f2f2" stroke="#000000" points="579.0576,-977.5 579.0576,-1135.9 833.8164,-1135.9 833.8164,-977.5 579.0576,-977.5"/>
<text text-anchor="middle" x="706.437" y="-1119.3" font-family="Times,serif" font-size="14.00" fill="#000000">&lt;&lt;Library&gt;&gt;</text>
<text text-anchor="middle" x="706.437" y="-1102.5" font-family="Times,serif" font-size="14.00" fill="#000000">SafeMath</text>
<polyline fill="none" stroke="#000000" points="579.0576,-1094.3 833.8164,-1094.3 "/>
<text text-anchor="middle" x="706.437" y="-1077.7" font-family="Times,serif" font-size="14.00" fill="#000000"> </text>
<polyline fill="none" stroke="#000000" points="579.0576,-1069.5 833.8164,-1069.5 "/>
<text text-anchor="start" x="587.0576" y="-1052.9" font-family="Times,serif" font-size="14.00" fill="#000000">Internal:</text>
<text text-anchor="start" x="587.0576" y="-1036.1" font-family="Times,serif" font-size="14.00" fill="#000000"> &#160;&#160;&#160;mul(a: uint256, b: uint256): (c: uint256)</text>
<text text-anchor="start" x="587.0576" y="-1019.3" font-family="Times,serif" font-size="14.00" fill="#000000"> &#160;&#160;&#160;div(a: uint256, b: uint256): uint256</text>
<text text-anchor="start" x="587.0576" y="-1002.5" font-family="Times,serif" font-size="14.00" fill="#000000"> &#160;&#160;&#160;sub(a: uint256, b: uint256): uint256</text>
<text text-anchor="start" x="587.0576" y="-985.7" font-family="Times,serif" font-size="14.00" fill="#000000"> &#160;&#160;&#160;add(a: uint256, b: uint256): (c: uint256)</text>
</g>
<!-- 3 -->
<g id="node4" class="node">
<title>3</title>
<polygon fill="#f2f2f2" stroke="#000000" points="96.1249,-782.1 96.1249,-940.5 550.7491,-940.5 550.7491,-782.1 96.1249,-782.1"/>
<text text-anchor="middle" x="323.437" y="-923.9" font-family="Times,serif" font-size="14.00" fill="#000000">&lt;&lt;Abstract&gt;&gt;</text>
<text text-anchor="middle" x="323.437" y="-907.1" font-family="Times,serif" font-size="14.00" fill="#000000">ERC20</text>
<polyline fill="none" stroke="#000000" points="96.1249,-898.9 550.7491,-898.9 "/>
<text text-anchor="middle" x="323.437" y="-882.3" font-family="Times,serif" font-size="14.00" fill="#000000"> </text>
<polyline fill="none" stroke="#000000" points="96.1249,-874.1 550.7491,-874.1 "/>
<text text-anchor="start" x="104.1249" y="-857.5" font-family="Times,serif" font-size="14.00" fill="#000000">Public:</text>
<text text-anchor="start" x="104.1249" y="-840.7" font-family="Times,serif" font-size="14.00" fill="#000000"> &#160;&#160;&#160;&lt;&lt;abstract&gt;&gt; allowance(owner: address, spender: address): uint256</text>
<text text-anchor="start" x="104.1249" y="-823.9" font-family="Times,serif" font-size="14.00" fill="#000000"> &#160;&#160;&#160;&lt;&lt;abstract&gt;&gt; transferFrom(from: address, to: address, value: uint256): bool</text>
<text text-anchor="start" x="104.1249" y="-807.1" font-family="Times,serif" font-size="14.00" fill="#000000"> &#160;&#160;&#160;&lt;&lt;abstract&gt;&gt; approve(spender: address, value: uint256): bool</text>
<text text-anchor="start" x="104.1249" y="-790.3" font-family="Times,serif" font-size="14.00" fill="#000000"> &#160;&#160;&#160;&lt;&lt;event&gt;&gt; Approval(owner: address, spender: address, value: uint256)</text>
</g>
<!-- 3&#45;&gt;1 -->
<g id="edge1" class="edge">
<title>3&#45;&gt;1</title>
<path fill="none" stroke="#000000" d="M332.792,-940.7767C333.0467,-942.941 333.303,-945.1178 333.5601,-947.3024"/>
<polygon fill="none" stroke="#000000" points="323.1552,-948.7269 337.0903,-977.2938 344.0112,-946.272 323.1552,-948.7269"/>
</g>
<!-- 4 -->
<g id="node5" class="node">
<title>4</title>
<polygon fill="#f2f2f2" stroke="#000000" points="568.3868,-782.1 568.3868,-940.5 844.4872,-940.5 844.4872,-782.1 568.3868,-782.1"/>
<text text-anchor="middle" x="706.437" y="-923.9" font-family="Times,serif" font-size="14.00" fill="#000000">BasicToken</text>
<polyline fill="none" stroke="#000000" points="568.3868,-915.7 844.4872,-915.7 "/>
<text text-anchor="start" x="576.3868" y="-899.1" font-family="Times,serif" font-size="14.00" fill="#000000">Public:</text>
<text text-anchor="start" x="576.3868" y="-882.3" font-family="Times,serif" font-size="14.00" fill="#000000"> &#160;&#160;balances: mapping(address=&gt;uint256)</text>
<text text-anchor="start" x="576.3868" y="-865.5" font-family="Times,serif" font-size="14.00" fill="#000000"> &#160;&#160;totalSupply_: uint256</text>
<polyline fill="none" stroke="#000000" points="568.3868,-857.3 844.4872,-857.3 "/>
<text text-anchor="start" x="576.3868" y="-840.7" font-family="Times,serif" font-size="14.00" fill="#000000">Public:</text>
<text text-anchor="start" x="576.3868" y="-823.9" font-family="Times,serif" font-size="14.00" fill="#000000"> &#160;&#160;&#160;totalSupply(): uint256</text>
<text text-anchor="start" x="576.3868" y="-807.1" font-family="Times,serif" font-size="14.00" fill="#000000"> &#160;&#160;&#160;transfer(_to: address, _value: uint256): bool</text>
<text text-anchor="start" x="576.3868" y="-790.3" font-family="Times,serif" font-size="14.00" fill="#000000"> &#160;&#160;&#160;balanceOf(_owner: address): uint256</text>
</g>
<!-- 4&#45;&gt;1 -->
<g id="edge2" class="edge">
<title>4&#45;&gt;1</title>
<path fill="none" stroke="#000000" d="M568.2812,-936.2879C552.2092,-945.0114 535.6661,-953.9906 519.2038,-962.926"/>
<polygon fill="none" stroke="#000000" points="513.9446,-953.8335 492.587,-977.373 523.9625,-972.2901 513.9446,-953.8335"/>
</g>
<!-- 4&#45;&gt;2 -->
<g id="edge3" class="edge">
<title>4&#45;&gt;2</title>
<path fill="none" stroke="#000000" stroke-dasharray="5,2" d="M706.437,-940.7767C706.437,-949.4341 706.437,-958.2895 706.437,-967.0577"/>
<polygon fill="#000000" stroke="#000000" points="702.9371,-967.2937 706.437,-977.2938 709.9371,-967.2938 702.9371,-967.2937"/>
</g>
<!-- 5 -->
<g id="node6" class="node">
<title>5</title>
<polygon fill="#f2f2f2" stroke="#000000" points="503.0943,-569.9 503.0943,-745.1 909.7797,-745.1 909.7797,-569.9 503.0943,-569.9"/>
<text text-anchor="middle" x="706.437" y="-728.5" font-family="Times,serif" font-size="14.00" fill="#000000">StandardToken</text>
<polyline fill="none" stroke="#000000" points="503.0943,-720.3 909.7797,-720.3 "/>
<text text-anchor="start" x="511.0943" y="-703.7" font-family="Times,serif" font-size="14.00" fill="#000000">Internal:</text>
<text text-anchor="start" x="511.0943" y="-686.9" font-family="Times,serif" font-size="14.00" fill="#000000"> &#160;&#160;allowed: mapping(address=&gt;mapping(address=&gt;uint256))</text>
<polyline fill="none" stroke="#000000" points="503.0943,-678.7 909.7797,-678.7 "/>
<text text-anchor="start" x="511.0943" y="-662.1" font-family="Times,serif" font-size="14.00" fill="#000000">Public:</text>
<text text-anchor="start" x="511.0943" y="-645.3" font-family="Times,serif" font-size="14.00" fill="#000000"> &#160;&#160;&#160;transferFrom(_from: address, _to: address, _value: uint256): bool</text>
<text text-anchor="start" x="511.0943" y="-628.5" font-family="Times,serif" font-size="14.00" fill="#000000"> &#160;&#160;&#160;approve(_spender: address, _value: uint256): bool</text>
<text text-anchor="start" x="511.0943" y="-611.7" font-family="Times,serif" font-size="14.00" fill="#000000"> &#160;&#160;&#160;allowance(_owner: address, _spender: address): uint256</text>
<text text-anchor="start" x="511.0943" y="-594.9" font-family="Times,serif" font-size="14.00" fill="#000000"> &#160;&#160;&#160;increaseApproval(_spender: address, _addedValue: uint): bool</text>
<text text-anchor="start" x="511.0943" y="-578.1" font-family="Times,serif" font-size="14.00" fill="#000000"> &#160;&#160;&#160;decreaseApproval(_spender: address, _subtractedValue: uint): bool</text>
</g>
<!-- 5&#45;&gt;3 -->
<g id="edge4" class="edge">
<title>5&#45;&gt;3</title>
<path fill="none" stroke="#000000" d="M541.7878,-745.1123C527.6751,-752.6218 513.364,-760.237 499.1692,-767.7903"/>
<polygon fill="none" stroke="#000000" points="494.0859,-758.6011 472.5343,-781.9631 503.9507,-777.1399 494.0859,-758.6011"/>
</g>
<!-- 5&#45;&gt;4 -->
<g id="edge5" class="edge">
<title>5&#45;&gt;4</title>
<path fill="none" stroke="#000000" d="M706.437,-745.1123C706.437,-747.3029 706.437,-749.5024 706.437,-751.7068"/>
<polygon fill="none" stroke="#000000" points="695.9371,-751.8034 706.437,-781.8034 716.9371,-751.8034 695.9371,-751.8034"/>
</g>
<!-- 6 -->
<g id="node7" class="node">
<title>6</title>
<polygon fill="#f2f2f2" stroke="#000000" points="328.7505,-357.7 328.7505,-532.9 620.1235,-532.9 620.1235,-357.7 328.7505,-357.7"/>
<text text-anchor="middle" x="474.437" y="-516.3" font-family="Times,serif" font-size="14.00" fill="#000000">MintableToken</text>
<polyline fill="none" stroke="#000000" points="328.7505,-508.1 620.1235,-508.1 "/>
<text text-anchor="start" x="336.7505" y="-491.5" font-family="Times,serif" font-size="14.00" fill="#000000">Public:</text>
<text text-anchor="start" x="336.7505" y="-474.7" font-family="Times,serif" font-size="14.00" fill="#000000"> &#160;&#160;mintingFinished: bool</text>
<polyline fill="none" stroke="#000000" points="328.7505,-466.5 620.1235,-466.5 "/>
<text text-anchor="start" x="336.7505" y="-449.9" font-family="Times,serif" font-size="14.00" fill="#000000">Public:</text>
<text text-anchor="start" x="336.7505" y="-433.1" font-family="Times,serif" font-size="14.00" fill="#000000"> &#160;&#160;&#160;&lt;&lt;event&gt;&gt; Mint(to: address, amount: uint256)</text>
<text text-anchor="start" x="336.7505" y="-416.3" font-family="Times,serif" font-size="14.00" fill="#000000"> &#160;&#160;&#160;&lt;&lt;event&gt;&gt; MintFinished()</text>
<text text-anchor="start" x="336.7505" y="-399.5" font-family="Times,serif" font-size="14.00" fill="#000000"> &#160;&#160;&#160;&lt;&lt;modifier&gt;&gt; canMint()</text>
<text text-anchor="start" x="336.7505" y="-382.7" font-family="Times,serif" font-size="14.00" fill="#000000"> &#160;&#160;&#160;mint(_to: address, _amount: uint256): bool</text>
<text text-anchor="start" x="336.7505" y="-365.9" font-family="Times,serif" font-size="14.00" fill="#000000"> &#160;&#160;&#160;finishMinting(): bool</text>
</g>
<!-- 6&#45;&gt;0 -->
<g id="edge7" class="edge">
<title>6&#45;&gt;0</title>
<path fill="none" stroke="#000000" d="M378.399,-533.1416C369.4685,-541.31 360.3752,-549.6272 351.3395,-557.8917"/>
<polygon fill="none" stroke="#000000" points="344.1737,-550.2162 329.1236,-578.2117 358.347,-565.712 344.1737,-550.2162"/>
</g>
<!-- 6&#45;&gt;5 -->
<g id="edge6" class="edge">
<title>6&#45;&gt;5</title>
<path fill="none" stroke="#000000" d="M570.475,-533.1416C576.3592,-538.5237 582.3141,-543.9703 588.2766,-549.424"/>
<polygon fill="none" stroke="#000000" points="581.2476,-557.2246 610.4711,-569.7243 595.4209,-541.7288 581.2476,-557.2246"/>
</g>
<!-- 7 -->
<g id="node8" class="node">
<title>7</title>
<polygon fill="#f2f2f2" stroke="#000000" points="339.086,-195.9 339.086,-320.7 609.788,-320.7 609.788,-195.9 339.086,-195.9"/>
<text text-anchor="middle" x="474.437" y="-304.1" font-family="Times,serif" font-size="14.00" fill="#000000">CappedToken</text>
<polyline fill="none" stroke="#000000" points="339.086,-295.9 609.788,-295.9 "/>
<text text-anchor="start" x="347.086" y="-279.3" font-family="Times,serif" font-size="14.00" fill="#000000">Public:</text>
<text text-anchor="start" x="347.086" y="-262.5" font-family="Times,serif" font-size="14.00" fill="#000000"> &#160;&#160;cap: uint256</text>
<polyline fill="none" stroke="#000000" points="339.086,-254.3 609.788,-254.3 "/>
<text text-anchor="start" x="347.086" y="-237.7" font-family="Times,serif" font-size="14.00" fill="#000000">Public:</text>
<text text-anchor="start" x="347.086" y="-220.9" font-family="Times,serif" font-size="14.00" fill="#000000"> &#160;&#160;&#160;constructor(_cap: uint256)</text>
<text text-anchor="start" x="347.086" y="-204.1" font-family="Times,serif" font-size="14.00" fill="#000000"> &#160;&#160;&#160;mint(_to: address, _amount: uint256): bool</text>
</g>
<!-- 7&#45;&gt;6 -->
<g id="edge8" class="edge">
<title>7&#45;&gt;6</title>
<path fill="none" stroke="#000000" d="M474.437,-320.8283C474.437,-323.0381 474.437,-325.2739 474.437,-327.53"/>
<polygon fill="none" stroke="#000000" points="463.9371,-327.5305 474.437,-357.5305 484.9371,-327.5306 463.9371,-327.5305"/>
</g>
<!-- 8 -->
<g id="node9" class="node">
<title>8</title>
<polygon fill="#f2f2f2" stroke="#000000" points="391.3942,-.5 391.3942,-158.9 557.4798,-158.9 557.4798,-.5 391.3942,-.5"/>
<text text-anchor="middle" x="474.437" y="-142.3" font-family="Times,serif" font-size="14.00" fill="#000000">BTU</text>
<polyline fill="none" stroke="#000000" points="391.3942,-134.1 557.4798,-134.1 "/>
<text text-anchor="start" x="399.3942" y="-117.5" font-family="Times,serif" font-size="14.00" fill="#000000">Public:</text>
<text text-anchor="start" x="399.3942" y="-100.7" font-family="Times,serif" font-size="14.00" fill="#000000"> &#160;&#160;name: string</text>
<text text-anchor="start" x="399.3942" y="-83.9" font-family="Times,serif" font-size="14.00" fill="#000000"> &#160;&#160;symbol: string</text>
<text text-anchor="start" x="399.3942" y="-67.1" font-family="Times,serif" font-size="14.00" fill="#000000"> &#160;&#160;decimals: uint8</text>
<text text-anchor="start" x="399.3942" y="-50.3" font-family="Times,serif" font-size="14.00" fill="#000000"> &#160;&#160;INITIAL_SUPPLY: uint</text>
<polyline fill="none" stroke="#000000" points="391.3942,-42.1 557.4798,-42.1 "/>
<text text-anchor="start" x="399.3942" y="-25.5" font-family="Times,serif" font-size="14.00" fill="#000000">Public:</text>
<text text-anchor="start" x="399.3942" y="-8.7" font-family="Times,serif" font-size="14.00" fill="#000000"> &#160;&#160;&#160;constructor()</text>
</g>
<!-- 8&#45;&gt;7 -->
<g id="edge9" class="edge">
<title>8&#45;&gt;7</title>
<path fill="none" stroke="#000000" d="M474.437,-159.0767C474.437,-161.2864 474.437,-163.5043 474.437,-165.7249"/>
<polygon fill="none" stroke="#000000" points="463.9371,-165.7834 474.437,-195.7834 484.9371,-165.7835 463.9371,-165.7834"/>
</g>
</g>
</svg>
