<?xml version="1.0" encoding="UTF-8" standalone="no"?>
<!DOCTYPE svg PUBLIC "-//W3C//DTD SVG 1.1//EN"
 "http://www.w3.org/Graphics/SVG/1.1/DTD/svg11.dtd">
<!-- Generated by graphviz version 2.40.1 (20161225.0304)
 -->
<!-- Title: UmlClassDiagram Pages: 1 -->
<svg width="1281pt" height="966pt"
 viewBox="0.00 0.00 1280.75 965.80" xmlns="http://www.w3.org/2000/svg" xmlns:xlink="http://www.w3.org/1999/xlink">
<g id="graph0" class="graph" transform="scale(1 1) rotate(0) translate(4 961.8)">
<title>UmlClassDiagram</title>
<polygon fill="#ffffff" stroke="transparent" points="-4,4 -4,-961.8 1276.7491,-961.8 1276.7491,4 -4,4"/>
<!-- 0 -->
<g id="node1" class="node">
<title>0</title>
<polygon fill="#f2f2f2" stroke="#000000" points="0,-603.5 0,-761.9 484.874,-761.9 484.874,-603.5 0,-603.5"/>
<text text-anchor="middle" x="242.437" y="-745.3" font-family="Times,serif" font-size="14.00" fill="#000000">Ownable</text>
<polyline fill="none" stroke="#000000" points="0,-737.1 484.874,-737.1 "/>
<text text-anchor="start" x="8" y="-720.5" font-family="Times,serif" font-size="14.00" fill="#000000">Public:</text>
<text text-anchor="start" x="8" y="-703.7" font-family="Times,serif" font-size="14.00" fill="#000000"> &#160;&#160;owner: address</text>
<polyline fill="none" stroke="#000000" points="0,-695.5 484.874,-695.5 "/>
<text text-anchor="start" x="8" y="-678.9" font-family="Times,serif" font-size="14.00" fill="#000000">Public:</text>
<text text-anchor="start" x="8" y="-662.1" font-family="Times,serif" font-size="14.00" fill="#000000"> &#160;&#160;&#160;&lt;&lt;event&gt;&gt; OwnershipTransferred(previousOwner: address, newOwner: address)</text>
<text text-anchor="start" x="8" y="-645.3" font-family="Times,serif" font-size="14.00" fill="#000000"> &#160;&#160;&#160;&lt;&lt;modifier&gt;&gt; onlyOwner()</text>
<text text-anchor="start" x="8" y="-628.5" font-family="Times,serif" font-size="14.00" fill="#000000"> &#160;&#160;&#160;constructor()</text>
<text text-anchor="start" x="8" y="-611.7" font-family="Times,serif" font-size="14.00" fill="#000000"> &#160;&#160;&#160;transferOwnership(newOwner: address)</text>
</g>
<!-- 1 -->
<g id="node2" class="node">
<title>1</title>
<polygon fill="#f2f2f2" stroke="#000000" points="535.5208,-798.9 535.5208,-957.3 767.3532,-957.3 767.3532,-798.9 535.5208,-798.9"/>
<text text-anchor="middle" x="651.437" y="-940.7" font-family="Times,serif" font-size="14.00" fill="#000000">&lt;&lt;Library&gt;&gt;</text>
<text text-anchor="middle" x="651.437" y="-923.9" font-family="Times,serif" font-size="14.00" fill="#000000">SafeMath</text>
<polyline fill="none" stroke="#000000" points="535.5208,-915.7 767.3532,-915.7 "/>
<text text-anchor="middle" x="651.437" y="-899.1" font-family="Times,serif" font-size="14.00" fill="#000000"> </text>
<polyline fill="none" stroke="#000000" points="535.5208,-890.9 767.3532,-890.9 "/>
<text text-anchor="start" x="543.5208" y="-874.3" font-family="Times,serif" font-size="14.00" fill="#000000">Internal:</text>
<text text-anchor="start" x="543.5208" y="-857.5" font-family="Times,serif" font-size="14.00" fill="#000000"> &#160;&#160;&#160;mul(a: uint256, b: uint256): uint256</text>
<text text-anchor="start" x="543.5208" y="-840.7" font-family="Times,serif" font-size="14.00" fill="#000000"> &#160;&#160;&#160;div(a: uint256, b: uint256): uint256</text>
<text text-anchor="start" x="543.5208" y="-823.9" font-family="Times,serif" font-size="14.00" fill="#000000"> &#160;&#160;&#160;sub(a: uint256, b: uint256): uint256</text>
<text text-anchor="start" x="543.5208" y="-807.1" font-family="Times,serif" font-size="14.00" fill="#000000"> &#160;&#160;&#160;add(a: uint256, b: uint256): uint256</text>
</g>
<!-- 2 -->
<g id="node3" class="node">
<title>2</title>
<polygon fill="#f2f2f2" stroke="#000000" points="819.7066,-798.9 819.7066,-957.3 1203.1674,-957.3 1203.1674,-798.9 819.7066,-798.9"/>
<text text-anchor="middle" x="1011.437" y="-940.7" font-family="Times,serif" font-size="14.00" fill="#000000">&lt;&lt;Abstract&gt;&gt;</text>
<text text-anchor="middle" x="1011.437" y="-923.9" font-family="Times,serif" font-size="14.00" fill="#000000">ERC20Basic</text>
<polyline fill="none" stroke="#000000" points="819.7066,-915.7 1203.1674,-915.7 "/>
<text text-anchor="start" x="827.7066" y="-899.1" font-family="Times,serif" font-size="14.00" fill="#000000">Public:</text>
<text text-anchor="start" x="827.7066" y="-882.3" font-family="Times,serif" font-size="14.00" fill="#000000"> &#160;&#160;totalSupply: uint256</text>
<polyline fill="none" stroke="#000000" points="819.7066,-874.1 1203.1674,-874.1 "/>
<text text-anchor="start" x="827.7066" y="-857.5" font-family="Times,serif" font-size="14.00" fill="#000000">Public:</text>
<text text-anchor="start" x="827.7066" y="-840.7" font-family="Times,serif" font-size="14.00" fill="#000000"> &#160;&#160;&#160;&lt;&lt;abstract&gt;&gt; balanceOf(who: address): uint256</text>
<text text-anchor="start" x="827.7066" y="-823.9" font-family="Times,serif" font-size="14.00" fill="#000000"> &#160;&#160;&#160;&lt;&lt;abstract&gt;&gt; transfer(to: address, value: uint256): bool</text>
<text text-anchor="start" x="827.7066" y="-807.1" font-family="Times,serif" font-size="14.00" fill="#000000"> &#160;&#160;&#160;&lt;&lt;event&gt;&gt; Transfer(from: address, to: address, value: uint256)</text>
</g>
<!-- 3 -->
<g id="node4" class="node">
<title>3</title>
<polygon fill="#f2f2f2" stroke="#000000" points="502.5263,-620.3 502.5263,-745.1 800.3477,-745.1 800.3477,-620.3 502.5263,-620.3"/>
<text text-anchor="middle" x="651.437" y="-728.5" font-family="Times,serif" font-size="14.00" fill="#000000">BasicToken</text>
<polyline fill="none" stroke="#000000" points="502.5263,-720.3 800.3477,-720.3 "/>
<text text-anchor="start" x="510.5263" y="-703.7" font-family="Times,serif" font-size="14.00" fill="#000000">Public:</text>
<text text-anchor="start" x="510.5263" y="-686.9" font-family="Times,serif" font-size="14.00" fill="#000000"> &#160;&#160;balances: mapping(address=&gt;uint256)</text>
<polyline fill="none" stroke="#000000" points="502.5263,-678.7 800.3477,-678.7 "/>
<text text-anchor="start" x="510.5263" y="-662.1" font-family="Times,serif" font-size="14.00" fill="#000000">Public:</text>
<text text-anchor="start" x="510.5263" y="-645.3" font-family="Times,serif" font-size="14.00" fill="#000000"> &#160;&#160;&#160;transfer(_to: address, _value: uint256): bool</text>
<text text-anchor="start" x="510.5263" y="-628.5" font-family="Times,serif" font-size="14.00" fill="#000000"> &#160;&#160;&#160;balanceOf(_owner: address): (balance: uint256)</text>
</g>
<!-- 3&#45;&gt;1 -->
<g id="edge2" class="edge">
<title>3&#45;&gt;1</title>
<path fill="none" stroke="#000000" stroke-dasharray="5,2" d="M651.437,-745.3321C651.437,-759.1182 651.437,-773.9783 651.437,-788.5923"/>
<polygon fill="#000000" stroke="#000000" points="647.9371,-788.6541 651.437,-798.6542 654.9371,-788.6542 647.9371,-788.6541"/>
</g>
<!-- 3&#45;&gt;2 -->
<g id="edge1" class="edge">
<title>3&#45;&gt;2</title>
<path fill="none" stroke="#000000" d="M766.8287,-745.3321C789.8612,-757.8336 814.5209,-771.2183 838.994,-784.5018"/>
<polygon fill="none" stroke="#000000" points="834.0154,-793.7465 865.3908,-798.8294 844.0333,-775.2899 834.0154,-793.7465"/>
</g>
<!-- 4 -->
<g id="node5" class="node">
<title>4</title>
<polygon fill="#f2f2f2" stroke="#000000" points="818.1249,-603.5 818.1249,-761.9 1272.7491,-761.9 1272.7491,-603.5 818.1249,-603.5"/>
<text text-anchor="middle" x="1045.437" y="-745.3" font-family="Times,serif" font-size="14.00" fill="#000000">&lt;&lt;Abstract&gt;&gt;</text>
<text text-anchor="middle" x="1045.437" y="-728.5" font-family="Times,serif" font-size="14.00" fill="#000000">ERC20</text>
<polyline fill="none" stroke="#000000" points="818.1249,-720.3 1272.7491,-720.3 "/>
<text text-anchor="middle" x="1045.437" y="-703.7" font-family="Times,serif" font-size="14.00" fill="#000000"> </text>
<polyline fill="none" stroke="#000000" points="818.1249,-695.5 1272.7491,-695.5 "/>
<text text-anchor="start" x="826.1249" y="-678.9" font-family="Times,serif" font-size="14.00" fill="#000000">Public:</text>
<text text-anchor="start" x="826.1249" y="-662.1" font-family="Times,serif" font-size="14.00" fill="#000000"> &#160;&#160;&#160;&lt;&lt;abstract&gt;&gt; allowance(owner: address, spender: address): uint256</text>
<text text-anchor="start" x="826.1249" y="-645.3" font-family="Times,serif" font-size="14.00" fill="#000000"> &#160;&#160;&#160;&lt;&lt;abstract&gt;&gt; transferFrom(from: address, to: address, value: uint256): bool</text>
<text text-anchor="start" x="826.1249" y="-628.5" font-family="Times,serif" font-size="14.00" fill="#000000"> &#160;&#160;&#160;&lt;&lt;abstract&gt;&gt; approve(spender: address, value: uint256): bool</text>
<text text-anchor="start" x="826.1249" y="-611.7" font-family="Times,serif" font-size="14.00" fill="#000000"> &#160;&#160;&#160;&lt;&lt;event&gt;&gt; Approval(owner: address, spender: address, value: uint256)</text>
</g>
<!-- 4&#45;&gt;2 -->
<g id="edge3" class="edge">
<title>4&#45;&gt;2</title>
<path fill="none" stroke="#000000" d="M1031.6079,-762.1767C1031.2149,-764.4351 1030.8196,-766.7071 1030.4228,-768.9874"/>
<polygon fill="none" stroke="#000000" points="1020.0521,-767.3379 1025.2538,-798.6938 1040.7413,-770.9379 1020.0521,-767.3379"/>
</g>
<!-- 5 -->
<g id="node6" class="node">
<title>5</title>
<polygon fill="#f2f2f2" stroke="#000000" points="435.0943,-382.9 435.0943,-558.1 841.7797,-558.1 841.7797,-382.9 435.0943,-382.9"/>
<text text-anchor="middle" x="638.437" y="-541.5" font-family="Times,serif" font-size="14.00" fill="#000000">StandardToken</text>
<polyline fill="none" stroke="#000000" points="435.0943,-533.3 841.7797,-533.3 "/>
<text text-anchor="start" x="443.0943" y="-516.7" font-family="Times,serif" font-size="14.00" fill="#000000">Internal:</text>
<text text-anchor="start" x="443.0943" y="-499.9" font-family="Times,serif" font-size="14.00" fill="#000000"> &#160;&#160;allowed: mapping(address=&gt;mapping(address=&gt;uint256))</text>
<polyline fill="none" stroke="#000000" points="435.0943,-491.7 841.7797,-491.7 "/>
<text text-anchor="start" x="443.0943" y="-475.1" font-family="Times,serif" font-size="14.00" fill="#000000">Public:</text>
<text text-anchor="start" x="443.0943" y="-458.3" font-family="Times,serif" font-size="14.00" fill="#000000"> &#160;&#160;&#160;transferFrom(_from: address, _to: address, _value: uint256): bool</text>
<text text-anchor="start" x="443.0943" y="-441.5" font-family="Times,serif" font-size="14.00" fill="#000000"> &#160;&#160;&#160;approve(_spender: address, _value: uint256): bool</text>
<text text-anchor="start" x="443.0943" y="-424.7" font-family="Times,serif" font-size="14.00" fill="#000000"> &#160;&#160;&#160;allowance(_owner: address, _spender: address): uint256</text>
<text text-anchor="start" x="443.0943" y="-407.9" font-family="Times,serif" font-size="14.00" fill="#000000"> &#160;&#160;&#160;increaseApproval(_spender: address, _addedValue: uint): bool</text>
<text text-anchor="start" x="443.0943" y="-391.1" font-family="Times,serif" font-size="14.00" fill="#000000"> &#160;&#160;&#160;decreaseApproval(_spender: address, _subtractedValue: uint): bool</text>
</g>
<!-- 5&#45;&gt;3 -->
<g id="edge5" class="edge">
<title>5&#45;&gt;3</title>
<path fill="none" stroke="#000000" d="M643.8184,-558.3416C644.4541,-568.7173 645.1044,-579.3332 645.7442,-589.7761"/>
<polygon fill="none" stroke="#000000" points="635.2915,-590.8711 647.6064,-620.1729 656.2522,-589.5869 635.2915,-590.8711"/>
</g>
<!-- 5&#45;&gt;4 -->
<g id="edge4" class="edge">
<title>5&#45;&gt;4</title>
<path fill="none" stroke="#000000" d="M806.6233,-558.1883C826.4068,-568.503 846.6497,-579.0571 866.5729,-589.4446"/>
<polygon fill="none" stroke="#000000" points="862.0137,-598.9089 893.4695,-603.4678 871.7223,-580.2879 862.0137,-598.9089"/>
</g>
<!-- 6 -->
<g id="node7" class="node">
<title>6</title>
<polygon fill="#f2f2f2" stroke="#000000" points="492.7505,-162.3 492.7505,-337.5 784.1235,-337.5 784.1235,-162.3 492.7505,-162.3"/>
<text text-anchor="middle" x="638.437" y="-320.9" font-family="Times,serif" font-size="14.00" fill="#000000">MintableToken</text>
<polyline fill="none" stroke="#000000" points="492.7505,-312.7 784.1235,-312.7 "/>
<text text-anchor="start" x="500.7505" y="-296.1" font-family="Times,serif" font-size="14.00" fill="#000000">Public:</text>
<text text-anchor="start" x="500.7505" y="-279.3" font-family="Times,serif" font-size="14.00" fill="#000000"> &#160;&#160;mintingFinished: bool</text>
<polyline fill="none" stroke="#000000" points="492.7505,-271.1 784.1235,-271.1 "/>
<text text-anchor="start" x="500.7505" y="-254.5" font-family="Times,serif" font-size="14.00" fill="#000000">Public:</text>
<text text-anchor="start" x="500.7505" y="-237.7" font-family="Times,serif" font-size="14.00" fill="#000000"> &#160;&#160;&#160;&lt;&lt;event&gt;&gt; Mint(to: address, amount: uint256)</text>
<text text-anchor="start" x="500.7505" y="-220.9" font-family="Times,serif" font-size="14.00" fill="#000000"> &#160;&#160;&#160;&lt;&lt;event&gt;&gt; MintFinished()</text>
<text text-anchor="start" x="500.7505" y="-204.1" font-family="Times,serif" font-size="14.00" fill="#000000"> &#160;&#160;&#160;&lt;&lt;modifier&gt;&gt; canMint()</text>
<text text-anchor="start" x="500.7505" y="-187.3" font-family="Times,serif" font-size="14.00" fill="#000000"> &#160;&#160;&#160;mint(_to: address, _amount: uint256): bool</text>
<text text-anchor="start" x="500.7505" y="-170.5" font-family="Times,serif" font-size="14.00" fill="#000000"> &#160;&#160;&#160;finishMinting(): bool</text>
</g>
<!-- 6&#45;&gt;0 -->
<g id="edge7" class="edge">
<title>6&#45;&gt;0</title>
<path fill="none" stroke="#000000" d="M492.5369,-334.1056C456.7309,-355.0053 428.0234,-372.0778 426.437,-374 368.5482,-444.1434 406.9559,-490.0771 358.437,-567 355.7246,-571.3004 352.8253,-575.5643 349.7787,-579.7759"/>
<polygon fill="none" stroke="#000000" points="341.5616,-573.239 330.9908,-603.2142 357.9472,-586.3735 341.5616,-573.239"/>
</g>
<!-- 6&#45;&gt;5 -->
<g id="edge6" class="edge">
<title>6&#45;&gt;5</title>
<path fill="none" stroke="#000000" d="M638.437,-337.7208C638.437,-342.5701 638.437,-347.4799 638.437,-352.4106"/>
<polygon fill="none" stroke="#000000" points="627.9371,-352.6209 638.437,-382.621 648.9371,-352.621 627.9371,-352.6209"/>
</g>
<!-- 7 -->
<g id="node8" class="node">
<title>7</title>
<polygon fill="#f2f2f2" stroke="#000000" points="135.646,-374.5 135.646,-566.5 349.228,-566.5 349.228,-374.5 135.646,-374.5"/>
<text text-anchor="middle" x="242.437" y="-549.9" font-family="Times,serif" font-size="14.00" fill="#000000">Pausable</text>
<polyline fill="none" stroke="#000000" points="135.646,-541.7 349.228,-541.7 "/>
<text text-anchor="start" x="143.646" y="-525.1" font-family="Times,serif" font-size="14.00" fill="#000000">Public:</text>
<text text-anchor="start" x="143.646" y="-508.3" font-family="Times,serif" font-size="14.00" fill="#000000"> &#160;&#160;paused: bool</text>
<polyline fill="none" stroke="#000000" points="135.646,-500.1 349.228,-500.1 "/>
<text text-anchor="start" x="143.646" y="-483.5" font-family="Times,serif" font-size="14.00" fill="#000000">Public:</text>
<text text-anchor="start" x="143.646" y="-466.7" font-family="Times,serif" font-size="14.00" fill="#000000"> &#160;&#160;&#160;&lt;&lt;event&gt;&gt; Pause()</text>
<text text-anchor="start" x="143.646" y="-449.9" font-family="Times,serif" font-size="14.00" fill="#000000"> &#160;&#160;&#160;&lt;&lt;event&gt;&gt; Unpause()</text>
<text text-anchor="start" x="143.646" y="-433.1" font-family="Times,serif" font-size="14.00" fill="#000000"> &#160;&#160;&#160;&lt;&lt;modifier&gt;&gt; whenNotPaused()</text>
<text text-anchor="start" x="143.646" y="-416.3" font-family="Times,serif" font-size="14.00" fill="#000000"> &#160;&#160;&#160;&lt;&lt;modifier&gt;&gt; whenPaused()</text>
<text text-anchor="start" x="143.646" y="-399.5" font-family="Times,serif" font-size="14.00" fill="#000000"> &#160;&#160;&#160;pause()</text>
<text text-anchor="start" x="143.646" y="-382.7" font-family="Times,serif" font-size="14.00" fill="#000000"> &#160;&#160;&#160;unpause()</text>
</g>
<!-- 7&#45;&gt;0 -->
<g id="edge8" class="edge">
<title>7&#45;&gt;0</title>
<path fill="none" stroke="#000000" d="M242.437,-566.6661C242.437,-568.873 242.437,-571.0856 242.437,-573.3002"/>
<polygon fill="none" stroke="#000000" points="231.9371,-573.3828 242.437,-603.3828 252.9371,-573.3828 231.9371,-573.3828"/>
</g>
<!-- 8 -->
<g id="node9" class="node">
<title>8</title>
<polygon fill="#f2f2f2" stroke="#000000" points="9.7496,-170.7 9.7496,-329.1 475.1244,-329.1 475.1244,-170.7 9.7496,-170.7"/>
<text text-anchor="middle" x="242.437" y="-312.5" font-family="Times,serif" font-size="14.00" fill="#000000">PausableToken</text>
<polyline fill="none" stroke="#000000" points="9.7496,-304.3 475.1244,-304.3 "/>
<text text-anchor="middle" x="242.437" y="-287.7" font-family="Times,serif" font-size="14.00" fill="#000000"> </text>
<polyline fill="none" stroke="#000000" points="9.7496,-279.5 475.1244,-279.5 "/>
<text text-anchor="start" x="17.7496" y="-262.9" font-family="Times,serif" font-size="14.00" fill="#000000">Public:</text>
<text text-anchor="start" x="17.7496" y="-246.1" font-family="Times,serif" font-size="14.00" fill="#000000"> &#160;&#160;&#160;transfer(_to: address, _value: uint256): bool</text>
<text text-anchor="start" x="17.7496" y="-229.3" font-family="Times,serif" font-size="14.00" fill="#000000"> &#160;&#160;&#160;transferFrom(_from: address, _to: address, _value: uint256): bool</text>
<text text-anchor="start" x="17.7496" y="-212.5" font-family="Times,serif" font-size="14.00" fill="#000000"> &#160;&#160;&#160;approve(_spender: address, _value: uint256): bool</text>
<text text-anchor="start" x="17.7496" y="-195.7" font-family="Times,serif" font-size="14.00" fill="#000000"> &#160;&#160;&#160;increaseApproval(_spender: address, _addedValue: uint): (success: bool)</text>
<text text-anchor="start" x="17.7496" y="-178.9" font-family="Times,serif" font-size="14.00" fill="#000000"> &#160;&#160;&#160;decreaseApproval(_spender: address, _subtractedValue: uint): (success: bool)</text>
</g>
<!-- 8&#45;&gt;5 -->
<g id="edge9" class="edge">
<title>8&#45;&gt;5</title>
<path fill="none" stroke="#000000" d="M384.8426,-329.23C407.478,-341.8395 431.1682,-355.0366 454.5928,-368.0858"/>
<polygon fill="none" stroke="#000000" points="449.539,-377.2897 480.8567,-382.7166 459.7588,-358.9442 449.539,-377.2897"/>
</g>
<!-- 8&#45;&gt;7 -->
<g id="edge10" class="edge">
<title>8&#45;&gt;7</title>
<path fill="none" stroke="#000000" d="M242.437,-329.23C242.437,-334.1265 242.437,-339.1117 242.437,-344.1424"/>
<polygon fill="none" stroke="#000000" points="231.9371,-344.1766 242.437,-374.1766 252.9371,-344.1766 231.9371,-344.1766"/>
</g>
<!-- 9 -->
<g id="node10" class="node">
<title>9</title>
<polygon fill="#f2f2f2" stroke="#000000" points="384.221,-.5 384.221,-125.3 496.653,-125.3 496.653,-.5 384.221,-.5"/>
<text text-anchor="middle" x="440.437" y="-108.7" font-family="Times,serif" font-size="14.00" fill="#000000">ODEMToken</text>
<polyline fill="none" stroke="#000000" points="384.221,-100.5 496.653,-100.5 "/>
<text text-anchor="start" x="392.221" y="-83.9" font-family="Times,serif" font-size="14.00" fill="#000000">Public:</text>
<text text-anchor="start" x="392.221" y="-67.1" font-family="Times,serif" font-size="14.00" fill="#000000"> &#160;&#160;name: string</text>
<text text-anchor="start" x="392.221" y="-50.3" font-family="Times,serif" font-size="14.00" fill="#000000"> &#160;&#160;symbol: string</text>
<text text-anchor="start" x="392.221" y="-33.5" font-family="Times,serif" font-size="14.00" fill="#000000"> &#160;&#160;decimals: uint8</text>
<polyline fill="none" stroke="#000000" points="384.221,-25.3 496.653,-25.3 "/>
<text text-anchor="middle" x="440.437" y="-8.7" font-family="Times,serif" font-size="14.00" fill="#000000"> </text>
</g>
<!-- 9&#45;&gt;6 -->
<g id="edge12" class="edge">
<title>9&#45;&gt;6</title>
<path fill="none" stroke="#000000" d="M496.9109,-116.2364C505.3434,-124.2005 514.2842,-132.6446 523.4117,-141.265"/>
<polygon fill="none" stroke="#000000" points="516.5695,-149.2455 545.5894,-162.2106 530.9886,-133.9783 516.5695,-149.2455"/>
</g>
<!-- 9&#45;&gt;8 -->
<g id="edge11" class="edge">
<title>9&#45;&gt;8</title>
<path fill="none" stroke="#000000" d="M383.9631,-116.2364C372.7471,-126.8294 360.6319,-138.2714 348.3743,-149.8481"/>
<polygon fill="none" stroke="#000000" points="340.9208,-142.4448 326.3199,-170.6772 355.3399,-157.7121 340.9208,-142.4448"/>
</g>
</g>
</svg>
