<?xml version="1.0" encoding="UTF-8" standalone="no"?>
<!DOCTYPE svg PUBLIC "-//W3C//DTD SVG 1.1//EN"
 "http://www.w3.org/Graphics/SVG/1.1/DTD/svg11.dtd">
<!-- Generated by graphviz version 2.40.1 (20161225.0304)
 -->
<!-- Title: UmlClassDiagram Pages: 1 -->
<svg width="1336pt" height="804pt"
 viewBox="0.00 0.00 1335.75 804.00" xmlns="http://www.w3.org/2000/svg" xmlns:xlink="http://www.w3.org/1999/xlink">
<g id="graph0" class="graph" transform="scale(1 1) rotate(0) translate(4 800)">
<title>UmlClassDiagram</title>
<polygon fill="#ffffff" stroke="transparent" points="-4,4 -4,-800 1331.7491,-800 1331.7491,4 -4,4"/>
<!-- 0 -->
<g id="node1" class="node">
<title>0</title>
<polygon fill="#f2f2f2" stroke="#000000" points="590.5208,-637.1 590.5208,-795.5 822.3532,-795.5 822.3532,-637.1 590.5208,-637.1"/>
<text text-anchor="middle" x="706.437" y="-778.9" font-family="Times,serif" font-size="14.00" fill="#000000">&lt;&lt;Library&gt;&gt;</text>
<text text-anchor="middle" x="706.437" y="-762.1" font-family="Times,serif" font-size="14.00" fill="#000000">SafeMath</text>
<polyline fill="none" stroke="#000000" points="590.5208,-753.9 822.3532,-753.9 "/>
<text text-anchor="middle" x="706.437" y="-737.3" font-family="Times,serif" font-size="14.00" fill="#000000"> </text>
<polyline fill="none" stroke="#000000" points="590.5208,-729.1 822.3532,-729.1 "/>
<text text-anchor="start" x="598.5208" y="-712.5" font-family="Times,serif" font-size="14.00" fill="#000000">Internal:</text>
<text text-anchor="start" x="598.5208" y="-695.7" font-family="Times,serif" font-size="14.00" fill="#000000"> &#160;&#160;&#160;mul(a: uint256, b: uint256): uint256</text>
<text text-anchor="start" x="598.5208" y="-678.9" font-family="Times,serif" font-size="14.00" fill="#000000"> &#160;&#160;&#160;div(a: uint256, b: uint256): uint256</text>
<text text-anchor="start" x="598.5208" y="-662.1" font-family="Times,serif" font-size="14.00" fill="#000000"> &#160;&#160;&#160;sub(a: uint256, b: uint256): uint256</text>
<text text-anchor="start" x="598.5208" y="-645.3" font-family="Times,serif" font-size="14.00" fill="#000000"> &#160;&#160;&#160;add(a: uint256, b: uint256): uint256</text>
</g>
<!-- 1 -->
<g id="node2" class="node">
<title>1</title>
<polygon fill="#f2f2f2" stroke="#000000" points="0,-237.9 0,-396.3 484.874,-396.3 484.874,-237.9 0,-237.9"/>
<text text-anchor="middle" x="242.437" y="-379.7" font-family="Times,serif" font-size="14.00" fill="#000000">Ownable</text>
<polyline fill="none" stroke="#000000" points="0,-371.5 484.874,-371.5 "/>
<text text-anchor="start" x="8" y="-354.9" font-family="Times,serif" font-size="14.00" fill="#000000">Public:</text>
<text text-anchor="start" x="8" y="-338.1" font-family="Times,serif" font-size="14.00" fill="#000000"> &#160;&#160;owner: address</text>
<polyline fill="none" stroke="#000000" points="0,-329.9 484.874,-329.9 "/>
<text text-anchor="start" x="8" y="-313.3" font-family="Times,serif" font-size="14.00" fill="#000000">Public:</text>
<text text-anchor="start" x="8" y="-296.5" font-family="Times,serif" font-size="14.00" fill="#000000"> &#160;&#160;&#160;&lt;&lt;event&gt;&gt; OwnershipTransferred(previousOwner: address, newOwner: address)</text>
<text text-anchor="start" x="8" y="-279.7" font-family="Times,serif" font-size="14.00" fill="#000000"> &#160;&#160;&#160;&lt;&lt;modifier&gt;&gt; onlyOwner()</text>
<text text-anchor="start" x="8" y="-262.9" font-family="Times,serif" font-size="14.00" fill="#000000"> &#160;&#160;&#160;constructor()</text>
<text text-anchor="start" x="8" y="-246.1" font-family="Times,serif" font-size="14.00" fill="#000000"> &#160;&#160;&#160;transferOwnership(newOwner: address)</text>
</g>
<!-- 2 -->
<g id="node3" class="node">
<title>2</title>
<polygon fill="#f2f2f2" stroke="#000000" points="874.7066,-637.1 874.7066,-795.5 1258.1674,-795.5 1258.1674,-637.1 874.7066,-637.1"/>
<text text-anchor="middle" x="1066.437" y="-778.9" font-family="Times,serif" font-size="14.00" fill="#000000">&lt;&lt;Abstract&gt;&gt;</text>
<text text-anchor="middle" x="1066.437" y="-762.1" font-family="Times,serif" font-size="14.00" fill="#000000">ERC20Basic</text>
<polyline fill="none" stroke="#000000" points="874.7066,-753.9 1258.1674,-753.9 "/>
<text text-anchor="start" x="882.7066" y="-737.3" font-family="Times,serif" font-size="14.00" fill="#000000">Public:</text>
<text text-anchor="start" x="882.7066" y="-720.5" font-family="Times,serif" font-size="14.00" fill="#000000"> &#160;&#160;totalSupply: uint256</text>
<polyline fill="none" stroke="#000000" points="874.7066,-712.3 1258.1674,-712.3 "/>
<text text-anchor="start" x="882.7066" y="-695.7" font-family="Times,serif" font-size="14.00" fill="#000000">Public:</text>
<text text-anchor="start" x="882.7066" y="-678.9" font-family="Times,serif" font-size="14.00" fill="#000000"> &#160;&#160;&#160;&lt;&lt;abstract&gt;&gt; balanceOf(who: address): uint256</text>
<text text-anchor="start" x="882.7066" y="-662.1" font-family="Times,serif" font-size="14.00" fill="#000000"> &#160;&#160;&#160;&lt;&lt;abstract&gt;&gt; transfer(to: address, value: uint256): bool</text>
<text text-anchor="start" x="882.7066" y="-645.3" font-family="Times,serif" font-size="14.00" fill="#000000"> &#160;&#160;&#160;&lt;&lt;event&gt;&gt; Transfer(from: address, to: address, value: uint256)</text>
</g>
<!-- 3 -->
<g id="node4" class="node">
<title>3</title>
<polygon fill="#f2f2f2" stroke="#000000" points="557.5263,-458.5 557.5263,-583.3 855.3477,-583.3 855.3477,-458.5 557.5263,-458.5"/>
<text text-anchor="middle" x="706.437" y="-566.7" font-family="Times,serif" font-size="14.00" fill="#000000">BasicToken</text>
<polyline fill="none" stroke="#000000" points="557.5263,-558.5 855.3477,-558.5 "/>
<text text-anchor="start" x="565.5263" y="-541.9" font-family="Times,serif" font-size="14.00" fill="#000000">Public:</text>
<text text-anchor="start" x="565.5263" y="-525.1" font-family="Times,serif" font-size="14.00" fill="#000000"> &#160;&#160;balances: mapping(address=&gt;uint256)</text>
<polyline fill="none" stroke="#000000" points="557.5263,-516.9 855.3477,-516.9 "/>
<text text-anchor="start" x="565.5263" y="-500.3" font-family="Times,serif" font-size="14.00" fill="#000000">Public:</text>
<text text-anchor="start" x="565.5263" y="-483.5" font-family="Times,serif" font-size="14.00" fill="#000000"> &#160;&#160;&#160;transfer(_to: address, _value: uint256): bool</text>
<text text-anchor="start" x="565.5263" y="-466.7" font-family="Times,serif" font-size="14.00" fill="#000000"> &#160;&#160;&#160;balanceOf(_owner: address): (balance: uint256)</text>
</g>
<!-- 3&#45;&gt;0 -->
<g id="edge2" class="edge">
<title>3&#45;&gt;0</title>
<path fill="none" stroke="#000000" stroke-dasharray="5,2" d="M706.437,-583.5321C706.437,-597.3182 706.437,-612.1783 706.437,-626.7923"/>
<polygon fill="#000000" stroke="#000000" points="702.9371,-626.8541 706.437,-636.8542 709.9371,-626.8542 702.9371,-626.8541"/>
</g>
<!-- 3&#45;&gt;2 -->
<g id="edge1" class="edge">
<title>3&#45;&gt;2</title>
<path fill="none" stroke="#000000" d="M821.8287,-583.5321C844.8612,-596.0336 869.5209,-609.4183 893.994,-622.7018"/>
<polygon fill="none" stroke="#000000" points="889.0154,-631.9465 920.3908,-637.0294 899.0333,-613.4899 889.0154,-631.9465"/>
</g>
<!-- 4 -->
<g id="node5" class="node">
<title>4</title>
<polygon fill="#f2f2f2" stroke="#000000" points="873.1249,-441.7 873.1249,-600.1 1327.7491,-600.1 1327.7491,-441.7 873.1249,-441.7"/>
<text text-anchor="middle" x="1100.437" y="-583.5" font-family="Times,serif" font-size="14.00" fill="#000000">&lt;&lt;Abstract&gt;&gt;</text>
<text text-anchor="middle" x="1100.437" y="-566.7" font-family="Times,serif" font-size="14.00" fill="#000000">ERC20</text>
<polyline fill="none" stroke="#000000" points="873.1249,-558.5 1327.7491,-558.5 "/>
<text text-anchor="middle" x="1100.437" y="-541.9" font-family="Times,serif" font-size="14.00" fill="#000000"> </text>
<polyline fill="none" stroke="#000000" points="873.1249,-533.7 1327.7491,-533.7 "/>
<text text-anchor="start" x="881.1249" y="-517.1" font-family="Times,serif" font-size="14.00" fill="#000000">Public:</text>
<text text-anchor="start" x="881.1249" y="-500.3" font-family="Times,serif" font-size="14.00" fill="#000000"> &#160;&#160;&#160;&lt;&lt;abstract&gt;&gt; allowance(owner: address, spender: address): uint256</text>
<text text-anchor="start" x="881.1249" y="-483.5" font-family="Times,serif" font-size="14.00" fill="#000000"> &#160;&#160;&#160;&lt;&lt;abstract&gt;&gt; transferFrom(from: address, to: address, value: uint256): bool</text>
<text text-anchor="start" x="881.1249" y="-466.7" font-family="Times,serif" font-size="14.00" fill="#000000"> &#160;&#160;&#160;&lt;&lt;abstract&gt;&gt; approve(spender: address, value: uint256): bool</text>
<text text-anchor="start" x="881.1249" y="-449.9" font-family="Times,serif" font-size="14.00" fill="#000000"> &#160;&#160;&#160;&lt;&lt;event&gt;&gt; Approval(owner: address, spender: address, value: uint256)</text>
</g>
<!-- 4&#45;&gt;2 -->
<g id="edge3" class="edge">
<title>4&#45;&gt;2</title>
<path fill="none" stroke="#000000" d="M1086.6079,-600.3767C1086.2149,-602.6351 1085.8196,-604.9071 1085.4228,-607.1874"/>
<polygon fill="none" stroke="#000000" points="1075.0521,-605.5379 1080.2538,-636.8938 1095.7413,-609.1379 1075.0521,-605.5379"/>
</g>
<!-- 5 -->
<g id="node6" class="node">
<title>5</title>
<polygon fill="#f2f2f2" stroke="#000000" points="503.0943,-229.5 503.0943,-404.7 909.7797,-404.7 909.7797,-229.5 503.0943,-229.5"/>
<text text-anchor="middle" x="706.437" y="-388.1" font-family="Times,serif" font-size="14.00" fill="#000000">StandardToken</text>
<polyline fill="none" stroke="#000000" points="503.0943,-379.9 909.7797,-379.9 "/>
<text text-anchor="start" x="511.0943" y="-363.3" font-family="Times,serif" font-size="14.00" fill="#000000">Internal:</text>
<text text-anchor="start" x="511.0943" y="-346.5" font-family="Times,serif" font-size="14.00" fill="#000000"> &#160;&#160;allowed: mapping(address=&gt;mapping(address=&gt;uint256))</text>
<polyline fill="none" stroke="#000000" points="503.0943,-338.3 909.7797,-338.3 "/>
<text text-anchor="start" x="511.0943" y="-321.7" font-family="Times,serif" font-size="14.00" fill="#000000">Public:</text>
<text text-anchor="start" x="511.0943" y="-304.9" font-family="Times,serif" font-size="14.00" fill="#000000"> &#160;&#160;&#160;transferFrom(_from: address, _to: address, _value: uint256): bool</text>
<text text-anchor="start" x="511.0943" y="-288.1" font-family="Times,serif" font-size="14.00" fill="#000000"> &#160;&#160;&#160;approve(_spender: address, _value: uint256): bool</text>
<text text-anchor="start" x="511.0943" y="-271.3" font-family="Times,serif" font-size="14.00" fill="#000000"> &#160;&#160;&#160;allowance(_owner: address, _spender: address): uint256</text>
<text text-anchor="start" x="511.0943" y="-254.5" font-family="Times,serif" font-size="14.00" fill="#000000"> &#160;&#160;&#160;increaseApproval(_spender: address, _addedValue: uint): bool</text>
<text text-anchor="start" x="511.0943" y="-237.7" font-family="Times,serif" font-size="14.00" fill="#000000"> &#160;&#160;&#160;decreaseApproval(_spender: address, _subtractedValue: uint): bool</text>
</g>
<!-- 5&#45;&gt;3 -->
<g id="edge5" class="edge">
<title>5&#45;&gt;3</title>
<path fill="none" stroke="#000000" d="M706.437,-404.7123C706.437,-412.4538 706.437,-420.3076 706.437,-428.0901"/>
<polygon fill="none" stroke="#000000" points="695.9371,-428.2727 706.437,-458.2728 716.9371,-428.2728 695.9371,-428.2727"/>
</g>
<!-- 5&#45;&gt;4 -->
<g id="edge4" class="edge">
<title>5&#45;&gt;4</title>
<path fill="none" stroke="#000000" d="M875.815,-404.7123C890.518,-412.3175 905.4303,-420.031 920.2156,-427.6789"/>
<polygon fill="none" stroke="#000000" points="915.5871,-437.1062 947.0575,-441.5631 925.2352,-418.4538 915.5871,-437.1062"/>
</g>
<!-- 6 -->
<g id="node7" class="node">
<title>6</title>
<polygon fill="#f2f2f2" stroke="#000000" points="152.7271,-.5 152.7271,-192.5 796.1469,-192.5 796.1469,-.5 152.7271,-.5"/>
<text text-anchor="middle" x="474.437" y="-175.9" font-family="Times,serif" font-size="14.00" fill="#000000">Dragon</text>
<polyline fill="none" stroke="#000000" points="152.7271,-167.7 796.1469,-167.7 "/>
<text text-anchor="start" x="160.7271" y="-151.1" font-family="Times,serif" font-size="14.00" fill="#000000">Public:</text>
<text text-anchor="start" x="160.7271" y="-134.3" font-family="Times,serif" font-size="14.00" fill="#000000"> &#160;&#160;name: string</text>
<text text-anchor="start" x="160.7271" y="-117.5" font-family="Times,serif" font-size="14.00" fill="#000000"> &#160;&#160;symbol: string</text>
<text text-anchor="start" x="160.7271" y="-100.7" font-family="Times,serif" font-size="14.00" fill="#000000"> &#160;&#160;decimals: uint8</text>
<text text-anchor="start" x="160.7271" y="-83.9" font-family="Times,serif" font-size="14.00" fill="#000000"> &#160;&#160;INITIAL_SUPPLY: uint256</text>
<text text-anchor="start" x="160.7271" y="-67.1" font-family="Times,serif" font-size="14.00" fill="#000000"> &#160;&#160;distributionLocks: mapping(address=&gt;bool)</text>
<polyline fill="none" stroke="#000000" points="152.7271,-58.9 796.1469,-58.9 "/>
<text text-anchor="start" x="160.7271" y="-42.3" font-family="Times,serif" font-size="14.00" fill="#000000">Public:</text>
<text text-anchor="start" x="160.7271" y="-25.5" font-family="Times,serif" font-size="14.00" fill="#000000"> &#160;&#160;&#160;constructor()</text>
<text text-anchor="start" x="160.7271" y="-8.7" font-family="Times,serif" font-size="14.00" fill="#000000"> &#160;&#160;&#160;anailNathrachOrthaBhaisIsBeathaDoChealDeanaimh(addresses: address[], values: uint256[]): (success: bool)</text>
</g>
<!-- 6&#45;&gt;1 -->
<g id="edge7" class="edge">
<title>6&#45;&gt;1</title>
<path fill="none" stroke="#000000" d="M373.3533,-192.6166C364.9202,-200.6353 356.3802,-208.7557 347.9155,-216.8045"/>
<polygon fill="none" stroke="#000000" points="340.3156,-209.542 325.8102,-237.8235 354.7862,-224.7604 340.3156,-209.542"/>
</g>
<!-- 6&#45;&gt;5 -->
<g id="edge6" class="edge">
<title>6&#45;&gt;5</title>
<path fill="none" stroke="#000000" d="M575.5207,-192.6166C581.0298,-197.8551 586.5847,-203.1369 592.1343,-208.4139"/>
<polygon fill="none" stroke="#000000" points="585.1097,-216.2235 614.0857,-229.2866 599.5803,-201.005 585.1097,-216.2235"/>
</g>
</g>
</svg>
